<svg xmlns="http://www.w3.org/2000/svg" width="86.32" height="94.8" viewBox="0 0 86.32 94.8">
    <defs>
        <style>.cls-1{fill:#f7b29c;}.cls-2{fill:#585857;}.cls-3{fill:#fff;}</style>
    </defs>
    <g id="Layer_2" data-name="Layer 2">
        <g id="Capa_1" data-name="Capa 1">
            <rect  class="cls-1" x="36.83" y="2.99" width="12.96" height="8.53"/>
            <rect class="cls-2" x="31.34" width="23.94" height="5.2"/>
            <path  class="cls-2" d="M86.32,51.64A43.16,43.16,0,1,1,43.16,8.48,43.16,43.16,0,0,1,86.32,51.64"/>
            <path style="fill: #99bbd2" class="cls-1" d="M78.61,51.64A35.45,35.45,0,1,1,43.16,16.19,35.45,35.45,0,0,1,78.61,51.64"/>
            <path  class="cls-3"
                  d="M23.14,32.55a.89.89,0,0,1-.63-.26L21,30.81a.89.89,0,1,1,1.26-1.27L23.77,31a.89.89,0,0,1,0,1.26.91.91,0,0,1-.63.26"/>
            <path class="cls-3"
                  d="M65,74.43a.93.93,0,0,1-.63-.26L62.9,72.68a.91.91,0,0,1,0-1.26.92.92,0,0,1,1.27,0l1.48,1.48a.92.92,0,0,1,0,1.27.93.93,0,0,1-.64.26"/>
            <path  class="cls-3"
                  d="M21.66,74.43A.9.9,0,0,1,21,72.9l1.48-1.48a.91.91,0,0,1,1.26,0,.89.89,0,0,1,0,1.26l-1.48,1.49a.93.93,0,0,1-.63.26"/>
            <path class="cls-3"
                  d="M63.53,32.55a.93.93,0,0,1-.63-.26.91.91,0,0,1,0-1.26l1.48-1.49a.9.9,0,1,1,1.27,1.27l-1.48,1.48a.93.93,0,0,1-.64.26"/>
            <path  class="cls-2" d="M45.35,22a2,2,0,1,1-2-2,2,2,0,0,1,2,2"/>
            <path class="cls-2" d="M45.35,81.34a2,2,0,1,1-2-2,2,2,0,0,1,2,2"/>
            <path class="cls-2" d="M13.62,49.61a2,2,0,1,1-2,2,2,2,0,0,1,2-2"/>
            <path class="cls-2" d="M73,49.61a2,2,0,1,1-2,2,2,2,0,0,1,2-2"/>
            <path class="cls-3" d="M56,33.25,41.42,50.33a2.29,2.29,0,1,0,3.82,2.3l11.26-19a.32.32,0,0,0-.51-.37"/>
        </g>
    </g>
</svg>