<svg xmlns="http://www.w3.org/2000/svg" width="29.7" height="29.69" viewBox="0 0 29.7 29.69"><defs><style>.cls-1{fill:#1d1d1b;fill-rule:evenodd;}</style></defs><g id="Layer_2" data-name="Layer 2"><g id="Capa_1" data-name="Capa 1"><path class="cls-1" d="M29.65,25.8c-.22-.22-6.75-4.34-7.63-4.93-.46-.31-.3-.24-1.24.1l-2.63,1c-.75.28-.61.25-1.26-.14A26.16,26.16,0,0,1,8.6,14c-.24-.36-.46-.72-.69-1.11-.39-.65-.44-.53-.17-1.26L9,8.31C9.09,8,9,8,8.85,7.71S8.38,7,8.14,6.61c-.46-.74-.92-1.43-1.4-2.19L4.62,1.14A10,10,0,0,0,3.9,0a12.87,12.87,0,0,0-1.06,1A7.59,7.59,0,0,0,.35,4.87c-1,3.46.26,7.07,1.78,10.1a27.18,27.18,0,0,0,1.58,2.6L5,19.37c.74.91,1.28,1.45,2,2.24l3.25,3L12.1,26a24,24,0,0,0,5.51,2.86,12.43,12.43,0,0,0,7.18.53c2.4-.7,3.13-1.84,4.73-3.4Z"/><path class="cls-1" d="M14.24,2.36a21.29,21.29,0,0,1,2.91.36,12.7,12.7,0,0,1,2.44.81,13.13,13.13,0,0,1,7.38,9c.11.46.18.91.25,1.41s0,1.16.11,1.53h2.34A13.71,13.71,0,0,0,29.3,12a14.73,14.73,0,0,0-1-2.92A15.42,15.42,0,0,0,17.72.41,13.36,13.36,0,0,0,14.24,0Z"/><path class="cls-1" d="M14.24,7.13a8.93,8.93,0,0,1,3.4.74,8.69,8.69,0,0,1,2.48,1.71,8.41,8.41,0,0,1,2.22,4c.16.65.12,1.23.23,1.87h2.34a9.76,9.76,0,0,0-.25-2.39A10.63,10.63,0,0,0,23,9.36,11.71,11.71,0,0,0,21.8,7.9,10.64,10.64,0,0,0,16.63,5a9.42,9.42,0,0,0-2.4-.25Z"/><path class="cls-1" d="M14.24,11.86a5.29,5.29,0,0,1,1.42.33,3.29,3.29,0,0,1,1.07.73,3.56,3.56,0,0,1,1.08,2.54h2.37A6,6,0,0,0,16.65,10a5.76,5.76,0,0,0-2.4-.5Z"/></g></g></svg>