<svg id="Capa_1" data-name="Capa 1" xmlns="http://www.w3.org/2000/svg" xmlns:xlink="http://www.w3.org/1999/xlink"
     width="47.98mm" height="45.01mm" viewBox="0 0 136 127.59">
    <defs>
        <radialGradient id="GradientFill_2" cx="43.05" cy="52.81" r="45.81" gradientUnits="userSpaceOnUse">
            <stop offset="0" stop-color="#f4d535"/>
            <stop offset="0.48" stop-color="#f4d535"/>
            <stop offset="0.82" stop-color="#f4c535"/>
            <stop offset="1" stop-color="#f3b435"/>
        </radialGradient>
        <radialGradient id="GradientFill_2-2" cx="43.02" cy="52.84" r="25.1" xlink:href="#GradientFill_2"/>
        <radialGradient id="GradientFill_2-3" cx="102.55" cy="84.2" r="20.54" xlink:href="#GradientFill_2"/>
        <radialGradient id="GradientFill_2-4" cx="102.58" cy="84.18" r="34.73" xlink:href="#GradientFill_2"/>
    </defs>
    <title>ICONO ENGRANAJE</title>
    <path style="fill: #98bad3"
        d="M43,76.08a23.21,23.21,0,1,1,23.2-23.21A23.23,23.23,0,0,1,43,76.08ZM80.37,65.53a39,39,0,0,0,1.93-9.28l-6.4-3.1c0-1,0-2.08-.12-3.13,0-.37-.08-.72-.12-1.08l6-3.81a39.54,39.54,0,0,0-2.94-9l-7.11.52a34.68,34.68,0,0,0-2.31-3.54l3.31-6.29a40,40,0,0,0-7.06-6.32l-5.9,4a33.15,33.15,0,0,0-3.76-1.91l-.28-7.1a38.88,38.88,0,0,0-9.28-1.94L43.25,20c-1,0-2.07,0-3.13.12L39,20.19l-3.79-6a39.32,39.32,0,0,0-9,3l.52,7.11a30.72,30.72,0,0,0-3.54,2.31l-6.29-3.31a39.27,39.27,0,0,0-6.32,7.06l4,5.89a33.18,33.18,0,0,0-1.91,3.76l-7.11.28A38.77,38.77,0,0,0,3.66,49.5l6.4,3.1c0,1,0,2.08.12,3.13,0,.36.08.72.12,1.08l-6,3.8a38.92,38.92,0,0,0,3,9l7.1-.51a34.54,34.54,0,0,0,2.31,3.53l-3.31,6.29a39,39,0,0,0,7.07,6.32l5.89-4a32.43,32.43,0,0,0,3.76,1.92l.28,7.1A39.29,39.29,0,0,0,39.6,92.2l3.11-6.41c1,0,2.08,0,3.13-.12.36,0,.72-.07,1.07-.12l3.8,6a38.84,38.84,0,0,0,9-3l-.51-7.11a35.68,35.68,0,0,0,3.53-2.31L69,82.52a39.66,39.66,0,0,0,6.32-7.06l-4-5.89a36.06,36.06,0,0,0,1.92-3.77Z"
        fill-rule="evenodd" fill="url(#GradientFill_2)"/>
    <path style="fill: #98bad3"
        d="M59.19,51.46a16.28,16.28,0,1,1-17.62-14.8,16.27,16.27,0,0,1,17.62,14.8ZM21.44,52.87A21.54,21.54,0,1,0,43,31.33,21.57,21.57,0,0,0,21.44,52.87Z"
        fill-rule="evenodd" fill="url(#GradientFill_2-2)"/>
    <path style="fill: #98bad3"
        d="M111.81,78.45A10.76,10.76,0,1,1,93.18,89.22a10.88,10.88,0,0,1,3.71-14.43,10.76,10.76,0,0,1,14.92,3.66ZM84.89,83.86a17.63,17.63,0,1,0,18-17.27A17.66,17.66,0,0,0,84.89,83.86Z"
        fill-rule="evenodd" fill="url(#GradientFill_2-3)"/>
    <path style="fill: #98bad3"
        d="M102.12,103.49a19.27,19.27,0,1,1,19.66-18.86,19.29,19.29,0,0,1-19.66,18.86ZM132.2,87.15a29.89,29.89,0,0,0-.07-6.48l-5-1.2A28,28,0,0,0,126,75.55l3.68-3.63a28.16,28.16,0,0,0-1.5-2.88,29.3,29.3,0,0,0-1.8-2.69l-5,1.48a25.24,25.24,0,0,0-2.9-2.86l1.37-5a30.28,30.28,0,0,0-5.65-3.18l-3.56,3.77a24.14,24.14,0,0,0-3.93-1l-1.31-5a29.17,29.17,0,0,0-6.47.08l-1.21,5a26.19,26.19,0,0,0-3.91,1.1l-3.64-3.67a28.14,28.14,0,0,0-2.88,1.49,31.39,31.39,0,0,0-2.69,1.79l1.48,5a26.08,26.08,0,0,0-2.86,2.9l-5-1.36A29.8,29.8,0,0,0,75.1,72.5l3.76,3.56a25.56,25.56,0,0,0-1,3.94l-5,1.31a29.89,29.89,0,0,0,.07,6.48L78,89A25.24,25.24,0,0,0,79,92.91l-3.68,3.63a28,28,0,0,0,1.5,2.87,30.15,30.15,0,0,0,1.8,2.7l5-1.48a25.23,25.23,0,0,0,2.91,2.85l-1.37,5a30.07,30.07,0,0,0,5.63,3.17l3.57-3.76a24.11,24.11,0,0,0,3.93,1l1.31,5a30.53,30.53,0,0,0,6.48-.06l1.19-5a24.9,24.9,0,0,0,3.92-1.11l3.65,3.68a27,27,0,0,0,2.87-1.49,29.3,29.3,0,0,0,2.69-1.8l-1.47-5a26,26,0,0,0,2.85-2.9l5,1.36A28.77,28.77,0,0,0,129.93,96l-3.76-3.56a25.21,25.21,0,0,0,1-3.93Z"
        fill-rule="evenodd" fill="url(#GradientFill_2-4)"/>
</svg>
