<svg xmlns="http://www.w3.org/2000/svg" width="137.12" height="74.81" viewBox="0 0 137.12 74.81">
    <defs>
        <style>.cls-1,.cls-3{fill:#585857;}.cls-2{fill:#f7b29c;}.cls-3{fill-rule:evenodd;}</style>
    </defs>
    <g id="Layer_2" data-name="Layer 2">
        <g id="Capa_1" data-name="Capa 1">
            <path  class="cls-1" d="M0,43.92S34.72,9.66,66.68,9.66s69,33.34,69,33.34-12.42-43-69-43S0,43.92,0,43.92"/>
            <path style="fill: #d2a981" class="cls-2"
                  d="M98,41.82a36.48,36.48,0,0,1-70-19.31C39.61,15.59,53.39,9.66,66.68,9.66a64.46,64.46,0,0,1,21.25,4.08A15,15,0,0,0,98,41.82"/>
            <path class="cls-3"
                  d="M65.39,13.29a17.16,17.16,0,0,1,15.08,9A15.09,15.09,0,0,0,81.9,35.12,17.15,17.15,0,1,1,65.39,13.29"/>
            <path class="cls-1"
                  d="M135.67,43l1.45,3.8s-22.28,23.51-51.84,28c0,0,21.68-8.34,35.39-19.49s15-12.32,15-12.32"/>
        </g>
    </g>
</svg>
