<svg xmlns="http://www.w3.org/2000/svg" width="149.42" height="90.3" viewBox="0 0 149.42 90.3"><defs><style>.cls-1{fill:#fff;}</style></defs><g id="Layer_2" data-name="Layer 2"><g id="Capa_1" data-name="Capa 1"><rect class="cls-1" y="85.76" width="149.42" height="4.54"/><path class="cls-1" d="M58.79,51,69.86,39.53a3.08,3.08,0,0,1,2.23-1H97.86a3.11,3.11,0,0,1,0,6.21H84.05a2.09,2.09,0,0,0-1.46.6,2.06,2.06,0,0,0,1.46,3.52h18.09A5.39,5.39,0,0,0,106,47.32l8.45-8.44a3.09,3.09,0,0,1,4.39,0l.72.72a3.09,3.09,0,0,1,0,4.39L106.78,56.74A11.09,11.09,0,0,1,98.94,60H73.56l-4,4Z"/><path class="cls-1" d="M50.68,59.77,59.94,70.6l3.71-3.09L54.38,56.68ZM59.41,77,44.22,59.23l10.7-8.93L70.1,68.05Z"/><path class="cls-1" d="M116.38,5.27c-.06-.66-1.13-4.8-.73-5.27A49,49,0,0,1,98,12.43C91.29,15.15,87.06,23,89.58,28.89l0,0c4.55-1.07,13.34-4.12,18.74-12.33,0,0-4.37,13.25-16.31,15.65a11.72,11.72,0,0,0,2.21,1.56,11.54,11.54,0,0,0,1.79.81c11.26,4.12,18.72-7.92,20.13-17.31a49.93,49.93,0,0,0,.22-12"/><path class="cls-1" d="M66.29,13.84c0-.47.8-3.43.52-3.77A35.21,35.21,0,0,0,79.47,19c4.78,1.94,7.81,7.53,6,11.78,0,0,0,0,0,0-3.26-.76-9.55-2.95-13.41-8.83,0,0,3.12,9.49,11.67,11.21a8.71,8.71,0,0,1-1.58,1.12,9.83,9.83,0,0,1-1.28.58c-8.06,2.95-13.4-5.68-14.41-12.4a35.43,35.43,0,0,1-.16-8.61"/></g></g></svg>