<svg xmlns="http://www.w3.org/2000/svg" width="149.42" height="73.73" viewBox="0 0 149.42 73.73"><defs><style>.cls-1{fill:#fff;}</style></defs><g id="Layer_2" data-name="Layer 2"><g id="Capa_1" data-name="Capa 1"><path class="cls-1" d="M109.79,24.61l-9.17-6.79V7.33h-9v3.83L76.58,0,43.38,24.61A2,2,0,0,0,43,27.56a2.37,2.37,0,0,0,3.17.33L76.58,5.37,107,27.89a2.38,2.38,0,0,0,1.41.46,2.3,2.3,0,0,0,1.76-.79,2,2,0,0,0-.35-2.95"/><path class="cls-1" d="M52.54,27.29V53.54h17V42.64a6.16,6.16,0,0,1,6.38-5.93h1.39a6.17,6.17,0,0,1,6.38,5.93v10.9h17V27.29l-24-17.82Z"/><path class="cls-1" d="M48.09,32.85,41.54,28V20.5H35.11v2.74l-10.76-8L.61,32.85A1.44,1.44,0,0,0,.35,35a1.69,1.69,0,0,0,2.27.24L24.35,19.1,46.07,35.2a1.72,1.72,0,0,0,1,.33A1.67,1.67,0,0,0,48.34,35a1.43,1.43,0,0,0-.25-2.11"/><path class="cls-1" d="M7.16,34.77V53.54H19.29v-7.8a4.41,4.41,0,0,1,4.56-4.24h1a4.41,4.41,0,0,1,4.57,4.24v7.8H41.54V34.77L24.35,22Z"/><rect class="cls-1" y="69.19" width="149.42" height="4.54"/></g></g></svg>