<?xml version="1.0" encoding="utf-8"?>
<!-- Generator: Adobe Illustrator 22.1.0, SVG Export Plug-In . SVG Version: 6.00 Build 0)  -->
<svg version="1.1" id="Capa_1" xmlns="http://www.w3.org/2000/svg" xmlns:xlink="http://www.w3.org/1999/xlink" x="0px" y="0px"
	 viewBox="0 0 450.3 426.9" style="enable-background:new 0 0 450.3 426.9;" xml:space="preserve">
<style type="text/css">
	.st0{clip-path:url(#SVGID_2_);fill:url(#SVGID_3_);}
	.st1{fill-rule:evenodd;clip-rule:evenodd;fill:#9ABCD2;}
</style>
<g>
	<g>
		<defs>
			<path id="SVGID_1_" d="M167.2,112.5c4.6,3.2,23,7.1,37.1,23l2.1,2.3c0.1,0.1,0.2,0.2,0.4,0.4c17.6,18.2,24.9,48.9,19.2,73.7
				l-4.6,15.5c0,0-3.3,12.6-10,22c3.7,8.4,7.9,15.5,8.8,24.4c1.1,10.8-3.4,16.8-3.8,20.4c4.8,3.7,12.4,2.6,17.2,12.1
				c4.9,9.7-0.1,15.3-1.2,21.5c3.6,4.2,12.7,2.3,17.7,13.4c4.2,9.3-1.1,16-1.9,21.9c9.8,2.5,20.4,6.7,19.4,20.6
				c-0.4,5.4-7.1,23.5-9.5,28c-7.2,13.3-20.2,9.8-28.5,6.7c-8.3-3.1-18.9-5.5-26.5-13.9c-6.7-7.4-13.8-25.2-18.5-35.2
				c-5.9-12.6-11.9-25.2-17.9-37.9c-6-12.6-11.8-25.3-17.7-37.9c-9.9-21-7.6-13.3-25.1-17.4c-38.3-9-66.2-44-64.4-85.1
				c0.3-7-5.4-8-9.7-10.7c-40-25.3-53.8-73.6-36-116.8C30.8,21.9,79.1-2.3,123.1,10c15.4,4.3,37.6,14.9,50.6,32.9
				c6.2,8.5,18.2,23.7,6.6,30c-11.2,6.1-14.3-9.3-23.7-20.7c-29.8-35.9-85.1-35-115.1,0.9c-12.9,15.5-18.7,35.2-16.1,57.2
				c1.3,11.3,6.1,24.5,13.8,34.7c5.7,7.6,17.7,19.5,24.3,20.4c4.4-4.4,14.3-44.5,63.5-54.1c1.3-0.3,2.5-0.4,3.6-0.6
				c3.4-0.4,5.9-0.5,8.4-1.2C145.8,109.1,155.9,109.2,167.2,112.5 M78.2,193.6c-1.7,7.3,3.6,23.9,8.1,32.4
				c9.8,18.3,28.1,29.7,47.2,32.6l10.6,0.8c12.5-0.2,14.4,9.6,20.3,22.4l45.2,95.9c7.9,17,7.7,15.8,22.1,21c3,1.1,6.3,2.7,9.1,3.3
				c1.2-1.8,6.6-17.3,6.7-19.8c-5-3.3-17.8-2.8-20.5-11.2c-2-6.3,6-17.7,5.2-22.8c-5-2.3-18.2-4-20.9-10.4
				c-3.1-7.1,5.7-16.7,5.7-22.9c-2.4-2-10.8-3.9-14.2-5.2c-12.8-5.1-7.9-12.1-2.8-26.1c3-8.3,0.8-11.7-3.6-21.2
				c-11.8-25.6-6.4-18.5,3.7-35.3c29.8-49.9-16.8-111.3-73-96.6c-16.6,4.4-31.1,15.5-39.4,29.6c-2.4,4-5.9,9.4-5.2,13.8
				c3.7,0.4,20.9,2.1,24.2,1.5c3-5.3,1.7-11.9,10.4-19.6c7.6-6.7,16.7-8,24.4-6.5c15.6,3,26.9,20.7,20.5,37.4
				c-6.5,17.1-25.6,22.8-39.8,14.8c-11.5-6.6-4.4-7.8-20.4-7.6C96.3,194,81.9,192.8,78.2,193.6z M141.6,170.2
				c-2.1-2.3-2.7-2.6-5.8-2.3c-10.2-0.4-13.2,13.6-4,17.5C141.8,189.6,149.7,176.1,141.6,170.2z"/>
		</defs>
		<clipPath id="SVGID_2_">
			<use xlink:href="#SVGID_1_"  style="overflow:visible;"/>
		</clipPath>
		<linearGradient id="SVGID_3_" gradientUnits="userSpaceOnUse" x1="82.5926" y1="106.0706" x2="209.7826" y2="375.9805">
			<stop  offset="0" style="stop-color:#575756"/>
			<stop  offset="1" style="stop-color:#3C3B3A"/>
		</linearGradient>
		<rect x="-4.2" y="-2.3" class="st0" width="272.8" height="427.2"/>
	</g>
	<path class="st1" d="M139,109.6c6.7-0.5,16.9-0.4,28.2,2.9c6.2-6.4,20.7-11.6,29.4-13.1c9.3-1.6,17.7-0.9,27,1.5
		c49.3,12.8,47.7,59,50.3,64.2c3,6.1,15.7,8.7,23.4,11.3c12.7,4.2,11.8,10.6,19.1,23.7c7.7,13.6,17.5-0.5,27.4-1.6l2.1,2.8
		c0.5,0.8,1,2.1,1.4,3c9.6,20.6,10.6,15.6,32,6.4c5,6.7,8.5,24.9,17.8,19.8c2.3-1.7,6-2.9,8.8-4.2c4-1.8,6.5-3.5,8.6-2.9
		c0.9,0.2,0.1-1.9,2.3,1.6l3.3,7.2c1.6,3.3,3.3,6.5,4.5,9.9c-1.4,1-19.4,10.3-23.5,10.2l-1.3-0.3c-5-1.2-2.8,0.6-10.9-2.6
		c-3.7-1.4-7.2-2.4-10.9-3.8L313.2,222c-14.7-5.2-28.7-10.6-43.5-15.8c-11.9-4.2-13.7,2.6-22.3,9.4c-5.1,4-19.8,12.5-26,11.7
		c0,0-3.3,12.6-10,22c14.2-5.3,24.5-2.6,43.1-15.4c7.7-5.3,8.8-10.3,17.1-6.9c23.2,9.6,60.1,21.4,85.3,30.8c6,2.2,11.4,4.1,17.4,6.3
		c5.7,2.1,10.9,4.5,17.1,5.9c12.2,2.6,28.8-3.4,42.4-12c6.2-3.9,9.3-9.9,9-16.3c-0.3-6.8-5.2-15.3-8.5-22.1
		c-3.8-8-6.9-12.9-13.7-14.8c-9.1-2.5-10.9,1.2-20.5,3.9c-3.5-6.3-5.3-11.4-11-14.8c-3.2-1.9-9.9-3.9-15.2-1.2l-9.4,3.7l-4.4-8.5
		c-2.6-5.7-8.6-8.6-12.8-9c-6.9-0.7-10.9,1.7-17.9,4.9c-8.4-16-10.3-20.6-31.1-27.1c-3.2-1-6.7-0.8-8-5.6
		c-3.1-11.4-3.6-20.5-13.2-34.3c-12.6-18.2-29.3-29.4-48.6-34.2l-7.2-1.6c-0.9-0.1-0.3,0-1.4-0.2c-0.1,0-0.3-0.1-0.5-0.1l-10-1.1
		c-24.3-0.4-43.8,7.2-62.2,24.8C144.1,107.5,141.6,108.9,139,109.6"/>
</g>
</svg>
