<svg xmlns="http://www.w3.org/2000/svg" width="149.42" height="102.87" viewBox="0 0 149.42 102.87"><defs><style>.cls-1{fill:#fff;}.cls-2{fill:none;stroke:#fff;stroke-width:2px;}</style></defs><g id="Layer_2" data-name="Layer 2"><g id="Capa_1" data-name="Capa 1"><rect class="cls-1" y="98.33" width="149.42" height="4.54"/><path class="cls-1" d="M111.79,25.58a17,17,0,1,0,17,17,17,17,0,0,0-17-17m0,41a23.92,23.92,0,1,1,23.92-23.92A23.95,23.95,0,0,1,111.79,66.53Z"/><path class="cls-1" d="M111.79,16a1.47,1.47,0,0,1-1.47-1.48V7a1.48,1.48,0,1,1,3,0v7.54A1.48,1.48,0,0,1,111.79,16"/><path class="cls-1" d="M131.64,24.24a1.48,1.48,0,0,1-1-.43,1.49,1.49,0,0,1,0-2.09l5.34-5.33A1.47,1.47,0,1,1,138,18.47l-5.34,5.34a1.45,1.45,0,0,1-1,.43"/><path class="cls-1" d="M147.4,44.09h-7.54a1.48,1.48,0,0,1,0-3h7.54a1.48,1.48,0,0,1,0,3"/><path class="cls-1" d="M92,24.24a1.45,1.45,0,0,1-1-.43l-5.34-5.34a1.47,1.47,0,0,1,2.09-2.08L93,21.72a1.49,1.49,0,0,1,0,2.09,1.48,1.48,0,0,1-1,.43"/><path class="cls-1" d="M83.73,44.09H76.19a1.48,1.48,0,1,1,0-3h7.54a1.48,1.48,0,0,1,0,3"/><line class="cls-2" x1="69.91" y1="0.7" x2="141.72" y2="74.57"/></g></g></svg>