<svg xmlns="http://www.w3.org/2000/svg" width="149.42" height="56.74" viewBox="0 0 149.42 56.74"><defs><style>.cls-1,.cls-2{fill:#fff;}.cls-2{fill-rule:evenodd;}</style></defs><g id="Layer_2" data-name="Layer 2"><g id="Capa_1" data-name="Capa 1"><rect class="cls-1" y="52.2" width="149.42" height="4.54"/><path class="cls-1" d="M119.78,26.49l-14.93,5.58a3,3,0,0,1-2.42-.11L79.17,20.87a3.11,3.11,0,0,1,2.68-5.61l12.46,6a2.06,2.06,0,1,0,1.78-3.71L79.75,9.7a5.4,5.4,0,0,0-4.14-.22l-11.26,4a3.11,3.11,0,0,1-4-1.89l-.34-1a3.1,3.1,0,0,1,1.89-4l17-6a11,11,0,0,1,8.48.44L110.32,12l5.28-1.87Z"/><path class="cls-1" d="M130.88,22.07,127.18,8.3l-4.67,1.2,3.69,13.76Zm-.47-19.29,6.06,22.55L123,28.79,116.91,6.23Z"/><path class="cls-2" d="M44.92,18.73,44.23,22a3.9,3.9,0,0,0-2.9-1,3.94,3.94,0,0,0-3.11,1.37,4.69,4.69,0,0,0-.95,1.95h6.47l-.38,1.82H37.05c0,.18,0,.41,0,.69s0,.56,0,.85h6l-.38,1.83H37.3a4.67,4.67,0,0,0,.9,2,3.84,3.84,0,0,0,3,1.39,4.77,4.77,0,0,0,3.6-1.4v3.61a7.84,7.84,0,0,1-3.56.77,7.36,7.36,0,0,1-5.62-2.36,8,8,0,0,1-2-4H31.94l.38-1.83h1.14c0-.19,0-.38,0-.59s0-.67,0-.95H31.94l.38-1.82h1.39a8,8,0,0,1,2-3.92A7.58,7.58,0,0,1,41.5,18a7.63,7.63,0,0,1,3.42.72M15.29,15.21H61.56a2.36,2.36,0,0,1,2.35,2.35V36.3a2.35,2.35,0,0,1-2.35,2.34H15.29A2.34,2.34,0,0,1,13,36.3V17.56A2.35,2.35,0,0,1,15.29,15.21Z"/></g></g></svg>