<svg xmlns="http://www.w3.org/2000/svg" width="162.53" height="78.18" viewBox="0 0 162.53 78.18"><defs><style>.cls-1{fill:#fff;}</style></defs><g id="Layer_2" data-name="Layer 2"><g id="Capa_1" data-name="Capa 1"><rect class="cls-1" y="73.64" width="149.42" height="4.54"/><path class="cls-1" d="M118.08,64a32,32,0,1,1,23.51-53.74,2.21,2.21,0,1,1-3.25,3,27.49,27.49,0,1,0,6.3,11.26,2.21,2.21,0,1,1,4.26-1.2A32,32,0,0,1,118.08,64"/><path class="cls-1" d="M118.08,53.7a21.69,21.69,0,1,1,13.53-38.63,2.22,2.22,0,1,1-2.77,3.46,17,17,0,0,0-10.76-3.77A17.26,17.26,0,1,0,135.33,32c0-.52,0-1-.07-1.57a2.21,2.21,0,1,1,4.41-.4c.06.65.09,1.31.09,2A21.71,21.71,0,0,1,118.08,53.7"/><path class="cls-1" d="M128.47,32a10.4,10.4,0,1,1-10.4-10.4A10.39,10.39,0,0,1,128.47,32"/><path class="cls-1" d="M118.08,34.23A2.21,2.21,0,0,1,117,30.08L152.46,10.6a2.21,2.21,0,1,1,2.13,3.88L119.14,34a2.16,2.16,0,0,1-1.06.28"/><path class="cls-1" d="M160.32,16.72a1.87,1.87,0,0,1-.57-.08l-9.15-2.42L153,5.07a2.21,2.21,0,0,1,4.28,1.13L156,11.07l4.87,1.3a2.21,2.21,0,0,1-.57,4.35"/></g></g></svg>