<svg id="Capa_1" data-name="Capa 1" xmlns="http://www.w3.org/2000/svg" xmlns:xlink="http://www.w3.org/1999/xlink"
     width="47.98mm" height="45.01mm" viewBox="0 0 136 127.59">
    <defs>
        <radialGradient id="GradientFill_2" cx="67.44" cy="45.69" r="43.38" gradientUnits="userSpaceOnUse">
            <stop offset="0" stop-color="#f4d535"/>
            <stop offset="0.48" stop-color="#f4d535"/>
            <stop offset="0.82" stop-color="#f4c535"/>
            <stop offset="1" stop-color="#f3b435"/>
        </radialGradient>
        <radialGradient id="GradientFill_2-2" cx="67.61" cy="88.56" r="44.81" xlink:href="#GradientFill_2"/>
        <radialGradient id="GradientFill_2-3" cx="90.13" cy="88.86" r="25.44" xlink:href="#GradientFill_2"/>
        <radialGradient id="GradientFill_2-4" cx="90.11" cy="88.88" r="10.54" xlink:href="#GradientFill_2"/>
        <radialGradient id="GradientFill_2-5" cx="44.28" cy="20.82" r="8.63" xlink:href="#GradientFill_2"/>
        <radialGradient id="GradientFill_2-6" cx="91.96" cy="31.85" r="7.43" xlink:href="#GradientFill_2"/>
        <radialGradient id="GradientFill_2-7" cx="77.7" cy="9.19" r="10.14" xlink:href="#GradientFill_2"/>
    </defs>
    <title>ICONO EMBUDO OK</title>
    <path style="fill: #98bad3"
          d="M31.15,35.55h72.41a7.05,7.05,0,0,1,5,2.08h0a7.05,7.05,0,0,1,2.08,5v6.13a7.1,7.1,0,0,1-7.09,7.09H31.15a7.1,7.1,0,0,1-5-2.08h0a7.1,7.1,0,0,1-2.08-5V42.64a7.1,7.1,0,0,1,7.09-7.09Zm72.41,4.77H31.15a2.32,2.32,0,0,0-2.31,2.32v6.13a2.35,2.35,0,0,0,.67,1.64,2.38,2.38,0,0,0,1.64.67h72.41a2.32,2.32,0,0,0,2.32-2.31V42.64a2.35,2.35,0,0,0-.67-1.64h0A2.35,2.35,0,0,0,103.56,40.32Z"
          fill-rule="evenodd" fill="url(#GradientFill_2)"/>
    <path style="fill: #98bad3"
          d="M29.55,50.45l28.08,35V107l19.46,11.68V103.36a19.12,19.12,0,0,0,4.77,3.16v20.57l-29-17.4V87.08l-27-33.65,3.71-3Zm61.38,19,14.49-19.3L109.23,53,96.17,70.4A19.73,19.73,0,0,0,90.93,69.45Z"
          fill-rule="evenodd" fill="url(#GradientFill_2-2)"/>
    <path style="fill: #98bad3"
          d="M90.09,67.05a21.85,21.85,0,1,1-15.44,6.4,21.76,21.76,0,0,1,15.44-6.4Zm12.07,9.77a17.07,17.07,0,1,0,5,12.07A17,17,0,0,0,102.16,76.82Z"
          fill-rule="evenodd" fill="url(#GradientFill_2-3)"/>
    <polygon style="fill: #98bad3"
             points="95.31 79.84 99.14 83.67 93.93 88.89 99.14 94.11 95.31 97.94 90.09 92.73 84.88 97.94 81.04 94.11 86.26 88.89 81.04 83.67 84.88 79.84 90.09 85.06 95.31 79.84"
             fill-rule="evenodd" fill="url(#GradientFill_2-4)"/>
    <path style="fill: #575757" d="M44.27,28.24a7.41,7.41,0,1,0-7.42-7.41A7.43,7.43,0,0,0,44.27,28.24Z" fill-rule="evenodd"
          fill="url(#GradientFill_2-5)"/>
    <path style="fill: #575757" d="M91.94,35.55h7.41a7.41,7.41,0,0,0-14.82,0Z" fill-rule="evenodd" fill="url(#GradientFill_2-6)"/>
    <path style="fill: #575757" d="M77.69,17.9A8.7,8.7,0,1,0,69,9.2,8.72,8.72,0,0,0,77.69,17.9Z" fill-rule="evenodd"
          fill="url(#GradientFill_2-7)"/>
</svg>
