<svg xmlns="http://www.w3.org/2000/svg" width="149.42" height="86.92" viewBox="0 0 149.42 86.92"><defs><style>.cls-1{fill:#fff;}</style></defs><g id="Layer_2" data-name="Layer 2"><g id="Capa_1" data-name="Capa 1"><rect class="cls-1" y="82.38" width="149.42" height="4.54"/><path class="cls-1" d="M34.18,24.62a13.31,13.31,0,1,0,13.3,13.3,13.32,13.32,0,0,0-13.3-13.3m0,33.81a20.51,20.51,0,1,1,20.5-20.51A20.53,20.53,0,0,1,34.18,58.43Z"/><path class="cls-1" d="M41.68,37.92a7.51,7.51,0,1,1-7.5-7.5,7.5,7.5,0,0,1,7.5,7.5"/><rect class="cls-1" x="28.72" y="10.64" width="10.91" height="10.91"/><rect class="cls-1" x="44.16" y="17.03" width="10.92" height="10.92" transform="translate(-1.37 41.67) rotate(-45)"/><rect class="cls-1" x="50.55" y="32.47" width="10.91" height="10.91"/><rect class="cls-1" x="44.16" y="47.9" width="10.92" height="10.92" transform="translate(-23.2 50.71) rotate(-45)"/><rect class="cls-1" x="28.72" y="54.3" width="10.91" height="10.92"/><rect class="cls-1" x="13.29" y="47.9" width="10.92" height="10.92" transform="translate(-32.24 28.88) rotate(-45)"/><rect class="cls-1" x="6.89" y="32.47" width="10.91" height="10.91"/><rect class="cls-1" x="13.28" y="17.03" width="10.91" height="10.91" transform="translate(-10.41 19.84) rotate(-45)"/><path class="cls-1" d="M72.52,5.68A10.42,10.42,0,1,0,82.93,16.09,10.42,10.42,0,0,0,72.52,5.68m0,24.15A13.74,13.74,0,1,1,86.25,16.09,13.75,13.75,0,0,1,72.52,29.83Z"/><path class="cls-1" d="M78.05,16.1a5.53,5.53,0,1,1-5.53-5.54,5.53,5.53,0,0,1,5.53,5.54"/><rect class="cls-1" x="70.86" width="3.32" height="3.63"/><rect class="cls-1" x="80.8" y="4.34" width="3.63" height="3.32" transform="translate(19.97 60.19) rotate(-45.01)"/><rect class="cls-1" x="84.99" y="14.43" width="3.63" height="3.32"/><rect class="cls-1" x="80.96" y="24.38" width="3.32" height="3.63" transform="translate(5.68 66.1) rotate(-45)"/><rect class="cls-1" x="70.86" y="28.56" width="3.32" height="3.63"/><rect class="cls-1" x="60.61" y="24.53" width="3.63" height="3.32" transform="translate(-0.25 51.78) rotate(-44.98)"/><rect class="cls-1" x="56.42" y="14.43" width="3.63" height="3.32"/><rect class="cls-1" x="60.76" y="4.18" width="3.32" height="3.63" transform="translate(14.05 45.9) rotate(-45)"/></g></g></svg>