<svg xmlns="http://www.w3.org/2000/svg" width="177.13" height="82.36" viewBox="0 0 177.13 82.36">
    <defs>
        <style>
            .cls-1{fill:#e28a72;}.cls-2{fill:#f7b29c;}.cls-3{fill:#ca6953;}.cls-4{fill:#dadada;}.cls-5{fill:#b4b4b4;}.cls-6{fill:#585857;}.cls-7{fill:#3d3d3c;}
        </style>
    </defs>
    <g id="Layer_2" data-name="Layer 2">
        <g id="Capa_1" data-name="Capa 1">
            <path  class="cls-1"
                  d="M83.32,82.36A6.8,6.8,0,0,1,81,81.9a6.52,6.52,0,0,0,2.1.43,2.35,2.35,0,0,0,1.74-.67s.59-1.81,1.08-3.49l.4.25,1.46.83c.37.19.72.38,1.08.54-.73.45-1.93,1.17-3.39,2a4.21,4.21,0,0,1-2.13.55"/>
            <path   class="cls-2"
                  d="M120.68,62.18c-1.12,1.65-3.45,3.38-8.17.74h0a7.05,7.05,0,0,1,.87,5.15,6.27,6.27,0,0,1-.29.9l0,.07c-1.41,3.2-5.72,3.44-6.91,3h0a4,4,0,0,1-.44,3.69,5.83,5.83,0,0,1-.52.72A5.17,5.17,0,0,1,99.65,78a6.87,6.87,0,0,1-1.77-1,5.82,5.82,0,0,1-1,2.49A3.54,3.54,0,0,1,93.94,81a12.1,12.1,0,0,1-6.18-1.75l-1.46-.83-2.08-1.27c-3.89-2.38-19-9.86-19-9.86s-2.8-2.31-6-4.89c-2.75-2.24-5.8-4.67-7.6-6l-3-1.44-8.8-4.22-4.13-2L23.78,43.08l16.31-23.3,8,3.51L58.21,27.7l6,2.62,13.66-3.17,3.27-.77,11,7,27.11,17.19,1.08,4.34,1.07,2.39h0a2.2,2.2,0,0,1,.2.84v0a7.53,7.53,0,0,1-.87,4"/>
            <path  class="cls-1"
                  d="M65.56,65.1a10.93,10.93,0,0,0-5.09-2.56,4.82,4.82,0,0,0-1.9-.65l-3.25-2.61c-1.45-1.14-2.77-2.17-3.73-2.88l-3-1.44,1.27-3.6L55,53.77s6.33,5.33,12.28,10.1a3.78,3.78,0,0,0-1.67,1.23M86.3,78.42l-.4-.25h0l.4.24Z"/>
            <polygon  class="cls-1" points="49.84 51.36 45.68 49.39 56.05 26.76 58.21 27.7 49.84 51.36"/>
            <path  class="cls-3"
                  d="M121.54,58.1A13.39,13.39,0,0,0,118.19,55c-3-2-17.11-9.88-24.34-13.88C89.43,39.29,85.79,38,84.6,38a.78.78,0,0,0-.3,0c-1.78.83-6,7.83-11.09,8.25l-.74,0a6.35,6.35,0,0,1-4.73-1.9,7.92,7.92,0,0,0,1.64.16h0a8.24,8.24,0,0,0,1-.06c2.67-.32,6.23-2,9.65-7.41a2.94,2.94,0,0,1,.35-.44l.16-.14,0,0,.16-.12,0,0,.17-.1,0,0,.19-.1h0l.11,0L81.4,36l.25-.08,4.47-1.55.15,0h0l.11,0a2.6,2.6,0,0,1,.56-.06,2.69,2.69,0,0,1,1.35.37l15.53,9.31,2.23,1.34,7.33,4.39L117.28,52A8.5,8.5,0,0,1,119.63,54l.64.82h0l.78,1.73.29.66h0a2.3,2.3,0,0,1,.2.85"/>
            <path  class="cls-1"
                  d="M113.39,68.08c-2.84-2-7.62-5.25-10.07-6.92-4-2.74-3.5-6.2-3.5-6.2l12.69,8h0a7.36,7.36,0,0,1,1,3.69A5.77,5.77,0,0,1,113.39,68.08Z"/>
            <path  class="cls-1"
                  d="M105.72,75.79l-7.36-5c-3.06-2.08-3.19-6.07-3.19-6.07l11,7.36h0a3,3,0,0,1,.22.78,4.26,4.26,0,0,1-.66,2.91"/>
            <path  class="cls-1"
                  d="M96.88,79.52A66,66,0,0,1,91,75.65c-2.67-2.07-2.53-4.22-2.53-4.22L97.88,77h0a5.82,5.82,0,0,1-1,2.49h0"/>
            <path   class="cls-2"
                  d="M159.93,37l-22.8,8.34-9.26,3.39c-.07.08-.14.15-.2.23a29.7,29.7,0,0,1-5.39,4.65c-1.18.81-2,1.27-2,1.27l-.64-.82A8.5,8.5,0,0,0,117.28,52l-3.86-2.32-7.33-4.39-1.36-.81-.87-.53L88.33,34.6a2.61,2.61,0,0,0-1.89-.31l-.32.08-4.47,1.55L81.4,36l-.26.11a2.67,2.67,0,0,0-.76.53,2.94,2.94,0,0,0-.35.44c-3.42,5.4-7,7.09-9.65,7.41a8.24,8.24,0,0,1-1,.06,8.1,8.1,0,0,1-1.83-.19,1.85,1.85,0,0,1-1.28-2.49l4.85-10.62a4.89,4.89,0,0,1,2.22-2.48l13.16-7.12a4.88,4.88,0,0,1,2.82-.57l22.76,2.29,7.07-2.61,9.22-3.41,21.23-7.84,8.65,23.1Z"/>
            <polygon  class="cls-4"
                     points="56.69 25.37 42.77 55.73 33.13 51.35 23.34 46.91 39.74 17.21 46.55 20.49 56.69 25.37"/>
            <path  class="cls-1"
                  d="M87.76,79.24c-.47-.25-1-.53-1.46-.83l-.17-.81-.06,0c.17-.6.31-1.16.39-1.55a2.25,2.25,0,0,0-.55-1.46,4,4,0,0,1,1.67,2.09,6.47,6.47,0,0,1,.18,2.6"/>
            <path   class="cls-1"
                  d="M73.4,68.68l-.19-.14A4.55,4.55,0,0,0,71,64.2,7,7,0,0,1,75,67.06a6.21,6.21,0,0,0-1.56,1.62"/>
            <path   class="cls-2"
                  d="M62.26,69.36A3.74,3.74,0,0,1,60.19,69c-2.42-1.12-4.7-5.52-2.88-6.81,0,0,1-1,3.49.54a9.33,9.33,0,0,1,3,2.59,3.73,3.73,0,0,1,.65,1.79,2.33,2.33,0,0,1-2.21,2.25"/>
            <path  class="cls-1"
                  d="M62.26,69.36a21.8,21.8,0,0,1,1.56-4,3.86,3.86,0,0,1,.65,1.7,13.25,13.25,0,0,0-.64,1.62,2.9,2.9,0,0,1-1.57.72"/>
            <path  class="cls-2"
                  d="M66.34,75.16a4,4,0,0,1-3-4.82,16.14,16.14,0,0,1,2-5c2.15-3.35,8.44-1.93,7.81,3.69l-2.42,5.44a7.53,7.53,0,0,1-4.41.65"/>
            <path  class="cls-2"
                  d="M81.06,72.71l-2.92,6.07a6.23,6.23,0,0,1-5.45-.66c-.16-.11-.31-.23-.44-.34a3.51,3.51,0,0,1-1.5-3.27l2.42-5.44s1.74-3.33,4.75-2.56l.19,0c3.13,1,3.73,3.85,3,6.15"/>
            <path  class="cls-2"
                  d="M86.46,76c-.31,1.59-1.64,5.65-1.64,5.65-.56.52-1.47,1.1-4,.19a4.58,4.58,0,0,1-1.23-.66,3.83,3.83,0,0,1-1.49-2.41l2.39-5a3.43,3.43,0,0,1,3-.94c1.85.37,3.1,2.44,3,3.15"/>
            <path  class="cls-1"
                  d="M72.25,77.78h0a3.81,3.81,0,0,1-1.54-2.88,1.66,1.66,0,0,1,0-.39l2.42-5.44s1.39-2.68,3.85-2.68a3.6,3.6,0,0,1,.9.12,10.93,10.93,0,0,0-3.54,5c-.81,2.16-1.58,4.51-2.13,6.26"/>
            <path  class="cls-1"
                  d="M79.63,81.19h0a3.83,3.83,0,0,1-1.49-2.41l2.39-5a3.66,3.66,0,0,1,2.39-1,2.78,2.78,0,0,1,.58.06,8.85,8.85,0,0,0-2.22,3.64c-.67,1.76-1.24,3.44-1.65,4.69"/>
            <path  class="cls-1"
                  d="M126.1,43.73l-6.91-23,2.51-.93,7.83,22.66-3.43,1.24m1.77,5,3.38-1.24Zm-.05.06.05-.06Z"/>
            <path  class="cls-3" d="M127.67,48.94l-1.57-5.21,3.43-1.24,1.72,5-3.38,1.24-.05.06Z"/>
            <polygon  class="cls-4"
                     points="152.45 43.49 142.97 46.73 132.25 50.38 121.35 18.82 132.03 14.91 139.02 12.34 152.45 43.49"/>
            <polygon  class="cls-5" points="142.97 46.73 132.03 14.91 139.02 12.34 152.45 43.49 142.97 46.73"/>
            <path  class="cls-6"
                  d="M177.13,43.53l-25.9,11.92-4.16-10.12-1.3-3.17-1.91-4.64-3.06-7.45L140,28.18l-5.39-13.12-.4-1-.55-1.35,20.5-7.54L165.07,0a88.2,88.2,0,0,1,12.06,43.53"/>
            <polygon  class="cls-5" points="33.13 51.35 33.13 51.35 23.34 46.91 39.74 17.21 46.55 20.49 33.13 51.35"/>
            <path  class="cls-7"
                  d="M45,18.14l-.68,1.28-1,1.8L37.2,32.87l-1,1.8L30.17,46.14l-1.65,3.11-5.13,9.68L6,48.78l-4.1-2.4L0,45.27c0-.2,0-.4,0-.6A88.16,88.16,0,0,1,11.81.46L25.33,8.63Z"/>
        </g>
    </g>
</svg>
