<svg xmlns="http://www.w3.org/2000/svg" xmlns:xlink="http://www.w3.org/1999/xlink" viewBox="0 0 248.47 60.02"><defs><style>.cls-1{fill:none;clip-rule:evenodd;}.cls-2{fill:#1d1d1b;fill-rule:evenodd;}.cls-3{fill:#fff;}.cls-4{clip-path:url(#clip-path);}.cls-5{fill:url(#Degradado_sin_nombre_15);}.cls-6{clip-path:url(#clip-path-2);}.cls-7{fill:url(#Degradado_sin_nombre_15-2);}</style><clipPath id="clip-path"><path class="cls-1" d="M203.84,53.63a7.19,7.19,0,0,1-2.6-2,9.1,9.1,0,0,1-1.76-3.3,15,15,0,0,1-.62-4.45,14.73,14.73,0,0,1,.62-4.41,9.27,9.27,0,0,1,1.7-3.22,7.09,7.09,0,0,1,2.56-1.92,7.89,7.89,0,0,1,3.24-.66,8.05,8.05,0,0,1,4.36,1.19,7.66,7.66,0,0,1,2.93,3.52,13.6,13.6,0,0,1,1,5.5,13.43,13.43,0,0,1-1.12,5.77,7.75,7.75,0,0,1-3,3.47,7.91,7.91,0,0,1-4.13,1.12A7.76,7.76,0,0,1,203.84,53.63Zm-2.77-23.54a12,12,0,0,0-4.42,3,13.15,13.15,0,0,0-2.77,4.73,18.87,18.87,0,0,0-.95,6.11,19.37,19.37,0,0,0,.91,6,13.47,13.47,0,0,0,2.71,4.79A12.16,12.16,0,0,0,201,57.84a17.62,17.62,0,0,0,12.12,0,11.88,11.88,0,0,0,4.45-3.07,13.15,13.15,0,0,0,2.72-4.75,19.18,19.18,0,0,0,.91-6.09,17.62,17.62,0,0,0-1.66-7.9,11.86,11.86,0,0,0-4.88-5.18A15.43,15.43,0,0,0,207,29.06,15.85,15.85,0,0,0,201.07,30.09Z"/></clipPath><linearGradient id="Degradado_sin_nombre_15" x1="10647.53" y1="44" x2="11313.24" y2="44" gradientUnits="userSpaceOnUse"><stop offset="0" stop-color="#2d2c2d"/><stop offset="0.48" stop-color="#3e3d3f"/><stop offset="0.8" stop-color="#2f3031"/><stop offset="1" stop-color="#212121"/></linearGradient><clipPath id="clip-path-2"><path class="cls-1" d="M227.75,29.06h0a3.41,3.41,0,0,0-1.87.56,3.2,3.2,0,0,0-1.24,1.45,6.31,6.31,0,0,0-.32,2.18V55.58a3.7,3.7,0,0,0,.75,2.5,2.52,2.52,0,0,0,2,.85,2.55,2.55,0,0,0,2-.84,3.59,3.59,0,0,0,.77-2.51V38.66l11,16.83c.32.46.63.91.95,1.35a6.7,6.7,0,0,0,1,1.15,3.58,3.58,0,0,0,1.18.72,4.23,4.23,0,0,0,1.42.22c2.1,0,3.15-1.26,3.15-3.8V32.41a3.76,3.76,0,0,0-.72-2.51,2.5,2.5,0,0,0-2-.84,2.44,2.44,0,0,0-1.95.84,3.81,3.81,0,0,0-.72,2.51V49.59l-11.25-17-.91-1.44a7.69,7.69,0,0,0-.87-1.13,3.29,3.29,0,0,0-1-.68,3.14,3.14,0,0,0-1.32-.26"/></clipPath><linearGradient id="Degradado_sin_nombre_15-2" x1="9788.03" y1="44" x2="10274.09" y2="44" xlink:href="#Degradado_sin_nombre_15"/></defs><g id="Layer_2" data-name="Layer 2"><g id="Capa_1" data-name="Capa 1"><path class="cls-2" d="M20.06,29.09l10.06-6.88,10,6.28V39.86H20.06ZM56.87,15.44l-21.82-14a8,8,0,0,0-9.12,0L2.52,16A6.47,6.47,0,0,0,0,21.09V53.57A6.47,6.47,0,0,0,6.45,60h47.3a6.47,6.47,0,0,0,6.46-6.45V21.09A6.48,6.48,0,0,0,56.87,15.44Z"/><path class="cls-3" d="M2.49,44c-.17,1-.31,1.75-.45,2.53-.93-.74-1.08-2.86-.3-4.09a3.37,3.37,0,0,1,4.32-1l-2.22,1c14.53,8.34,37.71,5.2,48.93-14.45l-2.6-.12A3.7,3.7,0,0,1,54.3,27,3.47,3.47,0,0,1,55.84,31l-1.31-2.09c-.12.42-.19.63-.23.84-1.52,7.6-4.52,14.49-10,20.13-7.89,8.17-18.82,9.92-28.9,4.7a40.11,40.11,0,0,1-12.3-9.93c-.15-.18-.32-.35-.64-.7"/><path class="cls-3" d="M69.64,55.37V32.61A3.81,3.81,0,0,1,70.45,30a2.67,2.67,0,0,1,2.09-.89,2.78,2.78,0,0,1,2.14.88,3.81,3.81,0,0,1,.81,2.67V55.37a3.87,3.87,0,0,1-.81,2.68,2.78,2.78,0,0,1-2.14.88A2.67,2.67,0,0,1,70.46,58a3.83,3.83,0,0,1-.82-2.67"/><path class="cls-3" d="M87.65,32.57l11.25,17V32.41a3.76,3.76,0,0,1,.72-2.51,2.42,2.42,0,0,1,1.94-.84,2.5,2.5,0,0,1,2,.84,3.71,3.71,0,0,1,.73,2.51V55.13c0,2.54-1,3.8-3.15,3.8a4.19,4.19,0,0,1-1.42-.22A3.62,3.62,0,0,1,98.52,58a7.67,7.67,0,0,1-1-1.15c-.32-.44-.63-.89-1-1.35l-11-16.83V55.58a3.64,3.64,0,0,1-.77,2.51,2.55,2.55,0,0,1-2,.84,2.51,2.51,0,0,1-2-.85,3.7,3.7,0,0,1-.75-2.5V33.3a6.34,6.34,0,0,1,.31-2.23,3.23,3.23,0,0,1,1.25-1.45,3.39,3.39,0,0,1,1.87-.56,3.29,3.29,0,0,1,1.35.25,3.44,3.44,0,0,1,1,.7,6.52,6.52,0,0,1,.87,1.12l.92,1.44"/><path class="cls-3" d="M118.42,54.09l-4.63-18.41V55.62a3.65,3.65,0,0,1-.74,2.49,2.73,2.73,0,0,1-3.89,0,3.61,3.61,0,0,1-.75-2.5V32.76a2.88,2.88,0,0,1,1-2.55,4.74,4.74,0,0,1,2.66-.66h1.82a6.78,6.78,0,0,1,2.37.3,2,2,0,0,1,1.1,1.06,17.33,17.33,0,0,1,.8,2.5l4.2,15.83,4.2-15.83a15.92,15.92,0,0,1,.81-2.5,2,2,0,0,1,1.09-1.06,6.85,6.85,0,0,1,2.38-.3h1.81a4.72,4.72,0,0,1,2.66.66,2.86,2.86,0,0,1,1,2.55V55.62a3.65,3.65,0,0,1-.74,2.49,2.54,2.54,0,0,1-2,.82,2.47,2.47,0,0,1-1.92-.82,3.6,3.6,0,0,1-.74-2.49V35.68l-4.64,18.41c-.3,1.19-.54,2.07-.73,2.63a3.66,3.66,0,0,1-1.06,1.52,3,3,0,0,1-2.13.69,3.13,3.13,0,0,1-2.84-1.57,6.53,6.53,0,0,1-.62-1.53l-.46-1.74"/><path class="cls-3" d="M161.29,43.92a13.6,13.6,0,0,0-1-5.5,7.66,7.66,0,0,0-2.93-3.52A8.05,8.05,0,0,0,153,33.71a7.89,7.89,0,0,0-3.24.66,7.12,7.12,0,0,0-2.57,1.92,9.26,9.26,0,0,0-1.69,3.22,14.73,14.73,0,0,0-.62,4.41,15,15,0,0,0,.62,4.45,9.09,9.09,0,0,0,1.75,3.3,7.31,7.31,0,0,0,2.61,2,7.72,7.72,0,0,0,3.22.65,7.91,7.91,0,0,0,4.13-1.12,7.75,7.75,0,0,0,3-3.47,13.43,13.43,0,0,0,1.11-5.77M153,29.06a15.45,15.45,0,0,1,7.71,1.82,11.86,11.86,0,0,1,4.88,5.18,17.75,17.75,0,0,1,1.66,7.9,19.46,19.46,0,0,1-.91,6.09,13.15,13.15,0,0,1-2.72,4.75,11.88,11.88,0,0,1-4.45,3.07,16.09,16.09,0,0,1-6.05,1.06A15.9,15.9,0,0,1,147,57.84a12,12,0,0,1-4.48-3.08A13.32,13.32,0,0,1,139.84,50a19.37,19.37,0,0,1-.91-6,18.87,18.87,0,0,1,.95-6.11,13.15,13.15,0,0,1,2.77-4.73,12,12,0,0,1,4.42-3A15.85,15.85,0,0,1,153,29.06Z"/><path class="cls-3" d="M169.45,51.7,184.29,34H171.54a3,3,0,0,1-2-.6,1.94,1.94,0,0,1-.69-1.55,2.1,2.1,0,0,1,.69-1.63,2.91,2.91,0,0,1,2-.62H188q3.19,0,3.19,3a4.16,4.16,0,0,1-.53,2.26,26,26,0,0,1-2.15,2.74L174.61,54.05H189.9a3.07,3.07,0,0,1,2,.56,1.92,1.92,0,0,1,.67,1.57,2.12,2.12,0,0,1-.67,1.65,2.92,2.92,0,0,1-2,.61H171.14a4.25,4.25,0,0,1-2.88-.85,3,3,0,0,1-1-2.3,2.45,2.45,0,0,1,.16-.91,3.29,3.29,0,0,1,.42-.78c.18-.24.42-.55.74-.92s.59-.7.83-1"/><g class="cls-4"><rect class="cls-5" x="192.93" y="29.06" width="28.3" height="29.88"/></g><g class="cls-6"><rect class="cls-7" x="224.29" y="29.06" width="24.18" height="29.88"/></g></g></g></svg>