<svg xmlns="http://www.w3.org/2000/svg" viewBox="0 0 12.01 8.7"><defs><style>.cls-1{fill:#231f20;fill-rule:evenodd;}</style></defs><g id="Layer_2" data-name="Layer 2"><g id="Capa_1" data-name="Capa 1"><path class="cls-1" d="M.75,0H11.26A.76.76,0,0,1,12,.75h0a.76.76,0,0,1-.75.75H.75A.76.76,0,0,1,0,.75H0A.76.76,0,0,1,.75,0"/><path class="cls-1" d="M.75,3.6H11.26a.76.76,0,0,1,.75.75h0a.76.76,0,0,1-.75.75H.75A.76.76,0,0,1,0,4.35H0A.76.76,0,0,1,.75,3.6"/><path class="cls-1" d="M.75,7.2H11.26A.76.76,0,0,1,12,8h0a.76.76,0,0,1-.75.75H.75A.76.76,0,0,1,0,8H0A.76.76,0,0,1,.75,7.2"/></g></g></svg>