<svg id="Capa_1" data-name="Capa 1" xmlns="http://www.w3.org/2000/svg" xmlns:xlink="http://www.w3.org/1999/xlink"
     width="47.98mm" height="45.01mm" viewBox="0 0 136 127.59">
    <defs>
        <radialGradient id="GradientFill_2" cx="68.12" cy="57.63" r="65.35" gradientUnits="userSpaceOnUse">
            <stop offset="0" stop-color="#f4d535"/>
            <stop offset="0.48" stop-color="#f4d535"/>
            <stop offset="0.82" stop-color="#f4c535"/>
            <stop offset="1" stop-color="#f3b435"/>
        </radialGradient>
        <radialGradient id="GradientFill_2-2" cx="68" cy="82.23" r="33.12" xlink:href="#GradientFill_2"/>
    </defs>
    <title>ICONO NUBE OK</title>
    <path style="fill: #d2a87e"
        d="M51.54,90.48c-4.48,0-15.87-.14-21.18-.16-8.38,0-11.5-1.39-15.63-5.76-5.15-5.45-5.64-15.85,1.65-22.71,2.58-2.43,3.68-2.21,7-3.89.08-10.77.11-14,5.47-21.48A29,29,0,0,1,45.33,25.73c12.78-3,26.31,3.88,31.61,14.7a44.5,44.5,0,0,0,2.15,4.68c6.25-3.24,11-5.76,19.18-2,9.75,4.46,10.42,14.17,10.67,14.22s6.24,1.51,8.45,2.8c11.92,6.93,10.84,29.93-10.44,30.19-7,.08-15.84.1-22.56.1l0,7.9c5.46,0,14.34.08,20.21.12,6.62,0,12.18-.62,17-3.65,14.62-9.23,15.67-30.26,1.58-40.49-6.6-4.79-6.6-1.33-9.08-6.37-2.38-4.83-7.77-10.4-13.31-12.65-6.73-2.7-10.4-1.73-18.25-1.11-.79-2.36-4.75-6.33-6.53-8a36.76,36.76,0,0,0-34-8C28.52,21.94,16.19,34,15.16,50.2c-.21,3.32-.71,2.74-2.82,4.33a23.51,23.51,0,0,0-3.68,3.55c-8.44,9.57-7.29,23.67.27,32.28,4.87,5.55,11.1,7.93,21.43,8.13l21.22-.07Z"
        fill-rule="evenodd" fill="url(#GradientFill_2)"/>
    <path style="fill: #575757"
        d="M47.94,78l11.87.08V110.7H76.05l.09-32.56L88,77.94c-.44-1.11-3.91-4.82-4.81-6-1.7-2.16-14.36-17.39-15.41-18.14C66.67,55.12,48.28,76.84,47.94,78Z"
        fill-rule="evenodd" fill="url(#GradientFill_2-2)"/>
</svg>
