<svg xmlns="http://www.w3.org/2000/svg" width="240.03" height="45.52" viewBox="0 0 240.03 45.52"><defs><style>.cls-1{fill:#38af73;}.cls-2{fill:#fff;}</style></defs><g id="Layer_2" data-name="Layer 2"><g id="Capa_1" data-name="Capa 1"><path class="cls-1" d="M1.07,0H44.46a1.07,1.07,0,0,1,1.06,1.07V44.46a1.07,1.07,0,0,1-1.06,1.06H1.07A1.07,1.07,0,0,1,0,44.46V1.07A1.07,1.07,0,0,1,1.07,0"/><polygon class="cls-2" points="40.5 18.79 26.95 18.79 22.77 5.9 18.58 18.79 5.02 18.76 15.98 26.74 11.79 39.62 22.75 31.65 33.71 39.62 29.54 26.74 40.5 18.79"/><polygon class="cls-1" points="30.66 29.59 29.65 26.66 22.77 31.65 30.66 29.59"/><path class="cls-1" d="M49.69,0h43.4a1.07,1.07,0,0,1,1.06,1.07V44.46a1.07,1.07,0,0,1-1.06,1.06H49.69a1.07,1.07,0,0,1-1.06-1.06V1.07A1.07,1.07,0,0,1,49.69,0"/><polygon class="cls-2" points="89.13 18.79 75.57 18.79 71.4 5.9 67.2 18.79 53.65 18.76 64.61 26.74 60.42 39.62 71.38 31.65 82.34 39.62 78.17 26.74 89.13 18.79"/><polygon class="cls-1" points="79.28 29.59 78.28 26.66 71.4 31.65 79.28 29.59"/><path class="cls-1" d="M98.32,0h43.39a1.07,1.07,0,0,1,1.07,1.07V44.46a1.07,1.07,0,0,1-1.07,1.06H98.32a1.06,1.06,0,0,1-1.06-1.06V1.07A1.06,1.06,0,0,1,98.32,0"/><polygon class="cls-2" points="137.75 18.79 124.2 18.79 120.03 5.9 115.83 18.79 102.28 18.76 113.24 26.74 109.04 39.62 120 31.65 130.97 39.62 126.79 26.74 137.75 18.79"/><polygon class="cls-1" points="127.91 29.59 126.9 26.66 120.03 31.65 127.91 29.59"/><path class="cls-1" d="M147,0h43.39a1.07,1.07,0,0,1,1.07,1.07V44.46a1.07,1.07,0,0,1-1.07,1.06H147a1.07,1.07,0,0,1-1.07-1.06V1.07A1.07,1.07,0,0,1,147,0"/><polygon class="cls-2" points="186.38 18.79 172.83 18.79 168.66 5.9 164.46 18.79 150.91 18.76 161.87 26.74 157.67 39.62 168.63 31.65 179.59 39.62 175.42 26.74 186.38 18.79"/><polygon class="cls-1" points="176.54 29.59 175.53 26.66 168.66 31.65 176.54 29.59"/><path class="cls-1" d="M195.58,0H239A1.07,1.07,0,0,1,240,1.07V44.46A1.07,1.07,0,0,1,239,45.52H195.58a1.07,1.07,0,0,1-1.07-1.06V1.07A1.07,1.07,0,0,1,195.58,0"/><polygon class="cls-2" points="235.01 18.79 221.46 18.79 217.28 5.9 213.09 18.79 199.54 18.76 210.5 26.74 206.3 39.62 217.26 31.65 228.22 39.62 224.05 26.74 235.01 18.79"/><polygon class="cls-1" points="225.17 29.59 224.16 26.66 217.28 31.65 225.17 29.59"/></g></g></svg>