<svg id="Capa_1" enable-background="new 0 0 511.06 511.06" height="512" viewBox="0 0 511.06 511.06" width="512" xmlns="http://www.w3.org/2000/svg"><g><g><path d="m152.327 139.546c.206-.136 20.972-13.517 47.732-13.517 17.703 0 32.776 5.854 41 9.847v224.153h30v-224.15c8.243-4.003 23.308-9.85 41-9.85 26.653 0 47.359 13.273 47.729 13.514 9.975 6.593 23.271-.595 23.271-12.514 0-70.028-56.972-127-127-127s-127 56.972-127 127c.001 12.05 13.385 19.106 23.268 12.517z" fill="rgb(0,0,0)"/></g><path d="m478.428 390.029h-256.598c-12.4 0-24.38-5.19-32.85-14.24l-141.7-151.764c-9.104-9.751-24.466-9.98-33.89-.537-18.052 18.09-17.343 45.862-.941 63.051 153.882 164.05 144.265 153.93 146.615 156.026l-55.931 41.408c-6.658 4.93-8.06 14.323-3.13 20.981 4.906 6.625 14.292 8.081 20.981 3.13l73.013-54.056h255.063v42c0 8.284 6.716 15 15 15s15-6.716 15-15v-42c17.475 0 31.733-14.03 31.996-31.509.269-17.867-14.758-32.49-32.628-32.49z" fill="rgb(0,0,0)"/></g></svg>