<svg xmlns="http://www.w3.org/2000/svg" viewBox="0 0 45.53 45.53">
    <defs>
        <style>.cls-1{fill:#fc0;}.cls-2{fill:#1d1d1b;fill-rule:evenodd;}</style>
    </defs>
    <g id="Layer_2" data-name="Layer 2">
        <g id="Capa_1" data-name="Capa 1">
            <path style="fill:#d1a77f" class="cls-1"
                  d="M45.53,23.5c0,15.63-7.14,22-22.77,22S0,39.13,0,23.5,7.13,0,22.76,0,45.53,7.87,45.53,23.5"/>
            <path  class="cls-2"
                  d="M22.76,10.7c3.93,0,4.4,0,5.95.08a8.18,8.18,0,0,1,2.73.51,4.46,4.46,0,0,1,1.7,1.1,4.58,4.58,0,0,1,1.1,1.69,8.1,8.1,0,0,1,.5,2.73c.08,1.56.09,2,.09,6s0,4.4-.09,5.95a8,8,0,0,1-.5,2.73,4.83,4.83,0,0,1-2.8,2.8,8,8,0,0,1-2.73.5c-1.55.08-2,.09-5.95.09s-4.39,0-6-.09a8.1,8.1,0,0,1-2.73-.5,4.58,4.58,0,0,1-1.69-1.1,4.46,4.46,0,0,1-1.1-1.7,8.18,8.18,0,0,1-.51-2.73c-.07-1.55-.08-2-.08-5.95s0-4.39.08-6a8.3,8.3,0,0,1,.51-2.73,4.35,4.35,0,0,1,1.1-1.69,4.35,4.35,0,0,1,1.69-1.1,8.3,8.3,0,0,1,2.73-.51c1.56-.07,2-.08,6-.08m0-2.66c-4,0-4.5,0-6.07.09a10.63,10.63,0,0,0-3.57.69,7.43,7.43,0,0,0-4.3,4.3,10.63,10.63,0,0,0-.69,3.57C8.06,18.26,8,18.77,8,22.76s0,4.5.09,6.07a10.64,10.64,0,0,0,.69,3.58,7.51,7.51,0,0,0,4.3,4.3,10.91,10.91,0,0,0,3.57.68c1.57.08,2.07.09,6.07.09s4.5,0,6.07-.09a10.81,10.81,0,0,0,3.57-.68,7.56,7.56,0,0,0,4.31-4.3,10.93,10.93,0,0,0,.68-3.58c.08-1.57.09-2.07.09-6.07s0-4.5-.09-6.07a10.91,10.91,0,0,0-.68-3.57,7.48,7.48,0,0,0-4.31-4.3,10.53,10.53,0,0,0-3.57-.69C27.26,8.06,26.76,8,22.76,8Z"/>
            <path  class="cls-2"
                  d="M22.76,15.2a7.56,7.56,0,1,0,7.56,7.56,7.57,7.57,0,0,0-7.56-7.56m0,12.47a4.91,4.91,0,1,1,4.91-4.91A4.9,4.9,0,0,1,22.76,27.67Z"/>
            <path  class="cls-2" d="M32.39,14.91a1.77,1.77,0,1,1-1.77-1.77,1.76,1.76,0,0,1,1.77,1.77"/>
        </g>
    </g>
</svg>
