<svg xmlns="http://www.w3.org/2000/svg" viewBox="0 0 45.53 45.53">
    <defs>
        <style>.cls-1{fill:#fc0;}.cls-2{fill:#1d1d1b;fill-rule:evenodd;}</style>
    </defs>
    <g id="Layer_2" data-name="Layer 2">
        <g id="Capa_1" data-name="Capa 1">
            <path style="fill:#b4cdde" class="cls-1"
                  d="M45.53,23.5c0,15.63-7.14,22-22.77,22S0,39.13,0,23.5,7.13,0,22.76,0,45.53,7.87,45.53,23.5"/>
            <path class="cls-2"
                  d="M23.16,8.57c-7.78,0-11.91,5.23-11.91,10.91,0,2.65,1.41,5.94,3.66,7,.34.16.52.09.6-.24s.37-1.48.5-2.05a.53.53,0,0,0-.12-.51,7,7,0,0,1-1.34-4.12,7.8,7.8,0,0,1,8.14-7.82c4.43,0,7.53,3,7.53,7.33,0,4.88-2.46,8.26-5.67,8.26a2.62,2.62,0,0,1-2.67-3.26c.51-2.14,1.49-4.46,1.49-6a2.26,2.26,0,0,0-2.28-2.54c-1.81,0-3.26,1.87-3.26,4.38a6.49,6.49,0,0,0,.54,2.67s-1.79,7.56-2.11,9a16.09,16.09,0,0,0-.13,4.6.91.91,0,0,0,1.68.37,18.8,18.8,0,0,0,1.86-4.09c.21-.85,1.12-4.29,1.12-4.29a4.82,4.82,0,0,0,4.13,2.07c5.44,0,9.36-5,9.36-11.21,0-6-4.86-10.42-11.12-10.42"/>
        </g>
    </g>
</svg>