<svg xmlns="http://www.w3.org/2000/svg" viewBox="0 0 45.53 45.53">
    <defs>
        <style>.cls-1{fill:#fc0;}.cls-2{fill:#1d1d1b;fill-rule:evenodd;}</style>
    </defs>
    <g id="Layer_2" data-name="Layer 2">
        <g id="Capa_1" data-name="Capa 1">
            <path style="fill:#b4cdde" class="cls-1"
                  d="M45.53,23.5c0,15.63-7.14,22-22.77,22S0,39.13,0,23.5,7.13,0,22.76,0,45.53,7.87,45.53,23.5"/>
            <path class="cls-2"
                  d="M18.14,32.88A14.43,14.43,0,0,0,32.68,18.35c0-.22,0-.44,0-.66A10.2,10.2,0,0,0,35.21,15a10.26,10.26,0,0,1-2.93.81A5.17,5.17,0,0,0,34.52,13a10.09,10.09,0,0,1-3.24,1.24,5.1,5.1,0,0,0-8.7,4.66,14.53,14.53,0,0,1-10.53-5.34,5.12,5.12,0,0,0,1.58,6.82,5.11,5.11,0,0,1-2.31-.64v.07a5.11,5.11,0,0,0,4.1,5,5,5,0,0,1-1.34.18,5.23,5.23,0,0,1-1-.09,5.13,5.13,0,0,0,4.78,3.55,10.26,10.26,0,0,1-6.35,2.19c-.41,0-.82,0-1.22-.07a14.57,14.57,0,0,0,7.83,2.29"/>
        </g>
    </g>
</svg>