<svg xmlns="http://www.w3.org/2000/svg" viewBox="0 0 45.53 45.53">
    <defs>
        <style>.cls-1,.cls-3{fill:#fc0;}.cls-2{fill:#1d1d1b;}.cls-2,.cls-3{fill-rule:evenodd;}</style>
    </defs>
    <g id="Layer_2" data-name="Layer 2">
        <g id="Capa_1" data-name="Capa 1">
            <path  style="fill:#d1a77f" class="cls-1"
                  d="M45.53,23.5c0,15.63-7.14,22-22.77,22S0,39.13,0,23.5,7.13,0,22.76,0,45.53,7.87,45.53,23.5"/>
            <path class="cls-2"
                  d="M36,17.38A5.94,5.94,0,0,0,34.9,14.7a3.87,3.87,0,0,0-2.7-1.14c-3.78-.27-9.43-.27-9.43-.27h0s-5.66,0-9.43.27a3.86,3.86,0,0,0-2.7,1.14,5.82,5.82,0,0,0-1.07,2.68,40.65,40.65,0,0,0-.27,4.36v2a40.65,40.65,0,0,0,.27,4.36,5.82,5.82,0,0,0,1.07,2.68,4.58,4.58,0,0,0,3,1.15c2.16.2,9.16.27,9.16.27s5.66,0,9.44-.28a3.92,3.92,0,0,0,2.7-1.14A5.94,5.94,0,0,0,36,28.14a40.65,40.65,0,0,0,.27-4.36v-2A40.65,40.65,0,0,0,36,17.38"/>
            <polygon style="fill:#d1a77f" class="cls-3" points="19.98 26.26 27.26 22.49 19.98 18.69 19.98 26.26"/>
        </g>
    </g>
</svg>
