<svg id="Capa_1" data-name="Capa 1" xmlns="http://www.w3.org/2000/svg" xmlns:xlink="http://www.w3.org/1999/xlink" width="68.72mm" height="120.46mm" viewBox="0 0 194.8 341.45"><defs><linearGradient id="GradientFill_3" x1="143.8" y1="50" x2="43.86" y2="104.29" gradientUnits="userSpaceOnUse"><stop offset="0" stop-color="#f3cf1c"/><stop offset="0.77" stop-color="#f4ae21"/><stop offset="1" stop-color="#f4ae21"/></linearGradient><linearGradient id="GradientFill_3-2" x1="131.04" y1="58.68" x2="61.23" y2="93.83" xlink:href="#GradientFill_3"/><linearGradient id="GradientFill_3-3" x1="107.49" y1="74.48" x2="84.57" y2="88.2" xlink:href="#GradientFill_3"/></defs><title>ICONO DEDO INFO</title><path d="M150.76,116.23l4.8,5a2.12,2.12,0,0,0,3.29-.25A73.89,73.89,0,0,0,95,6a79.53,79.53,0,0,0-8.42.75A73.9,73.9,0,0,0,38.77,124.94a2.13,2.13,0,0,0,3.3,0l4.47-5.3a2.13,2.13,0,0,0,.06-2.62,63,63,0,1,1,103.91-3.43A2.11,2.11,0,0,0,150.76,116.23Z" fill-rule="evenodd" fill="url(#GradientFill_3)"/><path d="M133.4,97.11l5.76,6a2.41,2.41,0,0,0,3.93-.66,49.54,49.54,0,0,0,4.6-22.63A50.27,50.27,0,1,0,47.21,83.11a49.61,49.61,0,0,0,6.07,22.28,2.43,2.43,0,0,0,4,.4l5.34-6.35a2.43,2.43,0,0,0,.33-2.55,37.36,37.36,0,0,1-3.32-14.2,37.85,37.85,0,1,1,73.3,11.91A2.4,2.4,0,0,0,133.4,97.11Z" fill-rule="evenodd" fill="url(#GradientFill_3-2)"/><path d="M141.15,144l-.68-20.65c-.05-1.4-.51-6.1-4.51-7.38a7,7,0,0,0-5.22.42l-.36,0h-.11a6,6,0,0,0-5.09-4.53,8.24,8.24,0,0,0-6.43,1.52c-1.36-2.68-4-4-7.39-3.62a8.39,8.39,0,0,0-5.8,3.36L105,95.57c-.12-3.45-.34-6.92-.34-10.37a7.34,7.34,0,0,0-7.28-6.45,7.77,7.77,0,0,0-5.65,2.62c-1.48,1.66-1.59,3.74-1.59,5.85v8.44l0,23.4c-.14.72.3,17,.3,17-1.43-1.35-3-2.9-4.43-4.39-3.33-3.47-9.3-5.68-13.23-6a6.45,6.45,0,0,0-4.66,1,11,11,0,0,0-1,.88c-2,2.06-3.37,5.32-1.88,7.63a7.91,7.91,0,0,0,2.85,2.34c1.51.91,4,1.86,6,4.19,3.26,3.9,10.8,12.62,15.41,17.25,1,.54,3,2.43,3.92,2.9a35.26,35.26,0,0,1,6,4.2,27.88,27.88,0,0,0,4.38,2.46c3,1.79,8.52,3.37,14.77,3.16s11.93,0,16-3.84h.23l.1-.28A20.71,20.71,0,0,0,141.41,152C141.36,150.5,141.18,145,141.15,144Z" fill-rule="evenodd"/><path d="M96.87,62.83A17.43,17.43,0,0,0,80,80.83c.16,5.19,2,9.76,5.49,12.83V86.31a11.87,11.87,0,0,1,23.42-2.78,11.57,11.57,0,0,1,.34,2.78l0,7.65c4-3.31,5.77-8.5,5.58-14.27A17.45,17.45,0,0,0,96.87,62.83Z" fill-rule="evenodd" fill="url(#GradientFill_3-3)"/><polygon points="64.19 211.59 59.41 211.59 59.41 206.92 55.86 206.92 55.86 211.59 51.11 211.59 51.11 214.94 55.86 214.94 55.86 219.61 59.41 219.61 59.41 214.94 64.19 214.94 64.19 211.59" fill="#878787" fill-rule="evenodd"/><rect x="75.92" y="203.65" width="4.45" height="19.23" fill="#878787"/><polygon points="98.17 203.65 98.17 215.32 88.61 203.65 84.93 203.65 84.93 222.88 89.32 222.88 89.32 211.2 98.91 222.88 102.56 222.88 102.56 203.65 98.17 203.65" fill="#878787" fill-rule="evenodd"/><polygon points="121.66 207.22 121.66 203.65 107.12 203.65 107.12 222.88 111.57 222.88 111.57 215.87 120.47 215.87 120.47 212.3 111.57 212.3 111.57 207.22 121.66 207.22" fill="#878787" fill-rule="evenodd"/><path d="M133.8,223.21c6,0,10.52-4.21,10.52-10s-4.48-9.94-10.52-9.94-10.52,4.23-10.52,9.94,4.45,10,10.52,10Zm0-3.79a6.16,6.16,0,1,1,6-6.16A5.87,5.87,0,0,1,133.8,219.42Z" fill="#878787" fill-rule="evenodd"/><polygon points="63.97 238.47 63.97 246.97 57.01 238.47 54.33 238.47 54.33 252.47 57.53 252.47 57.53 243.97 64.51 252.47 67.17 252.47 67.17 238.47 63.97 238.47" fill="#878787" fill-rule="evenodd"/><path d="M81,252.48h3.4l-6.26-14h-3.2l-6.24,14H72l1.24-3h6.5l1.24,3ZM74.25,247l2.22-5.36L78.69,247Z" fill="#878787" fill-rule="evenodd"/><polygon points="95.29 238.47 90.97 248.47 86.71 238.47 83.21 238.47 89.25 252.47 92.45 252.47 98.51 238.47 95.29 238.47" fill="#878787" fill-rule="evenodd"/><polygon points="102.89 249.88 102.89 246.63 109.39 246.63 109.39 244.12 102.89 244.12 102.89 241.07 110.25 241.07 110.25 238.47 99.67 238.47 99.67 252.47 110.51 252.47 110.51 249.88 102.89 249.88" fill="#878787" fill-rule="evenodd"/><path d="M122.51,249.36a5.14,5.14,0,0,1-2.52.6,4.48,4.48,0,1,1,0-9,4.74,4.74,0,0,1,3.62,1.58l2.08-1.93a7.46,7.46,0,0,0-5.86-2.41c-4.46,0-7.7,3-7.7,7.24s3.24,7.24,7.64,7.24a9.66,9.66,0,0,0,5.66-1.78v-5.68h-3Z" fill="#878787" fill-rule="evenodd"/><path d="M138.93,252.48h3.4l-6.26-14h-3.2l-6.24,14H130l1.24-3h6.5l1.24,3Zm-6.7-5.46,2.22-5.36,2.22,5.36Z" fill="#878787" fill-rule="evenodd"/><path d="M37.91,280.3c4.4,0,7.66-3.06,7.66-7.24s-3.26-7.24-7.66-7.24-7.66,3.08-7.66,7.24,3.24,7.24,7.66,7.24Zm0-2.76a4.48,4.48,0,1,1,4.38-4.48A4.27,4.27,0,0,1,37.91,277.54Z" fill="#878787" fill-rule="evenodd"/><polygon points="63.27 266.06 63.27 271.57 56.91 271.57 56.91 266.06 53.67 266.06 53.67 280.06 56.91 280.06 56.91 274.31 63.27 274.31 63.27 280.06 66.51 280.06 66.51 266.06 63.27 266.06" fill="#878787" fill-rule="evenodd"/><path d="M80.29,280.06h3.4l-6.26-14h-3.2l-6.24,14h3.32l1.24-3h6.5l1.24,3Zm-6.7-5.46,2.22-5.36L78,274.6Z" fill="#878787" fill-rule="evenodd"/><polygon points="88.53 277.42 96.19 268.15 96.19 266.06 84.41 266.06 84.41 268.69 91.93 268.69 84.25 277.96 84.25 280.06 96.49 280.06 96.49 277.42 88.53 277.42" fill="#878787" fill-rule="evenodd"/><path d="M110.93,280.3a7.19,7.19,0,0,0,5.78-2.5l-2.08-1.92a4.46,4.46,0,0,1-3.52,1.66,4.48,4.48,0,1,1,0-9,4.5,4.5,0,0,1,3.52,1.64l2.08-1.92a7.23,7.23,0,0,0-5.76-2.48c-4.36,0-7.6,3-7.6,7.24S106.59,280.3,110.93,280.3Z" fill="#878787" fill-rule="evenodd"/><polygon points="118.89 280.06 129.15 280.06 129.15 277.42 122.13 277.42 122.13 266.06 118.89 266.06 118.89 280.06" fill="#878787" fill-rule="evenodd"/><rect x="130.97" y="266.06" width="3.24" height="14" fill="#878787"/><path d="M144.23,280.3a7.19,7.19,0,0,0,5.78-2.5l-2.08-1.92a4.46,4.46,0,0,1-3.52,1.66,4.48,4.48,0,1,1,0-9,4.5,4.5,0,0,1,3.52,1.64L150,268.3a7.23,7.23,0,0,0-5.76-2.48c-4.36,0-7.6,3-7.6,7.24S139.89,280.3,144.23,280.3Z" fill="#878787" fill-rule="evenodd"/><polygon points="161.77 280.06 165.55 280.06 159.41 272.3 165.21 266.06 161.61 266.06 155.41 272.6 155.41 266.06 152.19 266.06 152.19 280.06 155.41 280.06 155.41 276.52 157.29 274.56 161.77 280.06" fill="#878787" fill-rule="evenodd"/><polygon points="41.87 305.04 41.87 301.8 48.37 301.8 48.37 299.28 41.87 299.28 41.87 296.24 49.23 296.24 49.23 293.64 38.65 293.64 38.65 307.64 49.49 307.64 49.49 305.04 41.87 305.04" fill="#878787" fill-rule="evenodd"/><polygon points="61.71 293.64 61.71 302.14 54.75 293.64 52.07 293.64 52.07 307.64 55.27 307.64 55.27 299.14 62.25 307.64 64.91 307.64 64.91 293.64 61.71 293.64" fill="#878787" fill-rule="evenodd"/><path d="M74.93,307.88a7.19,7.19,0,0,0,5.78-2.5l-2.08-1.92a4.46,4.46,0,0,1-3.52,1.66,4.48,4.48,0,0,1,0-9,4.5,4.5,0,0,1,3.52,1.64l2.08-1.92A7.23,7.23,0,0,0,75,293.4c-4.36,0-7.6,3-7.6,7.24S70.59,307.88,74.93,307.88Z" fill="#878787" fill-rule="evenodd"/><rect x="82.89" y="293.64" width="3.24" height="14" fill="#878787"/><polygon points="105.22 307.64 105.19 293.64 102.52 293.64 97.36 302.34 92.13 293.64 89.45 293.64 89.45 307.64 92.49 307.64 92.49 299.42 96.58 306.16 98.04 306.16 102.16 299.24 102.18 307.64 105.22 307.64" fill="#878787" fill-rule="evenodd"/><path d="M119,307.64h3.4l-6.26-14H113l-6.24,14H110l1.24-3h6.5l1.24,3Zm-6.7-5.46,2.22-5.36,2.22,5.36Z" fill="#878787" fill-rule="evenodd"/><path d="M129.53,307.64h6.36c4.58,0,7.72-2.76,7.72-7s-3.14-7-7.72-7h-6.36v14Zm3.24-2.66V296.3h3c2.78,0,4.6,1.66,4.6,4.34s-1.82,4.34-4.6,4.34Z" fill="#878787" fill-rule="evenodd"/><polygon points="149.27 305.04 149.27 301.8 155.77 301.8 155.77 299.28 149.27 299.28 149.27 296.24 156.63 296.24 156.63 293.64 146.05 293.64 146.05 307.64 156.89 307.64 156.89 305.04 149.27 305.04" fill="#878787" fill-rule="evenodd"/><path d="M12.63,335.46a7.19,7.19,0,0,0,5.78-2.5L16.33,331a4.46,4.46,0,0,1-3.52,1.66,4.48,4.48,0,0,1,0-9,4.5,4.5,0,0,1,3.52,1.64l2.08-1.92A7.23,7.23,0,0,0,12.65,321c-4.36,0-7.6,3-7.6,7.24S8.29,335.46,12.63,335.46Z" fill="#878787" fill-rule="evenodd"/><path d="M30.77,335.22h3.4l-6.26-14h-3.2l-6.24,14h3.32l1.24-3h6.5l1.24,3Zm-6.7-5.46,2.22-5.36,2.22,5.36Z" fill="#878787" fill-rule="evenodd"/><path d="M35.63,335.22H42c4.58,0,7.72-2.76,7.72-7s-3.14-7-7.72-7H35.63v14Zm3.24-2.66v-8.68h3c2.78,0,4.6,1.66,4.6,4.34s-1.82,4.34-4.6,4.34Z" fill="#878787" fill-rule="evenodd"/><path d="M62.41,335.22h3.4l-6.26-14h-3.2l-6.24,14h3.32l1.24-3h6.5l1.24,3Zm-6.7-5.46,2.22-5.36,2.22,5.36Z" fill="#878787" fill-rule="evenodd"/><path d="M83.39,335.22h3.4l-6.26-14h-3.2l-6.24,14h3.32l1.24-3h6.5l1.24,3Zm-6.7-5.46,2.22-5.36,2.22,5.36Z" fill="#878787" fill-rule="evenodd"/><path d="M94.31,321.22H88.25v14h3.24v-3.86h2.82c3.74,0,6.08-1.94,6.08-5.06s-2.34-5.08-6.08-5.08Zm-.18,7.5H91.49v-4.86h2.64c2,0,3,.9,3,2.44S96.11,328.72,94.13,328.72Z" fill="#878787" fill-rule="evenodd"/><path d="M112.45,335.22h3.4l-6.26-14h-3.2l-6.24,14h3.32l1.24-3h6.5l1.24,3Zm-6.7-5.46L108,324.4l2.22,5.36Z" fill="#878787" fill-rule="evenodd"/><path d="M129.71,335.22l-3.14-4.5a4.55,4.55,0,0,0,2.88-4.42c0-3.14-2.34-5.08-6.08-5.08h-6.06v14h3.24v-3.9h3l2.7,3.9Zm-3.54-8.92c0,1.52-1,2.44-3,2.44h-2.64v-4.88h2.64C125.17,323.86,126.17,324.76,126.17,326.3Z" fill="#878787" fill-rule="evenodd"/><polygon points="134.71 335.22 137.95 335.22 137.95 323.86 142.43 323.86 142.43 321.22 130.23 321.22 130.23 323.86 134.71 323.86 134.71 335.22" fill="#878787" fill-rule="evenodd"/><path d="M153.93,335.22h3.4l-6.26-14h-3.2l-6.24,14H145l1.24-3h6.5l1.24,3Zm-6.7-5.46,2.22-5.36,2.22,5.36Z" fill="#878787" fill-rule="evenodd"/><path d="M158.79,335.22h6.36c4.58,0,7.72-2.76,7.72-7s-3.14-7-7.72-7h-6.36v14Zm3.24-2.66v-8.68h3c2.78,0,4.6,1.66,4.6,4.34s-1.82,4.34-4.6,4.34Z" fill="#878787" fill-rule="evenodd"/><path d="M182.09,335.46c4.4,0,7.66-3.06,7.66-7.24s-3.26-7.24-7.66-7.24-7.66,3.08-7.66,7.24,3.24,7.24,7.66,7.24Zm0-2.76a4.48,4.48,0,1,1,4.38-4.48A4.27,4.27,0,0,1,182.09,332.7Z" fill="#878787" fill-rule="evenodd"/></svg>