<svg id="Capa_1" data-name="Capa 1" xmlns="http://www.w3.org/2000/svg" xmlns:xlink="http://www.w3.org/1999/xlink" width="154mm" height="154mm" viewBox="0 0 436.54 436.54"><defs><linearGradient id="GradientFill_3" x1="467.94" y1="287.59" x2="77.21" y2="179.1" gradientTransform="translate(218.27 -90.41) rotate(45)" gradientUnits="userSpaceOnUse"><stop offset="0" stop-color="#f3cf1c"/><stop offset="0.77" stop-color="#f4ae21"/><stop offset="1" stop-color="#f4ae21"/></linearGradient></defs><title>QUESITO AMARILLO CIRCULO 1</title><circle cx="218.27" cy="218.27" r="218.04" transform="translate(-90.41 218.27) rotate(-45)" fill="url(#GradientFill_3)"/><path d="M97.43,165.83a7.49,7.49,0,0,0,5.66-2.27l-1-1a6,6,0,0,1-4.55,1.85,6.38,6.38,0,1,1,0-12.76,6.11,6.11,0,0,1,4.55,1.82l1-1a7.46,7.46,0,0,0-5.64-2.24,7.83,7.83,0,1,0,0,15.66Z" fill-rule="evenodd"/><path d="M110.46,165.81a5.89,5.89,0,1,0-5.9-5.9,5.7,5.7,0,0,0,5.9,5.9Zm0-1.39a4.52,4.52,0,1,1,4.29-4.51A4.24,4.24,0,0,1,110.46,164.42Z" fill-rule="evenodd"/><path d="M125.42,154a4.84,4.84,0,0,0-4.4,2.22v-2.13h-1.5V165.7h1.56v-6.07c0-2.64,1.56-4.18,4-4.18,2.2,0,3.48,1.25,3.48,3.69v6.56h1.56V159C130.17,155.67,128.23,154,125.42,154Z" fill-rule="evenodd"/><path d="M146.07,154a4.86,4.86,0,0,0-4.4,2.22v-2.13h-1.49V165.7h1.56v-6.07c0-2.64,1.56-4.18,4-4.18,2.2,0,3.47,1.25,3.47,3.69v6.56h1.57V159C150.83,155.67,148.89,154,146.07,154Z" fill-rule="evenodd"/><path d="M163.94,154.13v6.07c0,2.64-1.52,4.2-3.94,4.2-2.2,0-3.48-1.25-3.48-3.72v-6.55H155v6.71c0,3.32,1.94,5,4.89,5a4.61,4.61,0,0,0,4.15-2.22v2.11h1.5V154.13Z" fill-rule="evenodd"/><path d="M180,159.91a5.52,5.52,0,0,0-5.61-5.87,5.57,5.57,0,0,0-5.66,5.87,6.12,6.12,0,0,0,10.54,4l-.88-1a4.53,4.53,0,0,1-3.54,1.52,4.29,4.29,0,0,1-4.56-4H180c0-.18,0-.36,0-.49Zm-5.61-4.53a4,4,0,0,1,4.11,3.85h-8.21A4,4,0,0,1,174.37,155.38Z" fill-rule="evenodd"/><path d="M186.27,165.81c3,0,4.77-1.3,4.77-3.3,0-4.44-7.5-2.09-7.5-5.22,0-1.1.92-1.91,3-1.91a6,6,0,0,1,3.41,1l.69-1.25a7.87,7.87,0,0,0-4.1-1.08c-2.94,0-4.57,1.41-4.57,3.3,0,4.57,7.5,2.2,7.5,5.21,0,1.15-.9,1.89-3.1,1.89a7.06,7.06,0,0,1-4.12-1.29l-.7,1.23A7.76,7.76,0,0,0,186.27,165.81Z" fill-rule="evenodd"/><path d="M199.47,163.87a2.58,2.58,0,0,1-1.72.6,1.85,1.85,0,0,1-2-2.12v-6.9h3.52v-1.32h-3.52V151.6h-1.56v2.53h-2.07v1.32h2.07v7a3.07,3.07,0,0,0,3.39,3.37A3.73,3.73,0,0,0,200,165Z" fill-rule="evenodd"/><path d="M204.35,156.39v-2.26h-1.49V165.7h1.56v-5.9c0-2.73,1.47-4.27,3.89-4.27.11,0,.24,0,.38,0V154C206.55,154,205.08,154.85,204.35,156.39Z" fill-rule="evenodd"/><path d="M216.12,165.81a5.89,5.89,0,1,0-5.89-5.9,5.7,5.7,0,0,0,5.89,5.9Zm0-1.39a4.52,4.52,0,1,1,4.29-4.51A4.24,4.24,0,0,1,216.12,164.42Z" fill-rule="evenodd"/><path d="M234.05,165.81c3,0,4.78-1.3,4.78-3.3,0-4.44-7.51-2.09-7.51-5.22,0-1.1.93-1.91,3-1.91a6,6,0,0,1,3.41,1l.68-1.25a7.86,7.86,0,0,0-4.09-1.08c-3,0-4.58,1.41-4.58,3.3,0,4.57,7.5,2.2,7.5,5.21,0,1.15-.9,1.89-3.1,1.89a7,7,0,0,1-4.11-1.29l-.71,1.23A7.78,7.78,0,0,0,234.05,165.81Z" fill-rule="evenodd"/><path d="M242.5,151.6a1.12,1.12,0,0,0,1.14-1.15,1.11,1.11,0,0,0-1.14-1.08,1.12,1.12,0,1,0,0,2.23Zm-.79,14.1h1.56V154.13h-1.56Z" fill-rule="evenodd"/><path d="M250.73,165.81c3,0,4.77-1.3,4.77-3.3,0-4.44-7.5-2.09-7.5-5.22,0-1.1.92-1.91,3-1.91a6,6,0,0,1,3.41,1l.69-1.25A7.87,7.87,0,0,0,251,154c-2.94,0-4.57,1.41-4.57,3.3,0,4.57,7.5,2.2,7.5,5.21,0,1.15-.9,1.89-3.1,1.89a7.06,7.06,0,0,1-4.12-1.29l-.7,1.23A7.76,7.76,0,0,0,250.73,165.81Z" fill-rule="evenodd"/><path d="M263.93,163.87a2.58,2.58,0,0,1-1.72.6,1.85,1.85,0,0,1-2-2.12v-6.9h3.52v-1.32h-3.52V151.6h-1.56v2.53h-2.07v1.32h2.07v7a3.07,3.07,0,0,0,3.39,3.37,3.73,3.73,0,0,0,2.44-.82Z" fill-rule="evenodd"/><path d="M277,159.91a5.52,5.52,0,0,0-5.61-5.87,5.57,5.57,0,0,0-5.66,5.87,6.12,6.12,0,0,0,10.54,4l-.88-1a4.53,4.53,0,0,1-3.54,1.52,4.29,4.29,0,0,1-4.56-4H277c0-.18,0-.36,0-.49Zm-5.61-4.53a4,4,0,0,1,4.11,3.85h-8.21A4,4,0,0,1,271.39,155.38Z" fill-rule="evenodd"/><path d="M294.62,154a5,5,0,0,0-4.58,2.44,4.15,4.15,0,0,0-4.11-2.44,4.68,4.68,0,0,0-4.25,2.2v-2.11h-1.49V165.7h1.56v-6.07c0-2.64,1.52-4.18,3.87-4.18,2.11,0,3.34,1.25,3.34,3.69v6.56h1.57v-6.07c0-2.64,1.49-4.18,3.87-4.18,2.09,0,3.32,1.25,3.32,3.69v6.56h1.56V159C299.28,155.67,297.43,154,294.62,154Z" fill-rule="evenodd"/><path d="M307.58,154a7.33,7.33,0,0,0-4.71,1.56l.7,1.17a5.9,5.9,0,0,1,3.85-1.37c2.16,0,3.28,1.08,3.28,3.06v.7H307c-3.33,0-4.47,1.5-4.47,3.28,0,2,1.61,3.37,4.22,3.37a4.36,4.36,0,0,0,4-1.92v1.81h1.49v-7.17c0-3-1.69-4.49-4.68-4.49ZM307,164.58c-1.85,0-2.93-.84-2.93-2.18,0-1.19.73-2.07,3-2.07h3.63v1.89A3.7,3.7,0,0,1,307,164.58Z" fill-rule="evenodd"/><path d="M331.27,149.37v7a5,5,0,0,0-4.4-2.29,5.89,5.89,0,0,0,0,11.77,5,5,0,0,0,4.47-2.4v2.29h1.49V149.37Zm-4.27,15a4.52,4.52,0,1,1,4.29-4.51A4.24,4.24,0,0,1,327,164.42Z" fill-rule="evenodd"/><path d="M347.29,159.91a5.52,5.52,0,0,0-5.61-5.87,5.57,5.57,0,0,0-5.66,5.87,6.12,6.12,0,0,0,10.54,4l-.88-1a4.53,4.53,0,0,1-3.54,1.52,4.29,4.29,0,0,1-4.56-4h9.68c0-.18,0-.36,0-.49Zm-5.61-4.53a4,4,0,0,1,4.11,3.85h-8.21A4,4,0,0,1,341.68,155.38Z" fill-rule="evenodd"/><path d="M88.05,194.21a2.57,2.57,0,0,1-1.72.59,1.85,1.85,0,0,1-2-2.11v-6.91h3.52v-1.32H84.33v-2.53H82.77v2.53H80.7v1.32h2.07v7a3.07,3.07,0,0,0,3.39,3.37,3.73,3.73,0,0,0,2.44-.82Z" fill-rule="evenodd"/><path d="M92.93,186.73v-2.27H91.44V196H93v-5.9c0-2.73,1.47-4.27,3.89-4.27l.38,0v-1.51C95.13,184.38,93.66,185.19,92.93,186.73Z" fill-rule="evenodd"/><path d="M104.11,184.38a7.35,7.35,0,0,0-4.71,1.56l.71,1.16a5.9,5.9,0,0,1,3.85-1.36c2.15,0,3.27,1.08,3.27,3.06v.7h-3.67c-3.32,0-4.47,1.5-4.47,3.28,0,2,1.61,3.37,4.23,3.37a4.34,4.34,0,0,0,4-1.92V196h1.5v-7.18c0-3-1.7-4.48-4.69-4.48Zm-.55,10.53c-1.85,0-2.93-.83-2.93-2.17,0-1.19.73-2.07,3-2.07h3.63v1.89A3.69,3.69,0,0,1,103.56,194.91Z" fill-rule="evenodd"/><path d="M119,184.38a5.07,5.07,0,0,0-4.4,2.28v-6.95H113V196h1.5v-2.29a5,5,0,0,0,4.46,2.4,5.89,5.89,0,0,0,0-11.77Zm-.11,10.38a4.51,4.51,0,1,1,4.32-4.51A4.24,4.24,0,0,1,118.89,194.76Z" fill-rule="evenodd"/><path d="M131.94,184.38a7.35,7.35,0,0,0-4.71,1.56l.71,1.16a5.9,5.9,0,0,1,3.85-1.36c2.15,0,3.27,1.08,3.27,3.06v.7h-3.67c-3.32,0-4.47,1.5-4.47,3.28,0,2,1.61,3.37,4.23,3.37a4.34,4.34,0,0,0,4-1.92V196h1.5v-7.18c0-3-1.7-4.48-4.69-4.48Zm-.55,10.53c-1.85,0-2.93-.83-2.93-2.17,0-1.19.73-2.07,3-2.07h3.63v1.89A3.69,3.69,0,0,1,131.39,194.91Z" fill-rule="evenodd"/><path d="M141.77,181.93a1.11,1.11,0,1,0-1.14-1.12,1.12,1.12,0,0,0,1.14,1.12Zm-2.61,18.48c2.2,0,3.38-1.38,3.38-3.52V184.46H141v12.43c0,1.43-.68,2.18-1.91,2.18a2.75,2.75,0,0,1-1.81-.59l-.55,1.19A3.86,3.86,0,0,0,139.16,200.41Z" fill-rule="evenodd"/><path d="M151.63,196.15a5.89,5.89,0,1,0-5.9-5.9,5.69,5.69,0,0,0,5.9,5.9Zm0-1.39a4.52,4.52,0,1,1,4.29-4.51A4.24,4.24,0,0,1,151.63,194.76Z" fill-rule="evenodd"/><path d="M160.54,193.75a1.15,1.15,0,0,0-1.17,1.19,1.11,1.11,0,0,0,.8,1.12l-.75,3.19h1.05l.93-3a3.57,3.57,0,0,0,.31-1.27A1.16,1.16,0,0,0,160.54,193.75Z" fill-rule="evenodd"/><path d="M173.89,196.15c3,0,4.78-1.3,4.78-3.3,0-4.44-7.5-2.09-7.5-5.22,0-1.1.92-1.91,3-1.91a5.88,5.88,0,0,1,3.41,1l.68-1.26a7.83,7.83,0,0,0-4.09-1.07c-3,0-4.58,1.4-4.58,3.3,0,4.57,7.51,2.2,7.51,5.21,0,1.14-.91,1.89-3.11,1.89a7,7,0,0,1-4.11-1.3l-.7,1.24A7.73,7.73,0,0,0,173.89,196.15Z" fill-rule="evenodd"/><path d="M184.83,182.68h1.54l3.56-2.73h-2.09l-3,2.73Zm1.45,13.47a5.89,5.89,0,1,0-5.9-5.9,5.69,5.69,0,0,0,5.9,5.9Zm0-1.39a4.52,4.52,0,1,1,4.29-4.51A4.24,4.24,0,0,1,186.28,194.76Z" fill-rule="evenodd"/><rect x="195.34" y="179.71" width="1.56" height="16.32"/><path d="M206,196.15a5.89,5.89,0,1,0-5.89-5.9,5.7,5.7,0,0,0,5.89,5.9Zm0-1.39a4.52,4.52,0,1,1,4.29-4.51A4.24,4.24,0,0,1,206,194.76Z" fill-rule="evenodd"/><path d="M221.61,181.93a1.11,1.11,0,1,0-1.14-1.12,1.12,1.12,0,0,0,1.14,1.12ZM220.82,196h1.56V184.46h-1.56Z" fill-rule="evenodd"/><path d="M232.63,184.38a4.86,4.86,0,0,0-4.4,2.22v-2.14h-1.49V196h1.56V190c0-2.64,1.56-4.18,4-4.18,2.2,0,3.47,1.26,3.47,3.7V196h1.57v-6.71C237.39,186,235.45,184.38,232.63,184.38Z" fill-rule="evenodd"/><path d="M246.47,196.15a5.11,5.11,0,0,0,4.53-2.29l-1.16-.79a3.93,3.93,0,0,1-3.37,1.69,4.51,4.51,0,0,1,0-9,3.93,3.93,0,0,1,3.37,1.72l1.16-.8a5.05,5.05,0,0,0-4.53-2.28,5.89,5.89,0,1,0,0,11.77Z" fill-rule="evenodd"/><path d="M262.93,184.46v6.08c0,2.64-1.52,4.2-3.94,4.2-2.2,0-3.48-1.26-3.48-3.72v-6.56H254v6.71c0,3.33,1.94,5,4.89,5a4.6,4.6,0,0,0,4.15-2.23V196h1.5V184.46Z" fill-rule="evenodd"/><path d="M270.36,186.73v-2.27h-1.49V196h1.56v-5.9c0-2.73,1.47-4.27,3.89-4.27l.38,0v-1.51C272.56,184.38,271.09,185.19,270.36,186.73Z" fill-rule="evenodd"/><path d="M279,186.73v-2.27h-1.5V196h1.57v-5.9c0-2.73,1.47-4.27,3.89-4.27l.37,0v-1.51C281.21,184.38,279.74,185.19,279,186.73Z" fill-rule="evenodd"/><path d="M287,181.93a1.11,1.11,0,1,0-1.14-1.12,1.11,1.11,0,0,0,1.14,1.12ZM286.16,196h1.56V184.46h-1.56Z" fill-rule="evenodd"/><path d="M293.57,186.73v-2.27h-1.49V196h1.56v-5.9c0-2.73,1.47-4.27,3.89-4.27l.38,0v-1.51C295.77,184.38,294.3,185.19,293.57,186.73Z" fill-rule="evenodd"/><path d="M308.47,180h-2.09l-3,2.73h1.54l3.57-2.73Zm-3.72,4.43a7.35,7.35,0,0,0-4.71,1.56l.71,1.16a5.9,5.9,0,0,1,3.85-1.36c2.15,0,3.27,1.08,3.27,3.06v.7H304.2c-3.32,0-4.47,1.5-4.47,3.28,0,2,1.61,3.37,4.23,3.37a4.34,4.34,0,0,0,4-1.92V196h1.5v-7.18c0-3-1.7-4.48-4.69-4.48Zm-.55,10.53c-1.85,0-2.93-.83-2.93-2.17,0-1.19.73-2.07,3-2.07h3.63v1.89A3.69,3.69,0,0,1,304.2,194.91Z" fill-rule="evenodd"/><path d="M316.78,196.15c3,0,4.78-1.3,4.78-3.3,0-4.44-7.51-2.09-7.51-5.22,0-1.1.93-1.91,3-1.91a5.88,5.88,0,0,1,3.41,1l.68-1.26a7.85,7.85,0,0,0-4.09-1.07c-2.95,0-4.58,1.4-4.58,3.3,0,4.57,7.5,2.2,7.5,5.21,0,1.14-.9,1.89-3.1,1.89a6.94,6.94,0,0,1-4.11-1.3l-.71,1.24A7.78,7.78,0,0,0,316.78,196.15Z" fill-rule="evenodd"/><path d="M340.3,190.25a5.51,5.51,0,0,0-5.61-5.87,5.57,5.57,0,0,0-5.65,5.87,5.73,5.73,0,0,0,6.07,5.9,5.67,5.67,0,0,0,4.46-1.9l-.88-1a4.56,4.56,0,0,1-3.54,1.52,4.28,4.28,0,0,1-4.55-4h9.68c0-.17,0-.35,0-.48Zm-5.61-4.53a4,4,0,0,1,4.11,3.85h-8.2A4,4,0,0,1,334.69,185.72Z" fill-rule="evenodd"/><path d="M349.39,184.38a4.84,4.84,0,0,0-4.4,2.22v-2.14h-1.5V196h1.56V190c0-2.64,1.56-4.18,4.05-4.18,2.2,0,3.48,1.26,3.48,3.7V196h1.56v-6.71C354.14,186,352.2,184.38,349.39,184.38Z" fill-rule="evenodd"/><path d="M68,214.71a4.89,4.89,0,0,0-4.34,2.12v-6.78H62.1v16.32h1.56V220.3c0-2.64,1.57-4.18,4-4.18,2.2,0,3.48,1.26,3.48,3.7v6.55h1.56v-6.71C72.75,216.34,70.81,214.71,68,214.71Z" fill-rule="evenodd"/><path d="M81.77,226.48a5.89,5.89,0,1,0-5.9-5.89,5.68,5.68,0,0,0,5.9,5.89Zm0-1.38a4.52,4.52,0,1,1,4.29-4.51A4.24,4.24,0,0,1,81.77,225.1Z" fill-rule="evenodd"/><path d="M96.73,214.71a4.87,4.87,0,0,0-4.4,2.23V214.8h-1.5v11.57H92.4V220.3c0-2.64,1.56-4.18,4-4.18,2.2,0,3.48,1.26,3.48,3.7v6.55h1.56v-6.71C101.48,216.34,99.55,214.71,96.73,214.71Z" fill-rule="evenodd"/><path d="M110.5,226.48a5.89,5.89,0,1,0-5.89-5.89,5.69,5.69,0,0,0,5.89,5.89Zm0-1.38a4.52,4.52,0,1,1,4.29-4.51A4.24,4.24,0,0,1,110.5,225.1Z" fill-rule="evenodd"/><path d="M121.06,217.07V214.8h-1.49v11.57h1.56v-5.89c0-2.73,1.47-4.27,3.89-4.27l.38,0v-1.52C123.26,214.71,121.79,215.53,121.06,217.07Z" fill-rule="evenodd"/><path d="M132.24,214.71a7.36,7.36,0,0,0-4.71,1.57l.7,1.16a5.94,5.94,0,0,1,3.85-1.36c2.16,0,3.28,1.08,3.28,3.06v.7h-3.67c-3.32,0-4.47,1.5-4.47,3.28,0,2,1.61,3.36,4.23,3.36a4.35,4.35,0,0,0,4-1.91v1.8h1.49V219.2c0-3-1.69-4.49-4.68-4.49Zm-.55,10.54c-1.85,0-2.93-.83-2.93-2.18,0-1.18.73-2.06,3-2.06h3.63v1.89A3.69,3.69,0,0,1,131.69,225.25Z" fill-rule="evenodd"/><path d="M142.67,217.07V214.8h-1.5v11.57h1.56v-5.89c0-2.73,1.48-4.27,3.9-4.27l.37,0v-1.52C144.87,214.71,143.39,215.53,142.67,217.07Z" fill-rule="evenodd"/><path d="M150.61,212.27a1.11,1.11,0,0,0,1.14-1.14,1.1,1.1,0,0,0-1.14-1.08,1.11,1.11,0,1,0,0,2.22Zm-.8,14.1h1.57V214.8h-1.57Z" fill-rule="evenodd"/><path d="M160.46,226.48a5.89,5.89,0,1,0-5.89-5.89,5.69,5.69,0,0,0,5.89,5.89Zm0-1.38a4.52,4.52,0,1,1,4.29-4.51A4.24,4.24,0,0,1,160.46,225.1Z" fill-rule="evenodd"/><path d="M172.63,226.48c3,0,4.77-1.29,4.77-3.3,0-4.44-7.5-2.08-7.5-5.21,0-1.1.93-1.91,3-1.91a5.87,5.87,0,0,1,3.4,1l.69-1.26a7.86,7.86,0,0,0-4.09-1.08c-2.95,0-4.58,1.41-4.58,3.3,0,4.58,7.5,2.21,7.5,5.22,0,1.14-.9,1.89-3.1,1.89a7,7,0,0,1-4.12-1.3l-.7,1.23A7.69,7.69,0,0,0,172.63,226.48Z" fill-rule="evenodd"/><path d="M190.85,226.48a5.12,5.12,0,0,0,4.53-2.28l-1.17-.8a3.9,3.9,0,0,1-3.36,1.7,4.51,4.51,0,0,1,0-9,3.93,3.93,0,0,1,3.36,1.71l1.17-.79a5.06,5.06,0,0,0-4.53-2.29,5.89,5.89,0,1,0,0,11.77Z" fill-rule="evenodd"/><path d="M207.3,214.8v6.07c0,2.64-1.52,4.21-3.94,4.21-2.2,0-3.47-1.26-3.47-3.72V214.8h-1.57v6.71c0,3.32,1.94,5,4.89,5a4.61,4.61,0,0,0,4.16-2.22v2.11h1.49V214.8Z" fill-rule="evenodd"/><path d="M217.29,214.71a7.36,7.36,0,0,0-4.71,1.57l.7,1.16a5.94,5.94,0,0,1,3.85-1.36c2.16,0,3.28,1.08,3.28,3.06v.7h-3.67c-3.32,0-4.47,1.5-4.47,3.28,0,2,1.61,3.36,4.23,3.36a4.35,4.35,0,0,0,4-1.91v1.8H222V219.2c0-3-1.69-4.49-4.68-4.49Zm-.55,10.54c-1.85,0-2.93-.83-2.93-2.18,0-1.18.73-2.06,3-2.06h3.63v1.89A3.69,3.69,0,0,1,216.74,225.25Z" fill-rule="evenodd"/><path d="M232.12,214.71a4.85,4.85,0,0,0-4.4,2.23V214.8h-1.5v11.57h1.56V220.3c0-2.64,1.56-4.18,4.05-4.18,2.2,0,3.48,1.26,3.48,3.7v6.55h1.56v-6.71C236.87,216.34,234.93,214.71,232.12,214.71Z" fill-rule="evenodd"/><path d="M250.16,210.05V217a5.08,5.08,0,0,0-4.4-2.29,5.89,5.89,0,0,0,0,11.77,5,5,0,0,0,4.46-2.39v2.28h1.5V210.05Zm-4.27,15a4.52,4.52,0,1,1,4.29-4.51A4.24,4.24,0,0,1,245.89,225.1Z" fill-rule="evenodd"/><path d="M260.8,226.48a5.89,5.89,0,1,0-5.89-5.89,5.69,5.69,0,0,0,5.89,5.89Zm0-1.38a4.52,4.52,0,1,1,4.29-4.51A4.24,4.24,0,0,1,260.8,225.1Z" fill-rule="evenodd"/><path d="M285.73,220.59a5.51,5.51,0,0,0-5.61-5.88,5.57,5.57,0,0,0-5.65,5.88,6.11,6.11,0,0,0,10.53,4l-.88-1a4.56,4.56,0,0,1-3.54,1.52,4.28,4.28,0,0,1-4.55-4h9.68c0-.17,0-.35,0-.48Zm-5.61-4.53a4,4,0,0,1,4.11,3.85H276A4,4,0,0,1,280.12,216.06Z" fill-rule="evenodd"/><rect x="288.92" y="210.05" width="1.56" height="16.32"/><path d="M306.15,224.55a2.62,2.62,0,0,1-1.72.59,1.85,1.85,0,0,1-2-2.11v-6.91H306V214.8h-3.52v-2.53h-1.56v2.53H298.8v1.32h2.07v7a3.06,3.06,0,0,0,3.38,3.36,3.73,3.73,0,0,0,2.45-.81Z" fill-rule="evenodd"/><path d="M311,217.07V214.8h-1.5v11.57h1.57v-5.89c0-2.73,1.47-4.27,3.89-4.27l.37,0v-1.52C313.23,214.71,311.76,215.53,311,217.07Z" fill-rule="evenodd"/><path d="M322.21,214.71a7.34,7.34,0,0,0-4.71,1.57l.7,1.16a5.94,5.94,0,0,1,3.85-1.36c2.16,0,3.28,1.08,3.28,3.06v.7h-3.67c-3.33,0-4.47,1.5-4.47,3.28,0,2,1.61,3.36,4.22,3.36a4.35,4.35,0,0,0,4-1.91v1.8h1.49V219.2c0-3-1.69-4.49-4.68-4.49Zm-.55,10.54c-1.85,0-2.93-.83-2.93-2.18,0-1.18.73-2.06,3-2.06h3.63v1.89A3.69,3.69,0,0,1,321.66,225.25Z" fill-rule="evenodd"/><path d="M337.1,214.71a5.07,5.07,0,0,0-4.4,2.29v-6.95h-1.56v16.32h1.49v-2.28a5,5,0,0,0,4.47,2.39,5.89,5.89,0,0,0,0-11.77ZM337,225.1a4.51,4.51,0,1,1,4.31-4.51A4.24,4.24,0,0,1,337,225.1Z" fill-rule="evenodd"/><path d="M350,214.71a7.34,7.34,0,0,0-4.71,1.57l.7,1.16a5.94,5.94,0,0,1,3.85-1.36c2.16,0,3.28,1.08,3.28,3.06v.7h-3.67c-3.33,0-4.47,1.5-4.47,3.28,0,2,1.61,3.36,4.22,3.36a4.35,4.35,0,0,0,4-1.91v1.8h1.49V219.2c0-3-1.69-4.49-4.68-4.49Zm-.55,10.54c-1.85,0-2.93-.83-2.93-2.18,0-1.18.73-2.06,3-2.06h3.63v1.89A3.69,3.69,0,0,1,349.49,225.25Z" fill-rule="evenodd"/><path d="M359.87,212.27a1.11,1.11,0,0,0,1.14-1.14,1.1,1.1,0,0,0-1.14-1.08,1.11,1.11,0,1,0,0,2.22Zm-2.62,18.48a3.17,3.17,0,0,0,3.39-3.52V214.8h-1.56v12.43c0,1.43-.68,2.18-1.92,2.18a2.73,2.73,0,0,1-1.8-.59l-.55,1.18A3.78,3.78,0,0,0,357.25,230.75Z" fill-rule="evenodd"/><path d="M369.73,226.48a5.89,5.89,0,1,0-5.9-5.89,5.69,5.69,0,0,0,5.9,5.89Zm0-1.38a4.52,4.52,0,1,1,4.29-4.51A4.24,4.24,0,0,1,369.73,225.1Z" fill-rule="evenodd"/><path d="M75.08,250.93a5.51,5.51,0,0,0-5.61-5.88,5.57,5.57,0,0,0-5.65,5.88,6.12,6.12,0,0,0,10.54,4l-.88-1a4.58,4.58,0,0,1-3.55,1.52,4.29,4.29,0,0,1-4.55-4h9.68c0-.18,0-.35,0-.48Zm-5.61-4.54a4,4,0,0,1,4.12,3.85H65.38A4,4,0,0,1,69.47,246.39Z" fill-rule="evenodd"/><path d="M81.37,256.82c3,0,4.78-1.3,4.78-3.3,0-4.44-7.5-2.08-7.5-5.21,0-1.1.92-1.92,3-1.92a6,6,0,0,1,3.41,1l.68-1.25a7.83,7.83,0,0,0-4.09-1.08c-3,0-4.58,1.41-4.58,3.3,0,4.58,7.51,2.21,7.51,5.22,0,1.14-.91,1.89-3.11,1.89a7,7,0,0,1-4.11-1.3l-.7,1.23A7.66,7.66,0,0,0,81.37,256.82Z" fill-rule="evenodd"/><path d="M94.57,254.89a2.59,2.59,0,0,1-1.71.59,1.85,1.85,0,0,1-2-2.11v-6.91h3.52v-1.32H90.86v-2.53H89.29v2.53H87.23v1.32h2.06v7a3.06,3.06,0,0,0,3.39,3.36,3.7,3.7,0,0,0,2.44-.81Z" fill-rule="evenodd"/><path d="M105.71,240.63h-2.09l-3,2.73h1.54l3.57-2.73Zm1.93,10.3a5.51,5.51,0,0,0-5.61-5.88,5.57,5.57,0,0,0-5.65,5.88,6.12,6.12,0,0,0,10.54,4l-.88-1a4.58,4.58,0,0,1-3.55,1.52,4.29,4.29,0,0,1-4.55-4h9.68c0-.18,0-.35,0-.48ZM102,246.39a4,4,0,0,1,4.12,3.85H97.94A4,4,0,0,1,102,246.39Z" fill-rule="evenodd"/><path d="M118.09,247.41v-2.27h-1.5v11.57h1.57v-5.89c0-2.73,1.47-4.27,3.89-4.27l.37,0v-1.52C120.29,245.05,118.82,245.87,118.09,247.41Z" fill-rule="evenodd"/><path d="M135.23,250.93a5.64,5.64,0,1,0-11.26,0,6.11,6.11,0,0,0,10.53,4l-.88-1a4.56,4.56,0,0,1-3.54,1.52,4.28,4.28,0,0,1-4.55-4h9.68c0-.18,0-.35,0-.48Zm-5.61-4.54a4,4,0,0,1,4.11,3.85h-8.2A4,4,0,0,1,129.62,246.39Z" fill-rule="evenodd"/><path d="M142.14,245.05a7.35,7.35,0,0,0-4.71,1.56l.7,1.17a5.89,5.89,0,0,1,3.85-1.36c2.16,0,3.28,1.07,3.28,3.05v.71h-3.67c-3.33,0-4.47,1.49-4.47,3.28,0,2,1.61,3.36,4.23,3.36a4.35,4.35,0,0,0,4-1.91v1.8h1.49v-7.17c0-3-1.69-4.49-4.68-4.49Zm-.55,10.54c-1.85,0-2.93-.84-2.93-2.18,0-1.19.73-2.07,3-2.07h3.63v1.9A3.7,3.7,0,0,1,141.59,255.59Z" fill-rule="evenodd"/><rect x="151.07" y="240.39" width="1.56" height="16.32"/><path d="M157.78,242.61a1.12,1.12,0,0,0,1.14-1.14,1.1,1.1,0,0,0-1.14-1.08,1.11,1.11,0,1,0,0,2.22Zm-.79,14.1h1.56V245.14H157Z" fill-rule="evenodd"/><polygon points="163.65 255.41 170.94 246.18 170.94 245.14 161.78 245.14 161.78 246.46 168.93 246.46 161.65 255.68 161.65 256.71 171.07 256.71 171.07 255.41 163.65 255.41" fill-rule="evenodd"/><path d="M178.19,245.05a7.32,7.32,0,0,0-4.7,1.56l.7,1.17a5.87,5.87,0,0,1,3.85-1.36c2.16,0,3.28,1.07,3.28,3.05v.71h-3.68c-3.32,0-4.46,1.49-4.46,3.28,0,2,1.6,3.36,4.22,3.36a4.32,4.32,0,0,0,4-1.91v1.8h1.5v-7.17c0-3-1.69-4.49-4.69-4.49Zm-.55,10.54c-1.84,0-2.92-.84-2.92-2.18,0-1.19.72-2.07,3-2.07h3.63v1.9A3.72,3.72,0,0,1,177.64,255.59Z" fill-rule="evenodd"/><path d="M196.17,240.39v7a5,5,0,0,0-4.4-2.29,5.89,5.89,0,0,0,0,11.77,5,5,0,0,0,4.46-2.4v2.29h1.5V240.39Zm-4.27,15.05a4.52,4.52,0,1,1,4.29-4.51A4.24,4.24,0,0,1,191.9,255.44Z" fill-rule="evenodd"/><path d="M206.82,256.82a5.89,5.89,0,1,0-5.9-5.89,5.69,5.69,0,0,0,5.9,5.89Zm0-1.38a4.52,4.52,0,1,1,4.29-4.51A4.24,4.24,0,0,1,206.82,255.44Z" fill-rule="evenodd"/><path d="M229.83,245.14,225.47,255l-4.35-9.83h-1.63l5.17,11.55-.51,1.12c-.66,1.45-1.36,1.94-2.4,1.94a2.9,2.9,0,0,1-2.11-.88l-.72,1.16a3.91,3.91,0,0,0,2.81,1.06c1.65,0,2.88-.73,3.85-3l5.79-13Z" fill-rule="evenodd"/><path d="M244.88,254.89a2.62,2.62,0,0,1-1.72.59,1.85,1.85,0,0,1-2-2.11v-6.91h3.52v-1.32h-3.52v-2.53H239.6v2.53h-2.07v1.32h2.07v7a3.06,3.06,0,0,0,3.38,3.36,3.73,3.73,0,0,0,2.45-.81Z" fill-rule="evenodd"/><path d="M257.13,245.14v6.07c0,2.64-1.52,4.2-3.94,4.2-2.2,0-3.47-1.25-3.47-3.71v-6.56h-1.57v6.71c0,3.32,1.94,5,4.89,5a4.61,4.61,0,0,0,4.16-2.22v2.11h1.49V245.14Z" fill-rule="evenodd"/><path d="M273.63,256.82a5.08,5.08,0,0,0,4.53-2.29l-1.16-.79a3.93,3.93,0,0,1-3.37,1.7,4.51,4.51,0,0,1,0-9,4,4,0,0,1,3.37,1.71l1.16-.79a5,5,0,0,0-4.53-2.29,5.89,5.89,0,1,0,0,11.77Z" fill-rule="evenodd"/><path d="M285.27,245.05a7.35,7.35,0,0,0-4.71,1.56l.7,1.17a5.89,5.89,0,0,1,3.85-1.36c2.16,0,3.28,1.07,3.28,3.05v.71h-3.67c-3.32,0-4.47,1.49-4.47,3.28,0,2,1.61,3.36,4.23,3.36a4.35,4.35,0,0,0,4-1.91v1.8H290v-7.17c0-3-1.69-4.49-4.68-4.49Zm-.55,10.54c-1.85,0-2.93-.84-2.93-2.18,0-1.19.73-2.07,3-2.07h3.63v1.9A3.7,3.7,0,0,1,284.72,255.59Z" fill-rule="evenodd"/><path d="M297.3,256.82c3,0,4.78-1.3,4.78-3.3,0-4.44-7.51-2.08-7.51-5.21,0-1.1.93-1.92,3-1.92a6,6,0,0,1,3.41,1l.68-1.25a7.86,7.86,0,0,0-4.09-1.08c-2.95,0-4.58,1.41-4.58,3.3,0,4.58,7.5,2.21,7.5,5.22,0,1.14-.9,1.89-3.1,1.89a6.94,6.94,0,0,1-4.11-1.3l-.71,1.23A7.72,7.72,0,0,0,297.3,256.82Z" fill-rule="evenodd"/><path d="M309,245.05a7.33,7.33,0,0,0-4.71,1.56l.7,1.17a5.89,5.89,0,0,1,3.85-1.36c2.16,0,3.28,1.07,3.28,3.05v.71h-3.67c-3.33,0-4.47,1.49-4.47,3.28,0,2,1.61,3.36,4.22,3.36a4.35,4.35,0,0,0,4-1.91v1.8h1.49v-7.17c0-3-1.69-4.49-4.68-4.49Zm-.55,10.54c-1.85,0-2.93-.84-2.93-2.18,0-1.19.73-2.07,3-2.07h3.63v1.9A3.71,3.71,0,0,1,308.46,255.59Z" fill-rule="evenodd"/><path d="M329.6,245.05a4.9,4.9,0,0,0-4.34,2.11v-6.77H323.7v16.32h1.56v-6.07c0-2.64,1.57-4.18,4.05-4.18,2.2,0,3.48,1.25,3.48,3.7v6.55h1.56V250C334.35,246.68,332.41,245.05,329.6,245.05Z" fill-rule="evenodd"/><path d="M342.64,245.05a7.32,7.32,0,0,0-4.7,1.56l.7,1.17a5.87,5.87,0,0,1,3.85-1.36c2.16,0,3.28,1.07,3.28,3.05v.71h-3.68c-3.32,0-4.46,1.49-4.46,3.28,0,2,1.6,3.36,4.22,3.36a4.32,4.32,0,0,0,4-1.91v1.8h1.5v-7.17c0-3-1.69-4.49-4.69-4.49Zm-.55,10.54c-1.84,0-2.92-.84-2.92-2.18,0-1.19.72-2.07,3-2.07h3.63v1.9A3.72,3.72,0,0,1,342.09,255.59Z" fill-rule="evenodd"/><path d="M359.54,245.14,355.18,255l-4.35-9.83H349.2l5.17,11.55-.51,1.12c-.66,1.45-1.36,1.94-2.39,1.94a2.92,2.92,0,0,1-2.12-.88l-.72,1.16a3.93,3.93,0,0,0,2.81,1.06c1.65,0,2.89-.73,3.85-3l5.79-13Z" fill-rule="evenodd"/><path d="M367,245.05a7.33,7.33,0,0,0-4.71,1.56l.7,1.17a5.89,5.89,0,0,1,3.85-1.36c2.16,0,3.28,1.07,3.28,3.05v.71h-3.67c-3.33,0-4.47,1.49-4.47,3.28,0,2,1.61,3.36,4.22,3.36a4.35,4.35,0,0,0,4-1.91v1.8h1.49v-7.17c0-3-1.69-4.49-4.68-4.49Zm-.55,10.54c-1.85,0-2.93-.84-2.93-2.18,0-1.19.73-2.07,3-2.07h3.63v1.9A3.71,3.71,0,0,1,366.43,255.59Z" fill-rule="evenodd"/><path d="M151.37,287.16c3,0,4.77-1.3,4.77-3.3,0-4.44-7.5-2.09-7.5-5.21,0-1.1.92-1.92,3-1.92a6,6,0,0,1,3.41,1l.68-1.25a7.8,7.8,0,0,0-4.09-1.08c-3,0-4.57,1.41-4.57,3.3,0,4.58,7.5,2.2,7.5,5.21,0,1.15-.9,1.9-3.1,1.9a7.06,7.06,0,0,1-4.12-1.3l-.7,1.23A7.74,7.74,0,0,0,151.37,287.16Z" fill-rule="evenodd"/><path d="M159.81,273A1.13,1.13,0,0,0,161,271.8a1.11,1.11,0,0,0-1.15-1.07,1.11,1.11,0,1,0,0,2.22Zm-.79,14.1h1.56V275.48H159Z" fill-rule="evenodd"/><path d="M173.94,270.73v6.95a5,5,0,0,0-4.4-2.29,5.89,5.89,0,0,0,0,11.77,5,5,0,0,0,4.46-2.4v2.29h1.5V270.73Zm-4.27,15a4.52,4.52,0,1,1,4.29-4.51A4.24,4.24,0,0,1,169.67,285.77Z" fill-rule="evenodd"/><path d="M184.59,287.16a5.89,5.89,0,1,0-5.9-5.9,5.69,5.69,0,0,0,5.9,5.9Zm0-1.39a4.52,4.52,0,1,1,4.29-4.51A4.24,4.24,0,0,1,184.59,285.77Z" fill-rule="evenodd"/><polygon points="207.6 275.48 203.22 285.33 198.89 275.48 197.26 275.48 202.38 287.05 203.99 287.05 209.14 275.48 207.6 275.48" fill-rule="evenodd"/><path d="M221.11,281.26a5.52,5.52,0,0,0-5.61-5.87,5.57,5.57,0,0,0-5.66,5.87,6.12,6.12,0,0,0,10.54,4l-.88-1a4.55,4.55,0,0,1-3.54,1.51,4.29,4.29,0,0,1-4.56-4h9.68c0-.18,0-.35,0-.49Zm-5.61-4.53a4,4,0,0,1,4.11,3.85H211.4A4,4,0,0,1,215.5,276.73Z" fill-rule="evenodd"/><path d="M230.19,275.39a4.86,4.86,0,0,0-4.4,2.22v-2.13H224.3v11.57h1.56V281c0-2.64,1.56-4.18,4-4.18,2.2,0,3.47,1.25,3.47,3.69v6.56h1.56v-6.71C234.94,277,233,275.39,230.19,275.39Z" fill-rule="evenodd"/><path d="M248.23,270.73v6.95a5,5,0,0,0-4.4-2.29,5.89,5.89,0,0,0,0,11.77,5,5,0,0,0,4.47-2.4v2.29h1.49V270.73Zm-4.27,15a4.52,4.52,0,1,1,4.29-4.51A4.24,4.24,0,0,1,244,285.77Z" fill-rule="evenodd"/><path d="M254.94,273a1.13,1.13,0,0,0,1.15-1.15,1.15,1.15,0,0,0-2.29,0,1.13,1.13,0,0,0,1.14,1.12Zm-.79,14.1h1.56V275.48h-1.56Z" fill-rule="evenodd"/><path d="M269.07,270.73v6.95a5.06,5.06,0,0,0-4.4-2.29,5.89,5.89,0,0,0,0,11.77,5,5,0,0,0,4.46-2.4v2.29h1.5V270.73Zm-4.27,15a4.52,4.52,0,1,1,4.29-4.51A4.23,4.23,0,0,1,264.8,285.77Z" fill-rule="evenodd"/><path d="M279,275.39a7.37,7.37,0,0,0-4.71,1.56l.71,1.17a5.86,5.86,0,0,1,3.85-1.37c2.15,0,3.28,1.08,3.28,3.06v.71h-3.68c-3.32,0-4.46,1.49-4.46,3.27,0,2,1.6,3.37,4.22,3.37a4.36,4.36,0,0,0,4-1.91v1.8h1.5v-7.17c0-3-1.7-4.49-4.69-4.49Zm-.55,10.54c-1.85,0-2.92-.84-2.92-2.18s.72-2.07,3-2.07h3.63v1.89A3.72,3.72,0,0,1,278.48,285.93Z" fill-rule="evenodd"/><path d="M288.12,287.16a1.21,1.21,0,0,0,1.19-1.21,1.19,1.19,0,0,0-1.19-1.19A1.17,1.17,0,0,0,287,286,1.19,1.19,0,0,0,288.12,287.16Z" fill-rule="evenodd"/></svg>