<svg id="Capa_1" data-name="Capa 1" xmlns="http://www.w3.org/2000/svg" xmlns:xlink="http://www.w3.org/1999/xlink" width="154mm" height="154mm" viewBox="0 0 436.54 436.54"><defs><linearGradient id="GradientFill_3" x1="467.94" y1="287.59" x2="77.21" y2="179.1" gradientUnits="userSpaceOnUse"><stop offset="0" stop-color="#f3cf1c"/><stop offset="0.77" stop-color="#f4ae21"/><stop offset="1" stop-color="#f4ae21"/></linearGradient></defs><title>QUESITO AMARILLO CIRCULO 2</title><circle cx="218.27" cy="218.27" r="218.04" fill="url(#GradientFill_3)"/><polygon points="173.31 87.72 174.94 87.72 174.94 73.73 180.35 73.73 180.35 72.32 167.9 72.32 167.9 73.73 173.31 73.73 173.31 87.72" fill-rule="evenodd"/><path d="M186.14,87.83a5.89,5.89,0,1,0-5.9-5.9,5.69,5.69,0,0,0,5.9,5.9Zm0-1.39a4.52,4.52,0,1,1,4.29-4.51A4.24,4.24,0,0,1,186.14,86.44Z" fill-rule="evenodd"/><path d="M204.2,71.4v6.95a5,5,0,0,0-4.4-2.29,5.89,5.89,0,0,0,0,11.77,5,5,0,0,0,4.46-2.4v2.29h1.5V71.4Zm-4.27,15a4.52,4.52,0,1,1,4.29-4.51A4.24,4.24,0,0,1,199.93,86.44Z" fill-rule="evenodd"/><path d="M214.85,87.83a5.89,5.89,0,1,0-5.9-5.9,5.69,5.69,0,0,0,5.9,5.9Zm0-1.39a4.52,4.52,0,1,1,4.29-4.51A4.24,4.24,0,0,1,214.85,86.44Z" fill-rule="evenodd"/><path d="M227,87.83c3,0,4.78-1.3,4.78-3.3,0-4.44-7.51-2.09-7.51-5.21,0-1.1.93-1.92,3-1.92a6,6,0,0,1,3.41,1l.68-1.25a7.86,7.86,0,0,0-4.09-1.08c-3,0-4.58,1.41-4.58,3.3,0,4.58,7.5,2.2,7.5,5.21,0,1.15-.9,1.9-3.1,1.9a7,7,0,0,1-4.11-1.3l-.71,1.23A7.78,7.78,0,0,0,227,87.83Z" fill-rule="evenodd"/><rect x="240.43" y="71.4" width="1.56" height="16.32"/><path d="M251.08,87.83a5.89,5.89,0,1,0-5.9-5.9,5.69,5.69,0,0,0,5.9,5.9Zm0-1.39a4.52,4.52,0,1,1,4.29-4.51A4.24,4.24,0,0,1,251.08,86.44Z" fill-rule="evenodd"/><path d="M263.25,87.83c3,0,4.77-1.3,4.77-3.3,0-4.44-7.5-2.09-7.5-5.21,0-1.1.92-1.92,3-1.92a6,6,0,0,1,3.41,1l.68-1.25a7.8,7.8,0,0,0-4.09-1.08c-2.95,0-4.57,1.41-4.57,3.3,0,4.58,7.5,2.2,7.5,5.21,0,1.15-.9,1.9-3.1,1.9a7.06,7.06,0,0,1-4.12-1.3l-.7,1.23A7.74,7.74,0,0,0,263.25,87.83Z" fill-rule="evenodd"/><path d="M106.4,106.4a5,5,0,0,0-4.47,2.37v-2.28h-1.49v15.84H102v-6.45a5,5,0,0,0,4.4,2.29,5.89,5.89,0,0,0,0-11.77Zm-.11,10.38a4.51,4.51,0,1,1,4.31-4.51A4.23,4.23,0,0,1,106.29,116.78Z" fill-rule="evenodd"/><path d="M116.85,108.75v-2.26h-1.5v11.57h1.56v-5.9c0-2.73,1.48-4.27,3.9-4.27.11,0,.24,0,.37,0V106.4C119.05,106.4,117.57,107.21,116.85,108.75Z" fill-rule="evenodd"/><path d="M128.62,118.17a5.89,5.89,0,1,0-5.9-5.9,5.69,5.69,0,0,0,5.9,5.9Zm0-1.39a4.52,4.52,0,1,1,4.29-4.51A4.23,4.23,0,0,1,128.62,116.78Z" fill-rule="evenodd"/><path d="M141.51,102.94a2.63,2.63,0,0,1,1.72.58l.52-1.17a3.69,3.69,0,0,0-2.31-.73,3.19,3.19,0,0,0-3.49,3.44v1.43h-2.07v1.32H138v10.25h1.56V107.81H143v-1.32h-3.57v-1.37C139.46,103.69,140.17,102.94,141.51,102.94Z" fill-rule="evenodd"/><path d="M155,112.27a5.63,5.63,0,1,0-11.26,0,6.11,6.11,0,0,0,10.53,4l-.88-1a4.53,4.53,0,0,1-3.54,1.52,4.27,4.27,0,0,1-4.55-4H155c0-.18,0-.36,0-.49Zm-5.61-4.53a4,4,0,0,1,4.11,3.85h-8.2A4,4,0,0,1,149.43,107.74Z" fill-rule="evenodd"/><path d="M161.33,118.17c3,0,4.78-1.3,4.78-3.3,0-4.44-7.51-2.09-7.51-5.22,0-1.1.93-1.91,3-1.91a6,6,0,0,1,3.41,1l.68-1.25a7.86,7.86,0,0,0-4.09-1.08c-3,0-4.58,1.41-4.58,3.3,0,4.57,7.5,2.2,7.5,5.21,0,1.15-.9,1.89-3.1,1.89a7,7,0,0,1-4.11-1.29l-.71,1.23A7.78,7.78,0,0,0,161.33,118.17Z" fill-rule="evenodd"/><path d="M169.78,104a1.12,1.12,0,0,0,1.14-1.15,1.11,1.11,0,0,0-1.14-1.08,1.12,1.12,0,1,0,0,2.23Zm-.79,14.1h1.56V106.49H169Z" fill-rule="evenodd"/><path d="M179.64,118.17a5.89,5.89,0,1,0-5.9-5.9,5.7,5.7,0,0,0,5.9,5.9Zm0-1.39a4.52,4.52,0,1,1,4.29-4.51A4.24,4.24,0,0,1,179.64,116.78Z" fill-rule="evenodd"/><path d="M194.6,106.4a4.84,4.84,0,0,0-4.4,2.22v-2.13h-1.5v11.57h1.56V112c0-2.64,1.56-4.18,4.05-4.18,2.2,0,3.48,1.25,3.48,3.69v6.56h1.56v-6.71C199.35,108,197.41,106.4,194.6,106.4Z" fill-rule="evenodd"/><path d="M207.64,106.4a7.37,7.37,0,0,0-4.71,1.56l.71,1.17a5.86,5.86,0,0,1,3.85-1.37c2.15,0,3.28,1.08,3.28,3.06v.7h-3.68c-3.32,0-4.46,1.5-4.46,3.28,0,2,1.6,3.37,4.22,3.37a4.34,4.34,0,0,0,4-1.92v1.81h1.5v-7.17c0-3-1.7-4.49-4.69-4.49Zm-.55,10.54c-1.85,0-2.92-.84-2.92-2.18s.72-2.07,3-2.07h3.63v1.89A3.72,3.72,0,0,1,207.09,116.94Z" fill-rule="evenodd"/><rect x="216.57" y="101.73" width="1.56" height="16.32"/><path d="M232.59,112.27a5.63,5.63,0,1,0-11.26,0,6.11,6.11,0,0,0,10.53,4l-.88-1a4.53,4.53,0,0,1-3.54,1.52,4.27,4.27,0,0,1-4.55-4h9.68c0-.18,0-.36,0-.49ZM227,107.74a4,4,0,0,1,4.11,3.85h-8.2A4,4,0,0,1,227,107.74Z" fill-rule="evenodd"/><path d="M238.88,118.17c3,0,4.78-1.3,4.78-3.3,0-4.44-7.51-2.09-7.51-5.22,0-1.1.93-1.91,3-1.91a6,6,0,0,1,3.41,1l.68-1.25a7.86,7.86,0,0,0-4.09-1.08c-2.95,0-4.58,1.41-4.58,3.3,0,4.57,7.5,2.2,7.5,5.21,0,1.15-.9,1.89-3.1,1.89a7,7,0,0,1-4.11-1.29l-.71,1.23A7.78,7.78,0,0,0,238.88,118.17Z" fill-rule="evenodd"/><path d="M257.85,116.23a2.58,2.58,0,0,1-1.72.6,1.85,1.85,0,0,1-2-2.12v-6.9h3.52v-1.32h-3.52V104h-1.56v2.53H250.5v1.32h2.07v7a3.06,3.06,0,0,0,3.38,3.37,3.74,3.74,0,0,0,2.45-.82Z" fill-rule="evenodd"/><path d="M270.91,112.27a5.51,5.51,0,0,0-5.61-5.87,5.57,5.57,0,0,0-5.65,5.87,6.12,6.12,0,0,0,10.54,4l-.88-1a4.54,4.54,0,0,1-3.54,1.52,4.29,4.29,0,0,1-4.56-4h9.68c0-.18,0-.36,0-.49Zm-5.61-4.53a4,4,0,0,1,4.12,3.85h-8.21A4,4,0,0,1,265.3,107.74Z" fill-rule="evenodd"/><path d="M280,106.4a4.86,4.86,0,0,0-4.4,2.22v-2.13h-1.5v11.57h1.57V112c0-2.64,1.56-4.18,4-4.18,2.2,0,3.48,1.25,3.48,3.69v6.56h1.56v-6.71C284.75,108,282.82,106.4,280,106.4Z" fill-rule="evenodd"/><path d="M298,101.73v7a5,5,0,0,0-4.4-2.29,5.89,5.89,0,0,0,0,11.77,5,5,0,0,0,4.47-2.4v2.29h1.49V101.73Zm-4.27,15a4.52,4.52,0,1,1,4.29-4.51A4.24,4.24,0,0,1,293.77,116.78Z" fill-rule="evenodd"/><path d="M305.45,108.75v-2.26H304v11.57h1.56v-5.9c0-2.73,1.47-4.27,3.89-4.27.11,0,.25,0,.38,0V106.4C307.65,106.4,306.18,107.21,305.45,108.75Z" fill-rule="evenodd"/><path d="M320.35,102h-2.09l-3,2.72h1.54l3.57-2.72Zm-3.72,4.42a7.35,7.35,0,0,0-4.71,1.56l.71,1.17a5.86,5.86,0,0,1,3.85-1.37c2.15,0,3.27,1.08,3.27,3.06v.7h-3.67c-3.32,0-4.47,1.5-4.47,3.28,0,2,1.61,3.37,4.23,3.37a4.34,4.34,0,0,0,4-1.92v1.81h1.5v-7.17c0-3-1.7-4.49-4.69-4.49Zm-.55,10.54c-1.85,0-2.93-.84-2.93-2.18s.73-2.07,3-2.07h3.63v1.89A3.69,3.69,0,0,1,316.08,116.94Z" fill-rule="evenodd"/><path d="M331.46,106.4a4.85,4.85,0,0,0-4.4,2.22v-2.13h-1.5v11.57h1.56V112c0-2.64,1.57-4.18,4.05-4.18,2.2,0,3.48,1.25,3.48,3.69v6.56h1.56v-6.71C336.21,108,334.27,106.4,331.46,106.4Z" fill-rule="evenodd"/><polygon points="72.18 136.82 67.8 146.68 63.47 136.82 61.84 136.82 66.96 148.4 68.57 148.4 73.72 136.82 72.18 136.82" fill-rule="evenodd"/><path d="M79.61,136.74a7.37,7.37,0,0,0-4.71,1.56l.71,1.16a5.9,5.9,0,0,1,3.85-1.36c2.15,0,3.28,1.08,3.28,3.06v.7H79.06c-3.32,0-4.46,1.5-4.46,3.28,0,2,1.6,3.37,4.22,3.37a4.34,4.34,0,0,0,4-1.92v1.81h1.5v-7.18c0-3-1.7-4.48-4.69-4.48Zm-.55,10.53c-1.85,0-2.92-.83-2.92-2.17,0-1.19.72-2.07,3-2.07h3.63v1.89A3.71,3.71,0,0,1,79.06,147.27Z" fill-rule="evenodd"/><rect x="88.54" y="132.07" width="1.56" height="16.32"/><path d="M99.19,148.51a5.89,5.89,0,1,0-5.89-5.9,5.7,5.7,0,0,0,5.89,5.9Zm0-1.39a4.52,4.52,0,1,1,4.29-4.51A4.24,4.24,0,0,1,99.19,147.12Z" fill-rule="evenodd"/><path d="M109.75,139.09v-2.27h-1.49V148.4h1.56v-5.9c0-2.73,1.47-4.27,3.89-4.27l.38,0v-1.51C112,136.74,110.48,137.55,109.75,139.09Z" fill-rule="evenodd"/><path d="M120.93,136.74a7.35,7.35,0,0,0-4.71,1.56l.7,1.16a5.94,5.94,0,0,1,3.85-1.36c2.16,0,3.28,1.08,3.28,3.06v.7h-3.67c-3.32,0-4.47,1.5-4.47,3.28,0,2,1.61,3.37,4.23,3.37a4.35,4.35,0,0,0,4-1.92v1.81h1.49v-7.18c0-3-1.69-4.48-4.68-4.48Zm-.55,10.53c-1.85,0-2.93-.83-2.93-2.17,0-1.19.73-2.07,3-2.07h3.63v1.89A3.69,3.69,0,0,1,120.38,147.27Z" fill-rule="evenodd"/><path d="M134.7,148.51a5.11,5.11,0,0,0,4.53-2.29l-1.16-.79a3.94,3.94,0,0,1-3.37,1.69,4.51,4.51,0,0,1,0-9,4,4,0,0,1,3.37,1.72l1.16-.8a5.05,5.05,0,0,0-4.53-2.28,5.89,5.89,0,1,0,0,11.77Z" fill-rule="evenodd"/><path d="M143.08,134.29a1.11,1.11,0,1,0-1.14-1.12,1.12,1.12,0,0,0,1.14,1.12Zm-.79,14.11h1.56V136.82h-1.56Z" fill-rule="evenodd"/><path d="M152.94,148.51a5.89,5.89,0,1,0-5.9-5.9,5.69,5.69,0,0,0,5.9,5.9Zm0-1.39a4.52,4.52,0,1,1,4.29-4.51A4.23,4.23,0,0,1,152.94,147.12Z" fill-rule="evenodd"/><path d="M167.9,136.74a4.85,4.85,0,0,0-4.4,2.22v-2.14H162V148.4h1.56v-6.08c0-2.64,1.57-4.18,4.05-4.18,2.2,0,3.48,1.26,3.48,3.7v6.56h1.56v-6.71C172.65,138.36,170.71,136.74,167.9,136.74Z" fill-rule="evenodd"/><path d="M187,142.61a5.51,5.51,0,0,0-5.61-5.87,5.57,5.57,0,0,0-5.66,5.87,5.74,5.74,0,0,0,6.08,5.9,5.67,5.67,0,0,0,4.46-1.9l-.88-1a4.56,4.56,0,0,1-3.54,1.52,4.28,4.28,0,0,1-4.55-4H187c0-.17,0-.35,0-.48Zm-5.61-4.53a4,4,0,0,1,4.11,3.85h-8.2A4,4,0,0,1,181.43,138.08Z" fill-rule="evenodd"/><path d="M193.33,148.51c3,0,4.77-1.3,4.77-3.3,0-4.44-7.5-2.09-7.5-5.22,0-1.1.93-1.91,3-1.91a5.92,5.92,0,0,1,3.41,1l.68-1.26a7.85,7.85,0,0,0-4.09-1.07c-3,0-4.58,1.4-4.58,3.3,0,4.57,7.5,2.2,7.5,5.21,0,1.14-.9,1.89-3.1,1.89a6.94,6.94,0,0,1-4.11-1.3l-.71,1.24A7.78,7.78,0,0,0,193.33,148.51Z" fill-rule="evenodd"/><path d="M214.93,136.82l-4.35,9.84-4.36-9.84h-1.63l5.17,11.55-.5,1.13c-.66,1.45-1.37,1.93-2.4,1.93a2.88,2.88,0,0,1-2.11-.88l-.73,1.17a4,4,0,0,0,2.82,1.05c1.65,0,2.88-.72,3.85-3l5.78-13Z" fill-rule="evenodd"/><path d="M230.4,136.74a5.05,5.05,0,0,0-4.47,2.37v-2.29h-1.49v15.84H226v-6.44a5.07,5.07,0,0,0,4.4,2.29,5.89,5.89,0,0,0,0-11.77Zm-.11,10.38a4.51,4.51,0,1,1,4.31-4.51A4.24,4.24,0,0,1,230.29,147.12Z" fill-rule="evenodd"/><path d="M248.22,136.82v6.08c0,2.64-1.52,4.2-3.94,4.2-2.2,0-3.47-1.26-3.47-3.72v-6.56h-1.57v6.71c0,3.33,1.94,5,4.89,5a4.61,4.61,0,0,0,4.16-2.23v2.12h1.49V136.82Z" fill-rule="evenodd"/><path d="M260.06,136.74a4.84,4.84,0,0,0-4.4,2.22v-2.14h-1.5V148.4h1.56v-6.08c0-2.64,1.56-4.18,4-4.18,2.2,0,3.48,1.26,3.48,3.7v6.56h1.56v-6.71C264.81,138.36,262.87,136.74,260.06,136.74Z" fill-rule="evenodd"/><path d="M274.6,146.57a2.57,2.57,0,0,1-1.72.59,1.85,1.85,0,0,1-2-2.11v-6.91h3.52v-1.32h-3.52v-2.53h-1.56v2.53h-2.07v1.32h2.07v7a3.07,3.07,0,0,0,3.39,3.37,3.73,3.73,0,0,0,2.44-.82Z" fill-rule="evenodd"/><path d="M286.85,136.82v6.08c0,2.64-1.52,4.2-3.94,4.2-2.2,0-3.47-1.26-3.47-3.72v-6.56h-1.56v6.71c0,3.33,1.93,5,4.88,5a4.61,4.61,0,0,0,4.16-2.23v2.12h1.49V136.82Z" fill-rule="evenodd"/><path d="M296.84,136.74a7.35,7.35,0,0,0-4.71,1.56l.71,1.16a5.9,5.9,0,0,1,3.85-1.36c2.15,0,3.27,1.08,3.27,3.06v.7h-3.67c-3.32,0-4.47,1.5-4.47,3.28,0,2,1.61,3.37,4.23,3.37a4.34,4.34,0,0,0,4-1.92v1.81h1.5v-7.18c0-3-1.7-4.48-4.69-4.48Zm-.55,10.53c-1.85,0-2.93-.83-2.93-2.17,0-1.19.73-2.07,3-2.07H300v1.89A3.69,3.69,0,0,1,296.29,147.27Z" fill-rule="evenodd"/><path d="M310.61,148.51a5.11,5.11,0,0,0,4.53-2.29l-1.16-.79a3.93,3.93,0,0,1-3.37,1.69,4.51,4.51,0,0,1,0-9,3.93,3.93,0,0,1,3.37,1.72l1.16-.8a5.05,5.05,0,0,0-4.53-2.28,5.89,5.89,0,1,0,0,11.77Z" fill-rule="evenodd"/><path d="M319,134.29a1.11,1.11,0,1,0-1.14-1.12,1.12,1.12,0,0,0,1.14,1.12Zm-.79,14.11h1.56V136.82H318.2Z" fill-rule="evenodd"/><path d="M328.85,148.51a5.89,5.89,0,1,0-5.9-5.9,5.69,5.69,0,0,0,5.9,5.9Zm0-1.39a4.52,4.52,0,1,1,4.29-4.51A4.24,4.24,0,0,1,328.85,147.12Z" fill-rule="evenodd"/><path d="M343.81,136.74a4.86,4.86,0,0,0-4.4,2.22v-2.14h-1.5V148.4h1.57v-6.08c0-2.64,1.56-4.18,4-4.18,2.2,0,3.48,1.26,3.48,3.7v6.56h1.56v-6.71C348.56,138.36,346.63,136.74,343.81,136.74Z" fill-rule="evenodd"/><path d="M363,142.61a5.51,5.51,0,0,0-5.61-5.87,5.57,5.57,0,0,0-5.65,5.87,5.73,5.73,0,0,0,6.07,5.9,5.67,5.67,0,0,0,4.46-1.9l-.88-1a4.56,4.56,0,0,1-3.54,1.52,4.28,4.28,0,0,1-4.55-4h9.68c0-.17,0-.35,0-.48Zm-5.61-4.53a4,4,0,0,1,4.11,3.85h-8.2A4,4,0,0,1,357.34,138.08Z" fill-rule="evenodd"/><path d="M369.24,148.51c3,0,4.78-1.3,4.78-3.3,0-4.44-7.51-2.09-7.51-5.22,0-1.1.93-1.91,3-1.91a5.88,5.88,0,0,1,3.41,1l.68-1.26a7.85,7.85,0,0,0-4.09-1.07c-2.95,0-4.58,1.4-4.58,3.3,0,4.57,7.5,2.2,7.5,5.21,0,1.14-.9,1.89-3.1,1.89a6.94,6.94,0,0,1-4.11-1.3l-.71,1.24A7.78,7.78,0,0,0,369.24,148.51Z" fill-rule="evenodd"/><path d="M68.85,167.07a5,5,0,0,0-4.46,2.38v-2.29h-1.5V183h1.57v-6.44a5,5,0,0,0,4.39,2.28,5.89,5.89,0,0,0,0-11.77Zm-.11,10.39A4.51,4.51,0,1,1,73.06,173,4.24,4.24,0,0,1,68.74,177.46Z" fill-rule="evenodd"/><path d="M82.54,178.84a5.89,5.89,0,1,0-5.9-5.89,5.68,5.68,0,0,0,5.9,5.89Zm0-1.38A4.52,4.52,0,1,1,86.83,173,4.24,4.24,0,0,1,82.54,177.46Z" fill-rule="evenodd"/><path d="M93.1,169.43v-2.27H91.6v11.57h1.56v-5.89c0-2.73,1.48-4.27,3.9-4.27l.37,0v-1.52C95.3,167.07,93.82,167.89,93.1,169.43Z" fill-rule="evenodd"/><path d="M112.15,167.07a5.06,5.06,0,0,0-4.47,2.38v-2.29h-1.49V183h1.56v-6.44a5.06,5.06,0,0,0,4.4,2.28,5.89,5.89,0,0,0,0-11.77ZM112,177.46a4.51,4.51,0,1,1,4.31-4.51A4.24,4.24,0,0,1,112,177.46Z" fill-rule="evenodd"/><path d="M125.09,167.07a7.34,7.34,0,0,0-4.71,1.57l.7,1.16a5.94,5.94,0,0,1,3.85-1.36c2.16,0,3.28,1.08,3.28,3.06v.7h-3.67c-3.33,0-4.47,1.5-4.47,3.28,0,2,1.61,3.36,4.22,3.36a4.35,4.35,0,0,0,4-1.91v1.8h1.49v-7.17c0-3-1.69-4.49-4.68-4.49Zm-.55,10.54c-1.85,0-2.93-.83-2.93-2.18,0-1.18.73-2.06,3-2.06h3.63v1.89A3.69,3.69,0,0,1,124.54,177.61Z" fill-rule="evenodd"/><path d="M135.51,169.43v-2.27H134v11.57h1.56v-5.89c0-2.73,1.47-4.27,3.89-4.27l.38,0v-1.52C137.71,167.07,136.24,167.89,135.51,169.43Z" fill-rule="evenodd"/><path d="M148.71,176.91a2.59,2.59,0,0,1-1.71.59,1.85,1.85,0,0,1-2-2.11v-6.91h3.52v-1.32H145v-2.53h-1.57v2.53h-2.06v1.32h2.06v7a3.06,3.06,0,0,0,3.39,3.36,3.7,3.7,0,0,0,2.44-.81Z" fill-rule="evenodd"/><path d="M161.78,173a5.51,5.51,0,0,0-5.61-5.88,5.58,5.58,0,0,0-5.65,5.88,6.12,6.12,0,0,0,10.54,4l-.88-1a4.58,4.58,0,0,1-3.55,1.52,4.29,4.29,0,0,1-4.55-4h9.68c0-.17,0-.35,0-.48Zm-5.61-4.53a4,4,0,0,1,4.12,3.85h-8.21A4,4,0,0,1,156.17,168.42Z" fill-rule="evenodd"/><path d="M179.73,162.41v7a5.06,5.06,0,0,0-4.4-2.29,5.89,5.89,0,0,0,0,11.77,5,5,0,0,0,4.47-2.39v2.28h1.5V162.41Zm-4.26,15.05a4.52,4.52,0,1,1,4.29-4.51A4.24,4.24,0,0,1,175.47,177.46Z" fill-rule="evenodd"/><path d="M195.75,173a5.51,5.51,0,0,0-5.61-5.88,5.57,5.57,0,0,0-5.65,5.88A6.11,6.11,0,0,0,195,177l-.88-1a4.56,4.56,0,0,1-3.54,1.52,4.28,4.28,0,0,1-4.55-4h9.68c0-.17,0-.35,0-.48Zm-5.61-4.53a4,4,0,0,1,4.11,3.85h-8.2A4,4,0,0,1,190.14,168.42Z" fill-rule="evenodd"/><rect x="204.7" y="162.41" width="1.56" height="16.32"/><path d="M215.35,178.84a5.89,5.89,0,1,0-5.89-5.89,5.69,5.69,0,0,0,5.89,5.89Zm0-1.38a4.52,4.52,0,1,1,4.29-4.51A4.24,4.24,0,0,1,215.35,177.46Z" fill-rule="evenodd"/><path d="M227.52,178.84c3,0,4.77-1.29,4.77-3.3,0-4.44-7.5-2.08-7.5-5.21,0-1.1.92-1.91,3-1.91a5.88,5.88,0,0,1,3.41,1l.69-1.26a7.87,7.87,0,0,0-4.1-1.08c-2.94,0-4.57,1.41-4.57,3.3,0,4.58,7.5,2.21,7.5,5.22,0,1.14-.9,1.89-3.1,1.89a7,7,0,0,1-4.12-1.3l-.7,1.23A7.69,7.69,0,0,0,227.52,178.84Z" fill-rule="evenodd"/><path d="M246.9,167.07a5.06,5.06,0,0,0-4.47,2.38v-2.29h-1.49V183h1.56v-6.44a5.06,5.06,0,0,0,4.4,2.28,5.89,5.89,0,0,0,0-11.77Zm-.11,10.39A4.51,4.51,0,1,1,251.1,173,4.24,4.24,0,0,1,246.79,177.46Z" fill-rule="evenodd"/><path d="M257.35,169.43v-2.27h-1.5v11.57h1.57v-5.89c0-2.73,1.47-4.27,3.89-4.27l.37,0v-1.52C259.55,167.07,258.08,167.89,257.35,169.43Z" fill-rule="evenodd"/><path d="M269.12,178.84a5.89,5.89,0,1,0-5.9-5.89,5.68,5.68,0,0,0,5.9,5.89Zm0-1.38a4.52,4.52,0,1,1,4.29-4.51A4.24,4.24,0,0,1,269.12,177.46Z" fill-rule="evenodd"/><path d="M284.15,167.07a5,5,0,0,0-4.47,2.38v-2.29h-1.5V183h1.57v-6.44a5,5,0,0,0,4.4,2.28,5.89,5.89,0,0,0,0-11.77ZM284,177.46a4.51,4.51,0,1,1,4.31-4.51A4.24,4.24,0,0,1,284,177.46Z" fill-rule="evenodd"/><path d="M293.89,164.63a1.12,1.12,0,0,0,1.15-1.14,1.11,1.11,0,0,0-1.15-1.08,1.11,1.11,0,1,0,0,2.22Zm-.79,14.1h1.56V167.16H293.1Z" fill-rule="evenodd"/><path d="M309.12,173a5.52,5.52,0,0,0-5.61-5.88,5.58,5.58,0,0,0-5.66,5.88,6.12,6.12,0,0,0,10.54,4l-.88-1a4.56,4.56,0,0,1-3.54,1.52,4.29,4.29,0,0,1-4.56-4h9.68c0-.17,0-.35,0-.48Zm-5.61-4.53a4,4,0,0,1,4.11,3.85h-8.21A4,4,0,0,1,303.51,168.42Z" fill-rule="evenodd"/><path d="M317.85,176.91a2.62,2.62,0,0,1-1.72.59,1.86,1.86,0,0,1-2-2.11v-6.91h3.52v-1.32h-3.52v-2.53h-1.56v2.53H310.5v1.32h2.07v7a3.06,3.06,0,0,0,3.39,3.36,3.72,3.72,0,0,0,2.44-.81Z" fill-rule="evenodd"/><path d="M325.29,167.07a7.34,7.34,0,0,0-4.71,1.57l.7,1.16a5.94,5.94,0,0,1,3.85-1.36c2.16,0,3.28,1.08,3.28,3.06v.7h-3.67c-3.33,0-4.47,1.5-4.47,3.28,0,2,1.61,3.36,4.22,3.36a4.35,4.35,0,0,0,4-1.91v1.8H330v-7.17c0-3-1.69-4.49-4.68-4.49Zm-.55,10.54c-1.85,0-2.93-.83-2.93-2.18,0-1.18.73-2.06,3-2.06h3.63v1.89A3.69,3.69,0,0,1,324.74,177.61Z" fill-rule="evenodd"/><path d="M335.71,169.43v-2.27h-1.49v11.57h1.56v-5.89c0-2.73,1.47-4.27,3.89-4.27l.38,0v-1.52C337.91,167.07,336.44,167.89,335.71,169.43Z" fill-rule="evenodd"/><path d="M343.66,164.63a1.11,1.11,0,1,0,0-2.22,1.11,1.11,0,1,0,0,2.22Zm-.8,14.1h1.57V167.16h-1.57Z" fill-rule="evenodd"/><path d="M353.51,178.84a5.89,5.89,0,1,0-5.89-5.89,5.69,5.69,0,0,0,5.89,5.89Zm0-1.38A4.52,4.52,0,1,1,357.8,173,4.24,4.24,0,0,1,353.51,177.46Z" fill-rule="evenodd"/><path d="M365.68,178.84c3,0,4.77-1.29,4.77-3.3,0-4.44-7.5-2.08-7.5-5.21,0-1.1.92-1.91,3-1.91a5.88,5.88,0,0,1,3.41,1l.69-1.26a7.87,7.87,0,0,0-4.1-1.08c-2.94,0-4.57,1.41-4.57,3.3,0,4.58,7.5,2.21,7.5,5.22,0,1.14-.9,1.89-3.1,1.89a7,7,0,0,1-4.12-1.3l-.7,1.23A7.69,7.69,0,0,0,365.68,178.84Z" fill-rule="evenodd"/><path d="M373.49,178.84a1.2,1.2,0,0,0,1.19-1.21,1.18,1.18,0,0,0-1.19-1.18,1.16,1.16,0,0,0-1.17,1.18A1.18,1.18,0,0,0,373.49,178.84Z" fill-rule="evenodd"/><path d="M58.46,193.67H52.7v15.4h1.62v-4.86h4.14c3.92,0,6.29-2,6.29-5.26s-2.37-5.28-6.29-5.28Zm0,9.11h-4.1v-7.7h4.1c3.08,0,4.7,1.41,4.7,3.87S61.5,202.78,58.42,202.78Z" fill-rule="evenodd"/><path d="M72.61,209.18a5.89,5.89,0,1,0-5.9-5.89,5.69,5.69,0,0,0,5.9,5.89Zm0-1.38a4.52,4.52,0,1,1,4.29-4.51A4.24,4.24,0,0,1,72.61,207.8Z" fill-rule="evenodd"/><path d="M90.67,192.75v6.95a5,5,0,0,0-4.4-2.29,5.89,5.89,0,0,0,0,11.77,5,5,0,0,0,4.46-2.4v2.29h1.5V192.75ZM86.4,207.8a4.52,4.52,0,1,1,4.29-4.51A4.24,4.24,0,0,1,86.4,207.8Z" fill-rule="evenodd"/><path d="M98.08,199.77V197.5H96.59v11.57h1.56v-5.89c0-2.73,1.47-4.27,3.89-4.27l.38,0v-1.52C100.28,197.41,98.81,198.23,98.08,199.77Z" fill-rule="evenodd"/><path d="M113,193h-2.09l-3,2.73h1.54L113,193Zm-3.72,4.42a7.35,7.35,0,0,0-4.71,1.56l.7,1.17a5.89,5.89,0,0,1,3.85-1.36c2.16,0,3.28,1.07,3.28,3.05v.71h-3.67c-3.32,0-4.47,1.49-4.47,3.28,0,2,1.61,3.36,4.23,3.36a4.35,4.35,0,0,0,4-1.91v1.8h1.49V201.9c0-3-1.69-4.49-4.68-4.49ZM108.71,208c-1.85,0-2.93-.84-2.93-2.18,0-1.19.73-2.07,3-2.07h3.63v1.9A3.7,3.7,0,0,1,108.71,208Z" fill-rule="evenodd"/><path d="M121.29,209.18c3,0,4.78-1.3,4.78-3.3,0-4.44-7.51-2.08-7.51-5.21,0-1.1.93-1.92,3-1.92a6,6,0,0,1,3.41,1l.68-1.25a7.86,7.86,0,0,0-4.09-1.08c-3,0-4.58,1.41-4.58,3.3,0,4.58,7.5,2.21,7.5,5.22,0,1.14-.9,1.89-3.1,1.89a6.94,6.94,0,0,1-4.11-1.3l-.71,1.23A7.72,7.72,0,0,0,121.29,209.18Z" fill-rule="evenodd"/><polygon points="142.9 197.5 138.52 207.35 134.18 197.5 132.56 197.5 137.68 209.07 139.29 209.07 144.44 197.5 142.9 197.5" fill-rule="evenodd"/><path d="M150.33,197.41a7.37,7.37,0,0,0-4.71,1.56l.71,1.17a5.85,5.85,0,0,1,3.85-1.36c2.15,0,3.28,1.07,3.28,3.05v.71h-3.68c-3.32,0-4.46,1.49-4.46,3.28,0,2,1.6,3.36,4.22,3.36a4.34,4.34,0,0,0,4-1.91v1.8H155V201.9c0-3-1.7-4.49-4.69-4.49ZM149.78,208c-1.85,0-2.92-.84-2.92-2.18,0-1.19.72-2.07,3-2.07h3.63v1.9A3.72,3.72,0,0,1,149.78,208Z" fill-rule="evenodd"/><rect x="159.26" y="192.75" width="1.56" height="16.32"/><path d="M169.91,209.18a5.89,5.89,0,1,0-5.89-5.89,5.69,5.69,0,0,0,5.89,5.89Zm0-1.38a4.52,4.52,0,1,1,4.29-4.51A4.24,4.24,0,0,1,169.91,207.8Z" fill-rule="evenodd"/><path d="M180.47,199.77V197.5H179v11.57h1.56v-5.89c0-2.73,1.47-4.27,3.89-4.27l.38,0v-1.52C182.67,197.41,181.2,198.23,180.47,199.77Z" fill-rule="evenodd"/><path d="M191.65,197.41a7.35,7.35,0,0,0-4.71,1.56l.7,1.17a5.89,5.89,0,0,1,3.85-1.36c2.16,0,3.28,1.07,3.28,3.05v.71H191.1c-3.32,0-4.47,1.49-4.47,3.28,0,2,1.61,3.36,4.23,3.36a4.35,4.35,0,0,0,4-1.91v1.8h1.49V201.9c0-3-1.69-4.49-4.68-4.49ZM191.1,208c-1.85,0-2.93-.84-2.93-2.18,0-1.19.73-2.07,3-2.07h3.63v1.9A3.7,3.7,0,0,1,191.1,208Z" fill-rule="evenodd"/><path d="M202.08,199.77V197.5h-1.5v11.57h1.56v-5.89c0-2.73,1.48-4.27,3.9-4.27l.37,0v-1.52C204.28,197.41,202.8,198.23,202.08,199.77Z" fill-rule="evenodd"/><path d="M225.26,203.29a5.51,5.51,0,0,0-5.61-5.88,5.57,5.57,0,0,0-5.65,5.88,6.12,6.12,0,0,0,10.54,4l-.88-1a4.58,4.58,0,0,1-3.54,1.52,4.29,4.29,0,0,1-4.56-4h9.68c0-.18,0-.35,0-.48Zm-5.61-4.54a4,4,0,0,1,4.12,3.85h-8.21A4,4,0,0,1,219.65,198.75Z" fill-rule="evenodd"/><rect x="228.45" y="192.75" width="1.56" height="16.32"/><path d="M245.68,207.25a2.62,2.62,0,0,1-1.72.59,1.86,1.86,0,0,1-2-2.11v-6.91h3.52V197.5H242V195H240.4v2.53h-2.07v1.32h2.07v7a3.06,3.06,0,0,0,3.39,3.36,3.72,3.72,0,0,0,2.44-.81Z" fill-rule="evenodd"/><path d="M250.56,199.77V197.5h-1.49v11.57h1.56v-5.89c0-2.73,1.47-4.27,3.89-4.27l.38,0v-1.52C252.76,197.41,251.29,198.23,250.56,199.77Z" fill-rule="evenodd"/><path d="M261.74,197.41A7.35,7.35,0,0,0,257,199l.71,1.17a5.85,5.85,0,0,1,3.85-1.36c2.15,0,3.27,1.07,3.27,3.05v.71h-3.67c-3.32,0-4.47,1.49-4.47,3.28,0,2,1.61,3.36,4.23,3.36a4.34,4.34,0,0,0,4-1.91v1.8h1.5V201.9c0-3-1.7-4.49-4.69-4.49ZM261.19,208c-1.85,0-2.93-.84-2.93-2.18,0-1.19.73-2.07,3-2.07h3.63v1.9A3.7,3.7,0,0,1,261.19,208Z" fill-rule="evenodd"/><path d="M276.63,197.41a5.06,5.06,0,0,0-4.4,2.29v-6.95h-1.56v16.32h1.5v-2.29a5,5,0,0,0,4.46,2.4,5.89,5.89,0,0,0,0-11.77Zm-.11,10.39a4.51,4.51,0,1,1,4.32-4.51A4.24,4.24,0,0,1,276.52,207.8Z" fill-rule="evenodd"/><path d="M289.57,197.41a7.35,7.35,0,0,0-4.71,1.56l.71,1.17a5.85,5.85,0,0,1,3.85-1.36c2.15,0,3.27,1.07,3.27,3.05v.71H289c-3.32,0-4.47,1.49-4.47,3.28,0,2,1.61,3.36,4.23,3.36a4.34,4.34,0,0,0,4-1.91v1.8h1.5V201.9c0-3-1.7-4.49-4.69-4.49ZM289,208c-1.85,0-2.93-.84-2.93-2.18,0-1.19.73-2.07,3-2.07h3.63v1.9A3.7,3.7,0,0,1,289,208Z" fill-rule="evenodd"/><path d="M299.4,195a1.13,1.13,0,0,0,1.15-1.14,1.11,1.11,0,0,0-1.15-1.08,1.11,1.11,0,1,0,0,2.22Zm-2.61,18.48c2.2,0,3.38-1.39,3.38-3.52V197.5h-1.56v12.43c0,1.43-.68,2.18-1.91,2.18a2.71,2.71,0,0,1-1.81-.6l-.55,1.19A3.81,3.81,0,0,0,296.79,213.45Z" fill-rule="evenodd"/><path d="M309.26,209.18a5.89,5.89,0,1,0-5.9-5.89,5.68,5.68,0,0,0,5.9,5.89Zm0-1.38a4.52,4.52,0,1,1,4.29-4.51A4.24,4.24,0,0,1,309.26,207.8Z" fill-rule="evenodd"/><path d="M333.08,192.75v6.95a5,5,0,0,0-4.4-2.29,5.89,5.89,0,0,0,0,11.77,5,5,0,0,0,4.47-2.4v2.29h1.5V192.75Zm-4.26,15.05a4.52,4.52,0,1,1,4.29-4.51A4.24,4.24,0,0,1,328.82,207.8Z" fill-rule="evenodd"/><path d="M349.1,203.29a5.64,5.64,0,1,0-11.26,0,6.11,6.11,0,0,0,10.53,4l-.88-1A4.56,4.56,0,0,1,344,207.8a4.28,4.28,0,0,1-4.55-4h9.68c0-.18,0-.35,0-.48Zm-5.61-4.54a4,4,0,0,1,4.11,3.85h-8.2A4,4,0,0,1,343.49,198.75Z" fill-rule="evenodd"/><rect x="358.05" y="192.75" width="1.56" height="16.32"/><path d="M368.7,209.18a5.89,5.89,0,1,0-5.89-5.89,5.69,5.69,0,0,0,5.89,5.89Zm0-1.38a4.52,4.52,0,1,1,4.29-4.51A4.24,4.24,0,0,1,368.7,207.8Z" fill-rule="evenodd"/><path d="M380.87,209.18c3,0,4.77-1.3,4.77-3.3,0-4.44-7.5-2.08-7.5-5.21,0-1.1.92-1.92,3-1.92a6,6,0,0,1,3.41,1l.69-1.25a7.87,7.87,0,0,0-4.1-1.08c-2.94,0-4.57,1.41-4.57,3.3,0,4.58,7.5,2.21,7.5,5.22,0,1.14-.9,1.89-3.1,1.89a7,7,0,0,1-4.12-1.3l-.7,1.23A7.69,7.69,0,0,0,380.87,209.18Z" fill-rule="evenodd"/><path d="M40.76,225.31a1.13,1.13,0,0,0,1.15-1.15,1.15,1.15,0,0,0-2.29,0,1.13,1.13,0,0,0,1.14,1.12ZM40,239.41h1.56V227.84H40Z" fill-rule="evenodd"/><path d="M51.78,227.75a4.86,4.86,0,0,0-4.4,2.22v-2.13H45.89v11.57h1.56v-6.07c0-2.64,1.56-4.18,4-4.18,2.2,0,3.47,1.25,3.47,3.69v6.56h1.57V232.7C56.54,229.38,54.6,227.75,51.78,227.75Z" fill-rule="evenodd"/><path d="M75.21,227.75a5,5,0,0,0-4.57,2.44,4.16,4.16,0,0,0-4.12-2.44,4.66,4.66,0,0,0-4.24,2.2v-2.11h-1.5v11.57h1.56v-6.07c0-2.64,1.52-4.18,3.88-4.18,2.11,0,3.34,1.25,3.34,3.69v6.56h1.56v-6.07c0-2.64,1.5-4.18,3.87-4.18,2.09,0,3.33,1.25,3.33,3.69v6.56h1.56V232.7C79.88,229.38,78,227.75,75.21,227.75Z" fill-rule="evenodd"/><path d="M88.9,239.52a5.89,5.89,0,1,0-5.9-5.9,5.69,5.69,0,0,0,5.9,5.9Zm0-1.39a4.52,4.52,0,1,1,4.29-4.51A4.23,4.23,0,0,1,88.9,238.13Z" fill-rule="evenodd"/><path d="M103.92,227.75a5.06,5.06,0,0,0-4.4,2.29v-6.95H98v16.32h1.5v-2.29a5,5,0,0,0,4.46,2.4,5.89,5.89,0,0,0,0-11.77Zm-.11,10.38a4.51,4.51,0,1,1,4.32-4.51A4.24,4.24,0,0,1,103.81,238.13Z" fill-rule="evenodd"/><path d="M113.67,225.31a1.12,1.12,0,0,0,1.14-1.15,1.1,1.1,0,0,0-1.14-1.07,1.11,1.11,0,1,0,0,2.22Zm-.79,14.1h1.56V227.84h-1.56Z" fill-rule="evenodd"/><rect x="118.79" y="223.09" width="1.56" height="16.32"/><path d="M125.5,225.31a1.13,1.13,0,0,0,1.15-1.15,1.11,1.11,0,0,0-1.15-1.07,1.11,1.11,0,1,0,0,2.22Zm-.79,14.1h1.56V227.84h-1.56Z" fill-rule="evenodd"/><path d="M134.68,227.75a7.35,7.35,0,0,0-4.71,1.56l.7,1.17a5.9,5.9,0,0,1,3.85-1.37c2.16,0,3.28,1.08,3.28,3.06v.71h-3.67c-3.32,0-4.47,1.49-4.47,3.27,0,2,1.61,3.37,4.23,3.37a4.37,4.37,0,0,0,4-1.91v1.8h1.49v-7.17c0-3-1.69-4.49-4.68-4.49Zm-.55,10.54c-1.85,0-2.93-.84-2.93-2.18s.73-2.07,3-2.07h3.63v1.89A3.69,3.69,0,0,1,134.13,238.29Z" fill-rule="evenodd"/><path d="M145.11,230.1v-2.26h-1.5v11.57h1.56v-5.9c0-2.72,1.48-4.26,3.9-4.26l.37,0v-1.52C147.31,227.75,145.83,228.56,145.11,230.1Z" fill-rule="evenodd"/><path d="M153.05,225.31a1.12,1.12,0,0,0,1.14-1.15,1.1,1.1,0,0,0-1.14-1.07,1.11,1.11,0,1,0,0,2.22Zm-.79,14.1h1.56V227.84h-1.56Z" fill-rule="evenodd"/><path d="M162.9,239.52a5.89,5.89,0,1,0-5.89-5.9,5.69,5.69,0,0,0,5.89,5.9Zm0-1.39a4.52,4.52,0,1,1,4.29-4.51A4.24,4.24,0,0,1,162.9,238.13Z" fill-rule="evenodd"/><path d="M175.07,239.52c3,0,4.77-1.3,4.77-3.3,0-4.44-7.5-2.09-7.5-5.21,0-1.1.93-1.92,3-1.92a6,6,0,0,1,3.41,1l.68-1.25a7.86,7.86,0,0,0-4.09-1.08c-3,0-4.58,1.41-4.58,3.3,0,4.58,7.5,2.2,7.5,5.21,0,1.15-.9,1.9-3.1,1.9a7,7,0,0,1-4.11-1.3l-.71,1.23A7.78,7.78,0,0,0,175.07,239.52Z" fill-rule="evenodd"/><path d="M193.29,239.52a5.11,5.11,0,0,0,4.53-2.29l-1.17-.79a3.89,3.89,0,0,1-3.36,1.69,4.51,4.51,0,0,1,0-9,3.92,3.92,0,0,1,3.36,1.72l1.17-.79a5.06,5.06,0,0,0-4.53-2.29,5.89,5.89,0,1,0,0,11.77Z" fill-rule="evenodd"/><path d="M205.41,239.52a5.89,5.89,0,1,0-5.9-5.9,5.69,5.69,0,0,0,5.9,5.9Zm0-1.39a4.52,4.52,0,1,1,4.29-4.51A4.23,4.23,0,0,1,205.41,238.13Z" fill-rule="evenodd"/><path d="M220.37,227.75A4.85,4.85,0,0,0,216,230v-2.13h-1.5v11.57H216v-6.07c0-2.64,1.57-4.18,4.05-4.18,2.2,0,3.48,1.25,3.48,3.69v6.56h1.56V232.7C225.12,229.38,223.18,227.75,220.37,227.75Z" fill-rule="evenodd"/><rect x="235.13" y="223.09" width="1.56" height="16.32"/><path d="M245.78,239.52a5.89,5.89,0,1,0-5.9-5.9,5.69,5.69,0,0,0,5.9,5.9Zm0-1.39a4.52,4.52,0,1,1,4.29-4.51A4.23,4.23,0,0,1,245.78,238.13Z" fill-rule="evenodd"/><path d="M257.94,239.52c3,0,4.78-1.3,4.78-3.3,0-4.44-7.5-2.09-7.5-5.21,0-1.1.92-1.92,3-1.92a6,6,0,0,1,3.41,1l.68-1.25a7.83,7.83,0,0,0-4.09-1.08c-3,0-4.58,1.41-4.58,3.3,0,4.58,7.51,2.2,7.51,5.21,0,1.15-.91,1.9-3.11,1.9a7,7,0,0,1-4.11-1.3l-.7,1.23A7.73,7.73,0,0,0,257.94,239.52Z" fill-rule="evenodd"/><path d="M280.43,227.84v2.29a5,5,0,0,0-4.47-2.38,5.89,5.89,0,0,0,0,11.77,5,5,0,0,0,4.4-2.29v6.45h1.56V227.84Zm-4.34,10.29a4.52,4.52,0,1,1,4.29-4.51A4.24,4.24,0,0,1,276.09,238.13Z" fill-rule="evenodd"/><path d="M295.15,227.84v6.07c0,2.64-1.52,4.2-3.94,4.2-2.2,0-3.48-1.25-3.48-3.72v-6.55h-1.56v6.71c0,3.32,1.94,5,4.88,5a4.59,4.59,0,0,0,4.16-2.22v2.11h1.5V227.84Z" fill-rule="evenodd"/><path d="M311.18,233.62a5.51,5.51,0,0,0-5.61-5.87,5.57,5.57,0,0,0-5.65,5.87,6.12,6.12,0,0,0,10.54,4l-.88-1a4.57,4.57,0,0,1-3.54,1.51,4.29,4.29,0,0,1-4.56-4h9.68c0-.18,0-.35,0-.49Zm-5.61-4.53a4,4,0,0,1,4.12,3.85h-8.21A4,4,0,0,1,305.57,229.09Z" fill-rule="evenodd"/><path d="M325.68,237.58a2.57,2.57,0,0,1-1.71.6,1.86,1.86,0,0,1-2-2.11v-6.91h3.52v-1.32H322v-2.53H320.4v2.53h-2.07v1.32h2.07v7a3.07,3.07,0,0,0,3.39,3.37,3.7,3.7,0,0,0,2.44-.81Z" fill-rule="evenodd"/><path d="M330.57,230.1v-2.26h-1.5v11.57h1.56v-5.9c0-2.72,1.48-4.26,3.9-4.26l.37,0v-1.52C332.77,227.75,331.29,228.56,330.57,230.1Z" fill-rule="evenodd"/><path d="M341.74,227.75a7.37,7.37,0,0,0-4.71,1.56l.71,1.17a5.86,5.86,0,0,1,3.85-1.37c2.15,0,3.28,1.08,3.28,3.06v.71h-3.68c-3.32,0-4.46,1.49-4.46,3.27,0,2,1.6,3.37,4.22,3.37a4.36,4.36,0,0,0,4-1.91v1.8h1.5v-7.17c0-3-1.7-4.49-4.69-4.49Zm-.55,10.54c-1.85,0-2.92-.84-2.92-2.18s.72-2.07,3-2.07h3.63v1.89A3.72,3.72,0,0,1,341.19,238.29Z" fill-rule="evenodd"/><path d="M356.22,237.58a2.58,2.58,0,0,1-1.72.6,1.85,1.85,0,0,1-2-2.11v-6.91H356v-1.32H352.5v-2.53h-1.56v2.53h-2.07v1.32h2.07v7a3.07,3.07,0,0,0,3.39,3.37,3.72,3.72,0,0,0,2.44-.81Z" fill-rule="evenodd"/><path d="M369.29,233.62a5.52,5.52,0,0,0-5.61-5.87,5.57,5.57,0,0,0-5.66,5.87,6.12,6.12,0,0,0,10.54,4l-.88-1a4.55,4.55,0,0,1-3.54,1.51,4.29,4.29,0,0,1-4.56-4h9.68c0-.18,0-.35,0-.49Zm-5.61-4.53a4,4,0,0,1,4.11,3.85h-8.21A4,4,0,0,1,363.68,229.09Z" fill-rule="evenodd"/><path d="M375.58,239.52c3,0,4.77-1.3,4.77-3.3,0-4.44-7.5-2.09-7.5-5.21,0-1.1.92-1.92,3-1.92a6,6,0,0,1,3.41,1l.69-1.25a7.87,7.87,0,0,0-4.1-1.08c-2.94,0-4.57,1.41-4.57,3.3,0,4.58,7.5,2.2,7.5,5.21,0,1.15-.9,1.9-3.1,1.9a7.06,7.06,0,0,1-4.12-1.3l-.7,1.23A7.76,7.76,0,0,0,375.58,239.52Z" fill-rule="evenodd"/><path d="M397.18,227.84l-4.35,9.83-4.36-9.83h-1.63L392,239.39l-.5,1.12c-.66,1.45-1.37,1.94-2.4,1.94a2.88,2.88,0,0,1-2.11-.88l-.73,1.16a3.94,3.94,0,0,0,2.82,1.06c1.65,0,2.88-.73,3.85-3l5.78-13Z" fill-rule="evenodd"/><path d="M75.77,264a5.51,5.51,0,0,0-5.61-5.87A5.57,5.57,0,0,0,64.51,264a6.12,6.12,0,0,0,10.54,4l-.88-1a4.54,4.54,0,0,1-3.54,1.52,4.29,4.29,0,0,1-4.56-4h9.68c0-.18,0-.36,0-.49Zm-5.61-4.53a4,4,0,0,1,4.12,3.85H66.07A4,4,0,0,1,70.16,259.43Z" fill-rule="evenodd"/><path d="M84.86,258.09a4.86,4.86,0,0,0-4.4,2.22v-2.13H79v11.57h1.57v-6.07c0-2.64,1.56-4.18,4-4.18,2.2,0,3.48,1.25,3.48,3.69v6.56h1.56V263C89.61,259.72,87.68,258.09,84.86,258.09Z" fill-rule="evenodd"/><path d="M99.4,267.92a2.57,2.57,0,0,1-1.71.6,1.86,1.86,0,0,1-2-2.12v-6.9H99.2v-1.32H95.68v-2.53H94.12v2.53H92.05v1.32h2.07v7a3.07,3.07,0,0,0,3.39,3.37A3.71,3.71,0,0,0,100,269Z" fill-rule="evenodd"/><path d="M104.29,260.44v-2.26h-1.5v11.57h1.56v-5.9c0-2.73,1.48-4.27,3.9-4.27.11,0,.24,0,.37,0v-1.52C106.49,258.09,105,258.9,104.29,260.44Z" fill-rule="evenodd"/><path d="M121.42,264a5.51,5.51,0,0,0-5.61-5.87,5.57,5.57,0,0,0-5.65,5.87,6.12,6.12,0,0,0,10.54,4l-.88-1a4.54,4.54,0,0,1-3.54,1.52,4.29,4.29,0,0,1-4.56-4h9.68c0-.18,0-.36,0-.49Zm-5.61-4.53a4,4,0,0,1,4.12,3.85h-8.21A4,4,0,0,1,115.81,259.43Z" fill-rule="evenodd"/><path d="M135.92,267.92a2.57,2.57,0,0,1-1.71.6,1.86,1.86,0,0,1-2-2.12v-6.9h3.52v-1.32H132.2v-2.53h-1.56v2.53h-2.07v1.32h2.07v7a3.07,3.07,0,0,0,3.39,3.37,3.71,3.71,0,0,0,2.44-.82Z" fill-rule="evenodd"/><path d="M143.62,269.86a5.89,5.89,0,1,0-5.89-5.9,5.7,5.7,0,0,0,5.89,5.9Zm0-1.39a4.52,4.52,0,1,1,4.29-4.51A4.24,4.24,0,0,1,143.62,268.47Z" fill-rule="evenodd"/><path d="M161.68,253.42v7a5,5,0,0,0-4.4-2.29,5.89,5.89,0,0,0,0,11.77,5,5,0,0,0,4.47-2.4v2.29h1.5V253.42Zm-4.26,15.05a4.52,4.52,0,1,1,4.29-4.51A4.24,4.24,0,0,1,157.42,268.47Z" fill-rule="evenodd"/><path d="M171.65,258.09a7.35,7.35,0,0,0-4.71,1.56l.71,1.17a5.86,5.86,0,0,1,3.85-1.37c2.15,0,3.27,1.08,3.27,3.06v.7H171.1c-3.32,0-4.47,1.5-4.47,3.28,0,2,1.61,3.37,4.23,3.37a4.34,4.34,0,0,0,4-1.92v1.81h1.5v-7.17c0-3-1.7-4.49-4.69-4.49Zm-.55,10.54c-1.85,0-2.93-.84-2.93-2.18,0-1.19.73-2.07,3-2.07h3.63v1.89A3.69,3.69,0,0,1,171.1,268.63Z" fill-rule="evenodd"/><path d="M183.68,269.86c3,0,4.78-1.3,4.78-3.3,0-4.44-7.5-2.09-7.5-5.22,0-1.1.92-1.91,3-1.91a6,6,0,0,1,3.41,1l.68-1.25a7.83,7.83,0,0,0-4.09-1.08c-2.95,0-4.58,1.41-4.58,3.3,0,4.57,7.51,2.2,7.51,5.21,0,1.15-.91,1.89-3.11,1.89a7,7,0,0,1-4.11-1.29l-.7,1.23A7.73,7.73,0,0,0,183.68,269.86Z" fill-rule="evenodd"/><rect x="197.1" y="253.42" width="1.56" height="16.32"/><path d="M207.07,258.09a7.35,7.35,0,0,0-4.71,1.56l.71,1.17a5.86,5.86,0,0,1,3.85-1.37c2.15,0,3.27,1.08,3.27,3.06v.7h-3.67c-3.32,0-4.47,1.5-4.47,3.28,0,2,1.61,3.37,4.23,3.37a4.34,4.34,0,0,0,4-1.92v1.81h1.5v-7.17c0-3-1.7-4.49-4.69-4.49Zm-.55,10.54c-1.85,0-2.93-.84-2.93-2.18,0-1.19.73-2.07,3-2.07h3.63v1.89A3.69,3.69,0,0,1,206.52,268.63Z" fill-rule="evenodd"/><path d="M219.1,269.86c3,0,4.78-1.3,4.78-3.3,0-4.44-7.5-2.09-7.5-5.22,0-1.1.92-1.91,3-1.91a6,6,0,0,1,3.41,1l.68-1.25a7.86,7.86,0,0,0-4.09-1.08c-2.95,0-4.58,1.41-4.58,3.3,0,4.57,7.51,2.2,7.51,5.21,0,1.15-.91,1.89-3.11,1.89a7,7,0,0,1-4.11-1.29l-.7,1.23A7.73,7.73,0,0,0,219.1,269.86Z" fill-rule="evenodd"/><path d="M237.25,269.86a5.89,5.89,0,1,0-5.89-5.9,5.7,5.7,0,0,0,5.89,5.9Zm0-1.39a4.52,4.52,0,1,1,4.29-4.51A4.24,4.24,0,0,1,237.25,268.47Z" fill-rule="evenodd"/><path d="M252.28,258.09a5,5,0,0,0-4.47,2.37v-2.28h-1.49V274h1.56v-6.45a5,5,0,0,0,4.4,2.29,5.89,5.89,0,0,0,0-11.77Zm-.11,10.38a4.51,4.51,0,1,1,4.31-4.51A4.24,4.24,0,0,1,252.17,268.47Z" fill-rule="evenodd"/><path d="M262,255.65a1.13,1.13,0,0,0,1.15-1.15,1.12,1.12,0,0,0-1.15-1.08,1.12,1.12,0,1,0,0,2.23Zm-.79,14.1h1.56V258.18h-1.56Z" fill-rule="evenodd"/><path d="M273.05,258.09a4.84,4.84,0,0,0-4.4,2.22v-2.13h-1.5v11.57h1.56v-6.07c0-2.64,1.56-4.18,4.05-4.18,2.2,0,3.48,1.25,3.48,3.69v6.56h1.56V263C277.8,259.72,275.86,258.09,273.05,258.09Z" fill-rule="evenodd"/><path d="M282.84,255.65a1.12,1.12,0,1,0-1.15-1.13,1.14,1.14,0,0,0,1.15,1.13Zm-.8,14.1h1.57V258.18H282Z" fill-rule="evenodd"/><path d="M292.69,269.86a5.89,5.89,0,1,0-5.89-5.9,5.7,5.7,0,0,0,5.89,5.9Zm0-1.39A4.52,4.52,0,1,1,297,264,4.24,4.24,0,0,1,292.69,268.47Z" fill-rule="evenodd"/><path d="M307.65,258.09a4.86,4.86,0,0,0-4.4,2.22v-2.13h-1.49v11.57h1.56v-6.07c0-2.64,1.56-4.18,4.05-4.18,2.2,0,3.47,1.25,3.47,3.69v6.56h1.56V263C312.4,259.72,310.47,258.09,307.65,258.09Z" fill-rule="evenodd"/><path d="M326.79,264a5.51,5.51,0,0,0-5.61-5.87,5.57,5.57,0,0,0-5.65,5.87,6.12,6.12,0,0,0,10.54,4l-.88-1a4.55,4.55,0,0,1-3.55,1.52,4.28,4.28,0,0,1-4.55-4h9.68c0-.18,0-.36,0-.49Zm-5.61-4.53a4,4,0,0,1,4.12,3.85h-8.21A4,4,0,0,1,321.18,259.43Z" fill-rule="evenodd"/><path d="M333.08,269.86c3,0,4.78-1.3,4.78-3.3,0-4.44-7.5-2.09-7.5-5.22,0-1.1.92-1.91,3-1.91a6,6,0,0,1,3.41,1l.68-1.25a7.83,7.83,0,0,0-4.09-1.08c-2.95,0-4.58,1.41-4.58,3.3,0,4.57,7.51,2.2,7.51,5.21,0,1.15-.91,1.89-3.11,1.89a7,7,0,0,1-4.11-1.29l-.7,1.23A7.73,7.73,0,0,0,333.08,269.86Z" fill-rule="evenodd"/><path d="M340.92,267.46a1.16,1.16,0,0,0-1.17,1.19,1.11,1.11,0,0,0,.79,1.12l-.75,3.19h1.06l.92-3a3.57,3.57,0,0,0,.31-1.27A1.15,1.15,0,0,0,340.92,267.46Z" fill-rule="evenodd"/><path d="M354.27,269.86c3,0,4.77-1.3,4.77-3.3,0-4.44-7.5-2.09-7.5-5.22,0-1.1.93-1.91,3-1.91a6,6,0,0,1,3.41,1l.68-1.25a7.86,7.86,0,0,0-4.09-1.08c-2.95,0-4.58,1.41-4.58,3.3,0,4.57,7.5,2.2,7.5,5.21,0,1.15-.9,1.89-3.1,1.89a7,7,0,0,1-4.11-1.29l-.71,1.23A7.78,7.78,0,0,0,354.27,269.86Z" fill-rule="evenodd"/><path d="M372,264a5.51,5.51,0,0,0-5.61-5.87,5.57,5.57,0,0,0-5.65,5.87,6.12,6.12,0,0,0,10.54,4l-.88-1a4.54,4.54,0,0,1-3.54,1.52,4.29,4.29,0,0,1-4.56-4H372c0-.18,0-.36,0-.49Zm-5.61-4.53a4,4,0,0,1,4.12,3.85h-8.21A4,4,0,0,1,366.41,259.43Z" fill-rule="evenodd"/><path d="M54.94,288.51v2.23a5.22,5.22,0,0,0-4.58-2.31,5.61,5.61,0,1,0,0,11.22,5.18,5.18,0,0,0,4.51-2.25v1.48c0,2.86-1.34,4.2-4.26,4.2a6.89,6.89,0,0,1-4.56-1.59l-.79,1.19a8,8,0,0,0,5.39,1.78c3.83,0,5.79-1.8,5.79-5.78V288.51Zm-4.42,9.75a4.24,4.24,0,1,1,4.4-4.25A4.14,4.14,0,0,1,50.52,298.26Z" fill-rule="evenodd"/><path d="M70.91,294.3a5.51,5.51,0,0,0-5.61-5.87,5.57,5.57,0,0,0-5.65,5.87,6.11,6.11,0,0,0,10.54,4l-.88-1a4.58,4.58,0,0,1-3.55,1.52,4.29,4.29,0,0,1-4.55-4h9.68c0-.17,0-.35,0-.48Zm-5.61-4.53a4,4,0,0,1,4.12,3.85H61.21A4,4,0,0,1,65.3,289.77Z" fill-rule="evenodd"/><path d="M80,288.43a4.85,4.85,0,0,0-4.4,2.22v-2.14H74.1v11.58h1.56V294c0-2.64,1.57-4.18,4-4.18,2.2,0,3.48,1.26,3.48,3.7v6.56h1.56v-6.71C84.75,290.05,82.81,288.43,80,288.43Z" fill-rule="evenodd"/><path d="M99.14,294.3a5.51,5.51,0,0,0-5.61-5.87,5.57,5.57,0,0,0-5.66,5.87A5.74,5.74,0,0,0,94,300.2a5.67,5.67,0,0,0,4.46-1.9l-.88-1A4.56,4.56,0,0,1,94,298.81a4.28,4.28,0,0,1-4.55-4h9.68c0-.17,0-.35,0-.48Zm-5.61-4.53a4,4,0,0,1,4.11,3.85h-8.2A4,4,0,0,1,93.53,289.77Z" fill-rule="evenodd"/><path d="M103.82,290.78v-2.27h-1.49v11.58h1.56v-5.9c0-2.73,1.47-4.27,3.89-4.27l.38,0v-1.51C106,288.43,104.55,289.24,103.82,290.78Z" fill-rule="evenodd"/><path d="M115,288.43a7.35,7.35,0,0,0-4.71,1.56l.71,1.16a5.9,5.9,0,0,1,3.85-1.36c2.15,0,3.27,1.08,3.27,3.06v.7h-3.67c-3.32,0-4.47,1.5-4.47,3.28,0,2,1.61,3.37,4.23,3.37a4.34,4.34,0,0,0,4-1.92v1.81h1.5v-7.18c0-3-1.7-4.48-4.69-4.48ZM114.45,299c-1.85,0-2.93-.83-2.93-2.17s.73-2.07,3-2.07h3.63v1.89A3.69,3.69,0,0,1,114.45,299Z" fill-rule="evenodd"/><path d="M125.43,290.78v-2.27h-1.5v11.58h1.56v-5.9c0-2.73,1.48-4.27,3.9-4.27l.37,0v-1.51C127.63,288.43,126.15,289.24,125.43,290.78Z" fill-rule="evenodd"/><path d="M140.32,284h-2.09l-3,2.73h1.54l3.56-2.73Zm-3.72,4.43a7.32,7.32,0,0,0-4.7,1.56l.7,1.16a5.92,5.92,0,0,1,3.85-1.36c2.16,0,3.28,1.08,3.28,3.06v.7h-3.68c-3.32,0-4.46,1.5-4.46,3.28,0,2,1.6,3.37,4.22,3.37a4.33,4.33,0,0,0,4-1.92v1.81h1.5v-7.18c0-3-1.69-4.48-4.69-4.48ZM136.05,299c-1.84,0-2.92-.83-2.92-2.17s.72-2.07,3-2.07h3.63v1.89A3.71,3.71,0,0,1,136.05,299Z" fill-rule="evenodd"/><path d="M160.17,288.51v6.08c0,2.64-1.52,4.2-3.94,4.2-2.2,0-3.48-1.26-3.48-3.72v-6.56h-1.56v6.71c0,3.33,1.94,5,4.88,5a4.6,4.6,0,0,0,4.16-2.23v2.12h1.5V288.51Z" fill-rule="evenodd"/><path d="M172,288.43a4.86,4.86,0,0,0-4.4,2.22v-2.14h-1.49v11.58h1.56V294c0-2.64,1.56-4.18,4.05-4.18,2.2,0,3.47,1.26,3.47,3.7v6.56h1.56v-6.71C176.75,290.05,174.82,288.43,172,288.43Z" fill-rule="evenodd"/><path d="M185.05,288.43a7.35,7.35,0,0,0-4.71,1.56l.7,1.16a5.94,5.94,0,0,1,3.85-1.36c2.16,0,3.28,1.08,3.28,3.06v.7H184.5c-3.32,0-4.47,1.5-4.47,3.28,0,2,1.61,3.37,4.23,3.37a4.35,4.35,0,0,0,4-1.92v1.81h1.49v-7.18c0-3-1.69-4.48-4.68-4.48ZM184.5,299c-1.85,0-2.93-.83-2.93-2.17s.73-2.07,3-2.07h3.63v1.89A3.69,3.69,0,0,1,184.5,299Z" fill-rule="evenodd"/><path d="M205.71,288.43a5,5,0,0,0-4.47,2.37v-2.29h-1.5v15.84h1.57v-6.44a5.06,5.06,0,0,0,4.4,2.29,5.89,5.89,0,0,0,0-11.77Zm-.11,10.38a4.51,4.51,0,1,1,4.31-4.51A4.24,4.24,0,0,1,205.6,298.81Z" fill-rule="evenodd"/><path d="M223.53,288.51v6.08c0,2.64-1.52,4.2-3.94,4.2-2.2,0-3.48-1.26-3.48-3.72v-6.56h-1.56v6.71c0,3.33,1.94,5,4.88,5a4.6,4.6,0,0,0,4.16-2.23v2.12h1.5V288.51Z" fill-rule="evenodd"/><path d="M235.36,288.43a4.86,4.86,0,0,0-4.4,2.22v-2.14h-1.5v11.58H231V294c0-2.64,1.56-4.18,4-4.18,2.2,0,3.48,1.26,3.48,3.7v6.56h1.56v-6.71C240.11,290.05,238.18,288.43,235.36,288.43Z" fill-rule="evenodd"/><path d="M249.9,298.26a2.54,2.54,0,0,1-1.71.59,1.85,1.85,0,0,1-2-2.11v-6.91h3.52v-1.32h-3.52V286h-1.57v2.53h-2.07v1.32h2.07v7A3.07,3.07,0,0,0,248,300.2a3.71,3.71,0,0,0,2.44-.82Z" fill-rule="evenodd"/><path d="M262.16,288.51v6.08c0,2.64-1.52,4.2-3.94,4.2-2.2,0-3.48-1.26-3.48-3.72v-6.56h-1.56v6.71c0,3.33,1.94,5,4.89,5a4.6,4.6,0,0,0,4.15-2.23v2.12h1.5V288.51Z" fill-rule="evenodd"/><path d="M272.14,288.43a7.32,7.32,0,0,0-4.7,1.56l.7,1.16a5.92,5.92,0,0,1,3.85-1.36c2.16,0,3.28,1.08,3.28,3.06v.7H271.6c-3.33,0-4.47,1.5-4.47,3.28,0,2,1.6,3.37,4.22,3.37a4.36,4.36,0,0,0,4-1.92v1.81h1.49v-7.18c0-3-1.69-4.48-4.69-4.48ZM271.6,299c-1.85,0-2.93-.83-2.93-2.17s.73-2.07,3-2.07h3.63v1.89A3.69,3.69,0,0,1,271.6,299Z" fill-rule="evenodd"/><path d="M285.92,300.2a5.12,5.12,0,0,0,4.53-2.29l-1.17-.79a3.91,3.91,0,0,1-3.36,1.69,4.51,4.51,0,0,1,0-9,3.92,3.92,0,0,1,3.36,1.72l1.17-.8a5.07,5.07,0,0,0-4.53-2.28,5.89,5.89,0,1,0,0,11.77Z" fill-rule="evenodd"/><path d="M294.3,286a1.11,1.11,0,1,0-1.14-1.12A1.11,1.11,0,0,0,294.3,286Zm-.79,14.11h1.56V288.51h-1.56Z" fill-rule="evenodd"/><path d="M302.7,286.73h1.54l3.57-2.73h-2.09l-3,2.73Zm1.45,13.47a5.89,5.89,0,1,0-5.89-5.9,5.7,5.7,0,0,0,5.89,5.9Zm0-1.39a4.52,4.52,0,1,1,4.29-4.51A4.24,4.24,0,0,1,304.15,298.81Z" fill-rule="evenodd"/><path d="M319.11,288.43a4.86,4.86,0,0,0-4.4,2.22v-2.14h-1.49v11.58h1.56V294c0-2.64,1.56-4.18,4.05-4.18,2.2,0,3.47,1.26,3.47,3.7v6.56h1.57v-6.71C323.87,290.05,321.93,288.43,319.11,288.43Z" fill-rule="evenodd"/><path d="M337,300.2c3,0,4.77-1.3,4.77-3.3,0-4.44-7.5-2.09-7.5-5.22,0-1.1.93-1.91,3-1.91a5.87,5.87,0,0,1,3.4,1l.69-1.26a7.85,7.85,0,0,0-4.09-1.07c-2.95,0-4.58,1.4-4.58,3.3,0,4.57,7.5,2.2,7.5,5.21,0,1.14-.9,1.89-3.1,1.89a7,7,0,0,1-4.12-1.3l-.7,1.24A7.76,7.76,0,0,0,337,300.2Z" fill-rule="evenodd"/><path d="M349.36,300.2a5.89,5.89,0,1,0-5.89-5.9,5.7,5.7,0,0,0,5.89,5.9Zm0-1.39a4.52,4.52,0,1,1,4.29-4.51A4.24,4.24,0,0,1,349.36,298.81Z" fill-rule="evenodd"/><path d="M364.39,288.43a5.06,5.06,0,0,0-4.4,2.28v-6.95h-1.56v16.33h1.49V297.8a5,5,0,0,0,4.47,2.4,5.89,5.89,0,0,0,0-11.77Zm-.11,10.38a4.51,4.51,0,1,1,4.31-4.51A4.24,4.24,0,0,1,364.28,298.81Z" fill-rule="evenodd"/><path d="M374.84,290.78v-2.27h-1.5v11.58h1.57v-5.9c0-2.73,1.47-4.27,3.89-4.27l.37,0v-1.51C377,288.43,375.57,289.24,374.84,290.78Z" fill-rule="evenodd"/><path d="M392,294.3a5.51,5.51,0,0,0-5.61-5.87,5.57,5.57,0,0,0-5.66,5.87,5.74,5.74,0,0,0,6.08,5.9,5.67,5.67,0,0,0,4.46-1.9l-.88-1a4.56,4.56,0,0,1-3.54,1.52,4.28,4.28,0,0,1-4.55-4H392c0-.17,0-.35,0-.48Zm-5.61-4.53a4,4,0,0,1,4.11,3.85h-8.2A4,4,0,0,1,386.37,289.77Z" fill-rule="evenodd"/><rect x="62.29" y="314.1" width="1.56" height="16.32"/><path d="M72.25,318.76a7.33,7.33,0,0,0-4.7,1.57l.7,1.16a5.92,5.92,0,0,1,3.85-1.36c2.16,0,3.28,1.08,3.28,3.06v.7H71.7c-3.32,0-4.46,1.5-4.46,3.28,0,2,1.6,3.36,4.22,3.36a4.32,4.32,0,0,0,4-1.91v1.8h1.5v-7.17c0-3-1.69-4.49-4.69-4.49ZM71.7,329.3c-1.84,0-2.92-.83-2.92-2.18,0-1.18.72-2.06,3-2.06h3.63V327A3.71,3.71,0,0,1,71.7,329.3Z" fill-rule="evenodd"/><path d="M96,318.85v2.29a5,5,0,0,0-4.46-2.38,5.89,5.89,0,0,0,0,11.77,5.06,5.06,0,0,0,4.4-2.28v6.44h1.56V318.85Zm-4.33,10.3A4.52,4.52,0,1,1,96,324.64,4.24,4.24,0,0,1,91.68,329.15Z" fill-rule="evenodd"/><path d="M110.73,318.85v6.07c0,2.64-1.52,4.21-3.94,4.21-2.2,0-3.47-1.26-3.47-3.72v-6.56h-1.56v6.71c0,3.32,1.93,5,4.88,5a4.61,4.61,0,0,0,4.16-2.22v2.11h1.49V318.85Z" fill-rule="evenodd"/><path d="M126.77,324.64a5.51,5.51,0,0,0-5.61-5.88,5.57,5.57,0,0,0-5.65,5.88,6.11,6.11,0,0,0,10.53,4l-.88-1a4.56,4.56,0,0,1-3.54,1.52,4.28,4.28,0,0,1-4.55-4h9.68c0-.17,0-.35,0-.48Zm-5.61-4.53a4,4,0,0,1,4.11,3.85h-8.2A4,4,0,0,1,121.16,320.11Z" fill-rule="evenodd"/><path d="M140.45,330.53a5.89,5.89,0,1,0-5.89-5.89,5.69,5.69,0,0,0,5.89,5.89Zm0-1.38a4.52,4.52,0,1,1,4.29-4.51A4.24,4.24,0,0,1,140.45,329.15Z" fill-rule="evenodd"/><path d="M151,321.12v-2.27h-1.49v11.57h1.56v-5.89c0-2.73,1.47-4.27,3.89-4.27l.38,0v-1.52C153.21,318.76,151.74,319.58,151,321.12Z" fill-rule="evenodd"/><path d="M159,316.32a1.11,1.11,0,1,0,0-2.22,1.11,1.11,0,1,0,0,2.22Zm-.8,14.1h1.57V318.85h-1.57Z" fill-rule="evenodd"/><path d="M174.18,324.64a5.51,5.51,0,0,0-5.61-5.88,5.57,5.57,0,0,0-5.65,5.88,6.11,6.11,0,0,0,10.53,4l-.88-1a4.56,4.56,0,0,1-3.54,1.52,4.28,4.28,0,0,1-4.55-4h9.68c0-.17,0-.35,0-.48Zm-5.61-4.53a4,4,0,0,1,4.11,3.85h-8.2A4,4,0,0,1,168.57,320.11Z" fill-rule="evenodd"/><path d="M183.27,318.76a4.85,4.85,0,0,0-4.4,2.23v-2.14h-1.5v11.57h1.56v-6.07c0-2.64,1.56-4.18,4-4.18,2.2,0,3.48,1.26,3.48,3.7v6.55H188v-6.71C188,320.39,186.08,318.76,183.27,318.76Z" fill-rule="evenodd"/><path d="M197.81,328.6a2.62,2.62,0,0,1-1.72.59,1.85,1.85,0,0,1-2-2.11v-6.91h3.52v-1.32h-3.52v-2.53h-1.56v2.53h-2.07v1.32h2.07v7a3.06,3.06,0,0,0,3.39,3.36,3.72,3.72,0,0,0,2.44-.81Z" fill-rule="evenodd"/><path d="M205.24,318.76a7.33,7.33,0,0,0-4.7,1.57l.7,1.16a5.92,5.92,0,0,1,3.85-1.36c2.16,0,3.28,1.08,3.28,3.06v.7h-3.68c-3.32,0-4.46,1.5-4.46,3.28,0,2,1.6,3.36,4.22,3.36a4.32,4.32,0,0,0,4-1.91v1.8h1.5v-7.17c0-3-1.69-4.49-4.69-4.49Zm-.55,10.54c-1.84,0-2.92-.83-2.92-2.18,0-1.18.72-2.06,3-2.06h3.63V327A3.71,3.71,0,0,1,204.69,329.3Z" fill-rule="evenodd"/><path d="M215.67,321.12v-2.27h-1.49v11.57h1.56v-5.89c0-2.73,1.47-4.27,3.89-4.27l.38,0v-1.52C217.87,318.76,216.4,319.58,215.67,321.12Z" fill-rule="evenodd"/><path d="M228.87,328.6a2.61,2.61,0,0,1-1.71.59,1.86,1.86,0,0,1-2-2.11v-6.91h3.52v-1.32h-3.52v-2.53h-1.56v2.53h-2.07v1.32h2.07v7a3.06,3.06,0,0,0,3.39,3.36,3.7,3.7,0,0,0,2.44-.81Z" fill-rule="evenodd"/><path d="M241.94,324.64a5.51,5.51,0,0,0-5.61-5.88,5.58,5.58,0,0,0-5.66,5.88,6.12,6.12,0,0,0,10.54,4l-.88-1a4.56,4.56,0,0,1-3.54,1.52,4.28,4.28,0,0,1-4.55-4h9.68c0-.17,0-.35,0-.48Zm-5.61-4.53a4,4,0,0,1,4.11,3.85h-8.2A4,4,0,0,1,236.33,320.11Z" fill-rule="evenodd"/><path d="M254.94,318.76a7.36,7.36,0,0,0-4.71,1.57l.71,1.16a5.9,5.9,0,0,1,3.85-1.36c2.15,0,3.28,1.08,3.28,3.06v.7h-3.68c-3.32,0-4.46,1.5-4.46,3.28,0,2,1.6,3.36,4.22,3.36a4.34,4.34,0,0,0,4-1.91v1.8h1.5v-7.17c0-3-1.7-4.49-4.69-4.49Zm-.55,10.54c-1.85,0-2.93-.83-2.93-2.18,0-1.18.73-2.06,3-2.06h3.64V327A3.71,3.71,0,0,1,254.39,329.3Z" fill-rule="evenodd"/><rect x="269.64" y="314.1" width="1.56" height="16.32"/><path d="M279.6,318.76a7.38,7.38,0,0,0-4.71,1.57l.71,1.16a5.9,5.9,0,0,1,3.85-1.36c2.15,0,3.28,1.08,3.28,3.06v.7h-3.68c-3.32,0-4.46,1.5-4.46,3.28,0,2,1.6,3.36,4.22,3.36a4.34,4.34,0,0,0,4-1.91v1.8h1.5v-7.17c0-3-1.7-4.49-4.69-4.49Zm-.55,10.54c-1.85,0-2.92-.83-2.92-2.18,0-1.18.72-2.06,3-2.06h3.63V327A3.71,3.71,0,0,1,279.05,329.3Z" fill-rule="evenodd"/><path d="M300.19,318.76a4.88,4.88,0,0,0-4.33,2.12V314.1H294.3v16.32h1.56v-6.07c0-2.64,1.56-4.18,4.05-4.18,2.2,0,3.47,1.26,3.47,3.7v6.55H305v-6.71C305,320.39,303,318.76,300.19,318.76Z" fill-rule="evenodd"/><path d="M314,330.53a5.89,5.89,0,1,0-5.9-5.89,5.69,5.69,0,0,0,5.9,5.89Zm0-1.38a4.52,4.52,0,1,1,4.29-4.51A4.24,4.24,0,0,1,314,329.15Z" fill-rule="evenodd"/><path d="M324.53,321.12v-2.27H323v11.57h1.56v-5.89c0-2.73,1.48-4.27,3.9-4.27l.37,0v-1.52C326.73,318.76,325.25,319.58,324.53,321.12Z" fill-rule="evenodd"/><path d="M335.7,318.76a7.38,7.38,0,0,0-4.71,1.57l.71,1.16a5.9,5.9,0,0,1,3.85-1.36c2.15,0,3.28,1.08,3.28,3.06v.7h-3.68c-3.32,0-4.46,1.5-4.46,3.28,0,2,1.6,3.36,4.22,3.36a4.34,4.34,0,0,0,4-1.91v1.8h1.5v-7.17c0-3-1.7-4.49-4.69-4.49Zm-.55,10.54c-1.85,0-2.92-.83-2.92-2.18,0-1.18.72-2.06,3-2.06h3.63V327A3.71,3.71,0,0,1,335.15,329.3Z" fill-rule="evenodd"/><path d="M359.4,314.1v6.95a5.08,5.08,0,0,0-4.4-2.29,5.89,5.89,0,0,0,0,11.77,5,5,0,0,0,4.46-2.39v2.28H361V314.1Zm-4.27,15a4.52,4.52,0,1,1,4.29-4.51A4.24,4.24,0,0,1,355.13,329.15Z" fill-rule="evenodd"/><path d="M375.41,324.64a5.51,5.51,0,0,0-5.61-5.88,5.58,5.58,0,0,0-5.65,5.88,6.12,6.12,0,0,0,10.54,4l-.88-1a4.58,4.58,0,0,1-3.55,1.52,4.29,4.29,0,0,1-4.55-4h9.68c0-.17,0-.35,0-.48Zm-5.61-4.53a4,4,0,0,1,4.12,3.85h-8.21A4,4,0,0,1,369.8,320.11Z" fill-rule="evenodd"/><path d="M129.52,358.94a2.62,2.62,0,0,1-1.72.59,1.86,1.86,0,0,1-2-2.11v-6.91h3.52v-1.32H125.8v-2.53h-1.56v2.53h-2.07v1.32h2.07v7a3.06,3.06,0,0,0,3.39,3.36,3.72,3.72,0,0,0,2.44-.81Z" fill-rule="evenodd"/><path d="M134.4,351.46v-2.27h-1.49v11.57h1.56v-5.89c0-2.73,1.47-4.27,3.89-4.27l.38,0V349.1C136.6,349.1,135.13,349.92,134.4,351.46Z" fill-rule="evenodd"/><path d="M145.58,349.1a7.35,7.35,0,0,0-4.71,1.56l.71,1.17a5.85,5.85,0,0,1,3.85-1.36c2.15,0,3.27,1.07,3.27,3v.71H145c-3.32,0-4.47,1.49-4.47,3.28,0,2,1.61,3.36,4.23,3.36a4.34,4.34,0,0,0,4-1.91v1.8h1.5v-7.17c0-3-1.7-4.49-4.69-4.49ZM145,359.64c-1.85,0-2.93-.84-2.93-2.18,0-1.19.73-2.07,3-2.07h3.63v1.9A3.7,3.7,0,0,1,145,359.64Z" fill-rule="evenodd"/><path d="M160.47,349.1a5.06,5.06,0,0,0-4.4,2.29v-6.95h-1.56v16.32H156v-2.29a5,5,0,0,0,4.46,2.4,5.89,5.89,0,0,0,0-11.77Zm-.11,10.39a4.51,4.51,0,1,1,4.32-4.51A4.24,4.24,0,0,1,160.36,359.49Z" fill-rule="evenodd"/><path d="M173.41,349.1a7.35,7.35,0,0,0-4.71,1.56l.71,1.17a5.85,5.85,0,0,1,3.85-1.36c2.15,0,3.27,1.07,3.27,3v.71h-3.67c-3.32,0-4.47,1.49-4.47,3.28,0,2,1.61,3.36,4.23,3.36a4.34,4.34,0,0,0,4-1.91v1.8h1.5v-7.17c0-3-1.7-4.49-4.69-4.49Zm-.55,10.54c-1.85,0-2.93-.84-2.93-2.18,0-1.19.73-2.07,3-2.07h3.63v1.9A3.7,3.7,0,0,1,172.86,359.64Z" fill-rule="evenodd"/><path d="M183.24,346.66a1.13,1.13,0,0,0,1.15-1.14,1.11,1.11,0,0,0-1.15-1.08,1.11,1.11,0,1,0,0,2.22Zm-2.61,18.48c2.2,0,3.38-1.39,3.38-3.52V349.19h-1.56v12.43c0,1.43-.68,2.18-1.91,2.18a2.71,2.71,0,0,1-1.81-.6l-.55,1.19A3.81,3.81,0,0,0,180.63,365.14Z" fill-rule="evenodd"/><path d="M192.42,349.1a7.35,7.35,0,0,0-4.71,1.56l.7,1.17a5.89,5.89,0,0,1,3.85-1.36c2.16,0,3.28,1.07,3.28,3v.71h-3.67c-3.32,0-4.47,1.49-4.47,3.28,0,2,1.61,3.36,4.23,3.36a4.35,4.35,0,0,0,4-1.91v1.8h1.49v-7.17c0-3-1.69-4.49-4.68-4.49Zm-.55,10.54c-1.85,0-2.93-.84-2.93-2.18,0-1.19.73-2.07,3-2.07h3.63v1.9A3.7,3.7,0,0,1,191.87,359.64Z" fill-rule="evenodd"/><path d="M202.84,351.46v-2.27h-1.49v11.57h1.56v-5.89c0-2.73,1.48-4.27,3.89-4.27l.38,0V349.1C205,349.1,203.57,349.92,202.84,351.46Z" fill-rule="evenodd"/><path d="M220.73,360.87a5.08,5.08,0,0,0,4.53-2.29l-1.16-.79a3.93,3.93,0,0,1-3.37,1.7,4.51,4.51,0,0,1,0-9,4,4,0,0,1,3.37,1.71l1.16-.79a5,5,0,0,0-4.53-2.29,5.89,5.89,0,1,0,0,11.77Z" fill-rule="evenodd"/><path d="M232.85,360.87A5.89,5.89,0,1,0,227,355a5.69,5.69,0,0,0,5.89,5.89Zm0-1.38a4.52,4.52,0,1,1,4.29-4.51A4.24,4.24,0,0,1,232.85,359.49Z" fill-rule="evenodd"/><path d="M247.81,349.1a4.89,4.89,0,0,0-4.4,2.22v-2.13h-1.49v11.57h1.56v-6.07c0-2.64,1.56-4.18,4.05-4.18,2.2,0,3.47,1.25,3.47,3.7v6.55h1.56v-6.71C252.56,350.73,250.63,349.1,247.81,349.1Z" fill-rule="evenodd"/><path d="M272.67,355a5.51,5.51,0,0,0-5.61-5.88,5.57,5.57,0,0,0-5.65,5.88A6.12,6.12,0,0,0,272,359l-.88-1a4.58,4.58,0,0,1-3.55,1.52,4.29,4.29,0,0,1-4.55-4h9.68c0-.18,0-.35,0-.48Zm-5.61-4.54a4,4,0,0,1,4.12,3.85H263A4,4,0,0,1,267.06,350.44Z" fill-rule="evenodd"/><rect x="275.86" y="344.44" width="1.56" height="16.32"/><rect x="281.78" y="344.44" width="1.56" height="16.32"/><path d="M292.43,360.87a5.89,5.89,0,1,0-5.9-5.89,5.68,5.68,0,0,0,5.9,5.89Zm0-1.38a4.52,4.52,0,1,1,4.29-4.51A4.24,4.24,0,0,1,292.43,359.49Z" fill-rule="evenodd"/><path d="M304.59,360.87c3,0,4.78-1.3,4.78-3.3,0-4.44-7.5-2.08-7.5-5.21,0-1.1.92-1.92,3-1.92a6,6,0,0,1,3.41,1l.68-1.25a7.83,7.83,0,0,0-4.09-1.08c-2.95,0-4.58,1.41-4.58,3.3,0,4.58,7.51,2.21,7.51,5.22,0,1.14-.91,1.89-3.11,1.89a7,7,0,0,1-4.11-1.3l-.7,1.23A7.66,7.66,0,0,0,304.59,360.87Z" fill-rule="evenodd"/><path d="M312.4,360.87a1.2,1.2,0,0,0,1.19-1.21,1.19,1.19,0,0,0-1.19-1.19,1.17,1.17,0,0,0-1.16,1.19A1.19,1.19,0,0,0,312.4,360.87Z" fill-rule="evenodd"/></svg>