<svg id="Capa_1" data-name="Capa 1" xmlns="http://www.w3.org/2000/svg" xmlns:xlink="http://www.w3.org/1999/xlink" width="154mm" height="154mm" viewBox="0 0 436.54 436.54"><defs><linearGradient id="GradientFill_3" x1="467.94" y1="287.59" x2="77.21" y2="179.1" gradientTransform="translate(218.27 -90.41) rotate(45)" gradientUnits="userSpaceOnUse"><stop offset="0" stop-color="#f3cf1c"/><stop offset="0.77" stop-color="#f4ae21"/><stop offset="1" stop-color="#f4ae21"/></linearGradient></defs><title>QUESITO AMARILLO CIRCULO 3</title><circle cx="218.27" cy="218.27" r="218.04" transform="translate(-90.41 218.27) rotate(-45)" fill="url(#GradientFill_3)"/><polygon points="152.1 102.94 153.73 102.94 153.73 88.95 159.14 88.95 159.14 87.54 146.69 87.54 146.69 88.95 152.1 88.95 152.1 102.94" fill-rule="evenodd"/><path d="M169.94,86.86h-2.09l-3,2.73h1.54l3.56-2.73Zm0,4.51v6.07c0,2.64-1.52,4.21-3.94,4.21-2.2,0-3.48-1.26-3.48-3.72V91.37H161v6.71c0,3.32,1.94,5,4.88,5a4.59,4.59,0,0,0,4.16-2.22v2.11h1.5V91.37Z" fill-rule="evenodd"/><path d="M190.67,86.62v6.95a5.07,5.07,0,0,0-4.4-2.29,5.89,5.89,0,0,0,0,11.77,5,5,0,0,0,4.46-2.39v2.28h1.5V86.62Zm-4.27,15a4.52,4.52,0,1,1,4.29-4.51A4.24,4.24,0,0,1,186.4,101.67Z" fill-rule="evenodd"/><path d="M206.68,97.16a5.51,5.51,0,0,0-5.61-5.88,5.58,5.58,0,0,0-5.65,5.88,6.12,6.12,0,0,0,10.54,4l-.88-1a4.58,4.58,0,0,1-3.54,1.52,4.29,4.29,0,0,1-4.56-4h9.68c0-.17,0-.35,0-.48Zm-5.61-4.53a4,4,0,0,1,4.12,3.85H197A4,4,0,0,1,201.07,92.63Z" fill-rule="evenodd"/><path d="M214.67,103.05a5.1,5.1,0,0,0,4.53-2.28L218,100a3.93,3.93,0,0,1-3.37,1.7,4.51,4.51,0,0,1,0-9A4,4,0,0,1,218,94.36l1.16-.79a5,5,0,0,0-4.53-2.29,5.89,5.89,0,1,0,0,11.77Z" fill-rule="evenodd"/><path d="M223.05,88.84a1.12,1.12,0,0,0,1.15-1.14,1.11,1.11,0,0,0-1.15-1.08,1.11,1.11,0,1,0,0,2.22Zm-.79,14.1h1.56V91.37h-1.56Z" fill-rule="evenodd"/><path d="M237.18,86.62v6.95a5.08,5.08,0,0,0-4.4-2.29,5.89,5.89,0,0,0,0,11.77,5,5,0,0,0,4.46-2.39v2.28h1.5V86.62Zm-4.27,15a4.52,4.52,0,1,1,4.29-4.51A4.24,4.24,0,0,1,232.91,101.67Z" fill-rule="evenodd"/><path d="M253.19,97.16a5.51,5.51,0,0,0-5.61-5.88,5.58,5.58,0,0,0-5.65,5.88,6.12,6.12,0,0,0,10.54,4l-.88-1a4.58,4.58,0,0,1-3.55,1.52,4.29,4.29,0,0,1-4.55-4h9.68c0-.17,0-.35,0-.48Zm-5.61-4.53a4,4,0,0,1,4.12,3.85h-8.21A4,4,0,0,1,247.58,92.63Z" fill-rule="evenodd"/><path d="M259.48,103.05c3,0,4.78-1.29,4.78-3.3,0-4.44-7.5-2.08-7.5-5.21,0-1.1.92-1.91,3-1.91a5.88,5.88,0,0,1,3.41,1l.68-1.26a7.83,7.83,0,0,0-4.09-1.08c-2.95,0-4.58,1.41-4.58,3.3,0,4.58,7.51,2.21,7.51,5.22,0,1.14-.91,1.89-3.11,1.89a7,7,0,0,1-4.11-1.3l-.7,1.23A7.66,7.66,0,0,0,259.48,103.05Z" fill-rule="evenodd"/><path d="M283,97.16a5.51,5.51,0,0,0-5.61-5.88,5.58,5.58,0,0,0-5.65,5.88,6.12,6.12,0,0,0,10.54,4l-.88-1a4.58,4.58,0,0,1-3.55,1.52,4.29,4.29,0,0,1-4.55-4H283c0-.17,0-.35,0-.48Zm-5.61-4.53a4,4,0,0,1,4.12,3.85H273.3A4,4,0,0,1,277.39,92.63Z" fill-rule="evenodd"/><rect x="286.19" y="86.62" width="1.56" height="16.32"/><path d="M100.52,121.62A5,5,0,0,0,96.06,124v-2.29h-1.5v15.84h1.56V131.1a5.06,5.06,0,0,0,4.4,2.29,5.89,5.89,0,0,0,0-11.77ZM100.41,132a4.51,4.51,0,1,1,4.32-4.51A4.24,4.24,0,0,1,100.41,132Z" fill-rule="evenodd"/><path d="M111,124v-2.27h-1.49v11.57H111v-5.89c0-2.73,1.47-4.27,3.89-4.27l.38,0v-1.52C113.17,121.62,111.7,122.44,111,124Z" fill-rule="evenodd"/><path d="M128.11,127.5a5.51,5.51,0,0,0-5.61-5.88,5.57,5.57,0,0,0-5.65,5.88,6.12,6.12,0,0,0,10.54,4l-.88-1A4.58,4.58,0,0,1,123,132a4.29,4.29,0,0,1-4.55-4h9.68c0-.18,0-.35,0-.48ZM122.5,123a4,4,0,0,1,4.12,3.85h-8.21A4,4,0,0,1,122.5,123Z" fill-rule="evenodd"/><path d="M136.1,133.39a5.08,5.08,0,0,0,4.53-2.29l-1.17-.79a3.9,3.9,0,0,1-3.36,1.7,4.51,4.51,0,0,1,0-9,3.93,3.93,0,0,1,3.36,1.71l1.17-.79a5,5,0,0,0-4.53-2.29,5.89,5.89,0,1,0,0,11.77Z" fill-rule="evenodd"/><path d="M144.48,119.18a1.12,1.12,0,0,0,1.14-1.14,1.1,1.1,0,0,0-1.14-1.08,1.11,1.11,0,1,0,0,2.22Zm-.79,14.1h1.56V121.71h-1.56Z" fill-rule="evenodd"/><path d="M154.34,133.39a5.89,5.89,0,1,0-5.9-5.89,5.69,5.69,0,0,0,5.9,5.89Zm0-1.38a4.52,4.52,0,1,1,4.29-4.51A4.24,4.24,0,0,1,154.34,132Z" fill-rule="evenodd"/><path d="M178.16,117v7a5,5,0,0,0-4.4-2.29,5.89,5.89,0,0,0,0,11.77,5,5,0,0,0,4.47-2.4v2.29h1.49V117Zm-4.27,15a4.52,4.52,0,1,1,4.29-4.51A4.24,4.24,0,0,1,173.89,132Z" fill-rule="evenodd"/><path d="M194.18,127.5a5.52,5.52,0,0,0-5.61-5.88,5.58,5.58,0,0,0-5.66,5.88,6.12,6.12,0,0,0,10.54,4l-.88-1A4.56,4.56,0,0,1,189,132a4.28,4.28,0,0,1-4.55-4h9.68c0-.18,0-.35,0-.48ZM188.57,123a4,4,0,0,1,4.11,3.85h-8.2A4,4,0,0,1,188.57,123Z" fill-rule="evenodd"/><path d="M209.09,121.62a5,5,0,0,0-4.46,2.38v-2.29h-1.5v15.84h1.56V131.1a5.06,5.06,0,0,0,4.4,2.29,5.89,5.89,0,0,0,0-11.77ZM209,132a4.51,4.51,0,1,1,4.32-4.51A4.24,4.24,0,0,1,209,132Z" fill-rule="evenodd"/><path d="M222,121.62a7.35,7.35,0,0,0-4.71,1.56l.71,1.17a5.85,5.85,0,0,1,3.85-1.36c2.15,0,3.27,1.07,3.27,3.05v.71h-3.67c-3.32,0-4.47,1.49-4.47,3.28,0,2,1.61,3.36,4.23,3.36a4.34,4.34,0,0,0,4-1.91v1.8h1.5v-7.17c0-3-1.7-4.49-4.69-4.49Zm-.55,10.54c-1.85,0-2.93-.84-2.93-2.18,0-1.19.73-2.07,3-2.07h3.63v1.9A3.7,3.7,0,0,1,221.48,132.16Z" fill-rule="evenodd"/><path d="M232.46,124v-2.27H231v11.57h1.56v-5.89c0-2.73,1.48-4.27,3.9-4.27l.37,0v-1.52C234.66,121.62,233.18,122.44,232.46,124Z" fill-rule="evenodd"/><path d="M245.66,131.46a2.62,2.62,0,0,1-1.72.59,1.85,1.85,0,0,1-2-2.11V123h3.52v-1.32h-3.52v-2.53h-1.56v2.53h-2.07V123h2.07v7a3.06,3.06,0,0,0,3.39,3.36,3.72,3.72,0,0,0,2.44-.81Z" fill-rule="evenodd"/><path d="M249.84,119.18A1.12,1.12,0,0,0,251,118a1.1,1.1,0,0,0-1.14-1.08,1.11,1.11,0,1,0,0,2.22Zm-.79,14.1h1.56V121.71h-1.56Z" fill-rule="evenodd"/><path d="M264,117v7a5,5,0,0,0-4.4-2.29,5.89,5.89,0,0,0,0,11.77A5,5,0,0,0,264,131v2.29h1.49V117Zm-4.27,15A4.52,4.52,0,1,1,264,127.5,4.24,4.24,0,0,1,259.69,132Z" fill-rule="evenodd"/><path d="M273.93,121.62a7.35,7.35,0,0,0-4.71,1.56l.7,1.17a5.89,5.89,0,0,1,3.85-1.36c2.16,0,3.28,1.07,3.28,3.05v.71h-3.67c-3.32,0-4.47,1.49-4.47,3.28,0,2,1.61,3.36,4.23,3.36a4.35,4.35,0,0,0,4-1.91v1.8h1.49v-7.17c0-3-1.69-4.49-4.68-4.49Zm-.55,10.54c-1.85,0-2.93-.84-2.93-2.18,0-1.19.73-2.07,3-2.07h3.63v1.9A3.7,3.7,0,0,1,273.38,132.16Z" fill-rule="evenodd"/><path d="M297.62,117v7a5,5,0,0,0-4.4-2.29,5.89,5.89,0,0,0,0,11.77,5,5,0,0,0,4.47-2.4v2.29h1.49V117Zm-4.27,15a4.52,4.52,0,1,1,4.29-4.51A4.24,4.24,0,0,1,293.35,132Z" fill-rule="evenodd"/><path d="M313.64,127.5a5.52,5.52,0,0,0-5.61-5.88,5.58,5.58,0,0,0-5.66,5.88,6.12,6.12,0,0,0,10.54,4l-.88-1a4.56,4.56,0,0,1-3.54,1.52,4.29,4.29,0,0,1-4.56-4h9.68c0-.18,0-.35,0-.48ZM308,123a4,4,0,0,1,4.11,3.85h-8.21A4,4,0,0,1,308,123Z" fill-rule="evenodd"/><path d="M328.13,131.46a2.59,2.59,0,0,1-1.71.59,1.85,1.85,0,0,1-2-2.11V123h3.52v-1.32h-3.52v-2.53h-1.57v2.53h-2.06V123h2.06v7a3.06,3.06,0,0,0,3.39,3.36,3.7,3.7,0,0,0,2.44-.81Z" fill-rule="evenodd"/><path d="M340.39,121.71v6.07c0,2.64-1.52,4.2-3.94,4.2-2.2,0-3.48-1.25-3.48-3.71v-6.56h-1.56v6.71c0,3.32,1.94,5,4.89,5a4.59,4.59,0,0,0,4.15-2.22v2.11H342V121.71Z" fill-rule="evenodd"/><polygon points="99.59 152.05 95.21 161.9 90.88 152.05 89.25 152.05 94.38 163.62 95.98 163.62 101.13 152.05 99.59 152.05" fill-rule="evenodd"/><path d="M104.12,149.52a1.12,1.12,0,0,0,1.14-1.15,1.1,1.1,0,0,0-1.14-1.07,1.11,1.11,0,1,0,0,2.22Zm-.79,14.1h1.56V152.05h-1.56Z" fill-rule="evenodd"/><polygon points="117.43 152.05 113.05 161.9 108.72 152.05 107.09 152.05 112.22 163.62 113.82 163.62 118.97 152.05 117.43 152.05" fill-rule="evenodd"/><path d="M122,149.52a1.13,1.13,0,0,0,1.15-1.15,1.15,1.15,0,0,0-2.29,0,1.13,1.13,0,0,0,1.14,1.12Zm-.79,14.1h1.56V152.05h-1.56Z" fill-rule="evenodd"/><path d="M137.19,157.83a5.52,5.52,0,0,0-5.61-5.87,5.57,5.57,0,0,0-5.66,5.87,6.12,6.12,0,0,0,10.54,4l-.88-1a4.55,4.55,0,0,1-3.54,1.51,4.29,4.29,0,0,1-4.56-4h9.68c0-.18,0-.35,0-.49Zm-5.61-4.53a4,4,0,0,1,4.11,3.85h-8.21A4,4,0,0,1,131.58,153.3Z" fill-rule="evenodd"/><path d="M146.27,152a4.86,4.86,0,0,0-4.4,2.22v-2.13h-1.49v11.57h1.56v-6.07c0-2.64,1.56-4.18,4.05-4.18,2.2,0,3.47,1.25,3.47,3.69v6.56H151v-6.71C151,153.59,149.09,152,146.27,152Z" fill-rule="evenodd"/><path d="M164.31,147.3v6.95a5,5,0,0,0-4.4-2.29,5.89,5.89,0,0,0,0,11.77,5,5,0,0,0,4.47-2.4v2.29h1.49V147.3Zm-4.27,15a4.52,4.52,0,1,1,4.29-4.51A4.24,4.24,0,0,1,160,162.34Z" fill-rule="evenodd"/><path d="M174.28,152a7.35,7.35,0,0,0-4.71,1.56l.7,1.17a5.9,5.9,0,0,1,3.85-1.37c2.16,0,3.28,1.08,3.28,3.06v.71h-3.67c-3.32,0-4.47,1.49-4.47,3.27,0,2,1.61,3.37,4.23,3.37a4.37,4.37,0,0,0,4-1.91v1.8H179v-7.17c0-3-1.69-4.49-4.68-4.49Zm-.55,10.54c-1.85,0-2.93-.84-2.93-2.18,0-1.19.73-2.07,3-2.07h3.63v1.89A3.69,3.69,0,0,1,173.73,162.5Z" fill-rule="evenodd"/><path d="M183.36,163.73a1.2,1.2,0,0,0,1.19-1.21,1.19,1.19,0,0,0-1.19-1.19,1.17,1.17,0,0,0-1.16,1.19A1.19,1.19,0,0,0,183.36,163.73Z" fill-rule="evenodd"/><polygon points="196.96 163.62 198.59 163.62 198.59 149.63 204 149.63 204 148.22 191.55 148.22 191.55 149.63 196.96 149.63 196.96 163.62" fill-rule="evenodd"/><path d="M215.15,157.83a5.51,5.51,0,0,0-5.61-5.87,5.57,5.57,0,0,0-5.65,5.87,6.12,6.12,0,0,0,10.54,4l-.88-1a4.57,4.57,0,0,1-3.54,1.51,4.29,4.29,0,0,1-4.56-4h9.68c0-.18,0-.35,0-.49Zm-5.61-4.53a4,4,0,0,1,4.12,3.85h-8.21A4,4,0,0,1,209.54,153.3Z" fill-rule="evenodd"/><path d="M224.24,152a4.86,4.86,0,0,0-4.4,2.22v-2.13h-1.5v11.57h1.57v-6.07c0-2.64,1.56-4.18,4-4.18,2.2,0,3.48,1.25,3.48,3.69v6.56H229v-6.71C229,153.59,227.06,152,224.24,152Z" fill-rule="evenodd"/><path d="M242.28,147.3v6.95a5,5,0,0,0-4.4-2.29,5.89,5.89,0,0,0,0,11.77,5,5,0,0,0,4.47-2.4v2.29h1.49V147.3Zm-4.27,15a4.52,4.52,0,1,1,4.29-4.51A4.24,4.24,0,0,1,238,162.34Z" fill-rule="evenodd"/><path d="M249.69,154.31v-2.26H248.2v11.57h1.56v-5.9c0-2.72,1.47-4.26,3.89-4.26l.38,0V152C251.89,152,250.42,152.77,249.69,154.31Z" fill-rule="evenodd"/><path d="M264.59,147.54H262.5l-3,2.73H261l3.57-2.73ZM260.87,152a7.35,7.35,0,0,0-4.71,1.56l.71,1.17a5.86,5.86,0,0,1,3.85-1.37c2.15,0,3.27,1.08,3.27,3.06v.71h-3.67c-3.32,0-4.47,1.49-4.47,3.27,0,2,1.61,3.37,4.23,3.37a4.36,4.36,0,0,0,4-1.91v1.8h1.5v-7.17c0-3-1.7-4.49-4.69-4.49Zm-.55,10.54c-1.85,0-2.93-.84-2.93-2.18,0-1.19.73-2.07,3-2.07H264v1.89A3.69,3.69,0,0,1,260.32,162.5Z" fill-rule="evenodd"/><path d="M272.9,163.73c3,0,4.78-1.3,4.78-3.3,0-4.44-7.5-2.09-7.5-5.21,0-1.1.92-1.92,3-1.92a6,6,0,0,1,3.41,1l.68-1.25a7.83,7.83,0,0,0-4.09-1.08c-2.95,0-4.58,1.41-4.58,3.3,0,4.58,7.51,2.2,7.51,5.21,0,1.15-.91,1.9-3.11,1.9a7,7,0,0,1-4.11-1.3l-.7,1.23A7.73,7.73,0,0,0,272.9,163.73Z" fill-rule="evenodd"/><path d="M291.12,163.73a5.08,5.08,0,0,0,4.53-2.29l-1.16-.79a3.92,3.92,0,0,1-3.37,1.69,4.51,4.51,0,0,1,0-9,4,4,0,0,1,3.37,1.72l1.16-.79a5,5,0,0,0-4.53-2.29,5.89,5.89,0,1,0,0,11.77Z" fill-rule="evenodd"/><path d="M303.24,163.73a5.89,5.89,0,1,0-5.89-5.9,5.69,5.69,0,0,0,5.89,5.9Zm0-1.39a4.52,4.52,0,1,1,4.29-4.51A4.24,4.24,0,0,1,303.24,162.34Z" fill-rule="evenodd"/><path d="M326.74,152a5.06,5.06,0,0,0-4.58,2.44,4.15,4.15,0,0,0-4.11-2.44,4.68,4.68,0,0,0-4.25,2.2v-2.11h-1.49v11.57h1.56v-6.07c0-2.64,1.52-4.18,3.87-4.18,2.11,0,3.34,1.25,3.34,3.69v6.56h1.57v-6.07c0-2.64,1.49-4.18,3.87-4.18,2.09,0,3.32,1.25,3.32,3.69v6.56h1.56v-6.71C331.4,153.59,329.55,152,326.74,152Z" fill-rule="evenodd"/><path d="M340.42,163.73a5.89,5.89,0,1,0-5.89-5.9,5.69,5.69,0,0,0,5.89,5.9Zm0-1.39a4.52,4.52,0,1,1,4.29-4.51A4.24,4.24,0,0,1,340.42,162.34Z" fill-rule="evenodd"/><path d="M105,184.65v-2.26h-1.5V194h1.57v-5.9c0-2.73,1.47-4.27,3.89-4.27.11,0,.24,0,.37,0V182.3C107.2,182.3,105.73,183.11,105,184.65Z" fill-rule="evenodd"/><path d="M122.14,188.17a5.51,5.51,0,0,0-5.61-5.87,5.57,5.57,0,0,0-5.66,5.87,6.12,6.12,0,0,0,10.54,4l-.88-1a4.53,4.53,0,0,1-3.54,1.52,4.27,4.27,0,0,1-4.55-4h9.68c0-.18,0-.36,0-.49Zm-5.61-4.53a4,4,0,0,1,4.11,3.85h-8.2A4,4,0,0,1,116.53,183.64Z" fill-rule="evenodd"/><path d="M129.16,178.84a2.6,2.6,0,0,1,1.71.58l.53-1.17a3.69,3.69,0,0,0-2.31-.73,3.19,3.19,0,0,0-3.5,3.44v1.43h-2.07v1.32h2.07V194h1.56V183.71h3.52v-1.32h-3.56V181C127.11,179.59,127.82,178.84,129.16,178.84Z" fill-rule="evenodd"/><path d="M142.69,188.17a5.52,5.52,0,0,0-5.61-5.87,5.57,5.57,0,0,0-5.66,5.87,6.12,6.12,0,0,0,10.54,4l-.88-1a4.53,4.53,0,0,1-3.54,1.52,4.29,4.29,0,0,1-4.56-4h9.68c0-.18,0-.36,0-.49Zm-5.61-4.53a4,4,0,0,1,4.11,3.85H133A4,4,0,0,1,137.08,183.64Z" fill-rule="evenodd"/><path d="M147.37,184.65v-2.26h-1.49V194h1.56v-5.9c0-2.73,1.47-4.27,3.89-4.27.11,0,.25,0,.38,0V182.3C149.57,182.3,148.1,183.11,147.37,184.65Z" fill-rule="evenodd"/><path d="M164.51,188.17a5.51,5.51,0,0,0-5.61-5.87,5.57,5.57,0,0,0-5.65,5.87,6.12,6.12,0,0,0,10.54,4l-.89-1a4.52,4.52,0,0,1-3.54,1.52,4.27,4.27,0,0,1-4.55-4h9.68c0-.18,0-.36,0-.49Zm-5.61-4.53a4,4,0,0,1,4.11,3.85h-8.2A4,4,0,0,1,158.9,183.64Z" fill-rule="evenodd"/><path d="M173.6,182.3a4.85,4.85,0,0,0-4.4,2.22v-2.13h-1.5V194h1.56v-6.07c0-2.64,1.56-4.18,4.05-4.18,2.2,0,3.48,1.25,3.48,3.69V194h1.56v-6.71C178.35,183.93,176.41,182.3,173.6,182.3Z" fill-rule="evenodd"/><path d="M187.44,194.07a5.11,5.11,0,0,0,4.53-2.29L190.8,191a3.91,3.91,0,0,1-3.36,1.69,4.51,4.51,0,0,1,0-9,3.92,3.92,0,0,1,3.36,1.72l1.17-.79a5.06,5.06,0,0,0-4.53-2.29,5.89,5.89,0,1,0,0,11.77Z" fill-rule="evenodd"/><path d="M195.82,179.86a1.12,1.12,0,1,0-1.15-1.13,1.14,1.14,0,0,0,1.15,1.13ZM195,194h1.57V182.39H195Z" fill-rule="evenodd"/><path d="M205,182.3a7.35,7.35,0,0,0-4.71,1.56L201,185a5.86,5.86,0,0,1,3.85-1.37c2.15,0,3.27,1.08,3.27,3.06v.7h-3.67c-3.32,0-4.47,1.5-4.47,3.28,0,2,1.61,3.37,4.23,3.37a4.34,4.34,0,0,0,4-1.92V194h1.5v-7.17c0-3-1.7-4.49-4.69-4.49Zm-.55,10.54c-1.85,0-2.93-.84-2.93-2.18,0-1.19.73-2.07,3-2.07h3.63v1.89A3.69,3.69,0,0,1,204.44,192.84Z" fill-rule="evenodd"/><path d="M225.65,182.3a5,5,0,0,0-4.47,2.37v-2.28h-1.49v15.84h1.56v-6.45a5,5,0,0,0,4.4,2.29,5.89,5.89,0,0,0,0-11.77Zm-.11,10.38a4.51,4.51,0,1,1,4.31-4.51A4.23,4.23,0,0,1,225.54,192.68Z" fill-rule="evenodd"/><path d="M238.58,182.3a7.32,7.32,0,0,0-4.7,1.56l.7,1.17a5.88,5.88,0,0,1,3.85-1.37c2.16,0,3.28,1.08,3.28,3.06v.7H238c-3.32,0-4.46,1.5-4.46,3.28,0,2,1.6,3.37,4.22,3.37a4.33,4.33,0,0,0,4-1.92V194h1.5v-7.17c0-3-1.69-4.49-4.69-4.49ZM238,192.84c-1.84,0-2.92-.84-2.92-2.18,0-1.19.72-2.07,3-2.07h3.63v1.89A3.72,3.72,0,0,1,238,192.84Z" fill-rule="evenodd"/><path d="M249,184.65v-2.26h-1.49V194h1.56v-5.9c0-2.73,1.47-4.27,3.89-4.27.11,0,.24,0,.38,0V182.3C251.21,182.3,249.74,183.11,249,184.65Z" fill-rule="evenodd"/><path d="M260.19,182.3a7.35,7.35,0,0,0-4.71,1.56l.7,1.17a5.9,5.9,0,0,1,3.85-1.37c2.16,0,3.28,1.08,3.28,3.06v.7h-3.67c-3.32,0-4.47,1.5-4.47,3.28,0,2,1.61,3.37,4.23,3.37a4.35,4.35,0,0,0,4-1.92V194h1.49v-7.17c0-3-1.69-4.49-4.68-4.49Zm-.55,10.54c-1.85,0-2.93-.84-2.93-2.18,0-1.19.73-2.07,3-2.07h3.63v1.89A3.69,3.69,0,0,1,259.64,192.84Z" fill-rule="evenodd"/><path d="M275.15,181v1.43h-2.07v1.32h2.07V194h1.56V183.71h3.52v-1.32h-3.56V181c0-1.43.7-2.18,2-2.18a2.63,2.63,0,0,1,1.72.58l.53-1.17a3.73,3.73,0,0,0-2.31-.73,3.19,3.19,0,0,0-3.5,3.44Zm9.74-3.33a1.12,1.12,0,1,0,1.15,1.08,1.12,1.12,0,0,0-1.15-1.08ZM284.1,194h1.56V182.39H284.1Z" fill-rule="evenodd"/><path d="M290.92,179.86a1.13,1.13,0,0,0,1.15-1.15,1.15,1.15,0,0,0-2.29,0,1.13,1.13,0,0,0,1.14,1.13Zm-2.62,18.48a3.17,3.17,0,0,0,3.39-3.52V182.39h-1.56v12.43c0,1.43-.68,2.17-1.91,2.17a2.68,2.68,0,0,1-1.81-.59l-.55,1.19A3.84,3.84,0,0,0,288.3,198.34Z" fill-rule="evenodd"/><path d="M300.1,182.3a7.33,7.33,0,0,0-4.71,1.56l.7,1.17a5.9,5.9,0,0,1,3.85-1.37c2.16,0,3.28,1.08,3.28,3.06v.7h-3.67c-3.33,0-4.47,1.5-4.47,3.28,0,2,1.61,3.37,4.22,3.37a4.36,4.36,0,0,0,4-1.92V194h1.49v-7.17c0-3-1.69-4.49-4.68-4.49Zm-.55,10.54c-1.85,0-2.93-.84-2.93-2.18,0-1.19.73-2.07,3-2.07h3.63v1.89A3.7,3.7,0,0,1,299.55,192.84Z" fill-rule="evenodd"/><path d="M310.52,184.65v-2.26H309V194h1.56v-5.9c0-2.73,1.47-4.27,3.89-4.27.11,0,.25,0,.38,0V182.3C312.72,182.3,311.25,183.11,310.52,184.65Z" fill-rule="evenodd"/><rect x="317.67" y="177.63" width="1.56" height="16.32"/><path d="M328.32,194.07a5.89,5.89,0,1,0-5.89-5.9,5.7,5.7,0,0,0,5.89,5.9Zm0-1.39a4.52,4.52,0,1,1,4.29-4.51A4.24,4.24,0,0,1,328.32,192.68Z" fill-rule="evenodd"/><path d="M34.91,224.41a5.11,5.11,0,0,0,4.53-2.29l-1.16-.79A3.94,3.94,0,0,1,34.91,223a4.51,4.51,0,0,1,0-9,4,4,0,0,1,3.37,1.72l1.16-.8a5.05,5.05,0,0,0-4.53-2.28,5.89,5.89,0,1,0,0,11.77Z" fill-rule="evenodd"/><path d="M47,224.41a5.89,5.89,0,1,0-5.89-5.9,5.7,5.7,0,0,0,5.89,5.9ZM47,223a4.52,4.52,0,1,1,4.29-4.51A4.24,4.24,0,0,1,47,223Z" fill-rule="evenodd"/><path d="M57.59,215v-2.27h-1.5V224.3h1.57v-5.9c0-2.73,1.47-4.27,3.89-4.27l.37,0v-1.51C59.79,212.64,58.32,213.45,57.59,215Z" fill-rule="evenodd"/><path d="M66.24,215v-2.27h-1.5V224.3H66.3v-5.9c0-2.73,1.48-4.27,3.9-4.27l.37,0v-1.51C68.44,212.64,67,213.45,66.24,215Z" fill-rule="evenodd"/><path d="M83.37,218.51a5.51,5.51,0,0,0-5.61-5.87,5.57,5.57,0,0,0-5.65,5.87,6.11,6.11,0,0,0,10.54,4l-.88-1A4.58,4.58,0,0,1,78.23,223a4.29,4.29,0,0,1-4.56-4h9.68c0-.17,0-.35,0-.48ZM77.76,214a4,4,0,0,1,4.12,3.85H73.67A4,4,0,0,1,77.76,214Z" fill-rule="evenodd"/><path d="M91.36,224.41a5.11,5.11,0,0,0,4.53-2.29l-1.16-.79A3.94,3.94,0,0,1,91.36,223a4.51,4.51,0,0,1,0-9,4,4,0,0,1,3.37,1.72l1.16-.8a5.05,5.05,0,0,0-4.53-2.28,5.89,5.89,0,1,0,0,11.77Z" fill-rule="evenodd"/><path d="M104.63,222.47a2.57,2.57,0,0,1-1.72.59,1.85,1.85,0,0,1-2-2.11V214h3.52v-1.32h-3.52v-2.53H99.35v2.53H97.28V214h2.07v7a3.07,3.07,0,0,0,3.38,3.37,3.74,3.74,0,0,0,2.45-.82Z" fill-rule="evenodd"/><path d="M112.06,212.64a7.37,7.37,0,0,0-4.71,1.56l.71,1.16a5.9,5.9,0,0,1,3.85-1.36c2.16,0,3.28,1.08,3.28,3.06v.7h-3.68c-3.32,0-4.46,1.5-4.46,3.28,0,2,1.6,3.37,4.22,3.37a4.34,4.34,0,0,0,4-1.92v1.81h1.5v-7.18c0-3-1.7-4.48-4.69-4.48Zm-.55,10.53c-1.85,0-2.92-.83-2.92-2.17,0-1.19.72-2.07,3-2.07h3.63v1.89A3.71,3.71,0,0,1,111.51,223.17Z" fill-rule="evenodd"/><path d="M135.43,212.64a5,5,0,0,0-4.58,2.44,4.15,4.15,0,0,0-4.11-2.44,4.67,4.67,0,0,0-4.25,2.2v-2.12H121V224.3h1.57v-6.08c0-2.64,1.51-4.18,3.87-4.18,2.11,0,3.34,1.26,3.34,3.7v6.56h1.56v-6.08c0-2.64,1.5-4.18,3.88-4.18,2.09,0,3.32,1.26,3.32,3.7v6.56h1.56v-6.71C140.09,214.26,138.24,212.64,135.43,212.64Z" fill-rule="evenodd"/><path d="M154.48,218.51a5.51,5.51,0,0,0-5.61-5.87,5.57,5.57,0,0,0-5.66,5.87,5.74,5.74,0,0,0,6.08,5.9,5.67,5.67,0,0,0,4.46-1.9l-.88-1a4.56,4.56,0,0,1-3.54,1.52,4.28,4.28,0,0,1-4.55-4h9.68c0-.17,0-.35,0-.48ZM148.87,214a4,4,0,0,1,4.11,3.85h-8.2A4,4,0,0,1,148.87,214Z" fill-rule="evenodd"/><path d="M163.56,212.64a4.86,4.86,0,0,0-4.4,2.22v-2.14h-1.49V224.3h1.56v-6.08c0-2.64,1.56-4.18,4.05-4.18,2.2,0,3.47,1.26,3.47,3.7v6.56h1.57v-6.71C168.32,214.26,166.38,212.64,163.56,212.64Z" fill-rule="evenodd"/><path d="M178.11,222.47a2.57,2.57,0,0,1-1.72.59,1.85,1.85,0,0,1-2-2.11V214h3.52v-1.32h-3.52v-2.53h-1.56v2.53h-2.07V214h2.07v7a3.07,3.07,0,0,0,3.38,3.37,3.74,3.74,0,0,0,2.45-.82Z" fill-rule="evenodd"/><path d="M191.17,218.51a5.51,5.51,0,0,0-5.61-5.87,5.57,5.57,0,0,0-5.65,5.87,6.11,6.11,0,0,0,10.54,4l-.88-1A4.58,4.58,0,0,1,186,223a4.29,4.29,0,0,1-4.56-4h9.68c0-.17,0-.35,0-.48ZM185.56,214a4,4,0,0,1,4.12,3.85h-8.21A4,4,0,0,1,185.56,214Z" fill-rule="evenodd"/><rect x="200.13" y="207.97" width="1.56" height="16.32"/><path d="M210.78,224.41a5.89,5.89,0,1,0-5.9-5.9,5.7,5.7,0,0,0,5.9,5.9Zm0-1.39a4.52,4.52,0,1,1,4.29-4.51A4.24,4.24,0,0,1,210.78,223Z" fill-rule="evenodd"/><path d="M222.94,224.41c3,0,4.78-1.3,4.78-3.3,0-4.44-7.51-2.09-7.51-5.22,0-1.1.93-1.91,3-1.91a5.88,5.88,0,0,1,3.41,1l.68-1.26a7.85,7.85,0,0,0-4.09-1.07c-2.95,0-4.58,1.4-4.58,3.3,0,4.57,7.5,2.2,7.5,5.21,0,1.14-.9,1.89-3.1,1.89a6.94,6.94,0,0,1-4.11-1.3l-.71,1.24A7.78,7.78,0,0,0,222.94,224.41Z" fill-rule="evenodd"/><path d="M242.32,212.64a5,5,0,0,0-4.46,2.37v-2.29h-1.5v15.84h1.56v-6.44a5.08,5.08,0,0,0,4.4,2.29,5.89,5.89,0,0,0,0-11.77ZM242.21,223a4.51,4.51,0,1,1,4.32-4.51A4.24,4.24,0,0,1,242.21,223Z" fill-rule="evenodd"/><path d="M252.77,215v-2.27h-1.49V224.3h1.56v-5.9c0-2.73,1.47-4.27,3.89-4.27l.38,0v-1.51C255,212.64,253.5,213.45,252.77,215Z" fill-rule="evenodd"/><path d="M269.91,218.51a5.51,5.51,0,0,0-5.61-5.87,5.57,5.57,0,0,0-5.65,5.87,6.11,6.11,0,0,0,10.54,4l-.88-1a4.58,4.58,0,0,1-3.55,1.52,4.29,4.29,0,0,1-4.55-4h9.68c0-.17,0-.35,0-.48ZM264.3,214a4,4,0,0,1,4.12,3.85h-8.21A4,4,0,0,1,264.3,214Z" fill-rule="evenodd"/><path d="M277.9,224.41a5.11,5.11,0,0,0,4.53-2.29l-1.17-.79A3.91,3.91,0,0,1,277.9,223a4.51,4.51,0,0,1,0-9,3.92,3.92,0,0,1,3.36,1.72l1.17-.8a5.05,5.05,0,0,0-4.53-2.28,5.89,5.89,0,1,0,0,11.77Z" fill-rule="evenodd"/><path d="M286.28,210.19a1.11,1.11,0,1,0-1.14-1.12,1.11,1.11,0,0,0,1.14,1.12Zm-.79,14.11h1.56V212.72h-1.56Z" fill-rule="evenodd"/><path d="M296.14,224.41a5.89,5.89,0,1,0-5.9-5.9,5.7,5.7,0,0,0,5.9,5.9Zm0-1.39a4.52,4.52,0,1,1,4.29-4.51A4.24,4.24,0,0,1,296.14,223Z" fill-rule="evenodd"/><path d="M308.3,224.41c3,0,4.78-1.3,4.78-3.3,0-4.44-7.51-2.09-7.51-5.22,0-1.1.93-1.91,3-1.91a5.88,5.88,0,0,1,3.41,1l.68-1.26a7.85,7.85,0,0,0-4.09-1.07c-2.95,0-4.58,1.4-4.58,3.3,0,4.57,7.5,2.2,7.5,5.21,0,1.14-.9,1.89-3.1,1.89a6.94,6.94,0,0,1-4.11-1.3l-.71,1.24A7.78,7.78,0,0,0,308.3,224.41Z" fill-rule="evenodd"/><path d="M330.72,208v6.95a5.06,5.06,0,0,0-4.4-2.28,5.89,5.89,0,0,0,0,11.77,5,5,0,0,0,4.47-2.4v2.29h1.49V208ZM326.45,223a4.52,4.52,0,1,1,4.29-4.51A4.24,4.24,0,0,1,326.45,223Z" fill-rule="evenodd"/><path d="M346.74,218.51a5.51,5.51,0,0,0-5.61-5.87,5.57,5.57,0,0,0-5.66,5.87,5.74,5.74,0,0,0,6.07,5.9,5.67,5.67,0,0,0,4.47-1.9l-.88-1a4.56,4.56,0,0,1-3.54,1.52,4.29,4.29,0,0,1-4.56-4h9.68c0-.17,0-.35,0-.48ZM341.13,214a4,4,0,0,1,4.11,3.85H337A4,4,0,0,1,341.13,214Z" fill-rule="evenodd"/><path d="M360.42,224.41a5.89,5.89,0,1,0-5.9-5.9,5.69,5.69,0,0,0,5.9,5.9Zm0-1.39a4.52,4.52,0,1,1,4.29-4.51A4.24,4.24,0,0,1,360.42,223Z" fill-rule="evenodd"/><path d="M375,222.47a2.57,2.57,0,0,1-1.72.59,1.85,1.85,0,0,1-2-2.11V214h3.52v-1.32h-3.52v-2.53h-1.56v2.53h-2.07V214h2.07v7a3.07,3.07,0,0,0,3.39,3.37,3.73,3.73,0,0,0,2.44-.82Z" fill-rule="evenodd"/><path d="M379.91,215v-2.27h-1.49V224.3H380v-5.9c0-2.73,1.47-4.27,3.89-4.27l.38,0v-1.51C382.11,212.64,380.64,213.45,379.91,215Z" fill-rule="evenodd"/><path d="M391.09,212.64a7.35,7.35,0,0,0-4.71,1.56l.7,1.16a5.94,5.94,0,0,1,3.85-1.36c2.16,0,3.28,1.08,3.28,3.06v.7h-3.67c-3.32,0-4.47,1.5-4.47,3.28,0,2,1.61,3.37,4.23,3.37a4.35,4.35,0,0,0,4-1.92v1.81h1.49v-7.18c0-3-1.69-4.48-4.68-4.48Zm-.55,10.53c-1.85,0-2.93-.83-2.93-2.17,0-1.19.73-2.07,3-2.07h3.63v1.89A3.69,3.69,0,0,1,390.54,223.17Z" fill-rule="evenodd"/><path d="M403.12,224.41c3,0,4.78-1.3,4.78-3.3,0-4.44-7.51-2.09-7.51-5.22,0-1.1.93-1.91,3-1.91a5.88,5.88,0,0,1,3.41,1l.68-1.26a7.85,7.85,0,0,0-4.09-1.07c-3,0-4.58,1.4-4.58,3.3,0,4.57,7.5,2.2,7.5,5.21,0,1.14-.9,1.89-3.1,1.89a6.94,6.94,0,0,1-4.11-1.3l-.71,1.24A7.78,7.78,0,0,0,403.12,224.41Z" fill-rule="evenodd"/><polygon points="51.39 243.06 47.01 252.92 42.67 243.06 41.05 243.06 46.17 254.63 47.78 254.63 52.93 243.06 51.39 243.06" fill-rule="evenodd"/><path d="M55.92,240.53a1.11,1.11,0,0,0,1.14-1.14,1.1,1.1,0,0,0-1.14-1.08,1.11,1.11,0,1,0,0,2.22Zm-.79,14.1h1.56V243.06H55.13Z" fill-rule="evenodd"/><polygon points="69.23 243.06 64.85 252.92 60.52 243.06 58.89 243.06 64.02 254.63 65.62 254.63 70.77 243.06 69.23 243.06" fill-rule="evenodd"/><path d="M73.76,240.53a1.12,1.12,0,0,0,1.15-1.14,1.11,1.11,0,0,0-1.15-1.08,1.11,1.11,0,1,0,0,2.22ZM73,254.63h1.56V243.06H73Z" fill-rule="evenodd"/><path d="M89,248.85A5.51,5.51,0,0,0,83.37,243a5.58,5.58,0,0,0-5.65,5.88,6.12,6.12,0,0,0,10.54,4l-.88-1a4.58,4.58,0,0,1-3.54,1.52,4.29,4.29,0,0,1-4.56-4H89c0-.17,0-.35,0-.48Zm-5.61-4.53a4,4,0,0,1,4.12,3.85H79.28A4,4,0,0,1,83.37,244.32Z" fill-rule="evenodd"/><path d="M98.07,243a4.87,4.87,0,0,0-4.4,2.23v-2.14h-1.5v11.57h1.57v-6.07c0-2.64,1.56-4.18,4-4.18,2.2,0,3.48,1.26,3.48,3.7v6.55h1.56v-6.71C102.82,244.6,100.89,243,98.07,243Z" fill-rule="evenodd"/><path d="M116.11,238.31v6.95a5.07,5.07,0,0,0-4.4-2.29,5.89,5.89,0,0,0,0,11.77,5,5,0,0,0,4.47-2.39v2.28h1.49V238.31Zm-4.27,15.05a4.52,4.52,0,1,1,4.29-4.51A4.24,4.24,0,0,1,111.84,253.36Z" fill-rule="evenodd"/><path d="M126.08,243a7.34,7.34,0,0,0-4.71,1.57l.7,1.16a5.94,5.94,0,0,1,3.85-1.36c2.16,0,3.28,1.08,3.28,3.06v.7h-3.67c-3.33,0-4.47,1.5-4.47,3.28,0,2,1.61,3.36,4.22,3.36a4.35,4.35,0,0,0,4-1.91v1.8h1.49v-7.17c0-3-1.69-4.49-4.68-4.49Zm-.55,10.54c-1.85,0-2.93-.83-2.93-2.18,0-1.18.73-2.06,3-2.06h3.63v1.89A3.69,3.69,0,0,1,125.53,253.51Z" fill-rule="evenodd"/><path d="M138.11,254.74c3,0,4.77-1.29,4.77-3.3,0-4.44-7.5-2.08-7.5-5.21,0-1.1.93-1.91,3-1.91a5.92,5.92,0,0,1,3.41,1l.68-1.26A7.86,7.86,0,0,0,138.4,243c-3,0-4.58,1.41-4.58,3.3,0,4.58,7.5,2.21,7.5,5.22,0,1.14-.9,1.89-3.1,1.89a6.94,6.94,0,0,1-4.11-1.3l-.71,1.23A7.72,7.72,0,0,0,138.11,254.74Z" fill-rule="evenodd"/><path d="M160.53,238.31v6.95a5.07,5.07,0,0,0-4.4-2.29,5.89,5.89,0,0,0,0,11.77,5,5,0,0,0,4.46-2.39v2.28h1.5V238.31Zm-4.27,15.05a4.52,4.52,0,1,1,4.29-4.51A4.24,4.24,0,0,1,156.26,253.36Z" fill-rule="evenodd"/><path d="M176.54,248.85a5.51,5.51,0,0,0-5.61-5.88,5.58,5.58,0,0,0-5.65,5.88,6.12,6.12,0,0,0,10.54,4l-.88-1a4.58,4.58,0,0,1-3.54,1.52,4.29,4.29,0,0,1-4.56-4h9.68c0-.17,0-.35,0-.48Zm-5.61-4.53a4,4,0,0,1,4.12,3.85h-8.21A4,4,0,0,1,170.93,244.32Z" fill-rule="evenodd"/><path d="M191,252.81a2.61,2.61,0,0,1-1.71.59,1.86,1.86,0,0,1-2-2.11v-6.91h3.52v-1.32h-3.52v-2.53h-1.56v2.53h-2.07v1.32h2.07v7a3.06,3.06,0,0,0,3.39,3.36,3.7,3.7,0,0,0,2.44-.81Z" fill-rule="evenodd"/><path d="M203.3,243.06v6.07c0,2.64-1.52,4.21-3.94,4.21-2.2,0-3.48-1.26-3.48-3.72v-6.56h-1.56v6.71c0,3.32,1.94,5,4.88,5a4.59,4.59,0,0,0,4.16-2.22v2.11h1.5V243.06Z" fill-rule="evenodd"/><polygon points="215.75 253.34 223.03 244.1 223.03 243.06 213.88 243.06 213.88 244.38 221.03 244.38 213.75 253.6 213.75 254.63 223.16 254.63 223.16 253.34 215.75 253.34" fill-rule="evenodd"/><path d="M230.77,254.74a5.89,5.89,0,1,0-5.89-5.89,5.69,5.69,0,0,0,5.89,5.89Zm0-1.38a4.52,4.52,0,1,1,4.29-4.51A4.24,4.24,0,0,1,230.77,253.36Z" fill-rule="evenodd"/><path d="M245.73,243a4.87,4.87,0,0,0-4.4,2.23v-2.14h-1.49v11.57h1.56v-6.07c0-2.64,1.56-4.18,4-4.18,2.2,0,3.47,1.26,3.47,3.7v6.55h1.57v-6.71C250.49,244.6,248.55,243,245.73,243Z" fill-rule="evenodd"/><path d="M258.78,243a7.36,7.36,0,0,0-4.71,1.57l.71,1.16a5.9,5.9,0,0,1,3.85-1.36c2.15,0,3.27,1.08,3.27,3.06v.7h-3.67c-3.32,0-4.47,1.5-4.47,3.28,0,2,1.61,3.36,4.23,3.36a4.34,4.34,0,0,0,4-1.91v1.8h1.5v-7.17c0-3-1.7-4.49-4.69-4.49Zm-.55,10.54c-1.85,0-2.93-.83-2.93-2.18,0-1.18.73-2.06,3-2.06h3.63v1.89A3.69,3.69,0,0,1,258.23,253.51Z" fill-rule="evenodd"/><path d="M267.89,252.35a1.15,1.15,0,0,0-1.17,1.18,1.12,1.12,0,0,0,.79,1.13l-.74,3.19h1.05l.93-3a3.55,3.55,0,0,0,.3-1.28A1.14,1.14,0,0,0,267.89,252.35Z" fill-rule="evenodd"/><path d="M286.32,243.06,282,252.9l-4.36-9.84H276l5.17,11.55-.5,1.12c-.66,1.46-1.37,1.94-2.4,1.94a2.88,2.88,0,0,1-2.11-.88l-.73,1.17a4,4,0,0,0,2.82,1.05c1.65,0,2.88-.72,3.85-3l5.78-13Z" fill-rule="evenodd"/><path d="M299.88,243a7.34,7.34,0,0,0-4.71,1.57l.7,1.16a5.94,5.94,0,0,1,3.85-1.36c2.16,0,3.28,1.08,3.28,3.06v.7h-3.67c-3.33,0-4.47,1.5-4.47,3.28,0,2,1.61,3.36,4.22,3.36a4.35,4.35,0,0,0,4-1.91v1.8h1.49v-7.17c0-3-1.69-4.49-4.68-4.49Zm-.55,10.54c-1.85,0-2.93-.83-2.93-2.18,0-1.18.73-2.06,3-2.06H303v1.89A3.69,3.69,0,0,1,299.33,253.51Z" fill-rule="evenodd"/><rect x="308.81" y="238.31" width="1.56" height="16.32"/><path d="M334.92,243a5,5,0,0,0-4.57,2.45,4.17,4.17,0,0,0-4.12-2.45,4.68,4.68,0,0,0-4.24,2.2v-2.11h-1.5v11.57h1.56v-6.07c0-2.64,1.52-4.18,3.87-4.18,2.12,0,3.35,1.26,3.35,3.7v6.55h1.56v-6.07c0-2.64,1.5-4.18,3.87-4.18,2.09,0,3.32,1.26,3.32,3.7v6.55h1.57v-6.71C339.59,244.6,337.74,243,334.92,243Z" fill-rule="evenodd"/><path d="M344.62,240.53a1.12,1.12,0,0,0,1.15-1.14,1.11,1.11,0,0,0-1.15-1.08,1.11,1.11,0,1,0,0,2.22Zm-.79,14.1h1.56V243.06h-1.56Z" fill-rule="evenodd"/><path d="M352.85,254.74c3,0,4.78-1.29,4.78-3.3,0-4.44-7.51-2.08-7.51-5.21,0-1.1.93-1.91,3-1.91a5.88,5.88,0,0,1,3.41,1l.68-1.26a7.86,7.86,0,0,0-4.09-1.08c-2.95,0-4.58,1.41-4.58,3.3,0,4.58,7.5,2.21,7.5,5.22,0,1.14-.9,1.89-3.1,1.89a6.94,6.94,0,0,1-4.11-1.3l-.71,1.23A7.72,7.72,0,0,0,352.85,254.74Z" fill-rule="evenodd"/><path d="M374.94,243a5,5,0,0,0-4.58,2.45,4.15,4.15,0,0,0-4.11-2.45,4.7,4.7,0,0,0-4.25,2.2v-2.11h-1.49v11.57h1.56v-6.07c0-2.64,1.52-4.18,3.87-4.18,2.11,0,3.35,1.26,3.35,3.7v6.55h1.56v-6.07c0-2.64,1.49-4.18,3.87-4.18,2.09,0,3.32,1.26,3.32,3.7v6.55h1.56v-6.71C379.6,244.6,377.76,243,374.94,243Z" fill-rule="evenodd"/><path d="M388.62,254.74a5.89,5.89,0,1,0-5.89-5.89,5.69,5.69,0,0,0,5.89,5.89Zm0-1.38a4.52,4.52,0,1,1,4.29-4.51A4.24,4.24,0,0,1,388.62,253.36Z" fill-rule="evenodd"/><path d="M63.19,283.15a2.62,2.62,0,0,1-1.72.59,1.86,1.86,0,0,1-2-2.11v-6.91H63V273.4H59.47v-2.53H57.91v2.53H55.84v1.32h2.07v7a3.06,3.06,0,0,0,3.39,3.36,3.72,3.72,0,0,0,2.44-.81Z" fill-rule="evenodd"/><path d="M67.37,270.87a1.12,1.12,0,0,0,1.14-1.14,1.1,1.1,0,0,0-1.14-1.08,1.11,1.11,0,1,0,0,2.22ZM66.58,285h1.56V273.4H66.58Z" fill-rule="evenodd"/><path d="M82.59,279.19A5.51,5.51,0,0,0,77,273.31a5.57,5.57,0,0,0-5.65,5.88,6.12,6.12,0,0,0,10.54,4l-.88-1a4.58,4.58,0,0,1-3.54,1.52,4.29,4.29,0,0,1-4.56-4h9.68c0-.18,0-.35,0-.48ZM77,274.65a4,4,0,0,1,4.12,3.85H72.89A4,4,0,0,1,77,274.65Z" fill-rule="evenodd"/><path d="M100.22,273.31a5.06,5.06,0,0,0-4.58,2.44,4.16,4.16,0,0,0-4.11-2.44,4.69,4.69,0,0,0-4.25,2.2V273.4h-1.5V285h1.57V278.9c0-2.64,1.51-4.18,3.87-4.18,2.11,0,3.34,1.25,3.34,3.7V285h1.56V278.9c0-2.64,1.5-4.18,3.88-4.18,2.09,0,3.32,1.25,3.32,3.7V285h1.56v-6.71C104.88,274.94,103,273.31,100.22,273.31Z" fill-rule="evenodd"/><path d="M115.09,273.31a5,5,0,0,0-4.47,2.38V273.4h-1.49v15.84h1.56v-6.45a5,5,0,0,0,4.4,2.29,5.89,5.89,0,0,0,0-11.77ZM115,283.7a4.51,4.51,0,1,1,4.31-4.51A4.24,4.24,0,0,1,115,283.7Z" fill-rule="evenodd"/><path d="M128.77,285.08a5.89,5.89,0,1,0-5.89-5.89,5.69,5.69,0,0,0,5.89,5.89Zm0-1.38a4.52,4.52,0,1,1,4.29-4.51A4.24,4.24,0,0,1,128.77,283.7Z" fill-rule="evenodd"/><path d="M149.14,283.15a2.59,2.59,0,0,1-1.71.59,1.85,1.85,0,0,1-2-2.11v-6.91H149V273.4h-3.52v-2.53h-1.57v2.53H141.8v1.32h2.06v7a3.06,3.06,0,0,0,3.39,3.36,3.7,3.7,0,0,0,2.44-.81Z" fill-rule="evenodd"/><path d="M156.58,273.31a7.35,7.35,0,0,0-4.71,1.56l.71,1.17a5.85,5.85,0,0,1,3.85-1.36c2.15,0,3.27,1.07,3.27,3.05v.71H156c-3.32,0-4.47,1.49-4.47,3.28,0,2,1.61,3.36,4.23,3.36a4.34,4.34,0,0,0,4-1.91V285h1.5V277.8c0-3-1.7-4.49-4.69-4.49ZM156,283.85c-1.85,0-2.93-.84-2.93-2.18s.73-2.07,3-2.07h3.63v1.9A3.7,3.7,0,0,1,156,283.85Z" fill-rule="evenodd"/><path d="M179.94,273.31a5,5,0,0,0-4.57,2.44,4.17,4.17,0,0,0-4.12-2.44,4.68,4.68,0,0,0-4.24,2.2V273.4h-1.5V285h1.56V278.9c0-2.64,1.52-4.18,3.88-4.18,2.11,0,3.34,1.25,3.34,3.7V285h1.56V278.9c0-2.64,1.5-4.18,3.87-4.18,2.09,0,3.33,1.25,3.33,3.7V285h1.56v-6.71C184.61,274.94,182.76,273.31,179.94,273.31Z" fill-rule="evenodd"/><path d="M194.82,273.31a5,5,0,0,0-4.4,2.29v-7h-1.57V285h1.5v-2.29a5,5,0,0,0,4.47,2.4,5.89,5.89,0,0,0,0-11.77Zm-.11,10.39a4.51,4.51,0,1,1,4.31-4.51A4.24,4.24,0,0,1,194.71,283.7Z" fill-rule="evenodd"/><path d="M204.56,270.87a1.13,1.13,0,0,0,1.15-1.14,1.15,1.15,0,0,0-2.29,0,1.13,1.13,0,0,0,1.14,1.12Zm-.79,14.1h1.56V273.4h-1.56Z" fill-rule="evenodd"/><path d="M217.85,268.89h-2.09l-3,2.73h1.54l3.56-2.73Zm1.94,10.3a5.52,5.52,0,0,0-5.61-5.88,5.58,5.58,0,0,0-5.66,5.88,6.12,6.12,0,0,0,10.54,4l-.88-1a4.56,4.56,0,0,1-3.54,1.52,4.29,4.29,0,0,1-4.56-4h9.68c0-.18,0-.35,0-.48Zm-5.61-4.54a4,4,0,0,1,4.11,3.85h-8.21A4,4,0,0,1,214.18,274.65Z" fill-rule="evenodd"/><path d="M228.87,273.31a4.89,4.89,0,0,0-4.4,2.22V273.4H223V285h1.57V278.9c0-2.64,1.56-4.18,4.05-4.18,2.2,0,3.47,1.25,3.47,3.7V285h1.56v-6.71C233.62,274.94,231.69,273.31,228.87,273.31Z" fill-rule="evenodd"/><path d="M249.6,273.31a5,5,0,0,0-4.47,2.38V273.4h-1.5v15.84h1.57v-6.45a5,5,0,0,0,4.4,2.29,5.89,5.89,0,0,0,0-11.77Zm-.11,10.39a4.51,4.51,0,1,1,4.31-4.51A4.24,4.24,0,0,1,249.49,283.7Z" fill-rule="evenodd"/><path d="M263.28,285.08a5.89,5.89,0,1,0-5.9-5.89,5.68,5.68,0,0,0,5.9,5.89Zm0-1.38a4.52,4.52,0,1,1,4.29-4.51A4.24,4.24,0,0,1,263.28,283.7Z" fill-rule="evenodd"/><path d="M281.34,268.65v7a5,5,0,0,0-4.4-2.29,5.89,5.89,0,0,0,0,11.77,5,5,0,0,0,4.47-2.4V285h1.49V268.65Zm-4.27,15.05a4.52,4.52,0,1,1,4.29-4.51A4.24,4.24,0,0,1,277.07,283.7Z" fill-rule="evenodd"/><path d="M288.75,275.67V273.4h-1.49V285h1.56v-5.89c0-2.73,1.47-4.27,3.89-4.27l.38,0v-1.52C291,273.31,289.48,274.13,288.75,275.67Z" fill-rule="evenodd"/><path d="M303.65,268.89h-2.09l-3,2.73h1.55l3.56-2.73Zm-3.72,4.42a7.37,7.37,0,0,0-4.71,1.56l.71,1.17a5.85,5.85,0,0,1,3.85-1.36c2.15,0,3.28,1.07,3.28,3.05v.71h-3.68c-3.32,0-4.46,1.49-4.46,3.28,0,2,1.6,3.36,4.22,3.36a4.34,4.34,0,0,0,4-1.91V285h1.5V277.8c0-3-1.7-4.49-4.69-4.49Zm-.55,10.54c-1.85,0-2.93-.84-2.93-2.18s.73-2.07,3-2.07h3.63v1.9A3.72,3.72,0,0,1,299.38,283.85Z" fill-rule="evenodd"/><path d="M312,285.08c3,0,4.77-1.3,4.77-3.3,0-4.44-7.5-2.08-7.5-5.21,0-1.1.92-1.92,3-1.92a6,6,0,0,1,3.41,1l.68-1.25a7.83,7.83,0,0,0-4.09-1.08c-2.95,0-4.58,1.41-4.58,3.3,0,4.58,7.51,2.21,7.51,5.22,0,1.14-.91,1.89-3.11,1.89a7,7,0,0,1-4.11-1.3l-.7,1.23A7.67,7.67,0,0,0,312,285.08Z" fill-rule="evenodd"/><path d="M331.35,273.31a5,5,0,0,0-4.47,2.38V273.4h-1.5v15.84H327v-6.45a5,5,0,0,0,4.4,2.29,5.89,5.89,0,0,0,0-11.77Zm-.11,10.39a4.51,4.51,0,1,1,4.31-4.51A4.24,4.24,0,0,1,331.24,283.7Z" fill-rule="evenodd"/><path d="M350.4,279.19a5.52,5.52,0,0,0-5.61-5.88,5.58,5.58,0,0,0-5.66,5.88,6.12,6.12,0,0,0,10.54,4l-.88-1a4.56,4.56,0,0,1-3.54,1.52,4.28,4.28,0,0,1-4.55-4h9.68c0-.18,0-.35,0-.48Zm-5.61-4.54a4,4,0,0,1,4.11,3.85h-8.2A4,4,0,0,1,344.79,274.65Z" fill-rule="evenodd"/><path d="M362.59,268.65v7a5.06,5.06,0,0,0-4.4-2.29,5.89,5.89,0,0,0,0,11.77,5,5,0,0,0,4.46-2.4V285h1.5V268.65Zm-4.27,15.05a4.52,4.52,0,1,1,4.29-4.51A4.24,4.24,0,0,1,358.32,283.7Z" fill-rule="evenodd"/><path d="M369.3,270.87a1.12,1.12,0,0,0,1.14-1.14,1.11,1.11,0,0,0-1.14-1.08,1.11,1.11,0,1,0,0,2.22Zm-.8,14.1h1.57V273.4H368.5Z" fill-rule="evenodd"/><path d="M375.92,275.67V273.4h-1.5V285H376v-5.89c0-2.73,1.48-4.27,3.9-4.27l.37,0v-1.52C378.12,273.31,376.64,274.13,375.92,275.67Z" fill-rule="evenodd"/><path d="M51.81,315.42a5.11,5.11,0,0,0,4.53-2.29l-1.17-.79A3.89,3.89,0,0,1,51.81,314a4.51,4.51,0,0,1,0-9,3.92,3.92,0,0,1,3.36,1.72l1.17-.79a5.06,5.06,0,0,0-4.53-2.29,5.89,5.89,0,1,0,0,11.77Z" fill-rule="evenodd"/><path d="M63.93,315.42a5.89,5.89,0,1,0-5.9-5.9,5.69,5.69,0,0,0,5.9,5.9Zm0-1.39a4.52,4.52,0,1,1,4.29-4.51A4.23,4.23,0,0,1,63.93,314Z" fill-rule="evenodd"/><path d="M78.89,303.65a4.85,4.85,0,0,0-4.4,2.22v-2.13H73v11.57h1.56v-6.07c0-2.64,1.57-4.18,4-4.18,2.2,0,3.48,1.25,3.48,3.69v6.56h1.56V308.6C83.64,305.28,81.7,303.65,78.89,303.65Z" fill-rule="evenodd"/><path d="M91,315.42c3,0,4.77-1.3,4.77-3.3,0-4.44-7.5-2.09-7.5-5.21,0-1.1.92-1.92,3-1.92a6,6,0,0,1,3.41,1l.69-1.25a7.87,7.87,0,0,0-4.1-1.08c-2.94,0-4.57,1.41-4.57,3.3,0,4.58,7.5,2.2,7.5,5.21,0,1.15-.9,1.9-3.1,1.9a7.06,7.06,0,0,1-4.12-1.3l-.7,1.23A7.76,7.76,0,0,0,91,315.42Z" fill-rule="evenodd"/><path d="M108.74,309.52a5.51,5.51,0,0,0-5.61-5.87,5.57,5.57,0,0,0-5.65,5.87,6.12,6.12,0,0,0,10.54,4l-.88-1a4.58,4.58,0,0,1-3.55,1.51A4.28,4.28,0,0,1,99,310h9.68c0-.18,0-.35,0-.49ZM103.13,305a4,4,0,0,1,4.12,3.85H99A4,4,0,0,1,103.13,305Z" fill-rule="evenodd"/><path d="M112.83,301.21a1.13,1.13,0,0,0,1.15-1.15,1.11,1.11,0,0,0-1.15-1.07,1.11,1.11,0,1,0,0,2.22Zm-2.61,18.48c2.2,0,3.38-1.39,3.38-3.52V303.74H112v12.43c0,1.43-.68,2.18-1.91,2.18a2.71,2.71,0,0,1-1.81-.6l-.55,1.19A3.81,3.81,0,0,0,110.22,319.69Z" fill-rule="evenodd"/><path d="M122.69,315.42a5.89,5.89,0,1,0-5.9-5.9,5.69,5.69,0,0,0,5.9,5.9Zm0-1.39a4.52,4.52,0,1,1,4.29-4.51A4.24,4.24,0,0,1,122.69,314Z" fill-rule="evenodd"/><path d="M141.57,303.65a7.33,7.33,0,0,0-4.71,1.56l.7,1.17a5.9,5.9,0,0,1,3.85-1.37c2.16,0,3.28,1.08,3.28,3.06v.71H141c-3.33,0-4.47,1.49-4.47,3.27,0,2,1.61,3.37,4.22,3.37a4.37,4.37,0,0,0,4-1.91v1.8h1.49v-7.17c0-3-1.69-4.49-4.68-4.49ZM141,314.19c-1.85,0-2.93-.84-2.93-2.18,0-1.19.73-2.07,3-2.07h3.63v1.89A3.7,3.7,0,0,1,141,314.19Z" fill-rule="evenodd"/><rect x="156.26" y="298.99" width="1.56" height="16.32"/><path d="M166.91,315.42a5.89,5.89,0,1,0-5.9-5.9,5.69,5.69,0,0,0,5.9,5.9Zm0-1.39a4.52,4.52,0,1,1,4.29-4.51A4.23,4.23,0,0,1,166.91,314Z" fill-rule="evenodd"/><path d="M179.07,315.42c3,0,4.78-1.3,4.78-3.3,0-4.44-7.5-2.09-7.5-5.21,0-1.1.92-1.92,3-1.92a6,6,0,0,1,3.41,1l.68-1.25a7.83,7.83,0,0,0-4.09-1.08c-3,0-4.58,1.41-4.58,3.3,0,4.58,7.51,2.2,7.51,5.21,0,1.15-.91,1.9-3.11,1.9a7,7,0,0,1-4.11-1.3l-.7,1.23A7.73,7.73,0,0,0,179.07,315.42Z" fill-rule="evenodd"/><path d="M193.29,301.21a1.12,1.12,0,0,0,1.14-1.15,1.11,1.11,0,0,0-1.14-1.07,1.11,1.11,0,1,0,0,2.22Zm-.8,14.1h1.57V303.74h-1.57Z" fill-rule="evenodd"/><path d="M204.31,303.65a4.85,4.85,0,0,0-4.4,2.22v-2.13h-1.5v11.57H200v-6.07c0-2.64,1.57-4.18,4.05-4.18,2.2,0,3.48,1.25,3.48,3.69v6.56h1.56V308.6C209.06,305.28,207.12,303.65,204.31,303.65Z" fill-rule="evenodd"/><path d="M227.74,303.65a5.06,5.06,0,0,0-4.58,2.44,4.15,4.15,0,0,0-4.11-2.44,4.68,4.68,0,0,0-4.25,2.2v-2.11h-1.49v11.57h1.56v-6.07c0-2.64,1.52-4.18,3.87-4.18,2.11,0,3.34,1.25,3.34,3.69v6.56h1.57v-6.07c0-2.64,1.49-4.18,3.87-4.18,2.09,0,3.32,1.25,3.32,3.69v6.56h1.56V308.6C232.4,305.28,230.55,303.65,227.74,303.65Z" fill-rule="evenodd"/><path d="M241.42,315.42a5.89,5.89,0,1,0-5.89-5.9,5.69,5.69,0,0,0,5.89,5.9Zm0-1.39a4.52,4.52,0,1,1,4.29-4.51A4.24,4.24,0,0,1,241.42,314Z" fill-rule="evenodd"/><path d="M256.45,303.65a5,5,0,0,0-4.4,2.29V299h-1.56v16.32H252V313a5,5,0,0,0,4.47,2.4,5.89,5.89,0,0,0,0-11.77ZM256.34,314a4.51,4.51,0,1,1,4.31-4.51A4.23,4.23,0,0,1,256.34,314Z" fill-rule="evenodd"/><path d="M266.19,301.21a1.13,1.13,0,0,0,1.15-1.15,1.11,1.11,0,0,0-1.15-1.07,1.11,1.11,0,1,0,0,2.22Zm-.79,14.1H267V303.74H265.4Z" fill-rule="evenodd"/><rect x="271.32" y="298.99" width="1.56" height="16.32"/><path d="M278,301.21a1.12,1.12,0,0,0,1.14-1.15A1.1,1.1,0,0,0,278,299a1.11,1.11,0,1,0,0,2.22Zm-.79,14.1h1.56V303.74h-1.56Z" fill-rule="evenodd"/><path d="M287.2,303.65a7.32,7.32,0,0,0-4.7,1.56l.7,1.17a5.88,5.88,0,0,1,3.85-1.37c2.16,0,3.28,1.08,3.28,3.06v.71h-3.68c-3.32,0-4.46,1.49-4.46,3.27,0,2,1.6,3.37,4.22,3.37a4.34,4.34,0,0,0,4-1.91v1.8h1.5v-7.17c0-3-1.69-4.49-4.69-4.49Zm-.55,10.54c-1.84,0-2.92-.84-2.92-2.18,0-1.19.72-2.07,3-2.07h3.63v1.89A3.72,3.72,0,0,1,286.65,314.19Z" fill-rule="evenodd"/><path d="M297.63,306v-2.26h-1.49v11.57h1.56v-5.9c0-2.72,1.47-4.26,3.89-4.26l.38,0v-1.52C299.83,303.65,298.36,304.46,297.63,306Z" fill-rule="evenodd"/><path d="M305.57,301.21a1.13,1.13,0,0,0,1.15-1.15,1.11,1.11,0,0,0-1.15-1.07,1.11,1.11,0,1,0,0,2.22Zm-.79,14.1h1.56V303.74h-1.56Z" fill-rule="evenodd"/><path d="M315.43,315.42a5.89,5.89,0,1,0-5.9-5.9,5.69,5.69,0,0,0,5.9,5.9Zm0-1.39a4.52,4.52,0,1,1,4.29-4.51A4.24,4.24,0,0,1,315.43,314Z" fill-rule="evenodd"/><path d="M327.6,315.42c3,0,4.77-1.3,4.77-3.3,0-4.44-7.5-2.09-7.5-5.21,0-1.1.92-1.92,3-1.92a6,6,0,0,1,3.41,1l.68-1.25a7.8,7.8,0,0,0-4.09-1.08c-2.95,0-4.57,1.41-4.57,3.3,0,4.58,7.5,2.2,7.5,5.21,0,1.15-.9,1.9-3.1,1.9a7.06,7.06,0,0,1-4.12-1.3l-.7,1.23A7.74,7.74,0,0,0,327.6,315.42Z" fill-rule="evenodd"/><path d="M350,299v6.95a5,5,0,0,0-4.4-2.29,5.89,5.89,0,0,0,0,11.77,5,5,0,0,0,4.47-2.4v2.29h1.5V299Zm-4.26,15a4.52,4.52,0,1,1,4.29-4.51A4.24,4.24,0,0,1,345.75,314Z" fill-rule="evenodd"/><path d="M366,309.52a5.63,5.63,0,1,0-11.26,0,6.11,6.11,0,0,0,10.53,4l-.88-1a4.55,4.55,0,0,1-3.54,1.51,4.27,4.27,0,0,1-4.55-4H366c0-.18,0-.35,0-.49ZM360.42,305a4,4,0,0,1,4.11,3.85h-8.2A4,4,0,0,1,360.42,305Z" fill-rule="evenodd"/><rect x="374.98" y="298.99" width="1.56" height="16.32"/><path d="M385,303.65a7.35,7.35,0,0,0-4.71,1.56l.71,1.17A5.86,5.86,0,0,1,384.8,305c2.15,0,3.27,1.08,3.27,3.06v.71H384.4c-3.32,0-4.47,1.49-4.47,3.27,0,2,1.61,3.37,4.23,3.37a4.36,4.36,0,0,0,4-1.91v1.8h1.5v-7.17c0-3-1.7-4.49-4.69-4.49Zm-.55,10.54c-1.85,0-2.93-.84-2.93-2.18,0-1.19.73-2.07,3-2.07h3.63v1.89A3.69,3.69,0,0,1,384.4,314.19Z" fill-rule="evenodd"/><path d="M76.76,334a5,5,0,0,0-4.46,2.37v-2.28H70.8v15.84h1.56v-6.45a5.06,5.06,0,0,0,4.4,2.29,5.89,5.89,0,0,0,0-11.77Zm-.11,10.38A4.51,4.51,0,1,1,81,339.86,4.24,4.24,0,0,1,76.65,344.37Z" fill-rule="evenodd"/><rect x="85.72" y="329.32" width="1.56" height="16.32"/><path d="M95.68,334a7.32,7.32,0,0,0-4.7,1.56l.7,1.17a5.88,5.88,0,0,1,3.85-1.37c2.16,0,3.28,1.08,3.28,3.06v.7H95.13c-3.32,0-4.46,1.5-4.46,3.28,0,2,1.6,3.37,4.22,3.37a4.33,4.33,0,0,0,4-1.92v1.81h1.5v-7.17c0-3-1.69-4.49-4.69-4.49Zm-.55,10.54c-1.84,0-2.92-.84-2.92-2.18s.72-2.07,3-2.07h3.63v1.89A3.72,3.72,0,0,1,95.13,344.53Z" fill-rule="evenodd"/><path d="M110.16,343.82a2.58,2.58,0,0,1-1.72.6,1.86,1.86,0,0,1-2-2.12v-6.9H110v-1.32h-3.52v-2.53h-1.56v2.53h-2.07v1.32h2.07v7a3.07,3.07,0,0,0,3.39,3.37,3.73,3.73,0,0,0,2.44-.82Z" fill-rule="evenodd"/><path d="M117.6,334a7.33,7.33,0,0,0-4.71,1.56l.7,1.17a5.9,5.9,0,0,1,3.85-1.37c2.16,0,3.28,1.08,3.28,3.06v.7h-3.67c-3.33,0-4.47,1.5-4.47,3.28,0,2,1.61,3.37,4.22,3.37a4.36,4.36,0,0,0,4-1.92v1.81h1.49v-7.17c0-3-1.69-4.49-4.68-4.49Zm-.55,10.54c-1.85,0-2.93-.84-2.93-2.18s.73-2.07,3-2.07h3.63v1.89A3.7,3.7,0,0,1,117.05,344.53Z" fill-rule="evenodd"/><path d="M130.36,330.53a2.6,2.6,0,0,1,1.71.58l.53-1.17a3.69,3.69,0,0,0-2.31-.73,3.19,3.19,0,0,0-3.5,3.44v1.43h-2.07v1.32h2.07v10.25h1.56V335.4h3.52v-1.32h-3.56v-1.37C128.31,331.28,129,330.53,130.36,330.53Z" fill-rule="evenodd"/><path d="M138.52,345.76a5.89,5.89,0,1,0-5.9-5.9,5.69,5.69,0,0,0,5.9,5.9Zm0-1.39a4.52,4.52,0,1,1,4.29-4.51A4.23,4.23,0,0,1,138.52,344.37Z" fill-rule="evenodd"/><path d="M149.08,336.34v-2.26h-1.5v11.57h1.56v-5.9c0-2.73,1.48-4.27,3.9-4.27.11,0,.24,0,.37,0V334C151.28,334,149.8,334.8,149.08,336.34Z" fill-rule="evenodd"/><path d="M170.66,334a5,5,0,0,0-4.58,2.44A4.15,4.15,0,0,0,162,334a4.68,4.68,0,0,0-4.25,2.2v-2.11h-1.49v11.57h1.56v-6.07c0-2.64,1.52-4.18,3.87-4.18,2.11,0,3.35,1.25,3.35,3.69v6.56h1.56v-6.07c0-2.64,1.49-4.18,3.87-4.18,2.09,0,3.32,1.25,3.32,3.69v6.56h1.56v-6.71C175.32,335.62,173.48,334,170.66,334Z" fill-rule="evenodd"/><path d="M183.62,334a7.35,7.35,0,0,0-4.71,1.56l.7,1.17a5.9,5.9,0,0,1,3.85-1.37c2.16,0,3.28,1.08,3.28,3.06v.7h-3.67c-3.33,0-4.47,1.5-4.47,3.28,0,2,1.61,3.37,4.23,3.37a4.35,4.35,0,0,0,4-1.92v1.81h1.49v-7.17c0-3-1.69-4.49-4.68-4.49Zm-.55,10.54c-1.85,0-2.93-.84-2.93-2.18s.73-2.07,3-2.07h3.63v1.89A3.69,3.69,0,0,1,183.07,344.53Z" fill-rule="evenodd"/><path d="M207.38,334.08v2.28a5.05,5.05,0,0,0-4.47-2.37,5.89,5.89,0,0,0,0,11.77,5,5,0,0,0,4.4-2.29v6.45h1.56V334.08ZM203,344.37a4.52,4.52,0,1,1,4.29-4.51A4.24,4.24,0,0,1,203,344.37Z" fill-rule="evenodd"/><path d="M222.09,334.08v6.07c0,2.64-1.51,4.2-3.93,4.2-2.2,0-3.48-1.25-3.48-3.72v-6.55h-1.56v6.71c0,3.32,1.93,5,4.88,5a4.61,4.61,0,0,0,4.16-2.22v2.11h1.5V334.08Z" fill-rule="evenodd"/><path d="M238.13,339.86a5.51,5.51,0,0,0-5.61-5.87,5.57,5.57,0,0,0-5.65,5.87,6.12,6.12,0,0,0,10.54,4l-.88-1a4.55,4.55,0,0,1-3.55,1.52,4.28,4.28,0,0,1-4.55-4h9.68c0-.18,0-.36,0-.49Zm-5.61-4.53a4,4,0,0,1,4.12,3.85h-8.21A4,4,0,0,1,232.52,335.33Z" fill-rule="evenodd"/><path d="M251.88,345.76a5.08,5.08,0,0,0,4.53-2.29l-1.16-.79a3.93,3.93,0,0,1-3.37,1.69,4.51,4.51,0,0,1,0-9,3.93,3.93,0,0,1,3.37,1.72l1.16-.79a5,5,0,0,0-4.53-2.29,5.89,5.89,0,1,0,0,11.77Z" fill-rule="evenodd"/><path d="M264,345.76a5.89,5.89,0,1,0-5.89-5.9,5.7,5.7,0,0,0,5.89,5.9Zm0-1.39a4.52,4.52,0,1,1,4.29-4.51A4.24,4.24,0,0,1,264,344.37Z" fill-rule="evenodd"/><path d="M279,334a4.86,4.86,0,0,0-4.4,2.22v-2.13h-1.49v11.57h1.56v-6.07c0-2.64,1.56-4.18,4.05-4.18,2.2,0,3.47,1.25,3.47,3.69v6.56h1.57v-6.71C283.72,335.62,281.78,334,279,334Z" fill-rule="evenodd"/><path d="M291.06,345.76c3,0,4.78-1.3,4.78-3.3,0-4.44-7.5-2.09-7.5-5.22,0-1.1.92-1.91,3-1.91a6,6,0,0,1,3.41,1l.68-1.25a7.83,7.83,0,0,0-4.09-1.08c-3,0-4.58,1.41-4.58,3.3,0,4.57,7.51,2.2,7.51,5.21,0,1.15-.91,1.89-3.11,1.89a7,7,0,0,1-4.11-1.29l-.7,1.23A7.73,7.73,0,0,0,291.06,345.76Z" fill-rule="evenodd"/><path d="M299.51,331.55a1.13,1.13,0,0,0,1.15-1.15,1.15,1.15,0,0,0-2.29,0,1.13,1.13,0,0,0,1.14,1.13Zm-.79,14.1h1.56V334.08h-1.56Z" fill-rule="evenodd"/><path d="M313.64,329.32v7a5.06,5.06,0,0,0-4.4-2.29,5.89,5.89,0,0,0,0,11.77,5,5,0,0,0,4.46-2.4v2.29h1.5V329.32Zm-4.27,15.05a4.52,4.52,0,1,1,4.29-4.51A4.23,4.23,0,0,1,309.37,344.37Z" fill-rule="evenodd"/><path d="M329.65,339.86A5.51,5.51,0,0,0,324,334a5.57,5.57,0,0,0-5.65,5.87,6.12,6.12,0,0,0,10.54,4l-.88-1a4.55,4.55,0,0,1-3.55,1.52,4.28,4.28,0,0,1-4.55-4h9.68c0-.18,0-.36,0-.49ZM324,335.33a4,4,0,0,1,4.12,3.85H320A4,4,0,0,1,324,335.33Z" fill-rule="evenodd"/><path d="M334.34,336.34v-2.26h-1.5v11.57h1.56v-5.9c0-2.73,1.48-4.27,3.9-4.27.11,0,.24,0,.37,0V334C336.54,334,335.06,334.8,334.34,336.34Z" fill-rule="evenodd"/><path d="M351.48,339.86a5.52,5.52,0,0,0-5.61-5.87,5.57,5.57,0,0,0-5.66,5.87,6.12,6.12,0,0,0,10.54,4l-.88-1a4.53,4.53,0,0,1-3.54,1.52,4.29,4.29,0,0,1-4.56-4h9.68c0-.18,0-.36,0-.49Zm-5.61-4.53a4,4,0,0,1,4.11,3.85h-8.21A4,4,0,0,1,345.87,335.33Z" fill-rule="evenodd"/><path d="M357.77,345.76c3,0,4.77-1.3,4.77-3.3,0-4.44-7.5-2.09-7.5-5.22,0-1.1.92-1.91,3-1.91a6,6,0,0,1,3.41,1l.69-1.25a7.87,7.87,0,0,0-4.1-1.08c-2.94,0-4.57,1.41-4.57,3.3,0,4.57,7.5,2.2,7.5,5.21,0,1.15-.9,1.89-3.1,1.89a7.06,7.06,0,0,1-4.12-1.29l-.7,1.23A7.76,7.76,0,0,0,357.77,345.76Z" fill-rule="evenodd"/><path d="M365.58,345.76a1.2,1.2,0,0,0,1.19-1.21,1.19,1.19,0,0,0-1.19-1.19,1.17,1.17,0,0,0-1.17,1.19A1.19,1.19,0,0,0,365.58,345.76Z" fill-rule="evenodd"/></svg>