<svg id="Capa_1" data-name="Capa 1" xmlns="http://www.w3.org/2000/svg" xmlns:xlink="http://www.w3.org/1999/xlink" width="154mm" height="154mm" viewBox="0 0 436.54 436.54"><defs><linearGradient id="GradientFill_3" x1="467.94" y1="287.59" x2="77.21" y2="179.1" gradientUnits="userSpaceOnUse"><stop offset="0" stop-color="#f3cf1c"/><stop offset="0.77" stop-color="#f4ae21"/><stop offset="1" stop-color="#f4ae21"/></linearGradient></defs><title>QUESITO AMARILLO CIRCULO 4</title><circle cx="218.27" cy="218.27" r="218.04" fill="url(#GradientFill_3)"/><path d="M201.51,28.47h-5.76v15.4h1.63V39h4.13c3.92,0,6.3-2,6.3-5.26s-2.38-5.28-6.3-5.28Zm0,9.11h-4.09v-7.7h4.09c3.08,0,4.71,1.41,4.71,3.87S204.55,37.58,201.47,37.58Z" fill-rule="evenodd"/><path d="M214.93,32.21a7.33,7.33,0,0,0-4.7,1.57l.7,1.16a5.92,5.92,0,0,1,3.85-1.36c2.16,0,3.28,1.08,3.28,3.06v.7h-3.68c-3.32,0-4.46,1.5-4.46,3.28,0,2,1.6,3.36,4.22,3.36a4.32,4.32,0,0,0,4-1.91v1.8h1.5V36.7c0-3-1.69-4.49-4.69-4.49Zm-.55,10.54c-1.84,0-2.92-.83-2.92-2.18,0-1.18.72-2.06,3-2.06h3.63V40.4A3.71,3.71,0,0,1,214.38,42.75Z" fill-rule="evenodd"/><path d="M225.36,34.57V32.3h-1.49V43.87h1.56V38c0-2.73,1.47-4.27,3.89-4.27l.38,0V32.21C227.56,32.21,226.09,33,225.36,34.57Z" fill-rule="evenodd"/><path d="M236.54,32.21a7.36,7.36,0,0,0-4.71,1.57l.7,1.16a5.94,5.94,0,0,1,3.85-1.36c2.16,0,3.28,1.08,3.28,3.06v.7H236c-3.32,0-4.47,1.5-4.47,3.28,0,2,1.61,3.36,4.23,3.36a4.35,4.35,0,0,0,4-1.91v1.8h1.49V36.7c0-3-1.69-4.49-4.68-4.49ZM236,42.75c-1.85,0-2.93-.83-2.93-2.18,0-1.18.73-2.06,3-2.06h3.63V40.4A3.69,3.69,0,0,1,236,42.75Z" fill-rule="evenodd"/><path d="M147,72.39a2.62,2.62,0,0,1-1.72.59,1.85,1.85,0,0,1-2-2.11V64h3.52V62.64h-3.52V60.11h-1.56v2.53h-2.07V64h2.07v7a3.06,3.06,0,0,0,3.39,3.36,3.72,3.72,0,0,0,2.44-.81Z" fill-rule="evenodd"/><path d="M160.07,68.43a5.52,5.52,0,0,0-5.61-5.88,5.58,5.58,0,0,0-5.66,5.88,6.12,6.12,0,0,0,10.54,4l-.88-1a4.56,4.56,0,0,1-3.54,1.52,4.29,4.29,0,0,1-4.56-4H160c0-.18,0-.35,0-.48Zm-5.61-4.54a4,4,0,0,1,4.11,3.85h-8.21A4,4,0,0,1,154.46,63.89Z" fill-rule="evenodd"/><path d="M169.15,62.55a4.89,4.89,0,0,0-4.4,2.22V62.64h-1.49V74.21h1.56V68.14c0-2.64,1.56-4.18,4.05-4.18,2.2,0,3.47,1.25,3.47,3.7v6.55h1.56V67.5C173.9,64.18,172,62.55,169.15,62.55Z" fill-rule="evenodd"/><path d="M188.29,68.43a5.51,5.51,0,0,0-5.61-5.88A5.57,5.57,0,0,0,177,68.43a6.12,6.12,0,0,0,10.54,4l-.88-1a4.58,4.58,0,0,1-3.55,1.52,4.29,4.29,0,0,1-4.55-4h9.68c0-.18,0-.35,0-.48Zm-5.61-4.54a4,4,0,0,1,4.12,3.85h-8.21A4,4,0,0,1,182.68,63.89Z" fill-rule="evenodd"/><path d="M193,64.91V62.64h-1.5V74.21H193V68.32c0-2.73,1.48-4.27,3.9-4.27l.37,0V62.55C195.18,62.55,193.7,63.37,193,64.91Z" fill-rule="evenodd"/><path d="M214.93,62.64v6.07c0,2.64-1.51,4.2-3.93,4.2-2.2,0-3.48-1.25-3.48-3.71V62.64H206v6.71c0,3.32,1.93,5,4.88,5A4.59,4.59,0,0,0,215,72.1v2.11h1.5V62.64Z" fill-rule="evenodd"/><path d="M226.77,62.55a4.89,4.89,0,0,0-4.4,2.22V62.64h-1.5V74.21h1.57V68.14c0-2.64,1.56-4.18,4-4.18,2.2,0,3.48,1.25,3.48,3.7v6.55h1.56V67.5C231.52,64.18,229.59,62.55,226.77,62.55Z" fill-rule="evenodd"/><path d="M247.49,62.55a5.06,5.06,0,0,0-4.4,2.29v-7h-1.56V74.21H243V71.92a5,5,0,0,0,4.46,2.4,5.89,5.89,0,0,0,0-11.77Zm-.11,10.39a4.51,4.51,0,1,1,4.32-4.51A4.24,4.24,0,0,1,247.38,72.94Z" fill-rule="evenodd"/><path d="M265.31,62.64v6.07c0,2.64-1.51,4.2-3.93,4.2-2.2,0-3.48-1.25-3.48-3.71V62.64h-1.56v6.71c0,3.32,1.93,5,4.88,5a4.59,4.59,0,0,0,4.16-2.22v2.11h1.5V62.64Z" fill-rule="evenodd"/><path d="M281.35,68.43a5.51,5.51,0,0,0-5.61-5.88,5.57,5.57,0,0,0-5.65,5.88,6.12,6.12,0,0,0,10.54,4l-.88-1a4.58,4.58,0,0,1-3.55,1.52,4.29,4.29,0,0,1-4.55-4h9.68c0-.18,0-.35,0-.48Zm-5.61-4.54a4,4,0,0,1,4.12,3.85h-8.21A4,4,0,0,1,275.74,63.89Z" fill-rule="evenodd"/><path d="M290.44,62.55a4.87,4.87,0,0,0-4.4,2.22V62.64h-1.5V74.21h1.56V68.14c0-2.64,1.57-4.18,4-4.18,2.2,0,3.48,1.25,3.48,3.7v6.55h1.56V67.5C295.19,64.18,293.25,62.55,290.44,62.55Z" fill-rule="evenodd"/><path d="M113.12,104.66c3,0,4.77-1.3,4.77-3.3,0-4.44-7.5-2.09-7.5-5.21,0-1.1.92-1.92,3-1.92a6,6,0,0,1,3.41,1L117.5,94a7.87,7.87,0,0,0-4.1-1.08c-2.94,0-4.57,1.41-4.57,3.3,0,4.58,7.5,2.2,7.5,5.21,0,1.15-.9,1.9-3.1,1.9a7.06,7.06,0,0,1-4.12-1.3l-.7,1.23A7.76,7.76,0,0,0,113.12,104.66Z" fill-rule="evenodd"/><path d="M130.87,98.76a5.51,5.51,0,0,0-5.61-5.87,5.57,5.57,0,0,0-5.65,5.87,6.12,6.12,0,0,0,10.54,4l-.88-1a4.58,4.58,0,0,1-3.55,1.51,4.28,4.28,0,0,1-4.55-4h9.68c0-.18,0-.35,0-.49Zm-5.61-4.53a4,4,0,0,1,4.12,3.85h-8.21A4,4,0,0,1,125.26,94.23Z" fill-rule="evenodd"/><path d="M135.56,95.24V93h-1.5v11.57h1.56v-5.9c0-2.72,1.48-4.26,3.9-4.26l.37,0V92.89C137.76,92.89,136.28,93.7,135.56,95.24Z" fill-rule="evenodd"/><polygon points="151.4 92.98 147.02 102.83 142.69 92.98 141.06 92.98 146.19 104.55 147.79 104.55 152.94 92.98 151.4 92.98" fill-rule="evenodd"/><path d="M155.93,90.45a1.12,1.12,0,0,0,1.14-1.15,1.1,1.1,0,0,0-1.14-1.07,1.11,1.11,0,1,0,0,2.22Zm-.79,14.1h1.56V93h-1.56Z" fill-rule="evenodd"/><path d="M165.85,104.66a5.08,5.08,0,0,0,4.53-2.29l-1.16-.79a3.91,3.91,0,0,1-3.37,1.69,4.51,4.51,0,0,1,0-9A3.93,3.93,0,0,1,169.22,96l1.16-.79a5,5,0,0,0-4.53-2.29,5.89,5.89,0,1,0,0,11.77Z" fill-rule="evenodd"/><path d="M174.23,90.45a1.13,1.13,0,0,0,1.15-1.15,1.11,1.11,0,0,0-1.15-1.07,1.11,1.11,0,1,0,0,2.22Zm-.79,14.1H175V93h-1.56Z" fill-rule="evenodd"/><path d="M184.09,104.66a5.89,5.89,0,1,0-5.9-5.9,5.69,5.69,0,0,0,5.9,5.9Zm0-1.39a4.52,4.52,0,1,1,4.29-4.51A4.24,4.24,0,0,1,184.09,103.27Z" fill-rule="evenodd"/><path d="M209,98.76a5.52,5.52,0,0,0-5.61-5.87,5.57,5.57,0,0,0-5.66,5.87,6.12,6.12,0,0,0,10.54,4l-.88-1a4.55,4.55,0,0,1-3.54,1.51,4.29,4.29,0,0,1-4.56-4H209c0-.18,0-.35,0-.49Zm-5.61-4.53a4,4,0,0,1,4.11,3.85h-8.21A4,4,0,0,1,203.41,94.23Z" fill-rule="evenodd"/><path d="M218.1,92.89a4.86,4.86,0,0,0-4.4,2.22V93h-1.49v11.57h1.56V98.48c0-2.64,1.56-4.18,4-4.18,2.2,0,3.47,1.25,3.47,3.69v6.56h1.56V97.84C222.85,94.52,220.92,92.89,218.1,92.89Z" fill-rule="evenodd"/><path d="M238.41,102.72a2.58,2.58,0,0,1-1.72.6,1.85,1.85,0,0,1-2-2.11V94.3h3.52V93h-3.52V90.45h-1.56V93h-2.07V94.3h2.07v7a3.07,3.07,0,0,0,3.39,3.37,3.72,3.72,0,0,0,2.44-.81Z" fill-rule="evenodd"/><path d="M246.11,104.66a5.89,5.89,0,1,0-5.9-5.9,5.69,5.69,0,0,0,5.9,5.9Zm0-1.39a4.52,4.52,0,1,1,4.29-4.51A4.23,4.23,0,0,1,246.11,103.27Z" fill-rule="evenodd"/><path d="M264.17,88.23v7a5,5,0,0,0-4.4-2.29,5.89,5.89,0,0,0,0,11.77,5,5,0,0,0,4.47-2.4v2.29h1.49V88.23Zm-4.27,15a4.52,4.52,0,1,1,4.29-4.51A4.24,4.24,0,0,1,259.9,103.27Z" fill-rule="evenodd"/><path d="M274.82,104.66a5.89,5.89,0,1,0-5.9-5.9,5.69,5.69,0,0,0,5.9,5.9Zm0-1.39a4.52,4.52,0,1,1,4.29-4.51A4.23,4.23,0,0,1,274.82,103.27Z" fill-rule="evenodd"/><path d="M287,104.66c3,0,4.78-1.3,4.78-3.3,0-4.44-7.5-2.09-7.5-5.21,0-1.1.92-1.92,3-1.92a6,6,0,0,1,3.41,1l.68-1.25a7.83,7.83,0,0,0-4.09-1.08c-2.95,0-4.58,1.41-4.58,3.3,0,4.58,7.51,2.2,7.51,5.21,0,1.15-.91,1.9-3.11,1.9A7,7,0,0,1,283,102l-.7,1.23A7.73,7.73,0,0,0,287,104.66Z" fill-rule="evenodd"/><rect x="300.4" y="88.23" width="1.56" height="16.32"/><path d="M311.05,104.66a5.89,5.89,0,1,0-5.89-5.9,5.69,5.69,0,0,0,5.89,5.9Zm0-1.39a4.52,4.52,0,1,1,4.29-4.51A4.24,4.24,0,0,1,311.05,103.27Z" fill-rule="evenodd"/><path d="M323.22,104.66c3,0,4.77-1.3,4.77-3.3,0-4.44-7.5-2.09-7.5-5.21,0-1.1.92-1.92,3-1.92a6,6,0,0,1,3.41,1L327.6,94a7.87,7.87,0,0,0-4.1-1.08c-2.94,0-4.57,1.41-4.57,3.3,0,4.58,7.5,2.2,7.5,5.21,0,1.15-.9,1.9-3.1,1.9a7.06,7.06,0,0,1-4.12-1.3l-.7,1.23A7.76,7.76,0,0,0,323.22,104.66Z" fill-rule="evenodd"/><path d="M96.38,135a5.11,5.11,0,0,0,4.53-2.29l-1.17-.79a3.91,3.91,0,0,1-3.36,1.69,4.51,4.51,0,0,1,0-9,3.92,3.92,0,0,1,3.36,1.72l1.17-.79a5.06,5.06,0,0,0-4.53-2.29,5.89,5.89,0,1,0,0,11.77Z" fill-rule="evenodd"/><path d="M108,123.23a7.32,7.32,0,0,0-4.7,1.56L104,126a5.88,5.88,0,0,1,3.85-1.37c2.16,0,3.28,1.08,3.28,3.06v.7h-3.68c-3.32,0-4.46,1.5-4.46,3.28,0,2,1.6,3.37,4.22,3.37a4.33,4.33,0,0,0,4-1.92v1.81h1.5v-7.17c0-3-1.69-4.49-4.69-4.49Zm-.55,10.54c-1.84,0-2.92-.84-2.92-2.18,0-1.19.72-2.07,3-2.07h3.63v1.89A3.72,3.72,0,0,1,107.46,133.77Z" fill-rule="evenodd"/><path d="M131.38,123.23a5,5,0,0,0-4.58,2.44,4.15,4.15,0,0,0-4.11-2.44,4.68,4.68,0,0,0-4.25,2.2v-2.11H117v11.57h1.56v-6.07c0-2.64,1.52-4.18,3.87-4.18,2.11,0,3.34,1.25,3.34,3.69v6.56h1.57v-6.07c0-2.64,1.49-4.18,3.87-4.18,2.09,0,3.32,1.25,3.32,3.69v6.56H136v-6.71C136,124.86,134.19,123.23,131.38,123.23Z" fill-rule="evenodd"/><path d="M146.25,123.23a5.05,5.05,0,0,0-4.47,2.37v-2.28h-1.49v15.84h1.56v-6.45a5,5,0,0,0,4.4,2.29,5.89,5.89,0,0,0,0-11.77Zm-.11,10.38a4.51,4.51,0,1,1,4.31-4.51A4.24,4.24,0,0,1,146.14,133.61Z" fill-rule="evenodd"/><path d="M159.93,135a5.89,5.89,0,1,0-5.89-5.9,5.7,5.7,0,0,0,5.89,5.9Zm0-1.39a4.52,4.52,0,1,1,4.29-4.51A4.24,4.24,0,0,1,159.93,133.61Z" fill-rule="evenodd"/><path d="M172.1,135c3,0,4.77-1.3,4.77-3.3,0-4.44-7.5-2.09-7.5-5.22,0-1.1.93-1.91,3-1.91a6,6,0,0,1,3.41,1l.68-1.25a7.86,7.86,0,0,0-4.09-1.08c-2.95,0-4.58,1.41-4.58,3.3,0,4.57,7.5,2.2,7.5,5.21,0,1.15-.9,1.89-3.1,1.89a7,7,0,0,1-4.11-1.29l-.71,1.23A7.78,7.78,0,0,0,172.1,135Z" fill-rule="evenodd"/><path d="M191.48,123.23A5,5,0,0,0,187,125.6v-2.28h-1.5v15.84h1.56v-6.45a5,5,0,0,0,4.4,2.29,5.89,5.89,0,0,0,0-11.77Zm-.11,10.38a4.51,4.51,0,1,1,4.31-4.51A4.24,4.24,0,0,1,191.37,133.61Z" fill-rule="evenodd"/><path d="M201.93,125.58v-2.26h-1.49v11.57H202V129c0-2.73,1.47-4.27,3.89-4.27.11,0,.24,0,.38,0v-1.52C204.13,123.23,202.66,124,201.93,125.58Z" fill-rule="evenodd"/><path d="M213.7,135a5.89,5.89,0,1,0-5.89-5.9,5.7,5.7,0,0,0,5.89,5.9Zm0-1.39A4.52,4.52,0,1,1,218,129.1,4.24,4.24,0,0,1,213.7,133.61Z" fill-rule="evenodd"/><path d="M226.59,119.77a2.63,2.63,0,0,1,1.72.58l.53-1.17a3.69,3.69,0,0,0-2.31-.73,3.19,3.19,0,0,0-3.5,3.44v1.43H221v1.32H223v10.25h1.56V124.64h3.52v-1.32h-3.56V122C224.55,120.52,225.25,119.77,226.59,119.77Z" fill-rule="evenodd"/><path d="M240.12,129.1a5.51,5.51,0,0,0-5.61-5.87,5.57,5.57,0,0,0-5.65,5.87,6.12,6.12,0,0,0,10.54,4l-.88-1a4.54,4.54,0,0,1-3.54,1.52,4.29,4.29,0,0,1-4.56-4h9.68c0-.18,0-.36,0-.49Zm-5.61-4.53a4,4,0,0,1,4.12,3.85h-8.21A4,4,0,0,1,234.51,124.57Z" fill-rule="evenodd"/><path d="M246.42,135c3,0,4.77-1.3,4.77-3.3,0-4.44-7.5-2.09-7.5-5.22,0-1.1.92-1.91,3-1.91a6,6,0,0,1,3.41,1l.68-1.25a7.8,7.8,0,0,0-4.09-1.08c-2.95,0-4.57,1.41-4.57,3.3,0,4.57,7.5,2.2,7.5,5.21,0,1.15-.9,1.89-3.1,1.89a7.06,7.06,0,0,1-4.12-1.29l-.7,1.23A7.74,7.74,0,0,0,246.42,135Z" fill-rule="evenodd"/><path d="M254.86,120.79a1.13,1.13,0,0,0,1.15-1.15,1.12,1.12,0,0,0-1.15-1.08,1.12,1.12,0,1,0,0,2.23Zm-.79,14.1h1.56V123.32h-1.56Z" fill-rule="evenodd"/><path d="M264.72,135a5.89,5.89,0,1,0-5.9-5.9,5.69,5.69,0,0,0,5.9,5.9Zm0-1.39A4.52,4.52,0,1,1,269,129.1,4.24,4.24,0,0,1,264.72,133.61Z" fill-rule="evenodd"/><path d="M279.68,123.23a4.86,4.86,0,0,0-4.4,2.22v-2.13h-1.5v11.57h1.57v-6.07c0-2.64,1.56-4.18,4-4.18,2.2,0,3.48,1.25,3.48,3.69v6.56h1.56v-6.71C284.43,124.86,282.5,123.23,279.68,123.23Z" fill-rule="evenodd"/><path d="M292.73,123.23a7.33,7.33,0,0,0-4.71,1.56l.7,1.17a5.9,5.9,0,0,1,3.85-1.37c2.16,0,3.28,1.08,3.28,3.06v.7h-3.67c-3.33,0-4.47,1.5-4.47,3.28,0,2,1.61,3.37,4.22,3.37a4.36,4.36,0,0,0,4-1.92v1.81h1.49v-7.17c0-3-1.69-4.49-4.68-4.49Zm-.55,10.54c-1.85,0-2.93-.84-2.93-2.18,0-1.19.73-2.07,3-2.07h3.63v1.89A3.7,3.7,0,0,1,292.18,133.77Z" fill-rule="evenodd"/><rect x="301.66" y="118.56" width="1.56" height="16.32"/><path d="M317.67,129.1a5.51,5.51,0,0,0-5.61-5.87,5.57,5.57,0,0,0-5.65,5.87,6.12,6.12,0,0,0,10.54,4l-.88-1a4.54,4.54,0,0,1-3.54,1.52,4.29,4.29,0,0,1-4.56-4h9.68c0-.18,0-.36,0-.49Zm-5.61-4.53a4,4,0,0,1,4.12,3.85H308A4,4,0,0,1,312.06,124.57Z" fill-rule="evenodd"/><path d="M324,135c3,0,4.77-1.3,4.77-3.3,0-4.44-7.5-2.09-7.5-5.22,0-1.1.92-1.91,3-1.91a6,6,0,0,1,3.41,1l.68-1.25a7.8,7.8,0,0,0-4.09-1.08c-2.95,0-4.57,1.41-4.57,3.3,0,4.57,7.5,2.2,7.5,5.21,0,1.15-.9,1.89-3.1,1.89a7.06,7.06,0,0,1-4.12-1.29l-.7,1.23A7.74,7.74,0,0,0,324,135Z" fill-rule="evenodd"/><path d="M345.57,123.32l-4.36,9.83-4.35-9.83h-1.63l5.17,11.55-.51,1.12c-.66,1.45-1.36,1.93-2.39,1.93a2.88,2.88,0,0,1-2.12-.88l-.72,1.17a4,4,0,0,0,2.81,1.06c1.65,0,2.89-.73,3.85-3l5.79-13Z" fill-rule="evenodd"/><path d="M58.72,159.44a5.51,5.51,0,0,0-5.61-5.87,5.57,5.57,0,0,0-5.65,5.87,5.73,5.73,0,0,0,6.07,5.9,5.69,5.69,0,0,0,4.47-1.9l-.88-1A4.58,4.58,0,0,1,53.58,164a4.29,4.29,0,0,1-4.56-4H58.7c0-.17,0-.35,0-.48Zm-5.61-4.53a4,4,0,0,1,4.12,3.85H49A4,4,0,0,1,53.11,154.91Z" fill-rule="evenodd"/><path d="M65,165.34c3,0,4.77-1.3,4.77-3.3,0-4.44-7.5-2.09-7.5-5.22,0-1.1.92-1.91,3-1.91a5.88,5.88,0,0,1,3.41,1l.68-1.26a7.8,7.8,0,0,0-4.09-1.07c-2.95,0-4.57,1.4-4.57,3.3,0,4.57,7.5,2.2,7.5,5.21,0,1.14-.9,1.89-3.1,1.89a7,7,0,0,1-4.12-1.3l-.7,1.24A7.74,7.74,0,0,0,65,165.34Z" fill-rule="evenodd"/><path d="M78.63,153.57a5,5,0,0,0-4.46,2.37v-2.29h-1.5v15.84h1.56v-6.44a5.08,5.08,0,0,0,4.4,2.29,5.89,5.89,0,0,0,0-11.77ZM78.52,164a4.51,4.51,0,1,1,4.32-4.51A4.24,4.24,0,0,1,78.52,164Z" fill-rule="evenodd"/><path d="M97.69,159.44a5.51,5.51,0,0,0-5.61-5.87,5.57,5.57,0,0,0-5.66,5.87,5.74,5.74,0,0,0,6.07,5.9,5.67,5.67,0,0,0,4.47-1.9l-.88-1A4.56,4.56,0,0,1,92.54,164a4.29,4.29,0,0,1-4.56-4h9.68c0-.17,0-.35,0-.48Zm-5.61-4.53a4,4,0,0,1,4.11,3.85H88A4,4,0,0,1,92.08,154.91Z" fill-rule="evenodd"/><path d="M105.67,165.34a5.11,5.11,0,0,0,4.53-2.29l-1.16-.79a3.93,3.93,0,0,1-3.37,1.69,4.51,4.51,0,0,1,0-9,3.93,3.93,0,0,1,3.37,1.72l1.16-.8a5.05,5.05,0,0,0-4.53-2.28,5.89,5.89,0,1,0,0,11.77Z" fill-rule="evenodd"/><path d="M114.05,151.12a1.11,1.11,0,1,0-1.14-1.12,1.12,1.12,0,0,0,1.14,1.12Zm-.79,14.11h1.56V153.65h-1.56Z" fill-rule="evenodd"/><path d="M123.23,153.57a7.35,7.35,0,0,0-4.71,1.56l.7,1.16a5.94,5.94,0,0,1,3.85-1.36c2.16,0,3.28,1.08,3.28,3.06v.7h-3.67c-3.32,0-4.47,1.5-4.47,3.28,0,2,1.61,3.37,4.23,3.37a4.35,4.35,0,0,0,4-1.92v1.81h1.49v-7.18c0-3-1.69-4.48-4.68-4.48Zm-.55,10.53c-1.85,0-2.93-.83-2.93-2.17,0-1.19.73-2.07,3-2.07h3.63v1.89A3.69,3.69,0,0,1,122.68,164.1Z" fill-rule="evenodd"/><rect x="132.16" y="148.9" width="1.56" height="16.32"/><path d="M138.87,151.12a1.11,1.11,0,1,0-1.14-1.12,1.11,1.11,0,0,0,1.14,1.12Zm-.79,14.11h1.56V153.65h-1.56Z" fill-rule="evenodd"/><polygon points="144.74 163.93 152.03 154.69 152.03 153.65 142.87 153.65 142.87 154.97 150.02 154.97 142.74 164.19 142.74 165.23 152.16 165.23 152.16 163.93 144.74 163.93" fill-rule="evenodd"/><path d="M159.29,153.57a7.33,7.33,0,0,0-4.71,1.56l.7,1.16a5.94,5.94,0,0,1,3.85-1.36c2.16,0,3.28,1.08,3.28,3.06v.7h-3.67c-3.33,0-4.47,1.5-4.47,3.28,0,2,1.61,3.37,4.22,3.37a4.36,4.36,0,0,0,4-1.92v1.81H164v-7.18c0-3-1.69-4.48-4.68-4.48Zm-.55,10.53c-1.85,0-2.93-.83-2.93-2.17,0-1.19.73-2.07,3-2.07h3.63v1.89A3.69,3.69,0,0,1,158.74,164.1Z" fill-rule="evenodd"/><path d="M177.26,148.9v6.95a5.06,5.06,0,0,0-4.4-2.28,5.89,5.89,0,0,0,0,11.77,5,5,0,0,0,4.47-2.4v2.29h1.49V148.9ZM173,164a4.52,4.52,0,1,1,4.29-4.51A4.24,4.24,0,0,1,173,164Z" fill-rule="evenodd"/><path d="M187.91,165.34a5.89,5.89,0,1,0-5.9-5.9,5.69,5.69,0,0,0,5.9,5.9Zm0-1.39a4.52,4.52,0,1,1,4.29-4.51A4.23,4.23,0,0,1,187.91,164Z" fill-rule="evenodd"/><path d="M200.07,165.34c3,0,4.78-1.3,4.78-3.3,0-4.44-7.5-2.09-7.5-5.22,0-1.1.92-1.91,3-1.91a5.88,5.88,0,0,1,3.41,1l.68-1.26a7.83,7.83,0,0,0-4.09-1.07c-3,0-4.58,1.4-4.58,3.3,0,4.57,7.51,2.2,7.51,5.21,0,1.14-.91,1.89-3.11,1.89a7,7,0,0,1-4.11-1.3l-.7,1.24A7.73,7.73,0,0,0,200.07,165.34Z" fill-rule="evenodd"/><path d="M218.29,165.34a5.11,5.11,0,0,0,4.53-2.29l-1.16-.79a3.94,3.94,0,0,1-3.37,1.69,4.51,4.51,0,0,1,0-9,4,4,0,0,1,3.37,1.72l1.16-.8a5.05,5.05,0,0,0-4.53-2.28,5.89,5.89,0,1,0,0,11.77Z" fill-rule="evenodd"/><path d="M230.41,165.34a5.89,5.89,0,1,0-5.89-5.9,5.7,5.7,0,0,0,5.89,5.9Zm0-1.39a4.52,4.52,0,1,1,4.29-4.51A4.24,4.24,0,0,1,230.41,164Z" fill-rule="evenodd"/><path d="M253.91,153.57a5,5,0,0,0-4.58,2.44,4.15,4.15,0,0,0-4.11-2.44,4.68,4.68,0,0,0-4.25,2.2v-2.12h-1.49v11.58H241v-6.08c0-2.64,1.52-4.18,3.87-4.18,2.11,0,3.34,1.26,3.34,3.7v6.56h1.57v-6.08c0-2.64,1.49-4.18,3.87-4.18,2.09,0,3.32,1.26,3.32,3.7v6.56h1.56v-6.71C258.57,155.19,256.72,153.57,253.91,153.57Z" fill-rule="evenodd"/><path d="M267.59,165.34a5.89,5.89,0,1,0-5.89-5.9,5.7,5.7,0,0,0,5.89,5.9Zm0-1.39a4.52,4.52,0,1,1,4.29-4.51A4.24,4.24,0,0,1,267.59,164Z" fill-rule="evenodd"/><path d="M288.38,153.57a5,5,0,0,0-4.46,2.37v-2.29h-1.5v15.84H284v-6.44a5.07,5.07,0,0,0,4.4,2.29,5.89,5.89,0,0,0,0-11.77ZM288.27,164a4.51,4.51,0,1,1,4.31-4.51A4.24,4.24,0,0,1,288.27,164Z" fill-rule="evenodd"/><path d="M306.2,153.65v6.08c0,2.64-1.52,4.2-3.94,4.2-2.2,0-3.47-1.26-3.47-3.72v-6.56h-1.57v6.71c0,3.33,1.94,5,4.89,5a4.61,4.61,0,0,0,4.16-2.23v2.12h1.49V153.65Z" fill-rule="evenodd"/><path d="M322.24,159.44a5.51,5.51,0,0,0-5.61-5.87,5.57,5.57,0,0,0-5.66,5.87,5.74,5.74,0,0,0,6.08,5.9,5.67,5.67,0,0,0,4.46-1.9l-.88-1a4.56,4.56,0,0,1-3.54,1.52,4.28,4.28,0,0,1-4.55-4h9.68c0-.17,0-.35,0-.48Zm-5.61-4.53a4,4,0,0,1,4.11,3.85h-8.2A4,4,0,0,1,316.63,154.91Z" fill-rule="evenodd"/><path d="M334.43,148.9v6.95a5.07,5.07,0,0,0-4.4-2.28,5.89,5.89,0,0,0,0,11.77,5,5,0,0,0,4.46-2.4v2.29H336V148.9Zm-4.27,15a4.52,4.52,0,1,1,4.29-4.51A4.23,4.23,0,0,1,330.16,164Z" fill-rule="evenodd"/><path d="M350.44,159.44a5.51,5.51,0,0,0-5.61-5.87,5.57,5.57,0,0,0-5.65,5.87,6.11,6.11,0,0,0,10.54,4l-.88-1a4.58,4.58,0,0,1-3.55,1.52,4.29,4.29,0,0,1-4.55-4h9.68c0-.17,0-.35,0-.48Zm-5.61-4.53a4,4,0,0,1,4.12,3.85h-8.21A4,4,0,0,1,344.83,154.91Z" fill-rule="evenodd"/><path d="M362.5,165.34c3,0,4.77-1.3,4.77-3.3,0-4.44-7.5-2.09-7.5-5.22,0-1.1.92-1.91,3-1.91a5.88,5.88,0,0,1,3.41,1l.69-1.26a7.86,7.86,0,0,0-4.1-1.07c-2.94,0-4.57,1.4-4.57,3.3,0,4.57,7.5,2.2,7.5,5.21,0,1.14-.9,1.89-3.1,1.89a7,7,0,0,1-4.12-1.3l-.7,1.24A7.76,7.76,0,0,0,362.5,165.34Z" fill-rule="evenodd"/><path d="M380.25,159.44a5.51,5.51,0,0,0-5.61-5.87,5.57,5.57,0,0,0-5.65,5.87,6.11,6.11,0,0,0,10.54,4l-.88-1A4.58,4.58,0,0,1,375.1,164a4.29,4.29,0,0,1-4.55-4h9.68c0-.17,0-.35,0-.48Zm-5.61-4.53a4,4,0,0,1,4.12,3.85h-8.21A4,4,0,0,1,374.64,154.91Z" fill-rule="evenodd"/><path d="M384.94,155.92v-2.27h-1.5v11.58H385v-5.9c0-2.73,1.48-4.27,3.9-4.27l.37,0v-1.51C387.14,153.57,385.66,154.38,384.94,155.92Z" fill-rule="evenodd"/><path d="M70.29,184v6.07c0,2.64-1.52,4.21-3.94,4.21-2.2,0-3.48-1.26-3.48-3.72V184H61.31v6.71c0,3.32,1.93,5,4.88,5a4.59,4.59,0,0,0,4.16-2.22v2.11h1.5V184Z" fill-rule="evenodd"/><path d="M82.12,183.9a4.87,4.87,0,0,0-4.4,2.23V184h-1.5v11.57h1.57v-6.07c0-2.64,1.56-4.18,4-4.18,2.2,0,3.48,1.26,3.48,3.7v6.55h1.56v-6.71C86.87,185.53,84.94,183.9,82.12,183.9Z" fill-rule="evenodd"/><path d="M100.93,183.9a7.36,7.36,0,0,0-4.71,1.57l.71,1.16a5.9,5.9,0,0,1,3.85-1.36c2.15,0,3.28,1.08,3.28,3.06v.7h-3.68c-3.32,0-4.46,1.5-4.46,3.28,0,2,1.6,3.36,4.22,3.36a4.34,4.34,0,0,0,4-1.91v1.8h1.5v-7.17c0-3-1.7-4.49-4.69-4.49Zm-.55,10.54c-1.85,0-2.93-.83-2.93-2.18,0-1.18.73-2.06,3-2.06h3.63v1.89A3.71,3.71,0,0,1,100.38,194.44Z" fill-rule="evenodd"/><path d="M115.82,183.9a5.08,5.08,0,0,0-4.4,2.29v-6.95h-1.56v16.32h1.5v-2.28a5,5,0,0,0,4.46,2.39,5.89,5.89,0,0,0,0-11.77Zm-.11,10.39a4.51,4.51,0,1,1,4.32-4.51A4.24,4.24,0,0,1,115.71,194.29Z" fill-rule="evenodd"/><path d="M129.51,195.67a5.89,5.89,0,1,0-5.9-5.89,5.68,5.68,0,0,0,5.9,5.89Zm0-1.38a4.52,4.52,0,1,1,4.29-4.51A4.24,4.24,0,0,1,129.51,194.29Z" fill-rule="evenodd"/><path d="M147.79,184v2.22a5.25,5.25,0,0,0-4.58-2.31,5.61,5.61,0,1,0,0,11.22,5.19,5.19,0,0,0,4.51-2.24v1.47c0,2.86-1.34,4.21-4.26,4.21A6.89,6.89,0,0,1,138.9,197l-.79,1.19a8.09,8.09,0,0,0,5.39,1.78c3.83,0,5.79-1.8,5.79-5.78V184Zm-4.42,9.75a4.24,4.24,0,1,1,4.4-4.25A4.14,4.14,0,0,1,143.37,193.74Z" fill-rule="evenodd"/><path d="M157.71,183.9a7.38,7.38,0,0,0-4.71,1.57l.71,1.16a5.9,5.9,0,0,1,3.85-1.36c2.15,0,3.28,1.08,3.28,3.06v.7h-3.68c-3.32,0-4.46,1.5-4.46,3.28,0,2,1.6,3.36,4.22,3.36a4.34,4.34,0,0,0,4-1.91v1.8h1.5v-7.17c0-3-1.7-4.49-4.69-4.49Zm-.55,10.54c-1.85,0-2.92-.83-2.92-2.18,0-1.18.72-2.06,3-2.06h3.63v1.89A3.71,3.71,0,0,1,157.16,194.44Z" fill-rule="evenodd"/><path d="M175.69,179.24v6.95a5.08,5.08,0,0,0-4.4-2.29,5.89,5.89,0,0,0,0,11.77,5,5,0,0,0,4.46-2.39v2.28h1.5V179.24Zm-4.27,15a4.52,4.52,0,1,1,4.29-4.51A4.24,4.24,0,0,1,171.42,194.29Z" fill-rule="evenodd"/><path d="M186.33,195.67a5.89,5.89,0,1,0-5.89-5.89,5.69,5.69,0,0,0,5.89,5.89Zm0-1.38a4.52,4.52,0,1,1,4.29-4.51A4.24,4.24,0,0,1,186.33,194.29Z" fill-rule="evenodd"/><path d="M195.24,193.28a1.14,1.14,0,0,0-1.16,1.18,1.12,1.12,0,0,0,.79,1.13l-.75,3.19h1.06l.92-3a3.61,3.61,0,0,0,.31-1.28A1.14,1.14,0,0,0,195.24,193.28Z" fill-rule="evenodd"/><path d="M214.36,184v6.07c0,2.64-1.52,4.21-3.94,4.21-2.2,0-3.47-1.26-3.47-3.72V184h-1.56v6.71c0,3.32,1.93,5,4.88,5a4.61,4.61,0,0,0,4.16-2.22v2.11h1.49V184Z" fill-rule="evenodd"/><path d="M226.2,183.9a4.86,4.86,0,0,0-4.4,2.23V184h-1.5v11.57h1.56v-6.07c0-2.64,1.57-4.18,4-4.18,2.2,0,3.48,1.26,3.48,3.7v6.55H231v-6.71C231,185.53,229,183.9,226.2,183.9Z" fill-rule="evenodd"/><path d="M255.39,183.9a5,5,0,0,0-4.57,2.45,4.17,4.17,0,0,0-4.12-2.45,4.68,4.68,0,0,0-4.24,2.2V184H241v11.57h1.56v-6.07c0-2.64,1.52-4.18,3.87-4.18,2.12,0,3.35,1.26,3.35,3.7v6.55h1.56v-6.07c0-2.64,1.5-4.18,3.87-4.18,2.09,0,3.32,1.26,3.32,3.7v6.55h1.57v-6.71C260.06,185.53,258.21,183.9,255.39,183.9Z" fill-rule="evenodd"/><path d="M272.51,179.48h-2.09l-3,2.73h1.54l3.57-2.73Zm1.93,10.3a5.51,5.51,0,0,0-5.61-5.88,5.58,5.58,0,0,0-5.65,5.88,6.12,6.12,0,0,0,10.54,4l-.88-1a4.58,4.58,0,0,1-3.54,1.52,4.29,4.29,0,0,1-4.56-4h9.68c0-.17,0-.35,0-.48Zm-5.61-4.53A4,4,0,0,1,273,189.1h-8.21A4,4,0,0,1,268.83,185.25Z" fill-rule="evenodd"/><path d="M286.63,179.24v6.95a5.07,5.07,0,0,0-4.4-2.29,5.89,5.89,0,0,0,0,11.77,5,5,0,0,0,4.47-2.39v2.28h1.49V179.24Zm-4.27,15a4.52,4.52,0,1,1,4.29-4.51A4.24,4.24,0,0,1,282.36,194.29Z" fill-rule="evenodd"/><path d="M293.34,181.46a1.12,1.12,0,0,0,1.15-1.14,1.11,1.11,0,0,0-1.15-1.08,1.11,1.11,0,1,0,0,2.22Zm-.79,14.1h1.56V184h-1.56Z" fill-rule="evenodd"/><path d="M303.26,195.67a5.13,5.13,0,0,0,4.54-2.28l-1.17-.8a3.91,3.91,0,0,1-3.37,1.7,4.51,4.51,0,0,1,0-9,3.94,3.94,0,0,1,3.37,1.71l1.17-.79a5.07,5.07,0,0,0-4.54-2.29,5.89,5.89,0,1,0,0,11.77Z" fill-rule="evenodd"/><path d="M315.39,195.67a5.89,5.89,0,1,0-5.9-5.89,5.69,5.69,0,0,0,5.9,5.89Zm0-1.38a4.52,4.52,0,1,1,4.29-4.51A4.24,4.24,0,0,1,315.39,194.29Z" fill-rule="evenodd"/><path d="M334.94,195.67a5.89,5.89,0,1,0-5.89-5.89,5.69,5.69,0,0,0,5.89,5.89Zm0-1.38a4.52,4.52,0,1,1,4.29-4.51A4.24,4.24,0,0,1,334.94,194.29Z" fill-rule="evenodd"/><path d="M358.64,184v6.07c0,2.64-1.52,4.21-3.94,4.21-2.2,0-3.48-1.26-3.48-3.72V184h-1.56v6.71c0,3.32,1.94,5,4.89,5a4.59,4.59,0,0,0,4.15-2.22v2.11h1.5V184Z" fill-rule="evenodd"/><path d="M370.47,183.9a4.87,4.87,0,0,0-4.4,2.23V184h-1.49v11.57h1.56v-6.07c0-2.64,1.56-4.18,4.05-4.18,2.2,0,3.47,1.26,3.47,3.7v6.55h1.57v-6.71C375.23,185.53,373.29,183.9,370.47,183.9Z" fill-rule="evenodd"/><path d="M83.41,214.24a7.35,7.35,0,0,0-4.71,1.56l.7,1.17a5.89,5.89,0,0,1,3.85-1.36c2.16,0,3.28,1.07,3.28,3v.71H82.86c-3.32,0-4.47,1.49-4.47,3.28,0,2,1.61,3.36,4.23,3.36a4.35,4.35,0,0,0,4-1.91v1.8h1.49v-7.17c0-3-1.69-4.49-4.68-4.49Zm-.55,10.54c-1.85,0-2.93-.84-2.93-2.18,0-1.19.73-2.07,3-2.07h3.63v1.9A3.7,3.7,0,0,1,82.86,224.78Z" fill-rule="evenodd"/><path d="M93.84,216.6v-2.27h-1.5V225.9H93.9V220c0-2.73,1.48-4.27,3.9-4.27l.37,0v-1.52C96,214.24,94.56,215.06,93.84,216.6Z" fill-rule="evenodd"/><path d="M109.94,214.33v2.29a5,5,0,0,0-4.47-2.38,5.89,5.89,0,0,0,0,11.77,5,5,0,0,0,4.4-2.29v6.45h1.57V214.33Zm-4.33,10.3a4.52,4.52,0,1,1,4.29-4.51A4.24,4.24,0,0,1,105.61,224.63Z" fill-rule="evenodd"/><path d="M124.66,214.33v6.07c0,2.64-1.52,4.2-3.94,4.2-2.2,0-3.48-1.25-3.48-3.71v-6.56h-1.56V221c0,3.32,1.94,5,4.89,5a4.59,4.59,0,0,0,4.15-2.22v2.11h1.5V214.33Z" fill-rule="evenodd"/><path d="M131.39,211.8a1.12,1.12,0,0,0,1.14-1.14,1.1,1.1,0,0,0-1.14-1.08,1.11,1.11,0,1,0,0,2.22Zm-.79,14.1h1.56V214.33H130.6Z" fill-rule="evenodd"/><path d="M142.06,224.08a2.62,2.62,0,0,1-1.72.59,1.86,1.86,0,0,1-2-2.11v-6.91h3.52v-1.32h-3.52V211.8h-1.56v2.53h-2.07v1.32h2.07v7a3.06,3.06,0,0,0,3.39,3.36,3.72,3.72,0,0,0,2.44-.81Z" fill-rule="evenodd"/><path d="M155.13,220.12a5.52,5.52,0,0,0-5.61-5.88,5.58,5.58,0,0,0-5.66,5.88,6.12,6.12,0,0,0,10.54,4l-.88-1a4.56,4.56,0,0,1-3.54,1.52,4.28,4.28,0,0,1-4.55-4h9.68c0-.18,0-.35,0-.48Zm-5.61-4.54a4,4,0,0,1,4.11,3.85h-8.2A4,4,0,0,1,149.52,215.58Z" fill-rule="evenodd"/><path d="M163.11,226a5.11,5.11,0,0,0,4.54-2.29l-1.17-.79a3.91,3.91,0,0,1-3.37,1.7,4.51,4.51,0,0,1,0-9,3.94,3.94,0,0,1,3.37,1.71l1.17-.79a5.07,5.07,0,0,0-4.54-2.29,5.89,5.89,0,1,0,0,11.77Z" fill-rule="evenodd"/><path d="M176.38,224.08a2.62,2.62,0,0,1-1.72.59,1.86,1.86,0,0,1-2-2.11v-6.91h3.52v-1.32h-3.52V211.8H171.1v2.53H169v1.32h2.07v7a3.06,3.06,0,0,0,3.39,3.36,3.72,3.72,0,0,0,2.44-.81Z" fill-rule="evenodd"/><path d="M184.08,226a5.89,5.89,0,1,0-5.9-5.89,5.68,5.68,0,0,0,5.9,5.89Zm0-1.38a4.52,4.52,0,1,1,4.29-4.51A4.24,4.24,0,0,1,184.08,224.63Z" fill-rule="evenodd"/><path d="M193,223.61a1.16,1.16,0,0,0-1.17,1.19,1.11,1.11,0,0,0,.8,1.12l-.75,3.19h1l.93-3a3.61,3.61,0,0,0,.31-1.28A1.16,1.16,0,0,0,193,223.61Z" fill-rule="evenodd"/><path d="M208,226a5.08,5.08,0,0,0,4.53-2.29l-1.17-.79a3.9,3.9,0,0,1-3.36,1.7,4.51,4.51,0,0,1,0-9,3.93,3.93,0,0,1,3.36,1.71l1.17-.79a5,5,0,0,0-4.53-2.29A5.89,5.89,0,1,0,208,226Z" fill-rule="evenodd"/><path d="M220.16,226a5.89,5.89,0,1,0-5.9-5.89,5.68,5.68,0,0,0,5.9,5.89Zm0-1.38a4.52,4.52,0,1,1,4.29-4.51A4.24,4.24,0,0,1,220.16,224.63Z" fill-rule="evenodd"/><path d="M235.12,214.24a4.89,4.89,0,0,0-4.4,2.22v-2.13h-1.5V225.9h1.57v-6.07c0-2.64,1.56-4.18,4-4.18,2.2,0,3.48,1.25,3.48,3.7v6.55h1.56v-6.71C239.87,215.87,237.94,214.24,235.12,214.24Z" fill-rule="evenodd"/><path d="M249.66,224.08a2.61,2.61,0,0,1-1.71.59,1.86,1.86,0,0,1-2-2.11v-6.91h3.52v-1.32h-3.52V211.8h-1.56v2.53h-2.07v1.32h2.07v7a3.06,3.06,0,0,0,3.39,3.36,3.7,3.7,0,0,0,2.44-.81Z" fill-rule="evenodd"/><path d="M254.55,216.6v-2.27h-1.5V225.9h1.56V220c0-2.73,1.48-4.27,3.9-4.27l.37,0v-1.52C256.75,214.24,255.27,215.06,254.55,216.6Z" fill-rule="evenodd"/><path d="M265.72,214.24A7.37,7.37,0,0,0,261,215.8l.71,1.17a5.85,5.85,0,0,1,3.85-1.36c2.15,0,3.28,1.07,3.28,3v.71h-3.68c-3.32,0-4.46,1.49-4.46,3.28,0,2,1.6,3.36,4.22,3.36a4.34,4.34,0,0,0,4-1.91v1.8h1.5v-7.17c0-3-1.7-4.49-4.69-4.49Zm-.55,10.54c-1.85,0-2.92-.84-2.92-2.18,0-1.19.72-2.07,3-2.07h3.63v1.9A3.72,3.72,0,0,1,265.17,224.78Z" fill-rule="evenodd"/><path d="M280.2,224.08a2.62,2.62,0,0,1-1.72.59,1.85,1.85,0,0,1-2-2.11v-6.91H280v-1.32h-3.52V211.8h-1.56v2.53h-2.07v1.32h2.07v7a3.06,3.06,0,0,0,3.39,3.36,3.72,3.72,0,0,0,2.44-.81Z" fill-rule="evenodd"/><path d="M287.63,214.24a7.32,7.32,0,0,0-4.7,1.56l.7,1.17a5.87,5.87,0,0,1,3.85-1.36c2.16,0,3.28,1.07,3.28,3v.71h-3.68c-3.32,0-4.46,1.49-4.46,3.28,0,2,1.6,3.36,4.22,3.36a4.32,4.32,0,0,0,4-1.91v1.8h1.5v-7.17c0-3-1.69-4.49-4.69-4.49Zm-.55,10.54c-1.84,0-2.92-.84-2.92-2.18,0-1.19.72-2.07,3-2.07h3.63v1.9A3.72,3.72,0,0,1,287.08,224.78Z" fill-rule="evenodd"/><path d="M299.67,226c3,0,4.77-1.3,4.77-3.3,0-4.44-7.5-2.08-7.5-5.21,0-1.1.92-1.92,3-1.92a6,6,0,0,1,3.41,1l.68-1.25a7.8,7.8,0,0,0-4.09-1.08c-2.94,0-4.57,1.41-4.57,3.3,0,4.58,7.5,2.21,7.5,5.22,0,1.14-.9,1.89-3.1,1.89a7,7,0,0,1-4.12-1.3l-.7,1.23A7.69,7.69,0,0,0,299.67,226Z" fill-rule="evenodd"/><path d="M317.14,214.24a7.33,7.33,0,0,0-4.71,1.56l.7,1.17a5.89,5.89,0,0,1,3.85-1.36c2.16,0,3.28,1.07,3.28,3v.71h-3.67c-3.33,0-4.47,1.49-4.47,3.28,0,2,1.61,3.36,4.22,3.36a4.35,4.35,0,0,0,4-1.91v1.8h1.49v-7.17c0-3-1.69-4.49-4.68-4.49Zm-.55,10.54c-1.85,0-2.93-.84-2.93-2.18,0-1.19.73-2.07,3-2.07h3.63v1.9A3.71,3.71,0,0,1,316.59,224.78Z" fill-rule="evenodd"/><path d="M340.7,214.33v6.07c0,2.64-1.52,4.2-3.94,4.2-2.2,0-3.48-1.25-3.48-3.71v-6.56h-1.56V221c0,3.32,1.94,5,4.88,5a4.59,4.59,0,0,0,4.16-2.22v2.11h1.5V214.33Z" fill-rule="evenodd"/><path d="M352.53,214.24a4.89,4.89,0,0,0-4.4,2.22v-2.13h-1.49V225.9h1.56v-6.07c0-2.64,1.56-4.18,4.05-4.18,2.2,0,3.47,1.25,3.47,3.7v6.55h1.56v-6.71C357.28,215.87,355.35,214.24,352.53,214.24Z" fill-rule="evenodd"/><path d="M64.26,240.84H58.49v15.4h1.63v-4.86h4.14c3.91,0,6.29-2,6.29-5.26s-2.38-5.28-6.29-5.28ZM64.21,250H60.12v-7.7h4.09c3.08,0,4.71,1.41,4.71,3.87S67.29,250,64.21,250Z" fill-rule="evenodd"/><path d="M86.37,256.24,82.6,251a4.77,4.77,0,0,0,3.52-4.84c0-3.3-2.37-5.28-6.29-5.28H74.07v15.4H75.7v-4.88h4.13a11.83,11.83,0,0,0,1.23-.07l3.52,5ZM79.79,250H75.7v-7.72h4.09c3.08,0,4.71,1.41,4.71,3.87S82.87,250,79.79,250Z" fill-rule="evenodd"/><path d="M96.71,256.37a7.83,7.83,0,1,0-8.1-7.83,7.74,7.74,0,0,0,8.1,7.83Zm0-1.45a6.38,6.38,0,1,1,6.44-6.38A6.26,6.26,0,0,1,96.71,254.92Z" fill-rule="evenodd"/><polygon points="118.99 242.25 118.99 240.84 108.43 240.84 108.43 256.24 110.06 256.24 110.06 249.71 118.02 249.71 118.02 248.3 110.06 248.3 110.06 242.25 118.99 242.25" fill-rule="evenodd"/><polygon points="123.99 254.83 123.99 249.11 131.95 249.11 131.95 247.73 123.99 247.73 123.99 242.25 132.92 242.25 132.92 240.84 122.36 240.84 122.36 256.24 133.25 256.24 133.25 254.83 123.99 254.83" fill-rule="evenodd"/><path d="M141.32,256.37c3.94,0,5.74-1.93,5.74-4.2,0-5.61-9.48-3.06-9.48-7.28,0-1.54,1.26-2.8,4.07-2.8a7.92,7.92,0,0,1,4.23,1.28l.55-1.3a8.71,8.71,0,0,0-4.78-1.36c-3.91,0-5.67,2-5.67,4.22,0,5.7,9.48,3.1,9.48,7.33,0,1.52-1.26,2.73-4.14,2.73a7.6,7.6,0,0,1-5.08-1.87l-.64,1.25A8.35,8.35,0,0,0,141.32,256.37Z" fill-rule="evenodd"/><rect x="150.61" y="240.84" width="1.63" height="15.4"/><path d="M164,256.37a7.83,7.83,0,1,0-8.09-7.83,7.75,7.75,0,0,0,8.09,7.83Zm0-1.45a6.38,6.38,0,1,1,6.45-6.38A6.26,6.26,0,0,1,164,254.92Z" fill-rule="evenodd"/><polygon points="186.97 240.84 186.97 253.34 177.05 240.84 175.71 240.84 175.71 256.24 177.34 256.24 177.34 243.74 187.24 256.24 188.58 256.24 188.58 240.84 186.97 240.84" fill-rule="evenodd"/><path d="M205.1,256.24h1.72l-7-15.4h-1.61l-7,15.4h1.69l1.85-4.11h8.58l1.85,4.11Zm-9.83-5.43,3.69-8.28,3.7,8.28Z" fill-rule="evenodd"/><polygon points="209.37 256.24 219.62 256.24 219.62 254.83 211 254.83 211 240.84 209.37 240.84 209.37 256.24" fill-rule="evenodd"/><path d="M222.81,256.35a1.2,1.2,0,0,0,1.19-1.21,1.19,1.19,0,0,0-1.19-1.19,1.17,1.17,0,0,0-1.17,1.19A1.19,1.19,0,0,0,222.81,256.35Z" fill-rule="evenodd"/><polygon points="235.04 254.83 235.04 249.11 243.01 249.11 243.01 247.73 235.04 247.73 235.04 242.25 243.97 242.25 243.97 240.84 233.41 240.84 233.41 256.24 244.3 256.24 244.3 254.83 235.04 254.83" fill-rule="evenodd"/><path d="M253.7,244.58a4.85,4.85,0,0,0-4.4,2.22v-2.13h-1.5v11.57h1.56v-6.07c0-2.64,1.57-4.18,4-4.18,2.2,0,3.48,1.25,3.48,3.69v6.56h1.56v-6.71C258.45,246.21,256.51,244.58,253.7,244.58Z" fill-rule="evenodd"/><rect x="268.79" y="240.84" width="1.63" height="15.4"/><polygon points="286.7 240.84 286.7 253.34 276.78 240.84 275.44 240.84 275.44 256.24 277.06 256.24 277.06 243.74 286.96 256.24 288.3 256.24 288.3 240.84 286.7 240.84" fill-rule="evenodd"/><polygon points="307.97 240.84 301.35 252.26 294.66 240.84 293.32 240.84 293.32 256.24 294.88 256.24 294.88 243.99 300.93 254.28 301.7 254.28 307.75 243.92 307.75 256.24 309.31 256.24 309.31 240.84 307.97 240.84" fill-rule="evenodd"/><path d="M321.06,256.37a7.83,7.83,0,1,0-8.09-7.83,7.75,7.75,0,0,0,8.09,7.83Zm0-1.45a6.38,6.38,0,1,1,6.45-6.38A6.26,6.26,0,0,1,321.06,254.92Z" fill-rule="evenodd"/><polygon points="333.25 254.83 343.44 241.96 343.44 240.84 331.23 240.84 331.23 242.25 341.28 242.25 331.07 255.12 331.07 256.24 343.7 256.24 343.7 254.83 333.25 254.83" fill-rule="evenodd"/><path d="M353.45,256.37a7.83,7.83,0,1,0-8.1-7.83,7.74,7.74,0,0,0,8.1,7.83Zm0-1.45a6.38,6.38,0,1,1,6.44-6.38A6.26,6.26,0,0,1,353.45,254.92Z" fill-rule="evenodd"/><polygon points="376.44 240.84 376.44 253.34 366.51 240.84 365.17 240.84 365.17 256.24 366.8 256.24 366.8 243.74 376.7 256.24 378.04 256.24 378.04 240.84 376.44 240.84" fill-rule="evenodd"/><path d="M69.33,284.75a2.58,2.58,0,0,1-1.72.6,1.85,1.85,0,0,1-2-2.12v-6.9h3.52V275H65.61v-2.53H64.05V275H62v1.32h2.07v7a3.07,3.07,0,0,0,3.39,3.37,3.73,3.73,0,0,0,2.44-.82Z" fill-rule="evenodd"/><path d="M74.21,277.27V275H72.72v11.57h1.56v-5.9c0-2.73,1.47-4.27,3.89-4.27.11,0,.24,0,.38,0v-1.52C76.41,274.92,74.94,275.73,74.21,277.27Z" fill-rule="evenodd"/><path d="M85.39,274.92a7.35,7.35,0,0,0-4.71,1.56l.7,1.17a5.9,5.9,0,0,1,3.85-1.37c2.16,0,3.28,1.08,3.28,3.06v.7H84.84c-3.32,0-4.47,1.5-4.47,3.28,0,2,1.61,3.37,4.23,3.37a4.35,4.35,0,0,0,4-1.92v1.81h1.49v-7.17c0-3-1.69-4.49-4.68-4.49Zm-.55,10.54c-1.85,0-2.93-.84-2.93-2.18,0-1.19.73-2.07,3-2.07h3.63v1.89A3.69,3.69,0,0,1,84.84,285.46Z" fill-rule="evenodd"/><path d="M100.28,274.92a5,5,0,0,0-4.4,2.29v-7H94.32v16.33h1.5v-2.29a5,5,0,0,0,4.46,2.4,5.89,5.89,0,0,0,0-11.77Zm-.11,10.38a4.51,4.51,0,1,1,4.31-4.51A4.24,4.24,0,0,1,100.17,285.3Z" fill-rule="evenodd"/><path d="M113.22,274.92a7.35,7.35,0,0,0-4.71,1.56l.7,1.17a5.9,5.9,0,0,1,3.85-1.37c2.16,0,3.28,1.08,3.28,3.06v.7h-3.67c-3.32,0-4.47,1.5-4.47,3.28,0,2,1.61,3.37,4.23,3.37a4.35,4.35,0,0,0,4-1.92v1.81h1.49v-7.17c0-3-1.69-4.49-4.68-4.49Zm-.55,10.54c-1.85,0-2.93-.84-2.93-2.18,0-1.19.73-2.07,3-2.07h3.63v1.89A3.69,3.69,0,0,1,112.67,285.46Z" fill-rule="evenodd"/><path d="M123.05,272.48a1.13,1.13,0,0,0,1.15-1.15,1.15,1.15,0,0,0-2.29,0,1.13,1.13,0,0,0,1.14,1.13ZM120.43,291a3.17,3.17,0,0,0,3.39-3.52V275h-1.56v12.43c0,1.43-.68,2.17-1.91,2.17a2.68,2.68,0,0,1-1.81-.59l-.55,1.19A3.84,3.84,0,0,0,120.43,291Z" fill-rule="evenodd"/><path d="M132.23,274.92a7.33,7.33,0,0,0-4.71,1.56l.7,1.17a5.9,5.9,0,0,1,3.85-1.37c2.16,0,3.28,1.08,3.28,3.06v.7h-3.67c-3.33,0-4.47,1.5-4.47,3.28,0,2,1.61,3.37,4.22,3.37a4.36,4.36,0,0,0,4-1.92v1.81h1.49v-7.17c0-3-1.69-4.49-4.68-4.49Zm-.55,10.54c-1.85,0-2.93-.84-2.93-2.18,0-1.19.73-2.07,3-2.07h3.63v1.89A3.7,3.7,0,0,1,131.68,285.46Z" fill-rule="evenodd"/><path d="M142.65,277.27V275h-1.49v11.57h1.56v-5.9c0-2.73,1.47-4.27,3.89-4.27.11,0,.25,0,.38,0v-1.52C144.85,274.92,143.38,275.73,142.65,277.27Z" fill-rule="evenodd"/><path d="M157.55,270.5h-2.09l-3,2.72H154l3.57-2.72Zm-3.72,4.42a7.35,7.35,0,0,0-4.71,1.56l.71,1.17a5.86,5.86,0,0,1,3.85-1.37c2.15,0,3.27,1.08,3.27,3.06v.7h-3.67c-3.32,0-4.47,1.5-4.47,3.28,0,2,1.61,3.37,4.23,3.37a4.34,4.34,0,0,0,4-1.92v1.81h1.5v-7.17c0-3-1.7-4.49-4.69-4.49Zm-.55,10.54c-1.85,0-2.93-.84-2.93-2.18,0-1.19.73-2.07,3-2.07H157v1.89A3.69,3.69,0,0,1,153.28,285.46Z" fill-rule="evenodd"/><path d="M165.86,286.69c3,0,4.78-1.3,4.78-3.3,0-4.44-7.5-2.09-7.5-5.22,0-1.1.92-1.91,3-1.91a6,6,0,0,1,3.41,1l.68-1.25a7.83,7.83,0,0,0-4.09-1.08c-3,0-4.58,1.41-4.58,3.3,0,4.57,7.51,2.2,7.51,5.21,0,1.15-.91,1.89-3.11,1.89a7,7,0,0,1-4.11-1.29l-.7,1.23A7.73,7.73,0,0,0,165.86,286.69Z" fill-rule="evenodd"/><path d="M184.08,286.69a5.08,5.08,0,0,0,4.53-2.29l-1.16-.79a3.94,3.94,0,0,1-3.37,1.69,4.51,4.51,0,0,1,0-9,4,4,0,0,1,3.37,1.72l1.16-.79a5,5,0,0,0-4.53-2.29,5.89,5.89,0,1,0,0,11.77Z" fill-rule="evenodd"/><path d="M196.2,286.69a5.89,5.89,0,1,0-5.89-5.9,5.7,5.7,0,0,0,5.89,5.9Zm0-1.39a4.52,4.52,0,1,1,4.29-4.51A4.24,4.24,0,0,1,196.2,285.3Z" fill-rule="evenodd"/><path d="M211.16,274.92a4.86,4.86,0,0,0-4.4,2.22V275h-1.5v11.57h1.57v-6.07c0-2.64,1.56-4.18,4-4.18,2.19,0,3.47,1.25,3.47,3.69v6.56h1.56v-6.71C215.91,276.55,214,274.92,211.16,274.92Z" fill-rule="evenodd"/><path d="M234.79,275v6.07c0,2.64-1.52,4.2-3.94,4.2-2.2,0-3.47-1.25-3.47-3.72V275h-1.57v6.71c0,3.32,1.94,5,4.89,5a4.63,4.63,0,0,0,4.16-2.22v2.11h1.49V275Z" fill-rule="evenodd"/><path d="M246.62,274.92a4.84,4.84,0,0,0-4.39,2.22V275h-1.5v11.57h1.56v-6.07c0-2.64,1.56-4.18,4.05-4.18,2.2,0,3.48,1.25,3.48,3.69v6.56h1.56v-6.71C251.38,276.55,249.44,274.92,246.62,274.92Z" fill-rule="evenodd"/><path d="M271.49,280.79a5.52,5.52,0,0,0-5.61-5.87,5.57,5.57,0,0,0-5.66,5.87,6.12,6.12,0,0,0,10.54,4l-.88-1a4.53,4.53,0,0,1-3.54,1.52,4.29,4.29,0,0,1-4.56-4h9.68c0-.18,0-.36,0-.49Zm-5.61-4.53a4,4,0,0,1,4.11,3.85h-8.21A4,4,0,0,1,265.88,276.26Z" fill-rule="evenodd"/><path d="M275.58,272.48a1.12,1.12,0,0,0,1.14-1.15,1.11,1.11,0,0,0-1.14-1.08,1.12,1.12,0,1,0,0,2.23ZM273,291a3.17,3.17,0,0,0,3.39-3.52V275h-1.56v12.43c0,1.43-.69,2.17-1.92,2.17a2.67,2.67,0,0,1-1.8-.59l-.55,1.19A3.84,3.84,0,0,0,273,291Z" fill-rule="evenodd"/><path d="M288.86,270.5h-2.09l-3,2.72h1.54l3.56-2.72Zm1.94,10.29a5.51,5.51,0,0,0-5.61-5.87,5.57,5.57,0,0,0-5.65,5.87,6.12,6.12,0,0,0,10.54,4l-.89-1a4.53,4.53,0,0,1-3.54,1.52,4.27,4.27,0,0,1-4.55-4h9.68c0-.18,0-.36,0-.49Zm-5.61-4.53a4,4,0,0,1,4.11,3.85h-8.2A4,4,0,0,1,285.19,276.26Z" fill-rule="evenodd"/><path d="M295.49,277.27V275H294v11.57h1.56v-5.9c0-2.73,1.48-4.27,3.9-4.27.11,0,.24,0,.37,0v-1.52C297.69,274.92,296.21,275.73,295.49,277.27Z" fill-rule="evenodd"/><path d="M307.32,286.69a5.11,5.11,0,0,0,4.54-2.29l-1.17-.79a3.93,3.93,0,0,1-3.37,1.69,4.51,4.51,0,0,1,0-9,3.93,3.93,0,0,1,3.37,1.72l1.17-.79a5.07,5.07,0,0,0-4.54-2.29,5.89,5.89,0,1,0,0,11.77Z" fill-rule="evenodd"/><path d="M315.7,272.48a1.13,1.13,0,0,0,1.15-1.15,1.12,1.12,0,0,0-1.15-1.08,1.12,1.12,0,1,0,0,2.23Zm-.79,14.1h1.56V275h-1.56Z" fill-rule="evenodd"/><path d="M326.37,284.75a2.55,2.55,0,0,1-1.71.6,1.85,1.85,0,0,1-2-2.12v-6.9h3.52V275h-3.52v-2.53h-1.57V275H319v1.32h2.06v7a3.07,3.07,0,0,0,3.39,3.37,3.71,3.71,0,0,0,2.44-.82Z" fill-rule="evenodd"/><path d="M334.07,286.69a5.89,5.89,0,1,0-5.89-5.9,5.7,5.7,0,0,0,5.89,5.9Zm0-1.39a4.52,4.52,0,1,1,4.29-4.51A4.24,4.24,0,0,1,334.07,285.3Z" fill-rule="evenodd"/><path d="M357.9,270.25v7a5,5,0,0,0-4.4-2.29,5.89,5.89,0,0,0,0,11.77,5,5,0,0,0,4.47-2.4v2.29h1.49V270.25Zm-4.27,15.05a4.52,4.52,0,1,1,4.29-4.51A4.24,4.24,0,0,1,353.63,285.3Z" fill-rule="evenodd"/><path d="M373.92,280.79a5.52,5.52,0,0,0-5.61-5.87,5.57,5.57,0,0,0-5.66,5.87,6.12,6.12,0,0,0,10.54,4l-.88-1a4.53,4.53,0,0,1-3.54,1.52,4.29,4.29,0,0,1-4.56-4h9.68c0-.18,0-.36,0-.49Zm-5.61-4.53a4,4,0,0,1,4.11,3.85h-8.21A4,4,0,0,1,368.31,276.26Z" fill-rule="evenodd"/><path d="M75.21,302.81a1.11,1.11,0,1,0-1.14-1.12,1.12,1.12,0,0,0,1.14,1.12Zm-.79,14.11H76V305.34H74.42Z" fill-rule="evenodd"/><path d="M86.23,305.26a4.86,4.86,0,0,0-4.4,2.22v-2.14H80.34v11.58H81.9v-6.08c0-2.64,1.56-4.18,4-4.18,2.2,0,3.47,1.26,3.47,3.7v6.56H91v-6.71C91,306.88,89.05,305.26,86.23,305.26Z" fill-rule="evenodd"/><path d="M109.66,305.26a5,5,0,0,0-4.57,2.44,4.15,4.15,0,0,0-4.12-2.44,4.66,4.66,0,0,0-4.24,2.2v-2.12h-1.5v11.58h1.56v-6.08c0-2.64,1.52-4.18,3.88-4.18,2.11,0,3.34,1.26,3.34,3.7v6.56h1.56v-6.08c0-2.64,1.5-4.18,3.87-4.18,2.09,0,3.33,1.26,3.33,3.7v6.56h1.56v-6.71C114.33,306.88,112.48,305.26,109.66,305.26Z" fill-rule="evenodd"/><path d="M123.35,317a5.89,5.89,0,1,0-5.9-5.9,5.69,5.69,0,0,0,5.9,5.9Zm0-1.39a4.52,4.52,0,1,1,4.29-4.51A4.23,4.23,0,0,1,123.35,315.64Z" fill-rule="evenodd"/><path d="M138.37,305.26a5.07,5.07,0,0,0-4.4,2.28v-7h-1.56v16.33h1.5v-2.29a5,5,0,0,0,4.46,2.4,5.89,5.89,0,0,0,0-11.77Zm-.11,10.38a4.51,4.51,0,1,1,4.32-4.51A4.24,4.24,0,0,1,138.26,315.64Z" fill-rule="evenodd"/><path d="M148.12,302.81a1.11,1.11,0,1,0-1.14-1.12,1.11,1.11,0,0,0,1.14,1.12Zm-.79,14.11h1.56V305.34h-1.56Z" fill-rule="evenodd"/><rect x="153.25" y="300.59" width="1.56" height="16.32"/><path d="M160,302.81a1.11,1.11,0,1,0,0-2.22,1.11,1.11,0,1,0,0,2.22Zm-.8,14.11h1.57V305.34h-1.57Z" fill-rule="evenodd"/><path d="M169.13,305.26a7.35,7.35,0,0,0-4.71,1.56l.71,1.16a5.9,5.9,0,0,1,3.85-1.36c2.15,0,3.27,1.08,3.27,3.06v.7h-3.67c-3.32,0-4.47,1.5-4.47,3.28,0,2,1.61,3.37,4.23,3.37a4.34,4.34,0,0,0,4-1.92v1.81h1.5v-7.18c0-3-1.7-4.48-4.69-4.48Zm-.55,10.53c-1.85,0-2.93-.83-2.93-2.17s.73-2.07,3-2.07h3.63v1.89A3.69,3.69,0,0,1,168.58,315.79Z" fill-rule="evenodd"/><path d="M179.56,307.61v-2.27h-1.5v11.58h1.56V311c0-2.73,1.48-4.27,3.9-4.27l.37,0v-1.51C181.76,305.26,180.28,306.07,179.56,307.61Z" fill-rule="evenodd"/><path d="M187.5,302.81a1.11,1.11,0,1,0-1.14-1.12,1.11,1.11,0,0,0,1.14,1.12Zm-.79,14.11h1.56V305.34h-1.56Z" fill-rule="evenodd"/><path d="M197.36,317a5.89,5.89,0,1,0-5.9-5.9,5.7,5.7,0,0,0,5.9,5.9Zm0-1.39a4.52,4.52,0,1,1,4.29-4.51A4.24,4.24,0,0,1,197.36,315.64Z" fill-rule="evenodd"/><path d="M209.52,317c3,0,4.78-1.3,4.78-3.3,0-4.44-7.51-2.09-7.51-5.22,0-1.1.93-1.91,3-1.91a5.88,5.88,0,0,1,3.41,1l.68-1.26a7.85,7.85,0,0,0-4.09-1.07c-2.95,0-4.58,1.4-4.58,3.3,0,4.57,7.5,2.2,7.5,5.21,0,1.14-.9,1.89-3.1,1.89a6.94,6.94,0,0,1-4.11-1.3l-.71,1.24A7.78,7.78,0,0,0,209.52,317Z" fill-rule="evenodd"/><path d="M223.21,303.91v1.43h-2.07v1.32h2.07v10.26h1.56V306.66h3.52v-1.32h-3.57V304c0-1.43.71-2.18,2.05-2.18a2.68,2.68,0,0,1,1.72.57l.52-1.16a3.63,3.63,0,0,0-2.31-.73,3.19,3.19,0,0,0-3.49,3.43Zm9.74-3.32a1.11,1.11,0,1,0,1.15,1.08,1.13,1.13,0,0,0-1.15-1.08Zm-.79,16.33h1.56V305.34h-1.56Z" fill-rule="evenodd"/><path d="M239,302.81a1.11,1.11,0,1,0-1.14-1.12,1.11,1.11,0,0,0,1.14,1.12Zm-2.62,18.48a3.17,3.17,0,0,0,3.39-3.52V305.34h-1.56v12.43c0,1.43-.68,2.18-1.92,2.18a2.73,2.73,0,0,1-1.8-.59l-.55,1.19A3.83,3.83,0,0,0,236.36,321.29Z" fill-rule="evenodd"/><path d="M248.15,305.26a7.32,7.32,0,0,0-4.7,1.56l.7,1.16a5.92,5.92,0,0,1,3.85-1.36c2.16,0,3.28,1.08,3.28,3.06v.7H247.6c-3.32,0-4.46,1.5-4.46,3.28,0,2,1.6,3.37,4.22,3.37a4.33,4.33,0,0,0,4-1.92v1.81h1.5v-7.18c0-3-1.69-4.48-4.69-4.48Zm-.55,10.53c-1.84,0-2.92-.83-2.92-2.17s.72-2.07,3-2.07h3.63v1.89A3.71,3.71,0,0,1,247.6,315.79Z" fill-rule="evenodd"/><path d="M263,305.26a4.86,4.86,0,0,0-4.4,2.22v-2.14h-1.49v11.58h1.56v-6.08c0-2.64,1.56-4.18,4.05-4.18,2.2,0,3.47,1.26,3.47,3.7v6.56h1.56v-6.71C267.73,306.88,265.8,305.26,263,305.26Z" fill-rule="evenodd"/><path d="M281,300.59v7a5.06,5.06,0,0,0-4.4-2.28,5.89,5.89,0,0,0,0,11.77,5,5,0,0,0,4.47-2.4v2.29h1.49V300.59Zm-4.27,15.05a4.52,4.52,0,1,1,4.29-4.51A4.24,4.24,0,0,1,276.75,315.64Z" fill-rule="evenodd"/><path d="M291.67,317a5.89,5.89,0,1,0-5.9-5.9,5.69,5.69,0,0,0,5.9,5.9Zm0-1.39a4.52,4.52,0,1,1,4.29-4.51A4.24,4.24,0,0,1,291.67,315.64Z" fill-rule="evenodd"/><path d="M312,315.09a2.56,2.56,0,0,1-1.71.59,1.85,1.85,0,0,1-2-2.11v-6.91h3.52v-1.32h-3.52v-2.53h-1.56v2.53h-2.07v1.32h2.07v7a3.07,3.07,0,0,0,3.39,3.37,3.71,3.71,0,0,0,2.44-.82Z" fill-rule="evenodd"/><path d="M324.27,300.83h-2.09l-3,2.73h1.54l3.56-2.73Zm0,4.51v6.08c0,2.64-1.52,4.2-3.94,4.2-2.2,0-3.48-1.26-3.48-3.72v-6.56h-1.56v6.71c0,3.33,1.94,5,4.88,5a4.6,4.6,0,0,0,4.16-2.23v2.12h1.5V305.34Z" fill-rule="evenodd"/><rect x="336" y="300.59" width="1.56" height="16.32"/><path d="M346.65,317a5.89,5.89,0,1,0-5.9-5.9,5.69,5.69,0,0,0,5.9,5.9Zm0-1.39a4.52,4.52,0,1,1,4.29-4.51A4.23,4.23,0,0,1,346.65,315.64Z" fill-rule="evenodd"/><path d="M358.81,317c3,0,4.78-1.3,4.78-3.3,0-4.44-7.5-2.09-7.5-5.22,0-1.1.92-1.91,3-1.91a5.88,5.88,0,0,1,3.41,1l.68-1.26a7.83,7.83,0,0,0-4.09-1.07c-3,0-4.58,1.4-4.58,3.3,0,4.57,7.51,2.2,7.51,5.21,0,1.14-.91,1.89-3.11,1.89a6.94,6.94,0,0,1-4.11-1.3l-.7,1.24A7.73,7.73,0,0,0,358.81,317Z" fill-rule="evenodd"/><path d="M78.48,335.59a4.86,4.86,0,0,0-4.33,2.12v-6.78H72.58v16.32h1.57v-6.07c0-2.64,1.56-4.18,4-4.18,2.2,0,3.48,1.26,3.48,3.7v6.55h1.56v-6.71C83.23,337.22,81.3,335.59,78.48,335.59Z" fill-rule="evenodd"/><path d="M92.25,347.36a5.89,5.89,0,1,0-5.89-5.89,5.69,5.69,0,0,0,5.89,5.89Zm0-1.38a4.52,4.52,0,1,1,4.29-4.51A4.24,4.24,0,0,1,92.25,346Z" fill-rule="evenodd"/><path d="M107.21,335.59a4.87,4.87,0,0,0-4.4,2.23v-2.14h-1.49v11.57h1.56v-6.07c0-2.64,1.56-4.18,4.05-4.18,2.2,0,3.47,1.26,3.47,3.7v6.55H112v-6.71C112,337.22,110,335.59,107.21,335.59Z" fill-rule="evenodd"/><path d="M121,347.36a5.89,5.89,0,1,0-5.89-5.89,5.69,5.69,0,0,0,5.89,5.89Zm0-1.38a4.52,4.52,0,1,1,4.29-4.51A4.24,4.24,0,0,1,121,346Z" fill-rule="evenodd"/><path d="M131.54,338v-2.27h-1.49v11.57h1.56v-5.89c0-2.73,1.47-4.27,3.89-4.27l.38,0v-1.52C133.74,335.59,132.27,336.41,131.54,338Z" fill-rule="evenodd"/><path d="M142.72,335.59a7.36,7.36,0,0,0-4.71,1.57l.71,1.16a5.9,5.9,0,0,1,3.85-1.36c2.15,0,3.27,1.08,3.27,3.06v.7h-3.67c-3.32,0-4.47,1.5-4.47,3.28,0,2,1.61,3.36,4.23,3.36a4.34,4.34,0,0,0,4-1.91v1.8h1.5v-7.17c0-3-1.7-4.49-4.69-4.49Zm-.55,10.54c-1.85,0-2.93-.83-2.93-2.18,0-1.18.73-2.06,3-2.06h3.63v1.89A3.69,3.69,0,0,1,142.17,346.13Z" fill-rule="evenodd"/><path d="M153.15,338v-2.27h-1.5v11.57h1.56v-5.89c0-2.73,1.48-4.27,3.9-4.27l.37,0v-1.52C155.35,335.59,153.87,336.41,153.15,338Z" fill-rule="evenodd"/><path d="M161.09,333.15a1.11,1.11,0,0,0,1.14-1.14,1.1,1.1,0,0,0-1.14-1.08,1.11,1.11,0,1,0,0,2.22Zm-.79,14.1h1.56V335.68H160.3Z" fill-rule="evenodd"/><path d="M171,347.36a5.89,5.89,0,1,0-5.9-5.89,5.69,5.69,0,0,0,5.9,5.89Zm0-1.38a4.52,4.52,0,1,1,4.29-4.51A4.24,4.24,0,0,1,171,346Z" fill-rule="evenodd"/><path d="M183.11,347.36c3,0,4.77-1.29,4.77-3.3,0-4.44-7.5-2.08-7.5-5.21,0-1.1.93-1.91,3-1.91a5.9,5.9,0,0,1,3.41,1l.68-1.26a7.86,7.86,0,0,0-4.09-1.08c-3,0-4.58,1.41-4.58,3.3,0,4.58,7.5,2.21,7.5,5.22,0,1.14-.9,1.89-3.1,1.89a6.94,6.94,0,0,1-4.11-1.3l-.71,1.23A7.72,7.72,0,0,0,183.11,347.36Z" fill-rule="evenodd"/><path d="M205.59,335.68V338a5,5,0,0,0-4.46-2.38,5.89,5.89,0,0,0,0,11.77,5.06,5.06,0,0,0,4.4-2.28v6.44h1.56V335.68ZM201.26,346a4.52,4.52,0,1,1,4.29-4.51A4.24,4.24,0,0,1,201.26,346Z" fill-rule="evenodd"/><path d="M220.31,335.68v6.07c0,2.64-1.51,4.21-3.94,4.21-2.2,0-3.47-1.26-3.47-3.72v-6.56h-1.56v6.71c0,3.32,1.93,5,4.88,5a4.61,4.61,0,0,0,4.16-2.22v2.11h1.49V335.68Z" fill-rule="evenodd"/><path d="M236.35,341.47a5.51,5.51,0,0,0-5.61-5.88,5.57,5.57,0,0,0-5.65,5.88,6.11,6.11,0,0,0,10.53,4l-.88-1A4.56,4.56,0,0,1,231.2,346a4.28,4.28,0,0,1-4.55-4h9.68c0-.17,0-.35,0-.48Zm-5.61-4.53a4,4,0,0,1,4.11,3.85h-8.2A4,4,0,0,1,230.74,336.94Z" fill-rule="evenodd"/><path d="M250.1,347.36a5.1,5.1,0,0,0,4.53-2.28l-1.16-.8a3.93,3.93,0,0,1-3.37,1.7,4.51,4.51,0,0,1,0-9,4,4,0,0,1,3.37,1.71l1.16-.79a5,5,0,0,0-4.53-2.29,5.89,5.89,0,1,0,0,11.77Z" fill-rule="evenodd"/><path d="M262.22,347.36a5.89,5.89,0,1,0-5.89-5.89,5.69,5.69,0,0,0,5.89,5.89Zm0-1.38a4.52,4.52,0,1,1,4.29-4.51A4.24,4.24,0,0,1,262.22,346Z" fill-rule="evenodd"/><path d="M277.18,335.59a4.87,4.87,0,0,0-4.4,2.23v-2.14h-1.49v11.57h1.56v-6.07c0-2.64,1.56-4.18,4-4.18,2.2,0,3.47,1.26,3.47,3.7v6.55h1.56v-6.71C281.93,337.22,280,335.59,277.18,335.59Z" fill-rule="evenodd"/><path d="M289.28,347.36c3,0,4.78-1.29,4.78-3.3,0-4.44-7.51-2.08-7.51-5.21,0-1.1.93-1.91,3-1.91a5.88,5.88,0,0,1,3.41,1l.68-1.26a7.86,7.86,0,0,0-4.09-1.08c-2.95,0-4.58,1.41-4.58,3.3,0,4.58,7.5,2.21,7.5,5.22,0,1.14-.9,1.89-3.1,1.89a6.94,6.94,0,0,1-4.11-1.3l-.71,1.23A7.72,7.72,0,0,0,289.28,347.36Z" fill-rule="evenodd"/><path d="M297.73,333.15a1.11,1.11,0,0,0,1.14-1.14,1.1,1.1,0,0,0-1.14-1.08,1.11,1.11,0,1,0,0,2.22Zm-.79,14.1h1.56V335.68h-1.56Z" fill-rule="evenodd"/><path d="M311.85,330.93v6.95a5.06,5.06,0,0,0-4.4-2.29,5.89,5.89,0,0,0,0,11.77,5,5,0,0,0,4.47-2.39v2.28h1.5V330.93ZM307.59,346a4.52,4.52,0,1,1,4.29-4.51A4.24,4.24,0,0,1,307.59,346Z" fill-rule="evenodd"/><path d="M327.87,341.47a5.51,5.51,0,0,0-5.61-5.88,5.57,5.57,0,0,0-5.65,5.88,6.11,6.11,0,0,0,10.53,4l-.88-1a4.56,4.56,0,0,1-3.54,1.52,4.28,4.28,0,0,1-4.55-4h9.68c0-.17,0-.35,0-.48Zm-5.61-4.53a4,4,0,0,1,4.11,3.85h-8.2A4,4,0,0,1,322.26,336.94Z" fill-rule="evenodd"/><path d="M332.56,338v-2.27h-1.5v11.57h1.56v-5.89c0-2.73,1.48-4.27,3.9-4.27l.37,0v-1.52C334.76,335.59,333.28,336.41,332.56,338Z" fill-rule="evenodd"/><path d="M349.69,341.47a5.51,5.51,0,0,0-5.61-5.88,5.58,5.58,0,0,0-5.65,5.88,6.12,6.12,0,0,0,10.54,4l-.88-1a4.58,4.58,0,0,1-3.54,1.52,4.29,4.29,0,0,1-4.56-4h9.68c0-.17,0-.35,0-.48Zm-5.61-4.53a4,4,0,0,1,4.12,3.85H340A4,4,0,0,1,344.08,336.94Z" fill-rule="evenodd"/><path d="M356,347.36c3,0,4.77-1.29,4.77-3.3,0-4.44-7.5-2.08-7.5-5.21,0-1.1.92-1.91,3-1.91a5.88,5.88,0,0,1,3.41,1l.68-1.26a7.8,7.8,0,0,0-4.09-1.08c-2.95,0-4.57,1.41-4.57,3.3,0,4.58,7.5,2.21,7.5,5.22,0,1.14-.9,1.89-3.1,1.89a7,7,0,0,1-4.12-1.3l-.7,1.23A7.67,7.67,0,0,0,356,347.36Z" fill-rule="evenodd"/><path d="M363.82,345a1.15,1.15,0,0,0-1.17,1.18,1.12,1.12,0,0,0,.79,1.13l-.74,3.19h1.05l.93-3a3.55,3.55,0,0,0,.3-1.28A1.14,1.14,0,0,0,363.82,345Z" fill-rule="evenodd"/><path d="M90.8,365.93a5.06,5.06,0,0,0-4.47,2.38V366H84.84v15.84H86.4v-6.45a5,5,0,0,0,4.4,2.29,5.89,5.89,0,0,0,0-11.77Zm-.11,10.39A4.51,4.51,0,1,1,95,371.81,4.24,4.24,0,0,1,90.69,376.32Z" fill-rule="evenodd"/><path d="M103.74,365.93A7.33,7.33,0,0,0,99,367.49l.7,1.17a5.89,5.89,0,0,1,3.85-1.36c2.16,0,3.28,1.07,3.28,3.05v.71h-3.67c-3.33,0-4.47,1.49-4.47,3.28,0,2,1.61,3.36,4.22,3.36a4.35,4.35,0,0,0,4-1.91v1.8h1.49v-7.17c0-3-1.69-4.49-4.68-4.49Zm-.55,10.54c-1.85,0-2.93-.84-2.93-2.18s.73-2.07,3-2.07h3.63v1.9A3.71,3.71,0,0,1,103.19,376.47Z" fill-rule="evenodd"/><path d="M114.16,368.29V366h-1.49v11.57h1.56V371.7c0-2.73,1.47-4.27,3.89-4.27l.38,0v-1.52C116.36,365.93,114.89,366.75,114.16,368.29Z" fill-rule="evenodd"/><path d="M127.36,375.77a2.59,2.59,0,0,1-1.71.59,1.85,1.85,0,0,1-2-2.11v-6.91h3.52V366h-3.52v-2.53h-1.57V366H120v1.32h2.06v7a3.06,3.06,0,0,0,3.39,3.36,3.7,3.7,0,0,0,2.44-.81Z" fill-rule="evenodd"/><path d="M131.54,363.49a1.13,1.13,0,0,0,1.15-1.14,1.11,1.11,0,0,0-1.15-1.08,1.11,1.11,0,1,0,0,2.22Zm-.79,14.1h1.56V366h-1.56Z" fill-rule="evenodd"/><path d="M146.77,371.81a5.52,5.52,0,0,0-5.61-5.88,5.58,5.58,0,0,0-5.66,5.88,6.12,6.12,0,0,0,10.54,4l-.88-1a4.56,4.56,0,0,1-3.54,1.52,4.28,4.28,0,0,1-4.55-4h9.68c0-.18,0-.35,0-.48Zm-5.61-4.54a4,4,0,0,1,4.11,3.85h-8.2A4,4,0,0,1,141.16,367.27Z" fill-rule="evenodd"/><path d="M155.85,365.93a4.89,4.89,0,0,0-4.4,2.22V366H150v11.57h1.56v-6.07c0-2.64,1.56-4.18,4-4.18,2.2,0,3.47,1.25,3.47,3.7v6.55h1.57v-6.71C160.61,367.56,158.67,365.93,155.85,365.93Z" fill-rule="evenodd"/><path d="M173.89,361.27v7a5,5,0,0,0-4.4-2.29,5.89,5.89,0,0,0,0,11.77,5,5,0,0,0,4.47-2.4v2.29h1.5V361.27Zm-4.26,15.05a4.52,4.52,0,1,1,4.29-4.51A4.24,4.24,0,0,1,169.63,376.32Z" fill-rule="evenodd"/><path d="M184.54,377.7a5.89,5.89,0,1,0-5.89-5.89,5.69,5.69,0,0,0,5.89,5.89Zm0-1.38a4.52,4.52,0,1,1,4.29-4.51A4.24,4.24,0,0,1,184.54,376.32Z" fill-rule="evenodd"/><path d="M208.37,361.27v7a5,5,0,0,0-4.4-2.29,5.89,5.89,0,0,0,0,11.77,5,5,0,0,0,4.46-2.4v2.29h1.5V361.27Zm-4.27,15.05a4.52,4.52,0,1,1,4.29-4.51A4.24,4.24,0,0,1,204.1,376.32Z" fill-rule="evenodd"/><path d="M224.38,371.81a5.51,5.51,0,0,0-5.61-5.88,5.57,5.57,0,0,0-5.65,5.88,6.12,6.12,0,0,0,10.54,4l-.88-1a4.58,4.58,0,0,1-3.55,1.52,4.29,4.29,0,0,1-4.55-4h9.68c0-.18,0-.35,0-.48Zm-5.61-4.54a4,4,0,0,1,4.12,3.85h-8.21A4,4,0,0,1,218.77,367.27Z" fill-rule="evenodd"/><path d="M242.2,366v6.07c0,2.64-1.52,4.2-3.94,4.2-2.2,0-3.47-1.25-3.47-3.71V366h-1.56v6.71c0,3.32,1.93,5,4.88,5a4.61,4.61,0,0,0,4.16-2.22v2.11h1.49V366Z" fill-rule="evenodd"/><path d="M254,365.93a4.87,4.87,0,0,0-4.4,2.22V366h-1.5v11.57h1.56v-6.07c0-2.64,1.57-4.18,4.05-4.18,2.2,0,3.48,1.25,3.48,3.7v6.55h1.56v-6.71C258.79,367.56,256.85,365.93,254,365.93Z" fill-rule="evenodd"/><path d="M283.23,365.93a5,5,0,0,0-4.57,2.44,4.17,4.17,0,0,0-4.12-2.44,4.68,4.68,0,0,0-4.24,2.2V366h-1.5v11.57h1.56v-6.07c0-2.64,1.52-4.18,3.87-4.18,2.12,0,3.35,1.25,3.35,3.7v6.55h1.56v-6.07c0-2.64,1.5-4.18,3.87-4.18,2.09,0,3.32,1.25,3.32,3.7v6.55h1.57v-6.71C287.9,367.56,286.05,365.93,283.23,365.93Z" fill-rule="evenodd"/><path d="M291.5,364.24H293l3.57-2.73h-2.09l-3,2.73Zm.64,13.35h1.56V366h-1.56Z" fill-rule="evenodd"/><path d="M304,365.93a4.86,4.86,0,0,0-4.4,2.22V366h-1.5v11.57h1.56v-6.07c0-2.64,1.56-4.18,4.05-4.18,2.2,0,3.48,1.25,3.48,3.7v6.55h1.56v-6.71C308.71,367.56,306.77,365.93,304,365.93Z" fill-rule="evenodd"/><path d="M313.75,363.49a1.12,1.12,0,0,0,1.14-1.14,1.11,1.11,0,0,0-1.14-1.08,1.11,1.11,0,1,0,0,2.22Zm-.8,14.1h1.57V366H313Z" fill-rule="evenodd"/><path d="M333.3,365.93a5,5,0,0,0-4.57,2.44,4.17,4.17,0,0,0-4.12-2.44,4.68,4.68,0,0,0-4.24,2.2V366h-1.5v11.57h1.56v-6.07c0-2.64,1.52-4.18,3.88-4.18,2.11,0,3.34,1.25,3.34,3.7v6.55h1.56v-6.07c0-2.64,1.5-4.18,3.87-4.18,2.09,0,3.33,1.25,3.33,3.7v6.55H338v-6.71C338,367.56,336.12,365.93,333.3,365.93Z" fill-rule="evenodd"/><path d="M347,377.7a5.89,5.89,0,1,0-5.9-5.89,5.68,5.68,0,0,0,5.9,5.89Zm0-1.38a4.52,4.52,0,1,1,4.29-4.51A4.24,4.24,0,0,1,347,376.32Z" fill-rule="evenodd"/><path d="M191.62,391.61v6.95a5,5,0,0,0-4.4-2.29,5.89,5.89,0,0,0,0,11.77,5,5,0,0,0,4.47-2.4v2.29h1.5V391.61Zm-4.26,15a4.52,4.52,0,1,1,4.29-4.51A4.23,4.23,0,0,1,187.36,406.65Z" fill-rule="evenodd"/><path d="M207.64,402.14a5.51,5.51,0,0,0-5.61-5.87,5.57,5.57,0,0,0-5.65,5.87,6.12,6.12,0,0,0,10.54,4l-.89-1a4.55,4.55,0,0,1-3.54,1.51,4.27,4.27,0,0,1-4.55-4h9.68c0-.18,0-.35,0-.49ZM202,397.61a4,4,0,0,1,4.11,3.85h-8.2A4,4,0,0,1,202,397.61Z" fill-rule="evenodd"/><rect x="210.83" y="391.61" width="1.56" height="16.32"/><path d="M226.71,399.13l4.36-5.48v-1.12h-9.9v1.41h7.88l-4.27,5.34v1.17h1.1c2.86,0,4.16,1.21,4.16,3.06s-1.41,3.1-4,3.1a6.76,6.76,0,0,1-4.78-1.78l-.77,1.25a8,8,0,0,0,5.55,2c3.71,0,5.58-2,5.58-4.55S230,399.31,226.71,399.13Z" fill-rule="evenodd"/><path d="M236.92,400.78c2.05,0,3.48-1.65,3.48-4.18s-1.43-4.18-3.48-4.18-3.47,1.67-3.47,4.18,1.4,4.18,3.47,4.18Zm-1.19,7.15H237l10.52-15.4h-1.3l-10.52,15.4Zm1.19-8.14c-1.45,0-2.37-1.21-2.37-3.19s.92-3.19,2.37-3.19,2.38,1.19,2.38,3.19-1,3.19-2.38,3.19Zm9.44,8.25c2.07,0,3.48-1.67,3.48-4.18s-1.41-4.18-3.48-4.18-3.48,1.67-3.48,4.18,1.43,4.18,3.48,4.18Zm0-1c-1.43,0-2.38-1.19-2.38-3.19s1-3.19,2.38-3.19,2.38,1.21,2.38,3.19S247.81,407.05,246.36,407.05Z" fill-rule="evenodd"/><path d="M253.75,408a1.2,1.2,0,0,0,1.19-1.21,1.19,1.19,0,0,0-1.19-1.19,1.16,1.16,0,0,0-1.16,1.19A1.18,1.18,0,0,0,253.75,408Z" fill-rule="evenodd"/></svg>