<?xml version="1.0" encoding="utf-8"?>
<!-- Generator: Adobe Illustrator 22.1.0, SVG Export Plug-In . SVG Version: 6.00 Build 0)  -->
<svg version="1.1" id="Capa_1" xmlns="http://www.w3.org/2000/svg" xmlns:xlink="http://www.w3.org/1999/xlink" x="0px" y="0px"
	 viewBox="0 0 436.5 436.5" style="enable-background:new 0 0 436.5 436.5;" xml:space="preserve">
<style type="text/css">
	.st0{fill:url(#SVGID_1_);}
	.st1{fill-rule:evenodd;clip-rule:evenodd;fill:#1D1D1B;}
</style>
<title>QUESITO AMARILLO CIRCULO 5</title>
<linearGradient id="SVGID_1_" gradientUnits="userSpaceOnUse" x1="467.9381" y1="151.0048" x2="77.2081" y2="259.4948" gradientTransform="matrix(1 0 0 -1 1.731247e-03 438.5934)">
	<stop  offset="0" style="stop-color:#F3CF1C"/>
	<stop  offset="0.77" style="stop-color:#F4AE21"/>
	<stop  offset="1" style="stop-color:#F4AE21"/>
</linearGradient>
<circle class="st0" cx="218.3" cy="218.3" r="218"/>
<g>
	<path class="st1" d="M88.7,129.7h1.7l-7-15.4h-1.6l-7,15.4h1.7l1.8-4.1h8.6L88.7,129.7L88.7,129.7z M78.9,124.3l3.7-8.3l3.7,8.3
		H78.9z"/>
	<rect x="92.7" y="113.4" class="st1" width="1.6" height="16.3"/>
	<path class="st1" d="M109.9,127.9c-0.4,0.4-1.1,0.6-1.7,0.6c-1.3,0-2-0.7-2-2.1v-6.9h3.5v-1.3h-3.5v-2.5h-1.6v2.5h-2.1v1.3h2.1v7
		c0,2.1,1.2,3.4,3.4,3.4c0.9,0,1.8-0.3,2.4-0.8L109.9,127.9z"/>
	<path class="st1" d="M114.8,120.4v-2.3h-1.5v11.6h1.6v-5.9c0-2.7,1.5-4.3,3.9-4.3c0.1,0,0.2,0,0.4,0v-1.5
		C117,118.1,115.5,118.9,114.8,120.4z"/>
	<path class="st1" d="M126,118.1c-1.8,0-3.5,0.6-4.7,1.6l0.7,1.2c0.9-0.8,2.4-1.4,3.8-1.4c2.2,0,3.3,1.1,3.3,3.1v0.7h-3.7
		c-3.3,0-4.5,1.5-4.5,3.3c0,2,1.6,3.4,4.2,3.4c1.9,0,3.3-0.7,4-1.9v1.8h1.5v-7.2C130.7,119.5,129,118.1,126,118.1L126,118.1z
		 M125.4,128.6c-1.8,0-2.9-0.8-2.9-2.2c0-1.2,0.7-2.1,3-2.1h3.6v1.9C128.5,127.8,127.2,128.6,125.4,128.6z"/>
	<path class="st1" d="M140.4,127.9c-0.4,0.4-1.1,0.6-1.7,0.6c-1.3,0-2-0.7-2-2.1v-6.9h3.5v-1.3h-3.5v-2.5h-1.6v2.5h-2.1v1.3h2.1v7
		c0,2.1,1.2,3.4,3.4,3.4c0.9,0,1.8-0.3,2.4-0.8L140.4,127.9z"/>
	<path class="st1" d="M147.9,118.1c-1.8,0-3.5,0.6-4.7,1.6l0.7,1.2c0.9-0.8,2.4-1.4,3.8-1.4c2.2,0,3.3,1.1,3.3,3.1v0.7h-3.7
		c-3.3,0-4.5,1.5-4.5,3.3c0,2,1.6,3.4,4.2,3.4c1.9,0,3.3-0.7,4-1.9v1.8h1.5v-7.2C152.6,119.5,150.9,118.1,147.9,118.1L147.9,118.1z
		 M147.3,128.6c-1.8,0-2.9-0.8-2.9-2.2c0-1.2,0.7-2.1,3-2.1h3.6v1.9C150.4,127.8,149.1,128.6,147.3,128.6z"/>
	<path class="st1" d="M158.3,120.4v-2.3h-1.5v11.6h1.6v-5.9c0-2.7,1.5-4.3,3.9-4.3c0.1,0,0.2,0,0.4,0v-1.5
		C160.5,118.1,159,118.9,158.3,120.4z"/>
	<path class="st1" d="M176.2,129.8c2,0,3.6-0.8,4.5-2.3l-1.2-0.8c-0.8,1.2-2,1.7-3.4,1.7c-2.5,0-4.4-1.8-4.4-4.5
		c0-2.7,1.8-4.5,4.4-4.5c1.3,0,2.6,0.5,3.4,1.7l1.2-0.8c-0.9-1.5-2.6-2.3-4.5-2.3c-3.5,0-6,2.4-6,5.9
		C170.2,127.4,172.7,129.8,176.2,129.8z"/>
	<path class="st1" d="M188.3,129.8c3.4,0,5.9-2.5,5.9-5.9c0-3.4-2.5-5.9-5.9-5.9c-3.4,0-5.9,2.4-5.9,5.9
		C182.4,127.4,184.9,129.8,188.3,129.8L188.3,129.8z M188.3,128.4c-2.5,0-4.3-1.8-4.3-4.5c0-2.7,1.8-4.5,4.3-4.5
		c2.5,0,4.3,1.8,4.3,4.5C192.6,126.6,190.8,128.4,188.3,128.4z"/>
	<path class="st1" d="M203.3,118.1c-2,0-3.6,0.8-4.4,2.2v-2.1h-1.5v11.6h1.6v-6.1c0-2.6,1.6-4.2,4-4.2c2.2,0,3.5,1.3,3.5,3.7v6.6
		h1.6V123C208,119.7,206.1,118.1,203.3,118.1z"/>
	<path class="st1" d="M224,118.1c-1.9,0-3.5,0.8-4.5,2.4v-2.3H218V134h1.6v-6.4c1,1.5,2.6,2.3,4.4,2.3c3.3,0,5.8-2.4,5.8-5.9
		C229.8,120.4,227.3,118.1,224,118.1L224,118.1z M223.9,128.4c-2.5,0-4.3-1.8-4.3-4.5c0-2.7,1.8-4.5,4.3-4.5c2.4,0,4.3,1.8,4.3,4.5
		C228.2,126.6,226.3,128.4,223.9,128.4z"/>
	<path class="st1" d="M234.5,120.4v-2.3H233v11.6h1.6v-5.9c0-2.7,1.5-4.3,3.9-4.3c0.1,0,0.2,0,0.4,0v-1.5
		C236.7,118.1,235.2,118.9,234.5,120.4z"/>
	<path class="st1" d="M246.2,129.8c3.4,0,5.9-2.5,5.9-5.9c0-3.4-2.5-5.9-5.9-5.9c-3.4,0-5.9,2.4-5.9,5.9
		C240.3,127.4,242.8,129.8,246.2,129.8L246.2,129.8z M246.2,128.4c-2.5,0-4.3-1.8-4.3-4.5c0-2.7,1.8-4.5,4.3-4.5
		c2.5,0,4.3,1.8,4.3,4.5C250.5,126.6,248.7,128.4,246.2,128.4z"/>
	<path class="st1" d="M259.1,114.6c0.7,0,1.3,0.2,1.7,0.6l0.5-1.2c-0.6-0.5-1.5-0.7-2.3-0.7c-2.3,0-3.5,1.4-3.5,3.4v1.4h-2.1v1.3
		h2.1v10.3h1.6v-10.3h3.5v-1.3h-3.6v-1.4C257.1,115.3,257.8,114.6,259.1,114.6z"/>
	<path class="st1" d="M272.6,123.9c0-3.5-2.4-5.9-5.6-5.9c-3.3,0-5.7,2.4-5.7,5.9c0,3.4,2.5,5.9,6.1,5.9c1.8,0,3.4-0.7,4.5-1.9
		l-0.9-1c-0.9,1-2.1,1.5-3.5,1.5c-2.5,0-4.4-1.6-4.6-4h9.7C272.6,124.2,272.6,124.1,272.6,123.9L272.6,123.9z M267,119.4
		c2.3,0,3.9,1.6,4.1,3.9h-8.2C263.1,121,264.8,119.4,267,119.4z"/>
	<path class="st1" d="M278.9,129.8c3,0,4.8-1.3,4.8-3.3c0-4.4-7.5-2.1-7.5-5.2c0-1.1,0.9-1.9,3-1.9c1.2,0,2.4,0.3,3.4,1l0.7-1.3
		c-1-0.7-2.6-1.1-4.1-1.1c-2.9,0-4.6,1.4-4.6,3.3c0,4.6,7.5,2.2,7.5,5.2c0,1.1-0.9,1.9-3.1,1.9c-1.6,0-3.2-0.6-4.1-1.3l-0.7,1.2
		C275.2,129.2,277,129.8,278.9,129.8z"/>
	<path class="st1" d="M287.4,115.6c0.7,0,1.1-0.5,1.1-1.1c0-0.6-0.5-1.1-1.1-1.1c-0.6,0-1.1,0.5-1.1,1.1
		C286.2,115.1,286.7,115.6,287.4,115.6L287.4,115.6z M286.6,129.7h1.6v-11.6h-1.6V129.7z"/>
	<path class="st1" d="M297.2,129.8c3.4,0,5.9-2.5,5.9-5.9c0-3.4-2.5-5.9-5.9-5.9s-5.9,2.4-5.9,5.9
		C291.3,127.4,293.9,129.8,297.2,129.8L297.2,129.8z M297.2,128.4c-2.5,0-4.3-1.8-4.3-4.5c0-2.7,1.8-4.5,4.3-4.5
		c2.5,0,4.3,1.8,4.3,4.5C301.5,126.6,299.7,128.4,297.2,128.4z"/>
	<path class="st1" d="M312.2,118.1c-2,0-3.6,0.8-4.4,2.2v-2.1h-1.5v11.6h1.6v-6.1c0-2.6,1.6-4.2,4-4.2c2.2,0,3.5,1.3,3.5,3.7v6.6
		h1.6V123C317,119.7,315,118.1,312.2,118.1z"/>
	<path class="st1" d="M325.2,118.1c-1.8,0-3.5,0.6-4.7,1.6l0.7,1.2c0.9-0.8,2.4-1.4,3.9-1.4c2.2,0,3.3,1.1,3.3,3.1v0.7h-3.7
		c-3.3,0-4.5,1.5-4.5,3.3c0,2,1.6,3.4,4.2,3.4c1.9,0,3.3-0.7,4-1.9v1.8h1.5v-7.2C329.9,119.5,328.2,118.1,325.2,118.1L325.2,118.1z
		 M324.7,128.6c-1.8,0-2.9-0.8-2.9-2.2c0-1.2,0.7-2.1,3-2.1h3.6v1.9C327.8,127.8,326.5,128.6,324.7,128.6z"/>
	<rect x="334.2" y="113.4" class="st1" width="1.6" height="16.3"/>
	<path class="st1" d="M350.2,123.9c0-3.5-2.4-5.9-5.6-5.9c-3.3,0-5.7,2.4-5.7,5.9c0,3.4,2.5,5.9,6.1,5.9c1.8,0,3.4-0.7,4.5-1.9
		l-0.9-1c-0.9,1-2.1,1.5-3.5,1.5c-2.5,0-4.4-1.6-4.6-4h9.7C350.2,124.2,350.2,124.1,350.2,123.9L350.2,123.9z M344.6,119.4
		c2.3,0,3.9,1.6,4.1,3.9h-8.2C340.7,121,342.3,119.4,344.6,119.4z"/>
	<path class="st1" d="M356.5,129.8c3,0,4.8-1.3,4.8-3.3c0-4.4-7.5-2.1-7.5-5.2c0-1.1,0.9-1.9,3-1.9c1.2,0,2.4,0.3,3.4,1l0.7-1.3
		c-1-0.7-2.6-1.1-4.1-1.1c-2.9,0-4.6,1.4-4.6,3.3c0,4.6,7.5,2.2,7.5,5.2c0,1.1-0.9,1.9-3.1,1.9c-1.6,0-3.2-0.6-4.1-1.3l-0.7,1.2
		C352.7,129.2,354.6,129.8,356.5,129.8z"/>
	<path class="st1" d="M37.3,150.7v-2.3h-1.5v11.6h1.6v-5.9c0-2.7,1.5-4.3,3.9-4.3c0.1,0,0.2,0,0.4,0v-1.5
		C39.5,148.4,38,149.2,37.3,150.7z"/>
	<path class="st1" d="M54.4,154.3c0-3.5-2.4-5.9-5.6-5.9c-3.3,0-5.7,2.4-5.7,5.9c0,3.4,2.5,5.9,6.1,5.9c1.8,0,3.4-0.7,4.5-1.9
		l-0.9-1c-0.9,1-2.1,1.5-3.5,1.5c-2.5,0-4.4-1.6-4.6-4h9.7C54.4,154.6,54.4,154.4,54.4,154.3L54.4,154.3z M48.8,149.7
		c2.3,0,3.9,1.6,4.1,3.8h-8.2C44.9,151.3,46.6,149.7,48.8,149.7z"/>
	<path class="st1" d="M62.4,160.2c2,0,3.6-0.8,4.5-2.3l-1.2-0.8c-0.8,1.2-2,1.7-3.4,1.7c-2.5,0-4.4-1.8-4.4-4.5
		c0-2.7,1.8-4.5,4.4-4.5c1.3,0,2.6,0.5,3.4,1.7l1.2-0.8c-0.9-1.5-2.6-2.3-4.5-2.3c-3.5,0-6,2.4-6,5.9
		C56.4,157.7,58.9,160.2,62.4,160.2z"/>
	<path class="st1" d="M70.8,145.9c0.7,0,1.1-0.5,1.1-1.1c0-0.6-0.5-1.1-1.1-1.1c-0.6,0-1.1,0.5-1.1,1.1
		C69.6,145.4,70.1,145.9,70.8,145.9L70.8,145.9z M70,160.1h1.6v-11.6H70V160.1z"/>
	<path class="st1" d="M81.9,148.4c-1.8,0-3.4,0.8-4.4,2.3v-7h-1.6v16.3h1.5v-2.3c0.9,1.6,2.6,2.4,4.5,2.4c3.3,0,5.8-2.4,5.8-5.9
		C87.6,150.8,85.2,148.4,81.9,148.4L81.9,148.4z M81.8,158.8c-2.5,0-4.3-1.8-4.3-4.5c0-2.7,1.8-4.5,4.3-4.5c2.4,0,4.3,1.8,4.3,4.5
		C86.1,157,84.2,158.8,81.8,158.8z"/>
	<path class="st1" d="M91.6,145.9c0.7,0,1.1-0.5,1.1-1.1c0-0.6-0.5-1.1-1.1-1.1c-0.6,0-1.1,0.5-1.1,1.1
		C90.5,145.4,91,145.9,91.6,145.9L91.6,145.9z M90.8,160.1h1.6v-11.6h-1.6V160.1z"/>
	<path class="st1" d="M98.2,150.7v-2.3h-1.5v11.6h1.6v-5.9c0-2.7,1.5-4.3,3.9-4.3c0.1,0,0.2,0,0.4,0v-1.5
		C100.4,148.4,99,149.2,98.2,150.7z"/>
	<path class="st1" d="M113.1,144H111l-3,2.7h1.5L113.1,144L113.1,144z M109.4,148.4c-1.8,0-3.5,0.6-4.7,1.6l0.7,1.2
		c0.9-0.8,2.4-1.4,3.9-1.4c2.2,0,3.3,1.1,3.3,3.1v0.7h-3.7c-3.3,0-4.5,1.5-4.5,3.3c0,2,1.6,3.4,4.2,3.4c1.9,0,3.3-0.7,4-1.9v1.8h1.5
		v-7.2C114.1,149.9,112.4,148.4,109.4,148.4L109.4,148.4z M108.9,158.9c-1.8,0-2.9-0.8-2.9-2.2c0-1.2,0.7-2.1,3-2.1h3.6v1.9
		C111.9,158.1,110.6,158.9,108.9,158.9z"/>
	<path class="st1" d="M121.4,160.2c3,0,4.8-1.3,4.8-3.3c0-4.4-7.5-2.1-7.5-5.2c0-1.1,0.9-1.9,3-1.9c1.2,0,2.4,0.3,3.4,1l0.7-1.3
		c-1-0.7-2.6-1.1-4.1-1.1c-2.9,0-4.6,1.4-4.6,3.3c0,4.6,7.5,2.2,7.5,5.2c0,1.1-0.9,1.9-3.1,1.9c-1.6,0-3.2-0.6-4.1-1.3l-0.7,1.2
		C117.7,159.5,119.5,160.2,121.4,160.2z"/>
	<path class="st1" d="M143.1,148.5l-4.4,9.8l-4.4-9.8h-1.6l5.2,11.5l-0.5,1.1c-0.7,1.5-1.4,1.9-2.4,1.9c-0.8,0-1.5-0.3-2.1-0.9
		l-0.7,1.2c0.7,0.7,1.7,1.1,2.8,1.1c1.6,0,2.9-0.7,3.8-3l5.8-13H143.1z"/>
	<path class="st1" d="M158.1,158.2c-0.4,0.4-1.1,0.6-1.7,0.6c-1.3,0-2-0.7-2-2.1v-6.9h3.5v-1.3h-3.5v-2.5h-1.6v2.5h-2.1v1.3h2.1v7
		c0,2.1,1.2,3.4,3.4,3.4c0.9,0,1.8-0.3,2.4-0.8L158.1,158.2z"/>
	<path class="st1" d="M171.2,154.3c0-3.5-2.4-5.9-5.6-5.9c-3.3,0-5.7,2.4-5.7,5.9c0,3.4,2.5,5.9,6.1,5.9c1.8,0,3.4-0.7,4.5-1.9
		l-0.9-1c-0.9,1-2.1,1.5-3.5,1.5c-2.5,0-4.4-1.6-4.6-4h9.7C171.1,154.6,171.2,154.4,171.2,154.3L171.2,154.3z M165.6,149.7
		c2.3,0,3.9,1.6,4.1,3.8h-8.2C161.7,151.3,163.3,149.7,165.6,149.7z"/>
	<path class="st1" d="M180.3,148.4c-2,0-3.6,0.8-4.4,2.2v-2.1h-1.5v11.6h1.6V154c0-2.6,1.6-4.2,4-4.2c2.2,0,3.5,1.3,3.5,3.7v6.6h1.6
		v-6.7C185,150,183.1,148.4,180.3,148.4z"/>
	<path class="st1" d="M198.3,143.7v7c-1-1.5-2.6-2.3-4.4-2.3c-3.3,0-5.8,2.4-5.8,5.9c0,3.5,2.5,5.9,5.8,5.9c1.9,0,3.5-0.8,4.5-2.4
		v2.3h1.5v-16.3H198.3L198.3,143.7z M194,158.8c-2.5,0-4.3-1.8-4.3-4.5c0-2.7,1.8-4.5,4.3-4.5c2.4,0,4.3,1.8,4.3,4.5
		C198.3,157,196.5,158.8,194,158.8z"/>
	<path class="st1" d="M205.7,150.7v-2.3h-1.5v11.6h1.6v-5.9c0-2.7,1.5-4.3,3.9-4.3c0.1,0,0.2,0,0.4,0v-1.5
		C207.9,148.4,206.4,149.2,205.7,150.7z"/>
	<path class="st1" d="M220.6,144h-2.1l-3,2.7h1.5L220.6,144L220.6,144z M216.9,148.4c-1.8,0-3.5,0.6-4.7,1.6l0.7,1.2
		c0.9-0.8,2.4-1.4,3.8-1.4c2.2,0,3.3,1.1,3.3,3.1v0.7h-3.7c-3.3,0-4.5,1.5-4.5,3.3c0,2,1.6,3.4,4.2,3.4c1.9,0,3.3-0.7,4-1.9v1.8h1.5
		v-7.2C221.6,149.9,219.9,148.4,216.9,148.4L216.9,148.4z M216.3,158.9c-1.8,0-2.9-0.8-2.9-2.2c0-1.2,0.7-2.1,3-2.1h3.6v1.9
		C219.4,158.1,218.1,158.9,216.3,158.9z"/>
	<path class="st1" d="M228.9,160.2c3,0,4.8-1.3,4.8-3.3c0-4.4-7.5-2.1-7.5-5.2c0-1.1,0.9-1.9,3-1.9c1.2,0,2.4,0.3,3.4,1l0.7-1.3
		c-1-0.7-2.6-1.1-4.1-1.1c-2.9,0-4.6,1.4-4.6,3.3c0,4.6,7.5,2.2,7.5,5.2c0,1.1-0.9,1.9-3.1,1.9c-1.6,0-3.2-0.6-4.1-1.3l-0.7,1.2
		C225.2,159.5,227,160.2,228.9,160.2z"/>
	<path class="st1" d="M246.4,148.4c-1.8,0-3.5,0.6-4.7,1.6l0.7,1.2c0.9-0.8,2.4-1.4,3.9-1.4c2.2,0,3.3,1.1,3.3,3.1v0.7h-3.7
		c-3.3,0-4.5,1.5-4.5,3.3c0,2,1.6,3.4,4.2,3.4c1.9,0,3.3-0.7,4-1.9v1.8h1.5v-7.2C251.1,149.9,249.4,148.4,246.4,148.4L246.4,148.4z
		 M245.8,158.9c-1.8,0-2.9-0.8-2.9-2.2c0-1.2,0.7-2.1,3-2.1h3.6v1.9C248.9,158.1,247.6,158.9,245.8,158.9z"/>
	<path class="st1" d="M258.4,160.2c3,0,4.8-1.3,4.8-3.3c0-4.4-7.5-2.1-7.5-5.2c0-1.1,0.9-1.9,3-1.9c1.2,0,2.4,0.3,3.4,1l0.7-1.3
		c-1-0.7-2.6-1.1-4.1-1.1c-2.9,0-4.6,1.4-4.6,3.3c0,4.6,7.5,2.2,7.5,5.2c0,1.1-0.9,1.9-3.1,1.9c-1.6,0-3.2-0.6-4.1-1.3l-0.7,1.2
		C254.7,159.5,256.5,160.2,258.4,160.2z"/>
	<path class="st1" d="M276.2,154.3c0-3.5-2.4-5.9-5.6-5.9c-3.3,0-5.7,2.4-5.7,5.9c0,3.4,2.5,5.9,6.1,5.9c1.8,0,3.4-0.7,4.5-1.9
		l-0.9-1c-0.9,1-2.1,1.5-3.5,1.5c-2.5,0-4.4-1.6-4.6-4h9.7C276.2,154.6,276.2,154.4,276.2,154.3L276.2,154.3z M270.6,149.7
		c2.3,0,3.9,1.6,4.1,3.8h-8.2C266.7,151.3,268.3,149.7,270.6,149.7z"/>
	<path class="st1" d="M282.5,160.2c3,0,4.8-1.3,4.8-3.3c0-4.4-7.5-2.1-7.5-5.2c0-1.1,0.9-1.9,3-1.9c1.2,0,2.4,0.3,3.4,1l0.7-1.3
		c-1-0.7-2.6-1.1-4.1-1.1c-2.9,0-4.6,1.4-4.6,3.3c0,4.6,7.5,2.2,7.5,5.2c0,1.1-0.9,1.9-3.1,1.9c-1.6,0-3.2-0.6-4.1-1.3l-0.7,1.2
		C278.7,159.5,280.6,160.2,282.5,160.2z"/>
	<path class="st1" d="M294.9,160.2c3.4,0,5.9-2.5,5.9-5.9c0-3.4-2.5-5.9-5.9-5.9c-3.4,0-5.9,2.4-5.9,5.9
		C289,157.7,291.5,160.2,294.9,160.2L294.9,160.2z M294.9,158.8c-2.5,0-4.3-1.8-4.3-4.5c0-2.7,1.8-4.5,4.3-4.5
		c2.5,0,4.3,1.8,4.3,4.5C299.1,157,297.3,158.8,294.9,158.8z"/>
	<path class="st1" d="M305.4,150.7v-2.3h-1.5v11.6h1.6v-5.9c0-2.7,1.5-4.3,3.9-4.3c0.1,0,0.2,0,0.4,0v-1.5
		C307.6,148.4,306.1,149.2,305.4,150.7z"/>
	<path class="st1" d="M316.6,148.4c-1.8,0-3.5,0.6-4.7,1.6l0.7,1.2c0.9-0.8,2.4-1.4,3.9-1.4c2.2,0,3.3,1.1,3.3,3.1v0.7H316
		c-3.3,0-4.5,1.5-4.5,3.3c0,2,1.6,3.4,4.2,3.4c1.9,0,3.3-0.7,4-1.9v1.8h1.5v-7.2C321.3,149.9,319.6,148.4,316.6,148.4L316.6,148.4z
		 M316,158.9c-1.8,0-2.9-0.8-2.9-2.2c0-1.2,0.7-2.1,3-2.1h3.6v1.9C319.1,158.1,317.8,158.9,316,158.9z"/>
	<path class="st1" d="M340,148.4c-2.1,0-3.7,0.9-4.6,2.4c-0.7-1.6-2.2-2.4-4.1-2.4c-1.9,0-3.4,0.8-4.2,2.2v-2.1h-1.5v11.6h1.6V154
		c0-2.6,1.5-4.2,3.9-4.2c2.1,0,3.3,1.3,3.3,3.7v6.6h1.6V154c0-2.6,1.5-4.2,3.9-4.2c2.1,0,3.3,1.3,3.3,3.7v6.6h1.6v-6.7
		C344.6,150,342.8,148.4,340,148.4z"/>
	<path class="st1" d="M349.7,145.9c0.7,0,1.1-0.5,1.1-1.1c0-0.6-0.5-1.1-1.1-1.1c-0.6,0-1.1,0.5-1.1,1.1
		C348.5,145.4,349,145.9,349.7,145.9L349.7,145.9z M348.9,160.1h1.6v-11.6h-1.6V160.1z"/>
	<path class="st1" d="M364.9,154.3c0-3.5-2.4-5.9-5.6-5.9c-3.3,0-5.7,2.4-5.7,5.9c0,3.4,2.5,5.9,6.1,5.9c1.8,0,3.4-0.7,4.5-1.9
		l-0.9-1c-0.9,1-2.1,1.5-3.5,1.5c-2.5,0-4.4-1.6-4.6-4h9.7C364.9,154.6,364.9,154.4,364.9,154.3L364.9,154.3z M359.3,149.7
		c2.3,0,3.9,1.6,4.1,3.8h-8.2C355.4,151.3,357,149.7,359.3,149.7z"/>
	<path class="st1" d="M374,148.4c-2,0-3.6,0.8-4.4,2.2v-2.1h-1.5v11.6h1.6V154c0-2.6,1.6-4.2,4-4.2c2.2,0,3.5,1.3,3.5,3.7v6.6h1.6
		v-6.7C378.7,150,376.8,148.4,374,148.4z"/>
	<path class="st1" d="M388.5,158.2c-0.4,0.4-1.1,0.6-1.7,0.6c-1.3,0-2-0.7-2-2.1v-6.9h3.5v-1.3h-3.5v-2.5h-1.6v2.5h-2.1v1.3h2.1v7
		c0,2.1,1.2,3.4,3.4,3.4c0.9,0,1.8-0.3,2.4-0.8L388.5,158.2z"/>
	<path class="st1" d="M396.2,160.2c3.4,0,5.9-2.5,5.9-5.9c0-3.4-2.5-5.9-5.9-5.9c-3.4,0-5.9,2.4-5.9,5.9
		C390.3,157.7,392.8,160.2,396.2,160.2L396.2,160.2z M396.2,158.8c-2.5,0-4.3-1.8-4.3-4.5c0-2.7,1.8-4.5,4.3-4.5
		c2.5,0,4.3,1.8,4.3,4.5C400.5,157,398.7,158.8,396.2,158.8z"/>
	<path class="st1" d="M80.8,174.1v7c-1-1.5-2.6-2.3-4.4-2.3c-3.3,0-5.8,2.4-5.8,5.9c0,3.5,2.5,5.9,5.8,5.9c1.9,0,3.5-0.8,4.5-2.4
		v2.3h1.5v-16.3H80.8L80.8,174.1z M76.6,189.1c-2.5,0-4.3-1.8-4.3-4.5c0-2.7,1.8-4.5,4.3-4.5c2.4,0,4.3,1.8,4.3,4.5
		C80.9,187.3,79,189.1,76.6,189.1z"/>
	<path class="st1" d="M96.9,184.6c0-3.5-2.4-5.9-5.6-5.9c-3.3,0-5.7,2.4-5.7,5.9c0,3.4,2.5,5.9,6.1,5.9c1.8,0,3.4-0.7,4.5-1.9
		l-0.9-1c-0.9,1-2.1,1.5-3.5,1.5c-2.5,0-4.4-1.6-4.6-4h9.7C96.8,184.9,96.9,184.7,96.9,184.6L96.9,184.6z M91.3,180.1
		c2.3,0,3.9,1.6,4.1,3.9h-8.2C87.4,181.7,89,180.1,91.3,180.1z"/>
	<path class="st1" d="M111.8,178.7c-1.9,0-3.5,0.8-4.5,2.4v-2.3h-1.5v15.8h1.6v-6.4c1,1.5,2.6,2.3,4.4,2.3c3.3,0,5.8-2.4,5.8-5.9
		C117.5,181.1,115.1,178.7,111.8,178.7L111.8,178.7z M111.7,189.1c-2.5,0-4.3-1.8-4.3-4.5c0-2.7,1.8-4.5,4.3-4.5
		c2.4,0,4.3,1.8,4.3,4.5C116,187.3,114.1,189.1,111.7,189.1z"/>
	<path class="st1" d="M122.2,181.1v-2.3h-1.5v11.6h1.6v-5.9c0-2.7,1.5-4.3,3.9-4.3c0.1,0,0.2,0,0.4,0v-1.5
		C124.4,178.7,123,179.5,122.2,181.1z"/>
	<path class="st1" d="M130.2,176.3c0.7,0,1.1-0.5,1.1-1.1c0-0.6-0.5-1.1-1.1-1.1c-0.6,0-1.1,0.5-1.1,1.1
		C129,175.8,129.5,176.3,130.2,176.3L130.2,176.3z M129.4,190.4h1.6v-11.6h-1.6V190.4z"/>
	<path class="st1" d="M149.7,178.7c-2.1,0-3.7,0.9-4.6,2.4c-0.7-1.6-2.2-2.4-4.1-2.4c-1.9,0-3.4,0.8-4.2,2.2v-2.1h-1.5v11.6h1.6
		v-6.1c0-2.6,1.5-4.2,3.9-4.2c2.1,0,3.3,1.3,3.3,3.7v6.6h1.6v-6.1c0-2.6,1.5-4.2,3.9-4.2c2.1,0,3.3,1.3,3.3,3.7v6.6h1.6v-6.7
		C154.4,180.4,152.5,178.7,149.7,178.7z"/>
	<path class="st1" d="M168.8,184.6c0-3.5-2.4-5.9-5.6-5.9c-3.3,0-5.7,2.4-5.7,5.9c0,3.4,2.5,5.9,6.1,5.9c1.8,0,3.4-0.7,4.5-1.9
		l-0.9-1c-0.9,1-2.1,1.5-3.5,1.5c-2.5,0-4.4-1.6-4.6-4h9.7C168.8,184.9,168.8,184.7,168.8,184.6L168.8,184.6z M163.2,180.1
		c2.3,0,3.9,1.6,4.1,3.9h-8.2C159.3,181.7,160.9,180.1,163.2,180.1z"/>
	<path class="st1" d="M173.5,181.1v-2.3H172v11.6h1.6v-5.9c0-2.7,1.5-4.3,3.9-4.3c0.1,0,0.2,0,0.4,0v-1.5
		C175.7,178.7,174.2,179.5,173.5,181.1z"/>
	<path class="st1" d="M184.6,178.7c-1.8,0-3.5,0.6-4.7,1.6l0.7,1.2c0.9-0.8,2.4-1.4,3.9-1.4c2.2,0,3.3,1.1,3.3,3.1v0.7h-3.7
		c-3.3,0-4.5,1.5-4.5,3.3c0,2,1.6,3.4,4.2,3.4c1.9,0,3.3-0.7,4-1.9v1.8h1.5v-7.2C189.3,180.2,187.6,178.7,184.6,178.7L184.6,178.7z
		 M184.1,189.3c-1.8,0-2.9-0.8-2.9-2.2c0-1.2,0.7-2.1,3-2.1h3.6v1.9C187.2,188.4,185.9,189.3,184.1,189.3z"/>
	<path class="st1" d="M213.8,178.7c-2.1,0-3.7,0.9-4.6,2.4c-0.7-1.6-2.2-2.4-4.1-2.4c-1.9,0-3.4,0.8-4.2,2.2v-2.1h-1.5v11.6h1.6
		v-6.1c0-2.6,1.5-4.2,3.9-4.2c2.1,0,3.3,1.3,3.3,3.7v6.6h1.6v-6.1c0-2.6,1.5-4.2,3.9-4.2c2.1,0,3.3,1.3,3.3,3.7v6.6h1.6v-6.7
		C218.4,180.4,216.6,178.7,213.8,178.7z"/>
	<path class="st1" d="M226.7,178.7c-1.8,0-3.5,0.6-4.7,1.6l0.7,1.2c0.9-0.8,2.4-1.4,3.8-1.4c2.2,0,3.3,1.1,3.3,3.1v0.7h-3.7
		c-3.3,0-4.5,1.5-4.5,3.3c0,2,1.6,3.4,4.2,3.4c1.9,0,3.3-0.7,4-1.9v1.8h1.5v-7.2C231.4,180.2,229.7,178.7,226.7,178.7L226.7,178.7z
		 M226.2,189.3c-1.8,0-2.9-0.8-2.9-2.2c0-1.2,0.7-2.1,3-2.1h3.6v1.9C229.2,188.4,227.9,189.3,226.2,189.3z"/>
	<path class="st1" d="M241.6,178.7c-2,0-3.6,0.8-4.4,2.2v-2.1h-1.5v11.6h1.6v-6.1c0-2.6,1.6-4.2,4-4.2c2.2,0,3.5,1.3,3.5,3.7v6.6
		h1.6v-6.7C246.3,180.4,244.4,178.7,241.6,178.7z"/>
	<path class="st1" d="M255.3,190.5c3.4,0,5.9-2.5,5.9-5.9c0-3.4-2.5-5.9-5.9-5.9c-3.4,0-5.9,2.4-5.9,5.9
		C249.4,188,251.9,190.5,255.3,190.5L255.3,190.5z M255.3,189.1c-2.5,0-4.3-1.8-4.3-4.5c0-2.7,1.8-4.5,4.3-4.5
		c2.5,0,4.3,1.8,4.3,4.5C259.6,187.3,257.8,189.1,255.3,189.1z"/>
	<path class="st1" d="M279.2,174.1v7c-1-1.5-2.6-2.3-4.4-2.3c-3.3,0-5.8,2.4-5.8,5.9c0,3.5,2.5,5.9,5.8,5.9c1.9,0,3.5-0.8,4.5-2.4
		v2.3h1.5v-16.3H279.2L279.2,174.1z M274.9,189.1c-2.5,0-4.3-1.8-4.3-4.5c0-2.7,1.8-4.5,4.3-4.5c2.4,0,4.3,1.8,4.3,4.5
		C279.2,187.3,277.3,189.1,274.9,189.1z"/>
	<path class="st1" d="M295.2,184.6c0-3.5-2.4-5.9-5.6-5.9c-3.3,0-5.7,2.4-5.7,5.9c0,3.4,2.5,5.9,6.1,5.9c1.8,0,3.4-0.7,4.5-1.9
		l-0.9-1c-0.9,1-2.1,1.5-3.5,1.5c-2.5,0-4.4-1.6-4.6-4h9.7C295.2,184.9,295.2,184.7,295.2,184.6L295.2,184.6z M289.6,180.1
		c2.3,0,3.9,1.6,4.1,3.9h-8.2C285.7,181.7,287.3,180.1,289.6,180.1z"/>
	<path class="st1" d="M313.3,178.8v2.2c-1-1.5-2.6-2.3-4.6-2.3c-3.3,0-5.8,2.3-5.8,5.6c0,3.3,2.5,5.6,5.8,5.6c1.9,0,3.5-0.8,4.5-2.2
		v1.5c0,2.9-1.3,4.2-4.3,4.2c-1.8,0-3.5-0.6-4.6-1.6l-0.8,1.2c1.2,1.1,3.3,1.8,5.4,1.8c3.8,0,5.8-1.8,5.8-5.8v-10.2H313.3
		L313.3,178.8z M308.9,188.6c-2.6,0-4.4-1.7-4.4-4.2c0-2.5,1.8-4.2,4.4-4.2c2.6,0,4.4,1.7,4.4,4.2
		C313.3,186.8,311.5,188.6,308.9,188.6z"/>
	<path class="st1" d="M329.3,184.6c0-3.5-2.4-5.9-5.6-5.9c-3.3,0-5.7,2.4-5.7,5.9c0,3.4,2.5,5.9,6.1,5.9c1.8,0,3.4-0.7,4.5-1.9
		l-0.9-1c-0.9,1-2.1,1.5-3.5,1.5c-2.5,0-4.4-1.6-4.6-4h9.7C329.3,184.9,329.3,184.7,329.3,184.6L329.3,184.6z M323.7,180.1
		c2.3,0,3.9,1.6,4.1,3.9h-8.2C319.8,181.7,321.5,180.1,323.7,180.1z"/>
	<path class="st1" d="M338.4,178.7c-2,0-3.6,0.8-4.4,2.2v-2.1h-1.5v11.6h1.6v-6.1c0-2.6,1.6-4.2,4-4.2c2.2,0,3.5,1.3,3.5,3.7v6.6
		h1.6v-6.7C343.2,180.4,341.2,178.7,338.4,178.7z"/>
	<path class="st1" d="M352.9,188.6c-0.4,0.4-1.1,0.6-1.7,0.6c-1.3,0-2-0.7-2-2.1v-6.9h3.5v-1.3h-3.5v-2.5h-1.6v2.5h-2.1v1.3h2.1v7
		c0,2.1,1.2,3.4,3.4,3.4c0.9,0,1.8-0.3,2.4-0.8L352.9,188.6z"/>
	<path class="st1" d="M366,184.6c0-3.5-2.4-5.9-5.6-5.9c-3.3,0-5.7,2.4-5.7,5.9c0,3.4,2.5,5.9,6.1,5.9c1.8,0,3.4-0.7,4.5-1.9l-0.9-1
		c-0.9,1-2.1,1.5-3.5,1.5c-2.5,0-4.4-1.6-4.6-4h9.7C366,184.9,366,184.7,366,184.6L366,184.6z M360.4,180.1c2.3,0,3.9,1.6,4.1,3.9
		h-8.2C356.5,181.7,358.2,180.1,360.4,180.1z"/>
	<path class="st1" d="M88.4,214.9c0-3.5-2.4-5.9-5.6-5.9c-3.3,0-5.7,2.4-5.7,5.9c0,3.4,2.5,5.9,6.1,5.9c1.8,0,3.4-0.7,4.5-1.9
		l-0.9-1c-0.9,1-2.1,1.5-3.5,1.5c-2.5,0-4.4-1.6-4.6-4h9.7C88.4,215.2,88.4,215.1,88.4,214.9L88.4,214.9z M82.8,210.4
		c2.3,0,3.9,1.6,4.1,3.9h-8.2C78.9,212,80.6,210.4,82.8,210.4z"/>
	<path class="st1" d="M94.7,220.8c3,0,4.8-1.3,4.8-3.3c0-4.4-7.5-2.1-7.5-5.2c0-1.1,0.9-1.9,3-1.9c1.2,0,2.4,0.3,3.4,1l0.7-1.3
		c-1-0.7-2.6-1.1-4.1-1.1c-2.9,0-4.6,1.4-4.6,3.3c0,4.6,7.5,2.2,7.5,5.2c0,1.1-0.9,1.9-3.1,1.9c-1.6,0-3.2-0.6-4.1-1.3l-0.7,1.2
		C91,220.2,92.8,220.8,94.7,220.8z"/>
	<path class="st1" d="M108.4,209.1c-1.9,0-3.5,0.8-4.5,2.4v-2.3h-1.5V225h1.6v-6.4c1,1.5,2.6,2.3,4.4,2.3c3.3,0,5.8-2.4,5.8-5.9
		C114.1,211.4,111.7,209.1,108.4,209.1L108.4,209.1z M108.2,219.5c-2.5,0-4.3-1.8-4.3-4.5c0-2.7,1.8-4.5,4.3-4.5
		c2.4,0,4.3,1.8,4.3,4.5C112.6,217.6,110.7,219.5,108.2,219.5z"/>
	<path class="st1" d="M127.4,214.9c0-3.5-2.4-5.9-5.6-5.9c-3.3,0-5.7,2.4-5.7,5.9c0,3.4,2.5,5.9,6.1,5.9c1.8,0,3.4-0.7,4.5-1.9
		l-0.9-1c-0.9,1-2.1,1.5-3.5,1.5c-2.5,0-4.4-1.6-4.6-4h9.7C127.4,215.2,127.4,215.1,127.4,214.9L127.4,214.9z M121.8,210.4
		c2.3,0,3.9,1.6,4.1,3.9h-8.2C117.9,212,119.6,210.4,121.8,210.4z"/>
	<path class="st1" d="M135.4,220.8c2,0,3.6-0.8,4.5-2.3l-1.2-0.8c-0.8,1.2-2,1.7-3.4,1.7c-2.5,0-4.4-1.8-4.4-4.5
		c0-2.7,1.8-4.5,4.4-4.5c1.3,0,2.6,0.5,3.4,1.7l1.2-0.8c-0.9-1.5-2.6-2.3-4.5-2.3c-3.5,0-6,2.4-6,5.9
		C129.4,218.4,131.9,220.8,135.4,220.8z"/>
	<path class="st1" d="M143.8,206.6c0.7,0,1.1-0.5,1.1-1.1c0-0.6-0.5-1.1-1.1-1.1c-0.6,0-1.1,0.5-1.1,1.1
		C142.6,206.1,143.1,206.6,143.8,206.6L143.8,206.6z M143,220.7h1.6v-11.6H143V220.7z"/>
	<path class="st1" d="M153,209.1c-1.8,0-3.5,0.6-4.7,1.6l0.7,1.2c0.9-0.8,2.4-1.4,3.9-1.4c2.2,0,3.3,1.1,3.3,3.1v0.7h-3.7
		c-3.3,0-4.5,1.5-4.5,3.3c0,2,1.6,3.4,4.2,3.4c1.9,0,3.3-0.7,4-1.9v1.8h1.5v-7.2C157.6,210.6,155.9,209.1,153,209.1L153,209.1z
		 M152.4,219.6c-1.8,0-2.9-0.8-2.9-2.2c0-1.2,0.7-2.1,3-2.1h3.6v1.9C155.5,218.8,154.2,219.6,152.4,219.6z"/>
	<rect x="161.9" y="204.4" class="st1" width="1.6" height="16.3"/>
	<path class="st1" d="M168.6,206.6c0.7,0,1.1-0.5,1.1-1.1c0-0.6-0.5-1.1-1.1-1.1c-0.6,0-1.1,0.5-1.1,1.1
		C167.5,206.1,168,206.6,168.6,206.6L168.6,206.6z M167.8,220.7h1.6v-11.6h-1.6V220.7z"/>
	<polygon class="st1" points="174.5,219.4 181.8,210.2 181.8,209.2 172.6,209.2 172.6,210.5 179.7,210.5 172.5,219.7 172.5,220.7 
		181.9,220.7 181.9,219.4 	"/>
	<path class="st1" d="M189,209.1c-1.8,0-3.5,0.6-4.7,1.6l0.7,1.2c0.9-0.8,2.4-1.4,3.8-1.4c2.2,0,3.3,1.1,3.3,3.1v0.7h-3.7
		c-3.3,0-4.5,1.5-4.5,3.3c0,2,1.6,3.4,4.2,3.4c1.9,0,3.3-0.7,4-1.9v1.8h1.5v-7.2C193.7,210.6,192,209.1,189,209.1L189,209.1z
		 M188.5,219.6c-1.8,0-2.9-0.8-2.9-2.2c0-1.2,0.7-2.1,3-2.1h3.6v1.9C191.5,218.8,190.2,219.6,188.5,219.6z"/>
	<path class="st1" d="M207,204.4v7c-1-1.5-2.6-2.3-4.4-2.3c-3.3,0-5.8,2.4-5.8,5.9s2.5,5.9,5.8,5.9c1.9,0,3.5-0.8,4.5-2.4v2.3h1.5
		v-16.3H207L207,204.4z M202.7,219.5c-2.5,0-4.3-1.8-4.3-4.5c0-2.7,1.8-4.5,4.3-4.5c2.4,0,4.3,1.8,4.3,4.5
		C207,217.6,205.2,219.5,202.7,219.5z"/>
	<path class="st1" d="M217,209.1c-1.8,0-3.5,0.6-4.7,1.6l0.7,1.2c0.9-0.8,2.4-1.4,3.9-1.4c2.2,0,3.3,1.1,3.3,3.1v0.7h-3.7
		c-3.3,0-4.5,1.5-4.5,3.3c0,2,1.6,3.4,4.2,3.4c1.9,0,3.3-0.7,4-1.9v1.8h1.5v-7.2C221.6,210.6,219.9,209.1,217,209.1L217,209.1z
		 M216.4,219.6c-1.8,0-2.9-0.8-2.9-2.2c0-1.2,0.7-2.1,3-2.1h3.6v1.9C219.5,218.8,218.2,219.6,216.4,219.6z"/>
	<path class="st1" d="M241.7,214.9c0-3.5-2.4-5.9-5.6-5.9c-3.3,0-5.7,2.4-5.7,5.9c0,3.4,2.5,5.9,6.1,5.9c1.8,0,3.4-0.7,4.5-1.9
		l-0.9-1c-0.9,1-2.1,1.5-3.5,1.5c-2.5,0-4.4-1.6-4.6-4h9.7C241.7,215.2,241.7,215.1,241.7,214.9L241.7,214.9z M236.1,210.4
		c2.3,0,3.9,1.6,4.1,3.9H232C232.2,212,233.9,210.4,236.1,210.4z"/>
	<path class="st1" d="M250.8,209.1c-2,0-3.6,0.8-4.4,2.2v-2.1h-1.5v11.6h1.6v-6.1c0-2.6,1.6-4.2,4-4.2c2.2,0,3.5,1.3,3.5,3.7v6.6
		h1.6V214C255.6,210.7,253.6,209.1,250.8,209.1z"/>
	<path class="st1" d="M275.7,214.9c0-3.5-2.4-5.9-5.6-5.9c-3.3,0-5.7,2.4-5.7,5.9c0,3.4,2.5,5.9,6.1,5.9c1.8,0,3.4-0.7,4.5-1.9
		l-0.9-1c-0.9,1-2.1,1.5-3.5,1.5c-2.5,0-4.4-1.6-4.6-4h9.7C275.7,215.2,275.7,215.1,275.7,214.9L275.7,214.9z M270.1,210.4
		c2.3,0,3.9,1.6,4.1,3.9H266C266.2,212,267.8,210.4,270.1,210.4z"/>
	<rect x="278.9" y="204.4" class="st1" width="1.6" height="16.3"/>
	<path class="st1" d="M293.7,220.8c3,0,4.8-1.3,4.8-3.3c0-4.4-7.5-2.1-7.5-5.2c0-1.1,0.9-1.9,3-1.9c1.2,0,2.4,0.3,3.4,1l0.7-1.3
		c-1-0.7-2.6-1.1-4.1-1.1c-2.9,0-4.6,1.4-4.6,3.3c0,4.6,7.5,2.2,7.5,5.2c0,1.1-0.9,1.9-3.1,1.9c-1.6,0-3.2-0.6-4.1-1.3l-0.7,1.2
		C289.9,220.2,291.8,220.8,293.7,220.8z"/>
	<path class="st1" d="M311.4,214.9c0-3.5-2.4-5.9-5.6-5.9c-3.3,0-5.7,2.4-5.7,5.9c0,3.4,2.5,5.9,6.1,5.9c1.8,0,3.4-0.7,4.5-1.9
		l-0.9-1c-0.9,1-2.1,1.5-3.5,1.5c-2.5,0-4.4-1.6-4.6-4h9.7C311.4,215.2,311.4,215.1,311.4,214.9L311.4,214.9z M305.8,210.4
		c2.3,0,3.9,1.6,4.1,3.9h-8.2C301.9,212,303.6,210.4,305.8,210.4z"/>
	<path class="st1" d="M319.4,220.8c2,0,3.6-0.8,4.5-2.3l-1.2-0.8c-0.8,1.2-2,1.7-3.4,1.7c-2.5,0-4.4-1.8-4.4-4.5
		c0-2.7,1.8-4.5,4.4-4.5c1.3,0,2.6,0.5,3.4,1.7l1.2-0.8c-0.9-1.5-2.6-2.3-4.5-2.3c-3.5,0-6,2.4-6,5.9
		C313.4,218.4,316,220.8,319.4,220.8z"/>
	<path class="st1" d="M332.7,218.9c-0.4,0.4-1.1,0.6-1.7,0.6c-1.3,0-2-0.7-2-2.1v-6.9h3.5v-1.3H329v-2.5h-1.6v2.5h-2.1v1.3h2.1v7
		c0,2.1,1.2,3.4,3.4,3.4c0.9,0,1.8-0.3,2.4-0.8L332.7,218.9z"/>
	<path class="st1" d="M340.4,220.8c3.4,0,5.9-2.5,5.9-5.9c0-3.4-2.5-5.9-5.9-5.9c-3.4,0-5.9,2.4-5.9,5.9
		C334.5,218.4,337,220.8,340.4,220.8L340.4,220.8z M340.4,219.5c-2.5,0-4.3-1.8-4.3-4.5c0-2.7,1.8-4.5,4.3-4.5
		c2.5,0,4.3,1.8,4.3,4.5C344.7,217.6,342.8,219.5,340.4,219.5z"/>
	<path class="st1" d="M350.9,211.4v-2.3h-1.5v11.6h1.6v-5.9c0-2.7,1.5-4.3,3.9-4.3c0.1,0,0.2,0,0.4,0v-1.5
		C353.1,209.1,351.7,209.9,350.9,211.4z"/>
	<path class="st1" d="M358.2,220.8c0.6,0,1.2-0.5,1.2-1.2c0-0.7-0.6-1.2-1.2-1.2c-0.6,0-1.2,0.5-1.2,1.2
		C357,220.3,357.6,220.8,358.2,220.8z"/>
	<polygon class="st1" points="80.3,258.2 90.6,258.2 90.6,256.8 81.9,256.8 81.9,242.8 80.3,242.8 	"/>
	<path class="st1" d="M97,246.5c-1.8,0-3.5,0.6-4.7,1.6l0.7,1.2c0.9-0.8,2.4-1.4,3.8-1.4c2.2,0,3.3,1.1,3.3,3.1v0.7h-3.7
		c-3.3,0-4.5,1.5-4.5,3.3c0,2,1.6,3.4,4.2,3.4c1.9,0,3.3-0.7,4-1.9v1.8h1.5V251C101.7,248,100,246.5,97,246.5L97,246.5z M96.5,257.1
		c-1.8,0-2.9-0.8-2.9-2.2c0-1.2,0.7-2.1,3-2.1h3.6v1.9C99.5,256.2,98.2,257.1,96.5,257.1z"/>
	<path class="st1" d="M117.7,246.5c-1.9,0-3.5,0.8-4.5,2.4v-2.3h-1.5v15.8h1.6V256c1,1.5,2.6,2.3,4.4,2.3c3.3,0,5.8-2.4,5.8-5.9
		C123.5,248.9,121,246.5,117.7,246.5L117.7,246.5z M117.6,256.9c-2.5,0-4.3-1.8-4.3-4.5c0-2.7,1.8-4.5,4.3-4.5
		c2.4,0,4.3,1.8,4.3,4.5C121.9,255.1,120,256.9,117.6,256.9z"/>
	<rect x="126.6" y="241.9" class="st1" width="1.6" height="16.3"/>
	<path class="st1" d="M136.6,246.5c-1.8,0-3.5,0.6-4.7,1.6l0.7,1.2c0.9-0.8,2.4-1.4,3.8-1.4c2.2,0,3.3,1.1,3.3,3.1v0.7h-3.7
		c-3.3,0-4.5,1.5-4.5,3.3c0,2,1.6,3.4,4.2,3.4c1.9,0,3.3-0.7,4-1.9v1.8h1.5V251C141.3,248,139.6,246.5,136.6,246.5L136.6,246.5z
		 M136.1,257.1c-1.8,0-2.9-0.8-2.9-2.2c0-1.2,0.7-2.1,3-2.1h3.6v1.9C139.1,256.2,137.8,257.1,136.1,257.1z"/>
	<path class="st1" d="M151.1,256.4c-0.4,0.4-1.1,0.6-1.7,0.6c-1.3,0-2-0.7-2-2.1v-6.9h3.5v-1.3h-3.5v-2.5h-1.6v2.5h-2.1v1.3h2.1v7
		c0,2.1,1.2,3.4,3.4,3.4c0.9,0,1.8-0.3,2.4-0.8L151.1,256.4z"/>
	<path class="st1" d="M158.5,246.5c-1.8,0-3.5,0.6-4.7,1.6l0.7,1.2c0.9-0.8,2.4-1.4,3.8-1.4c2.2,0,3.3,1.1,3.3,3.1v0.7H158
		c-3.3,0-4.5,1.5-4.5,3.3c0,2,1.6,3.4,4.2,3.4c1.9,0,3.3-0.7,4-1.9v1.8h1.5V251C163.2,248,161.5,246.5,158.5,246.5L158.5,246.5z
		 M158,257.1c-1.8,0-2.9-0.8-2.9-2.2c0-1.2,0.7-2.1,3-2.1h3.6v1.9C161,256.2,159.7,257.1,158,257.1z"/>
	<path class="st1" d="M171.3,243.1c0.7,0,1.3,0.2,1.7,0.6l0.5-1.2c-0.6-0.5-1.5-0.7-2.3-0.7c-2.3,0-3.5,1.4-3.5,3.4v1.4h-2.1v1.3
		h2.1v10.3h1.6v-10.3h3.5v-1.3h-3.6v-1.4C169.2,243.8,169.9,243.1,171.3,243.1z"/>
	<path class="st1" d="M179.4,258.3c3.4,0,5.9-2.5,5.9-5.9c0-3.4-2.5-5.9-5.9-5.9s-5.9,2.4-5.9,5.9
		C173.5,255.8,176.1,258.3,179.4,258.3L179.4,258.3z M179.4,256.9c-2.5,0-4.3-1.8-4.3-4.5c0-2.7,1.8-4.5,4.3-4.5
		c2.5,0,4.3,1.8,4.3,4.5C183.7,255.1,181.9,256.9,179.4,256.9z"/>
	<path class="st1" d="M190,248.9v-2.3h-1.5v11.6h1.6v-5.9c0-2.7,1.5-4.3,3.9-4.3c0.1,0,0.2,0,0.4,0v-1.5
		C192.2,246.5,190.7,247.3,190,248.9z"/>
	<path class="st1" d="M211.6,246.5c-2.1,0-3.7,0.9-4.6,2.4c-0.7-1.6-2.2-2.4-4.1-2.4c-1.9,0-3.4,0.8-4.2,2.2v-2.1h-1.5v11.6h1.6
		v-6.1c0-2.6,1.5-4.2,3.9-4.2c2.1,0,3.3,1.3,3.3,3.7v6.6h1.6v-6.1c0-2.6,1.5-4.2,3.9-4.2c2.1,0,3.3,1.3,3.3,3.7v6.6h1.6v-6.7
		C216.2,248.2,214.4,246.5,211.6,246.5z"/>
	<path class="st1" d="M224.5,246.5c-1.8,0-3.5,0.6-4.7,1.6l0.7,1.2c0.9-0.8,2.4-1.4,3.8-1.4c2.2,0,3.3,1.1,3.3,3.1v0.7H224
		c-3.3,0-4.5,1.5-4.5,3.3c0,2,1.6,3.4,4.2,3.4c1.9,0,3.3-0.7,4-1.9v1.8h1.5V251C229.2,248,227.5,246.5,224.5,246.5L224.5,246.5z
		 M224,257.1c-1.8,0-2.9-0.8-2.9-2.2c0-1.2,0.7-2.1,3-2.1h3.6v1.9C227,256.2,225.8,257.1,224,257.1z"/>
	<path class="st1" d="M244.8,256.4c-0.4,0.4-1.1,0.6-1.7,0.6c-1.3,0-2-0.7-2-2.1v-6.9h3.5v-1.3h-3.5v-2.5h-1.6v2.5h-2.1v1.3h2.1v7
		c0,2.1,1.2,3.4,3.4,3.4c0.9,0,1.8-0.3,2.4-0.8L244.8,256.4z"/>
	<path class="st1" d="M252.2,246.5c-1.8,0-3.5,0.6-4.7,1.6l0.7,1.2c0.9-0.8,2.4-1.4,3.8-1.4c2.2,0,3.3,1.1,3.3,3.1v0.7h-3.7
		c-3.3,0-4.5,1.5-4.5,3.3c0,2,1.6,3.4,4.2,3.4c1.9,0,3.3-0.7,4-1.9v1.8h1.5V251C256.9,248,255.2,246.5,252.2,246.5L252.2,246.5z
		 M251.7,257.1c-1.8,0-2.9-0.8-2.9-2.2c0-1.2,0.7-2.1,3-2.1h3.6v1.9C254.7,256.2,253.4,257.1,251.7,257.1z"/>
	<path class="st1" d="M275.6,246.5c-2.1,0-3.7,0.9-4.6,2.4c-0.7-1.6-2.2-2.4-4.1-2.4c-1.9,0-3.4,0.8-4.2,2.2v-2.1h-1.5v11.6h1.6
		v-6.1c0-2.6,1.5-4.2,3.9-4.2c2.1,0,3.3,1.3,3.3,3.7v6.6h1.6v-6.1c0-2.6,1.5-4.2,3.9-4.2c2.1,0,3.3,1.3,3.3,3.7v6.6h1.6v-6.7
		C280.2,248.2,278.4,246.5,275.6,246.5z"/>
	<path class="st1" d="M290.5,246.5c-1.8,0-3.4,0.8-4.4,2.3v-7h-1.6v16.3h1.5v-2.3c0.9,1.6,2.6,2.4,4.5,2.4c3.3,0,5.8-2.4,5.8-5.9
		C296.2,248.9,293.8,246.5,290.5,246.5L290.5,246.5z M290.3,256.9c-2.5,0-4.3-1.8-4.3-4.5c0-2.7,1.8-4.5,4.3-4.5
		c2.4,0,4.3,1.8,4.3,4.5C294.7,255.1,292.8,256.9,290.3,256.9z"/>
	<path class="st1" d="M300.2,244.1c0.7,0,1.1-0.5,1.1-1.1c0-0.6-0.5-1.1-1.1-1.1c-0.6,0-1.1,0.5-1.1,1.1
		C299.1,243.6,299.6,244.1,300.2,244.1L300.2,244.1z M299.4,258.2h1.6v-11.6h-1.6V258.2z"/>
	<path class="st1" d="M313.5,242.1h-2.1l-3,2.7h1.5L313.5,242.1L313.5,242.1z M315.4,252.4c0-3.5-2.4-5.9-5.6-5.9
		c-3.3,0-5.7,2.4-5.7,5.9c0,3.4,2.5,5.9,6.1,5.9c1.8,0,3.4-0.7,4.5-1.9l-0.9-1c-0.9,1-2.1,1.5-3.5,1.5c-2.5,0-4.4-1.6-4.6-4h9.7
		C315.4,252.7,315.4,252.5,315.4,252.4L315.4,252.4z M309.8,247.9c2.3,0,3.9,1.6,4.1,3.9h-8.2C305.9,249.5,307.6,247.9,309.8,247.9z
		"/>
	<path class="st1" d="M324.5,246.5c-2,0-3.6,0.8-4.4,2.2v-2.1h-1.5v11.6h1.6v-6.1c0-2.6,1.6-4.2,4-4.2c2.2,0,3.5,1.3,3.5,3.7v6.6
		h1.6v-6.7C329.3,248.2,327.3,246.5,324.5,246.5z"/>
	<path class="st1" d="M344.8,256.4c-0.4,0.4-1.1,0.6-1.7,0.6c-1.3,0-2-0.7-2-2.1v-6.9h3.5v-1.3h-3.5v-2.5h-1.6v2.5h-2.1v1.3h2.1v7
		c0,2.1,1.2,3.4,3.4,3.4c0.9,0,1.8-0.3,2.4-0.8L344.8,256.4z"/>
	<path class="st1" d="M357.9,252.4c0-3.5-2.4-5.9-5.6-5.9c-3.3,0-5.7,2.4-5.7,5.9c0,3.4,2.5,5.9,6.1,5.9c1.8,0,3.4-0.7,4.5-1.9
		l-0.9-1c-0.9,1-2.1,1.5-3.5,1.5c-2.5,0-4.4-1.6-4.6-4h9.7C357.9,252.7,357.9,252.5,357.9,252.4L357.9,252.4z M352.3,247.9
		c2.3,0,3.9,1.6,4.1,3.9h-8.2C348.4,249.5,350,247.9,352.3,247.9z"/>
	<path class="st1" d="M108.4,288.6c3.4,0,5.9-2.5,5.9-5.9c0-3.4-2.5-5.9-5.9-5.9c-3.4,0-5.9,2.4-5.9,5.9
		C102.5,286.2,105,288.6,108.4,288.6L108.4,288.6z M108.4,287.3c-2.5,0-4.3-1.8-4.3-4.5c0-2.7,1.8-4.5,4.3-4.5
		c2.5,0,4.3,1.8,4.3,4.5C112.7,285.4,110.9,287.3,108.4,287.3z"/>
	<path class="st1" d="M121.3,273.4c0.7,0,1.3,0.2,1.7,0.6l0.5-1.2c-0.6-0.5-1.5-0.7-2.3-0.7c-2.3,0-3.5,1.4-3.5,3.4v1.4h-2.1v1.3
		h2.1v10.3h1.6v-10.3h3.5V277h-3.6v-1.4C119.3,274.2,120,273.4,121.3,273.4z"/>
	<path class="st1" d="M128.2,279.2V277h-1.5v11.6h1.6v-5.9c0-2.7,1.5-4.3,3.9-4.3c0.1,0,0.2,0,0.4,0v-1.5
		C130.4,276.9,128.9,277.7,128.2,279.2z"/>
	<path class="st1" d="M145.3,282.7c0-3.5-2.4-5.9-5.6-5.9c-3.3,0-5.7,2.4-5.7,5.9c0,3.4,2.5,5.9,6.1,5.9c1.8,0,3.4-0.7,4.5-1.9
		l-0.9-1c-0.9,1-2.1,1.5-3.5,1.5c-2.5,0-4.4-1.6-4.6-4h9.7C145.3,283.1,145.3,282.9,145.3,282.7L145.3,282.7z M139.7,278.2
		c2.3,0,3.9,1.6,4.1,3.9h-8.2C135.8,279.8,137.5,278.2,139.7,278.2z"/>
	<path class="st1" d="M153.3,288.6c2,0,3.6-0.8,4.5-2.3l-1.2-0.8c-0.8,1.2-2,1.7-3.4,1.7c-2.5,0-4.4-1.8-4.4-4.5
		c0-2.7,1.8-4.5,4.4-4.5c1.3,0,2.6,0.5,3.4,1.7l1.2-0.8c-0.9-1.5-2.6-2.3-4.5-2.3c-3.5,0-6,2.4-6,5.9
		C147.4,286.2,149.9,288.6,153.3,288.6z"/>
	<path class="st1" d="M170.8,282.7c0-3.5-2.4-5.9-5.6-5.9c-3.3,0-5.7,2.4-5.7,5.9c0,3.4,2.5,5.9,6.1,5.9c1.8,0,3.4-0.7,4.5-1.9
		l-0.9-1c-0.9,1-2.1,1.5-3.5,1.5c-2.5,0-4.4-1.6-4.6-4h9.7C170.8,283.1,170.8,282.9,170.8,282.7L170.8,282.7z M165.2,278.2
		c2.3,0,3.9,1.6,4.1,3.9h-8.2C161.3,279.8,163,278.2,165.2,278.2z"/>
	<path class="st1" d="M175.5,279.2V277H174v11.6h1.6v-5.9c0-2.7,1.5-4.3,3.9-4.3c0.1,0,0.2,0,0.4,0v-1.5
		C177.7,276.9,176.2,277.7,175.5,279.2z"/>
	<path class="st1" d="M190.4,272.4h-2.1l-3,2.7h1.5L190.4,272.4L190.4,272.4z M186.7,276.9c-1.8,0-3.5,0.6-4.7,1.6l0.7,1.2
		c0.9-0.8,2.4-1.4,3.9-1.4c2.2,0,3.3,1.1,3.3,3.1v0.7h-3.7c-3.3,0-4.5,1.5-4.5,3.3c0,2,1.6,3.4,4.2,3.4c1.9,0,3.3-0.7,4-1.9v1.8h1.5
		v-7.2C191.4,278.4,189.7,276.9,186.7,276.9L186.7,276.9z M186.1,287.4c-1.8,0-2.9-0.8-2.9-2.2c0-1.2,0.7-2.1,3-2.1h3.6v1.9
		C189.2,286.6,187.9,287.4,186.1,287.4z"/>
	<path class="st1" d="M204.5,288.6c3,0,4.8-1.3,4.8-3.3c0-4.4-7.5-2.1-7.5-5.2c0-1.1,0.9-1.9,3-1.9c1.2,0,2.4,0.3,3.4,1l0.7-1.3
		c-1-0.7-2.6-1.1-4.1-1.1c-2.9,0-4.6,1.4-4.6,3.3c0,4.6,7.5,2.2,7.5,5.2c0,1.1-0.9,1.9-3.1,1.9c-1.6,0-3.2-0.6-4.1-1.3l-0.7,1.2
		C200.7,288,202.6,288.6,204.5,288.6z"/>
	<path class="st1" d="M221,277v6.1c0,2.6-1.5,4.2-3.9,4.2c-2.2,0-3.5-1.3-3.5-3.7V277H212v6.7c0,3.3,1.9,5,4.9,5
		c1.8,0,3.3-0.8,4.2-2.2v2.1h1.5V277H221z"/>
	<path class="st1" d="M230,288.6c3,0,4.8-1.3,4.8-3.3c0-4.4-7.5-2.1-7.5-5.2c0-1.1,0.9-1.9,3-1.9c1.2,0,2.4,0.3,3.4,1l0.7-1.3
		c-1-0.7-2.6-1.1-4.1-1.1c-2.9,0-4.6,1.4-4.6,3.3c0,4.6,7.5,2.2,7.5,5.2c0,1.1-0.9,1.9-3.1,1.9c-1.6,0-3.2-0.6-4.1-1.3l-0.7,1.2
		C226.3,288,228.1,288.6,230,288.6z"/>
	<path class="st1" d="M246.6,288.6c3,0,4.8-1.3,4.8-3.3c0-4.4-7.5-2.1-7.5-5.2c0-1.1,0.9-1.9,3-1.9c1.2,0,2.4,0.3,3.4,1l0.7-1.3
		c-1-0.7-2.6-1.1-4.1-1.1c-2.9,0-4.6,1.4-4.6,3.3c0,4.6,7.5,2.2,7.5,5.2c0,1.1-0.9,1.9-3.1,1.9c-1.6,0-3.2-0.6-4.1-1.3l-0.7,1.2
		C242.8,288,244.6,288.6,246.6,288.6z"/>
	<path class="st1" d="M264.3,282.7c0-3.5-2.4-5.9-5.6-5.9c-3.3,0-5.7,2.4-5.7,5.9c0,3.4,2.5,5.9,6.1,5.9c1.8,0,3.4-0.7,4.5-1.9
		l-0.9-1c-0.9,1-2.1,1.5-3.5,1.5c-2.5,0-4.4-1.6-4.6-4h9.7C264.3,283.1,264.3,282.9,264.3,282.7L264.3,282.7z M258.7,278.2
		c2.3,0,3.9,1.6,4.1,3.9h-8.2C254.8,279.8,256.5,278.2,258.7,278.2z"/>
	<path class="st1" d="M269,279.2V277h-1.5v11.6h1.6v-5.9c0-2.7,1.5-4.3,3.9-4.3c0.1,0,0.2,0,0.4,0v-1.5
		C271.2,276.9,269.7,277.7,269,279.2z"/>
	<polygon class="st1" points="284.8,277 280.5,286.8 276.1,277 274.5,277 279.6,288.5 281.2,288.5 286.4,277 	"/>
	<path class="st1" d="M289.4,274.4c0.7,0,1.1-0.5,1.1-1.1c0-0.6-0.5-1.1-1.1-1.1c-0.6,0-1.1,0.5-1.1,1.1
		C288.2,273.9,288.7,274.4,289.4,274.4L289.4,274.4z M288.6,288.5h1.6V277h-1.6V288.5z"/>
	<path class="st1" d="M299.3,288.6c2,0,3.6-0.8,4.5-2.3l-1.2-0.8c-0.8,1.2-2,1.7-3.4,1.7c-2.5,0-4.4-1.8-4.4-4.5
		c0-2.7,1.8-4.5,4.4-4.5c1.3,0,2.6,0.5,3.4,1.7l1.2-0.8c-0.9-1.5-2.6-2.3-4.5-2.3c-3.5,0-6,2.4-6,5.9
		C293.3,286.2,295.8,288.6,299.3,288.6z"/>
	<path class="st1" d="M307.7,274.4c0.7,0,1.1-0.5,1.1-1.1c0-0.6-0.5-1.1-1.1-1.1c-0.6,0-1.1,0.5-1.1,1.1
		C306.5,273.9,307,274.4,307.7,274.4L307.7,274.4z M306.9,288.5h1.6V277h-1.6V288.5z"/>
	<path class="st1" d="M317.5,288.6c3.4,0,5.9-2.5,5.9-5.9c0-3.4-2.5-5.9-5.9-5.9c-3.4,0-5.9,2.4-5.9,5.9
		C311.6,286.2,314.1,288.6,317.5,288.6L317.5,288.6z M317.5,287.3c-2.5,0-4.3-1.8-4.3-4.5c0-2.7,1.8-4.5,4.3-4.5
		c2.5,0,4.3,1.8,4.3,4.5C321.8,285.4,320,287.3,317.5,287.3z"/>
	<path class="st1" d="M329.7,288.6c3,0,4.8-1.3,4.8-3.3c0-4.4-7.5-2.1-7.5-5.2c0-1.1,0.9-1.9,3-1.9c1.2,0,2.4,0.3,3.4,1l0.7-1.3
		c-1-0.7-2.6-1.1-4.1-1.1c-2.9,0-4.6,1.4-4.6,3.3c0,4.6,7.5,2.2,7.5,5.2c0,1.1-0.9,1.9-3.1,1.9c-1.6,0-3.2-0.6-4.1-1.3l-0.7,1.2
		C325.9,288,327.8,288.6,329.7,288.6z"/>
	<rect x="127.2" y="302.5" class="st1" width="1.6" height="16.3"/>
	<path class="st1" d="M143.3,313.1c0-3.5-2.4-5.9-5.6-5.9c-3.3,0-5.7,2.4-5.7,5.9c0,3.4,2.5,5.9,6.1,5.9c1.8,0,3.4-0.7,4.5-1.9
		l-0.9-1c-0.9,1-2.1,1.5-3.5,1.5c-2.5,0-4.4-1.6-4.6-4h9.7C143.2,313.4,143.3,313.2,143.3,313.1L143.3,313.1z M137.6,308.5
		c2.3,0,3.9,1.6,4.1,3.9h-8.2C133.7,310.1,135.4,308.5,137.6,308.5z"/>
	<path class="st1" d="M155.7,307.3v2.2c-1-1.5-2.6-2.3-4.6-2.3c-3.3,0-5.8,2.3-5.8,5.6c0,3.3,2.5,5.6,5.8,5.6c1.9,0,3.5-0.8,4.5-2.2
		v1.5c0,2.9-1.3,4.2-4.3,4.2c-1.8,0-3.5-0.6-4.6-1.6l-0.8,1.2c1.2,1.1,3.3,1.8,5.4,1.8c3.8,0,5.8-1.8,5.8-5.8v-10.2H155.7
		L155.7,307.3z M151.2,317c-2.6,0-4.4-1.7-4.4-4.2c0-2.5,1.8-4.2,4.4-4.2s4.4,1.7,4.4,4.2C155.6,315.3,153.8,317,151.2,317z"/>
	<path class="st1" d="M165.6,307.2c-1.8,0-3.5,0.6-4.7,1.6l0.7,1.2c0.9-0.8,2.4-1.4,3.9-1.4c2.2,0,3.3,1.1,3.3,3.1v0.7H165
		c-3.3,0-4.5,1.5-4.5,3.3c0,2,1.6,3.4,4.2,3.4c1.9,0,3.3-0.7,4-1.9v1.8h1.5v-7.2C170.3,308.7,168.6,307.2,165.6,307.2L165.6,307.2z
		 M165,317.7c-1.8,0-2.9-0.8-2.9-2.2c0-1.2,0.7-2.1,3-2.1h3.6v1.9C168.1,316.9,166.8,317.7,165,317.7z"/>
	<rect x="174.5" y="302.5" class="st1" width="1.6" height="16.3"/>
	<path class="st1" d="M190.5,313.1c0-3.5-2.4-5.9-5.6-5.9c-3.3,0-5.7,2.4-5.7,5.9c0,3.4,2.5,5.9,6.1,5.9c1.8,0,3.4-0.7,4.5-1.9
		l-0.9-1c-0.9,1-2.1,1.5-3.5,1.5c-2.5,0-4.4-1.6-4.6-4h9.7C190.5,313.4,190.5,313.2,190.5,313.1L190.5,313.1z M184.9,308.5
		c2.3,0,3.9,1.6,4.1,3.9h-8.2C181,310.1,182.7,308.5,184.9,308.5z"/>
	<path class="st1" d="M196.8,319c3,0,4.8-1.3,4.8-3.3c0-4.4-7.5-2.1-7.5-5.2c0-1.1,0.9-1.9,3-1.9c1.2,0,2.4,0.3,3.4,1l0.7-1.3
		c-1-0.7-2.6-1.1-4.1-1.1c-2.9,0-4.6,1.4-4.6,3.3c0,4.6,7.5,2.2,7.5,5.2c0,1.1-0.9,1.9-3.1,1.9c-1.6,0-3.2-0.6-4.1-1.3l-0.7,1.2
		C193.1,318.4,194.9,319,196.8,319z"/>
	<path class="st1" d="M218.4,307.3l-4.4,9.8l-4.4-9.8h-1.6l5.2,11.5l-0.5,1.1c-0.7,1.5-1.4,1.9-2.4,1.9c-0.8,0-1.5-0.3-2.1-0.9
		l-0.7,1.2c0.7,0.7,1.7,1.1,2.8,1.1c1.7,0,2.9-0.7,3.9-3l5.8-13H218.4z"/>
	<path class="st1" d="M228.2,305.9v1.4h-2.1v1.3h2.1v10.3h1.6v-10.3h3.5v-1.3h-3.6v-1.4c0-1.4,0.7-2.2,2-2.2c0.7,0,1.3,0.2,1.7,0.6
		l0.5-1.2c-0.6-0.5-1.5-0.7-2.3-0.7C229.4,302.4,228.2,303.8,228.2,305.9L228.2,305.9z M237.9,302.5c-0.6,0-1.1,0.5-1.1,1.1
		c0,0.6,0.5,1.1,1.1,1.1c0.7,0,1.1-0.5,1.1-1.1C239.1,303,238.6,302.5,237.9,302.5L237.9,302.5z M237.1,318.9h1.6v-11.6h-1.6V318.9z
		"/>
	<path class="st1" d="M246.2,319c3,0,4.8-1.3,4.8-3.3c0-4.4-7.5-2.1-7.5-5.2c0-1.1,0.9-1.9,3-1.9c1.2,0,2.4,0.3,3.4,1l0.7-1.3
		c-1-0.7-2.6-1.1-4.1-1.1c-2.9,0-4.6,1.4-4.6,3.3c0,4.6,7.5,2.2,7.5,5.2c0,1.1-0.9,1.9-3.1,1.9c-1.6,0-3.2-0.6-4.1-1.3l-0.7,1.2
		C242.4,318.4,244.3,319,246.2,319z"/>
	<path class="st1" d="M258.6,319c2,0,3.6-0.8,4.5-2.3l-1.2-0.8c-0.8,1.2-2,1.7-3.4,1.7c-2.5,0-4.4-1.8-4.4-4.5
		c0-2.7,1.8-4.5,4.4-4.5c1.3,0,2.6,0.5,3.4,1.7l1.2-0.8c-0.9-1.5-2.6-2.3-4.5-2.3c-3.5,0-6,2.4-6,5.9
		C252.7,316.5,255.2,319,258.6,319z"/>
	<path class="st1" d="M270.3,307.2c-1.8,0-3.5,0.6-4.7,1.6l0.7,1.2c0.9-0.8,2.4-1.4,3.9-1.4c2.2,0,3.3,1.1,3.3,3.1v0.7h-3.7
		c-3.3,0-4.5,1.5-4.5,3.3c0,2,1.6,3.4,4.2,3.4c1.9,0,3.3-0.7,4-1.9v1.8h1.5v-7.2C274.9,308.7,273.2,307.2,270.3,307.2L270.3,307.2z
		 M269.7,317.7c-1.8,0-2.9-0.8-2.9-2.2c0-1.2,0.7-2.1,3-2.1h3.6v1.9C272.8,316.9,271.5,317.7,269.7,317.7z"/>
	<rect x="279.2" y="302.5" class="st1" width="1.6" height="16.3"/>
	<path class="st1" d="M295.2,313.1c0-3.5-2.4-5.9-5.6-5.9c-3.3,0-5.7,2.4-5.7,5.9c0,3.4,2.5,5.9,6.1,5.9c1.8,0,3.4-0.7,4.5-1.9
		l-0.9-1c-0.9,1-2.1,1.5-3.5,1.5c-2.5,0-4.4-1.6-4.6-4h9.7C295.2,313.4,295.2,313.2,295.2,313.1L295.2,313.1z M289.6,308.5
		c2.3,0,3.9,1.6,4.1,3.9h-8.2C285.7,310.1,287.4,308.5,289.6,308.5z"/>
	<path class="st1" d="M301.5,319c3,0,4.8-1.3,4.8-3.3c0-4.4-7.5-2.1-7.5-5.2c0-1.1,0.9-1.9,3-1.9c1.2,0,2.4,0.3,3.4,1l0.7-1.3
		c-1-0.7-2.6-1.1-4.1-1.1c-2.9,0-4.6,1.4-4.6,3.3c0,4.6,7.5,2.2,7.5,5.2c0,1.1-0.9,1.9-3.1,1.9c-1.6,0-3.2-0.6-4.1-1.3l-0.7,1.2
		C297.7,318.4,299.6,319,301.5,319z"/>
	<path class="st1" d="M309.3,319c0.6,0,1.2-0.5,1.2-1.2c0-0.7-0.6-1.2-1.2-1.2c-0.6,0-1.2,0.5-1.2,1.2
		C308.1,318.4,308.7,319,309.3,319z"/>
</g>
</svg>
