<svg id="Capa_1" data-name="Capa 1" xmlns="http://www.w3.org/2000/svg" xmlns:xlink="http://www.w3.org/1999/xlink" width="154mm" height="154mm" viewBox="0 0 436.54 436.54"><defs><linearGradient id="GradientFill_3" x1="467.94" y1="287.59" x2="77.21" y2="179.1" gradientUnits="userSpaceOnUse"><stop offset="0" stop-color="#f3cf1c"/><stop offset="0.77" stop-color="#f4ae21"/><stop offset="1" stop-color="#f4ae21"/></linearGradient></defs><title>QUESITO AMARILLO CIRCULO 6-01</title><circle cx="218.27" cy="218.27" r="218.04" fill="url(#GradientFill_3)"/><polygon points="130.25 101.51 140.5 101.51 140.5 100.11 131.87 100.11 131.87 86.11 130.25 86.11 130.25 101.51" fill-rule="evenodd"/><path d="M147,89.85a7.34,7.34,0,0,0-4.71,1.57l.7,1.16a5.94,5.94,0,0,1,3.85-1.36c2.16,0,3.28,1.08,3.28,3.06V95h-3.67c-3.33,0-4.47,1.5-4.47,3.28,0,2,1.61,3.36,4.22,3.36a4.35,4.35,0,0,0,4-1.91v1.8h1.49V94.34c0-3-1.69-4.49-4.68-4.49Zm-.55,10.54c-1.85,0-2.93-.83-2.93-2.18,0-1.18.73-2.06,3-2.06h3.63V98A3.69,3.69,0,0,1,146.42,100.39Z" fill-rule="evenodd"/><path d="M167.62,89.85a5,5,0,0,0-4.46,2.38V89.94h-1.5v15.84h1.56V99.34a5.07,5.07,0,0,0,4.4,2.28,5.89,5.89,0,0,0,0-11.77Zm-.11,10.39a4.51,4.51,0,1,1,4.32-4.51A4.24,4.24,0,0,1,167.51,100.24Z" fill-rule="evenodd"/><rect x="176.58" y="85.19" width="1.56" height="16.32"/><path d="M186.54,89.85a7.33,7.33,0,0,0-4.7,1.57l.7,1.16a5.92,5.92,0,0,1,3.85-1.36c2.16,0,3.28,1.08,3.28,3.06V95H186c-3.32,0-4.46,1.5-4.46,3.28,0,2,1.6,3.36,4.22,3.36a4.32,4.32,0,0,0,4-1.91v1.8h1.5V94.34c0-3-1.69-4.49-4.69-4.49ZM186,100.39c-1.84,0-2.92-.83-2.92-2.18,0-1.18.72-2.06,3-2.06h3.63V98A3.71,3.71,0,0,1,186,100.39Z" fill-rule="evenodd"/><path d="M201,99.69a2.62,2.62,0,0,1-1.72.59,1.86,1.86,0,0,1-2-2.11V91.26h3.52V89.94H197.3V87.41h-1.56v2.53h-2.07v1.32h2.07v7a3.06,3.06,0,0,0,3.39,3.36,3.72,3.72,0,0,0,2.44-.81Z" fill-rule="evenodd"/><path d="M208.46,89.85a7.34,7.34,0,0,0-4.71,1.57l.7,1.16a5.94,5.94,0,0,1,3.85-1.36c2.16,0,3.28,1.08,3.28,3.06V95h-3.67c-3.33,0-4.47,1.5-4.47,3.28,0,2,1.6,3.36,4.22,3.36a4.35,4.35,0,0,0,4-1.91v1.8h1.49V94.34c0-3-1.69-4.49-4.68-4.49Zm-.55,10.54c-1.85,0-2.93-.83-2.93-2.18,0-1.18.73-2.06,3-2.06h3.63V98A3.69,3.69,0,0,1,207.91,100.39Z" fill-rule="evenodd"/><path d="M221.21,86.4a2.68,2.68,0,0,1,1.72.57l.53-1.16a3.63,3.63,0,0,0-2.31-.73,3.18,3.18,0,0,0-3.5,3.43v1.43h-2.07v1.32h2.07v10.25h1.56V91.26h3.52V89.94h-3.56V88.58C219.17,87.15,219.87,86.4,221.21,86.4Z" fill-rule="evenodd"/><path d="M229.38,101.62a5.89,5.89,0,1,0-5.9-5.89,5.69,5.69,0,0,0,5.9,5.89Zm0-1.38a4.52,4.52,0,1,1,4.29-4.51A4.24,4.24,0,0,1,229.38,100.24Z" fill-rule="evenodd"/><path d="M239.94,92.21V89.94h-1.5v11.57H240V95.62c0-2.73,1.48-4.27,3.9-4.27l.37,0V89.85C242.14,89.85,240.66,90.67,239.94,92.21Z" fill-rule="evenodd"/><path d="M261.52,89.85a5,5,0,0,0-4.58,2.45,4.15,4.15,0,0,0-4.11-2.45,4.7,4.7,0,0,0-4.25,2.2V89.94h-1.49v11.57h1.56V95.44c0-2.64,1.52-4.18,3.87-4.18,2.11,0,3.34,1.26,3.34,3.7v6.55h1.57V95.44c0-2.64,1.49-4.18,3.87-4.18,2.09,0,3.32,1.26,3.32,3.7v6.55h1.56V94.8C266.18,91.48,264.34,89.85,261.52,89.85Z" fill-rule="evenodd"/><path d="M274.48,89.85a7.34,7.34,0,0,0-4.71,1.57l.7,1.16a5.94,5.94,0,0,1,3.85-1.36c2.16,0,3.28,1.08,3.28,3.06V95h-3.67c-3.33,0-4.47,1.5-4.47,3.28,0,2,1.61,3.36,4.22,3.36a4.35,4.35,0,0,0,4-1.91v1.8h1.49V94.34c0-3-1.69-4.49-4.68-4.49Zm-.55,10.54c-1.85,0-2.93-.83-2.93-2.18,0-1.18.73-2.06,3-2.06h3.63V98A3.69,3.69,0,0,1,273.93,100.39Z" fill-rule="evenodd"/><path d="M294.72,99.69a2.62,2.62,0,0,1-1.72.59,1.85,1.85,0,0,1-2-2.11V91.26h3.52V89.94H291V87.41h-1.56v2.53h-2.07v1.32h2.07v7a3.06,3.06,0,0,0,3.38,3.36,3.73,3.73,0,0,0,2.45-.81Z" fill-rule="evenodd"/><path d="M307.78,95.73a5.51,5.51,0,0,0-5.61-5.88,5.58,5.58,0,0,0-5.65,5.88,6.12,6.12,0,0,0,10.54,4l-.88-1a4.58,4.58,0,0,1-3.54,1.52,4.29,4.29,0,0,1-4.56-4h9.68c0-.17,0-.35,0-.48Zm-5.61-4.53a4,4,0,0,1,4.12,3.85h-8.21A4,4,0,0,1,302.17,91.2Z" fill-rule="evenodd"/><path d="M103.7,126.07a5.51,5.51,0,0,0-5.61-5.88,5.57,5.57,0,0,0-5.65,5.88,6.12,6.12,0,0,0,10.54,4l-.88-1a4.58,4.58,0,0,1-3.55,1.52,4.29,4.29,0,0,1-4.55-4h9.68c0-.18,0-.35,0-.48Zm-5.61-4.54a4,4,0,0,1,4.12,3.85H94A4,4,0,0,1,98.09,121.53Z" fill-rule="evenodd"/><path d="M112.79,120.19a4.87,4.87,0,0,0-4.4,2.22v-2.13h-1.5v11.57h1.56v-6.07c0-2.64,1.57-4.18,4-4.18,2.2,0,3.48,1.25,3.48,3.7v6.55h1.56v-6.71C117.54,121.82,115.6,120.19,112.79,120.19Z" fill-rule="evenodd"/><polygon points="129.75 120.28 125.37 130.14 121.04 120.28 119.41 120.28 124.54 131.85 126.14 131.85 131.29 120.28 129.75 120.28" fill-rule="evenodd"/><path d="M134.28,117.75a1.13,1.13,0,0,0,1.15-1.14,1.15,1.15,0,0,0-2.29,0,1.13,1.13,0,0,0,1.14,1.12Zm-.79,14.1h1.56V120.28h-1.56Z" fill-rule="evenodd"/><path d="M143.46,120.19a7.33,7.33,0,0,0-4.71,1.56l.7,1.17a5.89,5.89,0,0,1,3.85-1.36c2.16,0,3.28,1.07,3.28,3v.71h-3.67c-3.33,0-4.47,1.49-4.47,3.28,0,2,1.61,3.36,4.22,3.36a4.35,4.35,0,0,0,4-1.91v1.8h1.49v-7.17c0-3-1.69-4.49-4.68-4.49Zm-.55,10.54c-1.85,0-2.93-.84-2.93-2.18s.73-2.07,3-2.07h3.63v1.9A3.71,3.71,0,0,1,142.91,130.73Z" fill-rule="evenodd"/><path d="M153.88,122.55v-2.27h-1.49v11.57H154V126c0-2.73,1.47-4.27,3.89-4.27l.38,0v-1.52C156.08,120.19,154.61,121,153.88,122.55Z" fill-rule="evenodd"/><path d="M168.78,115.77h-2.09l-3,2.73h1.54l3.57-2.73Zm-3.72,4.42a7.35,7.35,0,0,0-4.71,1.56l.71,1.17a5.85,5.85,0,0,1,3.85-1.36c2.15,0,3.27,1.07,3.27,3v.71h-3.67c-3.32,0-4.47,1.49-4.47,3.28,0,2,1.61,3.36,4.23,3.36a4.34,4.34,0,0,0,4-1.91v1.8h1.5v-7.17c0-3-1.7-4.49-4.69-4.49Zm-.55,10.54c-1.85,0-2.93-.84-2.93-2.18s.73-2.07,3-2.07h3.63v1.9A3.7,3.7,0,0,1,164.51,130.73Z" fill-rule="evenodd"/><path d="M182.86,132c3,0,4.77-1.3,4.77-3.3,0-4.44-7.5-2.08-7.5-5.21,0-1.1.92-1.92,3-1.92a6,6,0,0,1,3.41,1l.69-1.25a7.87,7.87,0,0,0-4.1-1.08c-2.94,0-4.57,1.41-4.57,3.3,0,4.58,7.5,2.21,7.5,5.22,0,1.14-.9,1.89-3.1,1.89a7,7,0,0,1-4.12-1.3l-.7,1.23A7.69,7.69,0,0,0,182.86,132Z" fill-rule="evenodd"/><path d="M200.61,126.07a5.51,5.51,0,0,0-5.61-5.88,5.57,5.57,0,0,0-5.65,5.88,6.12,6.12,0,0,0,10.54,4l-.88-1a4.58,4.58,0,0,1-3.55,1.52,4.29,4.29,0,0,1-4.55-4h9.68c0-.18,0-.35,0-.48ZM195,121.53a4,4,0,0,1,4.12,3.85h-8.21A4,4,0,0,1,195,121.53Z" fill-rule="evenodd"/><path d="M218.23,120.19a5,5,0,0,0-4.57,2.44,4.17,4.17,0,0,0-4.12-2.44,4.68,4.68,0,0,0-4.24,2.2v-2.11h-1.5v11.57h1.56v-6.07c0-2.64,1.52-4.18,3.88-4.18,2.11,0,3.34,1.25,3.34,3.7v6.55h1.56v-6.07c0-2.64,1.5-4.18,3.87-4.18,2.09,0,3.33,1.25,3.33,3.7v6.55h1.56v-6.71C222.9,121.82,221.05,120.19,218.23,120.19Z" fill-rule="evenodd"/><path d="M231.19,120.19a7.37,7.37,0,0,0-4.71,1.56l.71,1.17a5.85,5.85,0,0,1,3.85-1.36c2.15,0,3.28,1.07,3.28,3v.71h-3.68c-3.32,0-4.46,1.49-4.46,3.28,0,2,1.6,3.36,4.22,3.36a4.34,4.34,0,0,0,4-1.91v1.8h1.5v-7.17c0-3-1.7-4.49-4.69-4.49Zm-.55,10.54c-1.85,0-2.92-.84-2.92-2.18s.72-2.07,3-2.07h3.63v1.9A3.72,3.72,0,0,1,230.64,130.73Z" fill-rule="evenodd"/><path d="M246,120.19a4.89,4.89,0,0,0-4.4,2.22v-2.13h-1.5v11.57h1.57v-6.07c0-2.64,1.56-4.18,4-4.18,2.2,0,3.48,1.25,3.48,3.7v6.55h1.56v-6.71C250.77,121.82,248.84,120.19,246,120.19Z" fill-rule="evenodd"/><path d="M259.07,120.19a7.33,7.33,0,0,0-4.71,1.56l.7,1.17a5.89,5.89,0,0,1,3.85-1.36c2.16,0,3.28,1.07,3.28,3v.71h-3.67c-3.33,0-4.47,1.49-4.47,3.28,0,2,1.61,3.36,4.22,3.36a4.35,4.35,0,0,0,4-1.91v1.8h1.49v-7.17c0-3-1.69-4.49-4.68-4.49Zm-.55,10.54c-1.85,0-2.93-.84-2.93-2.18s.73-2.07,3-2.07h3.63v1.9A3.71,3.71,0,0,1,258.52,130.73Z" fill-rule="evenodd"/><rect x="268" y="115.53" width="1.56" height="16.32"/><path d="M288.35,120.19a5.06,5.06,0,0,0-4.58,2.44,4.16,4.16,0,0,0-4.11-2.44,4.7,4.7,0,0,0-4.25,2.2v-2.11h-1.49v11.57h1.56v-6.07c0-2.64,1.52-4.18,3.87-4.18,2.11,0,3.34,1.25,3.34,3.7v6.55h1.57v-6.07c0-2.64,1.49-4.18,3.87-4.18,2.09,0,3.32,1.25,3.32,3.7v6.55H293v-6.71C293,121.82,291.16,120.19,288.35,120.19Z" fill-rule="evenodd"/><path d="M307.4,126.07a5.64,5.64,0,1,0-11.26,0,6.11,6.11,0,0,0,10.53,4l-.88-1a4.56,4.56,0,0,1-3.54,1.52,4.28,4.28,0,0,1-4.55-4h9.68c0-.18,0-.35,0-.48Zm-5.61-4.54a4,4,0,0,1,4.11,3.85h-8.2A4,4,0,0,1,301.79,121.53Z" fill-rule="evenodd"/><path d="M316.49,120.19a4.86,4.86,0,0,0-4.4,2.22v-2.13h-1.5v11.57h1.56v-6.07c0-2.64,1.56-4.18,4.05-4.18,2.2,0,3.48,1.25,3.48,3.7v6.55h1.56v-6.71C321.24,121.82,319.3,120.19,316.49,120.19Z" fill-rule="evenodd"/><path d="M331,130a2.62,2.62,0,0,1-1.72.59,1.85,1.85,0,0,1-2-2.11V121.6h3.52v-1.32h-3.52v-2.53h-1.56v2.53h-2.07v1.32h2.07v7a3.06,3.06,0,0,0,3.39,3.36,3.72,3.72,0,0,0,2.44-.81Z" fill-rule="evenodd"/><path d="M344.1,126.07a5.52,5.52,0,0,0-5.61-5.88,5.58,5.58,0,0,0-5.66,5.88,6.12,6.12,0,0,0,10.54,4l-.88-1a4.56,4.56,0,0,1-3.54,1.52,4.29,4.29,0,0,1-4.56-4h9.68c0-.18,0-.35,0-.48Zm-5.61-4.54a4,4,0,0,1,4.11,3.85h-8.21A4,4,0,0,1,338.49,121.53Z" fill-rule="evenodd"/><path d="M63.47,160.36a2.58,2.58,0,0,1-1.72.6,1.85,1.85,0,0,1-2-2.11v-6.91h3.52v-1.32H59.75v-2.53H58.19v2.53H56.12v1.32h2.07v7a3.06,3.06,0,0,0,3.38,3.37,3.73,3.73,0,0,0,2.45-.81Z" fill-rule="evenodd"/><path d="M71.17,162.3a5.89,5.89,0,1,0-5.9-5.9,5.69,5.69,0,0,0,5.9,5.9Zm0-1.39a4.52,4.52,0,1,1,4.29-4.51A4.24,4.24,0,0,1,71.17,160.91Z" fill-rule="evenodd"/><path d="M89.23,145.87v6.95a5,5,0,0,0-4.4-2.29,5.89,5.89,0,0,0,0,11.77,5,5,0,0,0,4.46-2.4v2.29h1.5V145.87Zm-4.27,15a4.52,4.52,0,1,1,4.29-4.51A4.24,4.24,0,0,1,85,160.91Z" fill-rule="evenodd"/><path d="M99.19,150.53a7.32,7.32,0,0,0-4.7,1.56l.7,1.17A5.88,5.88,0,0,1,99,151.89c2.16,0,3.28,1.08,3.28,3.06v.71H98.64c-3.32,0-4.46,1.49-4.46,3.27,0,2,1.6,3.37,4.22,3.37a4.34,4.34,0,0,0,4-1.91v1.8h1.5V155c0-3-1.69-4.49-4.69-4.49Zm-.55,10.54c-1.85,0-2.92-.84-2.92-2.18,0-1.19.72-2.07,3-2.07h3.63v1.89A3.72,3.72,0,0,1,98.64,161.07Z" fill-rule="evenodd"/><rect x="113.89" y="145.87" width="1.56" height="16.32"/><path d="M123.85,150.53a7.32,7.32,0,0,0-4.7,1.56l.7,1.17a5.88,5.88,0,0,1,3.85-1.37c2.16,0,3.28,1.08,3.28,3.06v.71H123.3c-3.32,0-4.46,1.49-4.46,3.27,0,2,1.6,3.37,4.22,3.37a4.34,4.34,0,0,0,4-1.91v1.8h1.5V155c0-3-1.69-4.49-4.69-4.49Zm-.55,10.54c-1.84,0-2.92-.84-2.92-2.18,0-1.19.72-2.07,3-2.07H127v1.89A3.72,3.72,0,0,1,123.3,161.07Z" fill-rule="evenodd"/><path d="M139.34,148.09a1.13,1.13,0,0,0,1.15-1.15,1.15,1.15,0,0,0-2.29,0,1.13,1.13,0,0,0,1.14,1.12Zm-.79,14.1h1.56V150.62h-1.56Z" fill-rule="evenodd"/><path d="M150.36,150.53a4.86,4.86,0,0,0-4.4,2.22v-2.13h-1.49v11.57H146v-6.07c0-2.64,1.56-4.18,4.05-4.18,2.2,0,3.47,1.25,3.47,3.69v6.56h1.57v-6.71C155.12,152.16,153.18,150.53,150.36,150.53Z" fill-rule="evenodd"/><path d="M163.19,147.08a2.62,2.62,0,0,1,1.72.57l.52-1.17a3.68,3.68,0,0,0-2.31-.72,3.18,3.18,0,0,0-3.49,3.43v1.43h-2.07v1.32h2.07v10.25h1.56V151.94h3.52v-1.32h-3.57v-1.37C161.14,147.82,161.85,147.08,163.19,147.08Z" fill-rule="evenodd"/><path d="M171.35,162.3a5.89,5.89,0,1,0-5.89-5.9,5.69,5.69,0,0,0,5.89,5.9Zm0-1.39a4.52,4.52,0,1,1,4.29-4.51A4.24,4.24,0,0,1,171.35,160.91Z" fill-rule="evenodd"/><path d="M181.91,152.88v-2.26h-1.49v11.57H182v-5.9c0-2.72,1.47-4.26,3.89-4.26l.38,0v-1.52C184.11,150.53,182.64,151.34,181.91,152.88Z" fill-rule="evenodd"/><path d="M203.49,150.53a5,5,0,0,0-4.57,2.44,4.16,4.16,0,0,0-4.12-2.44,4.66,4.66,0,0,0-4.24,2.2v-2.11h-1.5v11.57h1.56v-6.07c0-2.64,1.52-4.18,3.88-4.18,2.11,0,3.34,1.25,3.34,3.69v6.56h1.56v-6.07c0-2.64,1.5-4.18,3.87-4.18,2.09,0,3.33,1.25,3.33,3.69v6.56h1.56v-6.71C208.16,152.16,206.31,150.53,203.49,150.53Z" fill-rule="evenodd"/><path d="M216.45,150.53a7.37,7.37,0,0,0-4.71,1.56l.71,1.17a5.86,5.86,0,0,1,3.85-1.37c2.15,0,3.28,1.08,3.28,3.06v.71H215.9c-3.32,0-4.46,1.49-4.46,3.27,0,2,1.6,3.37,4.22,3.37a4.36,4.36,0,0,0,4-1.91v1.8h1.5V155c0-3-1.7-4.49-4.69-4.49Zm-.55,10.54c-1.85,0-2.92-.84-2.92-2.18,0-1.19.72-2.07,3-2.07h3.63v1.89A3.72,3.72,0,0,1,215.9,161.07Z" fill-rule="evenodd"/><path d="M230.22,162.3a5.11,5.11,0,0,0,4.54-2.29l-1.17-.79a3.9,3.9,0,0,1-3.37,1.69,4.51,4.51,0,0,1,0-9,3.92,3.92,0,0,1,3.37,1.72l1.17-.79a5.07,5.07,0,0,0-4.54-2.29,5.89,5.89,0,1,0,0,11.77Z" fill-rule="evenodd"/><path d="M238.61,148.09a1.12,1.12,0,0,0,1.14-1.15,1.11,1.11,0,0,0-1.14-1.07,1.11,1.11,0,1,0,0,2.22Zm-.8,14.1h1.57V150.62h-1.57Z" fill-rule="evenodd"/><path d="M247,148.84h1.54l3.56-2.73H250l-3,2.73Zm1.45,13.46a5.89,5.89,0,1,0-5.89-5.9,5.69,5.69,0,0,0,5.89,5.9Zm0-1.39a4.52,4.52,0,1,1,4.29-4.51A4.24,4.24,0,0,1,248.46,160.91Z" fill-rule="evenodd"/><path d="M263.42,150.53a4.86,4.86,0,0,0-4.4,2.22v-2.13h-1.49v11.57h1.56v-6.07c0-2.64,1.56-4.18,4.05-4.18,2.2,0,3.47,1.25,3.47,3.69v6.56h1.56v-6.71C268.17,152.16,266.24,150.53,263.42,150.53Z" fill-rule="evenodd"/><path d="M279.68,152.88v-2.26h-1.5v11.57h1.57v-5.9c0-2.72,1.47-4.26,3.89-4.26l.37,0v-1.52C281.88,150.53,280.41,151.34,279.68,152.88Z" fill-rule="evenodd"/><path d="M296.82,156.4a5.52,5.52,0,0,0-5.61-5.87,5.57,5.57,0,0,0-5.66,5.87,6.12,6.12,0,0,0,10.54,4l-.88-1a4.55,4.55,0,0,1-3.54,1.51,4.27,4.27,0,0,1-4.55-4h9.68c0-.18,0-.35,0-.49Zm-5.61-4.53a4,4,0,0,1,4.11,3.85h-8.2A4,4,0,0,1,291.21,151.87Z" fill-rule="evenodd"/><rect x="300.01" y="145.87" width="1.56" height="16.32"/><path d="M310,150.53a7.32,7.32,0,0,0-4.7,1.56l.7,1.17a5.88,5.88,0,0,1,3.85-1.37c2.16,0,3.28,1.08,3.28,3.06v.71h-3.68c-3.32,0-4.46,1.49-4.46,3.27,0,2,1.6,3.37,4.22,3.37a4.34,4.34,0,0,0,4-1.91v1.8h1.5V155c0-3-1.69-4.49-4.69-4.49Zm-.55,10.54c-1.84,0-2.92-.84-2.92-2.18,0-1.19.72-2.07,3-2.07h3.63v1.89A3.72,3.72,0,0,1,309.42,161.07Z" fill-rule="evenodd"/><path d="M324.45,160.36a2.58,2.58,0,0,1-1.72.6,1.86,1.86,0,0,1-2-2.11v-6.91h3.52v-1.32h-3.52v-2.53h-1.56v2.53H317.1v1.32h2.07v7a3.07,3.07,0,0,0,3.39,3.37,3.72,3.72,0,0,0,2.44-.81Z" fill-rule="evenodd"/><path d="M328.63,148.09a1.12,1.12,0,0,0,1.14-1.15,1.1,1.1,0,0,0-1.14-1.07,1.11,1.11,0,1,0,0,2.22Zm-.79,14.1h1.56V150.62h-1.56Z" fill-rule="evenodd"/><polygon points="341.94 150.62 337.56 160.47 333.23 150.62 331.6 150.62 336.73 162.19 338.33 162.19 343.48 150.62 341.94 150.62" fill-rule="evenodd"/><path d="M349.38,150.53a7.33,7.33,0,0,0-4.71,1.56l.7,1.17a5.9,5.9,0,0,1,3.85-1.37c2.16,0,3.28,1.08,3.28,3.06v.71h-3.67c-3.33,0-4.47,1.49-4.47,3.27,0,2,1.61,3.37,4.22,3.37a4.37,4.37,0,0,0,4-1.91v1.8h1.49V155c0-3-1.69-4.49-4.68-4.49Zm-.55,10.54c-1.85,0-2.93-.84-2.93-2.18,0-1.19.73-2.07,3-2.07h3.63v1.89A3.7,3.7,0,0,1,348.83,161.07Z" fill-rule="evenodd"/><path d="M368.12,150.53a7.35,7.35,0,0,0-4.71,1.56l.71,1.17a5.86,5.86,0,0,1,3.85-1.37c2.15,0,3.27,1.08,3.27,3.06v.71h-3.67c-3.32,0-4.47,1.49-4.47,3.27,0,2,1.61,3.37,4.23,3.37a4.36,4.36,0,0,0,4-1.91v1.8h1.5V155c0-3-1.7-4.49-4.69-4.49Zm-.55,10.54c-1.85,0-2.93-.84-2.93-2.18,0-1.19.73-2.07,3-2.07h3.63v1.89A3.69,3.69,0,0,1,367.57,161.07Z" fill-rule="evenodd"/><rect x="377.05" y="145.87" width="1.56" height="16.32"/><path d="M62,190.7a2.58,2.58,0,0,1-1.72.6,1.85,1.85,0,0,1-2-2.12v-6.9h3.52V181H58.24v-2.53H56.68V181H54.61v1.32h2.07v7a3.07,3.07,0,0,0,3.39,3.37,3.73,3.73,0,0,0,2.44-.82Z" fill-rule="evenodd"/><path d="M66.84,183.22V181H65.35v11.57h1.56v-5.9c0-2.73,1.47-4.27,3.89-4.27.11,0,.24,0,.38,0v-1.52C69,180.87,67.57,181.68,66.84,183.22Z" fill-rule="evenodd"/><path d="M78,180.87a7.35,7.35,0,0,0-4.71,1.56l.7,1.17a5.9,5.9,0,0,1,3.85-1.37c2.16,0,3.28,1.08,3.28,3.06v.7H77.47c-3.32,0-4.47,1.5-4.47,3.28,0,2,1.61,3.37,4.23,3.37a4.35,4.35,0,0,0,4-1.92v1.81H82.7v-7.17c0-3-1.69-4.49-4.68-4.49Zm-.55,10.54c-1.85,0-2.93-.84-2.93-2.18,0-1.19.73-2.07,3-2.07h3.63v1.89A3.69,3.69,0,0,1,77.47,191.41Z" fill-rule="evenodd"/><path d="M92.91,180.87a5,5,0,0,0-4.4,2.29v-7H87v16.33h1.5v-2.29a5,5,0,0,0,4.46,2.4,5.89,5.89,0,0,0,0-11.77Zm-.11,10.38a4.51,4.51,0,1,1,4.31-4.51A4.24,4.24,0,0,1,92.8,191.25Z" fill-rule="evenodd"/><path d="M105.85,180.87a7.35,7.35,0,0,0-4.71,1.56l.7,1.17a5.9,5.9,0,0,1,3.85-1.37c2.16,0,3.28,1.08,3.28,3.06v.7H105.3c-3.32,0-4.47,1.5-4.47,3.28,0,2,1.61,3.37,4.23,3.37a4.35,4.35,0,0,0,4-1.92v1.81h1.49v-7.17c0-3-1.69-4.49-4.68-4.49Zm-.55,10.54c-1.85,0-2.93-.84-2.93-2.18,0-1.19.73-2.07,3-2.07H109v1.89A3.69,3.69,0,0,1,105.3,191.41Z" fill-rule="evenodd"/><path d="M115.68,178.43a1.13,1.13,0,0,0,1.15-1.15,1.15,1.15,0,0,0-2.29,0,1.13,1.13,0,0,0,1.14,1.13Zm-2.62,18.48a3.17,3.17,0,0,0,3.39-3.52V181h-1.56v12.43c0,1.43-.68,2.17-1.91,2.17a2.68,2.68,0,0,1-1.81-.59l-.55,1.19A3.84,3.84,0,0,0,113.06,196.91Z" fill-rule="evenodd"/><path d="M125.54,192.64a5.89,5.89,0,1,0-5.9-5.9,5.69,5.69,0,0,0,5.9,5.9Zm0-1.39a4.52,4.52,0,1,1,4.29-4.51A4.23,4.23,0,0,1,125.54,191.25Z" fill-rule="evenodd"/><path d="M141.86,183.22V181h-1.5v11.57h1.57v-5.9c0-2.73,1.47-4.27,3.89-4.27.11,0,.24,0,.37,0v-1.52C144.06,180.87,142.59,181.68,141.86,183.22Z" fill-rule="evenodd"/><path d="M159,186.74a5.51,5.51,0,0,0-5.61-5.87,5.57,5.57,0,0,0-5.66,5.87,6.12,6.12,0,0,0,10.54,4l-.88-1a4.53,4.53,0,0,1-3.54,1.52,4.27,4.27,0,0,1-4.55-4H159c0-.18,0-.36,0-.49Zm-5.61-4.53a4,4,0,0,1,4.11,3.85h-8.2A4,4,0,0,1,153.39,182.21Z" fill-rule="evenodd"/><path d="M165.91,180.87a7.35,7.35,0,0,0-4.71,1.56l.7,1.17a5.9,5.9,0,0,1,3.85-1.37c2.16,0,3.28,1.08,3.28,3.06v.7h-3.67c-3.33,0-4.47,1.5-4.47,3.28,0,2,1.61,3.37,4.23,3.37a4.35,4.35,0,0,0,4-1.92v1.81h1.49v-7.17c0-3-1.69-4.49-4.68-4.49Zm-.55,10.54c-1.85,0-2.93-.84-2.93-2.18,0-1.19.73-2.07,3-2.07H169v1.89A3.69,3.69,0,0,1,165.36,191.41Z" fill-rule="evenodd"/><rect x="174.84" y="176.2" width="1.56" height="16.32"/><path d="M181.55,178.43a1.12,1.12,0,0,0,1.14-1.15,1.11,1.11,0,0,0-1.14-1.08,1.12,1.12,0,1,0,0,2.23Zm-.79,14.1h1.56V181h-1.56Z" fill-rule="evenodd"/><polygon points="187.42 191.23 194.71 181.99 194.71 180.96 185.55 180.96 185.55 182.28 192.7 182.28 185.42 191.49 185.42 192.53 194.84 192.53 194.84 191.23 187.42 191.23" fill-rule="evenodd"/><path d="M202,180.87a7.32,7.32,0,0,0-4.7,1.56l.7,1.17a5.88,5.88,0,0,1,3.85-1.37c2.16,0,3.28,1.08,3.28,3.06v.7h-3.68c-3.32,0-4.46,1.5-4.46,3.28,0,2,1.6,3.37,4.22,3.37a4.33,4.33,0,0,0,4-1.92v1.81h1.5v-7.17c0-3-1.69-4.49-4.69-4.49Zm-.55,10.54c-1.84,0-2.92-.84-2.92-2.18,0-1.19.72-2.07,3-2.07h3.63v1.89A3.72,3.72,0,0,1,201.41,191.41Z" fill-rule="evenodd"/><path d="M219.94,176.2v7a5,5,0,0,0-4.4-2.29,5.89,5.89,0,0,0,0,11.77,5,5,0,0,0,4.46-2.4v2.29h1.5V176.2Zm-4.27,15.05a4.52,4.52,0,1,1,4.29-4.51A4.24,4.24,0,0,1,215.67,191.25Z" fill-rule="evenodd"/><path d="M230.59,192.64a5.89,5.89,0,1,0-5.9-5.9,5.7,5.7,0,0,0,5.9,5.9Zm0-1.39a4.52,4.52,0,1,1,4.29-4.51A4.24,4.24,0,0,1,230.59,191.25Z" fill-rule="evenodd"/><path d="M251.38,180.87a5,5,0,0,0-4.47,2.37V181h-1.5V196.8H247v-6.45a5,5,0,0,0,4.4,2.29,5.89,5.89,0,0,0,0-11.77Zm-.11,10.38a4.51,4.51,0,1,1,4.31-4.51A4.24,4.24,0,0,1,251.27,191.25Z" fill-rule="evenodd"/><path d="M265.06,192.64a5.89,5.89,0,1,0-5.9-5.9,5.69,5.69,0,0,0,5.9,5.9Zm0-1.39a4.52,4.52,0,1,1,4.29-4.51A4.24,4.24,0,0,1,265.06,191.25Z" fill-rule="evenodd"/><path d="M275.62,183.22V181h-1.5v11.57h1.57v-5.9c0-2.73,1.47-4.27,3.89-4.27.11,0,.24,0,.37,0v-1.52C277.82,180.87,276.35,181.68,275.62,183.22Z" fill-rule="evenodd"/><path d="M294.61,180.87a4.84,4.84,0,0,0-4.4,2.22V181h-1.5v11.57h1.56v-6.07c0-2.64,1.56-4.18,4.05-4.18,2.2,0,3.48,1.25,3.48,3.69v6.56h1.56v-6.71C299.36,182.5,297.42,180.87,294.61,180.87Z" fill-rule="evenodd"/><path d="M312.47,181V187c0,2.64-1.52,4.2-3.94,4.2-2.2,0-3.47-1.25-3.47-3.72V181h-1.57v6.71c0,3.32,1.94,5,4.89,5a4.63,4.63,0,0,0,4.16-2.22v2.11H314V181Z" fill-rule="evenodd"/><path d="M328.51,186.74a5.52,5.52,0,0,0-5.61-5.87,5.57,5.57,0,0,0-5.66,5.87,6.12,6.12,0,0,0,10.54,4l-.88-1a4.53,4.53,0,0,1-3.54,1.52,4.27,4.27,0,0,1-4.55-4h9.68c0-.18,0-.36,0-.49Zm-5.61-4.53a4,4,0,0,1,4.11,3.85h-8.2A4,4,0,0,1,322.9,182.21Z" fill-rule="evenodd"/><path d="M334.8,192.64c3,0,4.77-1.3,4.77-3.3,0-4.44-7.5-2.09-7.5-5.22,0-1.1.93-1.91,3-1.91a6,6,0,0,1,3.41,1l.68-1.25a7.86,7.86,0,0,0-4.09-1.08c-2.95,0-4.58,1.41-4.58,3.3,0,4.57,7.5,2.2,7.5,5.21,0,1.15-.9,1.89-3.1,1.89A7,7,0,0,1,330.8,190l-.71,1.23A7.78,7.78,0,0,0,334.8,192.64Z" fill-rule="evenodd"/><path d="M348,190.7a2.58,2.58,0,0,1-1.72.6,1.86,1.86,0,0,1-2-2.12v-6.9h3.52V181h-3.52v-2.53h-1.56V181h-2.07v1.32h2.07v7a3.07,3.07,0,0,0,3.39,3.37,3.73,3.73,0,0,0,2.44-.82Z" fill-rule="evenodd"/><path d="M352.88,183.22V181h-1.49v11.57H353v-5.9c0-2.73,1.47-4.27,3.89-4.27.11,0,.25,0,.38,0v-1.52C355.08,180.87,353.61,181.68,352.88,183.22Z" fill-rule="evenodd"/><path d="M364.65,192.64a5.89,5.89,0,1,0-5.89-5.9,5.7,5.7,0,0,0,5.89,5.9Zm0-1.39a4.52,4.52,0,1,1,4.29-4.51A4.24,4.24,0,0,1,364.65,191.25Z" fill-rule="evenodd"/><path d="M376.82,192.64c3,0,4.77-1.3,4.77-3.3,0-4.44-7.5-2.09-7.5-5.22,0-1.1.93-1.91,3-1.91a6,6,0,0,1,3.41,1l.68-1.25a7.86,7.86,0,0,0-4.09-1.08c-2.95,0-4.58,1.41-4.58,3.3,0,4.57,7.5,2.2,7.5,5.21,0,1.15-.9,1.89-3.1,1.89a7,7,0,0,1-4.11-1.29l-.71,1.23A7.78,7.78,0,0,0,376.82,192.64Z" fill-rule="evenodd"/><path d="M64.17,211.21a5,5,0,0,0-4.47,2.37v-2.29H58.21v15.84h1.56v-6.44a5.07,5.07,0,0,0,4.4,2.29,5.89,5.89,0,0,0,0-11.77Zm-.11,10.38a4.51,4.51,0,1,1,4.31-4.51A4.23,4.23,0,0,1,64.06,221.59Z" fill-rule="evenodd"/><path d="M74.62,213.56v-2.27h-1.5v11.58h1.56V217c0-2.73,1.48-4.27,3.9-4.27l.37,0v-1.51C76.82,211.21,75.34,212,74.62,213.56Z" fill-rule="evenodd"/><path d="M86.39,223a5.89,5.89,0,1,0-5.9-5.9,5.69,5.69,0,0,0,5.9,5.9Zm0-1.39a4.52,4.52,0,1,1,4.29-4.51A4.23,4.23,0,0,1,86.39,221.59Z" fill-rule="evenodd"/><path d="M99.28,207.75a2.68,2.68,0,0,1,1.72.57l.52-1.16a3.63,3.63,0,0,0-2.31-.73,3.19,3.19,0,0,0-3.49,3.43v1.43H93.65v1.32h2.07v10.26h1.56V212.61h3.52v-1.32H97.23v-1.36C97.23,208.5,97.94,207.75,99.28,207.75Z" fill-rule="evenodd"/><path d="M112.81,217.08a5.51,5.51,0,0,0-5.61-5.87,5.57,5.57,0,0,0-5.65,5.87,5.73,5.73,0,0,0,6.07,5.9,5.67,5.67,0,0,0,4.46-1.9l-.88-1a4.56,4.56,0,0,1-3.54,1.52,4.28,4.28,0,0,1-4.55-4h9.68c0-.17,0-.35,0-.48Zm-5.61-4.53a4,4,0,0,1,4.11,3.85h-8.2A4,4,0,0,1,107.2,212.55Z" fill-rule="evenodd"/><path d="M119.1,223c3,0,4.78-1.3,4.78-3.3,0-4.44-7.51-2.09-7.51-5.22,0-1.1.93-1.91,3-1.91a5.88,5.88,0,0,1,3.41,1l.68-1.26a7.85,7.85,0,0,0-4.09-1.07c-3,0-4.58,1.4-4.58,3.3,0,4.57,7.5,2.2,7.5,5.21,0,1.14-.9,1.89-3.1,1.89a6.94,6.94,0,0,1-4.11-1.3l-.71,1.24A7.78,7.78,0,0,0,119.1,223Z" fill-rule="evenodd"/><path d="M127.55,208.76a1.11,1.11,0,1,0-1.14-1.12,1.11,1.11,0,0,0,1.14,1.12Zm-.79,14.11h1.56V211.29h-1.56Z" fill-rule="evenodd"/><path d="M137.41,223a5.89,5.89,0,1,0-5.9-5.9,5.7,5.7,0,0,0,5.9,5.9Zm0-1.39a4.52,4.52,0,1,1,4.29-4.51A4.24,4.24,0,0,1,137.41,221.59Z" fill-rule="evenodd"/><path d="M152.37,211.21a4.84,4.84,0,0,0-4.4,2.22v-2.14h-1.5v11.58H148v-6.08c0-2.64,1.56-4.18,4.05-4.18,2.2,0,3.48,1.26,3.48,3.7v6.56h1.56v-6.71C157.12,212.83,155.18,211.21,152.37,211.21Z" fill-rule="evenodd"/><path d="M165.41,211.21a7.37,7.37,0,0,0-4.71,1.56l.71,1.16a5.9,5.9,0,0,1,3.85-1.36c2.15,0,3.28,1.08,3.28,3.06v.7h-3.68c-3.32,0-4.46,1.5-4.46,3.28,0,2,1.6,3.37,4.22,3.37a4.34,4.34,0,0,0,4-1.92v1.81h1.5v-7.18c0-3-1.7-4.48-4.69-4.48Zm-.55,10.53c-1.85,0-2.92-.83-2.92-2.17,0-1.19.72-2.07,3-2.07h3.63v1.89A3.71,3.71,0,0,1,164.86,221.74Z" fill-rule="evenodd"/><rect x="174.34" y="206.54" width="1.56" height="16.32"/><path d="M190.36,217.08a5.51,5.51,0,0,0-5.61-5.87,5.57,5.57,0,0,0-5.65,5.87,5.73,5.73,0,0,0,6.07,5.9,5.67,5.67,0,0,0,4.46-1.9l-.88-1a4.56,4.56,0,0,1-3.54,1.52,4.28,4.28,0,0,1-4.55-4h9.68c0-.17,0-.35,0-.48Zm-5.61-4.53a4,4,0,0,1,4.11,3.85h-8.2A4,4,0,0,1,184.75,212.55Z" fill-rule="evenodd"/><path d="M196.65,223c3,0,4.78-1.3,4.78-3.3,0-4.44-7.51-2.09-7.51-5.22,0-1.1.93-1.91,3-1.91a5.88,5.88,0,0,1,3.41,1l.68-1.26a7.85,7.85,0,0,0-4.09-1.07c-2.95,0-4.58,1.4-4.58,3.3,0,4.57,7.5,2.2,7.5,5.21,0,1.14-.9,1.89-3.1,1.89a6.94,6.94,0,0,1-4.11-1.3l-.71,1.24A7.78,7.78,0,0,0,196.65,223Z" fill-rule="evenodd"/><path d="M214.87,223a5.11,5.11,0,0,0,4.53-2.29l-1.17-.79a3.91,3.91,0,0,1-3.36,1.69,4.51,4.51,0,0,1,0-9,3.92,3.92,0,0,1,3.36,1.72l1.17-.8a5.05,5.05,0,0,0-4.53-2.28,5.89,5.89,0,1,0,0,11.77Z" fill-rule="evenodd"/><path d="M227,223a5.89,5.89,0,1,0-5.9-5.9A5.69,5.69,0,0,0,227,223Zm0-1.39a4.52,4.52,0,1,1,4.29-4.51A4.24,4.24,0,0,1,227,221.59Z" fill-rule="evenodd"/><path d="M242,211.21a4.86,4.86,0,0,0-4.4,2.22v-2.14h-1.5v11.58h1.57v-6.08c0-2.64,1.56-4.18,4-4.18,2.2,0,3.48,1.26,3.48,3.7v6.56h1.56v-6.71C246.7,212.83,244.77,211.21,242,211.21Z" fill-rule="evenodd"/><path d="M262.26,221a2.57,2.57,0,0,1-1.72.59,1.85,1.85,0,0,1-2-2.11v-6.91h3.52v-1.32h-3.52v-2.53H257v2.53h-2.07v1.32H257v7a3.07,3.07,0,0,0,3.38,3.37,3.74,3.74,0,0,0,2.45-.82Z" fill-rule="evenodd"/><path d="M274.51,211.29v6.08c0,2.64-1.52,4.2-3.94,4.2-2.2,0-3.47-1.26-3.47-3.72v-6.56h-1.57V218c0,3.33,1.94,5,4.89,5a4.61,4.61,0,0,0,4.16-2.23v2.12h1.49V211.29Z" fill-rule="evenodd"/><polygon points="294.4 211.29 290.02 221.15 285.69 211.29 284.06 211.29 289.18 222.87 290.79 222.87 295.94 211.29 294.4 211.29" fill-rule="evenodd"/><path d="M298.93,208.76a1.11,1.11,0,1,0-1.14-1.12,1.11,1.11,0,0,0,1.14,1.12Zm-.79,14.11h1.56V211.29h-1.56Z" fill-rule="evenodd"/><polygon points="312.24 211.29 307.86 221.15 303.53 211.29 301.9 211.29 307.03 222.87 308.63 222.87 313.78 211.29 312.24 211.29" fill-rule="evenodd"/><path d="M316.77,208.76a1.11,1.11,0,1,0-1.14-1.12,1.12,1.12,0,0,0,1.14,1.12ZM316,222.87h1.56V211.29H316Z" fill-rule="evenodd"/><path d="M332,217.08a5.51,5.51,0,0,0-5.61-5.87,5.57,5.57,0,0,0-5.66,5.87,5.74,5.74,0,0,0,6.07,5.9,5.67,5.67,0,0,0,4.47-1.9l-.88-1a4.56,4.56,0,0,1-3.54,1.52,4.29,4.29,0,0,1-4.56-4H332c0-.17,0-.35,0-.48Zm-5.61-4.53a4,4,0,0,1,4.11,3.85h-8.21A4,4,0,0,1,326.39,212.55Z" fill-rule="evenodd"/><path d="M341.08,211.21a4.86,4.86,0,0,0-4.4,2.22v-2.14h-1.49v11.58h1.56v-6.08c0-2.64,1.56-4.18,4.05-4.18,2.2,0,3.47,1.26,3.47,3.7v6.56h1.56v-6.71C345.83,212.83,343.9,211.21,341.08,211.21Z" fill-rule="evenodd"/><path d="M359.12,206.54v7a5.06,5.06,0,0,0-4.4-2.28,5.89,5.89,0,0,0,0,11.77,5,5,0,0,0,4.47-2.4v2.29h1.49V206.54Zm-4.27,15.05a4.52,4.52,0,1,1,4.29-4.51A4.24,4.24,0,0,1,354.85,221.59Z" fill-rule="evenodd"/><path d="M369.09,211.21a7.35,7.35,0,0,0-4.71,1.56l.7,1.16a5.94,5.94,0,0,1,3.85-1.36c2.16,0,3.28,1.08,3.28,3.06v.7h-3.67c-3.32,0-4.47,1.5-4.47,3.28,0,2,1.61,3.37,4.23,3.37a4.35,4.35,0,0,0,4-1.92v1.81h1.49v-7.18c0-3-1.69-4.48-4.68-4.48Zm-.55,10.53c-1.85,0-2.93-.83-2.93-2.17,0-1.19.73-2.07,3-2.07h3.63v1.89A3.69,3.69,0,0,1,368.54,221.74Z" fill-rule="evenodd"/><path d="M378.17,223a1.2,1.2,0,0,0,1.19-1.21,1.18,1.18,0,0,0-1.19-1.19,1.16,1.16,0,0,0-1.16,1.19A1.19,1.19,0,0,0,378.17,223Z" fill-rule="evenodd"/><path d="M48.6,260.33h1.72l-7-15.4H41.67l-7,15.4h1.7l1.85-4.11h8.58l1.84,4.11Zm-9.83-5.43,3.7-8.28,3.69,8.28Z" fill-rule="evenodd"/><path d="M58.5,248.67A5,5,0,0,0,54,251.05v-2.29h-1.5V264.6H54.1v-6.45a5.06,5.06,0,0,0,4.4,2.29,5.89,5.89,0,0,0,0-11.77Zm-.11,10.39a4.51,4.51,0,1,1,4.32-4.52A4.24,4.24,0,0,1,58.39,259.06Z" fill-rule="evenodd"/><path d="M71.44,248.67a7.35,7.35,0,0,0-4.71,1.56l.71,1.17A5.85,5.85,0,0,1,71.29,250c2.15,0,3.27,1.07,3.27,3.05v.71H70.89c-3.32,0-4.47,1.49-4.47,3.28,0,2,1.61,3.36,4.23,3.36a4.34,4.34,0,0,0,4-1.91v1.8h1.5v-7.17c0-3-1.7-4.49-4.69-4.49Zm-.55,10.54C69,259.21,68,258.37,68,257c0-1.19.73-2.07,3-2.07h3.63v1.89A3.69,3.69,0,0,1,70.89,259.21Z" fill-rule="evenodd"/><path d="M81.87,251v-2.27h-1.5v11.57h1.56v-5.9c0-2.72,1.48-4.26,3.9-4.26l.37,0v-1.52C84.07,248.67,82.59,249.49,81.87,251Z" fill-rule="evenodd"/><path d="M89.81,246.23A1.12,1.12,0,0,0,91,245.09,1.1,1.1,0,0,0,89.81,244a1.11,1.11,0,1,0,0,2.22ZM89,260.33h1.56V248.76H89Z" fill-rule="evenodd"/><path d="M99.73,260.44a5.08,5.08,0,0,0,4.53-2.29l-1.16-.79a3.92,3.92,0,0,1-3.37,1.7,4.51,4.51,0,0,1,0-9,3.93,3.93,0,0,1,3.37,1.71l1.16-.79a5,5,0,0,0-4.53-2.29,5.89,5.89,0,1,0,0,11.77Z" fill-rule="evenodd"/><path d="M108.11,246.23a1.13,1.13,0,0,0,1.15-1.14,1.11,1.11,0,0,0-1.15-1.08,1.11,1.11,0,1,0,0,2.22Zm-.79,14.1h1.56V248.76h-1.56Z" fill-rule="evenodd"/><path d="M116.52,247h1.54l3.56-2.73h-2.09l-3,2.73ZM118,260.44a5.89,5.89,0,1,0-5.9-5.9,5.69,5.69,0,0,0,5.9,5.9Zm0-1.38a4.52,4.52,0,1,1,4.29-4.52A4.24,4.24,0,0,1,118,259.06Z" fill-rule="evenodd"/><path d="M132.93,248.67a4.89,4.89,0,0,0-4.4,2.22v-2.13H127v11.57h1.57v-6.07c0-2.64,1.56-4.18,4-4.18,2.2,0,3.48,1.25,3.48,3.7v6.55h1.56v-6.71C137.68,250.3,135.75,248.67,132.93,248.67Z" fill-rule="evenodd"/><path d="M157.79,254.54a5.63,5.63,0,1,0-11.26,0,6.11,6.11,0,0,0,10.53,4l-.88-1a4.56,4.56,0,0,1-3.54,1.52,4.28,4.28,0,0,1-4.55-4h9.68c0-.18,0-.35,0-.49ZM152.18,250a4,4,0,0,1,4.11,3.85h-8.2A4,4,0,0,1,152.18,250Z" fill-rule="evenodd"/><path d="M166.88,248.67a4.86,4.86,0,0,0-4.4,2.22v-2.13H161v11.57h1.56v-6.07c0-2.64,1.56-4.18,4.05-4.18,2.2,0,3.48,1.25,3.48,3.7v6.55h1.56v-6.71C171.63,250.3,169.69,248.67,166.88,248.67Z" fill-rule="evenodd"/><path d="M187.6,248.67a5,5,0,0,0-4.4,2.29v-7h-1.56v16.32h1.49V258a5,5,0,0,0,4.47,2.4,5.89,5.89,0,0,0,0-11.77Zm-.11,10.39a4.51,4.51,0,1,1,4.31-4.52A4.24,4.24,0,0,1,187.49,259.06Z" fill-rule="evenodd"/><path d="M205.4,244.25h-2.09l-3,2.73h1.54l3.57-2.73Zm0,4.51v6.07c0,2.64-1.52,4.2-3.94,4.2-2.2,0-3.47-1.25-3.47-3.71v-6.56h-1.57v6.71c0,3.32,1.94,5,4.89,5a4.61,4.61,0,0,0,4.16-2.22v2.11H207V248.76Z" fill-rule="evenodd"/><path d="M214.46,260.44c3,0,4.78-1.3,4.78-3.3,0-4.44-7.51-2.09-7.51-5.21,0-1.1.93-1.92,3-1.92a6,6,0,0,1,3.41,1l.68-1.25a7.86,7.86,0,0,0-4.09-1.08c-2.95,0-4.58,1.41-4.58,3.3,0,4.58,7.5,2.2,7.5,5.22,0,1.14-.9,1.89-3.1,1.89a7,7,0,0,1-4.11-1.3l-.71,1.23A7.72,7.72,0,0,0,214.46,260.44Z" fill-rule="evenodd"/><path d="M231.18,248.76v2.29a5,5,0,0,0-4.46-2.38,5.89,5.89,0,0,0,0,11.77,5.06,5.06,0,0,0,4.4-2.29v6.45h1.56V248.76Zm-4.33,10.3a4.52,4.52,0,1,1,4.29-4.52A4.24,4.24,0,0,1,226.85,259.06Z" fill-rule="evenodd"/><path d="M245.9,248.76v6.07c0,2.64-1.52,4.2-3.94,4.2-2.2,0-3.47-1.25-3.47-3.71v-6.56h-1.57v6.71c0,3.32,1.94,5,4.89,5a4.61,4.61,0,0,0,4.16-2.22v2.11h1.49V248.76Z" fill-rule="evenodd"/><path d="M261.94,254.54a5.52,5.52,0,0,0-5.61-5.87,5.57,5.57,0,0,0-5.66,5.87,6.12,6.12,0,0,0,10.54,4l-.88-1a4.56,4.56,0,0,1-3.54,1.52,4.28,4.28,0,0,1-4.55-4h9.68c0-.18,0-.35,0-.49ZM256.33,250a4,4,0,0,1,4.11,3.85h-8.2A4,4,0,0,1,256.33,250Z" fill-rule="evenodd"/><path d="M274.13,244v7a5.06,5.06,0,0,0-4.4-2.29,5.89,5.89,0,0,0,0,11.77,5,5,0,0,0,4.46-2.4v2.29h1.5V244Zm-4.27,15.05a4.52,4.52,0,1,1,4.29-4.52A4.24,4.24,0,0,1,269.86,259.06Z" fill-rule="evenodd"/><path d="M284.09,248.67a7.35,7.35,0,0,0-4.71,1.56l.71,1.17a5.85,5.85,0,0,1,3.85-1.36c2.15,0,3.28,1.07,3.28,3.05v.71h-3.68c-3.32,0-4.46,1.49-4.46,3.28,0,2,1.6,3.36,4.22,3.36a4.34,4.34,0,0,0,4-1.91v1.8h1.5v-7.17c0-3-1.7-4.49-4.69-4.49Zm-.55,10.54c-1.85,0-2.93-.84-2.93-2.18,0-1.19.73-2.07,3-2.07h3.63v1.89A3.72,3.72,0,0,1,283.54,259.21Z" fill-rule="evenodd"/><path d="M296.12,260.44c3,0,4.78-1.3,4.78-3.3,0-4.44-7.5-2.09-7.5-5.21,0-1.1.92-1.92,3-1.92a6,6,0,0,1,3.41,1l.68-1.25a7.83,7.83,0,0,0-4.09-1.08c-3,0-4.58,1.41-4.58,3.3,0,4.58,7.51,2.2,7.51,5.22,0,1.14-.91,1.89-3.11,1.89a7,7,0,0,1-4.11-1.3l-.7,1.23A7.66,7.66,0,0,0,296.12,260.44Z" fill-rule="evenodd"/><path d="M304,258a1.16,1.16,0,0,0-1.17,1.19,1.11,1.11,0,0,0,.79,1.12l-.75,3.19h1.06l.92-3a3.61,3.61,0,0,0,.31-1.28A1.15,1.15,0,0,0,304,258Z" fill-rule="evenodd"/><path d="M318.26,248.67a7.35,7.35,0,0,0-4.71,1.56l.7,1.17A5.89,5.89,0,0,1,318.1,250c2.16,0,3.28,1.07,3.28,3.05v.71h-3.67c-3.33,0-4.47,1.49-4.47,3.28,0,2,1.61,3.36,4.23,3.36a4.35,4.35,0,0,0,4-1.91v1.8h1.49v-7.17c0-3-1.69-4.49-4.68-4.49Zm-.55,10.54c-1.85,0-2.93-.84-2.93-2.18,0-1.19.73-2.07,3-2.07h3.63v1.89A3.69,3.69,0,0,1,317.71,259.21Z" fill-rule="evenodd"/><path d="M333.15,248.67a5.06,5.06,0,0,0-4.47,2.38v-2.29h-1.49V264.6h1.56v-6.45a5,5,0,0,0,4.4,2.29,5.89,5.89,0,0,0,0-11.77ZM333,259.06a4.51,4.51,0,1,1,4.31-4.52A4.24,4.24,0,0,1,333,259.06Z" fill-rule="evenodd"/><path d="M352.2,254.54a5.51,5.51,0,0,0-5.61-5.87,5.57,5.57,0,0,0-5.65,5.87,6.12,6.12,0,0,0,10.54,4l-.88-1a4.58,4.58,0,0,1-3.55,1.52,4.29,4.29,0,0,1-4.55-4h9.68c0-.18,0-.35,0-.49ZM346.59,250a4,4,0,0,1,4.12,3.85H342.5A4,4,0,0,1,346.59,250Z" fill-rule="evenodd"/><path d="M356.89,251v-2.27h-1.5v11.57H357v-5.9c0-2.72,1.48-4.26,3.9-4.26l.37,0v-1.52C359.09,248.67,357.61,249.49,356.89,251Z" fill-rule="evenodd"/><path d="M370.09,258.5a2.58,2.58,0,0,1-1.72.6,1.85,1.85,0,0,1-2-2.11v-6.91h3.52v-1.32h-3.52v-2.53h-1.56v2.53h-2.07v1.32h2.07v7a3.06,3.06,0,0,0,3.39,3.36,3.72,3.72,0,0,0,2.44-.81Z" fill-rule="evenodd"/><path d="M382.34,248.76v6.07c0,2.64-1.52,4.2-3.94,4.2-2.2,0-3.47-1.25-3.47-3.71v-6.56h-1.56v6.71c0,3.32,1.93,5,4.88,5a4.61,4.61,0,0,0,4.16-2.22v2.11h1.49V248.76Z" fill-rule="evenodd"/><path d="M389.78,251v-2.27h-1.5v11.57h1.56v-5.9c0-2.72,1.48-4.26,3.9-4.26l.37,0v-1.52C392,248.67,390.5,249.49,389.78,251Z" fill-rule="evenodd"/><path d="M401,248.67a7.32,7.32,0,0,0-4.7,1.56l.7,1.17A5.87,5.87,0,0,1,400.8,250c2.16,0,3.28,1.07,3.28,3.05v.71H400.4c-3.32,0-4.46,1.49-4.46,3.28,0,2,1.6,3.36,4.22,3.36a4.32,4.32,0,0,0,4-1.91v1.8h1.5v-7.17c0-3-1.69-4.49-4.69-4.49Zm-.55,10.54c-1.84,0-2.92-.84-2.92-2.18,0-1.19.72-2.07,3-2.07h3.63v1.89A3.72,3.72,0,0,1,400.4,259.21Z" fill-rule="evenodd"/><path d="M79.7,274.35v6.95A5,5,0,0,0,75.3,279a5.89,5.89,0,0,0,0,11.77,5,5,0,0,0,4.47-2.4v2.29h1.49V274.35Zm-4.27,15a4.52,4.52,0,1,1,4.29-4.51A4.24,4.24,0,0,1,75.43,289.39Z" fill-rule="evenodd"/><path d="M95.72,284.88A5.52,5.52,0,0,0,90.11,279a5.57,5.57,0,0,0-5.66,5.87,6.12,6.12,0,0,0,10.54,4l-.88-1a4.53,4.53,0,0,1-3.54,1.52,4.29,4.29,0,0,1-4.56-4h9.68c0-.18,0-.35,0-.49Zm-5.61-4.53a4,4,0,0,1,4.11,3.85H86A4,4,0,0,1,90.11,280.35Z" fill-rule="evenodd"/><path d="M104.93,277.67v1.43h-2.06v1.32h2.06v10.25h1.57V280.42H110V279.1h-3.57v-1.37c0-1.43.71-2.17,2-2.17a2.6,2.6,0,0,1,1.71.57l.53-1.17a3.68,3.68,0,0,0-2.31-.72,3.19,3.19,0,0,0-3.5,3.43Zm9.75-3.32a1.11,1.11,0,1,0,1.14,1.07,1.1,1.1,0,0,0-1.14-1.07Zm-.79,16.32h1.56V279.1h-1.56Z" fill-rule="evenodd"/><path d="M124.6,290.78a5.08,5.08,0,0,0,4.53-2.29L128,287.7a3.91,3.91,0,0,1-3.37,1.69,4.51,4.51,0,0,1,0-9,3.93,3.93,0,0,1,3.37,1.72l1.16-.79A5,5,0,0,0,124.6,279a5.89,5.89,0,1,0,0,11.77Z" fill-rule="evenodd"/><path d="M137.91,279a4.89,4.89,0,0,0-4.33,2.11v-6.77H132v16.32h1.56V284.6c0-2.64,1.56-4.18,4-4.18,2.2,0,3.47,1.25,3.47,3.69v6.56h1.56V284C142.66,280.64,140.73,279,137.91,279Z" fill-rule="evenodd"/><path d="M151,279a7.35,7.35,0,0,0-4.71,1.56l.7,1.17a5.9,5.9,0,0,1,3.85-1.37c2.16,0,3.28,1.08,3.28,3.06v.71h-3.67c-3.32,0-4.47,1.49-4.47,3.27,0,2,1.61,3.37,4.23,3.37a4.37,4.37,0,0,0,4-1.91v1.8h1.49V283.5c0-3-1.69-4.49-4.68-4.49Zm-.55,10.54c-1.85,0-2.93-.84-2.93-2.18s.73-2.07,3-2.07h3.63v1.89A3.69,3.69,0,0,1,150.41,289.55Z" fill-rule="evenodd"/><path d="M160.07,288.38a1.16,1.16,0,0,0-1.17,1.19,1.11,1.11,0,0,0,.79,1.12l-.75,3.19H160l.92-3a3.66,3.66,0,0,0,.31-1.28A1.15,1.15,0,0,0,160.07,288.38Z" fill-rule="evenodd"/><polygon points="178.5 279.1 174.12 288.95 169.79 279.1 168.16 279.1 173.29 290.67 174.9 290.67 180.04 279.1 178.5 279.1" fill-rule="evenodd"/><path d="M183,276.57a1.13,1.13,0,0,0,1.15-1.15,1.11,1.11,0,0,0-1.15-1.07,1.11,1.11,0,1,0,0,2.22Zm-.79,14.1h1.56V279.1h-1.56Z" fill-rule="evenodd"/><path d="M191.26,290.78c3,0,4.78-1.3,4.78-3.3,0-4.44-7.51-2.09-7.51-5.21,0-1.1.93-1.92,3-1.92a6,6,0,0,1,3.41,1l.68-1.25a7.86,7.86,0,0,0-4.09-1.08c-3,0-4.58,1.41-4.58,3.3,0,4.58,7.5,2.2,7.5,5.21,0,1.15-.9,1.9-3.1,1.9a7,7,0,0,1-4.11-1.3l-.71,1.23A7.78,7.78,0,0,0,191.26,290.78Z" fill-rule="evenodd"/><path d="M199.71,276.57a1.12,1.12,0,0,0,1.14-1.15,1.1,1.1,0,0,0-1.14-1.07,1.11,1.11,0,1,0,0,2.22Zm-.79,14.1h1.56V279.1h-1.56Z" fill-rule="evenodd"/><path d="M210.38,288.84a2.58,2.58,0,0,1-1.72.6,1.86,1.86,0,0,1-2-2.11v-6.91h3.52V279.1h-3.52v-2.53H205.1v2.53H203v1.32h2.07v7a3.07,3.07,0,0,0,3.39,3.37,3.68,3.68,0,0,0,2.44-.82Z" fill-rule="evenodd"/><path d="M217.82,279a7.33,7.33,0,0,0-4.71,1.56l.7,1.17a5.9,5.9,0,0,1,3.85-1.37c2.16,0,3.28,1.08,3.28,3.06v.71h-3.67c-3.33,0-4.47,1.49-4.47,3.27,0,2,1.61,3.37,4.22,3.37a4.37,4.37,0,0,0,4-1.91v1.8h1.49V283.5c0-3-1.69-4.49-4.68-4.49Zm-.55,10.54c-1.85,0-2.93-.84-2.93-2.18s.73-2.07,3-2.07h3.63v1.89A3.7,3.7,0,0,1,217.27,289.55Z" fill-rule="evenodd"/><path d="M229.85,290.78c3,0,4.77-1.3,4.77-3.3,0-4.44-7.5-2.09-7.5-5.21,0-1.1.93-1.92,3-1.92a6,6,0,0,1,3.41,1l.68-1.25a7.86,7.86,0,0,0-4.09-1.08c-2.95,0-4.58,1.41-4.58,3.3,0,4.58,7.5,2.2,7.5,5.21,0,1.15-.9,1.9-3.1,1.9a7,7,0,0,1-4.11-1.3l-.71,1.23A7.78,7.78,0,0,0,229.85,290.78Z" fill-rule="evenodd"/><path d="M244.77,281.36V279.1h-1.5v11.57h1.56v-5.9c0-2.73,1.48-4.26,3.9-4.26l.37,0V279C247,279,245.49,279.82,244.77,281.36Z" fill-rule="evenodd"/><path d="M261.9,284.88a5.51,5.51,0,0,0-5.61-5.87,5.57,5.57,0,0,0-5.65,5.87,6.12,6.12,0,0,0,10.54,4l-.88-1a4.54,4.54,0,0,1-3.54,1.52,4.29,4.29,0,0,1-4.56-4h9.68c0-.18,0-.35,0-.49Zm-5.61-4.53a4,4,0,0,1,4.12,3.85H252.2A4,4,0,0,1,256.29,280.35Z" fill-rule="evenodd"/><path d="M268.81,279a7.37,7.37,0,0,0-4.71,1.56l.71,1.17a5.86,5.86,0,0,1,3.85-1.37c2.15,0,3.28,1.08,3.28,3.06v.71h-3.68c-3.32,0-4.46,1.49-4.46,3.27,0,2,1.6,3.37,4.22,3.37a4.36,4.36,0,0,0,4-1.91v1.8h1.5V283.5c0-3-1.7-4.49-4.69-4.49Zm-.55,10.54c-1.85,0-2.92-.84-2.92-2.18s.72-2.07,3-2.07h3.63v1.89A3.72,3.72,0,0,1,268.26,289.55Z" fill-rule="evenodd"/><rect x="277.74" y="274.35" width="1.56" height="16.32"/><path d="M284.45,276.57a1.13,1.13,0,0,0,1.15-1.15,1.11,1.11,0,0,0-1.15-1.07,1.11,1.11,0,1,0,0,2.22Zm-.79,14.1h1.56V279.1h-1.56Z" fill-rule="evenodd"/><polygon points="290.33 289.37 297.61 280.13 297.61 279.1 288.46 279.1 288.46 280.42 295.61 280.42 288.33 289.63 288.33 290.67 297.74 290.67 297.74 289.37 290.33 289.37" fill-rule="evenodd"/><path d="M304.87,279a7.35,7.35,0,0,0-4.71,1.56l.71,1.17a5.86,5.86,0,0,1,3.85-1.37c2.15,0,3.27,1.08,3.27,3.06v.71h-3.67c-3.32,0-4.47,1.49-4.47,3.27,0,2,1.61,3.37,4.23,3.37a4.36,4.36,0,0,0,4-1.91v1.8h1.5V283.5c0-3-1.7-4.49-4.69-4.49Zm-.55,10.54c-1.85,0-2.93-.84-2.93-2.18s.73-2.07,3-2.07H308v1.89A3.69,3.69,0,0,1,304.32,289.55Z" fill-rule="evenodd"/><path d="M322.84,274.35v6.95a5,5,0,0,0-4.4-2.29,5.89,5.89,0,0,0,0,11.77,5,5,0,0,0,4.47-2.4v2.29h1.5V274.35Zm-4.26,15a4.52,4.52,0,1,1,4.29-4.51A4.24,4.24,0,0,1,318.58,289.39Z" fill-rule="evenodd"/><path d="M332.81,279a7.35,7.35,0,0,0-4.71,1.56l.71,1.17a5.86,5.86,0,0,1,3.85-1.37c2.15,0,3.27,1.08,3.27,3.06v.71h-3.67c-3.32,0-4.47,1.49-4.47,3.27,0,2,1.61,3.37,4.23,3.37a4.36,4.36,0,0,0,4-1.91v1.8h1.5V283.5c0-3-1.7-4.49-4.69-4.49Zm-.55,10.54c-1.85,0-2.93-.84-2.93-2.18s.73-2.07,3-2.07h3.63v1.89A3.69,3.69,0,0,1,332.26,289.55Z" fill-rule="evenodd"/><path d="M344.84,290.78c3,0,4.78-1.3,4.78-3.3,0-4.44-7.5-2.09-7.5-5.21,0-1.1.92-1.92,3-1.92a6,6,0,0,1,3.41,1l.68-1.25a7.83,7.83,0,0,0-4.09-1.08c-2.95,0-4.58,1.41-4.58,3.3,0,4.58,7.51,2.2,7.51,5.21,0,1.15-.91,1.9-3.11,1.9a7,7,0,0,1-4.11-1.3l-.7,1.23A7.73,7.73,0,0,0,344.84,290.78Z" fill-rule="evenodd"/><path d="M366.45,279.1l-4.36,9.83-4.35-9.83h-1.63l5.17,11.55-.51,1.12c-.66,1.45-1.36,1.93-2.4,1.93a2.89,2.89,0,0,1-2.11-.87l-.72,1.16a3.91,3.91,0,0,0,2.81,1.06c1.65,0,2.88-.73,3.85-3L368,279.1Z" fill-rule="evenodd"/><path d="M72.74,321.12a5.08,5.08,0,0,0,4.53-2.29L76.1,318a3.91,3.91,0,0,1-3.36,1.69,4.51,4.51,0,0,1,0-9,3.92,3.92,0,0,1,3.36,1.72l1.17-.79a5,5,0,0,0-4.53-2.29,5.89,5.89,0,1,0,0,11.77Z" fill-rule="evenodd"/><path d="M84.86,321.12a5.89,5.89,0,1,0-5.9-5.9,5.69,5.69,0,0,0,5.9,5.9Zm0-1.39a4.52,4.52,0,1,1,4.29-4.51A4.24,4.24,0,0,1,84.86,319.73Z" fill-rule="evenodd"/><path d="M108.36,309.35a5,5,0,0,0-4.58,2.44,4.15,4.15,0,0,0-4.11-2.44,4.67,4.67,0,0,0-4.25,2.2v-2.11h-1.5V321h1.57v-6.07c0-2.64,1.51-4.18,3.87-4.18,2.11,0,3.34,1.25,3.34,3.69V321h1.56v-6.07c0-2.64,1.5-4.18,3.88-4.18,2.09,0,3.32,1.25,3.32,3.69V321H113V314.3C113,311,111.17,309.35,108.36,309.35Z" fill-rule="evenodd"/><path d="M127.41,315.22a5.52,5.52,0,0,0-5.61-5.87,5.57,5.57,0,0,0-5.66,5.87,6.12,6.12,0,0,0,10.54,4l-.88-1a4.53,4.53,0,0,1-3.54,1.52,4.27,4.27,0,0,1-4.55-4h9.68c0-.18,0-.36,0-.49Zm-5.61-4.53a4,4,0,0,1,4.11,3.85h-8.2A4,4,0,0,1,121.8,310.69Z" fill-rule="evenodd"/><path d="M136.49,309.35a4.86,4.86,0,0,0-4.4,2.22v-2.13H130.6V321h1.56v-6.07c0-2.64,1.56-4.18,4.05-4.18,2.2,0,3.47,1.25,3.47,3.69V321h1.57V314.3C141.25,311,139.31,309.35,136.49,309.35Z" fill-rule="evenodd"/><path d="M151,319.18a2.58,2.58,0,0,1-1.72.6,1.85,1.85,0,0,1-2-2.12v-6.9h3.52v-1.32h-3.52v-2.53h-1.56v2.53h-2.07v1.32h2.07v7a3.06,3.06,0,0,0,3.38,3.37,3.74,3.74,0,0,0,2.45-.82Z" fill-rule="evenodd"/><path d="M158.47,309.35a7.37,7.37,0,0,0-4.71,1.56l.71,1.17a5.86,5.86,0,0,1,3.85-1.37c2.15,0,3.28,1.08,3.28,3.06v.7h-3.68c-3.32,0-4.46,1.5-4.46,3.28,0,2,1.6,3.37,4.22,3.37a4.34,4.34,0,0,0,4-1.92V321h1.5v-7.17c0-3-1.7-4.49-4.69-4.49Zm-.55,10.54c-1.85,0-2.92-.84-2.92-2.18,0-1.19.72-2.07,3-2.07h3.63v1.89A3.72,3.72,0,0,1,157.92,319.89Z" fill-rule="evenodd"/><path d="M168.9,311.7v-2.26h-1.5V321H169v-5.9c0-2.73,1.47-4.27,3.89-4.27.11,0,.24,0,.37,0v-1.52C171.1,309.35,169.62,310.16,168.9,311.7Z" fill-rule="evenodd"/><path d="M176.84,306.91a1.12,1.12,0,0,0,1.14-1.15,1.11,1.11,0,0,0-1.14-1.08,1.12,1.12,0,1,0,0,2.23Zm-.79,14.1h1.56V309.44h-1.56Z" fill-rule="evenodd"/><path d="M186.7,321.12a5.89,5.89,0,1,0-5.9-5.9,5.7,5.7,0,0,0,5.9,5.9Zm0-1.39a4.52,4.52,0,1,1,4.29-4.51A4.24,4.24,0,0,1,186.7,319.73Z" fill-rule="evenodd"/><path d="M198.86,321.12c3,0,4.78-1.3,4.78-3.3,0-4.44-7.51-2.09-7.51-5.22,0-1.1.93-1.91,3-1.91a6,6,0,0,1,3.41,1l.68-1.25a7.86,7.86,0,0,0-4.09-1.08c-3,0-4.58,1.41-4.58,3.3,0,4.57,7.5,2.2,7.5,5.21,0,1.15-.9,1.89-3.1,1.89a7,7,0,0,1-4.11-1.29l-.71,1.23A7.78,7.78,0,0,0,198.86,321.12Z" fill-rule="evenodd"/><path d="M221.28,304.68v7a5,5,0,0,0-4.4-2.29,5.89,5.89,0,0,0,0,11.77,5,5,0,0,0,4.47-2.4V321h1.49V304.68ZM217,319.73a4.52,4.52,0,1,1,4.29-4.51A4.24,4.24,0,0,1,217,319.73Z" fill-rule="evenodd"/><path d="M237.3,315.22a5.52,5.52,0,0,0-5.61-5.87,5.57,5.57,0,0,0-5.66,5.87,6.12,6.12,0,0,0,10.54,4l-.88-1a4.53,4.53,0,0,1-3.54,1.52,4.29,4.29,0,0,1-4.56-4h9.68c0-.18,0-.36,0-.49Zm-5.61-4.53a4,4,0,0,1,4.11,3.85h-8.21A4,4,0,0,1,231.69,310.69Z" fill-rule="evenodd"/><path d="M252.21,309.35a5,5,0,0,0-4.46,2.37v-2.28h-1.5v15.84h1.56v-6.45a5,5,0,0,0,4.4,2.29,5.89,5.89,0,0,0,0-11.77Zm-.11,10.38a4.51,4.51,0,1,1,4.31-4.51A4.24,4.24,0,0,1,252.1,319.73Z" fill-rule="evenodd"/><path d="M265.9,321.12a5.89,5.89,0,1,0-5.9-5.9,5.7,5.7,0,0,0,5.9,5.9Zm0-1.39a4.52,4.52,0,1,1,4.29-4.51A4.24,4.24,0,0,1,265.9,319.73Z" fill-rule="evenodd"/><path d="M280.5,319.18a2.55,2.55,0,0,1-1.71.6,1.85,1.85,0,0,1-2-2.12v-6.9h3.52v-1.32h-3.52v-2.53h-1.57v2.53h-2.06v1.32h2.06v7a3.07,3.07,0,0,0,3.39,3.37,3.71,3.71,0,0,0,2.44-.82Z" fill-rule="evenodd"/><path d="M293.57,315.22a5.51,5.51,0,0,0-5.61-5.87,5.57,5.57,0,0,0-5.65,5.87,6.12,6.12,0,0,0,10.54,4l-.88-1a4.55,4.55,0,0,1-3.55,1.52,4.28,4.28,0,0,1-4.55-4h9.68c0-.18,0-.36,0-.49ZM288,310.69a4,4,0,0,1,4.12,3.85h-8.21A4,4,0,0,1,288,310.69Z" fill-rule="evenodd"/><path d="M302.66,309.35a4.85,4.85,0,0,0-4.4,2.22v-2.13h-1.5V321h1.56v-6.07c0-2.64,1.57-4.18,4.05-4.18,2.2,0,3.48,1.25,3.48,3.69V321h1.56V314.3C307.41,311,305.47,309.35,302.66,309.35Z" fill-rule="evenodd"/><path d="M316.5,321.12a5.11,5.11,0,0,0,4.53-2.29l-1.17-.79a3.91,3.91,0,0,1-3.36,1.69,4.51,4.51,0,0,1,0-9,3.92,3.92,0,0,1,3.36,1.72l1.17-.79a5.06,5.06,0,0,0-4.53-2.29,5.89,5.89,0,1,0,0,11.77Z" fill-rule="evenodd"/><path d="M324.88,306.91a1.12,1.12,0,0,0,1.14-1.15,1.11,1.11,0,0,0-1.14-1.08,1.12,1.12,0,1,0,0,2.23Zm-.79,14.1h1.56V309.44h-1.56Z" fill-rule="evenodd"/><path d="M334.05,309.35a7.37,7.37,0,0,0-4.71,1.56l.71,1.17a5.86,5.86,0,0,1,3.85-1.37c2.15,0,3.28,1.08,3.28,3.06v.7H333.5c-3.32,0-4.46,1.5-4.46,3.28,0,2,1.6,3.37,4.22,3.37a4.34,4.34,0,0,0,4-1.92V321h1.5v-7.17c0-3-1.7-4.49-4.69-4.49Zm-.55,10.54c-1.85,0-2.92-.84-2.92-2.18,0-1.19.72-2.07,3-2.07h3.63v1.89A3.72,3.72,0,0,1,333.5,319.89Z" fill-rule="evenodd"/><rect x="342.98" y="304.68" width="1.56" height="16.32"/><path d="M359,315.22a5.63,5.63,0,1,0-11.26,0,6.11,6.11,0,0,0,10.53,4l-.88-1a4.53,4.53,0,0,1-3.54,1.52,4.27,4.27,0,0,1-4.55-4H359c0-.18,0-.36,0-.49Zm-5.61-4.53a4,4,0,0,1,4.11,3.85h-8.2A4,4,0,0,1,353.39,310.69Z" fill-rule="evenodd"/><path d="M365.29,321.12c3,0,4.78-1.3,4.78-3.3,0-4.44-7.51-2.09-7.51-5.22,0-1.1.93-1.91,3-1.91a6,6,0,0,1,3.41,1l.68-1.25a7.86,7.86,0,0,0-4.09-1.08c-2.95,0-4.58,1.41-4.58,3.3,0,4.57,7.5,2.2,7.5,5.21,0,1.15-.9,1.89-3.1,1.89a7,7,0,0,1-4.11-1.29l-.71,1.23A7.78,7.78,0,0,0,365.29,321.12Z" fill-rule="evenodd"/><path d="M180.51,351.46a5.13,5.13,0,0,0,4.54-2.29l-1.17-.79a3.92,3.92,0,0,1-3.37,1.69,4.51,4.51,0,0,1,0-9,3.92,3.92,0,0,1,3.37,1.72l1.17-.8a5.08,5.08,0,0,0-4.54-2.28,5.89,5.89,0,1,0,0,11.77Z" fill-rule="evenodd"/><rect x="187.93" y="335.02" width="1.56" height="16.32"/><path d="M194.64,337.24a1.11,1.11,0,1,0,0-2.22,1.11,1.11,0,1,0,0,2.22Zm-.79,14.11h1.56V339.77h-1.56Z" fill-rule="evenodd"/><path d="M209.86,345.56a5.51,5.51,0,0,0-5.61-5.87,5.57,5.57,0,0,0-5.65,5.87,6.11,6.11,0,0,0,10.54,4l-.88-1a4.58,4.58,0,0,1-3.55,1.52,4.29,4.29,0,0,1-4.55-4h9.68c0-.17,0-.35,0-.48ZM204.25,341a4,4,0,0,1,4.12,3.85h-8.21A4,4,0,0,1,204.25,341Z" fill-rule="evenodd"/><path d="M219,339.69a4.85,4.85,0,0,0-4.4,2.22v-2.14h-1.5v11.58h1.56v-6.08c0-2.64,1.57-4.18,4-4.18,2.2,0,3.48,1.26,3.48,3.7v6.56h1.56v-6.71C223.7,341.31,221.76,339.69,219,339.69Z" fill-rule="evenodd"/><path d="M233.49,349.52a2.57,2.57,0,0,1-1.72.59,1.85,1.85,0,0,1-2-2.11v-6.91h3.52v-1.32h-3.52v-2.53h-1.56v2.53h-2.07v1.32h2.07v7a3.07,3.07,0,0,0,3.39,3.37,3.73,3.73,0,0,0,2.44-.82Z" fill-rule="evenodd"/><path d="M246.56,345.56a5.51,5.51,0,0,0-5.61-5.87,5.57,5.57,0,0,0-5.66,5.87,5.74,5.74,0,0,0,6.08,5.9,5.67,5.67,0,0,0,4.46-1.9l-.88-1a4.56,4.56,0,0,1-3.54,1.52,4.28,4.28,0,0,1-4.55-4h9.68c0-.17,0-.35,0-.48ZM241,341a4,4,0,0,1,4.11,3.85h-8.2A4,4,0,0,1,241,341Z" fill-rule="evenodd"/><path d="M252.85,351.46c3,0,4.77-1.3,4.77-3.3,0-4.45-7.5-2.09-7.5-5.22,0-1.1.93-1.91,3-1.91a5.92,5.92,0,0,1,3.41,1l.68-1.26a7.85,7.85,0,0,0-4.09-1.07c-2.95,0-4.58,1.4-4.58,3.3,0,4.57,7.5,2.2,7.5,5.21,0,1.14-.9,1.89-3.1,1.89a6.94,6.94,0,0,1-4.11-1.3l-.71,1.24A7.78,7.78,0,0,0,252.85,351.46Z" fill-rule="evenodd"/><path d="M260.66,351.46a1.2,1.2,0,0,0,1.19-1.21,1.18,1.18,0,0,0-1.19-1.19,1.16,1.16,0,0,0-1.17,1.19A1.19,1.19,0,0,0,260.66,351.46Z" fill-rule="evenodd"/></svg>