<svg id="Capa_1" data-name="Capa 1" xmlns="http://www.w3.org/2000/svg" xmlns:xlink="http://www.w3.org/1999/xlink" width="154mm" height="154mm" viewBox="0 0 436.54 436.54"><defs><linearGradient id="GradientFill_3" x1="467.94" y1="287.59" x2="77.21" y2="179.1" gradientUnits="userSpaceOnUse"><stop offset="0" stop-color="#f3cf1c"/><stop offset="0.77" stop-color="#f4ae21"/><stop offset="1" stop-color="#f4ae21"/></linearGradient></defs><title>QUESITO AMARILLO CIRCULO 7</title><circle cx="218.27" cy="218.27" r="218.04" fill="url(#GradientFill_3)"/><polygon points="140.66 118.11 142.29 118.11 142.29 104.12 147.7 104.12 147.7 102.71 135.25 102.71 135.25 104.12 140.66 104.12 140.66 118.11" fill-rule="evenodd"/><path d="M153.49,118.22a5.89,5.89,0,1,0-5.9-5.89,5.68,5.68,0,0,0,5.9,5.89Zm0-1.38a4.52,4.52,0,1,1,4.29-4.51A4.24,4.24,0,0,1,153.49,116.84Z" fill-rule="evenodd"/><path d="M171.55,101.79v6.95a5,5,0,0,0-4.4-2.29,5.89,5.89,0,0,0,0,11.77,5,5,0,0,0,4.47-2.4v2.29h1.49V101.79Zm-4.27,15a4.52,4.52,0,1,1,4.29-4.51A4.24,4.24,0,0,1,167.28,116.84Z" fill-rule="evenodd"/><path d="M182.2,118.22a5.89,5.89,0,1,0-5.9-5.89,5.68,5.68,0,0,0,5.9,5.89Zm0-1.38a4.52,4.52,0,1,1,4.29-4.51A4.24,4.24,0,0,1,182.2,116.84Z" fill-rule="evenodd"/><path d="M194.36,118.22c3,0,4.78-1.3,4.78-3.3,0-4.44-7.5-2.08-7.5-5.21,0-1.1.92-1.92,3-1.92a6,6,0,0,1,3.41,1l.68-1.25a7.83,7.83,0,0,0-4.09-1.08c-3,0-4.58,1.41-4.58,3.3,0,4.58,7.51,2.21,7.51,5.22,0,1.14-.91,1.89-3.11,1.89a7,7,0,0,1-4.11-1.3l-.7,1.23A7.66,7.66,0,0,0,194.36,118.22Z" fill-rule="evenodd"/><path d="M213.68,106.45a4.89,4.89,0,0,0-4.4,2.22v-2.13h-1.5v11.57h1.57V112c0-2.64,1.56-4.18,4-4.18,2.2,0,3.48,1.25,3.48,3.7v6.55h1.56V111.4C218.43,108.08,216.5,106.45,213.68,106.45Z" fill-rule="evenodd"/><path d="M231.54,106.54v6.07c0,2.64-1.51,4.2-3.93,4.2-2.2,0-3.48-1.25-3.48-3.71v-6.56h-1.56v6.71c0,3.32,1.93,5,4.88,5a4.59,4.59,0,0,0,4.16-2.22v2.11h1.5V106.54Z" fill-rule="evenodd"/><path d="M247.58,112.33a5.51,5.51,0,0,0-5.61-5.88,5.57,5.57,0,0,0-5.65,5.88,6.12,6.12,0,0,0,10.54,4l-.88-1a4.58,4.58,0,0,1-3.55,1.52,4.29,4.29,0,0,1-4.55-4h9.68c0-.18,0-.35,0-.48ZM242,107.79a4,4,0,0,1,4.12,3.85h-8.21A4,4,0,0,1,242,107.79Z" fill-rule="evenodd"/><path d="M253.87,118.22c3,0,4.78-1.3,4.78-3.3,0-4.44-7.5-2.08-7.5-5.21,0-1.1.92-1.92,3-1.92a6,6,0,0,1,3.41,1l.68-1.25a7.83,7.83,0,0,0-4.09-1.08c-2.95,0-4.58,1.41-4.58,3.3,0,4.58,7.51,2.21,7.51,5.22,0,1.14-.91,1.89-3.11,1.89a7,7,0,0,1-4.11-1.3l-.7,1.23A7.66,7.66,0,0,0,253.87,118.22Z" fill-rule="evenodd"/><path d="M267.07,116.29a2.59,2.59,0,0,1-1.71.59,1.85,1.85,0,0,1-2-2.11v-6.91h3.52v-1.32h-3.52V104h-1.57v2.53h-2.06v1.32h2.06v7a3.06,3.06,0,0,0,3.39,3.36,3.7,3.7,0,0,0,2.44-.81Z" fill-rule="evenodd"/><path d="M272,108.81v-2.27h-1.5v11.57H272v-5.89c0-2.73,1.48-4.27,3.9-4.27l.37,0v-1.52C274.16,106.45,272.68,107.27,272,108.81Z" fill-rule="evenodd"/><path d="M283.73,118.22a5.89,5.89,0,1,0-5.9-5.89,5.68,5.68,0,0,0,5.9,5.89Zm0-1.38a4.52,4.52,0,1,1,4.29-4.51A4.24,4.24,0,0,1,283.73,116.84Z" fill-rule="evenodd"/><path d="M295.89,118.22c3,0,4.78-1.3,4.78-3.3,0-4.44-7.5-2.08-7.5-5.21,0-1.1.92-1.92,3-1.92a6,6,0,0,1,3.41,1l.68-1.25a7.83,7.83,0,0,0-4.09-1.08c-2.95,0-4.58,1.41-4.58,3.3,0,4.58,7.51,2.21,7.51,5.22,0,1.14-.91,1.89-3.11,1.89a7,7,0,0,1-4.11-1.3l-.7,1.23A7.66,7.66,0,0,0,295.89,118.22Z" fill-rule="evenodd"/><path d="M106.4,136.79a5,5,0,0,0-4.47,2.38v-2.29h-1.49v15.84H102v-6.45a5,5,0,0,0,4.4,2.29,5.89,5.89,0,0,0,0-11.77Zm-.11,10.38a4.51,4.51,0,1,1,4.31-4.51A4.23,4.23,0,0,1,106.29,147.17Z" fill-rule="evenodd"/><path d="M116.85,139.14v-2.26h-1.5v11.57h1.56v-5.9c0-2.72,1.48-4.26,3.9-4.26l.37,0v-1.52C119.05,136.79,117.57,137.6,116.85,139.14Z" fill-rule="evenodd"/><path d="M128.62,148.56a5.89,5.89,0,1,0-5.9-5.9,5.69,5.69,0,0,0,5.9,5.9Zm0-1.39a4.52,4.52,0,1,1,4.29-4.51A4.23,4.23,0,0,1,128.62,147.17Z" fill-rule="evenodd"/><path d="M141.51,133.34a2.62,2.62,0,0,1,1.72.57l.52-1.17a3.68,3.68,0,0,0-2.31-.72,3.18,3.18,0,0,0-3.49,3.43v1.43h-2.07v1.32H138v10.25h1.56V138.2H143v-1.32h-3.57v-1.37C139.46,134.08,140.17,133.34,141.51,133.34Z" fill-rule="evenodd"/><path d="M155,142.66a5.63,5.63,0,1,0-11.26,0,6.11,6.11,0,0,0,10.53,4l-.88-1a4.55,4.55,0,0,1-3.54,1.51,4.27,4.27,0,0,1-4.55-4H155c0-.18,0-.35,0-.49Zm-5.61-4.53a4,4,0,0,1,4.11,3.85h-8.2A4,4,0,0,1,149.43,138.13Z" fill-rule="evenodd"/><path d="M161.33,148.56c3,0,4.78-1.3,4.78-3.3,0-4.44-7.51-2.09-7.51-5.21,0-1.1.93-1.92,3-1.92a6,6,0,0,1,3.41,1l.68-1.25a7.86,7.86,0,0,0-4.09-1.08c-3,0-4.58,1.41-4.58,3.3,0,4.58,7.5,2.2,7.5,5.21,0,1.15-.9,1.9-3.1,1.9a7,7,0,0,1-4.11-1.3l-.71,1.23A7.78,7.78,0,0,0,161.33,148.56Z" fill-rule="evenodd"/><path d="M169.78,134.35a1.12,1.12,0,0,0,1.14-1.15,1.1,1.1,0,0,0-1.14-1.07,1.11,1.11,0,1,0,0,2.22Zm-.79,14.1h1.56V136.88H169Z" fill-rule="evenodd"/><path d="M179.64,148.56a5.89,5.89,0,1,0-5.9-5.9,5.69,5.69,0,0,0,5.9,5.9Zm0-1.39a4.52,4.52,0,1,1,4.29-4.51A4.24,4.24,0,0,1,179.64,147.17Z" fill-rule="evenodd"/><path d="M194.6,136.79a4.84,4.84,0,0,0-4.4,2.22v-2.13h-1.5v11.57h1.56v-6.07c0-2.64,1.56-4.18,4.05-4.18,2.2,0,3.48,1.25,3.48,3.69v6.56h1.56v-6.71C199.35,138.42,197.41,136.79,194.6,136.79Z" fill-rule="evenodd"/><path d="M207.64,136.79a7.37,7.37,0,0,0-4.71,1.56l.71,1.17a5.86,5.86,0,0,1,3.85-1.37c2.15,0,3.28,1.08,3.28,3.06v.71h-3.68c-3.32,0-4.46,1.49-4.46,3.27,0,2,1.6,3.37,4.22,3.37a4.36,4.36,0,0,0,4-1.91v1.8h1.5v-7.17c0-3-1.7-4.49-4.69-4.49Zm-.55,10.54c-1.85,0-2.92-.84-2.92-2.18,0-1.19.72-2.07,3-2.07h3.63V145A3.72,3.72,0,0,1,207.09,147.33Z" fill-rule="evenodd"/><rect x="216.57" y="132.13" width="1.56" height="16.32"/><path d="M232.59,142.66a5.63,5.63,0,1,0-11.26,0,6.11,6.11,0,0,0,10.53,4l-.88-1a4.55,4.55,0,0,1-3.54,1.51,4.27,4.27,0,0,1-4.55-4h9.68c0-.18,0-.35,0-.49ZM227,138.13a4,4,0,0,1,4.11,3.85h-8.2A4,4,0,0,1,227,138.13Z" fill-rule="evenodd"/><path d="M238.88,148.56c3,0,4.78-1.3,4.78-3.3,0-4.44-7.51-2.09-7.51-5.21,0-1.1.93-1.92,3-1.92a6,6,0,0,1,3.41,1l.68-1.25a7.86,7.86,0,0,0-4.09-1.08c-2.95,0-4.58,1.41-4.58,3.3,0,4.58,7.5,2.2,7.5,5.21,0,1.15-.9,1.9-3.1,1.9a7,7,0,0,1-4.11-1.3l-.71,1.23A7.78,7.78,0,0,0,238.88,148.56Z" fill-rule="evenodd"/><path d="M257.85,146.62a2.58,2.58,0,0,1-1.72.6,1.85,1.85,0,0,1-2-2.11V138.2h3.52v-1.32h-3.52v-2.53h-1.56v2.53H250.5v1.32h2.07v7a3.06,3.06,0,0,0,3.38,3.37,3.73,3.73,0,0,0,2.45-.81Z" fill-rule="evenodd"/><path d="M270.91,142.66a5.51,5.51,0,0,0-5.61-5.87,5.57,5.57,0,0,0-5.65,5.87,6.12,6.12,0,0,0,10.54,4l-.88-1a4.57,4.57,0,0,1-3.54,1.51,4.29,4.29,0,0,1-4.56-4h9.68c0-.18,0-.35,0-.49Zm-5.61-4.53a4,4,0,0,1,4.12,3.85h-8.21A4,4,0,0,1,265.3,138.13Z" fill-rule="evenodd"/><path d="M280,136.79a4.86,4.86,0,0,0-4.4,2.22v-2.13h-1.5v11.57h1.57v-6.07c0-2.64,1.56-4.18,4-4.18,2.2,0,3.48,1.25,3.48,3.69v6.56h1.56v-6.71C284.75,138.42,282.82,136.79,280,136.79Z" fill-rule="evenodd"/><path d="M298,132.13v7a5,5,0,0,0-4.4-2.29,5.89,5.89,0,0,0,0,11.77,5,5,0,0,0,4.47-2.4v2.29h1.49V132.13Zm-4.27,15a4.52,4.52,0,1,1,4.29-4.51A4.24,4.24,0,0,1,293.77,147.17Z" fill-rule="evenodd"/><path d="M305.45,139.14v-2.26H304v11.57h1.56v-5.9c0-2.72,1.47-4.26,3.89-4.26l.38,0v-1.52C307.65,136.79,306.18,137.6,305.45,139.14Z" fill-rule="evenodd"/><path d="M320.35,132.37h-2.09l-3,2.73h1.54l3.57-2.73Zm-3.72,4.42a7.35,7.35,0,0,0-4.71,1.56l.71,1.17a5.86,5.86,0,0,1,3.85-1.37c2.15,0,3.27,1.08,3.27,3.06v.71h-3.67c-3.32,0-4.47,1.49-4.47,3.27,0,2,1.61,3.37,4.23,3.37a4.36,4.36,0,0,0,4-1.91v1.8h1.5v-7.17c0-3-1.7-4.49-4.69-4.49Zm-.55,10.54c-1.85,0-2.93-.84-2.93-2.18,0-1.19.73-2.07,3-2.07h3.63V145A3.69,3.69,0,0,1,316.08,147.33Z" fill-rule="evenodd"/><path d="M331.46,136.79a4.85,4.85,0,0,0-4.4,2.22v-2.13h-1.5v11.57h1.56v-6.07c0-2.64,1.57-4.18,4.05-4.18,2.2,0,3.48,1.25,3.48,3.69v6.56h1.56v-6.71C336.21,138.42,334.27,136.79,331.46,136.79Z" fill-rule="evenodd"/><path d="M107,167.13a7.33,7.33,0,0,0-4.71,1.56l.7,1.17a5.9,5.9,0,0,1,3.85-1.37c2.16,0,3.28,1.08,3.28,3.06v.7h-3.67c-3.33,0-4.47,1.5-4.47,3.28,0,2,1.61,3.37,4.22,3.37a4.36,4.36,0,0,0,4-1.92v1.81h1.49v-7.17c0-3-1.69-4.49-4.68-4.49Zm-.55,10.54c-1.85,0-2.93-.84-2.93-2.18,0-1.19.73-2.07,3-2.07h3.63v1.89A3.7,3.7,0,0,1,106.48,177.67Z" fill-rule="evenodd"/><path d="M120.8,178.9a5.08,5.08,0,0,0,4.53-2.29l-1.17-.79a3.91,3.91,0,0,1-3.36,1.69,4.51,4.51,0,0,1,0-9,3.92,3.92,0,0,1,3.36,1.72l1.17-.79a5,5,0,0,0-4.53-2.29,5.89,5.89,0,1,0,0,11.77Z" fill-rule="evenodd"/><path d="M133,178.9a5.11,5.11,0,0,0,4.53-2.29l-1.17-.79a3.91,3.91,0,0,1-3.36,1.69,4.51,4.51,0,0,1,0-9,3.92,3.92,0,0,1,3.36,1.72l1.17-.79a5.06,5.06,0,0,0-4.53-2.29,5.89,5.89,0,1,0,0,11.77Z" fill-rule="evenodd"/><path d="M150.47,173a5.51,5.51,0,0,0-5.61-5.87,5.57,5.57,0,0,0-5.65,5.87,6.12,6.12,0,0,0,10.54,4l-.88-1a4.54,4.54,0,0,1-3.54,1.52,4.29,4.29,0,0,1-4.56-4h9.68c0-.18,0-.36,0-.49Zm-5.61-4.53a4,4,0,0,1,4.12,3.85h-8.21A4,4,0,0,1,144.86,168.47Z" fill-rule="evenodd"/><path d="M156.77,178.9c3,0,4.77-1.3,4.77-3.3,0-4.44-7.5-2.09-7.5-5.22,0-1.1.92-1.91,3-1.91a6,6,0,0,1,3.41,1l.68-1.25a7.8,7.8,0,0,0-4.09-1.08c-2.94,0-4.57,1.41-4.57,3.3,0,4.57,7.5,2.2,7.5,5.21,0,1.15-.9,1.89-3.1,1.89a7.06,7.06,0,0,1-4.12-1.29l-.7,1.23A7.74,7.74,0,0,0,156.77,178.9Z" fill-rule="evenodd"/><path d="M169.15,178.9a5.89,5.89,0,1,0-5.89-5.9,5.7,5.7,0,0,0,5.89,5.9Zm0-1.39a4.52,4.52,0,1,1,4.29-4.51A4.24,4.24,0,0,1,169.15,177.51Z" fill-rule="evenodd"/><path d="M188,167.13a7.35,7.35,0,0,0-4.71,1.56l.7,1.17a5.9,5.9,0,0,1,3.86-1.37c2.15,0,3.27,1.08,3.27,3.06v.7h-3.67c-3.32,0-4.47,1.5-4.47,3.28,0,2,1.61,3.37,4.23,3.37a4.35,4.35,0,0,0,4-1.92v1.81h1.49v-7.17c0-3-1.69-4.49-4.68-4.49Zm-.55,10.54c-1.85,0-2.93-.84-2.93-2.18,0-1.19.73-2.07,3-2.07h3.63v1.89A3.69,3.69,0,0,1,187.48,177.67Z" fill-rule="evenodd"/><path d="M208.27,177a2.58,2.58,0,0,1-1.72.6,1.85,1.85,0,0,1-2-2.12v-6.9h3.52v-1.32h-3.52v-2.53H203v2.53h-2.07v1.32H203v7a3.07,3.07,0,0,0,3.39,3.37,3.73,3.73,0,0,0,2.44-.82Z" fill-rule="evenodd"/><path d="M220.52,167.22v6.07c0,2.64-1.52,4.2-3.94,4.2-2.2,0-3.47-1.25-3.47-3.72v-6.55h-1.56v6.71c0,3.32,1.93,5,4.88,5a4.63,4.63,0,0,0,4.16-2.22v2.11h1.49V167.22Z" fill-rule="evenodd"/><path d="M229.56,178.9c3,0,4.78-1.3,4.78-3.3,0-4.44-7.5-2.09-7.5-5.22,0-1.1.92-1.91,3-1.91a6,6,0,0,1,3.41,1l.68-1.25a7.83,7.83,0,0,0-4.09-1.08c-2.95,0-4.58,1.41-4.58,3.3,0,4.57,7.51,2.2,7.51,5.21,0,1.15-.91,1.89-3.11,1.89a7,7,0,0,1-4.11-1.29l-.7,1.23A7.73,7.73,0,0,0,229.56,178.9Z" fill-rule="evenodd"/><path d="M252,162.46v7a5,5,0,0,0-4.4-2.29,5.89,5.89,0,0,0,0,11.77,5,5,0,0,0,4.47-2.4v2.29h1.49V162.46Zm-4.27,15A4.52,4.52,0,1,1,252,173,4.24,4.24,0,0,1,247.71,177.51Z" fill-rule="evenodd"/><path d="M262,167.13a7.35,7.35,0,0,0-4.71,1.56l.7,1.17a5.9,5.9,0,0,1,3.85-1.37c2.16,0,3.28,1.08,3.28,3.06v.7H261.4c-3.32,0-4.47,1.5-4.47,3.28,0,2,1.61,3.37,4.23,3.37a4.35,4.35,0,0,0,4-1.92v1.81h1.49v-7.17c0-3-1.69-4.49-4.68-4.49Zm-.55,10.54c-1.85,0-2.93-.84-2.93-2.18,0-1.19.73-2.07,3-2.07h3.63v1.89A3.69,3.69,0,0,1,261.4,177.67Z" fill-rule="evenodd"/><path d="M276.42,177a2.55,2.55,0,0,1-1.71.6,1.85,1.85,0,0,1-2-2.12v-6.9h3.52v-1.32h-3.52v-2.53h-1.57v2.53h-2.06v1.32h2.06v7a3.07,3.07,0,0,0,3.39,3.37,3.71,3.71,0,0,0,2.44-.82Z" fill-rule="evenodd"/><path d="M284.12,178.9a5.89,5.89,0,1,0-5.89-5.9,5.7,5.7,0,0,0,5.89,5.9Zm0-1.39a4.52,4.52,0,1,1,4.29-4.51A4.24,4.24,0,0,1,284.12,177.51Z" fill-rule="evenodd"/><path d="M296.29,178.9c3,0,4.77-1.3,4.77-3.3,0-4.44-7.5-2.09-7.5-5.22,0-1.1.93-1.91,3-1.91a6,6,0,0,1,3.41,1l.68-1.25a7.86,7.86,0,0,0-4.09-1.08c-2.95,0-4.58,1.41-4.58,3.3,0,4.57,7.5,2.2,7.5,5.21,0,1.15-.9,1.89-3.1,1.89a7,7,0,0,1-4.11-1.29l-.71,1.23A7.78,7.78,0,0,0,296.29,178.9Z" fill-rule="evenodd"/><path d="M318.71,162.46v7a5,5,0,0,0-4.4-2.29,5.89,5.89,0,0,0,0,11.77,5,5,0,0,0,4.46-2.4v2.29h1.5V162.46Zm-4.27,15a4.52,4.52,0,1,1,4.29-4.51A4.24,4.24,0,0,1,314.44,177.51Z" fill-rule="evenodd"/><path d="M334.72,173a5.51,5.51,0,0,0-5.61-5.87,5.57,5.57,0,0,0-5.65,5.87A6.12,6.12,0,0,0,334,177l-.88-1a4.54,4.54,0,0,1-3.54,1.52,4.29,4.29,0,0,1-4.56-4h9.68c0-.18,0-.36,0-.49Zm-5.61-4.53a4,4,0,0,1,4.12,3.85H325A4,4,0,0,1,329.11,168.47Z" fill-rule="evenodd"/><path d="M70,209.24A5.11,5.11,0,0,0,74.54,207l-1.16-.79A3.94,3.94,0,0,1,70,207.85a4.51,4.51,0,0,1,0-9,4,4,0,0,1,3.37,1.72l1.16-.8A5.05,5.05,0,0,0,70,197.47a5.89,5.89,0,1,0,0,11.77Z" fill-rule="evenodd"/><path d="M82.13,209.24a5.89,5.89,0,1,0-5.89-5.9,5.7,5.7,0,0,0,5.89,5.9Zm0-1.39a4.52,4.52,0,1,1,4.29-4.51A4.24,4.24,0,0,1,82.13,207.85Z" fill-rule="evenodd"/><path d="M97.09,197.47a4.86,4.86,0,0,0-4.4,2.22v-2.14H91.2v11.58h1.56v-6.08c0-2.64,1.56-4.18,4-4.18,2.2,0,3.47,1.26,3.47,3.7v6.56h1.56v-6.71C101.84,199.09,99.91,197.47,97.09,197.47Z" fill-rule="evenodd"/><path d="M111.63,207.3a2.54,2.54,0,0,1-1.71.59,1.85,1.85,0,0,1-2-2.11v-6.91h3.52v-1.32h-3.52V195h-1.57v2.53h-2.06v1.32h2.06v7a3.07,3.07,0,0,0,3.39,3.37,3.71,3.71,0,0,0,2.44-.82Z" fill-rule="evenodd"/><path d="M119.07,197.47a7.35,7.35,0,0,0-4.71,1.56l.71,1.16a5.9,5.9,0,0,1,3.85-1.36c2.15,0,3.27,1.08,3.27,3.06v.7h-3.67c-3.32,0-4.47,1.5-4.47,3.28,0,2,1.61,3.37,4.23,3.37a4.34,4.34,0,0,0,4-1.92v1.81h1.5V202c0-3-1.7-4.48-4.69-4.48ZM118.52,208c-1.85,0-2.93-.83-2.93-2.17s.73-2.07,3-2.07h3.63v1.89A3.69,3.69,0,0,1,118.52,208Z" fill-rule="evenodd"/><path d="M132.84,209.24a5.11,5.11,0,0,0,4.53-2.29l-1.16-.79a3.93,3.93,0,0,1-3.37,1.69,4.51,4.51,0,0,1,0-9,3.93,3.93,0,0,1,3.37,1.72l1.16-.8a5.05,5.05,0,0,0-4.53-2.28,5.89,5.89,0,1,0,0,11.77Z" fill-rule="evenodd"/><path d="M146.11,207.3a2.57,2.57,0,0,1-1.72.59,1.85,1.85,0,0,1-2-2.11v-6.91h3.52v-1.32h-3.52V195h-1.56v2.53h-2.07v1.32h2.07v7a3.07,3.07,0,0,0,3.39,3.37,3.73,3.73,0,0,0,2.44-.82Z" fill-rule="evenodd"/><path d="M153.81,209.24a5.89,5.89,0,1,0-5.9-5.9,5.69,5.69,0,0,0,5.9,5.9Zm0-1.39a4.52,4.52,0,1,1,4.29-4.51A4.23,4.23,0,0,1,153.81,207.85Z" fill-rule="evenodd"/><path d="M162.72,206.84a1.15,1.15,0,0,0-1.17,1.19,1.11,1.11,0,0,0,.79,1.12l-.74,3.19h1.05l.93-3a3.51,3.51,0,0,0,.3-1.27A1.15,1.15,0,0,0,162.72,206.84Z" fill-rule="evenodd"/><path d="M178.93,197.47a5,5,0,0,0-4.46,2.37v-2.29H173v15.84h1.56V207a5.07,5.07,0,0,0,4.4,2.29,5.89,5.89,0,0,0,0-11.77Zm-.11,10.38a4.51,4.51,0,1,1,4.31-4.51A4.24,4.24,0,0,1,178.82,207.85Z" fill-rule="evenodd"/><path d="M198,203.34a5.51,5.51,0,0,0-5.61-5.87,5.57,5.57,0,0,0-5.65,5.87,6.11,6.11,0,0,0,10.54,4l-.88-1a4.58,4.58,0,0,1-3.54,1.52,4.29,4.29,0,0,1-4.56-4H198c0-.17,0-.35,0-.48Zm-5.61-4.53a4,4,0,0,1,4.12,3.85h-8.21A4,4,0,0,1,192.37,198.81Z" fill-rule="evenodd"/><path d="M202.67,199.82v-2.27h-1.5v11.58h1.57v-5.9c0-2.73,1.47-4.27,3.89-4.27l.37,0v-1.51C204.87,197.47,203.4,198.28,202.67,199.82Z" fill-rule="evenodd"/><path d="M214.44,209.24a5.89,5.89,0,1,0-5.9-5.9,5.69,5.69,0,0,0,5.9,5.9Zm0-1.39a4.52,4.52,0,1,1,4.29-4.51A4.24,4.24,0,0,1,214.44,207.85Z" fill-rule="evenodd"/><rect x="229.27" y="192.8" width="1.56" height="16.32"/><path d="M239.23,197.47a7.32,7.32,0,0,0-4.7,1.56l.7,1.16a5.92,5.92,0,0,1,3.85-1.36c2.16,0,3.28,1.08,3.28,3.06v.7h-3.68c-3.32,0-4.46,1.5-4.46,3.28,0,2,1.6,3.37,4.22,3.37a4.33,4.33,0,0,0,4-1.92v1.81h1.5V202c0-3-1.69-4.48-4.69-4.48ZM238.68,208c-1.84,0-2.92-.83-2.92-2.17s.72-2.07,3-2.07h3.63v1.89A3.71,3.71,0,0,1,238.68,208Z" fill-rule="evenodd"/><path d="M259.89,197.47a5,5,0,0,0-4.46,2.37v-2.29h-1.5v15.84h1.56V207a5.07,5.07,0,0,0,4.4,2.29,5.89,5.89,0,0,0,0-11.77Zm-.11,10.38a4.51,4.51,0,1,1,4.31-4.51A4.24,4.24,0,0,1,259.78,207.85Z" fill-rule="evenodd"/><rect x="268.85" y="192.8" width="1.56" height="16.32"/><path d="M278.81,197.47A7.37,7.37,0,0,0,274.1,199l.71,1.16a5.9,5.9,0,0,1,3.85-1.36c2.15,0,3.28,1.08,3.28,3.06v.7h-3.68c-3.32,0-4.46,1.5-4.46,3.28,0,2,1.6,3.37,4.22,3.37a4.34,4.34,0,0,0,4-1.92v1.81h1.5V202c0-3-1.7-4.48-4.69-4.48ZM278.26,208c-1.85,0-2.92-.83-2.92-2.17s.72-2.07,3-2.07h3.63v1.89A3.71,3.71,0,0,1,278.26,208Z" fill-rule="evenodd"/><path d="M293.29,207.3a2.57,2.57,0,0,1-1.72.59,1.85,1.85,0,0,1-2-2.11v-6.91h3.52v-1.32h-3.52V195H288v2.53h-2.07v1.32H288v7a3.07,3.07,0,0,0,3.39,3.37,3.73,3.73,0,0,0,2.44-.82Z" fill-rule="evenodd"/><path d="M300.72,197.47A7.32,7.32,0,0,0,296,199l.7,1.16a5.92,5.92,0,0,1,3.85-1.36c2.16,0,3.28,1.08,3.28,3.06v.7h-3.68c-3.32,0-4.46,1.5-4.46,3.28,0,2,1.6,3.37,4.22,3.37a4.33,4.33,0,0,0,4-1.92v1.81h1.5V202c0-3-1.69-4.48-4.69-4.48ZM300.17,208c-1.85,0-2.92-.83-2.92-2.17s.72-2.07,3-2.07h3.63v1.89A3.71,3.71,0,0,1,300.17,208Z" fill-rule="evenodd"/><path d="M313.48,194a2.68,2.68,0,0,1,1.72.57l.53-1.16a3.67,3.67,0,0,0-2.31-.73,3.19,3.19,0,0,0-3.5,3.43v1.43h-2.07v1.32h2.07v10.26h1.56V198.87H315v-1.32h-3.56v-1.36C311.44,194.76,312.14,194,313.48,194Z" fill-rule="evenodd"/><path d="M321.65,209.24a5.89,5.89,0,1,0-5.9-5.9,5.7,5.7,0,0,0,5.9,5.9Zm0-1.39a4.52,4.52,0,1,1,4.29-4.51A4.24,4.24,0,0,1,321.65,207.85Z" fill-rule="evenodd"/><path d="M332.2,199.82v-2.27h-1.49v11.58h1.56v-5.9c0-2.73,1.48-4.27,3.89-4.27l.38,0v-1.51C334.4,197.47,332.93,198.28,332.2,199.82Z" fill-rule="evenodd"/><path d="M353.79,197.47a5,5,0,0,0-4.58,2.44,4.15,4.15,0,0,0-4.11-2.44,4.68,4.68,0,0,0-4.25,2.2v-2.12h-1.5v11.58h1.57v-6.08c0-2.64,1.51-4.18,3.87-4.18,2.11,0,3.34,1.26,3.34,3.7v6.56h1.57v-6.08c0-2.64,1.49-4.18,3.87-4.18,2.09,0,3.32,1.26,3.32,3.7v6.56h1.56v-6.71C358.45,199.09,356.6,197.47,353.79,197.47Z" fill-rule="evenodd"/><path d="M366.74,197.47A7.32,7.32,0,0,0,362,199l.7,1.16a5.92,5.92,0,0,1,3.85-1.36c2.16,0,3.28,1.08,3.28,3.06v.7h-3.68c-3.32,0-4.46,1.5-4.46,3.28,0,2,1.6,3.37,4.22,3.37a4.33,4.33,0,0,0,4-1.92v1.81h1.5V202c0-3-1.69-4.48-4.69-4.48ZM366.19,208c-1.84,0-2.92-.83-2.92-2.17s.72-2.07,3-2.07h3.63v1.89A3.71,3.71,0,0,1,366.19,208Z" fill-rule="evenodd"/><path d="M46.81,223.14v7a5.07,5.07,0,0,0-4.4-2.29,5.89,5.89,0,0,0,0,11.77,5,5,0,0,0,4.47-2.39v2.28h1.49V223.14Zm-4.27,15.05a4.52,4.52,0,1,1,4.29-4.51A4.24,4.24,0,0,1,42.54,238.19Z" fill-rule="evenodd"/><path d="M53.52,225.36a1.12,1.12,0,0,0,1.15-1.14,1.11,1.11,0,0,0-1.15-1.08,1.11,1.11,0,1,0,0,2.22Zm-.79,14.1h1.56V227.89H52.73Z" fill-rule="evenodd"/><path d="M61.75,239.57c3,0,4.77-1.29,4.77-3.3,0-4.44-7.5-2.08-7.5-5.21,0-1.1.93-1.91,3-1.91a5.92,5.92,0,0,1,3.41,1l.68-1.26A7.86,7.86,0,0,0,62,227.8c-2.95,0-4.58,1.41-4.58,3.3,0,4.58,7.5,2.21,7.5,5.22,0,1.14-.9,1.89-3.1,1.89a6.94,6.94,0,0,1-4.11-1.3L57,238.14A7.72,7.72,0,0,0,61.75,239.57Z" fill-rule="evenodd"/><path d="M75.37,227.8a5,5,0,0,0-4.47,2.38v-2.29H69.41v15.84H71v-6.44a5.06,5.06,0,0,0,4.4,2.28,5.89,5.89,0,0,0,0-11.77Zm-.11,10.39a4.51,4.51,0,1,1,4.31-4.51A4.24,4.24,0,0,1,75.26,238.19Z" fill-rule="evenodd"/><path d="M89.05,239.57a5.89,5.89,0,1,0-5.89-5.89,5.69,5.69,0,0,0,5.89,5.89Zm0-1.38a4.52,4.52,0,1,1,4.29-4.51A4.24,4.24,0,0,1,89.05,238.19Z" fill-rule="evenodd"/><path d="M104,227.8a4.87,4.87,0,0,0-4.4,2.23v-2.14H98.12v11.57h1.56v-6.07c0-2.64,1.56-4.18,4-4.18,2.2,0,3.47,1.26,3.47,3.7v6.55h1.56v-6.71C108.76,229.43,106.83,227.8,104,227.8Z" fill-rule="evenodd"/><path d="M122.05,223.14v7a5.07,5.07,0,0,0-4.4-2.29,5.89,5.89,0,0,0,0,11.77,5,5,0,0,0,4.47-2.39v2.28h1.49V223.14Zm-4.27,15.05a4.52,4.52,0,1,1,4.29-4.51A4.24,4.24,0,0,1,117.78,238.19Z" fill-rule="evenodd"/><path d="M129.47,230.16v-2.27H128v11.57h1.56v-5.89c0-2.73,1.48-4.27,3.9-4.27l.37,0V227.8C131.67,227.8,130.19,228.62,129.47,230.16Z" fill-rule="evenodd"/><path d="M144.36,223.38h-2.09l-3,2.73h1.54l3.56-2.73Zm-3.72,4.42a7.38,7.38,0,0,0-4.71,1.57l.71,1.16a5.9,5.9,0,0,1,3.85-1.36c2.15,0,3.28,1.08,3.28,3.06v.7h-3.68c-3.32,0-4.46,1.5-4.46,3.28,0,2,1.6,3.36,4.22,3.36a4.34,4.34,0,0,0,4-1.91v1.8h1.5v-7.17c0-3-1.7-4.49-4.69-4.49Zm-.55,10.54c-1.85,0-2.92-.83-2.92-2.18,0-1.18.72-2.06,3-2.06h3.63V236A3.71,3.71,0,0,1,140.09,238.34Z" fill-rule="evenodd"/><rect x="155.34" y="223.14" width="1.56" height="16.32"/><path d="M166,239.57a5.89,5.89,0,1,0-5.9-5.89,5.69,5.69,0,0,0,5.9,5.89Zm0-1.38a4.52,4.52,0,1,1,4.28-4.51A4.24,4.24,0,0,1,166,238.19Z" fill-rule="evenodd"/><path d="M178.15,239.57c3,0,4.77-1.29,4.77-3.3,0-4.44-7.5-2.08-7.5-5.21,0-1.1.93-1.91,3-1.91a5.9,5.9,0,0,1,3.41,1l.68-1.26a7.86,7.86,0,0,0-4.09-1.08c-2.95,0-4.58,1.41-4.58,3.3,0,4.58,7.5,2.21,7.5,5.22,0,1.14-.9,1.89-3.1,1.89a6.94,6.94,0,0,1-4.11-1.3l-.71,1.23A7.72,7.72,0,0,0,178.15,239.57Z" fill-rule="evenodd"/><path d="M206,227.8a5,5,0,0,0-4.57,2.45,4.17,4.17,0,0,0-4.12-2.45,4.68,4.68,0,0,0-4.24,2.2v-2.11h-1.5v11.57h1.56v-6.07c0-2.64,1.52-4.18,3.87-4.18,2.12,0,3.35,1.26,3.35,3.7v6.55h1.56v-6.07c0-2.64,1.5-4.18,3.87-4.18,2.09,0,3.32,1.26,3.32,3.7v6.55h1.57v-6.71C210.67,229.43,208.82,227.8,206,227.8Z" fill-rule="evenodd"/><path d="M225.05,233.68a5.51,5.51,0,0,0-5.61-5.88,5.58,5.58,0,0,0-5.65,5.88,6.12,6.12,0,0,0,10.54,4l-.88-1a4.58,4.58,0,0,1-3.54,1.52,4.29,4.29,0,0,1-4.56-4H225c0-.17,0-.35,0-.48Zm-5.61-4.53a4,4,0,0,1,4.12,3.85h-8.21A4,4,0,0,1,219.44,229.15Z" fill-rule="evenodd"/><path d="M237.24,223.14v7a5.07,5.07,0,0,0-4.4-2.29,5.89,5.89,0,0,0,0,11.77,5,5,0,0,0,4.47-2.39v2.28h1.49V223.14ZM233,238.19a4.52,4.52,0,1,1,4.29-4.51A4.24,4.24,0,0,1,233,238.19Z" fill-rule="evenodd"/><path d="M244,225.36a1.12,1.12,0,0,0,1.15-1.14,1.11,1.11,0,0,0-1.15-1.08,1.11,1.11,0,1,0,0,2.22Zm-.79,14.1h1.56V227.89h-1.56Z" fill-rule="evenodd"/><path d="M253.81,239.57a5.89,5.89,0,1,0-5.9-5.89,5.68,5.68,0,0,0,5.9,5.89Zm0-1.38a4.52,4.52,0,1,1,4.29-4.51A4.24,4.24,0,0,1,253.81,238.19Z" fill-rule="evenodd"/><path d="M266,239.57c3,0,4.78-1.29,4.78-3.3,0-4.44-7.5-2.08-7.5-5.21,0-1.1.92-1.91,3-1.91a5.88,5.88,0,0,1,3.41,1l.68-1.26a7.83,7.83,0,0,0-4.09-1.08c-2.95,0-4.58,1.41-4.58,3.3,0,4.58,7.51,2.21,7.51,5.22,0,1.14-.91,1.89-3.11,1.89a7,7,0,0,1-4.11-1.3l-.7,1.23A7.66,7.66,0,0,0,266,239.57Z" fill-rule="evenodd"/><path d="M285.36,227.8a5,5,0,0,0-4.47,2.38v-2.29h-1.5v15.84H281v-6.44a5,5,0,0,0,4.4,2.28,5.89,5.89,0,0,0,0-11.77Zm-.11,10.39a4.51,4.51,0,1,1,4.31-4.51A4.24,4.24,0,0,1,285.25,238.19Z" fill-rule="evenodd"/><path d="M298.29,227.8a7.38,7.38,0,0,0-4.71,1.57l.71,1.16a5.9,5.9,0,0,1,3.85-1.36c2.15,0,3.28,1.08,3.28,3.06v.7h-3.68c-3.32,0-4.46,1.5-4.46,3.28,0,2,1.6,3.36,4.22,3.36a4.34,4.34,0,0,0,4-1.91v1.8H303v-7.17c0-3-1.7-4.49-4.69-4.49Zm-.55,10.54c-1.85,0-2.92-.83-2.92-2.18,0-1.18.72-2.06,3-2.06h3.63V236A3.71,3.71,0,0,1,297.74,238.34Z" fill-rule="evenodd"/><path d="M308.72,230.16v-2.27h-1.5v11.57h1.57v-5.89c0-2.73,1.47-4.27,3.89-4.27l.37,0V227.8C310.92,227.8,309.45,228.62,308.72,230.16Z" fill-rule="evenodd"/><path d="M319.9,227.8a7.34,7.34,0,0,0-4.71,1.57l.7,1.16a5.94,5.94,0,0,1,3.85-1.36c2.16,0,3.28,1.08,3.28,3.06v.7h-3.67c-3.33,0-4.47,1.5-4.47,3.28,0,2,1.61,3.36,4.22,3.36a4.35,4.35,0,0,0,4-1.91v1.8h1.49v-7.17c0-3-1.69-4.49-4.68-4.49Zm-.55,10.54c-1.85,0-2.93-.83-2.93-2.18,0-1.18.73-2.06,3-2.06H323V236A3.69,3.69,0,0,1,319.35,238.34Z" fill-rule="evenodd"/><path d="M343.66,227.89v2.29a5.06,5.06,0,0,0-4.47-2.38,5.89,5.89,0,0,0,0,11.77,5.06,5.06,0,0,0,4.4-2.28v6.44h1.56V227.89Zm-4.34,10.3a4.52,4.52,0,1,1,4.29-4.51A4.24,4.24,0,0,1,339.32,238.19Z" fill-rule="evenodd"/><path d="M358.37,227.89V234c0,2.64-1.51,4.21-3.93,4.21-2.2,0-3.48-1.26-3.48-3.72v-6.56H349.4v6.71c0,3.32,1.93,5,4.88,5a4.59,4.59,0,0,0,4.16-2.22v2.11h1.5V227.89Z" fill-rule="evenodd"/><path d="M374.41,233.68a5.51,5.51,0,0,0-5.61-5.88,5.58,5.58,0,0,0-5.65,5.88,6.12,6.12,0,0,0,10.54,4l-.88-1a4.58,4.58,0,0,1-3.55,1.52,4.29,4.29,0,0,1-4.55-4h9.68c0-.17,0-.35,0-.48Zm-5.61-4.53a4,4,0,0,1,4.12,3.85h-8.21A4,4,0,0,1,368.8,229.15Z" fill-rule="evenodd"/><rect x="383.37" y="223.14" width="1.56" height="16.32"/><path d="M394,239.57a5.89,5.89,0,1,0-5.89-5.89,5.69,5.69,0,0,0,5.89,5.89Zm0-1.38a4.52,4.52,0,1,1,4.29-4.51A4.24,4.24,0,0,1,394,238.19Z" fill-rule="evenodd"/><path d="M59.79,269.91a5.08,5.08,0,0,0,4.53-2.29l-1.16-.79a3.92,3.92,0,0,1-3.37,1.7,4.51,4.51,0,0,1,0-9,4,4,0,0,1,3.37,1.71l1.16-.79a5,5,0,0,0-4.53-2.29,5.89,5.89,0,1,0,0,11.77Z" fill-rule="evenodd"/><path d="M71.91,269.91A5.89,5.89,0,1,0,66,264a5.69,5.69,0,0,0,5.89,5.89Zm0-1.38A4.52,4.52,0,1,1,76.2,264,4.24,4.24,0,0,1,71.91,268.53Z" fill-rule="evenodd"/><path d="M86.87,258.14a4.89,4.89,0,0,0-4.4,2.22v-2.13H81V269.8h1.56v-6.07c0-2.64,1.56-4.18,4-4.18,2.2,0,3.47,1.25,3.47,3.7v6.55h1.56v-6.71C91.62,259.77,89.69,258.14,86.87,258.14Z" fill-rule="evenodd"/><path d="M101.41,268a2.59,2.59,0,0,1-1.71.59,1.85,1.85,0,0,1-2-2.11v-6.91h3.52v-1.32H97.7V255.7H96.14v2.53H94.07v1.32h2.07v7a3.06,3.06,0,0,0,3.38,3.36,3.73,3.73,0,0,0,2.45-.81Z" fill-rule="evenodd"/><path d="M108.85,258.14a7.35,7.35,0,0,0-4.71,1.56l.71,1.17a5.85,5.85,0,0,1,3.85-1.36c2.15,0,3.28,1.07,3.28,3.05v.71H108.3c-3.32,0-4.46,1.49-4.46,3.28,0,2,1.6,3.36,4.22,3.36a4.34,4.34,0,0,0,4-1.91v1.8h1.5v-7.17c0-3-1.7-4.49-4.69-4.49Zm-.55,10.54c-1.85,0-2.93-.84-2.93-2.18s.73-2.07,3-2.07H112v1.9A3.72,3.72,0,0,1,108.3,268.68Z" fill-rule="evenodd"/><path d="M122.62,269.91a5.11,5.11,0,0,0,4.54-2.29l-1.17-.79a3.91,3.91,0,0,1-3.37,1.7,4.51,4.51,0,0,1,0-9,3.94,3.94,0,0,1,3.37,1.71l1.17-.79a5.07,5.07,0,0,0-4.54-2.29,5.89,5.89,0,1,0,0,11.77Z" fill-rule="evenodd"/><path d="M135.89,268a2.62,2.62,0,0,1-1.72.59,1.86,1.86,0,0,1-2-2.11v-6.91h3.52v-1.32h-3.52V255.7h-1.56v2.53h-2.07v1.32h2.07v7a3.06,3.06,0,0,0,3.39,3.36,3.72,3.72,0,0,0,2.44-.81Z" fill-rule="evenodd"/><path d="M143.59,269.91a5.89,5.89,0,1,0-5.9-5.89,5.68,5.68,0,0,0,5.9,5.89Zm0-1.38a4.52,4.52,0,1,1,4.29-4.51A4.24,4.24,0,0,1,143.59,268.53Z" fill-rule="evenodd"/><path d="M155.76,269.91c3,0,4.77-1.3,4.77-3.3,0-4.44-7.5-2.08-7.5-5.21,0-1.1.92-1.92,3-1.92a6,6,0,0,1,3.41,1l.68-1.25a7.83,7.83,0,0,0-4.09-1.08c-2.95,0-4.58,1.41-4.58,3.3,0,4.58,7.51,2.21,7.51,5.22,0,1.14-.9,1.89-3.1,1.89a7,7,0,0,1-4.12-1.3l-.7,1.23A7.67,7.67,0,0,0,155.76,269.91Z" fill-rule="evenodd"/><path d="M174,269.91a5.08,5.08,0,0,0,4.53-2.29l-1.16-.79a3.93,3.93,0,0,1-3.37,1.7,4.51,4.51,0,0,1,0-9,4,4,0,0,1,3.37,1.71l1.16-.79a5,5,0,0,0-4.53-2.29,5.89,5.89,0,1,0,0,11.77Z" fill-rule="evenodd"/><path d="M186.09,269.91A5.89,5.89,0,1,0,180.2,264a5.69,5.69,0,0,0,5.89,5.89Zm0-1.38a4.52,4.52,0,1,1,4.29-4.51A4.24,4.24,0,0,1,186.09,268.53Z" fill-rule="evenodd"/><path d="M201.05,258.14a4.89,4.89,0,0,0-4.4,2.22v-2.13h-1.49V269.8h1.56v-6.07c0-2.64,1.56-4.18,4.05-4.18,2.2,0,3.47,1.25,3.47,3.7v6.55h1.56v-6.71C205.8,259.77,203.87,258.14,201.05,258.14Z" fill-rule="evenodd"/><path d="M215.59,268a2.59,2.59,0,0,1-1.71.59,1.85,1.85,0,0,1-2-2.11v-6.91h3.52v-1.32h-3.52V255.7h-1.57v2.53h-2.06v1.32h2.06v7a3.06,3.06,0,0,0,3.39,3.36,3.7,3.7,0,0,0,2.44-.81Z" fill-rule="evenodd"/><path d="M219.77,255.7a1.13,1.13,0,0,0,1.15-1.14,1.11,1.11,0,0,0-1.15-1.08,1.11,1.11,0,1,0,0,2.22ZM219,269.8h1.56V258.23H219Z" fill-rule="evenodd"/><path d="M234.12,258.23v2.22a5.22,5.22,0,0,0-4.58-2.31,5.61,5.61,0,1,0,0,11.22,5.22,5.22,0,0,0,4.51-2.24v1.47c0,2.86-1.34,4.2-4.27,4.2a6.88,6.88,0,0,1-4.55-1.58l-.79,1.19a8.09,8.09,0,0,0,5.39,1.78c3.83,0,5.78-1.8,5.78-5.79V258.23ZM229.7,268a4.24,4.24,0,1,1,4.4-4.25A4.14,4.14,0,0,1,229.7,268Z" fill-rule="evenodd"/><path d="M244.72,269.91a5.89,5.89,0,1,0-5.89-5.89,5.69,5.69,0,0,0,5.89,5.89Zm0-1.38A4.52,4.52,0,1,1,249,264,4.24,4.24,0,0,1,244.72,268.53Z" fill-rule="evenodd"/><path d="M262.65,269.91c3,0,4.78-1.3,4.78-3.3,0-4.44-7.51-2.08-7.51-5.21,0-1.1.93-1.92,3-1.92a6,6,0,0,1,3.41,1l.68-1.25a7.86,7.86,0,0,0-4.09-1.08c-2.95,0-4.58,1.41-4.58,3.3,0,4.58,7.5,2.21,7.5,5.22,0,1.14-.9,1.89-3.1,1.89a6.94,6.94,0,0,1-4.11-1.3l-.71,1.23A7.72,7.72,0,0,0,262.65,269.91Z" fill-rule="evenodd"/><path d="M280.41,264a5.52,5.52,0,0,0-5.61-5.88,5.58,5.58,0,0,0-5.66,5.88,6.12,6.12,0,0,0,10.54,4l-.88-1a4.56,4.56,0,0,1-3.54,1.52,4.29,4.29,0,0,1-4.56-4h9.68c0-.18,0-.35,0-.48Zm-5.61-4.54a4,4,0,0,1,4.11,3.85H270.7A4,4,0,0,1,274.8,259.48Z" fill-rule="evenodd"/><rect x="289.36" y="253.48" width="1.56" height="16.32"/><path d="M296.07,255.7a1.12,1.12,0,0,0,1.14-1.14,1.1,1.1,0,0,0-1.14-1.08,1.11,1.11,0,1,0,0,2.22Zm-.79,14.1h1.56V258.23h-1.56Z" fill-rule="evenodd"/><path d="M315.63,258.14a5.06,5.06,0,0,0-4.58,2.44,4.16,4.16,0,0,0-4.11-2.44,4.7,4.7,0,0,0-4.25,2.2v-2.11H301.2V269.8h1.56v-6.07c0-2.64,1.52-4.18,3.87-4.18,2.11,0,3.34,1.25,3.34,3.7v6.55h1.57v-6.07c0-2.64,1.49-4.18,3.87-4.18,2.09,0,3.32,1.25,3.32,3.7v6.55h1.56v-6.71C320.29,259.77,318.44,258.14,315.63,258.14Z" fill-rule="evenodd"/><path d="M325.33,255.7a1.12,1.12,0,0,0,1.14-1.14,1.1,1.1,0,0,0-1.14-1.08,1.11,1.11,0,1,0,0,2.22Zm-.79,14.1h1.56V258.23h-1.56Z" fill-rule="evenodd"/><path d="M336,268a2.62,2.62,0,0,1-1.72.59,1.86,1.86,0,0,1-2-2.11v-6.91h3.52v-1.32h-3.52V255.7h-1.56v2.53h-2.07v1.32h2.07v7a3.06,3.06,0,0,0,3.39,3.36,3.72,3.72,0,0,0,2.44-.81Z" fill-rule="evenodd"/><path d="M349.07,264a5.52,5.52,0,0,0-5.61-5.88A5.58,5.58,0,0,0,337.8,264a6.12,6.12,0,0,0,10.54,4l-.88-1a4.56,4.56,0,0,1-3.54,1.52,4.28,4.28,0,0,1-4.55-4h9.68c0-.18,0-.35,0-.48Zm-5.61-4.54a4,4,0,0,1,4.11,3.85h-8.2A4,4,0,0,1,343.46,259.48Z" fill-rule="evenodd"/><path d="M358.15,258.14a4.89,4.89,0,0,0-4.4,2.22v-2.13h-1.49V269.8h1.56v-6.07c0-2.64,1.56-4.18,4.05-4.18,2.2,0,3.47,1.25,3.47,3.7v6.55h1.57v-6.71C362.91,259.77,361,258.14,358.15,258.14Z" fill-rule="evenodd"/><path d="M377,258.14a7.32,7.32,0,0,0-4.7,1.56l.7,1.17a5.87,5.87,0,0,1,3.85-1.36c2.16,0,3.28,1.07,3.28,3.05v.71h-3.68c-3.32,0-4.46,1.49-4.46,3.28,0,2,1.6,3.36,4.22,3.36a4.32,4.32,0,0,0,4-1.91v1.8h1.5v-7.17c0-3-1.69-4.49-4.69-4.49Zm-.55,10.54c-1.84,0-2.92-.84-2.92-2.18s.72-2.07,3-2.07h3.63v1.9A3.72,3.72,0,0,1,376.41,268.68Z" fill-rule="evenodd"/><path d="M55.93,300.25c3,0,4.77-1.3,4.77-3.3,0-4.44-7.5-2.09-7.5-5.21,0-1.1.93-1.92,3-1.92a6,6,0,0,1,3.41,1l.68-1.25a7.86,7.86,0,0,0-4.09-1.08c-2.95,0-4.58,1.41-4.58,3.3,0,4.58,7.5,2.2,7.5,5.21,0,1.15-.9,1.9-3.1,1.9a7,7,0,0,1-4.11-1.3l-.71,1.23A7.78,7.78,0,0,0,55.93,300.25Z" fill-rule="evenodd"/><path d="M68.32,300.25a5.89,5.89,0,1,0-5.9-5.9,5.69,5.69,0,0,0,5.9,5.9Zm0-1.39a4.52,4.52,0,1,1,4.29-4.51A4.24,4.24,0,0,1,68.32,298.86Z" fill-rule="evenodd"/><rect x="77.38" y="283.82" width="1.56" height="16.32"/><path d="M87.35,288.48A7.33,7.33,0,0,0,82.64,290l.7,1.17a5.9,5.9,0,0,1,3.85-1.37c2.16,0,3.28,1.08,3.28,3.06v.71H86.8c-3.33,0-4.47,1.49-4.47,3.27,0,2,1.61,3.37,4.22,3.37a4.37,4.37,0,0,0,4-1.91v1.8H92V293c0-3-1.69-4.49-4.68-4.49ZM86.8,299c-1.85,0-2.93-.84-2.93-2.18,0-1.19.73-2.07,3-2.07h3.63v1.89A3.7,3.7,0,0,1,86.8,299Z" fill-rule="evenodd"/><path d="M110.71,288.48a5.06,5.06,0,0,0-4.58,2.44,4.15,4.15,0,0,0-4.11-2.44,4.68,4.68,0,0,0-4.25,2.2v-2.11H96.28v11.57h1.56v-6.07c0-2.64,1.52-4.18,3.87-4.18,2.11,0,3.35,1.25,3.35,3.69v6.56h1.56v-6.07c0-2.64,1.49-4.18,3.87-4.18,2.09,0,3.32,1.25,3.32,3.69v6.56h1.56v-6.71C115.37,290.11,113.53,288.48,110.71,288.48Z" fill-rule="evenodd"/><path d="M129.76,294.35a5.51,5.51,0,0,0-5.61-5.87,5.57,5.57,0,0,0-5.65,5.87,6.12,6.12,0,0,0,10.54,4l-.88-1a4.58,4.58,0,0,1-3.55,1.51,4.28,4.28,0,0,1-4.55-4h9.68c0-.18,0-.35,0-.49Zm-5.61-4.53a4,4,0,0,1,4.12,3.85h-8.21A4,4,0,0,1,124.15,289.82Z" fill-rule="evenodd"/><path d="M138.85,288.48a4.85,4.85,0,0,0-4.4,2.22v-2.13H133v11.57h1.56v-6.07c0-2.64,1.57-4.18,4.05-4.18,2.2,0,3.48,1.25,3.48,3.69v6.56h1.56v-6.71C143.6,290.11,141.66,288.48,138.85,288.48Z" fill-rule="evenodd"/><path d="M153.39,298.31a2.58,2.58,0,0,1-1.72.6,1.86,1.86,0,0,1-2-2.11v-6.91h3.52v-1.32h-3.52V286h-1.56v2.53H146v1.32h2.07v7a3.07,3.07,0,0,0,3.39,3.37,3.72,3.72,0,0,0,2.44-.81Z" fill-rule="evenodd"/><path d="M166.46,294.35a5.52,5.52,0,0,0-5.61-5.87,5.57,5.57,0,0,0-5.66,5.87,6.12,6.12,0,0,0,10.54,4l-.88-1a4.55,4.55,0,0,1-3.54,1.51,4.27,4.27,0,0,1-4.55-4h9.68c0-.18,0-.35,0-.49Zm-5.61-4.53a4,4,0,0,1,4.11,3.85h-8.2A4,4,0,0,1,160.85,289.82Z" fill-rule="evenodd"/><path d="M179.46,288.48a7.35,7.35,0,0,0-4.71,1.56l.71,1.17a5.86,5.86,0,0,1,3.85-1.37c2.15,0,3.27,1.08,3.27,3.06v.71h-3.67c-3.32,0-4.47,1.49-4.47,3.27,0,2,1.61,3.37,4.23,3.37a4.36,4.36,0,0,0,4-1.91v1.8h1.5V293c0-3-1.7-4.49-4.69-4.49ZM178.91,299c-1.85,0-2.93-.84-2.93-2.18,0-1.19.73-2.07,3-2.07h3.63v1.89A3.69,3.69,0,0,1,178.91,299Z" fill-rule="evenodd"/><path d="M197.65,288.57v2.22a5.21,5.21,0,0,0-4.57-2.31,5.61,5.61,0,1,0,0,11.22,5.22,5.22,0,0,0,4.51-2.24v1.47c0,2.86-1.34,4.2-4.27,4.2a6.88,6.88,0,0,1-4.55-1.58l-.8,1.19a8.09,8.09,0,0,0,5.39,1.78c3.83,0,5.79-1.81,5.79-5.79V288.57Zm-4.42,9.74a4.24,4.24,0,1,1,4.4-4.24A4.13,4.13,0,0,1,193.23,298.31Z" fill-rule="evenodd"/><path d="M213.63,294.35a5.52,5.52,0,0,0-5.61-5.87,5.57,5.57,0,0,0-5.66,5.87,6.12,6.12,0,0,0,10.54,4l-.88-1a4.55,4.55,0,0,1-3.54,1.51,4.29,4.29,0,0,1-4.56-4h9.68c0-.18,0-.35,0-.49ZM208,289.82a4,4,0,0,1,4.11,3.85h-8.21A4,4,0,0,1,208,289.82Z" fill-rule="evenodd"/><path d="M222.71,288.48a4.86,4.86,0,0,0-4.4,2.22v-2.13h-1.49v11.57h1.56v-6.07c0-2.64,1.56-4.18,4.05-4.18,2.2,0,3.47,1.25,3.47,3.69v6.56h1.56v-6.71C227.46,290.11,225.53,288.48,222.71,288.48Z" fill-rule="evenodd"/><path d="M240.75,283.82v6.95a5,5,0,0,0-4.4-2.29,5.89,5.89,0,0,0,0,11.77,5,5,0,0,0,4.47-2.4v2.29h1.49V283.82Zm-4.27,15a4.52,4.52,0,1,1,4.29-4.51A4.24,4.24,0,0,1,236.48,298.86Z" fill-rule="evenodd"/><path d="M250.72,288.48A7.35,7.35,0,0,0,246,290l.7,1.17a5.9,5.9,0,0,1,3.85-1.37c2.16,0,3.28,1.08,3.28,3.06v.71h-3.67c-3.32,0-4.47,1.49-4.47,3.27,0,2,1.61,3.37,4.23,3.37a4.37,4.37,0,0,0,4-1.91v1.8h1.49V293c0-3-1.69-4.49-4.68-4.49ZM250.17,299c-1.85,0-2.93-.84-2.93-2.18,0-1.19.73-2.07,3-2.07h3.63v1.89A3.69,3.69,0,0,1,250.17,299Z" fill-rule="evenodd"/><path d="M261.15,290.83v-2.26h-1.5v11.57h1.56v-5.9c0-2.72,1.48-4.26,3.9-4.26l.37,0v-1.52C263.35,288.48,261.87,289.29,261.15,290.83Z" fill-rule="evenodd"/><polygon points="282.42 288.57 278.04 298.43 273.71 288.57 272.08 288.57 277.2 300.14 278.81 300.14 283.96 288.57 282.42 288.57" fill-rule="evenodd"/><path d="M287,286a1.13,1.13,0,0,0,1.15-1.15,1.15,1.15,0,0,0-2.29,0A1.13,1.13,0,0,0,287,286Zm-.79,14.1h1.56V288.57h-1.56Z" fill-rule="evenodd"/><path d="M295.18,300.25c3,0,4.77-1.3,4.77-3.3,0-4.44-7.5-2.09-7.5-5.21,0-1.1.93-1.92,3-1.92a5.94,5.94,0,0,1,3.4,1l.69-1.25a7.86,7.86,0,0,0-4.09-1.08c-3,0-4.58,1.41-4.58,3.3,0,4.58,7.5,2.2,7.5,5.21,0,1.15-.9,1.9-3.1,1.9a7.06,7.06,0,0,1-4.12-1.3l-.7,1.23A7.76,7.76,0,0,0,295.18,300.25Z" fill-rule="evenodd"/><path d="M303.63,286a1.12,1.12,0,0,0,1.14-1.15,1.11,1.11,0,0,0-1.14-1.07,1.11,1.11,0,1,0,0,2.22Zm-.8,14.1h1.57V288.57h-1.57Z" fill-rule="evenodd"/><path d="M314.3,298.31a2.58,2.58,0,0,1-1.72.6,1.85,1.85,0,0,1-2-2.11v-6.91h3.52v-1.32h-3.52V286H309v2.53H307v1.32H309v7a3.06,3.06,0,0,0,3.38,3.37,3.73,3.73,0,0,0,2.45-.81Z" fill-rule="evenodd"/><path d="M321.73,288.48A7.37,7.37,0,0,0,317,290l.71,1.17a5.86,5.86,0,0,1,3.85-1.37c2.16,0,3.28,1.08,3.28,3.06v.71h-3.68c-3.32,0-4.46,1.49-4.46,3.27,0,2,1.6,3.37,4.22,3.37a4.36,4.36,0,0,0,4-1.91v1.8h1.5V293c0-3-1.7-4.49-4.69-4.49ZM321.18,299c-1.85,0-2.92-.84-2.92-2.18,0-1.19.72-2.07,3-2.07h3.63v1.89A3.72,3.72,0,0,1,321.18,299Z" fill-rule="evenodd"/><path d="M333.77,300.25c3,0,4.77-1.3,4.77-3.3,0-4.44-7.5-2.09-7.5-5.21,0-1.1.92-1.92,3-1.92a6,6,0,0,1,3.41,1l.68-1.25a7.8,7.8,0,0,0-4.09-1.08c-2.95,0-4.57,1.41-4.57,3.3,0,4.58,7.5,2.2,7.5,5.21,0,1.15-.9,1.9-3.1,1.9a7.06,7.06,0,0,1-4.12-1.3l-.7,1.23A7.74,7.74,0,0,0,333.77,300.25Z" fill-rule="evenodd"/><path d="M352,300.25a5.08,5.08,0,0,0,4.53-2.29l-1.16-.79a3.91,3.91,0,0,1-3.37,1.69,4.51,4.51,0,0,1,0-9,3.93,3.93,0,0,1,3.37,1.72l1.16-.79a5,5,0,0,0-4.53-2.29,5.89,5.89,0,1,0,0,11.77Z" fill-rule="evenodd"/><path d="M364.1,300.25a5.89,5.89,0,1,0-5.89-5.9,5.69,5.69,0,0,0,5.89,5.9Zm0-1.39a4.52,4.52,0,1,1,4.29-4.51A4.24,4.24,0,0,1,364.1,298.86Z" fill-rule="evenodd"/><path d="M379.06,288.48a4.86,4.86,0,0,0-4.4,2.22v-2.13h-1.49v11.57h1.56v-6.07c0-2.64,1.56-4.18,4-4.18,2.2,0,3.47,1.25,3.47,3.69v6.56h1.57v-6.71C383.82,290.11,381.88,288.48,379.06,288.48Z" fill-rule="evenodd"/><path d="M84.25,318.82a5,5,0,0,0-4.46,2.37v-2.28h-1.5v15.84h1.56V328.3a5.06,5.06,0,0,0,4.4,2.29,5.89,5.89,0,0,0,0-11.77Zm-.11,10.38a4.51,4.51,0,1,1,4.32-4.51A4.24,4.24,0,0,1,84.14,329.2Z" fill-rule="evenodd"/><path d="M97.94,330.59a5.89,5.89,0,1,0-5.9-5.9,5.69,5.69,0,0,0,5.9,5.9Zm0-1.39a4.52,4.52,0,1,1,4.29-4.51A4.23,4.23,0,0,1,97.94,329.2Z" fill-rule="evenodd"/><path d="M112.55,328.65a2.58,2.58,0,0,1-1.72.6,1.85,1.85,0,0,1-2-2.12v-6.9h3.52v-1.32h-3.52v-2.53h-1.56v2.53H105.2v1.32h2.07v7a3.06,3.06,0,0,0,3.38,3.37,3.74,3.74,0,0,0,2.45-.82Z" fill-rule="evenodd"/><path d="M125.61,324.69a5.51,5.51,0,0,0-5.61-5.87,5.57,5.57,0,0,0-5.65,5.87,6.12,6.12,0,0,0,10.54,4l-.88-1a4.54,4.54,0,0,1-3.54,1.52,4.29,4.29,0,0,1-4.56-4h9.68c0-.18,0-.36,0-.49ZM120,320.16a4,4,0,0,1,4.12,3.85h-8.21A4,4,0,0,1,120,320.16Z" fill-rule="evenodd"/><path d="M134.7,318.82a4.86,4.86,0,0,0-4.4,2.22v-2.13h-1.5v11.57h1.57v-6.07c0-2.64,1.56-4.18,4-4.18,2.2,0,3.48,1.25,3.48,3.69v6.56h1.56v-6.71C139.45,320.45,137.52,318.82,134.7,318.82Z" fill-rule="evenodd"/><path d="M148.54,330.59a5.08,5.08,0,0,0,4.53-2.29l-1.17-.79a3.91,3.91,0,0,1-3.36,1.69,4.51,4.51,0,0,1,0-9,3.92,3.92,0,0,1,3.36,1.72l1.17-.79a5,5,0,0,0-4.53-2.29,5.89,5.89,0,1,0,0,11.77Z" fill-rule="evenodd"/><path d="M156.92,316.38a1.12,1.12,0,0,0,1.14-1.15,1.11,1.11,0,0,0-1.14-1.08,1.12,1.12,0,1,0,0,2.23Zm-.79,14.1h1.56V318.91h-1.56Z" fill-rule="evenodd"/><path d="M166.09,318.82a7.32,7.32,0,0,0-4.7,1.56l.7,1.17a5.88,5.88,0,0,1,3.85-1.37c2.16,0,3.28,1.08,3.28,3.06V324h-3.68c-3.32,0-4.46,1.49-4.46,3.27,0,2,1.6,3.37,4.22,3.37a4.33,4.33,0,0,0,4-1.92v1.81h1.5v-7.17c0-3-1.69-4.49-4.69-4.49Zm-.55,10.54c-1.84,0-2.92-.84-2.92-2.18s.72-2.07,3-2.07h3.63V327A3.72,3.72,0,0,1,165.54,329.36Z" fill-rule="evenodd"/><rect x="175.03" y="314.15" width="1.56" height="16.32"/><path d="M191,324.69a5.51,5.51,0,0,0-5.61-5.87,5.57,5.57,0,0,0-5.65,5.87,6.12,6.12,0,0,0,10.54,4l-.88-1a4.55,4.55,0,0,1-3.55,1.52,4.28,4.28,0,0,1-4.55-4H191c0-.18,0-.36,0-.49Zm-5.61-4.53a4,4,0,0,1,4.12,3.85h-8.21A4,4,0,0,1,185.43,320.16Z" fill-rule="evenodd"/><path d="M197.33,330.59c3,0,4.78-1.3,4.78-3.3,0-4.44-7.5-2.09-7.5-5.22,0-1.1.92-1.91,3-1.91a6,6,0,0,1,3.41,1l.68-1.25a7.83,7.83,0,0,0-4.09-1.08c-3,0-4.58,1.41-4.58,3.3,0,4.57,7.51,2.2,7.51,5.21,0,1.15-.91,1.89-3.11,1.89a7,7,0,0,1-4.11-1.29l-.7,1.23A7.73,7.73,0,0,0,197.33,330.59Z" fill-rule="evenodd"/><path d="M215.55,330.59a5.08,5.08,0,0,0,4.53-2.29l-1.16-.79a3.94,3.94,0,0,1-3.37,1.69,4.51,4.51,0,0,1,0-9,4,4,0,0,1,3.37,1.72l1.16-.79a5,5,0,0,0-4.53-2.29,5.89,5.89,0,1,0,0,11.77Z" fill-rule="evenodd"/><path d="M227.67,330.59a5.89,5.89,0,1,0-5.89-5.9,5.7,5.7,0,0,0,5.89,5.9Zm0-1.39a4.52,4.52,0,1,1,4.29-4.51A4.24,4.24,0,0,1,227.67,329.2Z" fill-rule="evenodd"/><path d="M251.17,318.82a5,5,0,0,0-4.58,2.44,4.15,4.15,0,0,0-4.11-2.44,4.68,4.68,0,0,0-4.25,2.2v-2.11h-1.49v11.57h1.56v-6.07c0-2.64,1.52-4.18,3.87-4.18,2.11,0,3.34,1.25,3.34,3.69v6.56h1.57v-6.07c0-2.64,1.49-4.18,3.87-4.18,2.09,0,3.32,1.25,3.32,3.69v6.56h1.56v-6.71C255.83,320.45,254,318.82,251.17,318.82Z" fill-rule="evenodd"/><path d="M266,318.82a5.05,5.05,0,0,0-4.47,2.37v-2.28h-1.49v15.84h1.56V328.3a5,5,0,0,0,4.4,2.29,5.89,5.89,0,0,0,0-11.77Zm-.11,10.38a4.51,4.51,0,1,1,4.31-4.51A4.24,4.24,0,0,1,265.93,329.2Z" fill-rule="evenodd"/><path d="M276.49,321.17v-2.26H275v11.57h1.57v-5.9c0-2.73,1.47-4.27,3.89-4.27.11,0,.24,0,.37,0v-1.52C278.69,318.82,277.22,319.63,276.49,321.17Z" fill-rule="evenodd"/><path d="M287.67,318.82a7.33,7.33,0,0,0-4.71,1.56l.7,1.17a5.9,5.9,0,0,1,3.85-1.37c2.16,0,3.28,1.08,3.28,3.06V324h-3.67c-3.33,0-4.47,1.49-4.47,3.27,0,2,1.61,3.37,4.22,3.37a4.36,4.36,0,0,0,4-1.92v1.81h1.49v-7.17c0-3-1.69-4.49-4.68-4.49Zm-.55,10.54c-1.85,0-2.93-.84-2.93-2.18s.73-2.07,3-2.07h3.63V327A3.7,3.7,0,0,1,287.12,329.36Z" fill-rule="evenodd"/><path d="M305.64,314.15v7a5,5,0,0,0-4.4-2.29,5.89,5.89,0,0,0,0,11.77,5,5,0,0,0,4.47-2.4v2.29h1.49V314.15Zm-4.27,15.05a4.52,4.52,0,1,1,4.29-4.51A4.24,4.24,0,0,1,301.37,329.2Z" fill-rule="evenodd"/><path d="M316.29,330.59a5.89,5.89,0,1,0-5.9-5.9,5.69,5.69,0,0,0,5.9,5.9Zm0-1.39a4.52,4.52,0,1,1,4.29-4.51A4.23,4.23,0,0,1,316.29,329.2Z" fill-rule="evenodd"/><path d="M326.85,321.17v-2.26h-1.5v11.57h1.56v-5.9c0-2.73,1.48-4.27,3.9-4.27.11,0,.24,0,.37,0v-1.52C329.05,318.82,327.57,319.63,326.85,321.17Z" fill-rule="evenodd"/><path d="M344,324.69a5.52,5.52,0,0,0-5.61-5.87,5.57,5.57,0,0,0-5.66,5.87,6.12,6.12,0,0,0,10.54,4l-.88-1a4.53,4.53,0,0,1-3.54,1.52,4.29,4.29,0,0,1-4.56-4H344c0-.18,0-.36,0-.49Zm-5.61-4.53a4,4,0,0,1,4.11,3.85h-8.21A4,4,0,0,1,338.38,320.16Z" fill-rule="evenodd"/><path d="M350.28,330.59c3,0,4.77-1.3,4.77-3.3,0-4.44-7.5-2.09-7.5-5.22,0-1.1.92-1.91,3-1.91a6,6,0,0,1,3.41,1l.69-1.25a7.87,7.87,0,0,0-4.1-1.08c-2.94,0-4.57,1.41-4.57,3.3,0,4.57,7.5,2.2,7.5,5.21,0,1.15-.9,1.89-3.1,1.89a7.06,7.06,0,0,1-4.12-1.29l-.7,1.23A7.76,7.76,0,0,0,350.28,330.59Z" fill-rule="evenodd"/><path d="M358.09,330.59a1.2,1.2,0,0,0,1.19-1.21,1.19,1.19,0,0,0-1.19-1.19,1.17,1.17,0,0,0-1.17,1.19A1.19,1.19,0,0,0,358.09,330.59Z" fill-rule="evenodd"/></svg>