<svg id="Capa_1" data-name="Capa 1" xmlns="http://www.w3.org/2000/svg" xmlns:xlink="http://www.w3.org/1999/xlink" width="154mm" height="154mm" viewBox="0 0 436.54 436.54"><defs><linearGradient id="GradientFill_3" x1="467.94" y1="287.59" x2="77.21" y2="179.1" gradientUnits="userSpaceOnUse"><stop offset="0" stop-color="#f3cf1c"/><stop offset="0.77" stop-color="#f4ae21"/><stop offset="1" stop-color="#f4ae21"/></linearGradient></defs><title>QUESITO AMARILLO CIRCULO 8</title><circle cx="218.27" cy="218.27" r="218.04" fill="url(#GradientFill_3)"/><path d="M150.45,74.87a7.52,7.52,0,0,0,5.66-2.26l-1-1a6,6,0,0,1-4.55,1.85,6.38,6.38,0,1,1,0-12.76,6.08,6.08,0,0,1,4.55,1.83l1-1a7.49,7.49,0,0,0-5.64-2.24,7.83,7.83,0,1,0,0,15.66Z" fill-rule="evenodd"/><path d="M163.48,74.85a5.89,5.89,0,1,0-5.9-5.9,5.69,5.69,0,0,0,5.9,5.9Zm0-1.39A4.52,4.52,0,1,1,167.77,69,4.24,4.24,0,0,1,163.48,73.46Z" fill-rule="evenodd"/><path d="M178.44,63.08A4.84,4.84,0,0,0,174,65.3V63.17h-1.5V74.74h1.56V68.67c0-2.64,1.56-4.18,4.05-4.18,2.2,0,3.48,1.25,3.48,3.69v6.56h1.56V68C183.19,64.71,181.25,63.08,178.44,63.08Z" fill-rule="evenodd"/><path d="M187.7,61.74v1.43h-2.07v1.32h2.07V74.74h1.56V64.49h3.52V63.17h-3.56V61.8c0-1.43.7-2.17,2-2.17a2.62,2.62,0,0,1,1.72.57l.53-1.17a3.72,3.72,0,0,0-2.31-.72,3.18,3.18,0,0,0-3.5,3.43Zm9.74-3.32a1.11,1.11,0,1,0,1.15,1.07,1.11,1.11,0,0,0-1.15-1.07Zm-.79,16.32h1.56V63.17h-1.56Z" fill-rule="evenodd"/><path d="M206.62,63.08a7.35,7.35,0,0,0-4.71,1.56l.7,1.17a5.9,5.9,0,0,1,3.85-1.37c2.16,0,3.28,1.08,3.28,3.06v.71h-3.67c-3.32,0-4.47,1.49-4.47,3.27,0,2,1.61,3.37,4.23,3.37a4.37,4.37,0,0,0,4-1.91v1.8h1.49V67.57c0-3-1.69-4.49-4.68-4.49Zm-.55,10.54c-1.85,0-2.93-.84-2.93-2.18,0-1.19.73-2.07,3-2.07h3.63v1.89A3.69,3.69,0,0,1,206.07,73.62Z" fill-rule="evenodd"/><path d="M230,63.08a5,5,0,0,0-4.57,2.44,4.16,4.16,0,0,0-4.12-2.44,4.66,4.66,0,0,0-4.24,2.2V63.17h-1.5V74.74h1.56V68.67c0-2.64,1.52-4.18,3.87-4.18,2.12,0,3.35,1.25,3.35,3.69v6.56h1.56V68.67c0-2.64,1.5-4.18,3.87-4.18,2.09,0,3.32,1.25,3.32,3.69v6.56h1.57V68C234.65,64.71,232.8,63.08,230,63.08Z" fill-rule="evenodd"/><path d="M243.67,74.85a5.89,5.89,0,1,0-5.9-5.9,5.69,5.69,0,0,0,5.9,5.9Zm0-1.39A4.52,4.52,0,1,1,248,69,4.24,4.24,0,0,1,243.67,73.46Z" fill-rule="evenodd"/><path d="M255.83,74.85c3,0,4.78-1.3,4.78-3.3,0-4.44-7.51-2.09-7.51-5.21,0-1.1.93-1.92,3-1.92a6,6,0,0,1,3.41,1l.68-1.25a7.86,7.86,0,0,0-4.09-1.08c-3,0-4.58,1.41-4.58,3.3,0,4.58,7.5,2.2,7.5,5.21,0,1.15-.9,1.9-3.1,1.9a7,7,0,0,1-4.11-1.3l-.71,1.23A7.78,7.78,0,0,0,255.83,74.85Z" fill-rule="evenodd"/><path d="M278.25,58.42v7a5,5,0,0,0-4.4-2.29,5.89,5.89,0,0,0,0,11.77,5,5,0,0,0,4.47-2.4v2.29h1.49V58.42Zm-4.27,15A4.52,4.52,0,1,1,278.27,69,4.24,4.24,0,0,1,274,73.46Z" fill-rule="evenodd"/><path d="M294.27,69a5.52,5.52,0,0,0-5.61-5.87A5.57,5.57,0,0,0,283,69a6.12,6.12,0,0,0,10.54,4l-.88-1a4.55,4.55,0,0,1-3.54,1.51,4.29,4.29,0,0,1-4.56-4h9.68c0-.18,0-.35,0-.49Zm-5.61-4.53a4,4,0,0,1,4.11,3.85h-8.21A4,4,0,0,1,288.66,64.42Z" fill-rule="evenodd"/><path d="M165.68,93.42a5,5,0,0,0-4.47,2.37V93.51h-1.5v15.84h1.57V102.9a5,5,0,0,0,4.4,2.29,5.89,5.89,0,0,0,0-11.77Zm-.11,10.38a4.51,4.51,0,1,1,4.31-4.51A4.24,4.24,0,0,1,165.57,103.8Z" fill-rule="evenodd"/><rect x="174.63" y="88.75" width="1.56" height="16.32"/><path d="M190.65,99.29A5.52,5.52,0,0,0,185,93.42a5.57,5.57,0,0,0-5.66,5.87,6.12,6.12,0,0,0,10.54,4l-.88-1a4.53,4.53,0,0,1-3.54,1.52,4.29,4.29,0,0,1-4.56-4h9.68c0-.18,0-.36,0-.49ZM185,94.76a4,4,0,0,1,4.11,3.85h-8.21A4,4,0,0,1,185,94.76Z" fill-rule="evenodd"/><path d="M199.73,93.42a4.86,4.86,0,0,0-4.4,2.22V93.51h-1.49v11.57h1.56V99c0-2.64,1.56-4.18,4-4.18,2.2,0,3.47,1.25,3.47,3.69v6.56h1.56V98.37C204.48,95.05,202.55,93.42,199.73,93.42Z" fill-rule="evenodd"/><path d="M213.5,105.19a5.89,5.89,0,1,0-5.89-5.9,5.7,5.7,0,0,0,5.89,5.9Zm0-1.39a4.52,4.52,0,1,1,4.29-4.51A4.24,4.24,0,0,1,213.5,103.8Z" fill-rule="evenodd"/><path d="M238.43,99.29a5.63,5.63,0,1,0-11.26,0,6.11,6.11,0,0,0,10.53,4l-.88-1a4.53,4.53,0,0,1-3.54,1.52,4.27,4.27,0,0,1-4.55-4h9.68c0-.18,0-.36,0-.49Zm-5.61-4.53a4,4,0,0,1,4.11,3.85h-8.2A4,4,0,0,1,232.82,94.76Z" fill-rule="evenodd"/><path d="M247.52,93.42a4.84,4.84,0,0,0-4.4,2.22V93.51h-1.5v11.57h1.56V99c0-2.64,1.56-4.18,4-4.18,2.2,0,3.48,1.25,3.48,3.69v6.56h1.56V98.37C252.27,95.05,250.33,93.42,247.52,93.42Z" fill-rule="evenodd"/><rect x="262.28" y="88.75" width="1.56" height="16.32"/><path d="M272.24,93.42a7.32,7.32,0,0,0-4.7,1.56l.7,1.17a5.88,5.88,0,0,1,3.85-1.37c2.16,0,3.28,1.08,3.28,3.06v.7h-3.68c-3.32,0-4.46,1.5-4.46,3.28,0,2,1.6,3.37,4.22,3.37a4.33,4.33,0,0,0,4-1.92v1.81h1.5V97.91c0-3-1.69-4.49-4.69-4.49ZM271.69,104c-1.84,0-2.92-.84-2.92-2.18,0-1.19.72-2.07,3-2.07h3.63v1.89A3.72,3.72,0,0,1,271.69,104Z" fill-rule="evenodd"/><path d="M61.47,123.76A5,5,0,0,0,57,126.13v-2.29h-1.5v15.84h1.56v-6.44a5.08,5.08,0,0,0,4.4,2.29,5.89,5.89,0,0,0,0-11.77Zm-.11,10.38a4.51,4.51,0,1,1,4.32-4.51A4.24,4.24,0,0,1,61.36,134.14Z" fill-rule="evenodd"/><path d="M71.92,126.11v-2.27H70.43v11.58H72v-5.9c0-2.73,1.47-4.27,3.89-4.27l.38,0v-1.51C74.12,123.76,72.65,124.57,71.92,126.11Z" fill-rule="evenodd"/><path d="M83.69,135.53a5.89,5.89,0,1,0-5.89-5.9,5.7,5.7,0,0,0,5.89,5.9Zm0-1.39A4.52,4.52,0,1,1,88,129.63,4.24,4.24,0,0,1,83.69,134.14Z" fill-rule="evenodd"/><path d="M96.59,120.3a2.65,2.65,0,0,1,1.71.57l.53-1.16a3.63,3.63,0,0,0-2.31-.73,3.19,3.19,0,0,0-3.5,3.43v1.43H91v1.32H93v10.26h1.56V125.16H98.1v-1.32H94.54v-1.36C94.54,121.05,95.24,120.3,96.59,120.3Z" fill-rule="evenodd"/><path d="M110.12,129.63a5.51,5.51,0,0,0-5.61-5.87,5.57,5.57,0,0,0-5.66,5.87,5.74,5.74,0,0,0,6.07,5.9,5.67,5.67,0,0,0,4.47-1.9l-.88-1a4.56,4.56,0,0,1-3.54,1.52,4.29,4.29,0,0,1-4.56-4h9.68c0-.17,0-.35,0-.48Zm-5.61-4.53a4,4,0,0,1,4.11,3.85h-8.21A4,4,0,0,1,104.51,125.1Z" fill-rule="evenodd"/><path d="M116.41,135.53c3,0,4.77-1.3,4.77-3.3,0-4.44-7.5-2.09-7.5-5.22,0-1.1.92-1.91,3-1.91a5.88,5.88,0,0,1,3.41,1l.69-1.26a7.86,7.86,0,0,0-4.1-1.07c-2.94,0-4.57,1.4-4.57,3.3,0,4.57,7.5,2.2,7.5,5.21,0,1.14-.9,1.89-3.1,1.89a7,7,0,0,1-4.12-1.3l-.7,1.24A7.76,7.76,0,0,0,116.41,135.53Z" fill-rule="evenodd"/><path d="M124.86,121.31a1.11,1.11,0,1,0,0-2.22,1.11,1.11,0,1,0,0,2.22Zm-.8,14.11h1.57V123.84h-1.57Z" fill-rule="evenodd"/><path d="M134.71,135.53a5.89,5.89,0,1,0-5.89-5.9,5.7,5.7,0,0,0,5.89,5.9Zm0-1.39a4.52,4.52,0,1,1,4.29-4.51A4.24,4.24,0,0,1,134.71,134.14Z" fill-rule="evenodd"/><path d="M149.67,123.76a4.86,4.86,0,0,0-4.4,2.22v-2.14h-1.49v11.58h1.56v-6.08c0-2.64,1.56-4.18,4-4.18,2.2,0,3.47,1.26,3.47,3.7v6.56h1.56v-6.71C154.42,125.38,152.49,123.76,149.67,123.76Z" fill-rule="evenodd"/><path d="M162.72,123.76a7.35,7.35,0,0,0-4.71,1.56l.7,1.16a5.94,5.94,0,0,1,3.85-1.36c2.16,0,3.28,1.08,3.28,3.06v.7h-3.67c-3.32,0-4.47,1.5-4.47,3.28,0,2,1.61,3.37,4.23,3.37a4.35,4.35,0,0,0,4-1.92v1.81h1.49v-7.18c0-3-1.69-4.48-4.68-4.48Zm-.55,10.53c-1.85,0-2.93-.83-2.93-2.17,0-1.19.73-2.07,3-2.07h3.63v1.89A3.69,3.69,0,0,1,162.17,134.29Z" fill-rule="evenodd"/><rect x="171.65" y="119.09" width="1.56" height="16.32"/><path d="M178.36,121.31a1.11,1.11,0,1,0-1.14-1.12,1.11,1.11,0,0,0,1.14,1.12Zm-.79,14.11h1.56V123.84h-1.56Z" fill-rule="evenodd"/><path d="M192.48,119.09v7a5,5,0,0,0-4.4-2.28,5.89,5.89,0,0,0,0,11.77,5,5,0,0,0,4.47-2.4v2.29h1.5V119.09Zm-4.26,15a4.52,4.52,0,1,1,4.29-4.51A4.24,4.24,0,0,1,188.22,134.14Z" fill-rule="evenodd"/><path d="M202.45,123.76a7.35,7.35,0,0,0-4.71,1.56l.71,1.16a5.9,5.9,0,0,1,3.85-1.36c2.15,0,3.27,1.08,3.27,3.06v.7H201.9c-3.32,0-4.47,1.5-4.47,3.28,0,2,1.61,3.37,4.23,3.37a4.34,4.34,0,0,0,4-1.92v1.81h1.5v-7.18c0-3-1.7-4.48-4.69-4.48Zm-.55,10.53c-1.85,0-2.93-.83-2.93-2.17,0-1.19.73-2.07,3-2.07h3.63v1.89A3.69,3.69,0,0,1,201.9,134.29Z" fill-rule="evenodd"/><path d="M220.42,119.09v7a5,5,0,0,0-4.4-2.28,5.89,5.89,0,0,0,0,11.77,5,5,0,0,0,4.47-2.4v2.29H222V119.09Zm-4.26,15a4.52,4.52,0,1,1,4.29-4.51A4.24,4.24,0,0,1,216.16,134.14Z" fill-rule="evenodd"/><path d="M241.1,119.09v7a5,5,0,0,0-4.4-2.28,5.89,5.89,0,0,0,0,11.77,5,5,0,0,0,4.47-2.4v2.29h1.5V119.09Zm-4.26,15a4.52,4.52,0,1,1,4.29-4.51A4.24,4.24,0,0,1,236.84,134.14Z" fill-rule="evenodd"/><path d="M257.12,129.63a5.51,5.51,0,0,0-5.61-5.87,5.57,5.57,0,0,0-5.65,5.87,5.73,5.73,0,0,0,6.07,5.9,5.67,5.67,0,0,0,4.46-1.9l-.88-1a4.56,4.56,0,0,1-3.54,1.52,4.28,4.28,0,0,1-4.55-4h9.68c0-.17,0-.35,0-.48Zm-5.61-4.53a4,4,0,0,1,4.11,3.85h-8.2A4,4,0,0,1,251.51,125.1Z" fill-rule="evenodd"/><path d="M276.17,129.63a5.51,5.51,0,0,0-5.61-5.87,5.57,5.57,0,0,0-5.65,5.87,6.11,6.11,0,0,0,10.54,4l-.88-1a4.58,4.58,0,0,1-3.55,1.52,4.29,4.29,0,0,1-4.55-4h9.68c0-.17,0-.35,0-.48Zm-5.61-4.53a4,4,0,0,1,4.12,3.85h-8.21A4,4,0,0,1,270.56,125.1Z" fill-rule="evenodd"/><path d="M282.46,135.53c3,0,4.78-1.3,4.78-3.3,0-4.44-7.5-2.09-7.5-5.22,0-1.1.92-1.91,3-1.91a5.88,5.88,0,0,1,3.41,1l.68-1.26a7.83,7.83,0,0,0-4.09-1.07c-2.95,0-4.58,1.4-4.58,3.3,0,4.57,7.51,2.2,7.51,5.21,0,1.14-.91,1.89-3.11,1.89a7,7,0,0,1-4.11-1.3l-.7,1.24A7.73,7.73,0,0,0,282.46,135.53Z" fill-rule="evenodd"/><path d="M295.66,133.59a2.54,2.54,0,0,1-1.71.59,1.85,1.85,0,0,1-2-2.11v-6.91h3.52v-1.32H292v-2.53h-1.57v2.53h-2.06v1.32h2.06v7a3.07,3.07,0,0,0,3.39,3.37,3.71,3.71,0,0,0,2.44-.82Z" fill-rule="evenodd"/><path d="M308.73,129.63a5.51,5.51,0,0,0-5.61-5.87,5.57,5.57,0,0,0-5.65,5.87,6.11,6.11,0,0,0,10.54,4l-.88-1a4.58,4.58,0,0,1-3.55,1.52,4.29,4.29,0,0,1-4.55-4h9.68c0-.17,0-.35,0-.48Zm-5.61-4.53a4,4,0,0,1,4.12,3.85H299A4,4,0,0,1,303.12,125.1Z" fill-rule="evenodd"/><path d="M320.79,135.53c3,0,4.77-1.3,4.77-3.3,0-4.44-7.5-2.09-7.5-5.22,0-1.1.92-1.91,3-1.91a5.88,5.88,0,0,1,3.41,1l.69-1.26a7.86,7.86,0,0,0-4.1-1.07c-2.94,0-4.57,1.4-4.57,3.3,0,4.57,7.5,2.2,7.5,5.21,0,1.14-.9,1.89-3.1,1.89a7,7,0,0,1-4.12-1.3l-.7,1.24A7.76,7.76,0,0,0,320.79,135.53Z" fill-rule="evenodd"/><path d="M338.54,129.63a5.51,5.51,0,0,0-5.61-5.87,5.57,5.57,0,0,0-5.65,5.87,6.11,6.11,0,0,0,10.54,4l-.88-1a4.58,4.58,0,0,1-3.55,1.52,4.29,4.29,0,0,1-4.55-4h9.68c0-.17,0-.35,0-.48Zm-5.61-4.53a4,4,0,0,1,4.12,3.85h-8.21A4,4,0,0,1,332.93,125.1Z" fill-rule="evenodd"/><path d="M346.53,135.53a5.11,5.11,0,0,0,4.53-2.29l-1.17-.79a3.91,3.91,0,0,1-3.36,1.69,4.51,4.51,0,0,1,0-9,3.92,3.92,0,0,1,3.36,1.72l1.17-.8a5.05,5.05,0,0,0-4.53-2.28,5.89,5.89,0,1,0,0,11.77Z" fill-rule="evenodd"/><path d="M359.79,133.59a2.54,2.54,0,0,1-1.71.59,1.85,1.85,0,0,1-2-2.11v-6.91h3.52v-1.32h-3.52v-2.53h-1.57v2.53h-2.06v1.32h2.06v7a3.07,3.07,0,0,0,3.39,3.37,3.71,3.71,0,0,0,2.44-.82Z" fill-rule="evenodd"/><path d="M367.49,135.53a5.89,5.89,0,1,0-5.89-5.9,5.7,5.7,0,0,0,5.89,5.9Zm0-1.39a4.52,4.52,0,1,1,4.29-4.51A4.24,4.24,0,0,1,367.49,134.14Z" fill-rule="evenodd"/><path d="M378.05,126.11v-2.27h-1.49v11.58h1.56v-5.9c0-2.73,1.47-4.27,3.89-4.27l.38,0v-1.51C380.25,123.76,378.78,124.57,378.05,126.11Z" fill-rule="evenodd"/><path d="M103,154.18,98.69,164l-4.36-9.84H92.7l5.17,11.55-.5,1.12c-.66,1.46-1.37,1.94-2.4,1.94a2.88,2.88,0,0,1-2.11-.88l-.73,1.17a4,4,0,0,0,2.82,1c1.65,0,2.88-.72,3.85-3l5.78-13Z" fill-rule="evenodd"/><path d="M122.64,160a5.51,5.51,0,0,0-5.61-5.88,5.58,5.58,0,0,0-5.65,5.88,6.12,6.12,0,0,0,10.54,4l-.88-1a4.58,4.58,0,0,1-3.54,1.52,4.29,4.29,0,0,1-4.56-4h9.68c0-.17,0-.35,0-.48ZM117,155.44a4,4,0,0,1,4.12,3.85h-8.21A4,4,0,0,1,117,155.44Z" fill-rule="evenodd"/><path d="M128.94,165.86c3,0,4.77-1.29,4.77-3.3,0-4.44-7.5-2.08-7.5-5.21,0-1.1.92-1.91,3-1.91a5.88,5.88,0,0,1,3.41,1l.68-1.26a7.8,7.8,0,0,0-4.09-1.08c-3,0-4.57,1.41-4.57,3.3,0,4.58,7.5,2.21,7.5,5.22,0,1.14-.9,1.89-3.1,1.89a7,7,0,0,1-4.12-1.3l-.7,1.23A7.67,7.67,0,0,0,128.94,165.86Z" fill-rule="evenodd"/><path d="M142.14,163.93a2.62,2.62,0,0,1-1.72.59,1.85,1.85,0,0,1-2-2.11V155.5h3.52v-1.32h-3.52v-2.53h-1.56v2.53h-2.07v1.32h2.07v7a3.06,3.06,0,0,0,3.38,3.36,3.73,3.73,0,0,0,2.45-.81Z" fill-rule="evenodd"/><path d="M149.57,154.09a7.38,7.38,0,0,0-4.71,1.57l.71,1.16a5.9,5.9,0,0,1,3.85-1.36c2.15,0,3.28,1.08,3.28,3.06v.7H149c-3.32,0-4.46,1.5-4.46,3.28,0,2,1.6,3.36,4.22,3.36a4.34,4.34,0,0,0,4-1.91v1.8h1.5v-7.17c0-3-1.7-4.49-4.69-4.49ZM149,164.63c-1.85,0-2.92-.83-2.92-2.18,0-1.18.72-2.06,3-2.06h3.63v1.89A3.71,3.71,0,0,1,149,164.63Z" fill-rule="evenodd"/><path d="M172.94,154.09a5,5,0,0,0-4.58,2.45,4.15,4.15,0,0,0-4.11-2.45,4.69,4.69,0,0,0-4.25,2.2v-2.11h-1.5v11.57h1.57v-6.07c0-2.64,1.51-4.18,3.87-4.18,2.11,0,3.34,1.26,3.34,3.7v6.55h1.56v-6.07c0-2.64,1.5-4.18,3.88-4.18,2.09,0,3.32,1.26,3.32,3.7v6.55h1.56V159C177.6,155.72,175.75,154.09,172.94,154.09Z" fill-rule="evenodd"/><path d="M186.62,165.86a5.89,5.89,0,1,0-5.9-5.89,5.68,5.68,0,0,0,5.9,5.89Zm0-1.38a4.52,4.52,0,1,1,4.29-4.51A4.24,4.24,0,0,1,186.62,164.48Z" fill-rule="evenodd"/><path d="M198.79,165.86c3,0,4.77-1.29,4.77-3.3,0-4.44-7.5-2.08-7.5-5.21,0-1.1.92-1.91,3-1.91a5.88,5.88,0,0,1,3.41,1l.68-1.26a7.8,7.8,0,0,0-4.09-1.08c-2.95,0-4.57,1.41-4.57,3.3,0,4.58,7.5,2.21,7.5,5.22,0,1.14-.9,1.89-3.1,1.89a7,7,0,0,1-4.12-1.3l-.7,1.23A7.67,7.67,0,0,0,198.79,165.86Z" fill-rule="evenodd"/><path d="M212.47,152.75v1.43H210.4v1.32h2.07v10.25H214V155.5h3.52v-1.32H214v-1.36c0-1.43.7-2.18,2-2.18a2.68,2.68,0,0,1,1.72.57l.53-1.16a3.63,3.63,0,0,0-2.31-.73,3.18,3.18,0,0,0-3.5,3.43Zm9.75-3.32a1.11,1.11,0,1,0,0,2.22,1.11,1.11,0,1,0,0-2.22Zm-.8,16.32H223V154.18h-1.57Z" fill-rule="evenodd"/><path d="M228.84,156.45v-2.27h-1.5v11.57h1.56v-5.89c0-2.73,1.48-4.27,3.9-4.27l.37,0v-1.52C231,154.09,229.56,154.91,228.84,156.45Z" fill-rule="evenodd"/><path d="M250.42,154.09a5,5,0,0,0-4.58,2.45,4.15,4.15,0,0,0-4.11-2.45,4.7,4.7,0,0,0-4.25,2.2v-2.11H236v11.57h1.56v-6.07c0-2.64,1.52-4.18,3.87-4.18,2.11,0,3.35,1.26,3.35,3.7v6.55h1.56v-6.07c0-2.64,1.49-4.18,3.87-4.18,2.09,0,3.32,1.26,3.32,3.7v6.55h1.56V159C255.08,155.72,253.24,154.09,250.42,154.09Z" fill-rule="evenodd"/><path d="M269.47,160a5.51,5.51,0,0,0-5.61-5.88,5.58,5.58,0,0,0-5.65,5.88,6.12,6.12,0,0,0,10.54,4l-.88-1a4.58,4.58,0,0,1-3.55,1.52,4.29,4.29,0,0,1-4.55-4h9.68c0-.17,0-.35,0-.48Zm-5.61-4.53a4,4,0,0,1,4.12,3.85h-8.21A4,4,0,0,1,263.86,155.44Z" fill-rule="evenodd"/><path d="M287.09,154.09a5,5,0,0,0-4.57,2.45,4.17,4.17,0,0,0-4.12-2.45,4.68,4.68,0,0,0-4.24,2.2v-2.11h-1.5v11.57h1.56v-6.07c0-2.64,1.52-4.18,3.88-4.18,2.11,0,3.34,1.26,3.34,3.7v6.55H283v-6.07c0-2.64,1.5-4.18,3.87-4.18,2.09,0,3.33,1.26,3.33,3.7v6.55h1.56V159C291.76,155.72,289.91,154.09,287.09,154.09Z" fill-rule="evenodd"/><path d="M306.15,160a5.52,5.52,0,0,0-5.61-5.88,5.58,5.58,0,0,0-5.66,5.88,6.12,6.12,0,0,0,10.54,4l-.88-1a4.56,4.56,0,0,1-3.54,1.52,4.29,4.29,0,0,1-4.56-4h9.68c0-.17,0-.35,0-.48Zm-5.61-4.53a4,4,0,0,1,4.11,3.85h-8.21A4,4,0,0,1,300.54,155.44Z" fill-rule="evenodd"/><path d="M315.23,154.09a4.87,4.87,0,0,0-4.4,2.23v-2.14h-1.49v11.57h1.56v-6.07c0-2.64,1.56-4.18,4.05-4.18,2.2,0,3.47,1.26,3.47,3.7v6.55H320V159C320,155.72,318.05,154.09,315.23,154.09Z" fill-rule="evenodd"/><path d="M329.77,163.93a2.59,2.59,0,0,1-1.71.59,1.85,1.85,0,0,1-2-2.11V155.5h3.52v-1.32h-3.52v-2.53h-1.57v2.53h-2.06v1.32h2.06v7a3.06,3.06,0,0,0,3.39,3.36,3.7,3.7,0,0,0,2.44-.81Z" fill-rule="evenodd"/><path d="M342.84,160a5.51,5.51,0,0,0-5.61-5.88,5.58,5.58,0,0,0-5.65,5.88,6.12,6.12,0,0,0,10.54,4l-.88-1a4.58,4.58,0,0,1-3.55,1.52,4.29,4.29,0,0,1-4.55-4h9.68c0-.17,0-.35,0-.48Zm-5.61-4.53a4,4,0,0,1,4.12,3.85h-8.21A4,4,0,0,1,337.23,155.44Z" fill-rule="evenodd"/><path d="M66.88,196.2a5.11,5.11,0,0,0,4.53-2.29l-1.17-.79a3.9,3.9,0,0,1-3.36,1.7,4.51,4.51,0,0,1,0-9,3.93,3.93,0,0,1,3.36,1.71l1.17-.79a5.06,5.06,0,0,0-4.53-2.29,5.89,5.89,0,1,0,0,11.77Z" fill-rule="evenodd"/><path d="M79,196.2a5.89,5.89,0,1,0-5.9-5.89A5.68,5.68,0,0,0,79,196.2Zm0-1.38a4.52,4.52,0,1,1,4.29-4.51A4.24,4.24,0,0,1,79,194.82Z" fill-rule="evenodd"/><path d="M94,184.43a4.87,4.87,0,0,0-4.4,2.22v-2.13h-1.5v11.57h1.56V190c0-2.64,1.56-4.18,4-4.18,2.2,0,3.48,1.25,3.48,3.7v6.55h1.56v-6.71C98.71,186.06,96.77,184.43,94,184.43Z" fill-rule="evenodd"/><polygon points="110.92 184.52 106.54 194.38 102.21 184.52 100.58 184.52 105.7 196.09 107.31 196.09 112.46 184.52 110.92 184.52" fill-rule="evenodd"/><path d="M124.43,190.31a5.52,5.52,0,0,0-5.61-5.88,5.58,5.58,0,0,0-5.66,5.88,6.12,6.12,0,0,0,10.54,4l-.88-1a4.56,4.56,0,0,1-3.54,1.52,4.29,4.29,0,0,1-4.56-4h9.68c0-.18,0-.35,0-.48Zm-5.61-4.54a4,4,0,0,1,4.11,3.85h-8.21A4,4,0,0,1,118.82,185.77Z" fill-rule="evenodd"/><path d="M133.51,184.43a4.89,4.89,0,0,0-4.4,2.22v-2.13h-1.49v11.57h1.56V190c0-2.64,1.56-4.18,4-4.18,2.2,0,3.47,1.25,3.47,3.7v6.55h1.56v-6.71C138.26,186.06,136.33,184.43,133.51,184.43Z" fill-rule="evenodd"/><path d="M147.35,196.2a5.08,5.08,0,0,0,4.53-2.29l-1.16-.79a3.93,3.93,0,0,1-3.37,1.7,4.51,4.51,0,0,1,0-9,4,4,0,0,1,3.37,1.71l1.16-.79a5,5,0,0,0-4.53-2.29,5.89,5.89,0,1,0,0,11.77Z" fill-rule="evenodd"/><path d="M155.73,182a1.13,1.13,0,0,0,1.15-1.14,1.11,1.11,0,0,0-1.15-1.08,1.11,1.11,0,1,0,0,2.22Zm-.79,14.1h1.56V184.52h-1.56Z" fill-rule="evenodd"/><path d="M169.86,179.77v6.95a5,5,0,0,0-4.4-2.29,5.89,5.89,0,0,0,0,11.77,5,5,0,0,0,4.46-2.4v2.29h1.5V179.77Zm-4.27,15a4.52,4.52,0,1,1,4.29-4.51A4.24,4.24,0,0,1,165.59,194.82Z" fill-rule="evenodd"/><path d="M180.5,196.2a5.89,5.89,0,1,0-5.89-5.89,5.69,5.69,0,0,0,5.89,5.89Zm0-1.38a4.52,4.52,0,1,1,4.29-4.51A4.24,4.24,0,0,1,180.5,194.82Z" fill-rule="evenodd"/><path d="M192.67,196.2c3,0,4.77-1.3,4.77-3.3,0-4.44-7.5-2.08-7.5-5.21,0-1.1.93-1.92,3-1.92a6,6,0,0,1,3.41,1l.68-1.25a7.86,7.86,0,0,0-4.09-1.08c-3,0-4.58,1.41-4.58,3.3,0,4.58,7.5,2.21,7.5,5.22,0,1.14-.9,1.89-3.1,1.89a6.94,6.94,0,0,1-4.11-1.3l-.71,1.23A7.72,7.72,0,0,0,192.67,196.2Z" fill-rule="evenodd"/><path d="M215.09,179.77v6.95a5,5,0,0,0-4.4-2.29,5.89,5.89,0,0,0,0,11.77,5,5,0,0,0,4.46-2.4v2.29h1.5V179.77Zm-4.27,15a4.52,4.52,0,1,1,4.29-4.51A4.24,4.24,0,0,1,210.82,194.82Z" fill-rule="evenodd"/><path d="M231.1,190.31a5.51,5.51,0,0,0-5.61-5.88,5.57,5.57,0,0,0-5.65,5.88,6.12,6.12,0,0,0,10.54,4l-.88-1a4.58,4.58,0,0,1-3.54,1.52,4.29,4.29,0,0,1-4.56-4h9.68c0-.18,0-.35,0-.48Zm-5.61-4.54a4,4,0,0,1,4.12,3.85H221.4A4,4,0,0,1,225.49,185.77Z" fill-rule="evenodd"/><path d="M249.12,184.52v2.29a5,5,0,0,0-4.46-2.38,5.89,5.89,0,0,0,0,11.77,5.06,5.06,0,0,0,4.4-2.29v6.45h1.56V184.52Zm-4.33,10.3a4.52,4.52,0,1,1,4.29-4.51A4.24,4.24,0,0,1,244.79,194.82Z" fill-rule="evenodd"/><path d="M263.84,184.52v6.07c0,2.64-1.52,4.2-3.94,4.2-2.2,0-3.47-1.25-3.47-3.71v-6.56h-1.57v6.71c0,3.32,1.94,5,4.89,5a4.61,4.61,0,0,0,4.16-2.22v2.11h1.49V184.52Z" fill-rule="evenodd"/><path d="M279.88,190.31a5.52,5.52,0,0,0-5.61-5.88,5.58,5.58,0,0,0-5.66,5.88,6.12,6.12,0,0,0,10.54,4l-.88-1a4.56,4.56,0,0,1-3.54,1.52,4.28,4.28,0,0,1-4.55-4h9.68c0-.18,0-.35,0-.48Zm-5.61-4.54a4,4,0,0,1,4.11,3.85h-8.2A4,4,0,0,1,274.27,185.77Z" fill-rule="evenodd"/><rect x="288.83" y="179.77" width="1.56" height="16.32"/><path d="M298.8,184.43a7.35,7.35,0,0,0-4.71,1.56l.7,1.17a5.89,5.89,0,0,1,3.85-1.36c2.16,0,3.28,1.07,3.28,3v.71h-3.67c-3.32,0-4.47,1.49-4.47,3.28,0,2,1.61,3.36,4.23,3.36a4.35,4.35,0,0,0,4-1.91v1.8h1.49v-7.17c0-3-1.69-4.49-4.68-4.49ZM298.25,195c-1.85,0-2.93-.84-2.93-2.18,0-1.19.73-2.07,3-2.07h3.63v1.9A3.7,3.7,0,0,1,298.25,195Z" fill-rule="evenodd"/><path d="M327.93,184.43a5.06,5.06,0,0,0-4.58,2.44,4.16,4.16,0,0,0-4.11-2.44,4.69,4.69,0,0,0-4.25,2.2v-2.11h-1.5v11.57h1.57V190c0-2.64,1.51-4.18,3.87-4.18,2.11,0,3.34,1.25,3.34,3.7v6.55h1.56V190c0-2.64,1.5-4.18,3.88-4.18,2.09,0,3.32,1.25,3.32,3.7v6.55h1.56v-6.71C332.59,186.06,330.74,184.43,327.93,184.43Z" fill-rule="evenodd"/><path d="M347,190.31a5.52,5.52,0,0,0-5.61-5.88,5.58,5.58,0,0,0-5.66,5.88,6.12,6.12,0,0,0,10.54,4l-.88-1a4.56,4.56,0,0,1-3.54,1.52,4.28,4.28,0,0,1-4.55-4H347c0-.18,0-.35,0-.48Zm-5.61-4.54a4,4,0,0,1,4.11,3.85h-8.2A4,4,0,0,1,341.37,185.77Z" fill-rule="evenodd"/><path d="M351.07,182a1.12,1.12,0,0,0,1.14-1.14,1.1,1.1,0,0,0-1.14-1.08,1.11,1.11,0,1,0,0,2.22Zm-2.62,18.48a3.17,3.17,0,0,0,3.39-3.52V184.52h-1.56V197c0,1.43-.68,2.18-1.92,2.18a2.68,2.68,0,0,1-1.8-.6l-.55,1.19A3.78,3.78,0,0,0,348.45,200.47Z" fill-rule="evenodd"/><path d="M360.93,196.2a5.89,5.89,0,1,0-5.9-5.89,5.69,5.69,0,0,0,5.9,5.89Zm0-1.38a4.52,4.52,0,1,1,4.29-4.51A4.24,4.24,0,0,1,360.93,194.82Z" fill-rule="evenodd"/><path d="M371.49,186.79v-2.27H370v11.57h1.56V190.2c0-2.73,1.48-4.27,3.9-4.27l.37,0v-1.52C373.69,184.43,372.21,185.25,371.49,186.79Z" fill-rule="evenodd"/><path d="M64.53,226.54a5.89,5.89,0,1,0-5.89-5.9,5.69,5.69,0,0,0,5.89,5.9Zm0-1.39a4.52,4.52,0,1,1,4.29-4.51A4.24,4.24,0,0,1,64.53,225.15Z" fill-rule="evenodd"/><path d="M79.56,214.77a5,5,0,0,0-4.47,2.38v-2.29H73.6V230.7h1.56v-6.45a5,5,0,0,0,4.4,2.29,5.89,5.89,0,0,0,0-11.77Zm-.11,10.38a4.51,4.51,0,1,1,4.31-4.51A4.23,4.23,0,0,1,79.45,225.15Z" fill-rule="evenodd"/><path d="M93.31,226.54a5.08,5.08,0,0,0,4.53-2.29l-1.17-.79a3.89,3.89,0,0,1-3.36,1.69,4.51,4.51,0,0,1,0-9,3.92,3.92,0,0,1,3.36,1.72l1.17-.79a5,5,0,0,0-4.53-2.29,5.89,5.89,0,1,0,0,11.77Z" fill-rule="evenodd"/><path d="M101.69,212.33a1.12,1.12,0,0,0,1.14-1.15,1.1,1.1,0,0,0-1.14-1.07,1.11,1.11,0,1,0,0,2.22Zm-.79,14.1h1.56V214.86H100.9Z" fill-rule="evenodd"/><path d="M110.09,213.08h1.54l3.57-2.73h-2.09l-3,2.73Zm1.46,13.46a5.89,5.89,0,1,0-5.9-5.9,5.69,5.69,0,0,0,5.9,5.9Zm0-1.39a4.52,4.52,0,1,1,4.29-4.51A4.24,4.24,0,0,1,111.55,225.15Z" fill-rule="evenodd"/><path d="M126.51,214.77a4.84,4.84,0,0,0-4.4,2.22v-2.13h-1.5v11.57h1.56v-6.07c0-2.64,1.56-4.18,4-4.18,2.2,0,3.48,1.25,3.48,3.69v6.56h1.56v-6.71C131.26,216.4,129.32,214.77,126.51,214.77Z" fill-rule="evenodd"/><path d="M145.32,214.77a7.33,7.33,0,0,0-4.71,1.56l.7,1.17a5.9,5.9,0,0,1,3.85-1.37c2.16,0,3.28,1.08,3.28,3.06v.71h-3.67c-3.33,0-4.47,1.49-4.47,3.27,0,2,1.61,3.37,4.22,3.37a4.37,4.37,0,0,0,4-1.91v1.8H150v-7.17c0-3-1.69-4.49-4.68-4.49Zm-.55,10.54c-1.85,0-2.93-.84-2.93-2.18,0-1.19.73-2.07,3-2.07h3.63V223A3.7,3.7,0,0,1,144.77,225.31Z" fill-rule="evenodd"/><rect x="160.01" y="210.11" width="1.56" height="16.32"/><path d="M170,214.77a7.35,7.35,0,0,0-4.71,1.56l.7,1.17a5.9,5.9,0,0,1,3.85-1.37c2.16,0,3.28,1.08,3.28,3.06v.71h-3.67c-3.32,0-4.47,1.49-4.47,3.27,0,2,1.61,3.37,4.23,3.37a4.37,4.37,0,0,0,4-1.91v1.8h1.49v-7.17c0-3-1.69-4.49-4.68-4.49Zm-.55,10.54c-1.85,0-2.93-.84-2.93-2.18,0-1.19.73-2.07,3-2.07h3.63V223A3.69,3.69,0,0,1,169.43,225.31Z" fill-rule="evenodd"/><path d="M190.57,214.77a4.87,4.87,0,0,0-4.33,2.11v-6.77h-1.57v16.32h1.57v-6.07c0-2.64,1.56-4.18,4-4.18,2.2,0,3.48,1.25,3.48,3.69v6.56h1.56v-6.71C195.32,216.4,193.39,214.77,190.57,214.77Z" fill-rule="evenodd"/><path d="M204.34,226.54a5.89,5.89,0,1,0-5.89-5.9,5.69,5.69,0,0,0,5.89,5.9Zm0-1.39a4.52,4.52,0,1,1,4.29-4.51A4.24,4.24,0,0,1,204.34,225.15Z" fill-rule="evenodd"/><path d="M214.9,217.12v-2.26h-1.49v11.57H215v-5.9c0-2.72,1.47-4.26,3.89-4.26l.38,0v-1.52C217.1,214.77,215.63,215.58,214.9,217.12Z" fill-rule="evenodd"/><path d="M226.08,214.77a7.35,7.35,0,0,0-4.71,1.56l.7,1.17a5.9,5.9,0,0,1,3.85-1.37c2.16,0,3.28,1.08,3.28,3.06v.71h-3.67c-3.32,0-4.47,1.49-4.47,3.27,0,2,1.61,3.37,4.23,3.37a4.37,4.37,0,0,0,4-1.91v1.8h1.49v-7.17c0-3-1.69-4.49-4.68-4.49Zm-.55,10.54c-1.85,0-2.93-.84-2.93-2.18,0-1.19.73-2.07,3-2.07h3.63V223A3.69,3.69,0,0,1,225.53,225.31Z" fill-rule="evenodd"/><path d="M249.77,210.11v6.95a5,5,0,0,0-4.4-2.29,5.89,5.89,0,0,0,0,11.77,5,5,0,0,0,4.47-2.4v2.29h1.49V210.11Zm-4.27,15a4.52,4.52,0,1,1,4.29-4.51A4.24,4.24,0,0,1,245.5,225.15Z" fill-rule="evenodd"/><path d="M265.79,220.64a5.52,5.52,0,0,0-5.61-5.87,5.57,5.57,0,0,0-5.66,5.87,6.12,6.12,0,0,0,10.54,4l-.88-1a4.55,4.55,0,0,1-3.54,1.51,4.27,4.27,0,0,1-4.55-4h9.68c0-.18,0-.35,0-.49Zm-5.61-4.53a4,4,0,0,1,4.11,3.85h-8.2A4,4,0,0,1,260.18,216.11Z" fill-rule="evenodd"/><polygon points="282.93 214.86 278.55 224.71 274.21 214.86 272.58 214.86 277.71 226.43 279.32 226.43 284.46 214.86 282.93 214.86" fill-rule="evenodd"/><path d="M296.43,220.64a5.51,5.51,0,0,0-5.61-5.87,5.57,5.57,0,0,0-5.65,5.87,6.12,6.12,0,0,0,10.54,4l-.88-1a4.57,4.57,0,0,1-3.54,1.51,4.29,4.29,0,0,1-4.56-4h9.68c0-.18,0-.35,0-.49Zm-5.61-4.53a4,4,0,0,1,4.12,3.85h-8.21A4,4,0,0,1,290.82,216.11Z" fill-rule="evenodd"/><path d="M305.52,214.77a4.85,4.85,0,0,0-4.4,2.22v-2.13h-1.5v11.57h1.57v-6.07c0-2.64,1.56-4.18,4-4.18,2.2,0,3.48,1.25,3.48,3.69v6.56h1.56v-6.71C310.27,216.4,308.33,214.77,305.52,214.77Z" fill-rule="evenodd"/><path d="M323.56,210.11v6.95a5,5,0,0,0-4.4-2.29,5.89,5.89,0,0,0,0,11.77,5,5,0,0,0,4.46-2.4v2.29h1.5V210.11Zm-4.27,15a4.52,4.52,0,1,1,4.29-4.51A4.24,4.24,0,0,1,319.29,225.15Z" fill-rule="evenodd"/><path d="M339.57,220.64a5.51,5.51,0,0,0-5.61-5.87,5.57,5.57,0,0,0-5.65,5.87,6.12,6.12,0,0,0,10.54,4l-.88-1a4.57,4.57,0,0,1-3.54,1.51,4.29,4.29,0,0,1-4.56-4h9.68c0-.18,0-.35,0-.49ZM334,216.11a4,4,0,0,1,4.12,3.85h-8.21A4,4,0,0,1,334,216.11Z" fill-rule="evenodd"/><path d="M344.26,217.12v-2.26h-1.5v11.57h1.57v-5.9c0-2.72,1.47-4.26,3.89-4.26l.37,0v-1.52C346.46,214.77,345,215.58,344.26,217.12Z" fill-rule="evenodd"/><path d="M362.89,224.6a2.55,2.55,0,0,1-1.71.6,1.85,1.85,0,0,1-2-2.11v-6.91h3.52v-1.32h-3.52v-2.53h-1.57v2.53h-2.06v1.32h2.06v7a3.07,3.07,0,0,0,3.39,3.37,3.7,3.7,0,0,0,2.44-.81Z" fill-rule="evenodd"/><path d="M375.15,214.86v6.07c0,2.64-1.52,4.2-3.94,4.2-2.2,0-3.48-1.25-3.48-3.72v-6.55h-1.56v6.71c0,3.32,1.94,5,4.89,5a4.59,4.59,0,0,0,4.15-2.22v2.11h1.5V214.86Z" fill-rule="evenodd"/><polygon points="57.06 245.2 52.69 255.05 48.35 245.2 46.72 245.2 51.85 256.77 53.45 256.77 58.6 245.2 57.06 245.2" fill-rule="evenodd"/><path d="M61.59,242.67a1.12,1.12,0,1,0-1.14-1.13,1.14,1.14,0,0,0,1.14,1.13Zm-.79,14.1h1.57V245.2H60.8Z" fill-rule="evenodd"/><polygon points="74.91 245.2 70.53 255.05 66.19 245.2 64.56 245.2 69.69 256.77 71.3 256.77 76.44 245.2 74.91 245.2" fill-rule="evenodd"/><path d="M79.44,242.67a1.12,1.12,0,1,0-1.15-1.13,1.14,1.14,0,0,0,1.15,1.13Zm-.8,14.1h1.57V245.2H78.64Z" fill-rule="evenodd"/><path d="M94.66,251a5.63,5.63,0,1,0-11.26,0,6.11,6.11,0,0,0,10.53,4l-.88-1a4.53,4.53,0,0,1-3.54,1.52,4.27,4.27,0,0,1-4.55-4h9.68c0-.18,0-.36,0-.49Zm-5.61-4.53a4,4,0,0,1,4.11,3.85H85A4,4,0,0,1,89.05,246.45Z" fill-rule="evenodd"/><path d="M103.75,245.11a4.84,4.84,0,0,0-4.4,2.22V245.2h-1.5v11.57h1.56V250.7c0-2.64,1.56-4.18,4-4.18,2.2,0,3.48,1.25,3.48,3.69v6.56h1.56v-6.71C108.5,246.74,106.56,245.11,103.75,245.11Z" fill-rule="evenodd"/><path d="M121.79,240.44v7a5.06,5.06,0,0,0-4.4-2.29,5.89,5.89,0,0,0,0,11.77,5,5,0,0,0,4.46-2.4v2.29h1.5V240.44Zm-4.27,15.05a4.52,4.52,0,1,1,4.29-4.51A4.23,4.23,0,0,1,117.52,255.49Z" fill-rule="evenodd"/><path d="M131.75,245.11a7.37,7.37,0,0,0-4.71,1.56l.71,1.17a5.86,5.86,0,0,1,3.85-1.37c2.15,0,3.28,1.08,3.28,3.06v.7H131.2c-3.32,0-4.46,1.5-4.46,3.28,0,2,1.6,3.37,4.22,3.37a4.34,4.34,0,0,0,4-1.92v1.81h1.5V249.6c0-3-1.7-4.49-4.69-4.49Zm-.55,10.54c-1.85,0-2.92-.84-2.92-2.18,0-1.19.72-2.07,3-2.07h3.63v1.89A3.72,3.72,0,0,1,131.2,255.65Z" fill-rule="evenodd"/><path d="M156.55,251a5.52,5.52,0,0,0-5.61-5.87,5.57,5.57,0,0,0-5.66,5.87,6.12,6.12,0,0,0,10.54,4l-.88-1a4.53,4.53,0,0,1-3.54,1.52,4.29,4.29,0,0,1-4.56-4h9.68c0-.18,0-.36,0-.49Zm-5.61-4.53a4,4,0,0,1,4.11,3.85h-8.21A4,4,0,0,1,150.94,246.45Z" fill-rule="evenodd"/><path d="M162.84,256.88c3,0,4.77-1.3,4.77-3.3,0-4.44-7.5-2.09-7.5-5.22,0-1.1.92-1.91,3-1.91a6,6,0,0,1,3.41,1l.69-1.25a7.87,7.87,0,0,0-4.1-1.08c-2.94,0-4.57,1.41-4.57,3.3,0,4.57,7.5,2.2,7.5,5.21,0,1.15-.9,1.89-3.1,1.89a7.06,7.06,0,0,1-4.12-1.29l-.7,1.23A7.76,7.76,0,0,0,162.84,256.88Z" fill-rule="evenodd"/><rect x="176.26" y="240.44" width="1.56" height="16.32"/><path d="M186.22,245.11a7.32,7.32,0,0,0-4.7,1.56l.7,1.17a5.88,5.88,0,0,1,3.85-1.37c2.16,0,3.28,1.08,3.28,3.06v.7h-3.68c-3.32,0-4.46,1.5-4.46,3.28,0,2,1.6,3.37,4.22,3.37a4.33,4.33,0,0,0,4-1.92v1.81h1.5V249.6c0-3-1.69-4.49-4.69-4.49Zm-.55,10.54c-1.84,0-2.92-.84-2.92-2.18,0-1.19.72-2.07,3-2.07h3.63v1.89A3.72,3.72,0,0,1,185.67,255.65Z" fill-rule="evenodd"/><path d="M209.92,240.44v7a5,5,0,0,0-4.4-2.29,5.89,5.89,0,0,0,0,11.77,5,5,0,0,0,4.46-2.4v2.29h1.5V240.44Zm-4.27,15.05a4.52,4.52,0,1,1,4.29-4.51A4.24,4.24,0,0,1,205.65,255.49Z" fill-rule="evenodd"/><path d="M225.93,251a5.51,5.51,0,0,0-5.61-5.87,5.57,5.57,0,0,0-5.65,5.87,6.12,6.12,0,0,0,10.54,4l-.88-1a4.54,4.54,0,0,1-3.54,1.52,4.29,4.29,0,0,1-4.56-4h9.68c0-.18,0-.36,0-.49Zm-5.61-4.53a4,4,0,0,1,4.12,3.85h-8.21A4,4,0,0,1,220.32,246.45Z" fill-rule="evenodd"/><path d="M239.68,256.88a5.11,5.11,0,0,0,4.54-2.29l-1.17-.79a3.92,3.92,0,0,1-3.37,1.69,4.51,4.51,0,0,1,0-9,3.92,3.92,0,0,1,3.37,1.72l1.17-.79a5.07,5.07,0,0,0-4.54-2.29,5.89,5.89,0,1,0,0,11.77Z" fill-rule="evenodd"/><path d="M251.81,256.88a5.89,5.89,0,1,0-5.9-5.9,5.7,5.7,0,0,0,5.9,5.9Zm0-1.39A4.52,4.52,0,1,1,256.1,251,4.24,4.24,0,0,1,251.81,255.49Z" fill-rule="evenodd"/><path d="M266.77,245.11a4.84,4.84,0,0,0-4.4,2.22V245.2h-1.5v11.57h1.56V250.7c0-2.64,1.56-4.18,4.05-4.18,2.2,0,3.48,1.25,3.48,3.69v6.56h1.56v-6.71C271.52,246.74,269.58,245.11,266.77,245.11Z" fill-rule="evenodd"/><path d="M281.31,254.94a2.58,2.58,0,0,1-1.72.6,1.85,1.85,0,0,1-2-2.12v-6.9h3.52V245.2h-3.52v-2.53H276v2.53H274v1.32H276v7a3.07,3.07,0,0,0,3.39,3.37,3.73,3.73,0,0,0,2.44-.82Z" fill-rule="evenodd"/><path d="M286.19,247.46V245.2H284.7v11.57h1.56v-5.9c0-2.73,1.47-4.27,3.89-4.27.11,0,.24,0,.38,0v-1.52C288.39,245.11,286.92,245.92,286.19,247.46Z" fill-rule="evenodd"/><path d="M297.37,245.11a7.35,7.35,0,0,0-4.71,1.56l.7,1.17a5.9,5.9,0,0,1,3.85-1.37c2.16,0,3.28,1.08,3.28,3.06v.7h-3.67c-3.32,0-4.47,1.5-4.47,3.28,0,2,1.61,3.37,4.23,3.37a4.35,4.35,0,0,0,4-1.92v1.81h1.49V249.6c0-3-1.69-4.49-4.68-4.49Zm-.55,10.54c-1.85,0-2.93-.84-2.93-2.18,0-1.19.73-2.07,3-2.07h3.63v1.89A3.69,3.69,0,0,1,296.82,255.65Z" fill-rule="evenodd"/><path d="M311.84,254.94a2.55,2.55,0,0,1-1.71.6,1.85,1.85,0,0,1-2-2.12v-6.9h3.52V245.2h-3.52v-2.53h-1.57v2.53H304.5v1.32h2.06v7a3.07,3.07,0,0,0,3.39,3.37,3.71,3.71,0,0,0,2.44-.82Z" fill-rule="evenodd"/><path d="M319.28,245.11a7.35,7.35,0,0,0-4.71,1.56l.71,1.17a5.86,5.86,0,0,1,3.85-1.37c2.15,0,3.27,1.08,3.27,3.06v.7h-3.67c-3.32,0-4.47,1.5-4.47,3.28,0,2,1.61,3.37,4.23,3.37a4.34,4.34,0,0,0,4-1.92v1.81H324V249.6c0-3-1.7-4.49-4.69-4.49Zm-.55,10.54c-1.85,0-2.93-.84-2.93-2.18,0-1.19.73-2.07,3-2.07h3.63v1.89A3.69,3.69,0,0,1,318.73,255.65Z" fill-rule="evenodd"/><path d="M329.71,247.46V245.2h-1.5v11.57h1.56v-5.9c0-2.73,1.48-4.27,3.9-4.27.11,0,.24,0,.37,0v-1.52C331.91,245.11,330.43,245.92,329.71,247.46Z" fill-rule="evenodd"/><path d="M346.85,245.11a7.33,7.33,0,0,0-4.71,1.56l.7,1.17a5.9,5.9,0,0,1,3.85-1.37c2.16,0,3.28,1.08,3.28,3.06v.7H346.3c-3.33,0-4.47,1.5-4.47,3.28,0,2,1.61,3.37,4.22,3.37a4.36,4.36,0,0,0,4-1.92v1.81h1.49V249.6c0-3-1.69-4.49-4.68-4.49Zm-.55,10.54c-1.85,0-2.93-.84-2.93-2.18,0-1.19.73-2.07,3-2.07H350v1.89A3.7,3.7,0,0,1,346.3,255.65Z" fill-rule="evenodd"/><rect x="361.54" y="240.44" width="1.56" height="16.32"/><path d="M372.19,256.88a5.89,5.89,0,1,0-5.9-5.9,5.69,5.69,0,0,0,5.9,5.9Zm0-1.39a4.52,4.52,0,1,1,4.29-4.51A4.24,4.24,0,0,1,372.19,255.49Z" fill-rule="evenodd"/><path d="M384.36,256.88c3,0,4.77-1.3,4.77-3.3,0-4.44-7.5-2.09-7.5-5.22,0-1.1.92-1.91,3-1.91a6,6,0,0,1,3.41,1l.68-1.25a7.8,7.8,0,0,0-4.09-1.08c-2.95,0-4.57,1.41-4.57,3.3,0,4.57,7.5,2.2,7.5,5.21,0,1.15-.9,1.89-3.1,1.89a7.06,7.06,0,0,1-4.12-1.29l-.7,1.23A7.74,7.74,0,0,0,384.36,256.88Z" fill-rule="evenodd"/><path d="M58.61,275.45A5,5,0,0,0,54,277.89a4.16,4.16,0,0,0-4.12-2.44,4.66,4.66,0,0,0-4.24,2.2v-2.12h-1.5v11.58h1.56V281c0-2.64,1.52-4.18,3.88-4.18,2.11,0,3.34,1.26,3.34,3.7v6.56h1.56V281c0-2.64,1.5-4.18,3.87-4.18,2.09,0,3.33,1.26,3.33,3.7v6.56h1.56V280.4C63.28,277.07,61.43,275.45,58.61,275.45Z" fill-rule="evenodd"/><path d="M77.67,281.32a5.51,5.51,0,0,0-5.61-5.87,5.57,5.57,0,0,0-5.66,5.87,5.74,5.74,0,0,0,6.07,5.9,5.67,5.67,0,0,0,4.47-1.9l-.88-1a4.56,4.56,0,0,1-3.54,1.52,4.29,4.29,0,0,1-4.56-4h9.68c0-.17,0-.35,0-.48Zm-5.61-4.53a4,4,0,0,1,4.11,3.85H68A4,4,0,0,1,72.06,276.79Z" fill-rule="evenodd"/><path d="M81.76,273a1.11,1.11,0,1,0,0-2.22,1.11,1.11,0,1,0,0,2.22Zm-2.62,18.48A3.17,3.17,0,0,0,82.53,288V275.53H81V288c0,1.43-.69,2.18-1.92,2.18a2.73,2.73,0,0,1-1.8-.59l-.55,1.19A3.83,3.83,0,0,0,79.14,291.48Z" fill-rule="evenodd"/><path d="M91.61,287.22a5.89,5.89,0,1,0-5.89-5.9,5.7,5.7,0,0,0,5.89,5.9Zm0-1.39a4.52,4.52,0,1,1,4.29-4.51A4.24,4.24,0,0,1,91.61,285.83Z" fill-rule="evenodd"/><path d="M102.17,277.8v-2.27h-1.49v11.58h1.56v-5.9c0-2.73,1.47-4.27,3.89-4.27l.38,0v-1.51C104.37,275.45,102.9,276.26,102.17,277.8Z" fill-rule="evenodd"/><path d="M119.31,281.32a5.51,5.51,0,0,0-5.61-5.87,5.57,5.57,0,0,0-5.65,5.87,6.11,6.11,0,0,0,10.54,4l-.88-1a4.58,4.58,0,0,1-3.55,1.52,4.29,4.29,0,0,1-4.55-4h9.68c0-.17,0-.35,0-.48Zm-5.61-4.53a4,4,0,0,1,4.12,3.85h-8.21A4,4,0,0,1,113.7,276.79Z" fill-rule="evenodd"/><path d="M125.6,287.22c3,0,4.78-1.3,4.78-3.3,0-4.44-7.5-2.09-7.5-5.22,0-1.1.92-1.91,3-1.91a5.88,5.88,0,0,1,3.41,1l.68-1.26a7.83,7.83,0,0,0-4.09-1.07c-3,0-4.58,1.4-4.58,3.3,0,4.57,7.51,2.2,7.51,5.21,0,1.14-.91,1.89-3.11,1.89a7,7,0,0,1-4.11-1.3l-.7,1.24A7.73,7.73,0,0,0,125.6,287.22Z" fill-rule="evenodd"/><path d="M148,270.78v7a5.06,5.06,0,0,0-4.4-2.28,5.89,5.89,0,0,0,0,11.77,5,5,0,0,0,4.47-2.4v2.29h1.49V270.78Zm-4.27,15.05a4.52,4.52,0,1,1,4.29-4.51A4.24,4.24,0,0,1,143.75,285.83Z" fill-rule="evenodd"/><path d="M164,281.32a5.51,5.51,0,0,0-5.61-5.87,5.57,5.57,0,0,0-5.66,5.87,5.74,5.74,0,0,0,6.08,5.9,5.67,5.67,0,0,0,4.46-1.9l-.88-1a4.56,4.56,0,0,1-3.54,1.52,4.28,4.28,0,0,1-4.55-4H164c0-.17,0-.35,0-.48Zm-5.61-4.53a4,4,0,0,1,4.11,3.85h-8.2A4,4,0,0,1,158.43,276.79Z" fill-rule="evenodd"/><path d="M173.12,275.45a4.86,4.86,0,0,0-4.4,2.22v-2.14h-1.49v11.58h1.56V281c0-2.64,1.56-4.18,4.05-4.18,2.2,0,3.47,1.26,3.47,3.7v6.56h1.57V280.4C177.88,277.07,175.94,275.45,173.12,275.45Z" fill-rule="evenodd"/><path d="M187.67,285.28a2.57,2.57,0,0,1-1.72.59,1.85,1.85,0,0,1-2-2.11v-6.91h3.52v-1.32H184V273h-1.56v2.53h-2.07v1.32h2.07v7a3.07,3.07,0,0,0,3.38,3.37,3.74,3.74,0,0,0,2.45-.82Z" fill-rule="evenodd"/><path d="M192.55,277.8v-2.27h-1.5v11.58h1.57v-5.9c0-2.73,1.47-4.27,3.89-4.27l.37,0v-1.51C194.75,275.45,193.28,276.26,192.55,277.8Z" fill-rule="evenodd"/><path d="M204.32,287.22a5.89,5.89,0,1,0-5.9-5.9,5.69,5.69,0,0,0,5.9,5.9Zm0-1.39a4.52,4.52,0,1,1,4.29-4.51A4.24,4.24,0,0,1,204.32,285.83Z" fill-rule="evenodd"/><path d="M228.15,270.78v7a5.07,5.07,0,0,0-4.4-2.28,5.89,5.89,0,0,0,0,11.77,5,5,0,0,0,4.46-2.4v2.29h1.5V270.78Zm-4.27,15.05a4.52,4.52,0,1,1,4.29-4.51A4.23,4.23,0,0,1,223.88,285.83Z" fill-rule="evenodd"/><path d="M244.16,281.32a5.51,5.51,0,0,0-5.61-5.87,5.57,5.57,0,0,0-5.65,5.87,6.11,6.11,0,0,0,10.54,4l-.89-1a4.55,4.55,0,0,1-3.54,1.52,4.28,4.28,0,0,1-4.55-4h9.68c0-.17,0-.35,0-.48Zm-5.61-4.53a4,4,0,0,1,4.11,3.85h-8.2A4,4,0,0,1,238.55,276.79Z" fill-rule="evenodd"/><path d="M256.22,287.22c3,0,4.77-1.3,4.77-3.3,0-4.44-7.5-2.09-7.5-5.22,0-1.1.92-1.91,3-1.91a5.88,5.88,0,0,1,3.41,1l.68-1.26a7.8,7.8,0,0,0-4.09-1.07c-2.94,0-4.57,1.4-4.57,3.3,0,4.57,7.5,2.2,7.5,5.21,0,1.14-.9,1.89-3.1,1.89a7,7,0,0,1-4.12-1.3l-.7,1.24A7.74,7.74,0,0,0,256.22,287.22Z" fill-rule="evenodd"/><path d="M272.74,275.53v6.08c0,2.64-1.52,4.2-3.94,4.2-2.2,0-3.47-1.26-3.47-3.72v-6.56h-1.57v6.71c0,3.33,1.94,5,4.89,5a4.62,4.62,0,0,0,4.16-2.23v2.12h1.49V275.53Z" fill-rule="evenodd"/><path d="M289.24,287.22a5.11,5.11,0,0,0,4.53-2.29l-1.17-.79a3.91,3.91,0,0,1-3.36,1.69,4.51,4.51,0,0,1,0-9,3.92,3.92,0,0,1,3.36,1.72l1.17-.8a5.05,5.05,0,0,0-4.53-2.28,5.89,5.89,0,1,0,0,11.77Z" fill-rule="evenodd"/><path d="M300.88,275.45a7.35,7.35,0,0,0-4.71,1.56l.7,1.16a5.94,5.94,0,0,1,3.85-1.36c2.16,0,3.28,1.08,3.28,3.06v.7h-3.67c-3.33,0-4.47,1.5-4.47,3.28,0,2,1.61,3.37,4.22,3.37a4.36,4.36,0,0,0,4-1.92v1.81h1.49v-7.18c0-3-1.69-4.48-4.68-4.48ZM300.33,286c-1.85,0-2.93-.83-2.93-2.17s.73-2.07,3-2.07H304v1.89A3.69,3.69,0,0,1,300.33,286Z" fill-rule="evenodd"/><path d="M324.24,275.45a5,5,0,0,0-4.58,2.44,4.15,4.15,0,0,0-4.11-2.44,4.68,4.68,0,0,0-4.25,2.2v-2.12h-1.49v11.58h1.56V281c0-2.64,1.52-4.18,3.87-4.18,2.11,0,3.35,1.26,3.35,3.7v6.56h1.56V281c0-2.64,1.49-4.18,3.87-4.18,2.09,0,3.32,1.26,3.32,3.7v6.56h1.56V280.4C328.9,277.07,327.06,275.45,324.24,275.45Z" fill-rule="evenodd"/><path d="M339.11,275.45a5,5,0,0,0-4.46,2.37v-2.29h-1.5v15.84h1.56v-6.44a5.07,5.07,0,0,0,4.4,2.29,5.89,5.89,0,0,0,0-11.77ZM339,285.83a4.51,4.51,0,1,1,4.31-4.51A4.24,4.24,0,0,1,339,285.83Z" fill-rule="evenodd"/><path d="M352.8,287.22a5.89,5.89,0,1,0-5.9-5.9,5.7,5.7,0,0,0,5.9,5.9Zm0-1.39a4.52,4.52,0,1,1,4.29-4.51A4.24,4.24,0,0,1,352.8,285.83Z" fill-rule="evenodd"/><path d="M361.68,287.22a1.2,1.2,0,0,0,1.19-1.21,1.18,1.18,0,0,0-1.19-1.19,1.16,1.16,0,0,0-1.16,1.19A1.19,1.19,0,0,0,361.68,287.22Z" fill-rule="evenodd"/><path d="M376.27,277.71a1.13,1.13,0,1,0-1.14-1.12,1.11,1.11,0,0,0,1.14,1.12Zm.22,12.92a6.74,6.74,0,0,0,5.48-2.29l-1.17-.88a5.14,5.14,0,0,1-4.2,1.78c-2.24,0-3.54-1.1-3.54-2.49,0-2.79,4-3.12,4-6.57h-1.62c0,3-4,3.16-4,6.75C371.43,289.15,373.41,290.63,376.49,290.63Z" fill-rule="evenodd"/><polygon points="394.51 271.71 392.88 271.71 387.6 280.35 382.32 271.71 380.58 271.71 386.74 281.78 386.74 287.11 388.35 287.11 388.35 281.78 394.51 271.71" fill-rule="evenodd"/><path d="M45.51,305.78a5,5,0,0,0-4.46,2.38v-2.29h-1.5v15.84h1.56v-6.44a5.07,5.07,0,0,0,4.4,2.28,5.89,5.89,0,0,0,0-11.77Zm-.11,10.39a4.51,4.51,0,1,1,4.32-4.51A4.24,4.24,0,0,1,45.4,316.17Z" fill-rule="evenodd"/><path d="M59.2,317.55a5.89,5.89,0,1,0-5.9-5.89,5.68,5.68,0,0,0,5.9,5.89Zm0-1.38a4.52,4.52,0,1,1,4.29-4.51A4.24,4.24,0,0,1,59.2,316.17Z" fill-rule="evenodd"/><path d="M69.76,308.14v-2.27h-1.5v11.57h1.56v-5.89c0-2.73,1.48-4.27,3.9-4.27l.37,0v-1.52C72,305.78,70.48,306.6,69.76,308.14Z" fill-rule="evenodd"/><path d="M85.86,305.87v2.29a5,5,0,0,0-4.46-2.38,5.89,5.89,0,0,0,0,11.77,5.07,5.07,0,0,0,4.4-2.28v6.44h1.56V305.87Zm-4.33,10.3a4.52,4.52,0,1,1,4.29-4.51A4.24,4.24,0,0,1,81.53,316.17Z" fill-rule="evenodd"/><path d="M100.58,305.87v6.07c0,2.64-1.52,4.21-3.94,4.21-2.2,0-3.47-1.26-3.47-3.72v-6.56H91.6v6.71c0,3.32,1.94,5,4.89,5a4.61,4.61,0,0,0,4.16-2.22v2.11h1.49V305.87Z" fill-rule="evenodd"/><path d="M116.62,311.66a5.52,5.52,0,0,0-5.61-5.88,5.58,5.58,0,0,0-5.66,5.88,6.12,6.12,0,0,0,10.54,4l-.88-1a4.56,4.56,0,0,1-3.54,1.52,4.29,4.29,0,0,1-4.56-4h9.68c0-.17,0-.35,0-.48ZM111,307.13a4,4,0,0,1,4.11,3.85h-8.21A4,4,0,0,1,111,307.13Z" fill-rule="evenodd"/><rect x="125.57" y="301.12" width="1.56" height="16.32"/><path d="M132.28,303.34a1.11,1.11,0,0,0,1.14-1.14,1.1,1.1,0,0,0-1.14-1.08,1.11,1.11,0,1,0,0,2.22Zm-.79,14.1h1.56V305.87h-1.56Z" fill-rule="evenodd"/><path d="M151.84,305.78a5,5,0,0,0-4.58,2.45,4.15,4.15,0,0,0-4.11-2.45,4.7,4.7,0,0,0-4.25,2.2v-2.11h-1.49v11.57H139v-6.07c0-2.64,1.52-4.18,3.87-4.18,2.11,0,3.34,1.26,3.34,3.7v6.55h1.57v-6.07c0-2.64,1.49-4.18,3.87-4.18,2.09,0,3.32,1.26,3.32,3.7v6.55h1.56v-6.71C156.5,307.41,154.65,305.78,151.84,305.78Z" fill-rule="evenodd"/><path d="M161.54,303.34a1.11,1.11,0,0,0,1.14-1.14,1.1,1.1,0,0,0-1.14-1.08,1.11,1.11,0,1,0,0,2.22Zm-.79,14.1h1.56V305.87h-1.56Z" fill-rule="evenodd"/><path d="M172.21,315.62a2.62,2.62,0,0,1-1.72.59,1.86,1.86,0,0,1-2-2.11v-6.91H172v-1.32h-3.52v-2.53h-1.56v2.53h-2.07v1.32h2.07v7a3.06,3.06,0,0,0,3.39,3.36,3.72,3.72,0,0,0,2.44-.81Z" fill-rule="evenodd"/><path d="M179.65,305.78a7.34,7.34,0,0,0-4.71,1.57l.7,1.16a5.94,5.94,0,0,1,3.85-1.36c2.16,0,3.28,1.08,3.28,3.06v.7H179.1c-3.33,0-4.47,1.5-4.47,3.28,0,2,1.61,3.36,4.22,3.36a4.35,4.35,0,0,0,4-1.91v1.8h1.49v-7.17c0-3-1.69-4.49-4.68-4.49Zm-.55,10.54c-1.85,0-2.93-.83-2.93-2.18,0-1.18.73-2.06,3-2.06h3.63V314A3.69,3.69,0,0,1,179.1,316.32Z" fill-rule="evenodd"/><path d="M190.07,308.14v-2.27h-1.49v11.57h1.56v-5.89c0-2.73,1.47-4.27,3.89-4.27l.38,0v-1.52C192.27,305.78,190.8,306.6,190.07,308.14Z" fill-rule="evenodd"/><rect x="203.16" y="301.12" width="1.56" height="16.32"/><path d="M213.13,305.78a7.36,7.36,0,0,0-4.71,1.57l.71,1.16a5.9,5.9,0,0,1,3.85-1.36c2.15,0,3.27,1.08,3.27,3.06v.7h-3.67c-3.32,0-4.47,1.5-4.47,3.28,0,2,1.61,3.36,4.23,3.36a4.34,4.34,0,0,0,4-1.91v1.8h1.5v-7.17c0-3-1.7-4.49-4.69-4.49Zm-.55,10.54c-1.85,0-2.93-.83-2.93-2.18,0-1.18.73-2.06,3-2.06h3.63V314A3.69,3.69,0,0,1,212.58,316.32Z" fill-rule="evenodd"/><polygon points="236.01 305.87 231.63 315.73 227.3 305.87 225.67 305.87 230.8 317.44 232.4 317.44 237.55 305.87 236.01 305.87" fill-rule="evenodd"/><path d="M240.54,303.34a1.12,1.12,0,0,0,1.15-1.14,1.11,1.11,0,0,0-1.15-1.08,1.11,1.11,0,1,0,0,2.22Zm-.79,14.1h1.56V305.87h-1.56Z" fill-rule="evenodd"/><path d="M248.77,317.55c3,0,4.77-1.29,4.77-3.3,0-4.44-7.5-2.08-7.5-5.21,0-1.1.93-1.91,3-1.91a5.92,5.92,0,0,1,3.41,1l.68-1.26a7.86,7.86,0,0,0-4.09-1.08c-2.95,0-4.58,1.41-4.58,3.3,0,4.58,7.5,2.21,7.5,5.22,0,1.14-.9,1.89-3.1,1.89a6.94,6.94,0,0,1-4.11-1.3l-.71,1.23A7.72,7.72,0,0,0,248.77,317.55Z" fill-rule="evenodd"/><path d="M257.22,303.34a1.11,1.11,0,0,0,1.14-1.14,1.1,1.1,0,0,0-1.14-1.08,1.11,1.11,0,1,0,0,2.22Zm-.79,14.1H258V305.87h-1.56Z" fill-rule="evenodd"/><path d="M268.31,305.78a5.06,5.06,0,0,0-4.4,2.29v-6.95h-1.57v16.32h1.5v-2.28a5,5,0,0,0,4.47,2.39,5.89,5.89,0,0,0,0-11.77Zm-.11,10.39a4.51,4.51,0,1,1,4.31-4.51A4.24,4.24,0,0,1,268.2,316.17Z" fill-rule="evenodd"/><path d="M278.05,303.34a1.12,1.12,0,0,0,1.15-1.14,1.11,1.11,0,0,0-1.15-1.08,1.11,1.11,0,1,0,0,2.22Zm-.79,14.1h1.56V305.87h-1.56Z" fill-rule="evenodd"/><rect x="283.18" y="301.12" width="1.56" height="16.32"/><path d="M289.89,303.34A1.11,1.11,0,0,0,291,302.2a1.1,1.1,0,0,0-1.14-1.08,1.11,1.11,0,1,0,0,2.22Zm-.79,14.1h1.56V305.87H289.1Z" fill-rule="evenodd"/><path d="M304,301.12v6.95a5.07,5.07,0,0,0-4.4-2.29,5.89,5.89,0,0,0,0,11.77,5,5,0,0,0,4.47-2.39v2.28h1.49V301.12Zm-4.27,15.05a4.52,4.52,0,1,1,4.29-4.51A4.24,4.24,0,0,1,299.74,316.17Z" fill-rule="evenodd"/><path d="M314,305.78a7.36,7.36,0,0,0-4.71,1.57l.7,1.16a5.94,5.94,0,0,1,3.85-1.36c2.16,0,3.28,1.08,3.28,3.06v.7h-3.67c-3.32,0-4.47,1.5-4.47,3.28,0,2,1.61,3.36,4.23,3.36a4.35,4.35,0,0,0,4-1.91v1.8h1.49v-7.17c0-3-1.69-4.49-4.68-4.49Zm-.55,10.54c-1.85,0-2.93-.83-2.93-2.18,0-1.18.73-2.06,3-2.06h3.63V314A3.69,3.69,0,0,1,313.43,316.32Z" fill-rule="evenodd"/><path d="M332,301.12v6.95a5.07,5.07,0,0,0-4.4-2.29,5.89,5.89,0,0,0,0,11.77,5,5,0,0,0,4.47-2.39v2.28h1.49V301.12Zm-4.27,15.05a4.52,4.52,0,1,1,4.29-4.51A4.24,4.24,0,0,1,327.68,316.17Z" fill-rule="evenodd"/><path d="M352.63,301.12v6.95a5.07,5.07,0,0,0-4.4-2.29,5.89,5.89,0,0,0,0,11.77,5,5,0,0,0,4.47-2.39v2.28h1.49V301.12Zm-4.27,15.05a4.52,4.52,0,1,1,4.29-4.51A4.24,4.24,0,0,1,348.36,316.17Z" fill-rule="evenodd"/><path d="M368.65,311.66a5.52,5.52,0,0,0-5.61-5.88,5.58,5.58,0,0,0-5.66,5.88,6.12,6.12,0,0,0,10.54,4l-.88-1a4.56,4.56,0,0,1-3.54,1.52,4.29,4.29,0,0,1-4.56-4h9.68c0-.17,0-.35,0-.48ZM363,307.13a4,4,0,0,1,4.11,3.85h-8.21A4,4,0,0,1,363,307.13Z" fill-rule="evenodd"/><path d="M383.14,315.62a2.59,2.59,0,0,1-1.71.59,1.85,1.85,0,0,1-2-2.11v-6.91H383v-1.32h-3.52v-2.53h-1.56v2.53H375.8v1.32h2.07v7a3.06,3.06,0,0,0,3.38,3.36,3.73,3.73,0,0,0,2.45-.81Z" fill-rule="evenodd"/><path d="M395.4,305.87v6.07c0,2.64-1.52,4.21-3.94,4.21-2.2,0-3.47-1.26-3.47-3.72v-6.56h-1.57v6.71c0,3.32,1.94,5,4.89,5a4.62,4.62,0,0,0,4.16-2.22v2.11H397V305.87Z" fill-rule="evenodd"/><polygon points="73.89 336.21 69.52 346.07 65.18 336.21 63.55 336.21 68.68 347.78 70.28 347.78 75.43 336.21 73.89 336.21" fill-rule="evenodd"/><path d="M78.42,333.68a1.13,1.13,0,0,0,1.15-1.14,1.11,1.11,0,0,0-1.15-1.08,1.11,1.11,0,1,0,0,2.22Zm-.79,14.1h1.56V336.21H77.63Z" fill-rule="evenodd"/><polygon points="91.73 336.21 87.36 346.07 83.02 336.21 81.39 336.21 86.52 347.78 88.13 347.78 93.28 336.21 91.73 336.21" fill-rule="evenodd"/><path d="M96.27,333.68a1.12,1.12,0,0,0,1.14-1.14,1.11,1.11,0,0,0-1.14-1.08,1.11,1.11,0,1,0,0,2.22Zm-.8,14.1H97V336.21H95.47Z" fill-rule="evenodd"/><path d="M111.49,342a5.64,5.64,0,1,0-11.26,0,6.11,6.11,0,0,0,10.53,4l-.88-1a4.56,4.56,0,0,1-3.54,1.52,4.28,4.28,0,0,1-4.55-4h9.68c0-.18,0-.35,0-.48Zm-5.61-4.54a4,4,0,0,1,4.11,3.85h-8.2A4,4,0,0,1,105.88,337.46Z" fill-rule="evenodd"/><path d="M120.58,336.12a4.86,4.86,0,0,0-4.4,2.22v-2.13h-1.5v11.57h1.56v-6.07c0-2.64,1.56-4.18,4.05-4.18,2.2,0,3.48,1.25,3.48,3.7v6.55h1.56v-6.71C125.33,337.75,123.39,336.12,120.58,336.12Z" fill-rule="evenodd"/><path d="M138.62,331.46v7a5.06,5.06,0,0,0-4.4-2.29,5.89,5.89,0,0,0,0,11.77,5,5,0,0,0,4.46-2.4v2.29h1.5V331.46Zm-4.27,15.05a4.52,4.52,0,1,1,4.29-4.51A4.24,4.24,0,0,1,134.35,346.51Z" fill-rule="evenodd"/><path d="M148.58,336.12a7.37,7.37,0,0,0-4.71,1.56l.71,1.17a5.85,5.85,0,0,1,3.85-1.36c2.15,0,3.28,1.07,3.28,3.05v.71H148c-3.32,0-4.46,1.49-4.46,3.28,0,2,1.6,3.36,4.22,3.36a4.34,4.34,0,0,0,4-1.91v1.8h1.5v-7.17c0-3-1.7-4.49-4.69-4.49ZM148,346.66c-1.85,0-2.92-.84-2.92-2.18s.72-2.07,3-2.07h3.63v1.9A3.72,3.72,0,0,1,148,346.66Z" fill-rule="evenodd"/><path d="M168.07,347.89a5.11,5.11,0,0,0,4.54-2.29l-1.17-.79a3.91,3.91,0,0,1-3.37,1.7,4.51,4.51,0,0,1,0-9,3.94,3.94,0,0,1,3.37,1.71l1.17-.79a5.07,5.07,0,0,0-4.54-2.29,5.89,5.89,0,1,0,0,11.77Z" fill-rule="evenodd"/><path d="M180.2,347.89a5.89,5.89,0,1,0-5.9-5.89,5.69,5.69,0,0,0,5.9,5.89Zm0-1.38a4.52,4.52,0,1,1,4.29-4.51A4.24,4.24,0,0,1,180.2,346.51Z" fill-rule="evenodd"/><path d="M195.16,336.12a4.86,4.86,0,0,0-4.4,2.22v-2.13h-1.5v11.57h1.56v-6.07c0-2.64,1.56-4.18,4.05-4.18,2.2,0,3.48,1.25,3.48,3.7v6.55h1.56v-6.71C199.91,337.75,198,336.12,195.16,336.12Z" fill-rule="evenodd"/><path d="M213,347.89c3,0,4.77-1.3,4.77-3.3,0-4.44-7.5-2.08-7.5-5.21,0-1.1.93-1.92,3-1.92a6,6,0,0,1,3.41,1l.68-1.25a7.86,7.86,0,0,0-4.09-1.08c-2.95,0-4.58,1.41-4.58,3.3,0,4.58,7.5,2.21,7.5,5.22,0,1.14-.9,1.89-3.1,1.89a6.94,6.94,0,0,1-4.11-1.3l-.71,1.23A7.72,7.72,0,0,0,213,347.89Z" fill-rule="evenodd"/><path d="M225.41,347.89a5.89,5.89,0,1,0-5.9-5.89,5.69,5.69,0,0,0,5.9,5.89Zm0-1.38A4.52,4.52,0,1,1,229.7,342,4.24,4.24,0,0,1,225.41,346.51Z" fill-rule="evenodd"/><rect x="234.47" y="331.46" width="1.56" height="16.32"/><path d="M244.44,336.12a7.33,7.33,0,0,0-4.71,1.56l.7,1.17a5.89,5.89,0,0,1,3.85-1.36c2.16,0,3.28,1.07,3.28,3.05v.71h-3.67c-3.33,0-4.47,1.49-4.47,3.28,0,2,1.61,3.36,4.22,3.36a4.35,4.35,0,0,0,4-1.91v1.8h1.49v-7.17c0-3-1.69-4.49-4.68-4.49Zm-.55,10.54c-1.85,0-2.93-.84-2.93-2.18s.73-2.07,3-2.07h3.63v1.9A3.71,3.71,0,0,1,243.89,346.66Z" fill-rule="evenodd"/><path d="M267.8,336.12a5.06,5.06,0,0,0-4.58,2.44,4.16,4.16,0,0,0-4.11-2.44,4.7,4.7,0,0,0-4.25,2.2v-2.11h-1.49v11.57h1.56v-6.07c0-2.64,1.52-4.18,3.87-4.18,2.11,0,3.35,1.25,3.35,3.7v6.55h1.56v-6.07c0-2.64,1.49-4.18,3.87-4.18,2.09,0,3.32,1.25,3.32,3.7v6.55h1.56v-6.71C272.46,337.75,270.62,336.12,267.8,336.12Z" fill-rule="evenodd"/><path d="M286.85,342a5.51,5.51,0,0,0-5.61-5.88,5.57,5.57,0,0,0-5.65,5.88,6.12,6.12,0,0,0,10.54,4l-.88-1a4.58,4.58,0,0,1-3.55,1.52,4.29,4.29,0,0,1-4.55-4h9.68c0-.18,0-.35,0-.48Zm-5.61-4.54a4,4,0,0,1,4.12,3.85h-8.21A4,4,0,0,1,281.24,337.46Z" fill-rule="evenodd"/><path d="M295.94,336.12a4.87,4.87,0,0,0-4.4,2.22v-2.13H290v11.57h1.56v-6.07c0-2.64,1.57-4.18,4-4.18,2.2,0,3.48,1.25,3.48,3.7v6.55h1.56v-6.71C300.69,337.75,298.75,336.12,295.94,336.12Z" fill-rule="evenodd"/><path d="M310.48,346a2.62,2.62,0,0,1-1.72.59,1.86,1.86,0,0,1-2-2.11v-6.91h3.52v-1.32h-3.52v-2.53H305.2v2.53h-2.07v1.32h2.07v7a3.06,3.06,0,0,0,3.39,3.36,3.72,3.72,0,0,0,2.44-.81Z" fill-rule="evenodd"/><path d="M323.55,342a5.52,5.52,0,0,0-5.61-5.88,5.58,5.58,0,0,0-5.66,5.88,6.12,6.12,0,0,0,10.54,4l-.88-1a4.56,4.56,0,0,1-3.54,1.52,4.28,4.28,0,0,1-4.55-4h9.68c0-.18,0-.35,0-.48Zm-5.61-4.54a4,4,0,0,1,4.11,3.85h-8.2A4,4,0,0,1,317.94,337.46Z" fill-rule="evenodd"/><path d="M341.37,336.21v6.07c0,2.64-1.52,4.2-3.94,4.2-2.2,0-3.48-1.25-3.48-3.71v-6.56h-1.56v6.71c0,3.32,1.94,5,4.89,5a4.59,4.59,0,0,0,4.15-2.22v2.11h1.5V336.21Z" fill-rule="evenodd"/><path d="M353.2,336.12a4.89,4.89,0,0,0-4.4,2.22v-2.13h-1.49v11.57h1.56v-6.07c0-2.64,1.56-4.18,4.05-4.18,2.2,0,3.47,1.25,3.47,3.7v6.55H358v-6.71C358,337.75,356,336.12,353.2,336.12Z" fill-rule="evenodd"/><path d="M366.25,336.12a7.35,7.35,0,0,0-4.71,1.56l.71,1.17a5.85,5.85,0,0,1,3.85-1.36c2.15,0,3.27,1.07,3.27,3.05v.71H365.7c-3.32,0-4.47,1.49-4.47,3.28,0,2,1.61,3.36,4.23,3.36a4.34,4.34,0,0,0,4-1.91v1.8h1.5v-7.17c0-3-1.7-4.49-4.69-4.49Zm-.55,10.54c-1.85,0-2.93-.84-2.93-2.18s.73-2.07,3-2.07h3.63v1.9A3.7,3.7,0,0,1,365.7,346.66Z" fill-rule="evenodd"/><path d="M115.77,378.23a5.89,5.89,0,1,0-5.9-5.9,5.69,5.69,0,0,0,5.9,5.9Zm0-1.39a4.52,4.52,0,1,1,4.29-4.51A4.24,4.24,0,0,1,115.77,376.84Z" fill-rule="evenodd"/><path d="M139.6,361.8v6.95a5.06,5.06,0,0,0-4.4-2.29,5.89,5.89,0,0,0,0,11.77,5,5,0,0,0,4.46-2.4v2.29h1.5V361.8Zm-4.27,15a4.52,4.52,0,1,1,4.29-4.51A4.23,4.23,0,0,1,135.33,376.84Z" fill-rule="evenodd"/><path d="M150.24,378.23a5.89,5.89,0,1,0-5.89-5.9,5.69,5.69,0,0,0,5.89,5.9Zm0-1.39a4.52,4.52,0,1,1,4.29-4.51A4.24,4.24,0,0,1,150.24,376.84Z" fill-rule="evenodd"/><path d="M162.41,378.23c3,0,4.77-1.3,4.77-3.3,0-4.44-7.5-2.09-7.5-5.21,0-1.1.93-1.92,3-1.92a6,6,0,0,1,3.41,1l.68-1.25a7.86,7.86,0,0,0-4.09-1.08c-2.95,0-4.58,1.41-4.58,3.3,0,4.58,7.5,2.2,7.5,5.21,0,1.15-.9,1.9-3.1,1.9a7,7,0,0,1-4.11-1.3l-.71,1.23A7.78,7.78,0,0,0,162.41,378.23Z" fill-rule="evenodd"/><path d="M176.62,364a1.13,1.13,0,0,0,1.15-1.15,1.15,1.15,0,0,0-2.29,0,1.13,1.13,0,0,0,1.14,1.12Zm-.79,14.1h1.56V366.55h-1.56Z" fill-rule="evenodd"/><path d="M187.64,366.46a4.86,4.86,0,0,0-4.4,2.22v-2.13h-1.49v11.57h1.56v-6.07c0-2.64,1.56-4.18,4.05-4.18,2.2,0,3.47,1.25,3.47,3.69v6.56h1.57v-6.71C192.4,368.09,190.46,366.46,187.64,366.46Z" fill-rule="evenodd"/><path d="M211.07,366.46a5,5,0,0,0-4.57,2.44,4.16,4.16,0,0,0-4.12-2.44,4.66,4.66,0,0,0-4.24,2.2v-2.11h-1.5v11.57h1.56v-6.07c0-2.64,1.52-4.18,3.88-4.18,2.11,0,3.34,1.25,3.34,3.69v6.56H207v-6.07c0-2.64,1.5-4.18,3.87-4.18,2.09,0,3.33,1.25,3.33,3.69v6.56h1.56v-6.71C215.74,368.09,213.89,366.46,211.07,366.46Z" fill-rule="evenodd"/><path d="M224.76,378.23a5.89,5.89,0,1,0-5.9-5.9,5.69,5.69,0,0,0,5.9,5.9Zm0-1.39a4.52,4.52,0,1,1,4.29-4.51A4.23,4.23,0,0,1,224.76,376.84Z" fill-rule="evenodd"/><path d="M239.78,366.46a5.06,5.06,0,0,0-4.4,2.29V361.8h-1.56v16.32h1.5v-2.29a5,5,0,0,0,4.46,2.4,5.89,5.89,0,0,0,0-11.77Zm-.11,10.38a4.51,4.51,0,1,1,4.32-4.51A4.24,4.24,0,0,1,239.67,376.84Z" fill-rule="evenodd"/><path d="M249.53,364a1.12,1.12,0,0,0,1.14-1.15,1.1,1.1,0,0,0-1.14-1.07,1.11,1.11,0,1,0,0,2.22Zm-.79,14.1h1.56V366.55h-1.56Z" fill-rule="evenodd"/><rect x="254.66" y="361.8" width="1.56" height="16.32"/><path d="M261.37,364a1.12,1.12,0,0,0,1.14-1.15,1.11,1.11,0,0,0-1.14-1.07,1.11,1.11,0,1,0,0,2.22Zm-.8,14.1h1.57V366.55h-1.57Z" fill-rule="evenodd"/><path d="M270.54,366.46a7.35,7.35,0,0,0-4.71,1.56l.71,1.17a5.86,5.86,0,0,1,3.85-1.37c2.15,0,3.27,1.08,3.27,3.06v.71H270c-3.32,0-4.47,1.49-4.47,3.27,0,2,1.61,3.37,4.23,3.37a4.36,4.36,0,0,0,4-1.91v1.8h1.5V371c0-3-1.7-4.49-4.69-4.49ZM270,377c-1.85,0-2.93-.84-2.93-2.18,0-1.19.73-2.07,3-2.07h3.63v1.89A3.69,3.69,0,0,1,270,377Z" fill-rule="evenodd"/><path d="M281,368.81v-2.26h-1.5v11.57H281v-5.9c0-2.72,1.48-4.26,3.9-4.26l.37,0v-1.52C283.17,366.46,281.69,367.27,281,368.81Z" fill-rule="evenodd"/><path d="M288.91,364a1.12,1.12,0,0,0,1.14-1.15,1.1,1.1,0,0,0-1.14-1.07,1.11,1.11,0,1,0,0,2.22Zm-.79,14.1h1.56V366.55h-1.56Z" fill-rule="evenodd"/><path d="M298.08,366.46a7.37,7.37,0,0,0-4.71,1.56l.71,1.17a5.86,5.86,0,0,1,3.85-1.37c2.15,0,3.28,1.08,3.28,3.06v.71h-3.68c-3.32,0-4.46,1.49-4.46,3.27,0,2,1.6,3.37,4.22,3.37a4.36,4.36,0,0,0,4-1.91v1.8h1.5V371c0-3-1.7-4.49-4.69-4.49ZM297.53,377c-1.85,0-2.92-.84-2.92-2.18,0-1.19.72-2.07,3-2.07h3.63v1.89A3.72,3.72,0,0,1,297.53,377Z" fill-rule="evenodd"/><path d="M310.12,378.23c3,0,4.77-1.3,4.77-3.3,0-4.44-7.5-2.09-7.5-5.21,0-1.1.92-1.92,3-1.92a6,6,0,0,1,3.41,1l.68-1.25a7.8,7.8,0,0,0-4.09-1.08c-2.95,0-4.57,1.41-4.57,3.3,0,4.58,7.5,2.2,7.5,5.21,0,1.15-.9,1.9-3.1,1.9a7.06,7.06,0,0,1-4.12-1.3l-.7,1.23A7.74,7.74,0,0,0,310.12,378.23Z" fill-rule="evenodd"/><path d="M320.37,373.5H322c0-3.15,4-3.32,4-7.08,0-2.36-2-3.83-5.06-3.83a6.71,6.71,0,0,0-5.48,2.29l1.17.88a5.11,5.11,0,0,1,4.2-1.79c2.25,0,3.54,1.1,3.54,2.69,0,2.88-4,3.21-4,6.84Zm.81,4.73a1.16,1.16,0,0,0,1.17-1.14,1.13,1.13,0,0,0-1.17-1.13,1.12,1.12,0,0,0-1.14,1.13A1.15,1.15,0,0,0,321.18,378.23Z" fill-rule="evenodd"/></svg>