<svg id="Capa_1" data-name="Capa 1" xmlns="http://www.w3.org/2000/svg" xmlns:xlink="http://www.w3.org/1999/xlink" width="154mm" height="154mm" viewBox="0 0 436.54 436.54"><defs><linearGradient id="GradientFill_1" x1="228.18" y1="203.67" x2="-40.12" y2="598.69" gradientTransform="translate(218.27 -90.41) rotate(45)" gradientUnits="userSpaceOnUse"><stop offset="0" stop-color="#292123"/><stop offset="0.48" stop-color="#3b3338"/><stop offset="1" stop-color="#1a1413"/></linearGradient></defs><title>QUESITO NEGRO CIRCULO 1</title><circle cx="218.27" cy="218.27" r="218.04" transform="translate(-90.41 218.27) rotate(-45)" fill="url(#GradientFill_1)"/><path d="M160.08,77.66a7.47,7.47,0,0,0,5.65-2.27l-1-1a6.06,6.06,0,0,1-4.56,1.85,6.38,6.38,0,1,1,0-12.76,6.14,6.14,0,0,1,4.56,1.82l1-1A7.44,7.44,0,0,0,160.1,62a7.84,7.84,0,1,0,0,15.67Z" fill="#fff" fill-rule="evenodd"/><path d="M173.1,77.64a5.89,5.89,0,1,0-5.89-5.9,5.7,5.7,0,0,0,5.89,5.9Zm0-1.39a4.52,4.52,0,1,1,4.29-4.51A4.24,4.24,0,0,1,173.1,76.25Z" fill="#fff" fill-rule="evenodd"/><path d="M188.06,65.87a4.86,4.86,0,0,0-4.4,2.22V66h-1.49V77.53h1.56V71.45c0-2.64,1.56-4.18,4.05-4.18,2.2,0,3.47,1.26,3.47,3.7v6.56h1.56V70.82C192.81,67.49,190.88,65.87,188.06,65.87Z" fill="#fff" fill-rule="evenodd"/><path d="M208.72,65.87a4.86,4.86,0,0,0-4.4,2.22V66h-1.5V77.53h1.57V71.45c0-2.64,1.56-4.18,4-4.18,2.2,0,3.48,1.26,3.48,3.7v6.56h1.56V70.82C213.47,67.49,211.54,65.87,208.72,65.87Z" fill="#fff" fill-rule="evenodd"/><path d="M226.58,66V72c0,2.64-1.51,4.2-3.93,4.2-2.2,0-3.48-1.26-3.48-3.72V66h-1.56v6.71c0,3.33,1.93,5,4.88,5a4.6,4.6,0,0,0,4.16-2.23v2.12h1.5V66Z" fill="#fff" fill-rule="evenodd"/><path d="M242.62,71.74A5.51,5.51,0,0,0,237,65.87a5.57,5.57,0,0,0-5.65,5.87,6.11,6.11,0,0,0,10.54,4l-.88-1a4.58,4.58,0,0,1-3.55,1.52,4.29,4.29,0,0,1-4.55-4h9.68c0-.17,0-.35,0-.48ZM237,67.21a4,4,0,0,1,4.12,3.85h-8.21A4,4,0,0,1,237,67.21Z" fill="#fff" fill-rule="evenodd"/><path d="M248.91,77.64c3,0,4.78-1.3,4.78-3.3,0-4.44-7.5-2.09-7.5-5.22,0-1.1.92-1.91,3-1.91a5.88,5.88,0,0,1,3.41,1l.68-1.26a7.83,7.83,0,0,0-4.09-1.07c-2.95,0-4.58,1.4-4.58,3.3,0,4.57,7.51,2.2,7.51,5.21,0,1.14-.91,1.89-3.11,1.89a7,7,0,0,1-4.11-1.3l-.7,1.24A7.73,7.73,0,0,0,248.91,77.64Z" fill="#fff" fill-rule="evenodd"/><path d="M262.11,75.7a2.54,2.54,0,0,1-1.71.59,1.85,1.85,0,0,1-2-2.11V67.27h3.52V66H258.4V63.42h-1.57V66h-2.06v1.32h2.06v7a3.07,3.07,0,0,0,3.39,3.37,3.71,3.71,0,0,0,2.44-.82Z" fill="#fff" fill-rule="evenodd"/><path d="M267,68.22V66h-1.5V77.53h1.56v-5.9c0-2.73,1.48-4.27,3.9-4.27l.37,0V65.87C269.2,65.87,267.72,66.68,267,68.22Z" fill="#fff" fill-rule="evenodd"/><path d="M278.77,77.64a5.89,5.89,0,1,0-5.9-5.9,5.69,5.69,0,0,0,5.9,5.9Zm0-1.39a4.52,4.52,0,1,1,4.29-4.51A4.23,4.23,0,0,1,278.77,76.25Z" fill="#fff" fill-rule="evenodd"/><path d="M89.3,108c3,0,4.78-1.29,4.78-3.3,0-4.44-7.5-2.08-7.5-5.21,0-1.1.92-1.91,3-1.91a5.88,5.88,0,0,1,3.41,1l.68-1.26a7.83,7.83,0,0,0-4.09-1.08c-3,0-4.58,1.41-4.58,3.3,0,4.58,7.51,2.21,7.51,5.22,0,1.14-.91,1.89-3.11,1.89a7,7,0,0,1-4.11-1.3l-.7,1.23A7.66,7.66,0,0,0,89.3,108Z" fill="#fff" fill-rule="evenodd"/><path d="M97.75,93.76a1.12,1.12,0,0,0,1.15-1.14,1.11,1.11,0,0,0-1.15-1.08,1.11,1.11,0,1,0,0,2.22ZM97,107.86h1.56V96.29H97Z" fill="#fff" fill-rule="evenodd"/><path d="M106,108c3,0,4.77-1.29,4.77-3.3,0-4.44-7.5-2.08-7.5-5.21,0-1.1.93-1.91,3-1.91a5.92,5.92,0,0,1,3.41,1l.68-1.26a7.86,7.86,0,0,0-4.09-1.08c-3,0-4.58,1.41-4.58,3.3,0,4.58,7.5,2.21,7.5,5.22,0,1.14-.9,1.89-3.1,1.89a6.94,6.94,0,0,1-4.11-1.3l-.71,1.23A7.72,7.72,0,0,0,106,108Z" fill="#fff" fill-rule="evenodd"/><path d="M119.18,106a2.62,2.62,0,0,1-1.72.59,1.86,1.86,0,0,1-2-2.11V97.61H119V96.29h-3.52V93.76H113.9v2.53h-2.07v1.32h2.07v7a3.06,3.06,0,0,0,3.39,3.36,3.72,3.72,0,0,0,2.44-.81Z" fill="#fff" fill-rule="evenodd"/><path d="M132.25,102.08a5.52,5.52,0,0,0-5.61-5.88,5.58,5.58,0,0,0-5.66,5.88,6.12,6.12,0,0,0,10.54,4l-.88-1a4.56,4.56,0,0,1-3.54,1.52,4.28,4.28,0,0,1-4.55-4h9.68c0-.17,0-.35,0-.48Zm-5.61-4.53a4,4,0,0,1,4.11,3.85h-8.2A4,4,0,0,1,126.64,97.55Z" fill="#fff" fill-rule="evenodd"/><path d="M149.87,96.2a5,5,0,0,0-4.58,2.45,4.15,4.15,0,0,0-4.11-2.45,4.7,4.7,0,0,0-4.25,2.2V96.29h-1.49v11.57H137v-6.07c0-2.64,1.52-4.18,3.87-4.18,2.11,0,3.35,1.26,3.35,3.7v6.55h1.56v-6.07c0-2.64,1.49-4.18,3.87-4.18,2.09,0,3.32,1.26,3.32,3.7v6.55h1.56v-6.71C154.53,97.83,152.69,96.2,149.87,96.2Z" fill="#fff" fill-rule="evenodd"/><path d="M162.83,96.2a7.36,7.36,0,0,0-4.71,1.57l.7,1.16a5.94,5.94,0,0,1,3.85-1.36c2.16,0,3.28,1.08,3.28,3.06v.7h-3.67c-3.32,0-4.47,1.5-4.47,3.28,0,2,1.61,3.36,4.23,3.36a4.35,4.35,0,0,0,4-1.91v1.8h1.49v-7.17c0-3-1.69-4.49-4.68-4.49Zm-.55,10.54c-1.85,0-2.93-.83-2.93-2.18,0-1.18.73-2.06,3-2.06H166v1.89A3.69,3.69,0,0,1,162.28,106.74Z" fill="#fff" fill-rule="evenodd"/><path d="M186.52,91.54v6.95a5.07,5.07,0,0,0-4.4-2.29,5.89,5.89,0,0,0,0,11.77,5,5,0,0,0,4.47-2.39v2.28h1.49V91.54Zm-4.27,15a4.52,4.52,0,1,1,4.29-4.51A4.24,4.24,0,0,1,182.25,106.59Z" fill="#fff" fill-rule="evenodd"/><path d="M202.54,102.08a5.52,5.52,0,0,0-5.61-5.88,5.58,5.58,0,0,0-5.66,5.88,6.12,6.12,0,0,0,10.54,4l-.88-1a4.56,4.56,0,0,1-3.54,1.52,4.28,4.28,0,0,1-4.55-4h9.68c0-.17,0-.35,0-.48Zm-5.61-4.53A4,4,0,0,1,201,101.4h-8.2A4,4,0,0,1,196.93,97.55Z" fill="#fff" fill-rule="evenodd"/><path d="M216.29,108a5.1,5.1,0,0,0,4.53-2.28l-1.17-.8a3.9,3.9,0,0,1-3.36,1.7,4.51,4.51,0,0,1,0-9,3.93,3.93,0,0,1,3.36,1.71l1.17-.79a5,5,0,0,0-4.53-2.29,5.89,5.89,0,1,0,0,11.77Z" fill="#fff" fill-rule="evenodd"/><path d="M227.93,96.2a7.34,7.34,0,0,0-4.71,1.57l.7,1.16a5.94,5.94,0,0,1,3.85-1.36c2.16,0,3.28,1.08,3.28,3.06v.7h-3.67c-3.33,0-4.47,1.5-4.47,3.28,0,2,1.61,3.36,4.22,3.36a4.35,4.35,0,0,0,4-1.91v1.8h1.49v-7.17c0-3-1.69-4.49-4.68-4.49Zm-.55,10.54c-1.85,0-2.93-.83-2.93-2.18,0-1.18.73-2.06,3-2.06h3.63v1.89A3.69,3.69,0,0,1,227.38,106.74Z" fill="#fff" fill-rule="evenodd"/><path d="M242.82,96.2a5.06,5.06,0,0,0-4.47,2.38V96.29h-1.49v15.84h1.56v-6.44a5.06,5.06,0,0,0,4.4,2.28,5.89,5.89,0,0,0,0-11.77Zm-.11,10.39a4.51,4.51,0,1,1,4.31-4.51A4.24,4.24,0,0,1,242.71,106.59Z" fill="#fff" fill-rule="evenodd"/><path d="M257.32,106a2.62,2.62,0,0,1-1.72.59,1.85,1.85,0,0,1-2-2.11V97.61h3.52V96.29H253.6V93.76H252v2.53H250v1.32H252v7a3.06,3.06,0,0,0,3.39,3.36,3.72,3.72,0,0,0,2.44-.81Z" fill="#fff" fill-rule="evenodd"/><path d="M264.75,96.2a7.33,7.33,0,0,0-4.7,1.57l.7,1.16a5.92,5.92,0,0,1,3.85-1.36c2.16,0,3.28,1.08,3.28,3.06v.7H264.2c-3.32,0-4.46,1.5-4.46,3.28,0,2,1.6,3.36,4.22,3.36a4.32,4.32,0,0,0,4-1.91v1.8h1.5v-7.17c0-3-1.69-4.49-4.69-4.49Zm-.55,10.54c-1.85,0-2.92-.83-2.92-2.18,0-1.18.72-2.06,3-2.06h3.63v1.89A3.71,3.71,0,0,1,264.2,106.74Z" fill="#fff" fill-rule="evenodd"/><path d="M278.53,108a5.12,5.12,0,0,0,4.53-2.28l-1.17-.8a3.9,3.9,0,0,1-3.36,1.7,4.51,4.51,0,0,1,0-9,3.93,3.93,0,0,1,3.36,1.71l1.17-.79a5.06,5.06,0,0,0-4.53-2.29,5.89,5.89,0,1,0,0,11.77Z" fill="#fff" fill-rule="evenodd"/><path d="M286.91,93.76a1.11,1.11,0,0,0,1.14-1.14,1.1,1.1,0,0,0-1.14-1.08,1.11,1.11,0,1,0,0,2.22Zm-.8,14.1h1.57V96.29h-1.57Z" fill="#fff" fill-rule="evenodd"/><path d="M295.31,94.51h1.54l3.56-2.73h-2.09l-3,2.73ZM296.76,108a5.89,5.89,0,1,0-5.89-5.89,5.69,5.69,0,0,0,5.89,5.89Zm0-1.38a4.52,4.52,0,1,1,4.29-4.51A4.24,4.24,0,0,1,296.76,106.59Z" fill="#fff" fill-rule="evenodd"/><path d="M311.72,96.2a4.87,4.87,0,0,0-4.4,2.23V96.29h-1.49v11.57h1.56v-6.07c0-2.64,1.56-4.18,4.05-4.18,2.2,0,3.47,1.26,3.47,3.7v6.55h1.56v-6.71C316.47,97.83,314.54,96.2,311.72,96.2Z" fill="#fff" fill-rule="evenodd"/><path d="M335.48,91.54v6.95a5.06,5.06,0,0,0-4.4-2.29,5.89,5.89,0,0,0,0,11.77,5,5,0,0,0,4.47-2.39v2.28h1.5V91.54Zm-4.26,15a4.52,4.52,0,1,1,4.28-4.51A4.24,4.24,0,0,1,331.22,106.59Z" fill="#fff" fill-rule="evenodd"/><path d="M351.5,102.08a5.51,5.51,0,0,0-5.61-5.88,5.58,5.58,0,0,0-5.66,5.88,6.12,6.12,0,0,0,10.54,4l-.88-1a4.56,4.56,0,0,1-3.54,1.52,4.28,4.28,0,0,1-4.55-4h9.68c0-.17,0-.35,0-.48Zm-5.61-4.53A4,4,0,0,1,350,101.4h-8.2A4,4,0,0,1,345.89,97.55Z" fill="#fff" fill-rule="evenodd"/><path d="M62.3,126.54a5.06,5.06,0,0,0-4.47,2.38v-2.29H56.34v15.84H57.9V136a5,5,0,0,0,4.4,2.29,5.89,5.89,0,0,0,0-11.77Zm-.11,10.39a4.51,4.51,0,1,1,4.31-4.51A4.24,4.24,0,0,1,62.19,136.93Z" fill="#fff" fill-rule="evenodd"/><path d="M72.75,128.9v-2.27h-1.5V138.2h1.56v-5.89c0-2.73,1.48-4.27,3.9-4.27l.37,0v-1.52C75,126.54,73.47,127.36,72.75,128.9Z" fill="#fff" fill-rule="evenodd"/><path d="M84.52,138.31a5.89,5.89,0,1,0-5.9-5.89,5.68,5.68,0,0,0,5.9,5.89Zm0-1.38a4.52,4.52,0,1,1,4.29-4.51A4.24,4.24,0,0,1,84.52,136.93Z" fill="#fff" fill-rule="evenodd"/><path d="M102.58,121.88v7a5,5,0,0,0-4.4-2.29,5.89,5.89,0,0,0,0,11.77,5,5,0,0,0,4.47-2.4v2.29h1.49V121.88Zm-4.27,15.05a4.52,4.52,0,1,1,4.29-4.51A4.24,4.24,0,0,1,98.31,136.93Z" fill="#fff" fill-rule="evenodd"/><path d="M117.36,126.63v6.07c0,2.64-1.51,4.2-3.93,4.2-2.2,0-3.48-1.25-3.48-3.71v-6.56h-1.56v6.71c0,3.32,1.93,5,4.88,5a4.59,4.59,0,0,0,4.16-2.22v2.11h1.5V126.63Z" fill="#fff" fill-rule="evenodd"/><path d="M128.1,138.31a5.08,5.08,0,0,0,4.53-2.29l-1.16-.79a3.93,3.93,0,0,1-3.37,1.7,4.51,4.51,0,0,1,0-9,4,4,0,0,1,3.37,1.71l1.16-.79a5,5,0,0,0-4.53-2.29,5.89,5.89,0,1,0,0,11.77Z" fill="#fff" fill-rule="evenodd"/><path d="M141.37,136.38a2.62,2.62,0,0,1-1.72.59,1.85,1.85,0,0,1-2-2.11V128h3.52v-1.32h-3.52V124.1h-1.56v2.53H134V128h2.07v7a3.06,3.06,0,0,0,3.38,3.36,3.73,3.73,0,0,0,2.45-.81Z" fill="#fff" fill-rule="evenodd"/><path d="M149.07,138.31a5.89,5.89,0,1,0-5.9-5.89,5.69,5.69,0,0,0,5.9,5.89Zm0-1.38a4.52,4.52,0,1,1,4.29-4.51A4.24,4.24,0,0,1,149.07,136.93Z" fill="#fff" fill-rule="evenodd"/><path d="M172.89,121.88v7a5,5,0,0,0-4.4-2.29,5.89,5.89,0,0,0,0,11.77,5,5,0,0,0,4.47-2.4v2.29h1.49V121.88Zm-4.27,15.05a4.52,4.52,0,1,1,4.29-4.51A4.24,4.24,0,0,1,168.62,136.93Z" fill="#fff" fill-rule="evenodd"/><path d="M179.6,124.1a1.13,1.13,0,0,0,1.15-1.14,1.15,1.15,0,0,0-2.29,0,1.13,1.13,0,0,0,1.14,1.12Zm-.79,14.1h1.56V126.63h-1.56Z" fill="#fff" fill-rule="evenodd"/><path d="M186.22,128.9v-2.27h-1.49V138.2h1.56v-5.89c0-2.73,1.47-4.27,3.89-4.27l.38,0v-1.52C188.42,126.54,187,127.36,186.22,128.9Z" fill="#fff" fill-rule="evenodd"/><path d="M203.36,132.42a5.51,5.51,0,0,0-5.61-5.88,5.57,5.57,0,0,0-5.65,5.88,6.12,6.12,0,0,0,10.54,4l-.88-1a4.58,4.58,0,0,1-3.55,1.52,4.29,4.29,0,0,1-4.55-4h9.68c0-.18,0-.35,0-.48Zm-5.61-4.54a4,4,0,0,1,4.12,3.85h-8.21A4,4,0,0,1,197.75,127.88Z" fill="#fff" fill-rule="evenodd"/><path d="M211.35,138.31a5.08,5.08,0,0,0,4.53-2.29l-1.17-.79a3.9,3.9,0,0,1-3.36,1.7,4.51,4.51,0,0,1,0-9,3.93,3.93,0,0,1,3.36,1.71l1.17-.79a5,5,0,0,0-4.53-2.29,5.89,5.89,0,1,0,0,11.77Z" fill="#fff" fill-rule="evenodd"/><path d="M224.61,136.38a2.59,2.59,0,0,1-1.71.59,1.85,1.85,0,0,1-2-2.11V128h3.52v-1.32H220.9V124.1h-1.57v2.53h-2.06V128h2.06v7a3.06,3.06,0,0,0,3.39,3.36,3.7,3.7,0,0,0,2.44-.81Z" fill="#fff" fill-rule="evenodd"/><path d="M232.05,126.54a7.35,7.35,0,0,0-4.71,1.56l.71,1.17a5.85,5.85,0,0,1,3.85-1.36c2.15,0,3.27,1.07,3.27,3.05v.71H231.5c-3.32,0-4.47,1.49-4.47,3.28,0,2,1.61,3.36,4.23,3.36a4.34,4.34,0,0,0,4-1.91v1.8h1.5V131c0-3-1.7-4.49-4.69-4.49Zm-.55,10.54c-1.85,0-2.93-.84-2.93-2.18,0-1.19.73-2.07,3-2.07h3.63v1.9A3.7,3.7,0,0,1,231.5,137.08Z" fill="#fff" fill-rule="evenodd"/><path d="M255.41,126.54a5,5,0,0,0-4.57,2.44,4.17,4.17,0,0,0-4.12-2.44,4.68,4.68,0,0,0-4.24,2.2v-2.11H241V138.2h1.56v-6.07c0-2.64,1.52-4.18,3.88-4.18,2.11,0,3.34,1.25,3.34,3.7v6.55h1.56v-6.07c0-2.64,1.5-4.18,3.87-4.18,2.09,0,3.33,1.25,3.33,3.7v6.55h1.56v-6.71C260.08,128.17,258.23,126.54,255.41,126.54Z" fill="#fff" fill-rule="evenodd"/><path d="M274.47,132.42a5.52,5.52,0,0,0-5.61-5.88,5.58,5.58,0,0,0-5.66,5.88,6.12,6.12,0,0,0,10.54,4l-.88-1a4.56,4.56,0,0,1-3.54,1.52,4.29,4.29,0,0,1-4.56-4h9.68c0-.18,0-.35,0-.48Zm-5.61-4.54a4,4,0,0,1,4.11,3.85h-8.21A4,4,0,0,1,268.86,127.88Z" fill="#fff" fill-rule="evenodd"/><path d="M283.55,126.54a4.89,4.89,0,0,0-4.4,2.22v-2.13h-1.49V138.2h1.56v-6.07c0-2.64,1.56-4.18,4-4.18,2.2,0,3.47,1.25,3.47,3.7v6.55h1.56v-6.71C288.3,128.17,286.37,126.54,283.55,126.54Z" fill="#fff" fill-rule="evenodd"/><path d="M298.09,136.38a2.59,2.59,0,0,1-1.71.59,1.85,1.85,0,0,1-2-2.11V128h3.52v-1.32h-3.52V124.1h-1.57v2.53h-2.06V128h2.06v7a3.06,3.06,0,0,0,3.39,3.36,3.7,3.7,0,0,0,2.44-.81Z" fill="#fff" fill-rule="evenodd"/><path d="M311.16,132.42a5.51,5.51,0,0,0-5.61-5.88,5.57,5.57,0,0,0-5.65,5.88,6.12,6.12,0,0,0,10.54,4l-.88-1a4.58,4.58,0,0,1-3.55,1.52,4.29,4.29,0,0,1-4.55-4h9.68c0-.18,0-.35,0-.48Zm-5.61-4.54a4,4,0,0,1,4.12,3.85h-8.21A4,4,0,0,1,305.55,127.88Z" fill="#fff" fill-rule="evenodd"/><path d="M329.11,121.88v7a5,5,0,0,0-4.4-2.29,5.89,5.89,0,0,0,0,11.77,5,5,0,0,0,4.47-2.4v2.29h1.5V121.88Zm-4.26,15.05a4.52,4.52,0,1,1,4.29-4.51A4.24,4.24,0,0,1,324.85,136.93Z" fill="#fff" fill-rule="evenodd"/><path d="M345.13,132.42a5.64,5.64,0,1,0-11.26,0,6.11,6.11,0,0,0,10.53,4l-.88-1a4.56,4.56,0,0,1-3.54,1.52,4.28,4.28,0,0,1-4.55-4h9.68c0-.18,0-.35,0-.48Zm-5.61-4.54a4,4,0,0,1,4.11,3.85h-8.2A4,4,0,0,1,339.52,127.88Z" fill="#fff" fill-rule="evenodd"/><rect x="354.08" y="121.88" width="1.56" height="16.32" fill="#fff"/><path d="M364.73,138.31a5.89,5.89,0,1,0-5.89-5.89,5.69,5.69,0,0,0,5.89,5.89Zm0-1.38a4.52,4.52,0,1,1,4.29-4.51A4.24,4.24,0,0,1,364.73,136.93Z" fill="#fff" fill-rule="evenodd"/><path d="M376.9,138.31c3,0,4.77-1.3,4.77-3.3,0-4.44-7.5-2.08-7.5-5.21,0-1.1.92-1.92,3-1.92a6,6,0,0,1,3.41,1l.69-1.25a7.87,7.87,0,0,0-4.1-1.08c-2.94,0-4.57,1.41-4.57,3.3,0,4.58,7.5,2.21,7.5,5.22,0,1.14-.9,1.89-3.1,1.89a7,7,0,0,1-4.12-1.3l-.7,1.23A7.69,7.69,0,0,0,376.9,138.31Z" fill="#fff" fill-rule="evenodd"/><path d="M50.73,156.88a5,5,0,0,0-4.47,2.38V157H44.77v15.84h1.56v-6.45a5,5,0,0,0,4.4,2.29,5.89,5.89,0,0,0,0-11.77Zm-.11,10.38a4.51,4.51,0,1,1,4.31-4.51A4.23,4.23,0,0,1,50.62,167.26Z" fill="#fff" fill-rule="evenodd"/><path d="M61.18,159.23V157h-1.5v11.57h1.56v-5.9c0-2.72,1.48-4.26,3.9-4.26l.37,0v-1.52C63.38,156.88,61.9,157.69,61.18,159.23Z" fill="#fff" fill-rule="evenodd"/><path d="M73,168.65a5.89,5.89,0,1,0-5.9-5.9,5.69,5.69,0,0,0,5.9,5.9Zm0-1.39a4.52,4.52,0,1,1,4.29-4.51A4.24,4.24,0,0,1,73,167.26Z" fill="#fff" fill-rule="evenodd"/><path d="M88,156.88a5,5,0,0,0-4.46,2.38V157H82v15.84h1.56v-6.45a5.06,5.06,0,0,0,4.4,2.29,5.89,5.89,0,0,0,0-11.77Zm-.11,10.38a4.51,4.51,0,1,1,4.32-4.51A4.24,4.24,0,0,1,87.86,167.26Z" fill="#fff" fill-rule="evenodd"/><path d="M97.72,154.44a1.12,1.12,0,0,0,1.14-1.15,1.1,1.1,0,0,0-1.14-1.07,1.11,1.11,0,1,0,0,2.22Zm-.79,14.1h1.56V157H96.93Z" fill="#fff" fill-rule="evenodd"/><path d="M112.94,162.75a5.51,5.51,0,0,0-5.61-5.87,5.57,5.57,0,0,0-5.65,5.87,6.12,6.12,0,0,0,10.54,4l-.88-1a4.58,4.58,0,0,1-3.55,1.51,4.28,4.28,0,0,1-4.55-4h9.68c0-.18,0-.35,0-.49Zm-5.61-4.53a4,4,0,0,1,4.12,3.85h-8.21A4,4,0,0,1,107.33,158.22Z" fill="#fff" fill-rule="evenodd"/><path d="M121.68,166.71a2.58,2.58,0,0,1-1.72.6,1.85,1.85,0,0,1-2-2.11v-6.91h3.52V157H118v-2.53H116.4V157h-2.07v1.32h2.07v7a3.06,3.06,0,0,0,3.38,3.37,3.73,3.73,0,0,0,2.45-.81Z" fill="#fff" fill-rule="evenodd"/><path d="M129.11,156.88a7.37,7.37,0,0,0-4.71,1.56l.71,1.17a5.86,5.86,0,0,1,3.85-1.37c2.15,0,3.28,1.08,3.28,3.06V162h-3.68c-3.32,0-4.46,1.49-4.46,3.27,0,2,1.6,3.37,4.22,3.37a4.36,4.36,0,0,0,4-1.91v1.8h1.5v-7.17c0-3-1.7-4.49-4.69-4.49Zm-.55,10.54c-1.85,0-2.92-.84-2.92-2.18,0-1.19.72-2.07,3-2.07h3.63v1.89A3.72,3.72,0,0,1,128.56,167.42Z" fill="#fff" fill-rule="evenodd"/><path d="M139.54,159.23V157H138v11.57h1.57v-5.9c0-2.72,1.47-4.26,3.89-4.26l.37,0v-1.52C141.74,156.88,140.27,157.69,139.54,159.23Z" fill="#fff" fill-rule="evenodd"/><path d="M147.48,154.44a1.13,1.13,0,0,0,1.15-1.15,1.15,1.15,0,0,0-2.29,0,1.13,1.13,0,0,0,1.14,1.12Zm-.79,14.1h1.56V157h-1.56Z" fill="#fff" fill-rule="evenodd"/><path d="M157.34,168.65a5.89,5.89,0,1,0-5.9-5.9,5.69,5.69,0,0,0,5.9,5.9Zm0-1.39a4.52,4.52,0,1,1,4.29-4.51A4.23,4.23,0,0,1,157.34,167.26Z" fill="#fff" fill-rule="evenodd"/><path d="M169.5,168.65c3,0,4.78-1.3,4.78-3.3,0-4.44-7.5-2.09-7.5-5.21,0-1.1.92-1.92,3-1.92a6,6,0,0,1,3.41,1l.68-1.25a7.83,7.83,0,0,0-4.09-1.08c-2.95,0-4.58,1.41-4.58,3.3,0,4.58,7.51,2.2,7.51,5.21,0,1.15-.91,1.9-3.11,1.9a7,7,0,0,1-4.11-1.3l-.7,1.23A7.73,7.73,0,0,0,169.5,168.65Z" fill="#fff" fill-rule="evenodd"/><path d="M177.34,166.25a1.16,1.16,0,0,0-1.17,1.19,1.11,1.11,0,0,0,.79,1.12l-.75,3.19h1.06l.92-3a3.66,3.66,0,0,0,.31-1.28A1.15,1.15,0,0,0,177.34,166.25Z" fill="#fff" fill-rule="evenodd"/><path d="M193.13,166.71a2.57,2.57,0,0,1-1.71.6,1.86,1.86,0,0,1-2-2.11v-6.91h3.52V157h-3.52v-2.53h-1.56V157h-2.07v1.32h2.07v7a3.07,3.07,0,0,0,3.39,3.37,3.7,3.7,0,0,0,2.44-.81Z" fill="#fff" fill-rule="evenodd"/><path d="M206.2,162.75a5.63,5.63,0,1,0-11.26,0,6.11,6.11,0,0,0,10.53,4l-.88-1a4.55,4.55,0,0,1-3.54,1.51,4.27,4.27,0,0,1-4.55-4h9.68c0-.18,0-.35,0-.49Zm-5.61-4.53a4,4,0,0,1,4.11,3.85h-8.2A4,4,0,0,1,200.59,158.22Z" fill="#fff" fill-rule="evenodd"/><path d="M215.29,156.88a4.84,4.84,0,0,0-4.4,2.22V157h-1.5v11.57H211v-6.07c0-2.64,1.56-4.18,4.05-4.18,2.2,0,3.48,1.25,3.48,3.69v6.56H220v-6.71C220,158.51,218.1,156.88,215.29,156.88Z" fill="#fff" fill-rule="evenodd"/><path d="M233.33,152.22v6.95a5.06,5.06,0,0,0-4.4-2.29,5.89,5.89,0,0,0,0,11.77,5,5,0,0,0,4.46-2.4v2.29h1.5V152.22Zm-4.27,15a4.52,4.52,0,1,1,4.29-4.51A4.23,4.23,0,0,1,229.06,167.26Z" fill="#fff" fill-rule="evenodd"/><path d="M240.74,159.23V157h-1.5v11.57h1.57v-5.9c0-2.72,1.47-4.26,3.89-4.26l.37,0v-1.52C242.94,156.88,241.47,157.69,240.74,159.23Z" fill="#fff" fill-rule="evenodd"/><path d="M255.63,152.46h-2.09l-3,2.73h1.54l3.56-2.73Zm-3.71,4.42a7.33,7.33,0,0,0-4.71,1.56l.7,1.17a5.9,5.9,0,0,1,3.85-1.37c2.16,0,3.28,1.08,3.28,3.06V162h-3.67c-3.33,0-4.47,1.49-4.47,3.27,0,2,1.61,3.37,4.22,3.37a4.37,4.37,0,0,0,4-1.91v1.8h1.49v-7.17c0-3-1.69-4.49-4.68-4.49Zm-.55,10.54c-1.85,0-2.93-.84-2.93-2.18,0-1.19.73-2.07,3-2.07H255v1.89A3.7,3.7,0,0,1,251.37,167.42Z" fill="#fff" fill-rule="evenodd"/><path d="M264,168.65c3,0,4.77-1.3,4.77-3.3,0-4.44-7.5-2.09-7.5-5.21,0-1.1.93-1.92,3-1.92a6,6,0,0,1,3.41,1l.68-1.25a7.86,7.86,0,0,0-4.09-1.08c-2.95,0-4.58,1.41-4.58,3.3,0,4.58,7.5,2.2,7.5,5.21,0,1.15-.9,1.9-3.1,1.9A7,7,0,0,1,260,166l-.71,1.23A7.78,7.78,0,0,0,264,168.65Z" fill="#fff" fill-rule="evenodd"/><path d="M286.24,157V163c0,2.64-1.52,4.2-3.94,4.2-2.2,0-3.48-1.25-3.48-3.72V157h-1.56v6.71c0,3.32,1.94,5,4.88,5a4.59,4.59,0,0,0,4.16-2.22v2.11h1.5V157Z" fill="#fff" fill-rule="evenodd"/><path d="M298.07,156.88a4.86,4.86,0,0,0-4.4,2.22V157h-1.49v11.57h1.56v-6.07c0-2.64,1.56-4.18,4.05-4.18,2.2,0,3.47,1.25,3.47,3.69v6.56h1.56v-6.71C302.82,158.51,300.89,156.88,298.07,156.88Z" fill="#fff" fill-rule="evenodd"/><path d="M311.12,156.88a7.35,7.35,0,0,0-4.71,1.56l.7,1.17a5.9,5.9,0,0,1,3.85-1.37c2.16,0,3.28,1.08,3.28,3.06V162h-3.67c-3.32,0-4.47,1.49-4.47,3.27,0,2,1.61,3.37,4.23,3.37a4.37,4.37,0,0,0,4-1.91v1.8h1.49v-7.17c0-3-1.69-4.49-4.68-4.49Zm-.55,10.54c-1.85,0-2.93-.84-2.93-2.18,0-1.19.73-2.07,3-2.07h3.63v1.89A3.69,3.69,0,0,1,310.57,167.42Z" fill="#fff" fill-rule="evenodd"/><path d="M340.25,156.88a5.06,5.06,0,0,0-4.58,2.44,4.15,4.15,0,0,0-4.11-2.44,4.67,4.67,0,0,0-4.25,2.2V157h-1.5v11.57h1.57v-6.07c0-2.64,1.51-4.18,3.87-4.18,2.11,0,3.34,1.25,3.34,3.69v6.56h1.56v-6.07c0-2.64,1.5-4.18,3.88-4.18,2.09,0,3.32,1.25,3.32,3.69v6.56h1.56v-6.71C344.91,158.51,343.06,156.88,340.25,156.88Z" fill="#fff" fill-rule="evenodd"/><path d="M353.2,156.88a7.32,7.32,0,0,0-4.7,1.56l.7,1.17a5.88,5.88,0,0,1,3.85-1.37c2.16,0,3.28,1.08,3.28,3.06V162h-3.68c-3.32,0-4.46,1.49-4.46,3.27,0,2,1.6,3.37,4.22,3.37a4.34,4.34,0,0,0,4-1.91v1.8h1.5v-7.17c0-3-1.69-4.49-4.69-4.49Zm-.55,10.54c-1.84,0-2.92-.84-2.92-2.18,0-1.19.72-2.07,3-2.07h3.63v1.89A3.72,3.72,0,0,1,352.65,167.42Z" fill="#fff" fill-rule="evenodd"/><path d="M370.1,157l-4.36,9.83L361.39,157h-1.63l5.17,11.55-.51,1.12c-.66,1.45-1.36,1.94-2.39,1.94a2.92,2.92,0,0,1-2.12-.88l-.72,1.16a3.93,3.93,0,0,0,2.81,1.06c1.65,0,2.89-.73,3.85-3l5.79-13Z" fill="#fff" fill-rule="evenodd"/><path d="M378.24,168.65a5.89,5.89,0,1,0-5.9-5.9,5.69,5.69,0,0,0,5.9,5.9Zm0-1.39a4.52,4.52,0,1,1,4.29-4.51A4.24,4.24,0,0,1,378.24,167.26Z" fill="#fff" fill-rule="evenodd"/><path d="M388.8,159.23V157h-1.5v11.57h1.57v-5.9c0-2.72,1.47-4.26,3.89-4.26l.37,0v-1.52C391,156.88,389.53,157.69,388.8,159.23Z" fill="#fff" fill-rule="evenodd"/><path d="M38.16,199a5.11,5.11,0,0,0,4.54-2.29l-1.17-.79a3.92,3.92,0,0,1-3.37,1.69,4.51,4.51,0,0,1,0-9,3.92,3.92,0,0,1,3.37,1.72l1.17-.79a5.07,5.07,0,0,0-4.54-2.29,5.89,5.89,0,1,0,0,11.77Z" fill="#fff" fill-rule="evenodd"/><path d="M49.8,187.22a7.37,7.37,0,0,0-4.71,1.56L45.8,190a5.86,5.86,0,0,1,3.85-1.37c2.15,0,3.28,1.08,3.28,3.06v.7H49.25c-3.32,0-4.46,1.5-4.46,3.28,0,2,1.6,3.37,4.22,3.37a4.34,4.34,0,0,0,4-1.92v1.81h1.5v-7.17c0-3-1.7-4.49-4.69-4.49Zm-.55,10.54c-1.85,0-2.92-.84-2.92-2.18s.72-2.07,3-2.07h3.63v1.89A3.72,3.72,0,0,1,49.25,197.76Z" fill="#fff" fill-rule="evenodd"/><path d="M60.23,189.57v-2.26h-1.5v11.57H60.3V193c0-2.73,1.47-4.27,3.89-4.27.11,0,.24,0,.37,0v-1.52C62.43,187.22,61,188,60.23,189.57Z" fill="#fff" fill-rule="evenodd"/><path d="M73.43,197.05a2.58,2.58,0,0,1-1.72.6,1.86,1.86,0,0,1-2-2.12v-6.9h3.52v-1.32H69.71v-2.53H68.15v2.53H66.08v1.32h2.07v7A3.07,3.07,0,0,0,71.54,199a3.73,3.73,0,0,0,2.44-.82Z" fill="#fff" fill-rule="evenodd"/><path d="M86.5,193.09a5.52,5.52,0,0,0-5.61-5.87,5.57,5.57,0,0,0-5.66,5.87,6.12,6.12,0,0,0,10.54,4l-.88-1a4.53,4.53,0,0,1-3.54,1.52,4.27,4.27,0,0,1-4.55-4h9.68c0-.18,0-.36,0-.49Zm-5.61-4.53A4,4,0,0,1,85,192.41H76.8A4,4,0,0,1,80.89,188.56Z" fill="#fff" fill-rule="evenodd"/><path d="M91.18,189.57v-2.26H89.69v11.57h1.56V193c0-2.73,1.47-4.27,3.89-4.27.11,0,.25,0,.38,0v-1.52C93.38,187.22,91.91,188,91.18,189.57Z" fill="#fff" fill-rule="evenodd"/><path d="M102.36,187.22a7.35,7.35,0,0,0-4.71,1.56l.71,1.17a5.86,5.86,0,0,1,3.85-1.37c2.15,0,3.27,1.08,3.27,3.06v.7h-3.67c-3.32,0-4.47,1.5-4.47,3.28,0,2,1.61,3.37,4.23,3.37a4.34,4.34,0,0,0,4-1.92v1.81h1.5v-7.17c0-3-1.7-4.49-4.69-4.49Zm-.55,10.54c-1.85,0-2.93-.84-2.93-2.18s.73-2.07,3-2.07h3.63v1.89A3.69,3.69,0,0,1,101.81,197.76Z" fill="#fff" fill-rule="evenodd"/><path d="M123,187.22a4.86,4.86,0,0,0-4.4,2.22v-2.13h-1.49v11.57h1.56v-6.07c0-2.64,1.56-4.18,4-4.18,2.2,0,3.47,1.25,3.47,3.69v6.56h1.56v-6.71C127.7,188.85,125.77,187.22,123,187.22Z" fill="#fff" fill-rule="evenodd"/><path d="M136.72,199a5.89,5.89,0,1,0-5.89-5.9,5.7,5.7,0,0,0,5.89,5.9Zm0-1.39a4.52,4.52,0,1,1,4.29-4.51A4.24,4.24,0,0,1,136.72,197.6Z" fill="#fff" fill-rule="evenodd"/><path d="M154.65,199c3,0,4.78-1.3,4.78-3.3,0-4.44-7.5-2.09-7.5-5.22,0-1.1.92-1.91,3-1.91a6,6,0,0,1,3.41,1l.68-1.25a7.83,7.83,0,0,0-4.09-1.08c-2.95,0-4.58,1.41-4.58,3.3,0,4.57,7.51,2.2,7.51,5.21,0,1.15-.91,1.89-3.11,1.89a7,7,0,0,1-4.11-1.29l-.7,1.23A7.73,7.73,0,0,0,154.65,199Z" fill="#fff" fill-rule="evenodd"/><path d="M167,199a5.89,5.89,0,1,0-5.9-5.9A5.69,5.69,0,0,0,167,199Zm0-1.39a4.52,4.52,0,1,1,4.29-4.51A4.24,4.24,0,0,1,167,197.6Z" fill="#fff" fill-rule="evenodd"/><rect x="176.1" y="182.55" width="1.56" height="16.32" fill="#fff"/><path d="M186.75,199a5.89,5.89,0,1,0-5.89-5.9,5.7,5.7,0,0,0,5.89,5.9Zm0-1.39a4.52,4.52,0,1,1,4.29-4.51A4.24,4.24,0,0,1,186.75,197.6Z" fill="#fff" fill-rule="evenodd"/><path d="M211.68,193.09a5.52,5.52,0,0,0-5.61-5.87,5.57,5.57,0,0,0-5.66,5.87,6.12,6.12,0,0,0,10.54,4l-.88-1a4.53,4.53,0,0,1-3.54,1.52,4.27,4.27,0,0,1-4.55-4h9.68c0-.18,0-.36,0-.49Zm-5.61-4.53a4,4,0,0,1,4.11,3.85H202A4,4,0,0,1,206.07,188.56Z" fill="#fff" fill-rule="evenodd"/><path d="M220.76,187.22a4.86,4.86,0,0,0-4.4,2.22v-2.13h-1.49v11.57h1.56v-6.07c0-2.64,1.56-4.18,4-4.18,2.2,0,3.47,1.25,3.47,3.69v6.56h1.57v-6.71C225.52,188.85,223.58,187.22,220.76,187.22Z" fill="#fff" fill-rule="evenodd"/><path d="M241.07,197.05a2.58,2.58,0,0,1-1.72.6,1.86,1.86,0,0,1-2-2.12v-6.9h3.52v-1.32h-3.52v-2.53h-1.56v2.53h-2.07v1.32h2.07v7a3.07,3.07,0,0,0,3.39,3.37,3.73,3.73,0,0,0,2.44-.82Z" fill="#fff" fill-rule="evenodd"/><path d="M253.32,187.31v6.07c0,2.64-1.51,4.2-3.93,4.2-2.2,0-3.48-1.25-3.48-3.72v-6.55h-1.56V194c0,3.32,1.93,5,4.88,5a4.61,4.61,0,0,0,4.16-2.22v2.11h1.5V187.31Z" fill="#fff" fill-rule="evenodd"/><polygon points="265.78 197.58 273.06 188.34 273.06 187.31 263.91 187.31 263.91 188.63 271.06 188.63 263.77 197.84 263.77 198.88 273.19 198.88 273.19 197.58 265.78 197.58" fill="#fff" fill-rule="evenodd"/><path d="M280.8,199a5.89,5.89,0,1,0-5.89-5.9,5.7,5.7,0,0,0,5.89,5.9Zm0-1.39a4.52,4.52,0,1,1,4.29-4.51A4.24,4.24,0,0,1,280.8,197.6Z" fill="#fff" fill-rule="evenodd"/><path d="M295.76,187.22a4.86,4.86,0,0,0-4.4,2.22v-2.13h-1.49v11.57h1.56v-6.07c0-2.64,1.56-4.18,4.05-4.18,2.2,0,3.47,1.25,3.47,3.69v6.56h1.56v-6.71C300.51,188.85,298.58,187.22,295.76,187.22Z" fill="#fff" fill-rule="evenodd"/><path d="M308.81,187.22a7.35,7.35,0,0,0-4.71,1.56l.7,1.17a5.9,5.9,0,0,1,3.85-1.37c2.16,0,3.28,1.08,3.28,3.06v.7h-3.67c-3.32,0-4.47,1.5-4.47,3.28,0,2,1.61,3.37,4.23,3.37a4.35,4.35,0,0,0,4-1.92v1.81h1.49v-7.17c0-3-1.69-4.49-4.68-4.49Zm-.55,10.54c-1.85,0-2.93-.84-2.93-2.18s.73-2.07,3-2.07h3.63v1.89A3.69,3.69,0,0,1,308.26,197.76Z" fill="#fff" fill-rule="evenodd"/><path d="M317.92,196.59a1.16,1.16,0,0,0-1.17,1.19,1.11,1.11,0,0,0,.79,1.12l-.75,3.19h1.06l.92-3a3.57,3.57,0,0,0,.31-1.27A1.15,1.15,0,0,0,317.92,196.59Z" fill="#fff" fill-rule="evenodd"/><path d="M331.27,199c3,0,4.77-1.3,4.77-3.3,0-4.44-7.5-2.09-7.5-5.22,0-1.1.93-1.91,3-1.91a6,6,0,0,1,3.41,1l.68-1.25a7.86,7.86,0,0,0-4.09-1.08c-2.95,0-4.58,1.41-4.58,3.3,0,4.57,7.5,2.2,7.5,5.21,0,1.15-.9,1.89-3.1,1.89a7,7,0,0,1-4.11-1.29l-.71,1.23A7.78,7.78,0,0,0,331.27,199Z" fill="#fff" fill-rule="evenodd"/><path d="M339.72,184.78a1.12,1.12,0,0,0,1.14-1.15,1.11,1.11,0,0,0-1.14-1.08,1.12,1.12,0,1,0,0,2.23Zm-.79,14.1h1.56V187.31h-1.56Z" fill="#fff" fill-rule="evenodd"/><path d="M350.74,187.22a4.86,4.86,0,0,0-4.4,2.22v-2.13h-1.5v11.57h1.57v-6.07c0-2.64,1.56-4.18,4-4.18,2.2,0,3.48,1.25,3.48,3.69v6.56h1.56v-6.71C355.49,188.85,353.56,187.22,350.74,187.22Z" fill="#fff" fill-rule="evenodd"/><path d="M364.51,199a5.89,5.89,0,1,0-5.89-5.9,5.7,5.7,0,0,0,5.89,5.9Zm0-1.39a4.52,4.52,0,1,1,4.29-4.51A4.24,4.24,0,0,1,364.51,197.6Z" fill="#fff" fill-rule="evenodd"/><path d="M389.44,193.09a5.52,5.52,0,0,0-5.61-5.87,5.57,5.57,0,0,0-5.66,5.87,6.12,6.12,0,0,0,10.54,4l-.88-1a4.53,4.53,0,0,1-3.54,1.52,4.27,4.27,0,0,1-4.55-4h9.68c0-.18,0-.36,0-.49Zm-5.61-4.53a4,4,0,0,1,4.11,3.85h-8.2A4,4,0,0,1,383.83,188.56Z" fill="#fff" fill-rule="evenodd"/><path d="M398.52,187.22a4.86,4.86,0,0,0-4.4,2.22v-2.13h-1.49v11.57h1.56v-6.07c0-2.64,1.56-4.18,4.05-4.18,2.2,0,3.47,1.25,3.47,3.69v6.56h1.57v-6.71C403.28,188.85,401.34,187.22,398.52,187.22Z" fill="#fff" fill-rule="evenodd"/><path d="M32.75,227.39A2.54,2.54,0,0,1,31,228a1.85,1.85,0,0,1-2-2.11V219h3.52v-1.32H29v-2.53H27.47v2.53H25.41V219h2.06v7a3.07,3.07,0,0,0,3.39,3.37,3.71,3.71,0,0,0,2.44-.82Z" fill="#fff" fill-rule="evenodd"/><path d="M40.45,229.33a5.89,5.89,0,1,0-5.89-5.9,5.7,5.7,0,0,0,5.89,5.9Zm0-1.39a4.52,4.52,0,1,1,4.29-4.51A4.24,4.24,0,0,1,40.45,227.94Z" fill="#fff" fill-rule="evenodd"/><path d="M58.52,212.89v7a5.07,5.07,0,0,0-4.4-2.28,5.89,5.89,0,0,0,0,11.77,5,5,0,0,0,4.46-2.4v2.29h1.5V212.89Zm-4.27,15.05a4.52,4.52,0,1,1,4.29-4.51A4.23,4.23,0,0,1,54.25,227.94Z" fill="#fff" fill-rule="evenodd"/><path d="M68.48,217.56a7.35,7.35,0,0,0-4.71,1.56l.71,1.16a5.9,5.9,0,0,1,3.85-1.36c2.15,0,3.28,1.08,3.28,3.06v.7H67.93c-3.32,0-4.46,1.5-4.46,3.28,0,2,1.6,3.37,4.22,3.37a4.34,4.34,0,0,0,4-1.92v1.81h1.5V222c0-3-1.7-4.48-4.69-4.48Zm-.55,10.53c-1.85,0-2.93-.83-2.93-2.17,0-1.19.73-2.07,3-2.07h3.63v1.89A3.71,3.71,0,0,1,67.93,228.09Z" fill="#fff" fill-rule="evenodd"/><polygon points="85.14 227.81 85.14 222.09 93.1 222.09 93.1 220.7 85.14 220.7 85.14 215.22 94.07 215.22 94.07 213.82 83.51 213.82 83.51 229.22 94.4 229.22 94.4 227.81 85.14 227.81" fill="#fff" fill-rule="evenodd"/><path d="M100.82,229.33c3,0,4.77-1.3,4.77-3.3,0-4.44-7.5-2.09-7.5-5.22,0-1.1.93-1.91,3-1.91a5.92,5.92,0,0,1,3.41,1l.68-1.26a7.85,7.85,0,0,0-4.09-1.07c-3,0-4.58,1.4-4.58,3.3,0,4.57,7.5,2.2,7.5,5.21,0,1.14-.9,1.89-3.1,1.89a6.94,6.94,0,0,1-4.11-1.3l-.71,1.24A7.78,7.78,0,0,0,100.82,229.33Z" fill="#fff" fill-rule="evenodd"/><path d="M114.44,217.56a5,5,0,0,0-4.47,2.37v-2.29h-1.49v15.84H110V227a5.07,5.07,0,0,0,4.4,2.29,5.89,5.89,0,0,0,0-11.77Zm-.11,10.38a4.51,4.51,0,1,1,4.31-4.51A4.24,4.24,0,0,1,114.33,227.94Z" fill="#fff" fill-rule="evenodd"/><path d="M127.37,217.56a7.32,7.32,0,0,0-4.7,1.56l.7,1.16a5.92,5.92,0,0,1,3.85-1.36c2.16,0,3.28,1.08,3.28,3.06v.7h-3.68c-3.32,0-4.46,1.5-4.46,3.28,0,2,1.6,3.37,4.22,3.37a4.33,4.33,0,0,0,4-1.92v1.81h1.5V222c0-3-1.69-4.48-4.69-4.48Zm-.55,10.53c-1.84,0-2.92-.83-2.92-2.17,0-1.19.72-2.07,3-2.07h3.63v1.89A3.71,3.71,0,0,1,126.82,228.09Z" fill="#fff" fill-rule="evenodd"/><path d="M140.22,214.23c.88,0,1.52,1.5,2.88,1.5,1.17,0,1.94-.95,2-2.38h-.94c0,.84-.49,1.37-1.15,1.37-.85,0-1.51-1.5-2.88-1.5-1.16,0-1.93.95-2,2.42h1c0-.88.48-1.41,1.14-1.41Zm2,3.33a4.86,4.86,0,0,0-4.4,2.22v-2.14h-1.49v11.58h1.56v-6.08c0-2.64,1.56-4.18,4-4.18,2.2,0,3.47,1.26,3.47,3.7v6.56H147v-6.71C147,219.18,145,217.56,142.2,217.56Z" fill="#fff" fill-rule="evenodd"/><path d="M155.25,217.56a7.35,7.35,0,0,0-4.71,1.56l.7,1.16a5.94,5.94,0,0,1,3.85-1.36c2.16,0,3.28,1.08,3.28,3.06v.7H154.7c-3.32,0-4.47,1.5-4.47,3.28,0,2,1.61,3.37,4.23,3.37a4.35,4.35,0,0,0,4-1.92v1.81h1.49V222c0-3-1.69-4.48-4.68-4.48Zm-.55,10.53c-1.85,0-2.93-.83-2.93-2.17,0-1.19.73-2.07,3-2.07h3.63v1.89A3.69,3.69,0,0,1,154.7,228.09Z" fill="#fff" fill-rule="evenodd"/><path d="M164.33,229.33a1.2,1.2,0,0,0,1.19-1.21,1.18,1.18,0,0,0-1.19-1.19,1.16,1.16,0,0,0-1.16,1.19A1.19,1.19,0,0,0,164.33,229.33Z" fill="#fff" fill-rule="evenodd"/><polygon points="177.93 229.22 179.56 229.22 179.56 215.22 184.97 215.22 184.97 213.82 172.52 213.82 172.52 215.22 177.93 215.22 177.93 229.22" fill="#fff" fill-rule="evenodd"/><path d="M190.76,229.33a5.89,5.89,0,1,0-5.9-5.9,5.7,5.7,0,0,0,5.9,5.9Zm0-1.39a4.52,4.52,0,1,1,4.29-4.51A4.24,4.24,0,0,1,190.76,227.94Z" fill="#fff" fill-rule="evenodd"/><path d="M208.82,212.89v7a5.06,5.06,0,0,0-4.4-2.28,5.89,5.89,0,0,0,0,11.77,5,5,0,0,0,4.46-2.4v2.29h1.5V212.89Zm-4.27,15.05a4.52,4.52,0,1,1,4.29-4.51A4.24,4.24,0,0,1,204.55,227.94Z" fill="#fff" fill-rule="evenodd"/><path d="M219.47,229.33a5.89,5.89,0,1,0-5.9-5.9,5.7,5.7,0,0,0,5.9,5.9Zm0-1.39a4.52,4.52,0,1,1,4.29-4.51A4.24,4.24,0,0,1,219.47,227.94Z" fill="#fff" fill-rule="evenodd"/><path d="M231.63,229.33c3,0,4.78-1.3,4.78-3.3,0-4.44-7.51-2.09-7.51-5.22,0-1.1.93-1.91,3-1.91a5.88,5.88,0,0,1,3.41,1l.68-1.26a7.85,7.85,0,0,0-4.09-1.07c-2.95,0-4.58,1.4-4.58,3.3,0,4.57,7.5,2.2,7.5,5.21,0,1.14-.9,1.89-3.1,1.89a6.94,6.94,0,0,1-4.11-1.3l-.71,1.24A7.78,7.78,0,0,0,231.63,229.33Z" fill="#fff" fill-rule="evenodd"/><rect x="245.05" y="212.89" width="1.56" height="16.32" fill="#fff"/><path d="M255.7,229.33a5.89,5.89,0,1,0-5.9-5.9,5.69,5.69,0,0,0,5.9,5.9Zm0-1.39a4.52,4.52,0,1,1,4.29-4.51A4.24,4.24,0,0,1,255.7,227.94Z" fill="#fff" fill-rule="evenodd"/><path d="M267.87,229.33c3,0,4.77-1.3,4.77-3.3,0-4.44-7.5-2.09-7.5-5.22,0-1.1.92-1.91,3-1.91a5.88,5.88,0,0,1,3.41,1l.68-1.26a7.8,7.8,0,0,0-4.09-1.07c-2.95,0-4.57,1.4-4.57,3.3,0,4.57,7.5,2.2,7.5,5.21,0,1.14-.9,1.89-3.1,1.89a7,7,0,0,1-4.12-1.3l-.7,1.24A7.74,7.74,0,0,0,267.87,229.33Z" fill="#fff" fill-rule="evenodd"/><path d="M287.25,217.56a5,5,0,0,0-4.47,2.37v-2.29h-1.49v15.84h1.56V227a5.07,5.07,0,0,0,4.4,2.29,5.89,5.89,0,0,0,0-11.77Zm-.11,10.38a4.51,4.51,0,1,1,4.31-4.51A4.23,4.23,0,0,1,287.14,227.94Z" fill="#fff" fill-rule="evenodd"/><path d="M297.7,219.91v-2.27h-1.5v11.58h1.56v-5.9c0-2.73,1.48-4.27,3.9-4.27l.37,0v-1.51C299.9,217.56,298.42,218.37,297.7,219.91Z" fill="#fff" fill-rule="evenodd"/><path d="M309.47,229.33a5.89,5.89,0,1,0-5.9-5.9,5.69,5.69,0,0,0,5.9,5.9Zm0-1.39a4.52,4.52,0,1,1,4.29-4.51A4.23,4.23,0,0,1,309.47,227.94Z" fill="#fff" fill-rule="evenodd"/><path d="M324.49,217.56a5,5,0,0,0-4.46,2.37v-2.29h-1.5v15.84h1.56V227a5.08,5.08,0,0,0,4.4,2.29,5.89,5.89,0,0,0,0-11.77Zm-.11,10.38a4.51,4.51,0,1,1,4.32-4.51A4.24,4.24,0,0,1,324.38,227.94Z" fill="#fff" fill-rule="evenodd"/><path d="M334.24,215.11A1.11,1.11,0,1,0,333.1,214a1.11,1.11,0,0,0,1.14,1.12Zm-.79,14.11H335V217.64h-1.56Z" fill="#fff" fill-rule="evenodd"/><path d="M349.46,223.43a5.51,5.51,0,0,0-5.61-5.87,5.57,5.57,0,0,0-5.65,5.87,6.11,6.11,0,0,0,10.54,4l-.88-1a4.58,4.58,0,0,1-3.54,1.52,4.29,4.29,0,0,1-4.56-4h9.68c0-.17,0-.35,0-.48Zm-5.61-4.53a4,4,0,0,1,4.12,3.85h-8.21A4,4,0,0,1,343.85,218.9Z" fill="#fff" fill-rule="evenodd"/><path d="M358.2,227.39a2.57,2.57,0,0,1-1.72.59,1.85,1.85,0,0,1-2-2.11V219H358v-1.32h-3.52v-2.53h-1.56v2.53h-2.07V219h2.07v7a3.07,3.07,0,0,0,3.39,3.37,3.73,3.73,0,0,0,2.44-.82Z" fill="#fff" fill-rule="evenodd"/><path d="M365.63,217.56a7.32,7.32,0,0,0-4.7,1.56l.7,1.16a5.92,5.92,0,0,1,3.85-1.36c2.16,0,3.28,1.08,3.28,3.06v.7h-3.68c-3.32,0-4.46,1.5-4.46,3.28,0,2,1.6,3.37,4.22,3.37a4.33,4.33,0,0,0,4-1.92v1.81h1.5V222c0-3-1.69-4.48-4.69-4.48Zm-.55,10.53c-1.84,0-2.92-.83-2.92-2.17,0-1.19.72-2.07,3-2.07h3.63v1.89A3.71,3.71,0,0,1,365.08,228.09Z" fill="#fff" fill-rule="evenodd"/><path d="M376.06,219.91v-2.27h-1.49v11.58h1.56v-5.9c0-2.73,1.47-4.27,3.89-4.27l.38,0v-1.51C378.26,217.56,376.79,218.37,376.06,219.91Z" fill="#fff" fill-rule="evenodd"/><path d="M384,215.11a1.11,1.11,0,1,0-1.14-1.12,1.12,1.12,0,0,0,1.14,1.12Zm-.79,14.11h1.56V217.64h-1.56Z" fill="#fff" fill-rule="evenodd"/><path d="M393.86,229.33a5.89,5.89,0,1,0-5.9-5.9,5.69,5.69,0,0,0,5.9,5.9Zm0-1.39a4.52,4.52,0,1,1,4.29-4.51A4.24,4.24,0,0,1,393.86,227.94Z" fill="#fff" fill-rule="evenodd"/><path d="M406,229.33c3,0,4.77-1.3,4.77-3.3,0-4.44-7.5-2.09-7.5-5.22,0-1.1.92-1.91,3-1.91a5.88,5.88,0,0,1,3.41,1l.68-1.26a7.8,7.8,0,0,0-4.09-1.07c-2.95,0-4.57,1.4-4.57,3.3,0,4.57,7.5,2.2,7.5,5.21,0,1.14-.9,1.89-3.1,1.89a7,7,0,0,1-4.12-1.3l-.7,1.24A7.74,7.74,0,0,0,406,229.33Z" fill="#fff" fill-rule="evenodd"/><path d="M59.53,248l-4.36,9.84L50.81,248H49.19l5.17,11.55-.51,1.12c-.66,1.46-1.36,1.94-2.4,1.94a2.9,2.9,0,0,1-2.11-.88l-.72,1.17a4,4,0,0,0,2.81,1.05c1.65,0,2.88-.72,3.85-3l5.79-13Z" fill="#fff" fill-rule="evenodd"/><path d="M72.13,259.66c3,0,4.78-1.29,4.78-3.3,0-4.44-7.51-2.08-7.51-5.21,0-1.1.93-1.91,3-1.91a5.88,5.88,0,0,1,3.41,1l.68-1.26a7.86,7.86,0,0,0-4.09-1.08c-3,0-4.58,1.41-4.58,3.3,0,4.58,7.5,2.21,7.5,5.22,0,1.14-.9,1.89-3.1,1.89a6.94,6.94,0,0,1-4.11-1.3l-.71,1.23A7.72,7.72,0,0,0,72.13,259.66Z" fill="#fff" fill-rule="evenodd"/><path d="M88.65,248v6.07c0,2.64-1.51,4.21-3.93,4.21-2.2,0-3.48-1.26-3.48-3.72V248H79.68v6.71c0,3.32,1.93,5,4.88,5a4.59,4.59,0,0,0,4.16-2.22v2.11h1.5V248Z" fill="#fff" fill-rule="evenodd"/><path d="M97.7,259.66c3,0,4.77-1.29,4.77-3.3,0-4.44-7.5-2.08-7.5-5.21,0-1.1.92-1.91,3-1.91a5.88,5.88,0,0,1,3.41,1l.68-1.26A7.8,7.8,0,0,0,98,247.89c-3,0-4.57,1.41-4.57,3.3,0,4.58,7.5,2.21,7.5,5.22,0,1.14-.9,1.89-3.1,1.89a7,7,0,0,1-4.12-1.3l-.7,1.23A7.67,7.67,0,0,0,97.7,259.66Z" fill="#fff" fill-rule="evenodd"/><polygon points="119.3 247.98 114.92 257.84 110.59 247.98 108.96 247.98 114.09 259.55 115.69 259.55 120.84 247.98 119.3 247.98" fill="#fff" fill-rule="evenodd"/><path d="M123.83,245.45a1.12,1.12,0,0,0,1.15-1.14,1.11,1.11,0,0,0-1.15-1.08,1.11,1.11,0,1,0,0,2.22Zm-.79,14.1h1.56V248H123Z" fill="#fff" fill-rule="evenodd"/><polygon points="137.14 247.98 132.76 257.84 128.43 247.98 126.8 247.98 131.93 259.55 133.53 259.55 138.68 247.98 137.14 247.98" fill="#fff" fill-rule="evenodd"/><path d="M141.67,245.45a1.12,1.12,0,0,0,1.15-1.14,1.11,1.11,0,0,0-1.15-1.08,1.11,1.11,0,1,0,0,2.22Zm-.79,14.1h1.56V248h-1.56Z" fill="#fff" fill-rule="evenodd"/><path d="M156.9,253.77a5.52,5.52,0,0,0-5.61-5.88,5.58,5.58,0,0,0-5.66,5.88,6.12,6.12,0,0,0,10.54,4l-.88-1a4.56,4.56,0,0,1-3.54,1.52,4.28,4.28,0,0,1-4.55-4h9.68c0-.17,0-.35,0-.48Zm-5.61-4.53a4,4,0,0,1,4.11,3.85h-8.2A4,4,0,0,1,151.29,249.24Z" fill="#fff" fill-rule="evenodd"/><path d="M166,247.89a4.87,4.87,0,0,0-4.4,2.23V248h-1.49v11.57h1.56v-6.07c0-2.64,1.56-4.18,4-4.18,2.2,0,3.47,1.26,3.47,3.7v6.55h1.57v-6.71C170.74,249.52,168.8,247.89,166,247.89Z" fill="#fff" fill-rule="evenodd"/><path d="M184,243.23v7a5.06,5.06,0,0,0-4.4-2.29,5.89,5.89,0,0,0,0,11.77,5,5,0,0,0,4.47-2.39v2.28h1.5V243.23Zm-4.26,15a4.52,4.52,0,1,1,4.29-4.51A4.24,4.24,0,0,1,179.76,258.28Z" fill="#fff" fill-rule="evenodd"/><path d="M194,247.89a7.36,7.36,0,0,0-4.71,1.57l.71,1.16a5.9,5.9,0,0,1,3.85-1.36c2.15,0,3.27,1.08,3.27,3.06v.7h-3.67c-3.32,0-4.47,1.5-4.47,3.28,0,2,1.61,3.36,4.23,3.36a4.34,4.34,0,0,0,4-1.91v1.8h1.5v-7.17c0-3-1.7-4.49-4.69-4.49Zm-.55,10.54c-1.85,0-2.93-.83-2.93-2.18,0-1.18.73-2.06,3-2.06h3.63v1.89A3.69,3.69,0,0,1,193.44,258.43Z" fill="#fff" fill-rule="evenodd"/><path d="M206,259.66c3,0,4.78-1.29,4.78-3.3,0-4.44-7.5-2.08-7.5-5.21,0-1.1.92-1.91,3-1.91a5.88,5.88,0,0,1,3.41,1l.68-1.26a7.83,7.83,0,0,0-4.09-1.08c-2.95,0-4.58,1.41-4.58,3.3,0,4.58,7.51,2.21,7.51,5.22,0,1.14-.91,1.89-3.11,1.89A7,7,0,0,1,202,257l-.7,1.23A7.66,7.66,0,0,0,206,259.66Z" fill="#fff" fill-rule="evenodd"/><path d="M222.55,259.66c3,0,4.77-1.29,4.77-3.3,0-4.44-7.5-2.08-7.5-5.21,0-1.1.92-1.91,3-1.91a5.88,5.88,0,0,1,3.41,1l.68-1.26a7.8,7.8,0,0,0-4.09-1.08c-3,0-4.57,1.41-4.57,3.3,0,4.58,7.5,2.21,7.5,5.22,0,1.14-.9,1.89-3.1,1.89a7,7,0,0,1-4.12-1.3l-.7,1.23A7.67,7.67,0,0,0,222.55,259.66Z" fill="#fff" fill-rule="evenodd"/><path d="M240.3,253.77a5.51,5.51,0,0,0-5.61-5.88,5.57,5.57,0,0,0-5.65,5.88,6.11,6.11,0,0,0,10.53,4l-.88-1a4.56,4.56,0,0,1-3.54,1.52,4.28,4.28,0,0,1-4.55-4h9.68c0-.17,0-.35,0-.48Zm-5.61-4.53a4,4,0,0,1,4.11,3.85h-8.2A4,4,0,0,1,234.69,249.24Z" fill="#fff" fill-rule="evenodd"/><path d="M245,250.25V248h-1.5v11.57h1.56v-5.89c0-2.73,1.48-4.27,3.9-4.27l.37,0v-1.52C247.19,247.89,245.71,248.71,245,250.25Z" fill="#fff" fill-rule="evenodd"/><path d="M259.88,243.47h-2.09l-3,2.73h1.54l3.56-2.73Zm-3.72,4.42a7.38,7.38,0,0,0-4.71,1.57l.71,1.16a5.9,5.9,0,0,1,3.85-1.36c2.15,0,3.28,1.08,3.28,3.06v.7h-3.68c-3.32,0-4.46,1.5-4.46,3.28,0,2,1.6,3.36,4.22,3.36a4.34,4.34,0,0,0,4-1.91v1.8h1.5v-7.17c0-3-1.7-4.49-4.69-4.49Zm-.55,10.54c-1.85,0-2.92-.83-2.92-2.18,0-1.18.72-2.06,3-2.06h3.63v1.89A3.71,3.71,0,0,1,255.61,258.43Z" fill="#fff" fill-rule="evenodd"/><path d="M271,247.89a4.87,4.87,0,0,0-4.4,2.23V248h-1.5v11.57h1.57v-6.07c0-2.64,1.56-4.18,4-4.18,2.2,0,3.48,1.26,3.48,3.7v6.55h1.56v-6.71C275.74,249.52,273.81,247.89,271,247.89Z" fill="#fff" fill-rule="evenodd"/><polygon points="293.94 247.98 289.56 257.84 285.22 247.98 283.6 247.98 288.72 259.55 290.33 259.55 295.48 247.98 293.94 247.98" fill="#fff" fill-rule="evenodd"/><path d="M301.37,247.89a7.38,7.38,0,0,0-4.71,1.57l.71,1.16a5.9,5.9,0,0,1,3.85-1.36c2.15,0,3.28,1.08,3.28,3.06v.7h-3.68c-3.32,0-4.46,1.5-4.46,3.28,0,2,1.6,3.36,4.22,3.36a4.34,4.34,0,0,0,4-1.91v1.8h1.5v-7.17c0-3-1.7-4.49-4.69-4.49Zm-.55,10.54c-1.85,0-2.92-.83-2.92-2.18,0-1.18.72-2.06,3-2.06h3.63v1.89A3.71,3.71,0,0,1,300.82,258.43Z" fill="#fff" fill-rule="evenodd"/><rect x="310.3" y="243.23" width="1.56" height="16.32" fill="#fff"/><path d="M317,245.45a1.12,1.12,0,0,0,1.15-1.14,1.11,1.11,0,0,0-1.15-1.08,1.11,1.11,0,1,0,0,2.22Zm-.79,14.1h1.56V248h-1.56Z" fill="#fff" fill-rule="evenodd"/><path d="M331.14,243.23v7a5.07,5.07,0,0,0-4.4-2.29,5.89,5.89,0,0,0,0,11.77,5,5,0,0,0,4.46-2.39v2.28h1.5V243.23Zm-4.27,15a4.52,4.52,0,1,1,4.29-4.51A4.24,4.24,0,0,1,326.87,258.28Z" fill="#fff" fill-rule="evenodd"/><path d="M341.1,247.89a7.33,7.33,0,0,0-4.7,1.57l.7,1.16a5.92,5.92,0,0,1,3.85-1.36c2.16,0,3.28,1.08,3.28,3.06v.7h-3.68c-3.32,0-4.46,1.5-4.46,3.28,0,2,1.6,3.36,4.22,3.36a4.32,4.32,0,0,0,4-1.91v1.8h1.5v-7.17c0-3-1.69-4.49-4.69-4.49Zm-.55,10.54c-1.84,0-2.92-.83-2.92-2.18,0-1.18.72-2.06,3-2.06h3.63v1.89A3.71,3.71,0,0,1,340.55,258.43Z" fill="#fff" fill-rule="evenodd"/><path d="M359.08,243.23v7a5.07,5.07,0,0,0-4.4-2.29,5.89,5.89,0,0,0,0,11.77,5,5,0,0,0,4.46-2.39v2.28h1.5V243.23Zm-4.27,15a4.52,4.52,0,1,1,4.29-4.51A4.24,4.24,0,0,1,354.81,258.28Z" fill="#fff" fill-rule="evenodd"/><path d="M369.73,259.66a5.89,5.89,0,1,0-5.9-5.89,5.69,5.69,0,0,0,5.9,5.89Zm0-1.38a4.52,4.52,0,1,1,4.29-4.51A4.24,4.24,0,0,1,369.73,258.28Z" fill="#fff" fill-rule="evenodd"/><path d="M381.89,259.66c3,0,4.78-1.29,4.78-3.3,0-4.44-7.51-2.08-7.51-5.21,0-1.1.93-1.91,3-1.91a5.88,5.88,0,0,1,3.41,1l.68-1.26a7.86,7.86,0,0,0-4.09-1.08c-2.95,0-4.58,1.41-4.58,3.3,0,4.58,7.5,2.21,7.5,5.22,0,1.14-.9,1.89-3.1,1.89a6.94,6.94,0,0,1-4.11-1.3l-.71,1.23A7.72,7.72,0,0,0,381.89,259.66Z" fill="#fff" fill-rule="evenodd"/><path d="M67.35,278.23a5,5,0,0,0-4.47,2.38v-2.29H61.39v15.84H63v-6.45a5,5,0,0,0,4.4,2.29,5.89,5.89,0,0,0,0-11.77Zm-.11,10.39a4.51,4.51,0,1,1,4.31-4.51A4.24,4.24,0,0,1,67.24,288.62Z" fill="#fff" fill-rule="evenodd"/><path d="M81,290a5.89,5.89,0,1,0-5.89-5.89A5.69,5.69,0,0,0,81,290Zm0-1.38a4.52,4.52,0,1,1,4.29-4.51A4.24,4.24,0,0,1,81,288.62Z" fill="#fff" fill-rule="evenodd"/><path d="M91.59,280.59v-2.27H90.1v11.57h1.56V284c0-2.73,1.47-4.27,3.89-4.27l.38,0v-1.52C93.79,278.23,92.32,279.05,91.59,280.59Z" fill="#fff" fill-rule="evenodd"/><path d="M110.58,278.23a4.87,4.87,0,0,0-4.4,2.22v-2.13h-1.5v11.57h1.56v-6.07c0-2.64,1.57-4.18,4.05-4.18,2.2,0,3.48,1.25,3.48,3.7v6.55h1.56v-6.71C115.33,279.86,113.39,278.23,110.58,278.23Z" fill="#fff" fill-rule="evenodd"/><path d="M124.35,290a5.89,5.89,0,1,0-5.9-5.89,5.68,5.68,0,0,0,5.9,5.89Zm0-1.38a4.52,4.52,0,1,1,4.29-4.51A4.24,4.24,0,0,1,124.35,288.62Z" fill="#fff" fill-rule="evenodd"/><path d="M136.52,290c3,0,4.77-1.3,4.77-3.3,0-4.44-7.5-2.08-7.5-5.21,0-1.1.92-1.92,3-1.92a6,6,0,0,1,3.41,1l.68-1.25a7.8,7.8,0,0,0-4.09-1.08c-3,0-4.57,1.41-4.57,3.3,0,4.58,7.5,2.21,7.5,5.22,0,1.14-.9,1.89-3.1,1.89a7,7,0,0,1-4.12-1.3l-.7,1.23A7.67,7.67,0,0,0,136.52,290Z" fill="#fff" fill-rule="evenodd"/><path d="M148.9,290a5.89,5.89,0,1,0-5.89-5.89A5.69,5.69,0,0,0,148.9,290Zm0-1.38a4.52,4.52,0,1,1,4.29-4.51A4.24,4.24,0,0,1,148.9,288.62Z" fill="#fff" fill-rule="evenodd"/><path d="M163.51,288.07a2.62,2.62,0,0,1-1.72.59,1.86,1.86,0,0,1-2-2.11v-6.91h3.52v-1.32h-3.52v-2.53h-1.56v2.53h-2.07v1.32h2.07v7a3.06,3.06,0,0,0,3.39,3.36,3.72,3.72,0,0,0,2.44-.81Z" fill="#fff" fill-rule="evenodd"/><path d="M168.39,280.59v-2.27H166.9v11.57h1.56V284c0-2.73,1.47-4.27,3.89-4.27l.38,0v-1.52C170.59,278.23,169.12,279.05,168.39,280.59Z" fill="#fff" fill-rule="evenodd"/><path d="M180.16,290a5.89,5.89,0,1,0-5.89-5.89,5.69,5.69,0,0,0,5.89,5.89Zm0-1.38a4.52,4.52,0,1,1,4.29-4.51A4.24,4.24,0,0,1,180.16,288.62Z" fill="#fff" fill-rule="evenodd"/><path d="M192.33,290c3,0,4.77-1.3,4.77-3.3,0-4.44-7.5-2.08-7.5-5.21,0-1.1.93-1.92,3-1.92a6,6,0,0,1,3.41,1l.68-1.25a7.86,7.86,0,0,0-4.09-1.08c-3,0-4.58,1.41-4.58,3.3,0,4.58,7.5,2.21,7.5,5.22,0,1.14-.9,1.89-3.1,1.89a6.94,6.94,0,0,1-4.11-1.3l-.71,1.23A7.72,7.72,0,0,0,192.33,290Z" fill="#fff" fill-rule="evenodd"/><path d="M200.16,287.6a1.15,1.15,0,0,0-1.16,1.19,1.11,1.11,0,0,0,.79,1.12L199,293.1h1.06l.92-3a3.61,3.61,0,0,0,.31-1.28A1.16,1.16,0,0,0,200.16,287.6Z" fill="#fff" fill-rule="evenodd"/><path d="M219.63,278.32v2.22a5.22,5.22,0,0,0-4.57-2.31,5.61,5.61,0,1,0,0,11.22,5.22,5.22,0,0,0,4.51-2.24v1.47c0,2.86-1.35,4.2-4.27,4.2a6.91,6.91,0,0,1-4.56-1.58l-.79,1.19a8.09,8.09,0,0,0,5.39,1.78c3.83,0,5.79-1.8,5.79-5.79V278.32Zm-4.42,9.75a4.24,4.24,0,1,1,4.4-4.25A4.14,4.14,0,0,1,215.21,288.07Z" fill="#fff" fill-rule="evenodd"/><path d="M229.55,278.23a7.32,7.32,0,0,0-4.7,1.56l.7,1.17a5.87,5.87,0,0,1,3.85-1.36c2.16,0,3.28,1.07,3.28,3v.71H229c-3.32,0-4.46,1.49-4.46,3.28,0,2,1.6,3.36,4.22,3.36a4.32,4.32,0,0,0,4-1.91v1.8h1.5v-7.17c0-3-1.69-4.49-4.69-4.49ZM229,288.77c-1.84,0-2.92-.84-2.92-2.18,0-1.19.72-2.07,3-2.07h3.63v1.9A3.72,3.72,0,0,1,229,288.77Z" fill="#fff" fill-rule="evenodd"/><path d="M240,280.59v-2.27h-1.5v11.57h1.57V284c0-2.73,1.47-4.27,3.89-4.27l.37,0v-1.52C242.18,278.23,240.71,279.05,240,280.59Z" fill="#fff" fill-rule="evenodd"/><path d="M251.16,278.23a7.35,7.35,0,0,0-4.71,1.56l.7,1.17A5.89,5.89,0,0,1,251,279.6c2.16,0,3.28,1.07,3.28,3v.71h-3.67c-3.32,0-4.47,1.49-4.47,3.28,0,2,1.61,3.36,4.23,3.36a4.35,4.35,0,0,0,4-1.91v1.8h1.49v-7.17c0-3-1.69-4.49-4.68-4.49Zm-.55,10.54c-1.85,0-2.93-.84-2.93-2.18,0-1.19.73-2.07,3-2.07h3.63v1.9A3.7,3.7,0,0,1,250.61,288.77Z" fill="#fff" fill-rule="evenodd"/><path d="M266,278.23a4.86,4.86,0,0,0-4.4,2.22v-2.13h-1.5v11.57h1.56v-6.07c0-2.64,1.56-4.18,4.05-4.18,2.2,0,3.48,1.25,3.48,3.7v6.55h1.56v-6.71C270.74,279.86,268.8,278.23,266,278.23Z" fill="#fff" fill-rule="evenodd"/><path d="M280.53,288.07a2.62,2.62,0,0,1-1.72.59,1.85,1.85,0,0,1-2-2.11v-6.91h3.52v-1.32h-3.52v-2.53h-1.56v2.53h-2.07v1.32h2.07v7a3.06,3.06,0,0,0,3.39,3.36,3.72,3.72,0,0,0,2.44-.81Z" fill="#fff" fill-rule="evenodd"/><path d="M284.71,275.79a1.12,1.12,0,0,0,1.14-1.14,1.1,1.1,0,0,0-1.14-1.08,1.11,1.11,0,1,0,0,2.22Zm-.8,14.1h1.57V278.32h-1.57Z" fill="#fff" fill-rule="evenodd"/><polygon points="290.58 288.59 297.86 279.35 297.86 278.32 288.71 278.32 288.71 279.64 295.86 279.64 288.58 288.86 288.58 289.89 298 289.89 298 288.59 290.58 288.59" fill="#fff" fill-rule="evenodd"/><path d="M308.84,273.81h-2.09l-3,2.73h1.54l3.56-2.73Zm-3.72,4.42a7.37,7.37,0,0,0-4.71,1.56l.71,1.17A5.85,5.85,0,0,1,305,279.6c2.16,0,3.28,1.07,3.28,3v.71h-3.68c-3.32,0-4.46,1.49-4.46,3.28,0,2,1.6,3.36,4.22,3.36a4.34,4.34,0,0,0,4-1.91v1.8h1.5v-7.17c0-3-1.7-4.49-4.69-4.49Zm-.55,10.54c-1.85,0-2.92-.84-2.92-2.18,0-1.19.72-2.07,3-2.07h3.63v1.9A3.72,3.72,0,0,1,304.57,288.77Z" fill="#fff" fill-rule="evenodd"/><path d="M320,278.23a4.89,4.89,0,0,0-4.4,2.22v-2.13h-1.5v11.57h1.57v-6.07c0-2.64,1.56-4.18,4-4.18,2.2,0,3.48,1.25,3.48,3.7v6.55h1.56v-6.71C324.7,279.86,322.77,278.23,320,278.23Z" fill="#fff" fill-rule="evenodd"/><path d="M338,273.57v6.95a5,5,0,0,0-4.4-2.29,5.89,5.89,0,0,0,0,11.77,5,5,0,0,0,4.47-2.4v2.29h1.49V273.57Zm-4.27,15.05a4.52,4.52,0,1,1,4.29-4.51A4.24,4.24,0,0,1,333.72,288.62Z" fill="#fff" fill-rule="evenodd"/><path d="M348.64,290a5.89,5.89,0,1,0-5.9-5.89,5.68,5.68,0,0,0,5.9,5.89Zm0-1.38a4.52,4.52,0,1,1,4.29-4.51A4.24,4.24,0,0,1,348.64,288.62Z" fill="#fff" fill-rule="evenodd"/><path d="M363.25,288.07a2.62,2.62,0,0,1-1.72.59,1.85,1.85,0,0,1-2-2.11v-6.91h3.52v-1.32h-3.52v-2.53H358v2.53H355.9v1.32H358v7a3.06,3.06,0,0,0,3.38,3.36,3.73,3.73,0,0,0,2.45-.81Z" fill="#fff" fill-rule="evenodd"/><path d="M376.31,284.11a5.51,5.51,0,0,0-5.61-5.88,5.57,5.57,0,0,0-5.65,5.88,6.12,6.12,0,0,0,10.54,4l-.88-1a4.58,4.58,0,0,1-3.54,1.52,4.29,4.29,0,0,1-4.56-4h9.68c0-.18,0-.35,0-.48Zm-5.61-4.54a4,4,0,0,1,4.12,3.85h-8.21A4,4,0,0,1,370.7,279.57Z" fill="#fff" fill-rule="evenodd"/><path d="M93.49,308.66V311A5,5,0,0,0,89,308.57a5.89,5.89,0,0,0,0,11.77,5,5,0,0,0,4.4-2.29v6.45H95V308.66ZM89.16,319a4.52,4.52,0,1,1,4.29-4.51A4.24,4.24,0,0,1,89.16,319Z" fill="#fff" fill-rule="evenodd"/><path d="M108.21,308.66v6.07c0,2.64-1.52,4.2-3.94,4.2-2.2,0-3.47-1.25-3.47-3.72v-6.55H99.24v6.71c0,3.32,1.93,5,4.88,5a4.61,4.61,0,0,0,4.16-2.22v2.11h1.49V308.66Z" fill="#fff" fill-rule="evenodd"/><path d="M124.25,314.44a5.63,5.63,0,1,0-11.26,0,6.11,6.11,0,0,0,10.53,4l-.88-1A4.55,4.55,0,0,1,119.1,319a4.27,4.27,0,0,1-4.55-4h9.68c0-.18,0-.35,0-.49Zm-5.61-4.53a4,4,0,0,1,4.11,3.85h-8.2A4,4,0,0,1,118.64,309.91Z" fill="#fff" fill-rule="evenodd"/><rect x="133.2" y="303.91" width="1.56" height="16.32" fill="#fff"/><path d="M143.17,308.57a7.35,7.35,0,0,0-4.71,1.56l.71,1.17a5.86,5.86,0,0,1,3.85-1.37c2.15,0,3.27,1.08,3.27,3.06v.71h-3.67c-3.32,0-4.47,1.49-4.47,3.27,0,2,1.61,3.37,4.23,3.37a4.36,4.36,0,0,0,4-1.91v1.8h1.5v-7.17c0-3-1.7-4.49-4.69-4.49Zm-.55,10.54c-1.85,0-2.93-.84-2.93-2.18s.73-2.07,3-2.07h3.63v1.89A3.69,3.69,0,0,1,142.62,319.11Z" fill="#fff" fill-rule="evenodd"/><path d="M163.83,308.57a5,5,0,0,0-4.47,2.38v-2.29h-1.49V324.5h1.56v-6.45a5,5,0,0,0,4.4,2.29,5.89,5.89,0,0,0,0-11.77ZM163.72,319a4.51,4.51,0,1,1,4.31-4.51A4.23,4.23,0,0,1,163.72,319Z" fill="#fff" fill-rule="evenodd"/><path d="M182.88,314.44a5.63,5.63,0,1,0-11.26,0,6.11,6.11,0,0,0,10.53,4l-.88-1a4.55,4.55,0,0,1-3.54,1.51,4.27,4.27,0,0,1-4.55-4h9.68c0-.18,0-.35,0-.49Zm-5.61-4.53a4,4,0,0,1,4.11,3.85h-8.2A4,4,0,0,1,177.27,309.91Z" fill="#fff" fill-rule="evenodd"/><path d="M187.57,310.92v-2.26h-1.5v11.57h1.56v-5.9c0-2.72,1.48-4.26,3.9-4.26l.37,0v-1.52C189.77,308.57,188.29,309.38,187.57,310.92Z" fill="#fff" fill-rule="evenodd"/><path d="M197.91,320.34c3,0,4.77-1.3,4.77-3.3,0-4.44-7.5-2.09-7.5-5.21,0-1.1.92-1.92,3-1.92a6,6,0,0,1,3.41,1l.68-1.25a7.8,7.8,0,0,0-4.09-1.08c-2.95,0-4.57,1.41-4.57,3.3,0,4.58,7.5,2.2,7.5,5.21,0,1.15-.9,1.9-3.1,1.9a7.06,7.06,0,0,1-4.12-1.3l-.7,1.23A7.74,7.74,0,0,0,197.91,320.34Z" fill="#fff" fill-rule="evenodd"/><path d="M210.29,320.34a5.89,5.89,0,1,0-5.89-5.9,5.69,5.69,0,0,0,5.89,5.9Zm0-1.39a4.52,4.52,0,1,1,4.29-4.51A4.24,4.24,0,0,1,210.29,319Z" fill="#fff" fill-rule="evenodd"/><path d="M225.25,308.57a4.86,4.86,0,0,0-4.4,2.22v-2.13h-1.49v11.57h1.56v-6.07c0-2.64,1.56-4.18,4.05-4.18,2.2,0,3.47,1.25,3.47,3.69v6.56H230v-6.71C230,310.2,228.07,308.57,225.25,308.57Z" fill="#fff" fill-rule="evenodd"/><path d="M238.3,308.57a7.35,7.35,0,0,0-4.71,1.56l.7,1.17a5.9,5.9,0,0,1,3.85-1.37c2.16,0,3.28,1.08,3.28,3.06v.71h-3.67c-3.32,0-4.47,1.49-4.47,3.27,0,2,1.61,3.37,4.23,3.37a4.37,4.37,0,0,0,4-1.91v1.8H243v-7.17c0-3-1.69-4.49-4.68-4.49Zm-.55,10.54c-1.85,0-2.93-.84-2.93-2.18s.73-2.07,3-2.07h3.63v1.89A3.69,3.69,0,0,1,237.75,319.11Z" fill="#fff" fill-rule="evenodd"/><path d="M262,303.91v6.95a5,5,0,0,0-4.4-2.29,5.89,5.89,0,0,0,0,11.77,5,5,0,0,0,4.47-2.4v2.29h1.49V303.91Zm-4.27,15a4.52,4.52,0,1,1,4.29-4.51A4.24,4.24,0,0,1,257.72,319Z" fill="#fff" fill-rule="evenodd"/><path d="M278,314.44a5.52,5.52,0,0,0-5.61-5.87,5.57,5.57,0,0,0-5.66,5.87,6.12,6.12,0,0,0,10.54,4l-.88-1a4.55,4.55,0,0,1-3.54,1.51,4.27,4.27,0,0,1-4.55-4H278c0-.18,0-.35,0-.49Zm-5.61-4.53a4,4,0,0,1,4.11,3.85h-8.2A4,4,0,0,1,272.4,309.91Z" fill="#fff" fill-rule="evenodd"/><path d="M286.74,318.4a2.57,2.57,0,0,1-1.71.6,1.86,1.86,0,0,1-2-2.11V310h3.52v-1.32H283v-2.53h-1.56v2.53h-2.07V310h2.07v7a3.07,3.07,0,0,0,3.39,3.37,3.7,3.7,0,0,0,2.44-.81Z" fill="#fff" fill-rule="evenodd"/><path d="M291.63,310.92v-2.26h-1.5v11.57h1.56v-5.9c0-2.72,1.48-4.26,3.9-4.26l.37,0v-1.52C293.83,308.57,292.35,309.38,291.63,310.92Z" fill="#fff" fill-rule="evenodd"/><path d="M306.52,304.15h-2.09l-3,2.73H303l3.56-2.73Zm-3.72,4.42a7.37,7.37,0,0,0-4.71,1.56l.71,1.17a5.86,5.86,0,0,1,3.85-1.37c2.15,0,3.28,1.08,3.28,3.06v.71h-3.68c-3.32,0-4.46,1.49-4.46,3.27,0,2,1.6,3.37,4.22,3.37a4.36,4.36,0,0,0,4-1.91v1.8h1.5v-7.17c0-3-1.7-4.49-4.69-4.49Zm-.55,10.54c-1.85,0-2.92-.84-2.92-2.18s.72-2.07,3-2.07h3.63v1.89A3.72,3.72,0,0,1,302.25,319.11Z" fill="#fff" fill-rule="evenodd"/><path d="M314.84,320.34c3,0,4.77-1.3,4.77-3.3,0-4.44-7.5-2.09-7.5-5.21,0-1.1.92-1.92,3-1.92a6,6,0,0,1,3.41,1l.68-1.25a7.8,7.8,0,0,0-4.09-1.08c-2.95,0-4.57,1.41-4.57,3.3,0,4.58,7.5,2.2,7.5,5.21,0,1.15-.9,1.9-3.1,1.9a7.06,7.06,0,0,1-4.12-1.3l-.7,1.23A7.74,7.74,0,0,0,314.84,320.34Z" fill="#fff" fill-rule="evenodd"/><path d="M337.25,303.91v6.95a5,5,0,0,0-4.4-2.29,5.89,5.89,0,0,0,0,11.77,5,5,0,0,0,4.47-2.4v2.29h1.5V303.91ZM333,319a4.52,4.52,0,1,1,4.29-4.51A4.24,4.24,0,0,1,333,319Z" fill="#fff" fill-rule="evenodd"/><path d="M353.27,314.44a5.63,5.63,0,1,0-11.26,0,6.11,6.11,0,0,0,10.53,4l-.88-1a4.55,4.55,0,0,1-3.54,1.51,4.27,4.27,0,0,1-4.55-4h9.68c0-.18,0-.35,0-.49Zm-5.61-4.53a4,4,0,0,1,4.11,3.85h-8.2A4,4,0,0,1,347.66,309.91Z" fill="#fff" fill-rule="evenodd"/><path d="M122.41,350.68a5.11,5.11,0,0,0,4.54-2.29l-1.17-.79a3.92,3.92,0,0,1-3.37,1.69,4.51,4.51,0,0,1,0-9,3.92,3.92,0,0,1,3.37,1.72l1.17-.79a5.07,5.07,0,0,0-4.54-2.29,5.89,5.89,0,1,0,0,11.77Z" fill="#fff" fill-rule="evenodd"/><path d="M134.05,338.91a7.37,7.37,0,0,0-4.71,1.56l.71,1.17a5.86,5.86,0,0,1,3.85-1.37c2.15,0,3.28,1.08,3.28,3.06v.7H133.5c-3.32,0-4.46,1.5-4.46,3.28,0,2,1.6,3.37,4.22,3.37a4.34,4.34,0,0,0,4-1.92v1.81h1.5V343.4c0-3-1.7-4.49-4.69-4.49Zm-.55,10.54c-1.85,0-2.92-.84-2.92-2.18,0-1.19.72-2.07,3-2.07h3.63v1.89A3.72,3.72,0,0,1,133.5,349.45Z" fill="#fff" fill-rule="evenodd"/><path d="M152,334.24v7a5.06,5.06,0,0,0-4.4-2.29,5.89,5.89,0,0,0,0,11.77,5,5,0,0,0,4.46-2.4v2.29h1.5V334.24Zm-4.27,15.05a4.52,4.52,0,1,1,4.29-4.51A4.23,4.23,0,0,1,147.76,349.29Z" fill="#fff" fill-rule="evenodd"/><path d="M162,338.91a7.37,7.37,0,0,0-4.71,1.56l.71,1.17a5.86,5.86,0,0,1,3.85-1.37c2.15,0,3.28,1.08,3.28,3.06v.7h-3.68c-3.32,0-4.46,1.5-4.46,3.28,0,2,1.6,3.37,4.22,3.37a4.34,4.34,0,0,0,4-1.92v1.81h1.5V343.4c0-3-1.7-4.49-4.69-4.49Zm-.55,10.54c-1.85,0-2.92-.84-2.92-2.18,0-1.19.72-2.07,3-2.07h3.63v1.89A3.72,3.72,0,0,1,161.44,349.45Z" fill="#fff" fill-rule="evenodd"/><polygon points="184.87 339 180.49 348.85 176.16 339 174.53 339 179.66 350.57 181.26 350.57 186.41 339 184.87 339" fill="#fff" fill-rule="evenodd"/><path d="M189.4,336.47a1.13,1.13,0,0,0,1.15-1.15,1.12,1.12,0,0,0-1.15-1.08,1.12,1.12,0,1,0,0,2.23Zm-.79,14.1h1.56V339h-1.56Z" fill="#fff" fill-rule="evenodd"/><polygon points="202.71 339 198.34 348.85 194 339 192.37 339 197.5 350.57 199.1 350.57 204.25 339 202.71 339" fill="#fff" fill-rule="evenodd"/><path d="M207.24,336.47a1.12,1.12,0,1,0-1.14-1.13,1.14,1.14,0,0,0,1.14,1.13Zm-.79,14.1H208V339h-1.57Z" fill="#fff" fill-rule="evenodd"/><path d="M222.47,344.78a5.51,5.51,0,0,0-5.61-5.87,5.57,5.57,0,0,0-5.66,5.87,6.12,6.12,0,0,0,10.54,4l-.88-1a4.53,4.53,0,0,1-3.54,1.52,4.27,4.27,0,0,1-4.55-4h9.68c0-.18,0-.36,0-.49Zm-5.61-4.53A4,4,0,0,1,221,344.1h-8.2A4,4,0,0,1,216.86,340.25Z" fill="#fff" fill-rule="evenodd"/><path d="M231.55,338.91a4.86,4.86,0,0,0-4.4,2.22V339h-1.49v11.57h1.56V344.5c0-2.64,1.56-4.18,4.05-4.18,2.2,0,3.47,1.25,3.47,3.69v6.56h1.57v-6.71C236.31,340.54,234.37,338.91,231.55,338.91Z" fill="#fff" fill-rule="evenodd"/><path d="M249.59,334.24v7a5,5,0,0,0-4.4-2.29,5.89,5.89,0,0,0,0,11.77,5,5,0,0,0,4.47-2.4v2.29h1.5V334.24Zm-4.26,15.05a4.52,4.52,0,1,1,4.29-4.51A4.24,4.24,0,0,1,245.33,349.29Z" fill="#fff" fill-rule="evenodd"/><path d="M259.56,338.91a7.35,7.35,0,0,0-4.71,1.56l.71,1.17a5.86,5.86,0,0,1,3.85-1.37c2.15,0,3.27,1.08,3.27,3.06v.7H259c-3.32,0-4.47,1.5-4.47,3.28,0,2,1.61,3.37,4.23,3.37a4.34,4.34,0,0,0,4-1.92v1.81h1.5V343.4c0-3-1.7-4.49-4.69-4.49ZM259,349.45c-1.85,0-2.93-.84-2.93-2.18,0-1.19.73-2.07,3-2.07h3.63v1.89A3.69,3.69,0,0,1,259,349.45Z" fill="#fff" fill-rule="evenodd"/><path d="M284.35,344.78a5.51,5.51,0,0,0-5.61-5.87,5.57,5.57,0,0,0-5.65,5.87,6.12,6.12,0,0,0,10.54,4l-.88-1a4.54,4.54,0,0,1-3.54,1.52,4.29,4.29,0,0,1-4.56-4h9.68c0-.18,0-.36,0-.49Zm-5.61-4.53a4,4,0,0,1,4.12,3.85h-8.21A4,4,0,0,1,278.74,340.25Z" fill="#fff" fill-rule="evenodd"/><path d="M290.65,350.68c3,0,4.77-1.3,4.77-3.3,0-4.44-7.5-2.09-7.5-5.22,0-1.1.92-1.91,3-1.91a6,6,0,0,1,3.41,1L295,340a7.8,7.8,0,0,0-4.09-1.08c-2.95,0-4.57,1.41-4.57,3.3,0,4.57,7.5,2.2,7.5,5.21,0,1.15-.9,1.89-3.1,1.89a7.06,7.06,0,0,1-4.12-1.29l-.7,1.23A7.74,7.74,0,0,0,290.65,350.68Z" fill="#fff" fill-rule="evenodd"/><path d="M314.16,344.78a5.51,5.51,0,0,0-5.61-5.87,5.57,5.57,0,0,0-5.65,5.87,6.12,6.12,0,0,0,10.54,4l-.88-1a4.54,4.54,0,0,1-3.54,1.52,4.29,4.29,0,0,1-4.56-4h9.68c0-.18,0-.36,0-.49Zm-5.61-4.53a4,4,0,0,1,4.12,3.85h-8.21A4,4,0,0,1,308.55,340.25Z" fill="#fff" fill-rule="evenodd"/><rect x="317.35" y="334.24" width="1.56" height="16.32" fill="#fff"/><path d="M163.42,369.25a5,5,0,0,0-4.46,2.37v-2.29h-1.5v15.84H159v-6.44a5.07,5.07,0,0,0,4.4,2.29,5.89,5.89,0,0,0,0-11.77Zm-.11,10.38a4.51,4.51,0,1,1,4.31-4.51A4.24,4.24,0,0,1,163.31,379.63Z" fill="#fff" fill-rule="evenodd"/><path d="M173.87,371.6v-2.27h-1.49v11.58h1.56V375c0-2.73,1.47-4.27,3.89-4.27l.38,0v-1.51C176.07,369.25,174.6,370.06,173.87,371.6Z" fill="#fff" fill-rule="evenodd"/><path d="M185.64,381a5.89,5.89,0,1,0-5.89-5.9,5.7,5.7,0,0,0,5.89,5.9Zm0-1.39a4.52,4.52,0,1,1,4.29-4.51A4.24,4.24,0,0,1,185.64,379.63Z" fill="#fff" fill-rule="evenodd"/><path d="M200.67,369.25a5,5,0,0,0-4.47,2.37v-2.29h-1.49v15.84h1.56v-6.44a5.07,5.07,0,0,0,4.4,2.29,5.89,5.89,0,0,0,0-11.77Zm-.11,10.38a4.51,4.51,0,1,1,4.31-4.51A4.23,4.23,0,0,1,200.56,379.63Z" fill="#fff" fill-rule="evenodd"/><path d="M210.41,366.8a1.11,1.11,0,1,0-1.14-1.12,1.12,1.12,0,0,0,1.14,1.12Zm-.79,14.11h1.56V369.33h-1.56Z" fill="#fff" fill-rule="evenodd"/><path d="M225.64,375.12a5.51,5.51,0,0,0-5.61-5.87,5.57,5.57,0,0,0-5.66,5.87,5.74,5.74,0,0,0,6.08,5.9,5.67,5.67,0,0,0,4.46-1.9l-.88-1a4.56,4.56,0,0,1-3.54,1.52,4.28,4.28,0,0,1-4.55-4h9.68c0-.17,0-.35,0-.48ZM220,370.59a4,4,0,0,1,4.11,3.85h-8.2A4,4,0,0,1,220,370.59Z" fill="#fff" fill-rule="evenodd"/><path d="M234.37,379.08a2.56,2.56,0,0,1-1.71.59,1.85,1.85,0,0,1-2-2.11v-6.91h3.52v-1.32h-3.52V366.8h-1.56v2.53H227v1.32h2.07v7a3.07,3.07,0,0,0,3.39,3.37,3.71,3.71,0,0,0,2.44-.82Z" fill="#fff" fill-rule="evenodd"/><path d="M241.81,369.25a7.35,7.35,0,0,0-4.71,1.56l.7,1.16a5.94,5.94,0,0,1,3.85-1.36c2.16,0,3.28,1.08,3.28,3.06v.7h-3.67c-3.32,0-4.47,1.5-4.47,3.28,0,2,1.61,3.37,4.23,3.37a4.35,4.35,0,0,0,4-1.92v1.81h1.49v-7.18c0-3-1.69-4.48-4.68-4.48Zm-.55,10.53c-1.85,0-2.93-.83-2.93-2.17s.73-2.07,3-2.07h3.63v1.89A3.69,3.69,0,0,1,241.26,379.78Z" fill="#fff" fill-rule="evenodd"/><path d="M252.23,371.6v-2.27h-1.49v11.58h1.56V375c0-2.73,1.48-4.27,3.89-4.27l.38,0v-1.51C254.43,369.25,253,370.06,252.23,371.6Z" fill="#fff" fill-rule="evenodd"/><path d="M260.18,366.8a1.11,1.11,0,1,0,0-2.22,1.11,1.11,0,1,0,0,2.22Zm-.8,14.11H261V369.33h-1.57Z" fill="#fff" fill-rule="evenodd"/><path d="M270,381a5.89,5.89,0,1,0-5.89-5.9A5.7,5.7,0,0,0,270,381Zm0-1.39a4.52,4.52,0,1,1,4.29-4.51A4.24,4.24,0,0,1,270,379.63Z" fill="#fff" fill-rule="evenodd"/><path d="M278.92,381a1.2,1.2,0,0,0,1.19-1.21,1.18,1.18,0,0,0-1.19-1.19,1.16,1.16,0,0,0-1.17,1.19A1.19,1.19,0,0,0,278.92,381Z" fill="#fff" fill-rule="evenodd"/></svg>