<svg id="Capa_1" data-name="Capa 1" xmlns="http://www.w3.org/2000/svg" xmlns:xlink="http://www.w3.org/1999/xlink" width="154mm" height="154mm" viewBox="0 0 436.54 436.54"><defs><linearGradient id="GradientFill_1" x1="228.18" y1="203.67" x2="-40.12" y2="598.69" gradientTransform="translate(218.27 -90.41) rotate(45)" gradientUnits="userSpaceOnUse"><stop offset="0" stop-color="#292123"/><stop offset="0.48" stop-color="#3b3338"/><stop offset="1" stop-color="#1a1413"/></linearGradient></defs><title>QUESITO NEGRO CIRCULO 2</title><circle cx="218.27" cy="218.27" r="218.04" transform="translate(-90.41 218.27) rotate(-45)" fill="url(#GradientFill_1)"/><polygon points="197.21 44.41 198.84 44.41 198.84 30.42 204.25 30.42 204.25 29.01 191.8 29.01 191.8 30.42 197.21 30.42 197.21 44.41" fill="#fff" fill-rule="evenodd"/><path d="M210,44.52a5.68,5.68,0,0,0,5.87-5.89,5.89,5.89,0,0,0-11.77,0,5.71,5.71,0,0,0,5.9,5.89Zm0-1.38a4.24,4.24,0,0,1-4.31-4.51,4.3,4.3,0,1,1,8.6,0A4.23,4.23,0,0,1,210,43.14Z" fill="#fff" fill-rule="evenodd"/><path d="M228.1,28.09v7a5.07,5.07,0,0,0-4.4-2.29,5.6,5.6,0,0,0-5.76,5.88,5.61,5.61,0,0,0,5.76,5.89,5,5,0,0,0,4.47-2.39v2.28h1.49V28.09Zm-4.27,15.05a4.24,4.24,0,0,1-4.31-4.51,4.3,4.3,0,1,1,8.6,0A4.23,4.23,0,0,1,223.83,43.14Z" fill="#fff" fill-rule="evenodd"/><path d="M238.07,32.75a7.36,7.36,0,0,0-4.71,1.57l.7,1.16a5.94,5.94,0,0,1,3.85-1.36c2.16,0,3.28,1.08,3.28,3.06v.7h-3.67c-3.32,0-4.47,1.5-4.47,3.28,0,2,1.61,3.36,4.23,3.36a4.35,4.35,0,0,0,4-1.91v1.8h1.49V37.24c0-3-1.69-4.49-4.68-4.49Zm-.55,10.54c-1.85,0-2.93-.83-2.93-2.18,0-1.18.73-2.06,3-2.06h3.63v1.89A3.69,3.69,0,0,1,237.52,43.29Z" fill="#fff" fill-rule="evenodd"/><rect x="119.91" y="58.43" width="1.56" height="16.32" fill="#fff"/><path d="M129.87,63.09a7.37,7.37,0,0,0-4.71,1.56l.71,1.17a5.85,5.85,0,0,1,3.85-1.36c2.15,0,3.28,1.07,3.28,3.05v.71h-3.68c-3.32,0-4.46,1.49-4.46,3.28,0,2,1.6,3.36,4.22,3.36a4.34,4.34,0,0,0,4-1.91v1.8h1.5V67.58c0-3-1.7-4.49-4.69-4.49Zm-.55,10.54c-1.85,0-2.92-.84-2.92-2.18,0-1.19.72-2.07,3-2.07H133v1.9A3.72,3.72,0,0,1,129.32,73.63Z" fill="#fff" fill-rule="evenodd"/><path d="M153.57,58.43v6.95a5.06,5.06,0,0,0-4.4-2.29,5.89,5.89,0,0,0,0,11.77,5,5,0,0,0,4.46-2.4v2.29h1.5V58.43ZM149.3,73.48A4.52,4.52,0,1,1,153.59,69,4.24,4.24,0,0,1,149.3,73.48Z" fill="#fff" fill-rule="evenodd"/><path d="M164.21,74.86A5.89,5.89,0,1,0,158.32,69a5.69,5.69,0,0,0,5.89,5.89Zm0-1.38A4.52,4.52,0,1,1,168.5,69,4.24,4.24,0,0,1,164.21,73.48Z" fill="#fff" fill-rule="evenodd"/><path d="M178.07,74.86a5.11,5.11,0,0,0,4.54-2.29l-1.17-.79a3.91,3.91,0,0,1-3.37,1.7,4.51,4.51,0,0,1,0-9,3.94,3.94,0,0,1,3.37,1.71l1.17-.79a5.07,5.07,0,0,0-4.54-2.29,5.89,5.89,0,1,0,0,11.77Z" fill="#fff" fill-rule="evenodd"/><path d="M194.53,63.18v6.07c0,2.64-1.52,4.2-3.94,4.2-2.2,0-3.47-1.25-3.47-3.71V63.18h-1.57v6.71c0,3.32,1.94,5,4.89,5a4.61,4.61,0,0,0,4.16-2.22v2.11h1.49V63.18Z" fill="#fff" fill-rule="evenodd"/><path d="M214.9,63.09a5,5,0,0,0-4.57,2.44,4.17,4.17,0,0,0-4.12-2.44,4.68,4.68,0,0,0-4.24,2.2V63.18h-1.5V74.75H202V68.68c0-2.64,1.52-4.18,3.87-4.18,2.12,0,3.35,1.25,3.35,3.7v6.55h1.56V68.68c0-2.64,1.5-4.18,3.87-4.18,2.09,0,3.32,1.25,3.32,3.7v6.55h1.57V68C219.57,64.72,217.72,63.09,214.9,63.09Z" fill="#fff" fill-rule="evenodd"/><path d="M234,69a5.51,5.51,0,0,0-5.61-5.88A5.57,5.57,0,0,0,222.69,69a6.12,6.12,0,0,0,10.54,4l-.88-1a4.58,4.58,0,0,1-3.55,1.52,4.29,4.29,0,0,1-4.55-4h9.68c0-.18,0-.35,0-.48Zm-5.61-4.54a4,4,0,0,1,4.12,3.85h-8.21A4,4,0,0,1,228.34,64.43Z" fill="#fff" fill-rule="evenodd"/><path d="M243,63.09a4.87,4.87,0,0,0-4.4,2.22V63.18h-1.5V74.75h1.56V68.68c0-2.64,1.57-4.18,4.05-4.18,2.2,0,3.48,1.25,3.48,3.7v6.55h1.56V68C247.79,64.72,245.85,63.09,243,63.09Z" fill="#fff" fill-rule="evenodd"/><path d="M257.58,72.93a2.61,2.61,0,0,1-1.71.59,1.86,1.86,0,0,1-2-2.11V64.5h3.52V63.18h-3.52V60.65H252.3v2.53h-2.07V64.5h2.07v7a3.06,3.06,0,0,0,3.39,3.36,3.7,3.7,0,0,0,2.44-.81Z" fill="#fff" fill-rule="evenodd"/><path d="M265,63.09a7.35,7.35,0,0,0-4.71,1.56l.7,1.17a5.89,5.89,0,0,1,3.85-1.36c2.16,0,3.28,1.07,3.28,3.05v.71h-3.67c-3.33,0-4.47,1.49-4.47,3.28,0,2,1.61,3.36,4.22,3.36a4.35,4.35,0,0,0,4-1.91v1.8h1.49V67.58c0-3-1.69-4.49-4.68-4.49Zm-.55,10.54c-1.85,0-2.93-.84-2.93-2.18,0-1.19.73-2.07,3-2.07h3.63v1.9A3.7,3.7,0,0,1,264.47,73.63Z" fill="#fff" fill-rule="evenodd"/><path d="M278.79,74.86a5.08,5.08,0,0,0,4.53-2.29l-1.17-.79a3.9,3.9,0,0,1-3.36,1.7,4.51,4.51,0,0,1,0-9,3.93,3.93,0,0,1,3.36,1.71l1.17-.79a5,5,0,0,0-4.53-2.29,5.89,5.89,0,1,0,0,11.77Z" fill="#fff" fill-rule="evenodd"/><path d="M287.17,60.65a1.12,1.12,0,0,0,1.14-1.14,1.1,1.1,0,0,0-1.14-1.08,1.11,1.11,0,1,0,0,2.22Zm-.79,14.1h1.56V63.18h-1.56Z" fill="#fff" fill-rule="evenodd"/><path d="M295.57,61.4h1.54l3.57-2.73h-2.09l-3,2.73ZM297,74.86a5.89,5.89,0,1,0-5.9-5.89,5.69,5.69,0,0,0,5.9,5.89Zm0-1.38A4.52,4.52,0,1,1,301.32,69,4.24,4.24,0,0,1,297,73.48Z" fill="#fff" fill-rule="evenodd"/><path d="M312,63.09a4.86,4.86,0,0,0-4.4,2.22V63.18h-1.5V74.75h1.56V68.68c0-2.64,1.56-4.18,4.05-4.18,2.2,0,3.48,1.25,3.48,3.7v6.55h1.56V68C316.74,64.72,314.8,63.09,312,63.09Z" fill="#fff" fill-rule="evenodd"/><path d="M83.91,105.2c3,0,4.78-1.3,4.78-3.3,0-4.44-7.5-2.09-7.5-5.21,0-1.1.92-1.92,3-1.92a6,6,0,0,1,3.41,1l.68-1.25a7.83,7.83,0,0,0-4.09-1.08c-3,0-4.58,1.41-4.58,3.3,0,4.58,7.51,2.2,7.51,5.21,0,1.15-.91,1.9-3.11,1.9a7,7,0,0,1-4.11-1.3l-.7,1.23A7.73,7.73,0,0,0,83.91,105.2Z" fill="#fff" fill-rule="evenodd"/><path d="M96.3,105.2a5.89,5.89,0,1,0-5.9-5.9,5.69,5.69,0,0,0,5.9,5.9Zm0-1.39a4.52,4.52,0,1,1,4.29-4.51A4.24,4.24,0,0,1,96.3,103.81Z" fill="#fff" fill-rule="evenodd"/><path d="M111.33,93.43a5,5,0,0,0-4.4,2.29v-7h-1.57v16.32h1.5V102.8a5,5,0,0,0,4.47,2.4,5.89,5.89,0,0,0,0-11.77Zm-.11,10.38a4.51,4.51,0,1,1,4.31-4.51A4.24,4.24,0,0,1,111.22,103.81Z" fill="#fff" fill-rule="evenodd"/><path d="M121.78,95.78V93.52h-1.5v11.57h1.56v-5.9c0-2.72,1.48-4.26,3.9-4.26l.37,0V93.43C124,93.43,122.5,94.24,121.78,95.78Z" fill="#fff" fill-rule="evenodd"/><path d="M138.91,99.3a5.51,5.51,0,0,0-5.61-5.87,5.57,5.57,0,0,0-5.65,5.87,6.12,6.12,0,0,0,10.54,4l-.88-1a4.57,4.57,0,0,1-3.54,1.51,4.29,4.29,0,0,1-4.56-4h9.68c0-.18,0-.35,0-.49Zm-5.61-4.53a4,4,0,0,1,4.12,3.85h-8.21A4,4,0,0,1,133.3,94.77Z" fill="#fff" fill-rule="evenodd"/><rect x="147.87" y="88.77" width="1.56" height="16.32" fill="#fff"/><path d="M157.83,93.43a7.32,7.32,0,0,0-4.7,1.56l.7,1.17a5.88,5.88,0,0,1,3.85-1.37c2.16,0,3.28,1.08,3.28,3.06v.71h-3.68c-3.32,0-4.46,1.49-4.46,3.27,0,2,1.6,3.37,4.22,3.37a4.34,4.34,0,0,0,4-1.91v1.8h1.5V97.92c0-3-1.69-4.49-4.69-4.49ZM157.28,104c-1.84,0-2.92-.84-2.92-2.18s.72-2.07,3-2.07H161v1.89A3.72,3.72,0,0,1,157.28,104Z" fill="#fff" fill-rule="evenodd"/><path d="M178.49,93.43A5,5,0,0,0,174,95.81V93.52h-1.5v15.84h1.56v-6.45a5,5,0,0,0,4.4,2.29,5.89,5.89,0,0,0,0-11.77Zm-.11,10.38a4.51,4.51,0,1,1,4.31-4.51A4.24,4.24,0,0,1,178.38,103.81Z" fill="#fff" fill-rule="evenodd"/><path d="M188.94,95.78V93.52h-1.49v11.57H189v-5.9c0-2.72,1.47-4.26,3.89-4.26l.38,0V93.43C191.14,93.43,189.67,94.24,188.94,95.78Z" fill="#fff" fill-rule="evenodd"/><path d="M200.71,105.2a5.89,5.89,0,1,0-5.89-5.9,5.69,5.69,0,0,0,5.89,5.9Zm0-1.39A4.52,4.52,0,1,1,205,99.3,4.24,4.24,0,0,1,200.71,103.81Z" fill="#fff" fill-rule="evenodd"/><path d="M215.74,93.43a5,5,0,0,0-4.47,2.38V93.52h-1.49v15.84h1.56v-6.45a5,5,0,0,0,4.4,2.29,5.89,5.89,0,0,0,0-11.77Zm-.11,10.38a4.51,4.51,0,1,1,4.31-4.51A4.23,4.23,0,0,1,215.63,103.81Z" fill="#fff" fill-rule="evenodd"/><path d="M225.48,91a1.13,1.13,0,0,0,1.15-1.15,1.11,1.11,0,0,0-1.15-1.07,1.11,1.11,0,1,0,0,2.22Zm-.79,14.1h1.56V93.52h-1.56Z" fill="#fff" fill-rule="evenodd"/><path d="M240.71,99.3a5.52,5.52,0,0,0-5.61-5.87,5.57,5.57,0,0,0-5.66,5.87,6.12,6.12,0,0,0,10.54,4l-.88-1a4.55,4.55,0,0,1-3.54,1.51,4.27,4.27,0,0,1-4.55-4h9.68c0-.18,0-.35,0-.49Zm-5.61-4.53a4,4,0,0,1,4.11,3.85H231A4,4,0,0,1,235.1,94.77Z" fill="#fff" fill-rule="evenodd"/><path d="M252.9,88.77v7a5.06,5.06,0,0,0-4.4-2.29,5.89,5.89,0,0,0,0,11.77,5,5,0,0,0,4.46-2.4v2.29h1.5V88.77Zm-4.27,15a4.52,4.52,0,1,1,4.29-4.51A4.23,4.23,0,0,1,248.63,103.81Z" fill="#fff" fill-rule="evenodd"/><path d="M262.86,93.43A7.37,7.37,0,0,0,258.15,95l.71,1.17a5.86,5.86,0,0,1,3.85-1.37c2.15,0,3.28,1.08,3.28,3.06v.71h-3.68c-3.32,0-4.46,1.49-4.46,3.27,0,2,1.6,3.37,4.22,3.37a4.36,4.36,0,0,0,4-1.91v1.8h1.5V97.92c0-3-1.7-4.49-4.69-4.49ZM262.31,104c-1.85,0-2.92-.84-2.92-2.18s.72-2.07,3-2.07H266v1.89A3.72,3.72,0,0,1,262.31,104Z" fill="#fff" fill-rule="evenodd"/><path d="M280.84,88.77v7a5.06,5.06,0,0,0-4.4-2.29,5.89,5.89,0,0,0,0,11.77,5,5,0,0,0,4.46-2.4v2.29h1.5V88.77Zm-4.27,15a4.52,4.52,0,1,1,4.29-4.51A4.23,4.23,0,0,1,276.57,103.81Z" fill="#fff" fill-rule="evenodd"/><path d="M302.62,99.3A5.52,5.52,0,0,0,297,93.43a5.57,5.57,0,0,0-5.66,5.87,6.12,6.12,0,0,0,10.54,4l-.88-1a4.55,4.55,0,0,1-3.54,1.51,4.29,4.29,0,0,1-4.56-4h9.68c0-.18,0-.35,0-.49ZM297,94.77a4,4,0,0,1,4.11,3.85h-8.21A4,4,0,0,1,297,94.77Z" fill="#fff" fill-rule="evenodd"/><path d="M308.91,105.2c3,0,4.77-1.3,4.77-3.3,0-4.44-7.5-2.09-7.5-5.21,0-1.1.92-1.92,3-1.92a6,6,0,0,1,3.41,1l.69-1.25a7.87,7.87,0,0,0-4.1-1.08c-2.94,0-4.57,1.41-4.57,3.3,0,4.58,7.5,2.2,7.5,5.21,0,1.15-.9,1.9-3.1,1.9a7.06,7.06,0,0,1-4.12-1.3l-.7,1.23A7.76,7.76,0,0,0,308.91,105.2Z" fill="#fff" fill-rule="evenodd"/><path d="M322.11,103.26a2.58,2.58,0,0,1-1.72.6,1.85,1.85,0,0,1-2-2.11V94.84h3.52V93.52h-3.52V91h-1.56v2.53h-2.07v1.32h2.07v7a3.07,3.07,0,0,0,3.39,3.37,3.72,3.72,0,0,0,2.44-.81Z" fill="#fff" fill-rule="evenodd"/><path d="M329.54,93.43a7.32,7.32,0,0,0-4.7,1.56l.7,1.17a5.88,5.88,0,0,1,3.85-1.37c2.16,0,3.28,1.08,3.28,3.06v.71H329c-3.32,0-4.46,1.49-4.46,3.27,0,2,1.6,3.37,4.22,3.37a4.34,4.34,0,0,0,4-1.91v1.8h1.5V97.92c0-3-1.69-4.49-4.69-4.49ZM329,104c-1.84,0-2.92-.84-2.92-2.18s.72-2.07,3-2.07h3.63v1.89A3.72,3.72,0,0,1,329,104Z" fill="#fff" fill-rule="evenodd"/><path d="M340,95.78V93.52h-1.5v11.57H340v-5.9c0-2.72,1.47-4.26,3.89-4.26l.37,0V93.43C342.17,93.43,340.7,94.24,340,95.78Z" fill="#fff" fill-rule="evenodd"/><path d="M354.87,89h-2.09l-3,2.73h1.54L354.87,89Zm-3.72,4.42A7.35,7.35,0,0,0,346.44,95l.7,1.17A5.9,5.9,0,0,1,351,94.79c2.16,0,3.28,1.08,3.28,3.06v.71H350.6c-3.33,0-4.47,1.49-4.47,3.27,0,2,1.61,3.37,4.23,3.37a4.37,4.37,0,0,0,4-1.91v1.8h1.49V97.92c0-3-1.69-4.49-4.68-4.49ZM350.6,104c-1.85,0-2.93-.84-2.93-2.18s.73-2.07,3-2.07h3.63v1.89A3.69,3.69,0,0,1,350.6,104Z" fill="#fff" fill-rule="evenodd"/><path d="M67.59,119.1v7a5,5,0,0,0-4.4-2.29,5.89,5.89,0,0,0,0,11.77,5,5,0,0,0,4.47-2.4v2.29h1.49V119.1Zm-4.27,15.05a4.52,4.52,0,1,1,4.29-4.51A4.24,4.24,0,0,1,63.32,134.15Z" fill="#fff" fill-rule="evenodd"/><path d="M74.3,121.33a1.12,1.12,0,0,0,1.14-1.15,1.11,1.11,0,0,0-1.14-1.08,1.12,1.12,0,1,0,0,2.23Zm-.79,14.1h1.56V123.86H73.51Z" fill="#fff" fill-rule="evenodd"/><path d="M82.53,135.54c3,0,4.77-1.3,4.77-3.3,0-4.44-7.5-2.09-7.5-5.22,0-1.1.92-1.91,3-1.91a6,6,0,0,1,3.41,1l.69-1.25a7.87,7.87,0,0,0-4.1-1.08c-2.94,0-4.57,1.41-4.57,3.3,0,4.57,7.5,2.2,7.5,5.21,0,1.15-.9,1.89-3.1,1.89a7.06,7.06,0,0,1-4.12-1.29l-.7,1.23A7.76,7.76,0,0,0,82.53,135.54Z" fill="#fff" fill-rule="evenodd"/><path d="M96.15,123.77a5,5,0,0,0-4.47,2.37v-2.28h-1.5V139.7h1.57v-6.45a5,5,0,0,0,4.4,2.29,5.89,5.89,0,0,0,0-11.77ZM96,134.15a4.51,4.51,0,1,1,4.31-4.51A4.24,4.24,0,0,1,96,134.15Z" fill="#fff" fill-rule="evenodd"/><path d="M109.83,135.54a5.89,5.89,0,1,0-5.9-5.9,5.69,5.69,0,0,0,5.9,5.9Zm0-1.39a4.52,4.52,0,1,1,4.29-4.51A4.24,4.24,0,0,1,109.83,134.15Z" fill="#fff" fill-rule="evenodd"/><path d="M124.79,123.77a4.86,4.86,0,0,0-4.4,2.22v-2.13h-1.5v11.57h1.57v-6.07c0-2.64,1.56-4.18,4-4.18,2.2,0,3.48,1.25,3.48,3.69v6.56h1.56v-6.71C129.54,125.4,127.61,123.77,124.79,123.77Z" fill="#fff" fill-rule="evenodd"/><path d="M134.58,121.33a1.12,1.12,0,0,0,1.14-1.15,1.11,1.11,0,0,0-1.14-1.08,1.12,1.12,0,1,0,0,2.23Zm-.79,14.1h1.56V123.86h-1.56Z" fill="#fff" fill-rule="evenodd"/><path d="M145.67,123.77a5,5,0,0,0-4.4,2.29v-7h-1.56v16.33h1.49v-2.29a5,5,0,0,0,4.47,2.4,5.89,5.89,0,0,0,0-11.77Zm-.11,10.38a4.51,4.51,0,1,1,4.31-4.51A4.23,4.23,0,0,1,145.56,134.15Z" fill="#fff" fill-rule="evenodd"/><rect x="154.62" y="119.1" width="1.56" height="16.32" fill="#fff"/><path d="M170.64,129.64a5.52,5.52,0,0,0-5.61-5.87,5.57,5.57,0,0,0-5.66,5.87,6.12,6.12,0,0,0,10.54,4l-.88-1a4.53,4.53,0,0,1-3.54,1.52,4.27,4.27,0,0,1-4.55-4h9.68c0-.18,0-.36,0-.49ZM165,125.11a4,4,0,0,1,4.11,3.85h-8.2A4,4,0,0,1,165,125.11Z" fill="#fff" fill-rule="evenodd"/><path d="M189.69,129.64a5.63,5.63,0,1,0-11.26,0,6.11,6.11,0,0,0,10.53,4l-.88-1a4.53,4.53,0,0,1-3.54,1.52,4.27,4.27,0,0,1-4.55-4h9.68c0-.18,0-.36,0-.49Zm-5.61-4.53a4,4,0,0,1,4.11,3.85H180A4,4,0,0,1,184.08,125.11Z" fill="#fff" fill-rule="evenodd"/><path d="M198.78,123.77a4.84,4.84,0,0,0-4.4,2.22v-2.13h-1.5v11.57h1.56v-6.07c0-2.64,1.56-4.18,4.05-4.18,2.2,0,3.48,1.25,3.48,3.69v6.56h1.56v-6.71C203.53,125.4,201.59,123.77,198.78,123.77Z" fill="#fff" fill-rule="evenodd"/><rect x="213.54" y="119.1" width="1.56" height="16.32" fill="#fff"/><path d="M223.5,123.77a7.32,7.32,0,0,0-4.7,1.56l.7,1.17a5.88,5.88,0,0,1,3.85-1.37c2.16,0,3.28,1.08,3.28,3.06v.7H223c-3.32,0-4.46,1.5-4.46,3.28,0,2,1.6,3.37,4.22,3.37a4.33,4.33,0,0,0,4-1.92v1.81h1.5v-7.17c0-3-1.69-4.49-4.69-4.49ZM223,134.31c-1.84,0-2.92-.84-2.92-2.18,0-1.19.72-2.07,3-2.07h3.63V132A3.72,3.72,0,0,1,223,134.31Z" fill="#fff" fill-rule="evenodd"/><path d="M244.16,123.77a5,5,0,0,0-4.46,2.37v-2.28h-1.5V139.7h1.56v-6.45a5,5,0,0,0,4.4,2.29,5.89,5.89,0,0,0,0-11.77Zm-.11,10.38a4.51,4.51,0,1,1,4.31-4.51A4.24,4.24,0,0,1,244.05,134.15Z" fill="#fff" fill-rule="evenodd"/><rect x="253.11" y="119.1" width="1.56" height="16.32" fill="#fff"/><path d="M263.08,123.77a7.35,7.35,0,0,0-4.71,1.56l.71,1.17a5.86,5.86,0,0,1,3.85-1.37c2.15,0,3.27,1.08,3.27,3.06v.7h-3.67c-3.32,0-4.47,1.5-4.47,3.28,0,2,1.61,3.37,4.23,3.37a4.34,4.34,0,0,0,4-1.92v1.81h1.5v-7.17c0-3-1.7-4.49-4.69-4.49Zm-.55,10.54c-1.85,0-2.93-.84-2.93-2.18,0-1.19.73-2.07,3-2.07h3.63V132A3.69,3.69,0,0,1,262.53,134.31Z" fill="#fff" fill-rule="evenodd"/><path d="M277.56,133.6a2.58,2.58,0,0,1-1.72.6,1.85,1.85,0,0,1-2-2.12v-6.9h3.52v-1.32h-3.52v-2.53h-1.56v2.53h-2.07v1.32h2.07v7a3.06,3.06,0,0,0,3.38,3.37,3.74,3.74,0,0,0,2.45-.82Z" fill="#fff" fill-rule="evenodd"/><path d="M285,123.77a7.37,7.37,0,0,0-4.71,1.56l.71,1.17a5.86,5.86,0,0,1,3.85-1.37c2.15,0,3.28,1.08,3.28,3.06v.7h-3.68c-3.32,0-4.46,1.5-4.46,3.28,0,2,1.6,3.37,4.22,3.37a4.34,4.34,0,0,0,4-1.92v1.81h1.5v-7.17c0-3-1.7-4.49-4.69-4.49Zm-.55,10.54c-1.85,0-2.92-.84-2.92-2.18,0-1.19.72-2.07,3-2.07h3.63V132A3.72,3.72,0,0,1,284.44,134.31Z" fill="#fff" fill-rule="evenodd"/><path d="M297.75,120.31a2.63,2.63,0,0,1,1.72.58l.53-1.17a3.73,3.73,0,0,0-2.31-.73,3.19,3.19,0,0,0-3.5,3.44v1.43h-2.07v1.32h2.07v10.25h1.56V125.18h3.52v-1.32h-3.56v-1.37C295.71,121.06,296.41,120.31,297.75,120.31Z" fill="#fff" fill-rule="evenodd"/><path d="M305.91,135.54a5.89,5.89,0,1,0-5.89-5.9,5.7,5.7,0,0,0,5.89,5.9Zm0-1.39a4.52,4.52,0,1,1,4.29-4.51A4.24,4.24,0,0,1,305.91,134.15Z" fill="#fff" fill-rule="evenodd"/><path d="M316.47,126.12v-2.26H315v11.57h1.56v-5.9c0-2.73,1.47-4.27,3.89-4.27.11,0,.25,0,.38,0v-1.52C318.67,123.77,317.2,124.58,316.47,126.12Z" fill="#fff" fill-rule="evenodd"/><path d="M338.06,123.77a5,5,0,0,0-4.58,2.44,4.15,4.15,0,0,0-4.11-2.44,4.67,4.67,0,0,0-4.25,2.2v-2.11h-1.5v11.57h1.57v-6.07c0-2.64,1.51-4.18,3.87-4.18,2.11,0,3.34,1.25,3.34,3.69v6.56H334v-6.07c0-2.64,1.5-4.18,3.88-4.18,2.09,0,3.32,1.25,3.32,3.69v6.56h1.56v-6.71C342.72,125.4,340.87,123.77,338.06,123.77Z" fill="#fff" fill-rule="evenodd"/><path d="M351,123.77a7.32,7.32,0,0,0-4.7,1.56l.7,1.17a5.88,5.88,0,0,1,3.85-1.37c2.16,0,3.28,1.08,3.28,3.06v.7h-3.68c-3.32,0-4.46,1.5-4.46,3.28,0,2,1.6,3.37,4.22,3.37a4.33,4.33,0,0,0,4-1.92v1.81h1.5v-7.17c0-3-1.69-4.49-4.69-4.49Zm-.55,10.54c-1.84,0-2.92-.84-2.92-2.18,0-1.19.72-2.07,3-2.07h3.63V132A3.72,3.72,0,0,1,350.46,134.31Z" fill="#fff" fill-rule="evenodd"/><path d="M360.12,133.14a1.15,1.15,0,0,0-1.16,1.19,1.11,1.11,0,0,0,.79,1.12l-.75,3.19h1.06l.92-3a3.57,3.57,0,0,0,.31-1.27A1.16,1.16,0,0,0,360.12,133.14Z" fill="#fff" fill-rule="evenodd"/><path d="M378.56,123.86l-4.36,9.83-4.35-9.83h-1.63l5.17,11.55-.51,1.12c-.66,1.45-1.36,1.93-2.4,1.93a2.86,2.86,0,0,1-2.11-.88l-.72,1.17a4,4,0,0,0,2.81,1.06c1.65,0,2.88-.73,3.85-3l5.79-13Z" fill="#fff" fill-rule="evenodd"/><path d="M78.39,163.94a2.56,2.56,0,0,1-1.71.59,1.85,1.85,0,0,1-2-2.11v-6.91h3.52v-1.32H74.67v-2.53H73.11v2.53H71v1.32h2.07v7a3.07,3.07,0,0,0,3.39,3.37,3.71,3.71,0,0,0,2.44-.82Z" fill="#fff" fill-rule="evenodd"/><path d="M91.46,160a5.51,5.51,0,0,0-5.61-5.87A5.57,5.57,0,0,0,80.2,160a5.73,5.73,0,0,0,6.07,5.9,5.67,5.67,0,0,0,4.46-1.9l-.88-1a4.56,4.56,0,0,1-3.54,1.52,4.28,4.28,0,0,1-4.55-4h9.68c0-.17,0-.35,0-.48Zm-5.61-4.53A4,4,0,0,1,90,159.3h-8.2A4,4,0,0,1,85.85,155.45Z" fill="#fff" fill-rule="evenodd"/><path d="M100.55,154.11a4.84,4.84,0,0,0-4.4,2.22v-2.14h-1.5v11.58h1.56v-6.08c0-2.64,1.56-4.18,4.05-4.18,2.2,0,3.48,1.26,3.48,3.7v6.56h1.56v-6.71C105.3,155.73,103.36,154.11,100.55,154.11Z" fill="#fff" fill-rule="evenodd"/><path d="M118.59,149.44v6.95a5.07,5.07,0,0,0-4.4-2.28,5.89,5.89,0,0,0,0,11.77,5,5,0,0,0,4.46-2.4v2.29h1.5V149.44Zm-4.27,15.05a4.52,4.52,0,1,1,4.29-4.51A4.23,4.23,0,0,1,114.32,164.49Z" fill="#fff" fill-rule="evenodd"/><path d="M126,156.46v-2.27h-1.5v11.58h1.57v-5.9c0-2.73,1.47-4.27,3.89-4.27l.37,0v-1.51C128.2,154.11,126.73,154.92,126,156.46Z" fill="#fff" fill-rule="evenodd"/><path d="M140.89,149.68H138.8l-3,2.73h1.54l3.56-2.73Zm-3.71,4.43a7.33,7.33,0,0,0-4.71,1.56l.7,1.16a5.94,5.94,0,0,1,3.85-1.36c2.16,0,3.28,1.08,3.28,3.06v.7h-3.67c-3.33,0-4.47,1.5-4.47,3.28,0,2,1.61,3.37,4.22,3.37a4.36,4.36,0,0,0,4-1.92v1.81h1.49v-7.18c0-3-1.69-4.48-4.68-4.48Zm-.55,10.53c-1.85,0-2.93-.83-2.93-2.17,0-1.19.73-2.07,3-2.07h3.63v1.89A3.69,3.69,0,0,1,136.63,164.64Z" fill="#fff" fill-rule="evenodd"/><path d="M149.21,165.88c3,0,4.77-1.3,4.77-3.3,0-4.44-7.5-2.09-7.5-5.22,0-1.1.93-1.91,3-1.91a5.92,5.92,0,0,1,3.41,1l.68-1.26a7.85,7.85,0,0,0-4.09-1.07c-2.95,0-4.58,1.4-4.58,3.3,0,4.57,7.5,2.2,7.5,5.21,0,1.14-.9,1.89-3.1,1.89a6.94,6.94,0,0,1-4.11-1.3l-.71,1.24A7.78,7.78,0,0,0,149.21,165.88Z" fill="#fff" fill-rule="evenodd"/><path d="M166.68,154.11a7.35,7.35,0,0,0-4.71,1.56l.7,1.16a5.94,5.94,0,0,1,3.85-1.36c2.16,0,3.28,1.08,3.28,3.06v.7h-3.67c-3.32,0-4.47,1.5-4.47,3.28,0,2,1.61,3.37,4.23,3.37a4.35,4.35,0,0,0,4-1.92v1.81h1.49v-7.18c0-3-1.69-4.48-4.68-4.48Zm-.55,10.53c-1.85,0-2.93-.83-2.93-2.17,0-1.19.73-2.07,3-2.07h3.63v1.89A3.69,3.69,0,0,1,166.13,164.64Z" fill="#fff" fill-rule="evenodd"/><path d="M180.45,165.88a5.11,5.11,0,0,0,4.53-2.29l-1.16-.79a3.94,3.94,0,0,1-3.37,1.69,4.51,4.51,0,0,1,0-9,4,4,0,0,1,3.37,1.72l1.16-.8a5.05,5.05,0,0,0-4.53-2.28,5.89,5.89,0,1,0,0,11.77Z" fill="#fff" fill-rule="evenodd"/><path d="M192.64,165.88a5.11,5.11,0,0,0,4.53-2.29L196,162.8a3.91,3.91,0,0,1-3.36,1.69,4.51,4.51,0,0,1,0-9,3.92,3.92,0,0,1,3.36,1.72l1.17-.8a5.05,5.05,0,0,0-4.53-2.28,5.89,5.89,0,1,0,0,11.77Z" fill="#fff" fill-rule="evenodd"/><path d="M210.13,160a5.51,5.51,0,0,0-5.61-5.87,5.57,5.57,0,0,0-5.66,5.87,5.74,5.74,0,0,0,6.08,5.9,5.67,5.67,0,0,0,4.46-1.9l-.88-1a4.56,4.56,0,0,1-3.54,1.52,4.28,4.28,0,0,1-4.55-4h9.68c0-.17,0-.35,0-.48Zm-5.61-4.53a4,4,0,0,1,4.11,3.85h-8.2A4,4,0,0,1,204.52,155.45Z" fill="#fff" fill-rule="evenodd"/><path d="M216.42,165.88c3,0,4.77-1.3,4.77-3.3,0-4.44-7.5-2.09-7.5-5.22,0-1.1.93-1.91,3-1.91a5.92,5.92,0,0,1,3.41,1l.68-1.26a7.85,7.85,0,0,0-4.09-1.07c-3,0-4.58,1.4-4.58,3.3,0,4.57,7.5,2.2,7.5,5.21,0,1.14-.9,1.89-3.1,1.89a6.94,6.94,0,0,1-4.11-1.3l-.71,1.24A7.78,7.78,0,0,0,216.42,165.88Z" fill="#fff" fill-rule="evenodd"/><path d="M228.81,165.88a5.89,5.89,0,1,0-5.9-5.9,5.7,5.7,0,0,0,5.9,5.9Zm0-1.39A4.52,4.52,0,1,1,233.1,160,4.24,4.24,0,0,1,228.81,164.49Z" fill="#fff" fill-rule="evenodd"/><path d="M247.68,154.11a7.37,7.37,0,0,0-4.71,1.56l.71,1.16a5.9,5.9,0,0,1,3.85-1.36c2.15,0,3.28,1.08,3.28,3.06v.7h-3.68c-3.32,0-4.46,1.5-4.46,3.28,0,2,1.6,3.37,4.22,3.37a4.34,4.34,0,0,0,4-1.92v1.81h1.5v-7.18c0-3-1.7-4.48-4.69-4.48Zm-.55,10.53c-1.85,0-2.92-.83-2.92-2.17,0-1.19.72-2.07,3-2.07h3.63v1.89A3.71,3.71,0,0,1,247.13,164.64Z" fill="#fff" fill-rule="evenodd"/><rect x="262.38" y="149.44" width="1.56" height="16.32" fill="#fff"/><path d="M272.34,154.11a7.32,7.32,0,0,0-4.7,1.56l.7,1.16a5.92,5.92,0,0,1,3.85-1.36c2.16,0,3.28,1.08,3.28,3.06v.7h-3.68c-3.32,0-4.46,1.5-4.46,3.28,0,2,1.6,3.37,4.22,3.37a4.33,4.33,0,0,0,4-1.92v1.81H277v-7.18c0-3-1.69-4.48-4.69-4.48Zm-.55,10.53c-1.84,0-2.92-.83-2.92-2.17,0-1.19.72-2.07,3-2.07h3.63v1.89A3.71,3.71,0,0,1,271.79,164.64Z" fill="#fff" fill-rule="evenodd"/><path d="M301.47,154.11a5,5,0,0,0-4.57,2.44,4.16,4.16,0,0,0-4.12-2.44,4.66,4.66,0,0,0-4.24,2.2v-2.12H287v11.58h1.56v-6.08c0-2.64,1.52-4.18,3.87-4.18,2.12,0,3.35,1.26,3.35,3.7v6.56h1.56v-6.08c0-2.64,1.5-4.18,3.87-4.18,2.09,0,3.32,1.26,3.32,3.7v6.56h1.57v-6.71C306.14,155.73,304.29,154.11,301.47,154.11Z" fill="#fff" fill-rule="evenodd"/><path d="M311.17,151.66a1.11,1.11,0,1,0-1.14-1.12,1.12,1.12,0,0,0,1.14,1.12Zm-.79,14.11h1.56V154.19h-1.56Z" fill="#fff" fill-rule="evenodd"/><path d="M319.4,165.88c3,0,4.77-1.3,4.77-3.3,0-4.44-7.5-2.09-7.5-5.22,0-1.1.93-1.91,3-1.91a5.9,5.9,0,0,1,3.41,1l.68-1.26a7.85,7.85,0,0,0-4.09-1.07c-2.95,0-4.58,1.4-4.58,3.3,0,4.57,7.5,2.2,7.5,5.21,0,1.14-.9,1.89-3.1,1.89a6.94,6.94,0,0,1-4.11-1.3l-.71,1.24A7.78,7.78,0,0,0,319.4,165.88Z" fill="#fff" fill-rule="evenodd"/><path d="M341.49,154.11a5,5,0,0,0-4.58,2.44,4.15,4.15,0,0,0-4.11-2.44,4.68,4.68,0,0,0-4.25,2.2v-2.12h-1.49v11.58h1.56v-6.08c0-2.64,1.52-4.18,3.87-4.18,2.11,0,3.34,1.26,3.34,3.7v6.56h1.57v-6.08c0-2.64,1.49-4.18,3.87-4.18,2.09,0,3.32,1.26,3.32,3.7v6.56h1.56v-6.71C346.15,155.73,344.31,154.11,341.49,154.11Z" fill="#fff" fill-rule="evenodd"/><path d="M354.45,154.11a7.35,7.35,0,0,0-4.71,1.56l.7,1.16a5.94,5.94,0,0,1,3.85-1.36c2.16,0,3.28,1.08,3.28,3.06v.7H353.9c-3.33,0-4.47,1.5-4.47,3.28,0,2,1.61,3.37,4.22,3.37a4.36,4.36,0,0,0,4-1.92v1.81h1.49v-7.18c0-3-1.69-4.48-4.68-4.48Zm-.55,10.53c-1.85,0-2.93-.83-2.93-2.17,0-1.19.73-2.07,3-2.07h3.63v1.89A3.69,3.69,0,0,1,353.9,164.64Z" fill="#fff" fill-rule="evenodd"/><path d="M363.53,165.88a1.2,1.2,0,0,0,1.19-1.21,1.18,1.18,0,0,0-1.19-1.19,1.16,1.16,0,0,0-1.16,1.19A1.18,1.18,0,0,0,363.53,165.88Z" fill="#fff" fill-rule="evenodd"/><path d="M40.41,196.24A7.46,7.46,0,0,0,46.06,194l-1-1a6,6,0,0,1-4.55,1.84,6.38,6.38,0,1,1,0-12.76A6.08,6.08,0,0,1,45,183.85l1-1a7.43,7.43,0,0,0-5.63-2.25,7.84,7.84,0,1,0,0,15.67Z" fill="#fff" fill-rule="evenodd"/><path d="M53.43,196.21a5.89,5.89,0,1,0-5.89-5.89,5.69,5.69,0,0,0,5.89,5.89Zm0-1.38a4.52,4.52,0,1,1,4.29-4.51A4.24,4.24,0,0,1,53.43,194.83Z" fill="#fff" fill-rule="evenodd"/><path d="M76.93,184.44a5,5,0,0,0-4.58,2.45,4.15,4.15,0,0,0-4.11-2.45,4.7,4.7,0,0,0-4.25,2.2v-2.11H62.5V196.1h1.56V190c0-2.64,1.52-4.18,3.87-4.18,2.11,0,3.35,1.26,3.35,3.7v6.55h1.56V190c0-2.64,1.49-4.18,3.87-4.18,2.09,0,3.32,1.26,3.32,3.7v6.55h1.56v-6.71C81.59,186.07,79.75,184.44,76.93,184.44Z" fill="#fff" fill-rule="evenodd"/><path d="M90.61,196.21a5.89,5.89,0,1,0-5.89-5.89,5.69,5.69,0,0,0,5.89,5.89Zm0-1.38a4.52,4.52,0,1,1,4.29-4.51A4.24,4.24,0,0,1,90.61,194.83Z" fill="#fff" fill-rule="evenodd"/><path d="M114.31,184.53v6.07c0,2.64-1.52,4.21-3.94,4.21-2.2,0-3.48-1.26-3.48-3.72v-6.56h-1.56v6.71c0,3.32,1.94,5,4.88,5a4.59,4.59,0,0,0,4.16-2.22v2.11h1.5V184.53Z" fill="#fff" fill-rule="evenodd"/><path d="M123.35,196.21c3,0,4.77-1.29,4.77-3.3,0-4.44-7.5-2.08-7.5-5.21,0-1.1.93-1.91,3-1.91a5.87,5.87,0,0,1,3.4,1l.69-1.26a7.86,7.86,0,0,0-4.09-1.08c-3,0-4.58,1.41-4.58,3.3,0,4.58,7.5,2.21,7.5,5.22,0,1.14-.9,1.89-3.1,1.89a7,7,0,0,1-4.12-1.3l-.7,1.23A7.69,7.69,0,0,0,123.35,196.21Z" fill="#fff" fill-rule="evenodd"/><path d="M139.87,184.53v6.07c0,2.64-1.52,4.21-3.94,4.21-2.2,0-3.47-1.26-3.47-3.72v-6.56h-1.57v6.71c0,3.32,1.94,5,4.89,5a4.61,4.61,0,0,0,4.16-2.22v2.11h1.49V184.53Z" fill="#fff" fill-rule="evenodd"/><path d="M149.86,184.44a7.36,7.36,0,0,0-4.71,1.57l.7,1.16a5.94,5.94,0,0,1,3.85-1.36c2.16,0,3.28,1.08,3.28,3.06v.7h-3.67c-3.32,0-4.47,1.5-4.47,3.28,0,2,1.61,3.36,4.23,3.36a4.35,4.35,0,0,0,4-1.91v1.8h1.49v-7.17c0-3-1.69-4.49-4.68-4.49ZM149.31,195c-1.85,0-2.93-.83-2.93-2.18,0-1.18.73-2.06,3-2.06H153v1.89A3.69,3.69,0,0,1,149.31,195Z" fill="#fff" fill-rule="evenodd"/><path d="M160.29,186.8v-2.27h-1.5V196.1h1.56v-5.89c0-2.73,1.48-4.27,3.9-4.27l.37,0v-1.52C162.49,184.44,161,185.26,160.29,186.8Z" fill="#fff" fill-rule="evenodd"/><path d="M168.23,182a1.11,1.11,0,0,0,1.14-1.14,1.1,1.1,0,0,0-1.14-1.08,1.11,1.11,0,1,0,0,2.22Zm-.79,14.1H169V184.53h-1.56Z" fill="#fff" fill-rule="evenodd"/><path d="M178.08,196.21a5.89,5.89,0,1,0-5.89-5.89,5.69,5.69,0,0,0,5.89,5.89Zm0-1.38a4.52,4.52,0,1,1,4.29-4.51A4.24,4.24,0,0,1,178.08,194.83Z" fill="#fff" fill-rule="evenodd"/><path d="M198.87,184.44a5,5,0,0,0-4.46,2.38v-2.29h-1.5v15.84h1.56v-6.44a5.07,5.07,0,0,0,4.4,2.28,5.89,5.89,0,0,0,0-11.77Zm-.11,10.39a4.51,4.51,0,1,1,4.32-4.51A4.24,4.24,0,0,1,198.76,194.83Z" fill="#fff" fill-rule="evenodd"/><path d="M212.56,196.21a5.89,5.89,0,1,0-5.9-5.89,5.68,5.68,0,0,0,5.9,5.89Zm0-1.38a4.52,4.52,0,1,1,4.29-4.51A4.24,4.24,0,0,1,212.56,194.83Z" fill="#fff" fill-rule="evenodd"/><path d="M230.62,179.78v6.95a5.07,5.07,0,0,0-4.4-2.29,5.89,5.89,0,0,0,0,11.77,5,5,0,0,0,4.47-2.39v2.28h1.49V179.78Zm-4.27,15.05a4.52,4.52,0,1,1,4.29-4.51A4.24,4.24,0,0,1,226.35,194.83Z" fill="#fff" fill-rule="evenodd"/><path d="M238,186.8v-2.27h-1.49V196.1h1.56v-5.89c0-2.73,1.47-4.27,3.89-4.27l.38,0v-1.52C240.23,184.44,238.76,185.26,238,186.8Z" fill="#fff" fill-rule="evenodd"/><path d="M252.93,180h-2.09l-3,2.73h1.54l3.57-2.73Zm-3.72,4.42A7.36,7.36,0,0,0,244.5,186l.71,1.16a5.9,5.9,0,0,1,3.85-1.36c2.15,0,3.27,1.08,3.27,3.06v.7h-3.67c-3.32,0-4.47,1.5-4.47,3.28,0,2,1.61,3.36,4.23,3.36a4.34,4.34,0,0,0,4-1.91v1.8h1.5v-7.17c0-3-1.7-4.49-4.69-4.49ZM248.66,195c-1.85,0-2.93-.83-2.93-2.18,0-1.18.73-2.06,3-2.06h3.63v1.89A3.69,3.69,0,0,1,248.66,195Z" fill="#fff" fill-rule="evenodd"/><path d="M261.24,196.21c3,0,4.78-1.29,4.78-3.3,0-4.44-7.5-2.08-7.5-5.21,0-1.1.92-1.91,3-1.91a5.88,5.88,0,0,1,3.41,1l.68-1.26a7.83,7.83,0,0,0-4.09-1.08c-2.95,0-4.58,1.41-4.58,3.3,0,4.58,7.51,2.21,7.51,5.22,0,1.14-.91,1.89-3.11,1.89a7,7,0,0,1-4.11-1.3l-.7,1.23A7.66,7.66,0,0,0,261.24,196.21Z" fill="#fff" fill-rule="evenodd"/><path d="M280.21,194.28a2.62,2.62,0,0,1-1.72.59,1.85,1.85,0,0,1-2-2.11v-6.91H280v-1.32h-3.52V182h-1.56v2.53h-2.07v1.32h2.07v7a3.06,3.06,0,0,0,3.39,3.36,3.72,3.72,0,0,0,2.44-.81Z" fill="#fff" fill-rule="evenodd"/><path d="M285.09,186.8v-2.27H283.6V196.1h1.56v-5.89c0-2.73,1.47-4.27,3.89-4.27l.38,0v-1.52C287.29,184.44,285.82,185.26,285.09,186.8Z" fill="#fff" fill-rule="evenodd"/><path d="M296.27,184.44a7.36,7.36,0,0,0-4.71,1.57l.7,1.16a5.94,5.94,0,0,1,3.85-1.36c2.16,0,3.28,1.08,3.28,3.06v.7h-3.67c-3.32,0-4.47,1.5-4.47,3.28,0,2,1.61,3.36,4.23,3.36a4.35,4.35,0,0,0,4-1.91v1.8H301v-7.17c0-3-1.69-4.49-4.68-4.49ZM295.72,195c-1.85,0-2.93-.83-2.93-2.18,0-1.18.73-2.06,3-2.06h3.63v1.89A3.69,3.69,0,0,1,295.72,195Z" fill="#fff" fill-rule="evenodd"/><path d="M311.16,184.44a5.07,5.07,0,0,0-4.4,2.29v-6.95H305.2V196.1h1.5v-2.28a5,5,0,0,0,4.46,2.39,5.89,5.89,0,0,0,0-11.77Zm-.11,10.39a4.51,4.51,0,1,1,4.31-4.51A4.24,4.24,0,0,1,311.05,194.83Z" fill="#fff" fill-rule="evenodd"/><path d="M324.1,184.44a7.36,7.36,0,0,0-4.71,1.57l.7,1.16a5.94,5.94,0,0,1,3.85-1.36c2.16,0,3.28,1.08,3.28,3.06v.7h-3.67c-3.32,0-4.47,1.5-4.47,3.28,0,2,1.61,3.36,4.23,3.36a4.35,4.35,0,0,0,4-1.91v1.8h1.49v-7.17c0-3-1.69-4.49-4.68-4.49ZM323.55,195c-1.85,0-2.93-.83-2.93-2.18,0-1.18.73-2.06,3-2.06h3.63v1.89A3.69,3.69,0,0,1,323.55,195Z" fill="#fff" fill-rule="evenodd"/><path d="M333.93,182a1.12,1.12,0,0,0,1.15-1.14,1.11,1.11,0,0,0-1.15-1.08,1.11,1.11,0,1,0,0,2.22Zm-2.62,18.48A3.17,3.17,0,0,0,334.7,197V184.53h-1.56V197c0,1.43-.68,2.18-1.91,2.18a2.74,2.74,0,0,1-1.81-.59l-.55,1.18A3.78,3.78,0,0,0,331.31,200.48Z" fill="#fff" fill-rule="evenodd"/><path d="M343.11,184.44A7.34,7.34,0,0,0,338.4,186l.7,1.16a5.94,5.94,0,0,1,3.85-1.36c2.16,0,3.28,1.08,3.28,3.06v.7h-3.67c-3.33,0-4.47,1.5-4.47,3.28,0,2,1.61,3.36,4.22,3.36a4.35,4.35,0,0,0,4-1.91v1.8h1.49v-7.17c0-3-1.69-4.49-4.68-4.49ZM342.56,195c-1.85,0-2.93-.83-2.93-2.18,0-1.18.73-2.06,3-2.06h3.63v1.89A3.69,3.69,0,0,1,342.56,195Z" fill="#fff" fill-rule="evenodd"/><path d="M353.53,186.8v-2.27H352V196.1h1.56v-5.89c0-2.73,1.47-4.27,3.89-4.27l.38,0v-1.52C355.73,184.44,354.26,185.26,353.53,186.8Z" fill="#fff" fill-rule="evenodd"/><path d="M371.42,196.21a5.1,5.1,0,0,0,4.53-2.28l-1.16-.8a3.93,3.93,0,0,1-3.37,1.7,4.51,4.51,0,0,1,0-9,4,4,0,0,1,3.37,1.71l1.16-.79a5,5,0,0,0-4.53-2.29,5.89,5.89,0,1,0,0,11.77Z" fill="#fff" fill-rule="evenodd"/><path d="M383.54,196.21a5.89,5.89,0,1,0-5.89-5.89,5.69,5.69,0,0,0,5.89,5.89Zm0-1.38a4.52,4.52,0,1,1,4.29-4.51A4.24,4.24,0,0,1,383.54,194.83Z" fill="#fff" fill-rule="evenodd"/><path d="M398.5,184.44a4.87,4.87,0,0,0-4.4,2.23v-2.14h-1.49V196.1h1.56V190c0-2.64,1.56-4.18,4.05-4.18,2.2,0,3.47,1.26,3.47,3.7v6.55h1.56v-6.71C403.25,186.07,401.32,184.44,398.5,184.44Z" fill="#fff" fill-rule="evenodd"/><rect x="50.05" y="210.12" width="1.56" height="16.32" fill="#fff"/><path d="M60,214.78a7.32,7.32,0,0,0-4.71,1.57l.71,1.16a5.85,5.85,0,0,1,3.85-1.36c2.15,0,3.28,1.07,3.28,3v.71H59.46c-3.32,0-4.46,1.49-4.46,3.28,0,2,1.6,3.36,4.22,3.36a4.34,4.34,0,0,0,4-1.91v1.8h1.5v-7.17c0-3-1.7-4.49-4.69-4.49Zm-.55,10.54c-1.85,0-2.92-.84-2.92-2.18,0-1.19.72-2.07,3-2.07h3.63V223A3.72,3.72,0,0,1,59.46,225.32Z" fill="#fff" fill-rule="evenodd"/><path d="M79.5,226.55A5.13,5.13,0,0,0,84,224.27l-1.17-.8a3.91,3.91,0,0,1-3.37,1.7,4.51,4.51,0,0,1,0-9,3.94,3.94,0,0,1,3.37,1.71l1.17-.79a5.07,5.07,0,0,0-4.54-2.29,5.89,5.89,0,1,0,0,11.77Z" fill="#fff" fill-rule="evenodd"/><path d="M91.14,214.78a7.32,7.32,0,0,0-4.71,1.57l.71,1.16A5.85,5.85,0,0,1,91,216.15c2.15,0,3.28,1.07,3.28,3v.71H90.59c-3.32,0-4.46,1.49-4.46,3.28,0,2,1.6,3.36,4.22,3.36a4.34,4.34,0,0,0,4-1.91v1.8h1.5v-7.17c0-3-1.7-4.49-4.69-4.49Zm-.55,10.54c-1.85,0-2.92-.84-2.92-2.18,0-1.19.72-2.07,3-2.07h3.63V223A3.72,3.72,0,0,1,90.59,225.32Z" fill="#fff" fill-rule="evenodd"/><path d="M101.57,217.14v-2.27h-1.5v11.57h1.57v-5.89c0-2.73,1.47-4.27,3.89-4.27l.37,0v-1.52C103.77,214.78,102.29,215.6,101.57,217.14Z" fill="#fff" fill-rule="evenodd"/><path d="M114.77,224.62a2.62,2.62,0,0,1-1.72.59,1.86,1.86,0,0,1-2-2.11v-6.91h3.52v-1.32h-3.52v-2.53h-1.56v2.53h-2.07v1.32h2.07v7a3.06,3.06,0,0,0,3.39,3.36,3.72,3.72,0,0,0,2.44-.81Z" fill="#fff" fill-rule="evenodd"/><path d="M127.84,220.66a5.52,5.52,0,0,0-5.61-5.88,5.58,5.58,0,0,0-5.66,5.88,6.12,6.12,0,0,0,10.54,4l-.88-1a4.56,4.56,0,0,1-3.54,1.52,4.29,4.29,0,0,1-4.56-4h9.68c0-.18,0-.35,0-.48Zm-5.61-4.54a4,4,0,0,1,4.11,3.85h-8.21A4,4,0,0,1,122.23,216.12Z" fill="#fff" fill-rule="evenodd"/><path d="M132.52,217.14v-2.27H131v11.57h1.56v-5.89c0-2.73,1.47-4.27,3.89-4.27l.38,0v-1.52C134.72,214.78,133.25,215.6,132.52,217.14Z" fill="#fff" fill-rule="evenodd"/><path d="M143.7,214.78a7.3,7.3,0,0,0-4.71,1.57l.7,1.16a5.9,5.9,0,0,1,3.86-1.36c2.15,0,3.27,1.07,3.27,3v.71h-3.67c-3.32,0-4.47,1.49-4.47,3.28,0,2,1.61,3.36,4.23,3.36a4.35,4.35,0,0,0,4-1.91v1.8h1.49v-7.17c0-3-1.69-4.49-4.68-4.49Zm-.55,10.54c-1.85,0-2.93-.84-2.93-2.18,0-1.19.73-2.07,3-2.07h3.63V223A3.7,3.7,0,0,1,143.15,225.32Z" fill="#fff" fill-rule="evenodd"/><path d="M163.19,226.55a5.1,5.1,0,0,0,4.53-2.28l-1.16-.8a3.93,3.93,0,0,1-3.37,1.7,4.51,4.51,0,0,1,0-9,4,4,0,0,1,3.37,1.71l1.16-.79a5,5,0,0,0-4.53-2.29,5.89,5.89,0,1,0,0,11.77Z" fill="#fff" fill-rule="evenodd"/><path d="M175.31,226.55a5.89,5.89,0,1,0-5.89-5.89,5.69,5.69,0,0,0,5.89,5.89Zm0-1.38a4.52,4.52,0,1,1,4.29-4.51A4.24,4.24,0,0,1,175.31,225.17Z" fill="#fff" fill-rule="evenodd"/><path d="M198.81,214.78a5.06,5.06,0,0,0-4.58,2.44,4.16,4.16,0,0,0-4.11-2.44,4.7,4.7,0,0,0-4.25,2.2v-2.11h-1.49v11.57h1.56v-6.07c0-2.64,1.52-4.18,3.87-4.18,2.11,0,3.34,1.25,3.34,3.7v6.55h1.57v-6.07c0-2.64,1.49-4.18,3.87-4.18,2.09,0,3.32,1.25,3.32,3.7v6.55h1.56v-6.71C203.47,216.41,201.62,214.78,198.81,214.78Z" fill="#fff" fill-rule="evenodd"/><path d="M212.49,226.55a5.89,5.89,0,1,0-5.89-5.89,5.69,5.69,0,0,0,5.89,5.89Zm0-1.38a4.52,4.52,0,1,1,4.29-4.51A4.24,4.24,0,0,1,212.49,225.17Z" fill="#fff" fill-rule="evenodd"/><path d="M230.42,226.55c3,0,4.78-1.3,4.78-3.3,0-4.44-7.51-2.08-7.51-5.21,0-1.1.93-1.92,3-1.92a6,6,0,0,1,3.41,1l.68-1.25a7.86,7.86,0,0,0-4.09-1.08c-3,0-4.58,1.41-4.58,3.3,0,4.58,7.5,2.21,7.5,5.22,0,1.14-.9,1.89-3.1,1.89a6.94,6.94,0,0,1-4.11-1.3l-.71,1.23A7.72,7.72,0,0,0,230.42,226.55Z" fill="#fff" fill-rule="evenodd"/><path d="M238.87,212.34A1.12,1.12,0,0,0,240,211.2a1.1,1.1,0,0,0-1.14-1.08,1.11,1.11,0,1,0,0,2.22Zm-.79,14.1h1.56V214.87h-1.56Z" fill="#fff" fill-rule="evenodd"/><path d="M253.59,211.33a2.65,2.65,0,0,1,1.71.57l.53-1.17a3.68,3.68,0,0,0-2.31-.72,3.19,3.19,0,0,0-3.5,3.43v1.43H248v1.32H250v10.25h1.57V216.19h3.52v-1.32h-3.57v-1.36C251.54,212.08,252.25,211.33,253.59,211.33Z" fill="#fff" fill-rule="evenodd"/><path d="M266.08,214.87v6.07c0,2.64-1.51,4.2-3.93,4.2-2.2,0-3.48-1.25-3.48-3.71v-6.56h-1.56v6.71c0,3.32,1.93,5,4.88,5a4.59,4.59,0,0,0,4.16-2.22v2.11h1.5V214.87Z" fill="#fff" fill-rule="evenodd"/><path d="M282.12,220.66a5.51,5.51,0,0,0-5.61-5.88,5.57,5.57,0,0,0-5.65,5.88,6.12,6.12,0,0,0,10.54,4l-.88-1a4.58,4.58,0,0,1-3.55,1.52,4.29,4.29,0,0,1-4.55-4h9.68c0-.18,0-.35,0-.48Zm-5.61-4.54a4,4,0,0,1,4.12,3.85h-8.21A4,4,0,0,1,276.51,216.12Z" fill="#fff" fill-rule="evenodd"/><path d="M288.41,226.55c3,0,4.78-1.3,4.78-3.3,0-4.44-7.5-2.08-7.5-5.21,0-1.1.92-1.92,3-1.92a6,6,0,0,1,3.41,1l.68-1.25a7.83,7.83,0,0,0-4.09-1.08c-2.95,0-4.58,1.41-4.58,3.3,0,4.58,7.51,2.21,7.51,5.22,0,1.14-.91,1.89-3.11,1.89a7,7,0,0,1-4.11-1.3l-.7,1.23A7.66,7.66,0,0,0,288.41,226.55Z" fill="#fff" fill-rule="evenodd"/><path d="M306.17,220.66a5.52,5.52,0,0,0-5.61-5.88,5.58,5.58,0,0,0-5.66,5.88,6.12,6.12,0,0,0,10.54,4l-.88-1a4.56,4.56,0,0,1-3.54,1.52,4.28,4.28,0,0,1-4.55-4h9.68c0-.18,0-.35,0-.48Zm-5.61-4.54a4,4,0,0,1,4.11,3.85h-8.2A4,4,0,0,1,300.56,216.12Z" fill="#fff" fill-rule="evenodd"/><path d="M321.08,214.78a5,5,0,0,0-4.46,2.38v-2.29h-1.5v15.84h1.56v-6.44a5.07,5.07,0,0,0,4.4,2.28,5.89,5.89,0,0,0,0-11.77ZM321,225.17a4.51,4.51,0,1,1,4.32-4.51A4.24,4.24,0,0,1,321,225.17Z" fill="#fff" fill-rule="evenodd"/><path d="M331.53,217.14v-2.27H330v11.57h1.56v-5.89c0-2.73,1.47-4.27,3.89-4.27l.38,0v-1.52C333.73,214.78,332.26,215.6,331.53,217.14Z" fill="#fff" fill-rule="evenodd"/><path d="M343.3,226.55a5.89,5.89,0,1,0-5.89-5.89,5.69,5.69,0,0,0,5.89,5.89Zm0-1.38a4.52,4.52,0,1,1,4.29-4.51A4.24,4.24,0,0,1,343.3,225.17Z" fill="#fff" fill-rule="evenodd"/><path d="M358.33,214.78a5.06,5.06,0,0,0-4.47,2.38v-2.29h-1.49v15.84h1.56v-6.44a5.06,5.06,0,0,0,4.4,2.28,5.89,5.89,0,0,0,0-11.77Zm-.11,10.39a4.51,4.51,0,1,1,4.31-4.51A4.24,4.24,0,0,1,358.22,225.17Z" fill="#fff" fill-rule="evenodd"/><path d="M368.08,212.34a1.12,1.12,0,0,0,1.14-1.14,1.11,1.11,0,0,0-1.14-1.08,1.11,1.11,0,1,0,0,2.22Zm-.8,14.1h1.57V214.87h-1.57Z" fill="#fff" fill-rule="evenodd"/><path d="M377.25,214.78a7.3,7.3,0,0,0-4.71,1.57l.71,1.16a5.85,5.85,0,0,1,3.85-1.36c2.15,0,3.27,1.07,3.27,3v.71H376.7c-3.32,0-4.47,1.49-4.47,3.28,0,2,1.61,3.36,4.23,3.36a4.34,4.34,0,0,0,4-1.91v1.8h1.5v-7.17c0-3-1.7-4.49-4.69-4.49Zm-.55,10.54c-1.85,0-2.93-.84-2.93-2.18,0-1.19.73-2.07,3-2.07h3.63V223A3.7,3.7,0,0,1,376.7,225.32Z" fill="#fff" fill-rule="evenodd"/><path d="M386.34,226.55a1.2,1.2,0,0,0,1.18-1.21,1.18,1.18,0,0,0-1.18-1.19,1.17,1.17,0,0,0-1.17,1.19A1.19,1.19,0,0,0,386.34,226.55Z" fill="#fff" fill-rule="evenodd"/><path d="M33.85,256.91c3.94,0,5.75-1.93,5.75-4.2,0-5.61-9.49-3.06-9.49-7.28,0-1.54,1.26-2.8,4.07-2.8a7.92,7.92,0,0,1,4.23,1.28l.55-1.3a8.77,8.77,0,0,0-4.78-1.36c-3.91,0-5.67,2-5.67,4.22,0,5.7,9.48,3.1,9.48,7.33,0,1.52-1.25,2.73-4.14,2.73a7.6,7.6,0,0,1-5.08-1.87l-.64,1.25A8.35,8.35,0,0,0,33.85,256.91Z" fill="#fff" fill-rule="evenodd"/><path d="M46.09,243.43h1.54l3.56-2.73H49.1l-3,2.73Zm1.45,13.46a5.89,5.89,0,1,0-5.9-5.9,5.69,5.69,0,0,0,5.9,5.9Zm0-1.38A4.52,4.52,0,1,1,51.83,251,4.24,4.24,0,0,1,47.54,255.51Z" fill="#fff" fill-rule="evenodd"/><rect x="56.6" y="240.46" width="1.56" height="16.32" fill="#fff"/><path d="M67.25,256.89a5.89,5.89,0,1,0-5.9-5.9,5.69,5.69,0,0,0,5.9,5.9Zm0-1.38A4.52,4.52,0,1,1,71.54,251,4.24,4.24,0,0,1,67.25,255.51Z" fill="#fff" fill-rule="evenodd"/><path d="M87.62,255a2.57,2.57,0,0,1-1.71.6,1.86,1.86,0,0,1-2-2.11v-6.91h3.52v-1.32H83.9v-2.53H82.34v2.53H80.27v1.32h2.07v7a3.06,3.06,0,0,0,3.39,3.36,3.7,3.7,0,0,0,2.44-.81Z" fill="#fff" fill-rule="evenodd"/><path d="M100.69,251a5.52,5.52,0,0,0-5.61-5.87A5.57,5.57,0,0,0,89.42,251,6.12,6.12,0,0,0,100,255l-.88-1a4.56,4.56,0,0,1-3.54,1.52,4.28,4.28,0,0,1-4.55-4h9.68c0-.18,0-.35,0-.49Zm-5.61-4.53a4,4,0,0,1,4.11,3.85H91A4,4,0,0,1,95.08,246.46Z" fill="#fff" fill-rule="evenodd"/><path d="M109.77,245.12a4.89,4.89,0,0,0-4.4,2.22v-2.13h-1.49v11.57h1.56v-6.07c0-2.64,1.56-4.18,4-4.18,2.2,0,3.47,1.25,3.47,3.69v6.56h1.57v-6.71C114.53,246.75,112.59,245.12,109.77,245.12Z" fill="#fff" fill-rule="evenodd"/><path d="M127.81,240.46v6.95a5,5,0,0,0-4.4-2.29,5.89,5.89,0,0,0,0,11.77,5,5,0,0,0,4.47-2.4v2.29h1.5V240.46Zm-4.26,15a4.52,4.52,0,1,1,4.29-4.52A4.25,4.25,0,0,1,123.55,255.51Z" fill="#fff" fill-rule="evenodd"/><path d="M135.23,247.48v-2.27h-1.5v11.57h1.56v-5.9c0-2.72,1.48-4.26,3.9-4.26l.37,0v-1.52C137.43,245.12,136,245.94,135.23,247.48Z" fill="#fff" fill-rule="evenodd"/><path d="M150.12,240.7H148l-3,2.73h1.54l3.56-2.73Zm-3.72,4.42a7.32,7.32,0,0,0-4.7,1.56l.7,1.17a5.88,5.88,0,0,1,3.85-1.37c2.16,0,3.28,1.08,3.28,3.06v.71h-3.68c-3.32,0-4.46,1.49-4.46,3.28,0,2,1.6,3.36,4.22,3.36a4.34,4.34,0,0,0,4-1.91v1.8h1.5v-7.17c0-3-1.69-4.49-4.69-4.49Zm-.55,10.54c-1.84,0-2.92-.84-2.92-2.18,0-1.19.72-2.07,3-2.07h3.63v1.89A3.72,3.72,0,0,1,145.85,255.66Z" fill="#fff" fill-rule="evenodd"/><path d="M158.44,256.89c3,0,4.77-1.3,4.77-3.3,0-4.44-7.5-2.09-7.5-5.21,0-1.1.92-1.92,3-1.92a6,6,0,0,1,3.41,1l.69-1.25a7.87,7.87,0,0,0-4.1-1.08c-2.94,0-4.57,1.41-4.57,3.3,0,4.58,7.5,2.2,7.5,5.22,0,1.14-.9,1.89-3.1,1.89a7.06,7.06,0,0,1-4.12-1.3l-.7,1.23A7.76,7.76,0,0,0,158.44,256.89Z" fill="#fff" fill-rule="evenodd"/><path d="M180.92,245.21v2.29a5,5,0,0,0-4.46-2.38,5.89,5.89,0,0,0,0,11.77,5.06,5.06,0,0,0,4.4-2.29v6.45h1.56V245.21Zm-4.33,10.3a4.52,4.52,0,1,1,4.29-4.52A4.24,4.24,0,0,1,176.59,255.51Z" fill="#fff" fill-rule="evenodd"/><path d="M195.64,245.21v6.07c0,2.64-1.52,4.2-3.94,4.2-2.2,0-3.47-1.25-3.47-3.71v-6.56h-1.57v6.71c0,3.32,1.94,5,4.89,5a4.61,4.61,0,0,0,4.16-2.22v2.11h1.49V245.21Z" fill="#fff" fill-rule="evenodd"/><path d="M211.68,251a5.52,5.52,0,0,0-5.61-5.87,5.57,5.57,0,0,0-5.66,5.87A6.12,6.12,0,0,0,211,255l-.88-1a4.56,4.56,0,0,1-3.54,1.52,4.28,4.28,0,0,1-4.55-4h9.68c0-.18,0-.35,0-.49Zm-5.61-4.53a4,4,0,0,1,4.11,3.85H202A4,4,0,0,1,206.07,246.46Z" fill="#fff" fill-rule="evenodd"/><path d="M226.59,245.12a5,5,0,0,0-4.46,2.38v-2.29h-1.5v15.84h1.56V254.6a5.06,5.06,0,0,0,4.4,2.29,5.89,5.89,0,0,0,0-11.77Zm-.11,10.39A4.52,4.52,0,1,1,230.8,251,4.24,4.24,0,0,1,226.48,255.51Z" fill="#fff" fill-rule="evenodd"/><path d="M237,247.48v-2.27h-1.49v11.57h1.56v-5.9c0-2.72,1.47-4.26,3.89-4.26l.38,0v-1.52C239.24,245.12,237.77,245.94,237,247.48Z" fill="#fff" fill-rule="evenodd"/><path d="M254.18,251a5.51,5.51,0,0,0-5.61-5.87,5.57,5.57,0,0,0-5.65,5.87,6.12,6.12,0,0,0,10.54,4l-.88-1a4.58,4.58,0,0,1-3.55,1.52,4.29,4.29,0,0,1-4.55-4h9.68c0-.18,0-.35,0-.49Zm-5.61-4.53a4,4,0,0,1,4.12,3.85h-8.21A4,4,0,0,1,248.57,246.46Z" fill="#fff" fill-rule="evenodd"/><path d="M262.1,256.89a5.89,5.89,0,1,0-5.89-5.9,5.69,5.69,0,0,0,5.89,5.9Zm0-1.38a4.52,4.52,0,1,1,4.29-4.52A4.24,4.24,0,0,1,262.1,255.51Z" fill="#fff" fill-rule="evenodd"/><path d="M276,256.89a5.08,5.08,0,0,0,4.53-2.29l-1.16-.79a3.92,3.92,0,0,1-3.37,1.7,4.52,4.52,0,0,1,0-9,3.93,3.93,0,0,1,3.37,1.72l1.16-.79a5,5,0,0,0-4.53-2.29,5.89,5.89,0,1,0,0,11.77Z" fill="#fff" fill-rule="evenodd"/><path d="M292.42,245.21v6.07c0,2.64-1.52,4.2-3.94,4.2-2.2,0-3.48-1.25-3.48-3.71v-6.56h-1.56v6.71c0,3.32,1.94,5,4.89,5a4.59,4.59,0,0,0,4.15-2.22v2.11H294V245.21Z" fill="#fff" fill-rule="evenodd"/><path d="M304.32,245.12a5.06,5.06,0,0,0-4.47,2.38v-2.29h-1.49v15.84h1.56V254.6a5,5,0,0,0,4.4,2.29,5.89,5.89,0,0,0,0-11.77Zm-.11,10.39a4.52,4.52,0,1,1,4.31-4.52A4.24,4.24,0,0,1,304.21,255.51Z" fill="#fff" fill-rule="evenodd"/><path d="M317.26,245.12a7.33,7.33,0,0,0-4.71,1.56l.7,1.17a5.9,5.9,0,0,1,3.85-1.37c2.16,0,3.28,1.08,3.28,3.06v.71h-3.67c-3.33,0-4.47,1.49-4.47,3.28,0,2,1.61,3.36,4.22,3.36a4.37,4.37,0,0,0,4-1.91v1.8h1.49v-7.17c0-3-1.69-4.49-4.68-4.49Zm-.55,10.54c-1.85,0-2.93-.84-2.93-2.18,0-1.19.73-2.07,3-2.07h3.63v1.89A3.7,3.7,0,0,1,316.71,255.66Z" fill="#fff" fill-rule="evenodd"/><path d="M327.68,247.48v-2.27h-1.49v11.57h1.56v-5.9c0-2.72,1.47-4.26,3.89-4.26l.38,0v-1.52C329.88,245.12,328.41,245.94,327.68,247.48Z" fill="#fff" fill-rule="evenodd"/><path d="M340.88,255a2.55,2.55,0,0,1-1.71.6,1.85,1.85,0,0,1-2-2.11v-6.91h3.52v-1.32h-3.52v-2.53H335.6v2.53h-2.06v1.32h2.06v7a3.06,3.06,0,0,0,3.39,3.36,3.7,3.7,0,0,0,2.44-.81Z" fill="#fff" fill-rule="evenodd"/><path d="M354,251a5.51,5.51,0,0,0-5.61-5.87,5.57,5.57,0,0,0-5.65,5.87,6.12,6.12,0,0,0,10.54,4l-.88-1a4.58,4.58,0,0,1-3.55,1.52,4.29,4.29,0,0,1-4.55-4h9.68c0-.18,0-.35,0-.49Zm-5.61-4.53a4,4,0,0,1,4.12,3.85h-8.21A4,4,0,0,1,348.34,246.46Z" fill="#fff" fill-rule="evenodd"/><path d="M371.9,240.46v6.95a5,5,0,0,0-4.4-2.29,5.89,5.89,0,0,0,0,11.77,5,5,0,0,0,4.47-2.4v2.29h1.5V240.46Zm-4.26,15a4.52,4.52,0,1,1,4.29-4.52A4.25,4.25,0,0,1,367.64,255.51Z" fill="#fff" fill-rule="evenodd"/><path d="M387.92,251a5.63,5.63,0,1,0-11.26,0,6.11,6.11,0,0,0,10.53,4l-.88-1a4.56,4.56,0,0,1-3.54,1.52,4.28,4.28,0,0,1-4.55-4h9.68c0-.18,0-.35,0-.49Zm-5.61-4.53a4,4,0,0,1,4.11,3.85h-8.2A4,4,0,0,1,382.31,246.46Z" fill="#fff" fill-rule="evenodd"/><path d="M397.67,242.68a1.12,1.12,0,0,0,1.14-1.14,1.11,1.11,0,0,0-1.14-1.08,1.11,1.11,0,1,0,0,2.22Zm-.8,14.1h1.57V245.21h-1.57Z" fill="#fff" fill-rule="evenodd"/><path d="M404.29,247.48v-2.27h-1.5v11.57h1.56v-5.9c0-2.72,1.48-4.26,3.9-4.26l.37,0v-1.52C406.49,245.12,405,245.94,404.29,247.48Z" fill="#fff" fill-rule="evenodd"/><path d="M41.62,287.23a5.08,5.08,0,0,0,4.53-2.29L45,284.15a3.89,3.89,0,0,1-3.36,1.69,4.51,4.51,0,0,1,0-9A3.92,3.92,0,0,1,45,278.54l1.17-.79a5,5,0,0,0-4.53-2.29,5.89,5.89,0,1,0,0,11.77Z" fill="#fff" fill-rule="evenodd"/><path d="M53.74,287.23a5.89,5.89,0,1,0-5.9-5.9,5.69,5.69,0,0,0,5.9,5.9Zm0-1.39A4.52,4.52,0,1,1,58,281.33,4.24,4.24,0,0,1,53.74,285.84Z" fill="#fff" fill-rule="evenodd"/><path d="M68.7,275.46a4.86,4.86,0,0,0-4.4,2.22v-2.13H62.8v11.57h1.57v-6.07c0-2.64,1.56-4.18,4-4.18,2.2,0,3.48,1.25,3.48,3.69v6.56h1.56v-6.71C73.45,277.09,71.52,275.46,68.7,275.46Z" fill="#fff" fill-rule="evenodd"/><path d="M89,285.29a2.58,2.58,0,0,1-1.72.6,1.85,1.85,0,0,1-2-2.11v-6.91h3.52v-1.32H85.29V273H83.73v2.53H81.66v1.32h2.07v7a3.06,3.06,0,0,0,3.38,3.37,3.69,3.69,0,0,0,2.45-.82Z" fill="#fff" fill-rule="evenodd"/><path d="M101.26,275.55v6.07c0,2.64-1.52,4.2-3.94,4.2-2.2,0-3.47-1.25-3.47-3.72v-6.55H92.28v6.71c0,3.32,1.94,5,4.89,5a4.63,4.63,0,0,0,4.16-2.22v2.11h1.49V275.55Z" fill="#fff" fill-rule="evenodd"/><path d="M110.3,287.23c3,0,4.78-1.3,4.78-3.3,0-4.44-7.51-2.09-7.51-5.21,0-1.1.93-1.92,3-1.92a6,6,0,0,1,3.41,1l.68-1.25a7.86,7.86,0,0,0-4.09-1.08c-3,0-4.58,1.41-4.58,3.3,0,4.58,7.5,2.2,7.5,5.21,0,1.15-.9,1.89-3.1,1.89a7,7,0,0,1-4.11-1.29l-.71,1.23A7.78,7.78,0,0,0,110.3,287.23Z" fill="#fff" fill-rule="evenodd"/><path d="M128.52,287.23a5.08,5.08,0,0,0,4.53-2.29l-1.17-.79a3.89,3.89,0,0,1-3.36,1.69,4.51,4.51,0,0,1,0-9,3.92,3.92,0,0,1,3.36,1.72l1.17-.79a5,5,0,0,0-4.53-2.29,5.89,5.89,0,1,0,0,11.77Z" fill="#fff" fill-rule="evenodd"/><rect x="135.93" y="270.8" width="1.56" height="16.32" fill="#fff"/><path d="M142.64,273a1.13,1.13,0,0,0,1.15-1.15,1.15,1.15,0,0,0-2.29,0,1.13,1.13,0,0,0,1.14,1.12Zm-.79,14.1h1.56V275.55h-1.56Z" fill="#fff" fill-rule="evenodd"/><path d="M157.87,281.33a5.52,5.52,0,0,0-5.61-5.87,5.57,5.57,0,0,0-5.66,5.87,6.12,6.12,0,0,0,10.54,4l-.88-1a4.53,4.53,0,0,1-3.54,1.52,4.29,4.29,0,0,1-4.56-4h9.68c0-.18,0-.35,0-.49Zm-5.61-4.53a4,4,0,0,1,4.11,3.85h-8.21A4,4,0,0,1,152.26,276.8Z" fill="#fff" fill-rule="evenodd"/><path d="M167,275.46a4.86,4.86,0,0,0-4.4,2.22v-2.13h-1.49v11.57h1.56v-6.07c0-2.64,1.56-4.18,4-4.18,2.2,0,3.47,1.25,3.47,3.69v6.56h1.56v-6.71C171.7,277.09,169.77,275.46,167,275.46Z" fill="#fff" fill-rule="evenodd"/><path d="M181.49,285.29a2.55,2.55,0,0,1-1.71.6,1.85,1.85,0,0,1-2-2.11v-6.91h3.52v-1.32h-3.52V273h-1.57v2.53h-2.06v1.32h2.06v7a3.07,3.07,0,0,0,3.39,3.37,3.66,3.66,0,0,0,2.44-.82Z" fill="#fff" fill-rule="evenodd"/><path d="M194.56,281.33a5.51,5.51,0,0,0-5.61-5.87,5.57,5.57,0,0,0-5.65,5.87,6.12,6.12,0,0,0,10.54,4l-.88-1a4.55,4.55,0,0,1-3.55,1.52,4.28,4.28,0,0,1-4.55-4h9.68c0-.18,0-.35,0-.49ZM189,276.8a4,4,0,0,1,4.12,3.85h-8.21A4,4,0,0,1,189,276.8Z" fill="#fff" fill-rule="evenodd"/><path d="M200.85,287.23c3,0,4.78-1.3,4.78-3.3,0-4.44-7.5-2.09-7.5-5.21,0-1.1.92-1.92,3-1.92a6,6,0,0,1,3.41,1l.68-1.25a7.83,7.83,0,0,0-4.09-1.08c-2.95,0-4.58,1.41-4.58,3.3,0,4.58,7.51,2.2,7.51,5.21,0,1.15-.91,1.89-3.11,1.89a7,7,0,0,1-4.11-1.29l-.7,1.23A7.73,7.73,0,0,0,200.85,287.23Z" fill="#fff" fill-rule="evenodd"/><path d="M218.32,275.46a7.37,7.37,0,0,0-4.71,1.56l.71,1.17a5.86,5.86,0,0,1,3.85-1.37c2.15,0,3.28,1.08,3.28,3.06v.71h-3.68c-3.32,0-4.46,1.49-4.46,3.27,0,2,1.6,3.37,4.22,3.37a4.36,4.36,0,0,0,4-1.91v1.8H223V280c0-3-1.7-4.49-4.69-4.49ZM217.77,286c-1.85,0-2.92-.84-2.92-2.18,0-1.19.72-2.07,3-2.07h3.63v1.89A3.72,3.72,0,0,1,217.77,286Z" fill="#fff" fill-rule="evenodd"/><path d="M234.51,277.81v-2.26H233v11.57h1.56v-5.9c0-2.73,1.47-4.26,3.89-4.26l.38,0v-1.52C236.71,275.46,235.24,276.27,234.51,277.81Z" fill="#fff" fill-rule="evenodd"/><path d="M251.65,281.33a5.51,5.51,0,0,0-5.61-5.87,5.57,5.57,0,0,0-5.65,5.87,6.12,6.12,0,0,0,10.54,4l-.88-1a4.55,4.55,0,0,1-3.55,1.52,4.28,4.28,0,0,1-4.55-4h9.68c0-.18,0-.35,0-.49ZM246,276.8a4,4,0,0,1,4.12,3.85H242A4,4,0,0,1,246,276.8Z" fill="#fff" fill-rule="evenodd"/><path d="M258.56,275.46a7.35,7.35,0,0,0-4.71,1.56l.71,1.17a5.86,5.86,0,0,1,3.85-1.37c2.15,0,3.27,1.08,3.27,3.06v.71H258c-3.32,0-4.47,1.49-4.47,3.27,0,2,1.61,3.37,4.23,3.37a4.36,4.36,0,0,0,4-1.91v1.8h1.5V280c0-3-1.7-4.49-4.69-4.49ZM258,286c-1.85,0-2.93-.84-2.93-2.18,0-1.19.73-2.07,3-2.07h3.63v1.89A3.69,3.69,0,0,1,258,286Z" fill="#fff" fill-rule="evenodd"/><rect x="267.49" y="270.8" width="1.56" height="16.32" fill="#fff"/><path d="M274.2,273a1.13,1.13,0,0,0,1.15-1.15,1.15,1.15,0,0,0-2.29,0A1.13,1.13,0,0,0,274.2,273Zm-.79,14.1H275V275.55h-1.56Z" fill="#fff" fill-rule="evenodd"/><polygon points="280.08 285.82 287.36 276.58 287.36 275.55 278.21 275.55 278.21 276.87 285.36 276.87 278.07 286.08 278.07 287.12 287.49 287.12 287.49 285.82 280.08 285.82" fill="#fff" fill-rule="evenodd"/><path d="M294.62,275.46a7.35,7.35,0,0,0-4.71,1.56l.7,1.17a5.9,5.9,0,0,1,3.85-1.37c2.16,0,3.28,1.08,3.28,3.06v.71h-3.67c-3.32,0-4.47,1.49-4.47,3.27,0,2,1.61,3.37,4.23,3.37a4.37,4.37,0,0,0,4-1.91v1.8h1.49V280c0-3-1.69-4.49-4.68-4.49ZM294.07,286c-1.85,0-2.93-.84-2.93-2.18,0-1.19.73-2.07,3-2.07h3.63v1.89A3.69,3.69,0,0,1,294.07,286Z" fill="#fff" fill-rule="evenodd"/><path d="M305.05,277.81v-2.26h-1.5v11.57h1.56v-5.9c0-2.73,1.48-4.26,3.9-4.26l.37,0v-1.52C307.25,275.46,305.77,276.27,305.05,277.81Z" fill="#fff" fill-rule="evenodd"/><polygon points="326.32 275.55 321.94 285.4 317.61 275.55 315.98 275.55 321.11 287.12 322.71 287.12 327.86 275.55 326.32 275.55" fill="#fff" fill-rule="evenodd"/><path d="M330.85,273a1.13,1.13,0,0,0,1.15-1.15,1.15,1.15,0,0,0-2.29,0,1.13,1.13,0,0,0,1.14,1.12Zm-.79,14.1h1.56V275.55h-1.56Z" fill="#fff" fill-rule="evenodd"/><path d="M339.08,287.23c3,0,4.77-1.3,4.77-3.3,0-4.44-7.5-2.09-7.5-5.21,0-1.1.93-1.92,3-1.92a6,6,0,0,1,3.41,1l.68-1.25a7.86,7.86,0,0,0-4.09-1.08c-2.95,0-4.58,1.41-4.58,3.3,0,4.58,7.5,2.2,7.5,5.21,0,1.15-.9,1.89-3.1,1.89a7,7,0,0,1-4.11-1.29l-.71,1.23A7.78,7.78,0,0,0,339.08,287.23Z" fill="#fff" fill-rule="evenodd"/><path d="M347.53,273a1.12,1.12,0,0,0,1.14-1.15,1.1,1.1,0,0,0-1.14-1.07,1.11,1.11,0,1,0,0,2.22Zm-.79,14.1h1.56V275.55h-1.56Z" fill="#fff" fill-rule="evenodd"/><path d="M358.2,285.29a2.58,2.58,0,0,1-1.72.6,1.85,1.85,0,0,1-2-2.11v-6.91H358v-1.32h-3.52V273h-1.56v2.53h-2.07v1.32h2.07v7a3.07,3.07,0,0,0,3.39,3.37,3.68,3.68,0,0,0,2.44-.82Z" fill="#fff" fill-rule="evenodd"/><path d="M365.63,275.46a7.32,7.32,0,0,0-4.7,1.56l.7,1.17a5.88,5.88,0,0,1,3.85-1.37c2.16,0,3.28,1.08,3.28,3.06v.71h-3.68c-3.32,0-4.46,1.49-4.46,3.27,0,2,1.6,3.37,4.22,3.37a4.34,4.34,0,0,0,4-1.91v1.8h1.5V280c0-3-1.69-4.49-4.69-4.49ZM365.08,286c-1.84,0-2.92-.84-2.92-2.18,0-1.19.72-2.07,3-2.07h3.63v1.89A3.72,3.72,0,0,1,365.08,286Z" fill="#fff" fill-rule="evenodd"/><path d="M377.67,287.23c3,0,4.77-1.3,4.77-3.3,0-4.44-7.5-2.09-7.5-5.21,0-1.1.92-1.92,3-1.92a6,6,0,0,1,3.41,1l.69-1.25a7.87,7.87,0,0,0-4.1-1.08c-2.94,0-4.57,1.41-4.57,3.3,0,4.58,7.5,2.2,7.5,5.21,0,1.15-.9,1.89-3.1,1.89a7.06,7.06,0,0,1-4.12-1.29l-.7,1.23A7.76,7.76,0,0,0,377.67,287.23Z" fill="#fff" fill-rule="evenodd"/><path d="M395.14,275.46a7.33,7.33,0,0,0-4.71,1.56l.7,1.17a5.9,5.9,0,0,1,3.85-1.37c2.16,0,3.28,1.08,3.28,3.06v.71h-3.67c-3.33,0-4.47,1.49-4.47,3.27,0,2,1.61,3.37,4.22,3.37a4.37,4.37,0,0,0,4-1.91v1.8h1.49V280c0-3-1.69-4.49-4.68-4.49ZM394.59,286c-1.85,0-2.93-.84-2.93-2.18,0-1.19.73-2.07,3-2.07h3.63v1.89A3.7,3.7,0,0,1,394.59,286Z" fill="#fff" fill-rule="evenodd"/><rect x="85.65" y="301.13" width="1.56" height="16.32" fill="#fff"/><path d="M95.62,305.8a7.35,7.35,0,0,0-4.71,1.56l.7,1.17a5.9,5.9,0,0,1,3.85-1.37c2.16,0,3.28,1.08,3.28,3.06v.7H95.07c-3.32,0-4.47,1.5-4.47,3.28,0,2,1.61,3.37,4.23,3.37a4.35,4.35,0,0,0,4-1.92v1.81h1.49v-7.17c0-3-1.69-4.49-4.68-4.49Zm-.55,10.54c-1.85,0-2.93-.84-2.93-2.18s.73-2.07,3-2.07h3.63V314A3.69,3.69,0,0,1,95.07,316.34Z" fill="#fff" fill-rule="evenodd"/><path d="M107.65,317.57c3,0,4.78-1.3,4.78-3.3,0-4.44-7.51-2.09-7.51-5.22,0-1.1.93-1.91,3-1.91a6,6,0,0,1,3.41,1l.68-1.25a7.86,7.86,0,0,0-4.09-1.08c-3,0-4.58,1.41-4.58,3.3,0,4.57,7.5,2.2,7.5,5.21,0,1.15-.9,1.89-3.1,1.89a7,7,0,0,1-4.11-1.29l-.71,1.23A7.78,7.78,0,0,0,107.65,317.57Z" fill="#fff" fill-rule="evenodd"/><polygon points="129.25 305.88 124.88 315.74 120.54 305.88 118.92 305.88 124.04 317.46 125.65 317.46 130.79 305.88 129.25 305.88" fill="#fff" fill-rule="evenodd"/><path d="M133.79,303.36a1.12,1.12,0,0,0,1.14-1.15,1.11,1.11,0,0,0-1.14-1.08,1.12,1.12,0,1,0,0,2.23Zm-.79,14.1h1.56V305.89H133Z" fill="#fff" fill-rule="evenodd"/><polygon points="147.1 305.88 142.72 315.74 138.38 305.88 136.76 305.88 141.88 317.46 143.49 317.46 148.64 305.88 147.1 305.88" fill="#fff" fill-rule="evenodd"/><path d="M151.63,303.36a1.12,1.12,0,0,0,1.14-1.15,1.11,1.11,0,0,0-1.14-1.08,1.12,1.12,0,1,0,0,2.23Zm-.79,14.1h1.56V305.89h-1.56Z" fill="#fff" fill-rule="evenodd"/><path d="M166.85,311.67a5.51,5.51,0,0,0-5.61-5.87,5.57,5.57,0,0,0-5.65,5.87,6.12,6.12,0,0,0,10.54,4l-.88-1a4.55,4.55,0,0,1-3.55,1.52,4.28,4.28,0,0,1-4.55-4h9.68c0-.18,0-.36,0-.49Zm-5.61-4.53a4,4,0,0,1,4.12,3.85h-8.21A4,4,0,0,1,161.24,307.14Z" fill="#fff" fill-rule="evenodd"/><path d="M175.94,305.8a4.85,4.85,0,0,0-4.4,2.22v-2.13H170v11.57h1.56v-6.07c0-2.64,1.57-4.18,4.05-4.18,2.2,0,3.48,1.25,3.48,3.69v6.56h1.56v-6.71C180.69,307.43,178.75,305.8,175.94,305.8Z" fill="#fff" fill-rule="evenodd"/><path d="M194,301.13v7a5,5,0,0,0-4.4-2.29,5.89,5.89,0,0,0,0,11.77,5,5,0,0,0,4.46-2.4v2.29h1.5V301.13Zm-4.27,15.05a4.52,4.52,0,1,1,4.29-4.51A4.24,4.24,0,0,1,189.71,316.18Z" fill="#fff" fill-rule="evenodd"/><path d="M203.94,305.8a7.32,7.32,0,0,0-4.7,1.56l.7,1.17a5.88,5.88,0,0,1,3.85-1.37c2.16,0,3.28,1.08,3.28,3.06v.7h-3.68c-3.32,0-4.46,1.5-4.46,3.28,0,2,1.6,3.37,4.22,3.37a4.33,4.33,0,0,0,4-1.92v1.81h1.5v-7.17c0-3-1.69-4.49-4.69-4.49Zm-.55,10.54c-1.84,0-2.92-.84-2.92-2.18s.72-2.07,3-2.07h3.63V314A3.72,3.72,0,0,1,203.39,316.34Z" fill="#fff" fill-rule="evenodd"/><path d="M216,317.57c3,0,4.77-1.3,4.77-3.3,0-4.44-7.5-2.09-7.5-5.22,0-1.1.92-1.91,3-1.91a6,6,0,0,1,3.41,1l.69-1.25a7.87,7.87,0,0,0-4.1-1.08c-2.94,0-4.57,1.41-4.57,3.3,0,4.57,7.5,2.2,7.5,5.21,0,1.15-.9,1.89-3.1,1.89a7.06,7.06,0,0,1-4.12-1.29l-.7,1.23A7.76,7.76,0,0,0,216,317.57Z" fill="#fff" fill-rule="evenodd"/><path d="M223.79,317.57a1.2,1.2,0,0,0,1.19-1.21,1.19,1.19,0,0,0-1.19-1.19,1.17,1.17,0,0,0-1.17,1.19A1.19,1.19,0,0,0,223.79,317.57Z" fill="#fff" fill-rule="evenodd"/><polygon points="236.02 316.05 236.02 310.33 243.99 310.33 243.99 308.94 236.02 308.94 236.02 303.46 244.95 303.46 244.95 302.06 234.39 302.06 234.39 317.46 245.28 317.46 245.28 316.05 236.02 316.05" fill="#fff" fill-rule="evenodd"/><rect x="248.78" y="301.13" width="1.56" height="16.32" fill="#fff"/><path d="M262,308.15v-2.26h-1.5v11.57H262v-5.9c0-2.73,1.48-4.27,3.9-4.27.11,0,.24,0,.37,0V305.8C264.16,305.8,262.68,306.61,262,308.15Z" fill="#fff" fill-rule="evenodd"/><path d="M279.1,311.67a5.52,5.52,0,0,0-5.61-5.87,5.57,5.57,0,0,0-5.66,5.87,6.12,6.12,0,0,0,10.54,4l-.88-1a4.53,4.53,0,0,1-3.54,1.52,4.29,4.29,0,0,1-4.56-4h9.68c0-.18,0-.36,0-.49Zm-5.61-4.53A4,4,0,0,1,277.6,311h-8.21A4,4,0,0,1,273.49,307.14Z" fill="#fff" fill-rule="evenodd"/><path d="M285.39,317.57c3,0,4.77-1.3,4.77-3.3,0-4.44-7.5-2.09-7.5-5.22,0-1.1.92-1.91,3-1.91a6,6,0,0,1,3.41,1l.69-1.25a7.87,7.87,0,0,0-4.1-1.08c-2.94,0-4.57,1.41-4.57,3.3,0,4.57,7.5,2.2,7.5,5.21,0,1.15-.9,1.89-3.1,1.89a7.06,7.06,0,0,1-4.12-1.29l-.7,1.23A7.76,7.76,0,0,0,285.39,317.57Z" fill="#fff" fill-rule="evenodd"/><path d="M298.59,315.63a2.58,2.58,0,0,1-1.72.6,1.85,1.85,0,0,1-2-2.12v-6.9h3.52v-1.32h-3.52v-2.53h-1.56v2.53h-2.07v1.32h2.07v7a3.07,3.07,0,0,0,3.39,3.37,3.73,3.73,0,0,0,2.44-.82Z" fill="#fff" fill-rule="evenodd"/><path d="M306.29,317.57a5.89,5.89,0,1,0-5.9-5.9,5.69,5.69,0,0,0,5.9,5.9Zm0-1.39a4.52,4.52,0,1,1,4.29-4.51A4.23,4.23,0,0,1,306.29,316.18Z" fill="#fff" fill-rule="evenodd"/><path d="M330.11,301.13v7a5,5,0,0,0-4.4-2.29,5.89,5.89,0,0,0,0,11.77,5,5,0,0,0,4.47-2.4v2.29h1.5V301.13Zm-4.26,15.05a4.52,4.52,0,1,1,4.29-4.51A4.24,4.24,0,0,1,325.85,316.18Z" fill="#fff" fill-rule="evenodd"/><path d="M346.13,311.67a5.63,5.63,0,1,0-11.26,0,6.11,6.11,0,0,0,10.53,4l-.88-1a4.53,4.53,0,0,1-3.54,1.52,4.27,4.27,0,0,1-4.55-4h9.68c0-.18,0-.36,0-.49Zm-5.61-4.53a4,4,0,0,1,4.11,3.85h-8.2A4,4,0,0,1,340.52,307.14Z" fill="#fff" fill-rule="evenodd"/><rect x="349.32" y="301.13" width="1.56" height="16.32" fill="#fff"/><path d="M103.38,346a2.54,2.54,0,0,1-1.71.59,1.85,1.85,0,0,1-2-2.11v-6.91h3.52v-1.32H99.67v-2.53H98.1v2.53H96v1.32H98.1v7a3.07,3.07,0,0,0,3.39,3.37,3.71,3.71,0,0,0,2.44-.82Z" fill="#fff" fill-rule="evenodd"/><path d="M108.27,338.49v-2.27h-1.5V347.8h1.56v-5.9c0-2.73,1.48-4.27,3.9-4.27l.37,0v-1.51C110.47,336.14,109,337,108.27,338.49Z" fill="#fff" fill-rule="evenodd"/><path d="M119.44,336.14a7.32,7.32,0,0,0-4.7,1.56l.7,1.16a5.92,5.92,0,0,1,3.85-1.36c2.16,0,3.28,1.08,3.28,3.06v.7h-3.68c-3.32,0-4.46,1.5-4.46,3.28,0,2,1.6,3.37,4.22,3.37a4.33,4.33,0,0,0,4-1.92v1.81h1.5v-7.18c0-3-1.69-4.48-4.69-4.48Zm-.55,10.53c-1.84,0-2.92-.83-2.92-2.17s.72-2.07,3-2.07h3.63v1.89A3.71,3.71,0,0,1,118.89,346.67Z" fill="#fff" fill-rule="evenodd"/><path d="M134.34,336.14a5.06,5.06,0,0,0-4.4,2.28v-6.95h-1.56V347.8h1.49v-2.29a5,5,0,0,0,4.47,2.4,5.89,5.89,0,0,0,0-11.77Zm-.11,10.38a4.51,4.51,0,1,1,4.31-4.51A4.23,4.23,0,0,1,134.23,346.52Z" fill="#fff" fill-rule="evenodd"/><path d="M147.27,336.14a7.32,7.32,0,0,0-4.7,1.56l.7,1.16a5.92,5.92,0,0,1,3.85-1.36c2.16,0,3.28,1.08,3.28,3.06v.7h-3.68c-3.32,0-4.46,1.5-4.46,3.28,0,2,1.6,3.37,4.22,3.37a4.33,4.33,0,0,0,4-1.92v1.81H152v-7.18c0-3-1.69-4.48-4.69-4.48Zm-.55,10.53c-1.84,0-2.92-.83-2.92-2.17s.72-2.07,3-2.07h3.63v1.89A3.71,3.71,0,0,1,146.72,346.67Z" fill="#fff" fill-rule="evenodd"/><path d="M157.11,333.69a1.11,1.11,0,1,0,0-2.22,1.11,1.11,0,1,0,0,2.22Zm-2.62,18.48a3.17,3.17,0,0,0,3.39-3.52V336.22h-1.56v12.43c0,1.43-.69,2.18-1.92,2.18a2.71,2.71,0,0,1-1.8-.59l-.55,1.19A3.81,3.81,0,0,0,154.49,352.17Z" fill="#fff" fill-rule="evenodd"/><path d="M167,347.91a5.89,5.89,0,1,0-5.89-5.9,5.7,5.7,0,0,0,5.89,5.9Zm0-1.39a4.52,4.52,0,1,1,4.29-4.51A4.24,4.24,0,0,1,167,346.52Z" fill="#fff" fill-rule="evenodd"/><path d="M175.87,345.51a1.14,1.14,0,0,0-1.16,1.19,1.11,1.11,0,0,0,.79,1.12l-.75,3.19h1.06l.92-3a3.57,3.57,0,0,0,.31-1.27A1.16,1.16,0,0,0,175.87,345.51Z" fill="#fff" fill-rule="evenodd"/><rect x="186.46" y="332.4" width="1.63" height="15.4" fill="#fff"/><polygon points="204.36 332.39 204.36 344.89 194.44 332.39 193.1 332.39 193.1 347.8 194.73 347.8 194.73 335.3 204.63 347.8 205.97 347.8 205.97 332.39 204.36 332.39" fill="#fff" fill-rule="evenodd"/><polygon points="225.64 332.39 219.01 343.81 212.33 332.39 210.99 332.39 210.99 347.8 212.55 347.8 212.55 335.54 218.6 345.84 219.37 345.84 225.42 335.48 225.42 347.8 226.98 347.8 226.98 332.39 225.64 332.39" fill="#fff" fill-rule="evenodd"/><path d="M238.73,347.93a7.84,7.84,0,1,0-8.1-7.83,7.74,7.74,0,0,0,8.1,7.83Zm0-1.45a6.38,6.38,0,1,1,6.44-6.38A6.26,6.26,0,0,1,238.73,346.48Z" fill="#fff" fill-rule="evenodd"/><polygon points="250.91 346.39 261.1 333.52 261.1 332.39 248.89 332.39 248.89 333.8 258.94 333.8 248.74 346.67 248.74 347.8 261.37 347.8 261.37 346.39 250.91 346.39" fill="#fff" fill-rule="evenodd"/><path d="M271.11,347.93A7.84,7.84,0,1,0,263,340.1a7.75,7.75,0,0,0,8.09,7.83Zm0-1.45a6.38,6.38,0,1,1,6.45-6.38A6.26,6.26,0,0,1,271.11,346.48Z" fill="#fff" fill-rule="evenodd"/><polygon points="294.1 332.39 294.1 344.89 284.18 332.39 282.84 332.39 282.84 347.8 284.46 347.8 284.46 335.3 294.37 347.8 295.71 347.8 295.71 332.39 294.1 332.39" fill="#fff" fill-rule="evenodd"/><path d="M314.34,336.22,310,346.06l-4.36-9.84H304l5.17,11.55-.5,1.13c-.66,1.45-1.37,1.93-2.4,1.93a2.88,2.88,0,0,1-2.11-.88l-.73,1.17a4,4,0,0,0,2.82,1.05c1.65,0,2.88-.72,3.85-3l5.78-13Z" fill="#fff" fill-rule="evenodd"/><path d="M333.94,342a5.51,5.51,0,0,0-5.61-5.87,5.57,5.57,0,0,0-5.65,5.87,6.11,6.11,0,0,0,10.54,4l-.88-1a4.58,4.58,0,0,1-3.54,1.52,4.29,4.29,0,0,1-4.56-4h9.68c0-.17,0-.35,0-.48Zm-5.61-4.53a4,4,0,0,1,4.12,3.85h-8.21A4,4,0,0,1,328.33,337.48Z" fill="#fff" fill-rule="evenodd"/><rect x="337.13" y="331.47" width="1.56" height="16.32" fill="#fff"/><path d="M113.66,366.47a5,5,0,0,0-4.47,2.38v-2.29H107.7V382.4h1.56V376a5.06,5.06,0,0,0,4.4,2.28,5.89,5.89,0,0,0,0-11.77Zm-.11,10.39a4.51,4.51,0,1,1,4.31-4.51A4.24,4.24,0,0,1,113.55,376.86Z" fill="#fff" fill-rule="evenodd"/><path d="M124.11,368.83v-2.27h-1.5v11.57h1.56v-5.89c0-2.73,1.48-4.27,3.9-4.27l.37,0v-1.52C126.31,366.47,124.83,367.29,124.11,368.83Z" fill="#fff" fill-rule="evenodd"/><path d="M135.88,378.24a5.89,5.89,0,1,0-5.9-5.89,5.68,5.68,0,0,0,5.9,5.89Zm0-1.38a4.52,4.52,0,1,1,4.29-4.51A4.24,4.24,0,0,1,135.88,376.86Z" fill="#fff" fill-rule="evenodd"/><path d="M150.9,366.47a5,5,0,0,0-4.46,2.38v-2.29h-1.5V382.4h1.56V376a5.07,5.07,0,0,0,4.4,2.28,5.89,5.89,0,0,0,0-11.77Zm-.11,10.39a4.51,4.51,0,1,1,4.32-4.51A4.24,4.24,0,0,1,150.79,376.86Z" fill="#fff" fill-rule="evenodd"/><path d="M160.65,364a1.11,1.11,0,0,0,1.14-1.14,1.1,1.1,0,0,0-1.14-1.08,1.11,1.11,0,1,0,0,2.22Zm-.79,14.1h1.56V366.56h-1.56Z" fill="#fff" fill-rule="evenodd"/><path d="M175.87,372.35a5.51,5.51,0,0,0-5.61-5.88,5.58,5.58,0,0,0-5.65,5.88,6.12,6.12,0,0,0,10.54,4l-.88-1a4.58,4.58,0,0,1-3.54,1.52,4.29,4.29,0,0,1-4.56-4h9.68c0-.17,0-.35,0-.48Zm-5.61-4.53a4,4,0,0,1,4.12,3.85h-8.21A4,4,0,0,1,170.26,367.82Z" fill="#fff" fill-rule="evenodd"/><path d="M184.61,376.31a2.62,2.62,0,0,1-1.72.59,1.85,1.85,0,0,1-2-2.11v-6.91h3.52v-1.32h-3.52V364h-1.56v2.53h-2.07v1.32h2.07v7a3.06,3.06,0,0,0,3.38,3.36,3.73,3.73,0,0,0,2.45-.81Z" fill="#fff" fill-rule="evenodd"/><path d="M192,366.47a7.38,7.38,0,0,0-4.71,1.57l.71,1.16a5.9,5.9,0,0,1,3.85-1.36c2.16,0,3.28,1.08,3.28,3.06v.7h-3.68c-3.32,0-4.46,1.5-4.46,3.28,0,2,1.6,3.36,4.22,3.36a4.34,4.34,0,0,0,4-1.91v1.8h1.5V371c0-3-1.7-4.49-4.69-4.49ZM191.49,377c-1.85,0-2.92-.83-2.92-2.18,0-1.18.72-2.06,3-2.06h3.63v1.89A3.71,3.71,0,0,1,191.49,377Z" fill="#fff" fill-rule="evenodd"/><path d="M202.47,368.83v-2.27H201v11.57h1.57v-5.89c0-2.73,1.47-4.27,3.89-4.27l.37,0v-1.52C204.67,366.47,203.2,367.29,202.47,368.83Z" fill="#fff" fill-rule="evenodd"/><path d="M210.41,364a1.12,1.12,0,0,0,1.15-1.14,1.11,1.11,0,0,0-1.15-1.08,1.11,1.11,0,1,0,0,2.22Zm-.79,14.1h1.56V366.56h-1.56Z" fill="#fff" fill-rule="evenodd"/><path d="M220.27,378.24a5.89,5.89,0,1,0-5.9-5.89,5.68,5.68,0,0,0,5.9,5.89Zm0-1.38a4.52,4.52,0,1,1,4.29-4.51A4.24,4.24,0,0,1,220.27,376.86Z" fill="#fff" fill-rule="evenodd"/><path d="M229.18,375.85A1.15,1.15,0,0,0,228,377a1.12,1.12,0,0,0,.79,1.13l-.74,3.19h1.05l.93-3a3.55,3.55,0,0,0,.3-1.28A1.14,1.14,0,0,0,229.18,375.85Z" fill="#fff" fill-rule="evenodd"/><rect x="239.43" y="361.81" width="1.56" height="16.32" fill="#fff"/><path d="M250.08,378.24a5.89,5.89,0,1,0-5.9-5.89,5.68,5.68,0,0,0,5.9,5.89Zm0-1.38a4.52,4.52,0,1,1,4.29-4.51A4.24,4.24,0,0,1,250.08,376.86Z" fill="#fff" fill-rule="evenodd"/><path d="M270.8,366.47a4.87,4.87,0,0,0-4.33,2.12v-6.78h-1.56v16.32h1.56v-6.07c0-2.64,1.56-4.18,4-4.18,2.2,0,3.47,1.26,3.47,3.7v6.55h1.56v-6.71C275.55,368.1,273.62,366.47,270.8,366.47Z" fill="#fff" fill-rule="evenodd"/><path d="M283.85,366.47a7.36,7.36,0,0,0-4.71,1.57l.7,1.16a5.94,5.94,0,0,1,3.85-1.36c2.16,0,3.28,1.08,3.28,3.06v.7H283.3c-3.32,0-4.47,1.5-4.47,3.28,0,2,1.61,3.36,4.23,3.36a4.35,4.35,0,0,0,4-1.91v1.8h1.49V371c0-3-1.69-4.49-4.68-4.49ZM283.3,377c-1.85,0-2.93-.83-2.93-2.18,0-1.18.73-2.06,3-2.06H287v1.89A3.69,3.69,0,0,1,283.3,377Z" fill="#fff" fill-rule="evenodd"/><path d="M297.62,378.24a5.1,5.1,0,0,0,4.53-2.28l-1.16-.8a3.93,3.93,0,0,1-3.37,1.7,4.51,4.51,0,0,1,0-9,4,4,0,0,1,3.37,1.71l1.16-.79a5,5,0,0,0-4.53-2.29,5.89,5.89,0,1,0,0,11.77Z" fill="#fff" fill-rule="evenodd"/><path d="M315.11,372.35a5.51,5.51,0,0,0-5.61-5.88,5.57,5.57,0,0,0-5.65,5.88,6.11,6.11,0,0,0,10.53,4l-.88-1a4.56,4.56,0,0,1-3.54,1.52,4.28,4.28,0,0,1-4.55-4h9.68c0-.17,0-.35,0-.48Zm-5.61-4.53a4,4,0,0,1,4.11,3.85h-8.2A4,4,0,0,1,309.5,367.82Z" fill="#fff" fill-rule="evenodd"/><path d="M324.2,366.47a4.85,4.85,0,0,0-4.4,2.23v-2.14h-1.5v11.57h1.56v-6.07c0-2.64,1.56-4.18,4.05-4.18,2.2,0,3.48,1.26,3.48,3.7v6.55H329v-6.71C329,368.1,327,366.47,324.2,366.47Z" fill="#fff" fill-rule="evenodd"/><path d="M195,396.81a5,5,0,0,0-4.46,2.38V396.9H189v15.84h1.56v-6.45a5,5,0,0,0,4.4,2.29,5.89,5.89,0,0,0,0-11.77Zm-.11,10.39a4.51,4.51,0,1,1,4.31-4.51A4.24,4.24,0,0,1,194.89,407.2Z" fill="#fff" fill-rule="evenodd"/><path d="M208.69,408.58a5.89,5.89,0,1,0-5.9-5.89,5.69,5.69,0,0,0,5.9,5.89Zm0-1.38a4.52,4.52,0,1,1,4.29-4.51A4.24,4.24,0,0,1,208.69,407.2Z" fill="#fff" fill-rule="evenodd"/><path d="M219.25,399.17V396.9h-1.5v11.57h1.56v-5.89c0-2.73,1.48-4.27,3.9-4.27l.37,0v-1.52C221.45,396.81,220,397.63,219.25,399.17Z" fill="#fff" fill-rule="evenodd"/><path d="M237.88,406.65a2.62,2.62,0,0,1-1.72.59,1.86,1.86,0,0,1-2-2.11v-6.91h3.52V396.9h-3.52v-2.53H232.6v2.53h-2.07v1.32h2.07v7a3.06,3.06,0,0,0,3.39,3.36,3.72,3.72,0,0,0,2.44-.81Z" fill="#fff" fill-rule="evenodd"/><path d="M240.63,395.12h1.54l3.56-2.73h-2.09l-3,2.73Zm.64,13.35h1.56V396.9h-1.56Z" fill="#fff" fill-rule="evenodd"/><path d="M247.34,408.58a1.2,1.2,0,0,0,1.19-1.21,1.19,1.19,0,0,0-1.19-1.19,1.17,1.17,0,0,0-1.17,1.19A1.19,1.19,0,0,0,247.34,408.58Z" fill="#fff" fill-rule="evenodd"/></svg>