<svg id="Capa_1" data-name="Capa 1" xmlns="http://www.w3.org/2000/svg" xmlns:xlink="http://www.w3.org/1999/xlink" width="154mm" height="154mm" viewBox="0 0 436.54 436.54"><defs><linearGradient id="GradientFill_1" x1="228.18" y1="203.67" x2="-40.12" y2="598.69" gradientTransform="translate(218.27 -90.41) rotate(45)" gradientUnits="userSpaceOnUse"><stop offset="0" stop-color="#292123"/><stop offset="0.48" stop-color="#3b3338"/><stop offset="1" stop-color="#1a1413"/></linearGradient></defs><title>QUESITO NEGRO CIRCULO 3</title><circle cx="218.27" cy="218.27" r="218.04" transform="translate(-90.41 218.27) rotate(-45)" fill="url(#GradientFill_1)"/><polygon points="132.76 84.04 132.76 78.32 140.73 78.32 140.73 76.93 132.76 76.93 132.76 71.45 141.7 71.45 141.7 70.05 131.14 70.05 131.14 85.44 142.03 85.44 142.03 84.04 132.76 84.04" fill="#fff" fill-rule="evenodd"/><path d="M151.42,73.79A4.86,4.86,0,0,0,147,76V73.87h-1.5V85.45h1.57V79.37c0-2.64,1.56-4.18,4-4.18,2.2,0,3.48,1.26,3.48,3.7v6.56h1.56V78.74C156.17,75.41,154.24,73.79,151.42,73.79Z" fill="#fff" fill-rule="evenodd"/><rect x="166.51" y="70.05" width="1.63" height="15.4" fill="#fff"/><polygon points="184.42 70.05 184.42 82.54 174.5 70.05 173.16 70.05 173.16 85.44 174.78 85.44 174.78 72.95 184.69 85.44 186.03 85.44 186.03 70.05 184.42 70.05" fill="#fff" fill-rule="evenodd"/><polygon points="205.69 70.05 199.07 81.46 192.38 70.05 191.04 70.05 191.04 85.44 192.6 85.44 192.6 73.19 198.65 83.49 199.42 83.49 205.47 73.13 205.47 85.44 207.04 85.44 207.04 70.05 205.69 70.05" fill="#fff" fill-rule="evenodd"/><path d="M218.78,85.58a7.84,7.84,0,1,0-8.09-7.83,7.75,7.75,0,0,0,8.09,7.83Zm0-1.45a6.38,6.38,0,1,1,6.45-6.38A6.27,6.27,0,0,1,218.78,84.13Z" fill="#fff" fill-rule="evenodd"/><polygon points="230.97 84.04 241.16 71.17 241.16 70.05 228.95 70.05 228.95 71.45 239 71.45 228.79 84.32 228.79 85.44 241.42 85.44 241.42 84.04 230.97 84.04" fill="#fff" fill-rule="evenodd"/><path d="M251.17,85.58a7.84,7.84,0,1,0-8.1-7.83,7.74,7.74,0,0,0,8.1,7.83Zm0-1.45a6.38,6.38,0,1,1,6.44-6.38A6.26,6.26,0,0,1,251.17,84.13Z" fill="#fff" fill-rule="evenodd"/><polygon points="274.16 70.05 274.16 82.54 264.24 70.05 262.89 70.05 262.89 85.44 264.52 85.44 264.52 72.95 274.42 85.44 275.76 85.44 275.76 70.05 274.16 70.05" fill="#fff" fill-rule="evenodd"/><path d="M280.63,83.16a1.15,1.15,0,0,0-1.17,1.19,1.11,1.11,0,0,0,.79,1.12l-.75,3.19h1.06l.92-3a3.57,3.57,0,0,0,.31-1.27A1.15,1.15,0,0,0,280.63,83.16Z" fill="#fff" fill-rule="evenodd"/><path d="M301,79.66a5.51,5.51,0,0,0-5.61-5.87,5.57,5.57,0,0,0-5.66,5.87,5.74,5.74,0,0,0,6.07,5.9,5.67,5.67,0,0,0,4.47-1.9l-.88-1a4.56,4.56,0,0,1-3.54,1.52,4.29,4.29,0,0,1-4.56-4H301c0-.17,0-.35,0-.48Zm-5.61-4.53A4,4,0,0,1,299.48,79h-8.21A4,4,0,0,1,295.37,75.13Z" fill="#fff" fill-rule="evenodd"/><rect x="304.17" y="69.12" width="1.56" height="16.32" fill="#fff"/><path d="M125.51,104.12A5,5,0,0,0,121,106.5v-2.29h-1.5v15.84h1.57v-6.44a5,5,0,0,0,4.4,2.28,5.89,5.89,0,0,0,0-11.77Zm-.11,10.39a4.51,4.51,0,1,1,4.31-4.51A4.24,4.24,0,0,1,125.4,114.51Z" fill="#fff" fill-rule="evenodd"/><path d="M136,106.48v-2.27h-1.49v11.57H136v-5.89c0-2.73,1.48-4.27,3.89-4.27l.38,0v-1.52C138.15,104.12,136.68,104.94,136,106.48Z" fill="#fff" fill-rule="evenodd"/><path d="M147.72,115.89a5.89,5.89,0,1,0-5.89-5.89,5.69,5.69,0,0,0,5.89,5.89Zm0-1.38A4.52,4.52,0,1,1,152,110,4.24,4.24,0,0,1,147.72,114.51Z" fill="#fff" fill-rule="evenodd"/><path d="M162.75,104.12a5.06,5.06,0,0,0-4.47,2.38v-2.29h-1.49v15.84h1.56v-6.44a5.06,5.06,0,0,0,4.4,2.28,5.89,5.89,0,0,0,0-11.77Zm-.11,10.39A4.51,4.51,0,1,1,167,110,4.24,4.24,0,0,1,162.64,114.51Z" fill="#fff" fill-rule="evenodd"/><path d="M172.5,101.68a1.11,1.11,0,1,0,0-2.22,1.11,1.11,0,1,0,0,2.22Zm-.8,14.1h1.57V104.21H171.7Z" fill="#fff" fill-rule="evenodd"/><path d="M187.72,110a5.51,5.51,0,0,0-5.61-5.88,5.57,5.57,0,0,0-5.65,5.88A6.11,6.11,0,0,0,187,114l-.88-1a4.56,4.56,0,0,1-3.54,1.52,4.28,4.28,0,0,1-4.55-4h9.68c0-.17,0-.35,0-.48Zm-5.61-4.53a4,4,0,0,1,4.11,3.85H178A4,4,0,0,1,182.11,105.47Z" fill="#fff" fill-rule="evenodd"/><path d="M196.45,114a2.59,2.59,0,0,1-1.71.59,1.85,1.85,0,0,1-2-2.11v-6.91h3.52v-1.32h-3.52v-2.53h-1.57v2.53h-2.06v1.32h2.06v7a3.06,3.06,0,0,0,3.39,3.36,3.7,3.7,0,0,0,2.44-.81Z" fill="#fff" fill-rule="evenodd"/><path d="M203.89,104.12a7.36,7.36,0,0,0-4.71,1.57l.71,1.16a5.9,5.9,0,0,1,3.85-1.36c2.15,0,3.27,1.08,3.27,3.06v.7h-3.67c-3.32,0-4.47,1.5-4.47,3.28,0,2,1.61,3.36,4.23,3.36a4.34,4.34,0,0,0,4-1.91v1.8h1.5v-7.17c0-3-1.7-4.49-4.69-4.49Zm-.55,10.54c-1.85,0-2.93-.83-2.93-2.18,0-1.18.73-2.06,3-2.06H207v1.89A3.69,3.69,0,0,1,203.34,114.66Z" fill="#fff" fill-rule="evenodd"/><path d="M214.32,106.48v-2.27h-1.5v11.57h1.56v-5.89c0-2.73,1.48-4.27,3.9-4.27l.37,0v-1.52C216.52,104.12,215,104.94,214.32,106.48Z" fill="#fff" fill-rule="evenodd"/><path d="M222.26,101.68a1.11,1.11,0,0,0,1.14-1.14,1.1,1.1,0,0,0-1.14-1.08,1.11,1.11,0,1,0,0,2.22Zm-.79,14.1H223V104.21h-1.56Z" fill="#fff" fill-rule="evenodd"/><path d="M232.12,115.89a5.89,5.89,0,1,0-5.9-5.89,5.69,5.69,0,0,0,5.9,5.89Zm0-1.38a4.52,4.52,0,1,1,4.29-4.51A4.24,4.24,0,0,1,232.12,114.51Z" fill="#fff" fill-rule="evenodd"/><path d="M247.21,102.78v1.43h-2.07v1.32h2.07v10.25h1.56V105.53h3.52v-1.32h-3.56v-1.36c0-1.43.7-2.18,2-2.18a2.68,2.68,0,0,1,1.72.57l.53-1.16a3.67,3.67,0,0,0-2.31-.73,3.18,3.18,0,0,0-3.5,3.43ZM257,99.46a1.11,1.11,0,1,0,1.15,1.08A1.11,1.11,0,0,0,257,99.46Zm-.79,16.32h1.56V104.21h-1.56Z" fill="#fff" fill-rule="evenodd"/><path d="M263,101.68a1.12,1.12,0,0,0,1.15-1.14A1.11,1.11,0,0,0,263,99.46a1.11,1.11,0,1,0,0,2.22Zm-2.62,18.48a3.17,3.17,0,0,0,3.39-3.52V104.21h-1.56v12.43c0,1.43-.68,2.18-1.91,2.18a2.74,2.74,0,0,1-1.81-.59l-.55,1.18A3.78,3.78,0,0,0,260.36,120.16Z" fill="#fff" fill-rule="evenodd"/><path d="M272.16,104.12a7.34,7.34,0,0,0-4.71,1.57l.7,1.16a5.94,5.94,0,0,1,3.85-1.36c2.16,0,3.28,1.08,3.28,3.06v.7h-3.67c-3.33,0-4.47,1.5-4.47,3.28,0,2,1.61,3.36,4.22,3.36a4.35,4.35,0,0,0,4-1.91v1.8h1.49v-7.17c0-3-1.69-4.49-4.68-4.49Zm-.55,10.54c-1.85,0-2.93-.83-2.93-2.18,0-1.18.73-2.06,3-2.06h3.63v1.89A3.69,3.69,0,0,1,271.61,114.66Z" fill="#fff" fill-rule="evenodd"/><path d="M292.4,114a2.62,2.62,0,0,1-1.72.59,1.85,1.85,0,0,1-2-2.11v-6.91h3.52v-1.32h-3.52v-2.53h-1.56v2.53h-2.07v1.32h2.07v7a3.06,3.06,0,0,0,3.38,3.36,3.73,3.73,0,0,0,2.45-.81Z" fill="#fff" fill-rule="evenodd"/><path d="M304.65,104.21v6.07c0,2.64-1.52,4.21-3.94,4.21-2.2,0-3.47-1.26-3.47-3.72v-6.56h-1.57v6.71c0,3.32,1.94,5,4.89,5a4.61,4.61,0,0,0,4.16-2.22v2.11h1.49V104.21Z" fill="#fff" fill-rule="evenodd"/><path d="M313.69,115.89c3,0,4.78-1.29,4.78-3.3,0-4.44-7.51-2.08-7.51-5.21,0-1.1.93-1.91,3-1.91a5.88,5.88,0,0,1,3.41,1l.68-1.26a7.86,7.86,0,0,0-4.09-1.08c-3,0-4.58,1.41-4.58,3.3,0,4.58,7.5,2.21,7.5,5.22,0,1.14-.9,1.89-3.1,1.89a6.94,6.94,0,0,1-4.11-1.3l-.71,1.23A7.72,7.72,0,0,0,313.69,115.89Z" fill="#fff" fill-rule="evenodd"/><path d="M59.75,134.46a4.9,4.9,0,0,0-4.34,2.11V129.8H53.85v16.32h1.56v-6.07c0-2.64,1.56-4.18,4.05-4.18,2.2,0,3.48,1.25,3.48,3.7v6.55H64.5v-6.71C64.5,136.09,62.56,134.46,59.75,134.46Z" fill="#fff" fill-rule="evenodd"/><path d="M73.52,146.23a5.89,5.89,0,1,0-5.9-5.89,5.68,5.68,0,0,0,5.9,5.89Zm0-1.38a4.52,4.52,0,1,1,4.29-4.51A4.24,4.24,0,0,1,73.52,144.85Z" fill="#fff" fill-rule="evenodd"/><path d="M88.48,134.46a4.87,4.87,0,0,0-4.4,2.22v-2.13h-1.5v11.57h1.56v-6.07c0-2.64,1.57-4.18,4-4.18,2.2,0,3.48,1.25,3.48,3.7v6.55h1.56v-6.71C93.23,136.09,91.29,134.46,88.48,134.46Z" fill="#fff" fill-rule="evenodd"/><path d="M102.25,146.23a5.89,5.89,0,1,0-5.9-5.89,5.68,5.68,0,0,0,5.9,5.89Zm0-1.38a4.52,4.52,0,1,1,4.29-4.51A4.24,4.24,0,0,1,102.25,144.85Z" fill="#fff" fill-rule="evenodd"/><path d="M112.81,136.82v-2.27h-1.5v11.57h1.57v-5.89c0-2.73,1.47-4.27,3.89-4.27l.37,0v-1.52C115,134.46,113.54,135.28,112.81,136.82Z" fill="#fff" fill-rule="evenodd"/><path d="M124,134.46a7.33,7.33,0,0,0-4.71,1.56l.7,1.17a5.89,5.89,0,0,1,3.85-1.36c2.16,0,3.28,1.07,3.28,3v.71h-3.67c-3.33,0-4.47,1.49-4.47,3.28,0,2,1.61,3.36,4.22,3.36a4.35,4.35,0,0,0,4-1.91v1.8h1.49V139c0-3-1.69-4.49-4.68-4.49ZM123.44,145c-1.85,0-2.93-.84-2.93-2.18,0-1.19.73-2.07,3-2.07h3.63v1.9A3.71,3.71,0,0,1,123.44,145Z" fill="#fff" fill-rule="evenodd"/><path d="M134.41,136.82v-2.27h-1.49v11.57h1.56v-5.89c0-2.73,1.47-4.27,3.89-4.27l.38,0v-1.52C136.61,134.46,135.14,135.28,134.41,136.82Z" fill="#fff" fill-rule="evenodd"/><path d="M142.36,132a1.12,1.12,0,0,0,1.14-1.14,1.11,1.11,0,0,0-1.14-1.08,1.11,1.11,0,1,0,0,2.22Zm-.8,14.1h1.57V134.55h-1.57Z" fill="#fff" fill-rule="evenodd"/><path d="M152.21,146.23a5.89,5.89,0,1,0-5.89-5.89,5.69,5.69,0,0,0,5.89,5.89Zm0-1.38a4.52,4.52,0,1,1,4.29-4.51A4.24,4.24,0,0,1,152.21,144.85Z" fill="#fff" fill-rule="evenodd"/><path d="M164.38,146.23c3,0,4.77-1.3,4.77-3.3,0-4.44-7.5-2.08-7.5-5.21,0-1.1.92-1.92,3-1.92a6,6,0,0,1,3.41,1l.69-1.25a7.87,7.87,0,0,0-4.1-1.08c-2.94,0-4.57,1.41-4.57,3.3,0,4.58,7.5,2.21,7.5,5.22,0,1.14-.9,1.89-3.1,1.89a7,7,0,0,1-4.12-1.3l-.7,1.23A7.69,7.69,0,0,0,164.38,146.23Z" fill="#fff" fill-rule="evenodd"/><path d="M172.21,143.83A1.16,1.16,0,0,0,171,145a1.11,1.11,0,0,0,.8,1.12l-.75,3.19h1l.93-3a3.61,3.61,0,0,0,.31-1.28A1.16,1.16,0,0,0,172.21,143.83Z" fill="#fff" fill-rule="evenodd"/><path d="M188.42,134.46a5,5,0,0,0-4.46,2.38v-2.29h-1.5v15.84H184v-6.45a5.06,5.06,0,0,0,4.4,2.29,5.89,5.89,0,0,0,0-11.77Zm-.11,10.39a4.51,4.51,0,1,1,4.32-4.51A4.24,4.24,0,0,1,188.31,144.85Z" fill="#fff" fill-rule="evenodd"/><path d="M201.36,134.46a7.35,7.35,0,0,0-4.71,1.56l.71,1.17a5.85,5.85,0,0,1,3.85-1.36c2.15,0,3.27,1.07,3.27,3v.71h-3.67c-3.32,0-4.47,1.49-4.47,3.28,0,2,1.61,3.36,4.23,3.36a4.34,4.34,0,0,0,4-1.91v1.8h1.5V139c0-3-1.7-4.49-4.69-4.49ZM200.81,145c-1.85,0-2.93-.84-2.93-2.18,0-1.19.73-2.07,3-2.07h3.63v1.9A3.7,3.7,0,0,1,200.81,145Z" fill="#fff" fill-rule="evenodd"/><path d="M211.79,136.82v-2.27h-1.5v11.57h1.56v-5.89c0-2.73,1.48-4.27,3.9-4.27l.37,0v-1.52C214,134.46,212.51,135.28,211.79,136.82Z" fill="#fff" fill-rule="evenodd"/><path d="M225,144.3a2.62,2.62,0,0,1-1.72.59,1.85,1.85,0,0,1-2-2.11v-6.91h3.52v-1.32h-3.52V132h-1.56v2.53h-2.07v1.32h2.07v7a3.06,3.06,0,0,0,3.39,3.36,3.72,3.72,0,0,0,2.44-.81Z" fill="#fff" fill-rule="evenodd"/><path d="M229.17,132a1.12,1.12,0,0,0,1.14-1.14,1.1,1.1,0,0,0-1.14-1.08,1.11,1.11,0,1,0,0,2.22Zm-.79,14.1h1.56V134.55h-1.56Z" fill="#fff" fill-rule="evenodd"/><path d="M244.39,140.34a5.51,5.51,0,0,0-5.61-5.88,5.57,5.57,0,0,0-5.65,5.88,6.12,6.12,0,0,0,10.54,4l-.88-1a4.58,4.58,0,0,1-3.55,1.52,4.29,4.29,0,0,1-4.55-4h9.68c0-.18,0-.35,0-.48Zm-5.61-4.54a4,4,0,0,1,4.12,3.85h-8.21A4,4,0,0,1,238.78,135.8Z" fill="#fff" fill-rule="evenodd"/><path d="M253.48,134.46a4.87,4.87,0,0,0-4.4,2.22v-2.13h-1.5v11.57h1.56v-6.07c0-2.64,1.57-4.18,4.05-4.18,2.2,0,3.48,1.25,3.48,3.7v6.55h1.56v-6.71C258.23,136.09,256.29,134.46,253.48,134.46Z" fill="#fff" fill-rule="evenodd"/><path d="M271.52,129.8v6.95a5,5,0,0,0-4.4-2.29,5.89,5.89,0,0,0,0,11.77,5,5,0,0,0,4.46-2.4v2.29h1.5V129.8Zm-4.27,15a4.52,4.52,0,1,1,4.29-4.51A4.24,4.24,0,0,1,267.25,144.85Z" fill="#fff" fill-rule="evenodd"/><path d="M282.17,146.23a5.89,5.89,0,1,0-5.9-5.89,5.69,5.69,0,0,0,5.9,5.89Zm0-1.38a4.52,4.52,0,1,1,4.29-4.51A4.24,4.24,0,0,1,282.17,144.85Z" fill="#fff" fill-rule="evenodd"/><path d="M300.1,146.23c3,0,4.77-1.3,4.77-3.3,0-4.44-7.5-2.08-7.5-5.21,0-1.1.92-1.92,3-1.92a6,6,0,0,1,3.41,1l.68-1.25a7.8,7.8,0,0,0-4.09-1.08c-2.95,0-4.57,1.41-4.57,3.3,0,4.58,7.5,2.21,7.5,5.22,0,1.14-.9,1.89-3.1,1.89a7,7,0,0,1-4.12-1.3l-.7,1.23A7.67,7.67,0,0,0,300.1,146.23Z" fill="#fff" fill-rule="evenodd"/><path d="M308.54,132a1.13,1.13,0,0,0,1.15-1.14,1.11,1.11,0,0,0-1.15-1.08,1.11,1.11,0,1,0,0,2.22Zm-.79,14.1h1.56V134.55h-1.56Z" fill="#fff" fill-rule="evenodd"/><path d="M323.77,140.34a5.52,5.52,0,0,0-5.61-5.88,5.58,5.58,0,0,0-5.66,5.88,6.12,6.12,0,0,0,10.54,4l-.88-1a4.56,4.56,0,0,1-3.54,1.52,4.28,4.28,0,0,1-4.55-4h9.68c0-.18,0-.35,0-.48Zm-5.61-4.54a4,4,0,0,1,4.11,3.85h-8.2A4,4,0,0,1,318.16,135.8Z" fill="#fff" fill-rule="evenodd"/><path d="M341.39,134.46a5.06,5.06,0,0,0-4.58,2.44,4.16,4.16,0,0,0-4.11-2.44,4.7,4.7,0,0,0-4.25,2.2v-2.11H327v11.57h1.56v-6.07c0-2.64,1.52-4.18,3.87-4.18,2.11,0,3.35,1.25,3.35,3.7v6.55h1.56v-6.07c0-2.64,1.49-4.18,3.87-4.18,2.09,0,3.32,1.25,3.32,3.7v6.55h1.56v-6.71C346.05,136.09,344.21,134.46,341.39,134.46Z" fill="#fff" fill-rule="evenodd"/><path d="M356.26,134.46a5,5,0,0,0-4.46,2.38v-2.29h-1.5v15.84h1.56v-6.45a5,5,0,0,0,4.4,2.29,5.89,5.89,0,0,0,0-11.77Zm-.11,10.39a4.51,4.51,0,1,1,4.31-4.51A4.24,4.24,0,0,1,356.15,144.85Z" fill="#fff" fill-rule="evenodd"/><path d="M366.71,136.82v-2.27h-1.49v11.57h1.56v-5.89c0-2.73,1.47-4.27,3.89-4.27l.38,0v-1.52C368.91,134.46,367.44,135.28,366.71,136.82Z" fill="#fff" fill-rule="evenodd"/><path d="M383.85,140.34a5.64,5.64,0,1,0-11.26,0,6.11,6.11,0,0,0,10.53,4l-.88-1a4.56,4.56,0,0,1-3.54,1.52,4.28,4.28,0,0,1-4.55-4h9.68c0-.18,0-.35,0-.48Zm-5.61-4.54a4,4,0,0,1,4.11,3.85h-8.2A4,4,0,0,1,378.24,135.8Z" fill="#fff" fill-rule="evenodd"/><path d="M67.05,160.14v7a5,5,0,0,0-4.4-2.29,5.89,5.89,0,0,0,0,11.77,5,5,0,0,0,4.47-2.4v2.29h1.49V160.14Zm-4.27,15a4.52,4.52,0,1,1,4.29-4.51A4.24,4.24,0,0,1,62.78,175.18Z" fill="#fff" fill-rule="evenodd"/><path d="M83.07,170.67a5.52,5.52,0,0,0-5.61-5.87,5.57,5.57,0,0,0-5.66,5.87,6.12,6.12,0,0,0,10.54,4l-.88-1a4.55,4.55,0,0,1-3.54,1.51,4.29,4.29,0,0,1-4.56-4H83c0-.18,0-.35,0-.49Zm-5.61-4.53A4,4,0,0,1,81.57,170H73.36A4,4,0,0,1,77.46,166.14Z" fill="#fff" fill-rule="evenodd"/><path d="M100.89,164.89V171c0,2.64-1.52,4.2-3.94,4.2-2.2,0-3.48-1.25-3.48-3.72v-6.55H91.91v6.71c0,3.32,1.94,5,4.88,5a4.59,4.59,0,0,0,4.16-2.22v2.11h1.5V164.89Z" fill="#fff" fill-rule="evenodd"/><path d="M112.72,164.8a4.86,4.86,0,0,0-4.4,2.22v-2.13h-1.49v11.57h1.56v-6.07c0-2.64,1.56-4.18,4-4.18,2.2,0,3.47,1.25,3.47,3.69v6.56h1.56v-6.71C117.47,166.43,115.54,164.8,112.72,164.8Z" fill="#fff" fill-rule="evenodd"/><path d="M141.92,164.8a5.06,5.06,0,0,0-4.58,2.44,4.15,4.15,0,0,0-4.11-2.44A4.67,4.67,0,0,0,129,167v-2.11h-1.5v11.57h1.57v-6.07c0-2.64,1.51-4.18,3.87-4.18,2.11,0,3.34,1.25,3.34,3.69v6.56h1.56v-6.07c0-2.64,1.5-4.18,3.88-4.18,2.09,0,3.32,1.25,3.32,3.69v6.56h1.56v-6.71C146.58,166.43,144.73,164.8,141.92,164.8Z" fill="#fff" fill-rule="evenodd"/><path d="M150.19,163.11h1.54l3.56-2.73H153.2l-3,2.73Zm.64,13.35h1.56V164.89h-1.56Z" fill="#fff" fill-rule="evenodd"/><path d="M162.64,164.8a4.86,4.86,0,0,0-4.4,2.22v-2.13h-1.5v11.57h1.57v-6.07c0-2.64,1.56-4.18,4-4.18,2.2,0,3.48,1.25,3.48,3.69v6.56h1.56v-6.71C167.39,166.43,165.46,164.8,162.64,164.8Z" fill="#fff" fill-rule="evenodd"/><path d="M172.43,162.36a1.12,1.12,0,0,0,1.14-1.15,1.1,1.1,0,0,0-1.14-1.07,1.11,1.11,0,1,0,0,2.22Zm-.79,14.1h1.56V164.89h-1.56Z" fill="#fff" fill-rule="evenodd"/><path d="M192,164.8a5.06,5.06,0,0,0-4.58,2.44,4.15,4.15,0,0,0-4.11-2.44,4.68,4.68,0,0,0-4.25,2.2v-2.11h-1.49v11.57h1.56v-6.07c0-2.64,1.52-4.18,3.87-4.18,2.11,0,3.34,1.25,3.34,3.69v6.56h1.57v-6.07c0-2.64,1.49-4.18,3.87-4.18,2.09,0,3.32,1.25,3.32,3.69v6.56h1.56v-6.71C196.65,166.43,194.8,164.8,192,164.8Z" fill="#fff" fill-rule="evenodd"/><path d="M205.67,176.57a5.89,5.89,0,1,0-5.89-5.9,5.69,5.69,0,0,0,5.89,5.9Zm0-1.39a4.52,4.52,0,1,1,4.29-4.51A4.24,4.24,0,0,1,205.67,175.18Z" fill="#fff" fill-rule="evenodd"/><path d="M229.5,160.14v7a5,5,0,0,0-4.4-2.29,5.89,5.89,0,0,0,0,11.77,5,5,0,0,0,4.46-2.4v2.29h1.5V160.14Zm-4.27,15a4.52,4.52,0,1,1,4.29-4.51A4.24,4.24,0,0,1,225.23,175.18Z" fill="#fff" fill-rule="evenodd"/><path d="M245.51,170.67a5.51,5.51,0,0,0-5.61-5.87,5.57,5.57,0,0,0-5.65,5.87,6.12,6.12,0,0,0,10.54,4l-.88-1a4.57,4.57,0,0,1-3.54,1.51,4.29,4.29,0,0,1-4.56-4h9.68c0-.18,0-.35,0-.49Zm-5.61-4.53A4,4,0,0,1,244,170h-8.21A4,4,0,0,1,239.9,166.14Z" fill="#fff" fill-rule="evenodd"/><rect x="248.7" y="160.14" width="1.56" height="16.32" fill="#fff"/><path d="M264.59,167.66l4.35-5.48v-1.12H259v1.41h7.88l-4.27,5.34V169h1.1c2.86,0,4.16,1.21,4.16,3.06s-1.41,3.1-4,3.1a6.76,6.76,0,0,1-4.77-1.78l-.77,1.25a8,8,0,0,0,5.54,2c3.72,0,5.59-2,5.59-4.55S267.89,167.84,264.59,167.66Z" fill="#fff" fill-rule="evenodd"/><path d="M274.8,169.31c2,0,3.47-1.65,3.47-4.18S276.84,161,274.8,161s-3.48,1.67-3.48,4.18,1.41,4.18,3.48,4.18Zm-1.19,7.15h1.3l10.51-15.4h-1.3l-10.51,15.4Zm1.19-8.14c-1.46,0-2.38-1.21-2.38-3.19s.92-3.19,2.38-3.19,2.37,1.19,2.37,3.19-.94,3.19-2.37,3.19Zm9.43,8.25c2.07,0,3.48-1.67,3.48-4.18s-1.41-4.18-3.48-4.18-3.47,1.67-3.47,4.18,1.43,4.18,3.47,4.18Zm0-1c-1.43,0-2.37-1.19-2.37-3.19s.94-3.19,2.37-3.19,2.38,1.21,2.38,3.19S285.69,175.58,284.23,175.58Z" fill="#fff" fill-rule="evenodd"/><path d="M299.68,176.57c3,0,4.77-1.3,4.77-3.3,0-4.44-7.5-2.09-7.5-5.21,0-1.1.92-1.92,3-1.92a6,6,0,0,1,3.41,1l.69-1.25a7.87,7.87,0,0,0-4.1-1.08c-2.94,0-4.57,1.41-4.57,3.3,0,4.58,7.5,2.2,7.5,5.21,0,1.15-.9,1.9-3.1,1.9a7.06,7.06,0,0,1-4.12-1.3l-.7,1.23A7.76,7.76,0,0,0,299.68,176.57Z" fill="#fff" fill-rule="evenodd"/><path d="M312.06,176.57a5.89,5.89,0,1,0-5.89-5.9,5.69,5.69,0,0,0,5.89,5.9Zm0-1.39a4.52,4.52,0,1,1,4.29-4.51A4.24,4.24,0,0,1,312.06,175.18Z" fill="#fff" fill-rule="evenodd"/><path d="M327.09,164.8a5,5,0,0,0-4.4,2.29v-7h-1.56v16.32h1.49v-2.29a5,5,0,0,0,4.47,2.4,5.89,5.89,0,0,0,0-11.77ZM327,175.18a4.51,4.51,0,1,1,4.31-4.51A4.24,4.24,0,0,1,327,175.18Z" fill="#fff" fill-rule="evenodd"/><path d="M337.54,167.15v-2.26H336v11.57h1.57v-5.9c0-2.72,1.47-4.26,3.89-4.26l.37,0V164.8C339.74,164.8,338.27,165.61,337.54,167.15Z" fill="#fff" fill-rule="evenodd"/><path d="M354.68,170.67a5.52,5.52,0,0,0-5.61-5.87,5.57,5.57,0,0,0-5.66,5.87,6.12,6.12,0,0,0,10.54,4l-.88-1a4.55,4.55,0,0,1-3.54,1.51,4.27,4.27,0,0,1-4.55-4h9.68c0-.18,0-.35,0-.49Zm-5.61-4.53a4,4,0,0,1,4.11,3.85H345A4,4,0,0,1,349.07,166.14Z" fill="#fff" fill-rule="evenodd"/><path d="M373.73,170.67a5.63,5.63,0,1,0-11.26,0,6.11,6.11,0,0,0,10.53,4l-.88-1a4.55,4.55,0,0,1-3.54,1.51,4.27,4.27,0,0,1-4.55-4h9.68c0-.18,0-.35,0-.49Zm-5.61-4.53a4,4,0,0,1,4.11,3.85H364A4,4,0,0,1,368.12,166.14Z" fill="#fff" fill-rule="evenodd"/><rect x="376.92" y="160.14" width="1.56" height="16.32" fill="#fff"/><path d="M50.41,195.14a5,5,0,0,0-4.47,2.37v-2.28H44.45v15.84H46v-6.45a5,5,0,0,0,4.4,2.29,5.89,5.89,0,0,0,0-11.77Zm-.11,10.38A4.51,4.51,0,1,1,54.61,201,4.23,4.23,0,0,1,50.3,205.52Z" fill="#fff" fill-rule="evenodd"/><path d="M60.86,197.49v-2.26h-1.5V206.8h1.56v-5.9c0-2.73,1.48-4.27,3.9-4.27.11,0,.24,0,.37,0v-1.52C63.06,195.14,61.58,196,60.86,197.49Z" fill="#fff" fill-rule="evenodd"/><path d="M78,201a5.52,5.52,0,0,0-5.61-5.87A5.57,5.57,0,0,0,66.73,201a6.12,6.12,0,0,0,10.54,4l-.88-1a4.53,4.53,0,0,1-3.54,1.52,4.29,4.29,0,0,1-4.56-4H78c0-.18,0-.36,0-.49Zm-5.61-4.53a4,4,0,0,1,4.11,3.85H68.29A4,4,0,0,1,72.39,196.48Z" fill="#fff" fill-rule="evenodd"/><path d="M86,206.91a5.08,5.08,0,0,0,4.53-2.29l-1.16-.79A3.93,3.93,0,0,1,86,205.52a4.51,4.51,0,0,1,0-9,3.93,3.93,0,0,1,3.37,1.72l1.16-.79A5,5,0,0,0,86,195.14a5.89,5.89,0,1,0,0,11.77Z" fill="#fff" fill-rule="evenodd"/><path d="M94.36,192.7a1.13,1.13,0,0,0,1.15-1.15,1.12,1.12,0,0,0-1.15-1.08,1.12,1.12,0,1,0,0,2.23Zm-.79,14.1h1.56V195.23H93.57Z" fill="#fff" fill-rule="evenodd"/><path d="M104.22,206.91a5.89,5.89,0,1,0-5.9-5.9,5.69,5.69,0,0,0,5.9,5.9Zm0-1.39a4.52,4.52,0,1,1,4.29-4.51A4.24,4.24,0,0,1,104.22,205.52Z" fill="#fff" fill-rule="evenodd"/><path d="M124.94,195.14a4.86,4.86,0,0,0-4.4,2.22v-2.13h-1.49V206.8h1.56v-6.07c0-2.64,1.56-4.18,4-4.18,2.2,0,3.47,1.25,3.47,3.69v6.56h1.57v-6.71C129.7,196.77,127.76,195.14,124.94,195.14Z" fill="#fff" fill-rule="evenodd"/><path d="M144.08,201a5.51,5.51,0,0,0-5.61-5.87,5.57,5.57,0,0,0-5.65,5.87,6.12,6.12,0,0,0,10.54,4l-.88-1a4.54,4.54,0,0,1-3.54,1.52,4.29,4.29,0,0,1-4.56-4h9.68c0-.18,0-.36,0-.49Zm-5.61-4.53a4,4,0,0,1,4.12,3.85h-8.21A4,4,0,0,1,138.47,196.48Z" fill="#fff" fill-rule="evenodd"/><path d="M152.82,205a2.58,2.58,0,0,1-1.72.6,1.85,1.85,0,0,1-2-2.12v-6.9h3.52v-1.32H149.1V192.7h-1.56v2.53h-2.07v1.32h2.07v7a3.07,3.07,0,0,0,3.39,3.37,3.73,3.73,0,0,0,2.44-.82Z" fill="#fff" fill-rule="evenodd"/><path d="M160.52,206.91a5.89,5.89,0,1,0-5.9-5.9,5.69,5.69,0,0,0,5.9,5.9Zm0-1.39a4.52,4.52,0,1,1,4.29-4.51A4.23,4.23,0,0,1,160.52,205.52Z" fill="#fff" fill-rule="evenodd"/><path d="M184.34,190.47v7a5,5,0,0,0-4.4-2.29,5.89,5.89,0,0,0,0,11.77,5,5,0,0,0,4.47-2.4v2.29h1.5V190.47Zm-4.26,15.05a4.52,4.52,0,1,1,4.29-4.51A4.24,4.24,0,0,1,180.08,205.52Z" fill="#fff" fill-rule="evenodd"/><path d="M200.36,201a5.63,5.63,0,1,0-11.26,0,6.11,6.11,0,0,0,10.53,4l-.88-1a4.53,4.53,0,0,1-3.54,1.52,4.27,4.27,0,0,1-4.55-4h9.68c0-.18,0-.36,0-.49Zm-5.61-4.53a4,4,0,0,1,4.11,3.85h-8.2A4,4,0,0,1,194.75,196.48Z" fill="#fff" fill-rule="evenodd"/><polygon points="217.5 195.23 213.12 205.08 208.78 195.23 207.16 195.23 212.28 206.8 213.89 206.8 219.04 195.23 217.5 195.23" fill="#fff" fill-rule="evenodd"/><path d="M231,201a5.52,5.52,0,0,0-5.61-5.87,5.57,5.57,0,0,0-5.66,5.87,6.12,6.12,0,0,0,10.54,4l-.88-1a4.53,4.53,0,0,1-3.54,1.52,4.29,4.29,0,0,1-4.56-4H231c0-.18,0-.36,0-.49Zm-5.61-4.53a4,4,0,0,1,4.11,3.85H221.3A4,4,0,0,1,225.4,196.48Z" fill="#fff" fill-rule="evenodd"/><path d="M240.09,195.14a4.86,4.86,0,0,0-4.4,2.22v-2.13h-1.5V206.8h1.57v-6.07c0-2.64,1.56-4.18,4.05-4.18,2.2,0,3.47,1.25,3.47,3.69v6.56h1.56v-6.71C244.84,196.77,242.91,195.14,240.09,195.14Z" fill="#fff" fill-rule="evenodd"/><path d="M254.63,205a2.55,2.55,0,0,1-1.71.6,1.85,1.85,0,0,1-2-2.12v-6.9h3.52v-1.32h-3.52V192.7h-1.57v2.53h-2.06v1.32h2.06v7a3.07,3.07,0,0,0,3.39,3.37,3.71,3.71,0,0,0,2.44-.82Z" fill="#fff" fill-rule="evenodd"/><path d="M262.07,195.14a7.35,7.35,0,0,0-4.71,1.56l.71,1.17a5.86,5.86,0,0,1,3.85-1.37c2.15,0,3.27,1.08,3.27,3.06v.7h-3.67c-3.32,0-4.47,1.5-4.47,3.28,0,2,1.61,3.37,4.23,3.37a4.34,4.34,0,0,0,4-1.92v1.81h1.5v-7.17c0-3-1.7-4.49-4.69-4.49Zm-.55,10.54c-1.85,0-2.93-.84-2.93-2.18,0-1.19.73-2.07,3-2.07h3.63v1.89A3.69,3.69,0,0,1,261.52,205.68Z" fill="#fff" fill-rule="evenodd"/><path d="M277,193.8v1.43H275v1.32H277V206.8h1.56V196.55h3.52v-1.32h-3.56v-1.37c0-1.43.7-2.18,2-2.18a2.63,2.63,0,0,1,1.72.58l.53-1.17a3.71,3.71,0,0,0-2.31-.73,3.19,3.19,0,0,0-3.5,3.44Zm9.74-3.33a1.12,1.12,0,1,0,1.15,1.08,1.12,1.12,0,0,0-1.15-1.08ZM286,206.8h1.57V195.23H286Z" fill="#fff" fill-rule="evenodd"/><path d="M297.8,195.14a4.84,4.84,0,0,0-4.4,2.22v-2.13h-1.5V206.8h1.56v-6.07c0-2.64,1.56-4.18,4.05-4.18,2.2,0,3.48,1.25,3.48,3.69v6.56h1.56v-6.71C302.55,196.77,300.61,195.14,297.8,195.14Z" fill="#fff" fill-rule="evenodd"/><path d="M310.84,195.14a7.37,7.37,0,0,0-4.71,1.56l.71,1.17a5.86,5.86,0,0,1,3.85-1.37c2.16,0,3.28,1.08,3.28,3.06v.7h-3.68c-3.32,0-4.46,1.5-4.46,3.28,0,2,1.6,3.37,4.22,3.37a4.34,4.34,0,0,0,4-1.92v1.81h1.5v-7.17c0-3-1.7-4.49-4.69-4.49Zm-.55,10.54c-1.85,0-2.92-.84-2.92-2.18,0-1.19.72-2.07,3-2.07H314v1.89A3.72,3.72,0,0,1,310.29,205.68Z" fill="#fff" fill-rule="evenodd"/><rect x="319.77" y="190.47" width="1.56" height="16.32" fill="#fff"/><path d="M325.85,206.91A1.2,1.2,0,0,0,327,205.7a1.18,1.18,0,0,0-1.18-1.19,1.17,1.17,0,0,0-1.17,1.19A1.19,1.19,0,0,0,325.85,206.91Z" fill="#fff" fill-rule="evenodd"/><path d="M348,206.8h1.71l-7-15.4H341l-7,15.4h1.69l1.85-4.12h8.58L348,206.8Zm-9.84-5.44,3.7-8.27,3.69,8.27Z" fill="#fff" fill-rule="evenodd"/><rect x="351.89" y="190.47" width="1.56" height="16.32" fill="#fff"/><path d="M366.68,206.91c3,0,4.77-1.3,4.77-3.3,0-4.44-7.5-2.09-7.5-5.22,0-1.1.92-1.91,3-1.91a6,6,0,0,1,3.41,1l.69-1.25a7.87,7.87,0,0,0-4.1-1.08c-2.94,0-4.57,1.41-4.57,3.3,0,4.57,7.5,2.2,7.5,5.21,0,1.15-.9,1.89-3.1,1.89a7.06,7.06,0,0,1-4.12-1.29l-.7,1.23A7.76,7.76,0,0,0,366.68,206.91Z" fill="#fff" fill-rule="evenodd"/><path d="M384.43,201a5.51,5.51,0,0,0-5.61-5.87,5.57,5.57,0,0,0-5.65,5.87,6.12,6.12,0,0,0,10.54,4l-.88-1a4.55,4.55,0,0,1-3.55,1.52,4.28,4.28,0,0,1-4.55-4h9.68c0-.18,0-.36,0-.49Zm-5.61-4.53a4,4,0,0,1,4.12,3.85h-8.21A4,4,0,0,1,378.82,196.48Z" fill="#fff" fill-rule="evenodd"/><path d="M389.12,197.49v-2.26h-1.5V206.8h1.56v-5.9c0-2.73,1.48-4.27,3.9-4.27.11,0,.24,0,.37,0v-1.52C391.32,195.14,389.84,196,389.12,197.49Z" fill="#fff" fill-rule="evenodd"/><polygon points="70.33 225.56 65.95 235.42 61.62 225.56 59.99 225.56 65.11 237.14 66.72 237.14 71.87 225.56 70.33 225.56" fill="#fff" fill-rule="evenodd"/><path d="M74.86,223a1.11,1.11,0,1,0-1.14-1.12A1.12,1.12,0,0,0,74.86,223Zm-.79,14.11h1.56V225.56H74.07Z" fill="#fff" fill-rule="evenodd"/><path d="M83.09,237.25c3,0,4.77-1.3,4.77-3.3,0-4.44-7.5-2.09-7.5-5.22,0-1.1.93-1.91,3-1.91a5.87,5.87,0,0,1,3.4,1l.69-1.26a7.85,7.85,0,0,0-4.09-1.07c-2.95,0-4.58,1.4-4.58,3.3,0,4.57,7.5,2.2,7.5,5.21,0,1.14-.9,1.89-3.1,1.89a7,7,0,0,1-4.12-1.3l-.7,1.24A7.76,7.76,0,0,0,83.09,237.25Z" fill="#fff" fill-rule="evenodd"/><path d="M91.54,223a1.11,1.11,0,1,0,0-2.22,1.11,1.11,0,1,0,0,2.22Zm-.8,14.11h1.57V225.56H90.74Z" fill="#fff" fill-rule="evenodd"/><path d="M102.62,225.48a5.07,5.07,0,0,0-4.4,2.28v-6.95H96.66v16.33h1.5v-2.29a5,5,0,0,0,4.46,2.4,5.89,5.89,0,0,0,0-11.77Zm-.11,10.38a4.51,4.51,0,1,1,4.32-4.51A4.24,4.24,0,0,1,102.51,235.86Z" fill="#fff" fill-rule="evenodd"/><rect x="111.58" y="220.81" width="1.56" height="16.32" fill="#fff"/><path d="M127.59,231.35a5.51,5.51,0,0,0-5.61-5.87,5.57,5.57,0,0,0-5.65,5.87,6.11,6.11,0,0,0,10.54,4l-.88-1a4.58,4.58,0,0,1-3.54,1.52,4.29,4.29,0,0,1-4.56-4h9.68c0-.17,0-.35,0-.48ZM122,226.82a4,4,0,0,1,4.12,3.85h-8.21A4,4,0,0,1,122,226.82Z" fill="#fff" fill-rule="evenodd"/><path d="M142.51,225.48a5.05,5.05,0,0,0-4.47,2.37v-2.29h-1.49V241.4h1.56V235a5.07,5.07,0,0,0,4.4,2.29,5.89,5.89,0,0,0,0-11.77Zm-.11,10.38a4.51,4.51,0,1,1,4.31-4.51A4.24,4.24,0,0,1,142.4,235.86Z" fill="#fff" fill-rule="evenodd"/><path d="M155.45,225.48a7.33,7.33,0,0,0-4.71,1.56l.7,1.16a5.94,5.94,0,0,1,3.85-1.36c2.16,0,3.28,1.08,3.28,3.06v.7H154.9c-3.33,0-4.47,1.5-4.47,3.28,0,2,1.61,3.37,4.22,3.37a4.36,4.36,0,0,0,4-1.92v1.81h1.49V230c0-3-1.69-4.48-4.68-4.48ZM154.9,236c-1.85,0-2.93-.83-2.93-2.17,0-1.19.73-2.07,3-2.07h3.63v1.89A3.69,3.69,0,0,1,154.9,236Z" fill="#fff" fill-rule="evenodd"/><path d="M165.87,227.83v-2.27h-1.49v11.58h1.56v-5.9c0-2.73,1.47-4.27,3.89-4.27l.38,0v-1.51C168.07,225.48,166.6,226.29,165.87,227.83Z" fill="#fff" fill-rule="evenodd"/><path d="M177.05,225.48a7.35,7.35,0,0,0-4.71,1.56l.71,1.16a5.9,5.9,0,0,1,3.85-1.36c2.15,0,3.27,1.08,3.27,3.06v.7H176.5c-3.32,0-4.47,1.5-4.47,3.28,0,2,1.61,3.37,4.23,3.37a4.34,4.34,0,0,0,4-1.92v1.81h1.5V230c0-3-1.7-4.48-4.69-4.48ZM176.5,236c-1.85,0-2.93-.83-2.93-2.17,0-1.19.73-2.07,3-2.07h3.63v1.89A3.69,3.69,0,0,1,176.5,236Z" fill="#fff" fill-rule="evenodd"/><rect x="191.75" y="220.81" width="1.56" height="16.32" fill="#fff"/><path d="M202.39,237.25a5.89,5.89,0,1,0-5.89-5.9,5.7,5.7,0,0,0,5.89,5.9Zm0-1.39a4.52,4.52,0,1,1,4.29-4.51A4.24,4.24,0,0,1,202.39,235.86Z" fill="#fff" fill-rule="evenodd"/><path d="M214.56,237.25c3,0,4.77-1.3,4.77-3.3,0-4.44-7.5-2.09-7.5-5.22,0-1.1.93-1.91,3-1.91a5.92,5.92,0,0,1,3.41,1l.68-1.26a7.85,7.85,0,0,0-4.09-1.07c-2.95,0-4.58,1.4-4.58,3.3,0,4.57,7.5,2.2,7.5,5.21,0,1.14-.9,1.89-3.1,1.89a6.94,6.94,0,0,1-4.11-1.3l-.71,1.24A7.78,7.78,0,0,0,214.56,237.25Z" fill="#fff" fill-rule="evenodd"/><path d="M233.94,225.48a5,5,0,0,0-4.46,2.37v-2.29H228V241.4h1.56V235a5.07,5.07,0,0,0,4.4,2.29,5.89,5.89,0,0,0,0-11.77Zm-.11,10.38a4.51,4.51,0,1,1,4.31-4.51A4.24,4.24,0,0,1,233.83,235.86Z" fill="#fff" fill-rule="evenodd"/><path d="M244.39,227.83v-2.27H242.9v11.58h1.56v-5.9c0-2.73,1.47-4.27,3.89-4.27l.38,0v-1.51C246.59,225.48,245.12,226.29,244.39,227.83Z" fill="#fff" fill-rule="evenodd"/><path d="M256.16,237.25a5.89,5.89,0,1,0-5.89-5.9,5.7,5.7,0,0,0,5.89,5.9Zm0-1.39a4.52,4.52,0,1,1,4.29-4.51A4.24,4.24,0,0,1,256.16,235.86Z" fill="#fff" fill-rule="evenodd"/><path d="M269.05,222a2.68,2.68,0,0,1,1.72.57l.53-1.16a3.63,3.63,0,0,0-2.31-.73,3.19,3.19,0,0,0-3.5,3.43v1.43h-2.07v1.32h2.07v10.26h1.56V226.88h3.52v-1.32H267V224.2C267,222.77,267.71,222,269.05,222Z" fill="#fff" fill-rule="evenodd"/><path d="M282.58,231.35a5.51,5.51,0,0,0-5.61-5.87,5.57,5.57,0,0,0-5.65,5.87,6.11,6.11,0,0,0,10.54,4l-.88-1a4.58,4.58,0,0,1-3.54,1.52,4.29,4.29,0,0,1-4.56-4h9.68c0-.17,0-.35,0-.48ZM277,226.82a4,4,0,0,1,4.12,3.85h-8.21A4,4,0,0,1,277,226.82Z" fill="#fff" fill-rule="evenodd"/><path d="M288.88,237.25c3,0,4.77-1.3,4.77-3.3,0-4.44-7.5-2.09-7.5-5.22,0-1.1.92-1.91,3-1.91a5.88,5.88,0,0,1,3.41,1l.68-1.26a7.8,7.8,0,0,0-4.09-1.07c-3,0-4.57,1.4-4.57,3.3,0,4.57,7.5,2.2,7.5,5.21,0,1.14-.9,1.89-3.1,1.89a7,7,0,0,1-4.12-1.3l-.7,1.24A7.74,7.74,0,0,0,288.88,237.25Z" fill="#fff" fill-rule="evenodd"/><path d="M297.32,223a1.11,1.11,0,1,0-1.14-1.12,1.12,1.12,0,0,0,1.14,1.12Zm-.79,14.11h1.56V225.56h-1.56Z" fill="#fff" fill-rule="evenodd"/><path d="M307.18,237.25a5.89,5.89,0,1,0-5.9-5.9,5.69,5.69,0,0,0,5.9,5.9Zm0-1.39a4.52,4.52,0,1,1,4.29-4.51A4.24,4.24,0,0,1,307.18,235.86Z" fill="#fff" fill-rule="evenodd"/><path d="M322.14,225.48a4.86,4.86,0,0,0-4.4,2.22v-2.14h-1.5v11.58h1.57v-6.08c0-2.64,1.56-4.18,4-4.18,2.2,0,3.48,1.26,3.48,3.7v6.56h1.56v-6.71C326.89,227.1,325,225.48,322.14,225.48Z" fill="#fff" fill-rule="evenodd"/><path d="M335.19,225.48a7.33,7.33,0,0,0-4.71,1.56l.7,1.16a5.94,5.94,0,0,1,3.85-1.36c2.16,0,3.28,1.08,3.28,3.06v.7h-3.67c-3.33,0-4.47,1.5-4.47,3.28,0,2,1.61,3.37,4.22,3.37a4.36,4.36,0,0,0,4-1.92v1.81h1.49V230c0-3-1.69-4.48-4.68-4.48ZM334.64,236c-1.85,0-2.93-.83-2.93-2.17,0-1.19.73-2.07,3-2.07h3.63v1.89A3.69,3.69,0,0,1,334.64,236Z" fill="#fff" fill-rule="evenodd"/><rect x="344.12" y="220.81" width="1.56" height="16.32" fill="#fff"/><path d="M360.13,231.35a5.51,5.51,0,0,0-5.61-5.87,5.57,5.57,0,0,0-5.65,5.87,6.11,6.11,0,0,0,10.54,4l-.88-1a4.58,4.58,0,0,1-3.54,1.52,4.29,4.29,0,0,1-4.56-4h9.68c0-.17,0-.35,0-.48Zm-5.61-4.53a4,4,0,0,1,4.12,3.85h-8.21A4,4,0,0,1,354.52,226.82Z" fill="#fff" fill-rule="evenodd"/><path d="M366.43,237.25c3,0,4.77-1.3,4.77-3.3,0-4.44-7.5-2.09-7.5-5.22,0-1.1.92-1.91,3-1.91a5.88,5.88,0,0,1,3.41,1l.68-1.26a7.8,7.8,0,0,0-4.09-1.07c-2.95,0-4.57,1.4-4.57,3.3,0,4.57,7.5,2.2,7.5,5.21,0,1.14-.9,1.89-3.1,1.89a7,7,0,0,1-4.12-1.3l-.7,1.24A7.74,7.74,0,0,0,366.43,237.25Z" fill="#fff" fill-rule="evenodd"/><path d="M374.26,234.85a1.15,1.15,0,0,0-1.17,1.19,1.11,1.11,0,0,0,.79,1.12l-.74,3.19h1.05l.93-3a3.51,3.51,0,0,0,.3-1.27A1.15,1.15,0,0,0,374.26,234.85Z" fill="#fff" fill-rule="evenodd"/><path d="M52.48,267.58A5.12,5.12,0,0,0,57,265.3l-1.17-.8a3.9,3.9,0,0,1-3.36,1.7,4.51,4.51,0,0,1,0-9,3.93,3.93,0,0,1,3.36,1.71L57,258.1a5.06,5.06,0,0,0-4.53-2.29,5.89,5.89,0,1,0,0,11.77Z" fill="#fff" fill-rule="evenodd"/><path d="M64.6,267.58a5.89,5.89,0,1,0-5.9-5.89,5.68,5.68,0,0,0,5.9,5.89Zm0-1.38a4.52,4.52,0,1,1,4.29-4.51A4.24,4.24,0,0,1,64.6,266.2Z" fill="#fff" fill-rule="evenodd"/><path d="M79.56,255.81a4.86,4.86,0,0,0-4.4,2.23V255.9h-1.5v11.57h1.56V261.4c0-2.64,1.57-4.18,4-4.18,2.2,0,3.48,1.26,3.48,3.7v6.55h1.56v-6.71C84.31,257.44,82.37,255.81,79.56,255.81Z" fill="#fff" fill-rule="evenodd"/><path d="M93.33,267.58a5.89,5.89,0,1,0-5.9-5.89,5.68,5.68,0,0,0,5.9,5.89Zm0-1.38a4.52,4.52,0,1,1,4.29-4.51A4.24,4.24,0,0,1,93.33,266.2Z" fill="#fff" fill-rule="evenodd"/><path d="M107.19,267.58a5.1,5.1,0,0,0,4.53-2.28l-1.16-.8a3.93,3.93,0,0,1-3.37,1.7,4.51,4.51,0,0,1,0-9,4,4,0,0,1,3.37,1.71l1.16-.79a5,5,0,0,0-4.53-2.29,5.89,5.89,0,1,0,0,11.77Z" fill="#fff" fill-rule="evenodd"/><path d="M124.68,261.69a5.51,5.51,0,0,0-5.61-5.88,5.57,5.57,0,0,0-5.65,5.88,6.11,6.11,0,0,0,10.53,4l-.88-1a4.56,4.56,0,0,1-3.54,1.52,4.28,4.28,0,0,1-4.55-4h9.68c0-.17,0-.35,0-.48Zm-5.61-4.53a4,4,0,0,1,4.11,3.85H115A4,4,0,0,1,119.07,257.16Z" fill="#fff" fill-rule="evenodd"/><path d="M129.37,258.17V255.9h-1.5v11.57h1.56v-5.89c0-2.73,1.48-4.27,3.9-4.27l.37,0v-1.52C131.57,255.81,130.09,256.63,129.37,258.17Z" fill="#fff" fill-rule="evenodd"/><path d="M144.26,251.39h-2.09l-3,2.73h1.54l3.56-2.73Zm-3.72,4.42a7.38,7.38,0,0,0-4.71,1.57l.71,1.16a5.9,5.9,0,0,1,3.85-1.36c2.15,0,3.28,1.08,3.28,3.06v.7H140c-3.32,0-4.46,1.5-4.46,3.28,0,2,1.6,3.36,4.22,3.36a4.34,4.34,0,0,0,4-1.91v1.8h1.5V260.3c0-3-1.7-4.49-4.69-4.49ZM140,266.35c-1.85,0-2.92-.83-2.92-2.18,0-1.18.72-2.06,3-2.06h3.63V264A3.71,3.71,0,0,1,140,266.35Z" fill="#fff" fill-rule="evenodd"/><path d="M152.58,267.58c3,0,4.77-1.29,4.77-3.3,0-4.44-7.5-2.08-7.5-5.21,0-1.1.92-1.91,3-1.91a5.88,5.88,0,0,1,3.41,1l.68-1.26a7.8,7.8,0,0,0-4.09-1.08c-3,0-4.57,1.41-4.57,3.3,0,4.58,7.5,2.21,7.5,5.22,0,1.14-.9,1.89-3.1,1.89a7,7,0,0,1-4.12-1.3l-.7,1.23A7.67,7.67,0,0,0,152.58,267.58Z" fill="#fff" fill-rule="evenodd"/><path d="M175,251.15v7a5.06,5.06,0,0,0-4.4-2.29,5.89,5.89,0,0,0,0,11.77,5,5,0,0,0,4.47-2.39v2.28h1.5V251.15Zm-4.26,15a4.52,4.52,0,1,1,4.29-4.51A4.24,4.24,0,0,1,170.73,266.2Z" fill="#fff" fill-rule="evenodd"/><path d="M191,261.69a5.51,5.51,0,0,0-5.61-5.88,5.57,5.57,0,0,0-5.65,5.88,6.11,6.11,0,0,0,10.53,4l-.88-1a4.56,4.56,0,0,1-3.54,1.52,4.28,4.28,0,0,1-4.55-4H191c0-.17,0-.35,0-.48Zm-5.61-4.53a4,4,0,0,1,4.11,3.85h-8.2A4,4,0,0,1,185.4,257.16Z" fill="#fff" fill-rule="evenodd"/><path d="M203.79,252.36a2.68,2.68,0,0,1,1.72.57l.53-1.16a3.67,3.67,0,0,0-2.31-.73,3.18,3.18,0,0,0-3.5,3.43v1.43h-2.07v1.32h2.07v10.25h1.56V257.22h3.52V255.9h-3.56v-1.36C201.75,253.11,202.45,252.36,203.79,252.36Z" fill="#fff" fill-rule="evenodd"/><path d="M212,267.58a5.89,5.89,0,1,0-5.89-5.89,5.69,5.69,0,0,0,5.89,5.89Zm0-1.38a4.52,4.52,0,1,1,4.29-4.51A4.24,4.24,0,0,1,212,266.2Z" fill="#fff" fill-rule="evenodd"/><path d="M222.51,258.17V255.9H221v11.57h1.56v-5.89c0-2.73,1.47-4.27,3.89-4.27l.38,0v-1.52C224.71,255.81,223.24,256.63,222.51,258.17Z" fill="#fff" fill-rule="evenodd"/><path d="M244.1,255.81a5,5,0,0,0-4.58,2.45,4.15,4.15,0,0,0-4.11-2.45,4.69,4.69,0,0,0-4.25,2.2V255.9h-1.5v11.57h1.57V261.4c0-2.64,1.51-4.18,3.87-4.18,2.11,0,3.34,1.26,3.34,3.7v6.55H240V261.4c0-2.64,1.5-4.18,3.88-4.18,2.09,0,3.32,1.26,3.32,3.7v6.55h1.56v-6.71C248.76,257.44,246.91,255.81,244.1,255.81Z" fill="#fff" fill-rule="evenodd"/><path d="M257.05,255.81a7.33,7.33,0,0,0-4.7,1.57l.7,1.16a5.92,5.92,0,0,1,3.85-1.36c2.16,0,3.28,1.08,3.28,3.06v.7H256.5c-3.32,0-4.46,1.5-4.46,3.28,0,2,1.6,3.36,4.22,3.36a4.32,4.32,0,0,0,4-1.91v1.8h1.5V260.3c0-3-1.69-4.49-4.69-4.49Zm-.55,10.54c-1.84,0-2.92-.83-2.92-2.18,0-1.18.72-2.06,3-2.06h3.63V264A3.71,3.71,0,0,1,256.5,266.35Z" fill="#fff" fill-rule="evenodd"/><path d="M275.8,255.81a7.36,7.36,0,0,0-4.71,1.57l.7,1.16a5.94,5.94,0,0,1,3.85-1.36c2.16,0,3.28,1.08,3.28,3.06v.7h-3.67c-3.33,0-4.47,1.5-4.47,3.28,0,2,1.61,3.36,4.23,3.36a4.35,4.35,0,0,0,4-1.91v1.8h1.49V260.3c0-3-1.69-4.49-4.68-4.49Zm-.55,10.54c-1.85,0-2.93-.83-2.93-2.18,0-1.18.73-2.06,3-2.06h3.63V264A3.69,3.69,0,0,1,275.25,266.35Z" fill="#fff" fill-rule="evenodd"/><path d="M290.62,255.81a4.87,4.87,0,0,0-4.4,2.23V255.9h-1.49v11.57h1.56V261.4c0-2.64,1.56-4.18,4-4.18,2.2,0,3.47,1.26,3.47,3.7v6.55h1.57v-6.71C295.38,257.44,293.44,255.81,290.62,255.81Z" fill="#fff" fill-rule="evenodd"/><path d="M305.17,265.65a2.62,2.62,0,0,1-1.72.59,1.85,1.85,0,0,1-2-2.11v-6.91H305V255.9h-3.52v-2.53h-1.56v2.53h-2.07v1.32h2.07v7a3.06,3.06,0,0,0,3.39,3.36,3.72,3.72,0,0,0,2.44-.81Z" fill="#fff" fill-rule="evenodd"/><path d="M309.35,253.37a1.11,1.11,0,1,0,0-2.22,1.11,1.11,0,1,0,0,2.22Zm-.8,14.1h1.57V255.9h-1.57Z" fill="#fff" fill-rule="evenodd"/><path d="M319.27,267.58a5.1,5.1,0,0,0,4.53-2.28l-1.17-.8a3.9,3.9,0,0,1-3.36,1.7,4.51,4.51,0,0,1,0-9,3.93,3.93,0,0,1,3.36,1.71l1.17-.79a5,5,0,0,0-4.53-2.29,5.89,5.89,0,1,0,0,11.77Z" fill="#fff" fill-rule="evenodd"/><path d="M327.65,253.37a1.11,1.11,0,0,0,1.14-1.14,1.1,1.1,0,0,0-1.14-1.08,1.11,1.11,0,1,0,0,2.22Zm-.79,14.1h1.56V255.9h-1.56Z" fill="#fff" fill-rule="evenodd"/><path d="M338.74,255.81a5,5,0,0,0-4.47,2.38V255.9h-1.49v15.84h1.56V265.3a5.06,5.06,0,0,0,4.4,2.28,5.89,5.89,0,0,0,0-11.77Zm-.11,10.39a4.51,4.51,0,1,1,4.31-4.51A4.24,4.24,0,0,1,338.63,266.2Z" fill="#fff" fill-rule="evenodd"/><path d="M351.67,255.81a7.33,7.33,0,0,0-4.7,1.57l.7,1.16a5.92,5.92,0,0,1,3.85-1.36c2.16,0,3.28,1.08,3.28,3.06v.7h-3.68c-3.32,0-4.46,1.5-4.46,3.28,0,2,1.6,3.36,4.22,3.36a4.32,4.32,0,0,0,4-1.91v1.8h1.5V260.3c0-3-1.69-4.49-4.69-4.49Zm-.55,10.54c-1.84,0-2.92-.83-2.92-2.18,0-1.18.72-2.06,3-2.06h3.63V264A3.71,3.71,0,0,1,351.12,266.35Z" fill="#fff" fill-rule="evenodd"/><path d="M369.65,251.15v7a5.07,5.07,0,0,0-4.4-2.29,5.89,5.89,0,0,0,0,11.77,5,5,0,0,0,4.46-2.39v2.28h1.5V251.15Zm-4.27,15a4.52,4.52,0,1,1,4.29-4.51A4.24,4.24,0,0,1,365.38,266.2Z" fill="#fff" fill-rule="evenodd"/><path d="M379.61,255.81a7.33,7.33,0,0,0-4.7,1.57l.7,1.16a5.92,5.92,0,0,1,3.85-1.36c2.16,0,3.28,1.08,3.28,3.06v.7h-3.68c-3.32,0-4.46,1.5-4.46,3.28,0,2,1.6,3.36,4.22,3.36a4.32,4.32,0,0,0,4-1.91v1.8h1.5V260.3c0-3-1.69-4.49-4.69-4.49Zm-.55,10.54c-1.84,0-2.92-.83-2.92-2.18,0-1.18.72-2.06,3-2.06h3.63V264A3.71,3.71,0,0,1,379.06,266.35Z" fill="#fff" fill-rule="evenodd"/><path d="M388.72,265.19a1.14,1.14,0,0,0-1.16,1.18,1.12,1.12,0,0,0,.79,1.13l-.75,3.19h1.06l.92-3a3.61,3.61,0,0,0,.31-1.28A1.15,1.15,0,0,0,388.72,265.19Z" fill="#fff" fill-rule="evenodd"/><path d="M71.46,286.24v2.29A5,5,0,0,0,67,286.15a5.89,5.89,0,0,0,0,11.77,5.06,5.06,0,0,0,4.4-2.29v6.45H73V286.24Zm-4.33,10.3A4.52,4.52,0,1,1,71.42,292,4.24,4.24,0,0,1,67.13,296.54Z" fill="#fff" fill-rule="evenodd"/><path d="M86.18,286.24v6.07c0,2.64-1.52,4.2-3.94,4.2-2.2,0-3.47-1.25-3.47-3.71v-6.56H77.2V293c0,3.32,1.94,5,4.89,5a4.61,4.61,0,0,0,4.16-2.22v2.11h1.49V286.24Z" fill="#fff" fill-rule="evenodd"/><path d="M100.28,281.73H98.19l-3,2.73h1.54l3.56-2.73Zm1.94,10.3a5.52,5.52,0,0,0-5.61-5.88A5.58,5.58,0,0,0,91,292a6.12,6.12,0,0,0,10.54,4l-.88-1a4.56,4.56,0,0,1-3.54,1.52,4.28,4.28,0,0,1-4.55-4h9.68c0-.18,0-.35,0-.48Zm-5.61-4.54a4,4,0,0,1,4.11,3.85h-8.2A4,4,0,0,1,96.61,287.49Z" fill="#fff" fill-rule="evenodd"/><path d="M117.07,286.15a4.9,4.9,0,0,0-4.34,2.11v-6.77h-1.56v16.32h1.56v-6.07c0-2.64,1.57-4.18,4-4.18,2.2,0,3.48,1.25,3.48,3.7v6.55h1.56V291.1C121.82,287.78,119.88,286.15,117.07,286.15Z" fill="#fff" fill-rule="evenodd"/><path d="M130.84,297.92a5.89,5.89,0,1,0-5.9-5.89,5.68,5.68,0,0,0,5.9,5.89Zm0-1.38a4.52,4.52,0,1,1,4.29-4.51A4.24,4.24,0,0,1,130.84,296.54Z" fill="#fff" fill-rule="evenodd"/><path d="M145.8,286.15a4.89,4.89,0,0,0-4.4,2.22v-2.13h-1.5v11.57h1.57v-6.07c0-2.64,1.56-4.18,4-4.18,2.2,0,3.48,1.25,3.48,3.7v6.55h1.56V291.1C150.55,287.78,148.62,286.15,145.8,286.15Z" fill="#fff" fill-rule="evenodd"/><path d="M159.57,297.92a5.89,5.89,0,1,0-5.89-5.89,5.69,5.69,0,0,0,5.89,5.89Zm0-1.38a4.52,4.52,0,1,1,4.29-4.51A4.24,4.24,0,0,1,159.57,296.54Z" fill="#fff" fill-rule="evenodd"/><path d="M170.13,288.51v-2.27h-1.49v11.57h1.56v-5.89c0-2.73,1.47-4.27,3.89-4.27l.38,0v-1.52C172.33,286.15,170.86,287,170.13,288.51Z" fill="#fff" fill-rule="evenodd"/><path d="M181.31,286.15a7.35,7.35,0,0,0-4.71,1.56l.7,1.17a5.89,5.89,0,0,1,3.85-1.36c2.16,0,3.28,1.07,3.28,3.05v.71h-3.67c-3.32,0-4.47,1.49-4.47,3.28,0,2,1.61,3.36,4.23,3.36a4.35,4.35,0,0,0,4-1.91v1.8H186v-7.17c0-3-1.69-4.49-4.68-4.49Zm-.55,10.54c-1.85,0-2.93-.84-2.93-2.18,0-1.19.73-2.07,3-2.07h3.63v1.9A3.7,3.7,0,0,1,180.76,296.69Z" fill="#fff" fill-rule="evenodd"/><path d="M191.74,288.51v-2.27h-1.5v11.57h1.56v-5.89c0-2.73,1.48-4.27,3.9-4.27l.37,0v-1.52C193.94,286.15,192.46,287,191.74,288.51Z" fill="#fff" fill-rule="evenodd"/><path d="M199.68,283.71a1.12,1.12,0,0,0,1.14-1.14,1.1,1.1,0,0,0-1.14-1.08,1.11,1.11,0,1,0,0,2.22Zm-.79,14.1h1.56V286.24h-1.56Z" fill="#fff" fill-rule="evenodd"/><path d="M209.53,297.92a5.89,5.89,0,1,0-5.89-5.89,5.69,5.69,0,0,0,5.89,5.89Zm0-1.38a4.52,4.52,0,1,1,4.29-4.51A4.24,4.24,0,0,1,209.53,296.54Z" fill="#fff" fill-rule="evenodd"/><path d="M221.7,297.92c3,0,4.77-1.3,4.77-3.3,0-4.44-7.5-2.08-7.5-5.21,0-1.1.93-1.92,3-1.92a6,6,0,0,1,3.41,1l.68-1.25a7.86,7.86,0,0,0-4.09-1.08c-3,0-4.58,1.41-4.58,3.3,0,4.58,7.5,2.21,7.5,5.22,0,1.14-.9,1.89-3.1,1.89a6.94,6.94,0,0,1-4.11-1.3l-.71,1.23A7.72,7.72,0,0,0,221.7,297.92Z" fill="#fff" fill-rule="evenodd"/><polygon points="243.3 286.24 238.93 296.1 234.59 286.24 232.96 286.24 238.09 297.81 239.69 297.81 244.84 286.24 243.3 286.24" fill="#fff" fill-rule="evenodd"/><path d="M250.74,286.15a7.35,7.35,0,0,0-4.71,1.56l.71,1.17a5.85,5.85,0,0,1,3.85-1.36c2.15,0,3.27,1.07,3.27,3.05v.71h-3.67c-3.32,0-4.47,1.49-4.47,3.28,0,2,1.61,3.36,4.23,3.36a4.34,4.34,0,0,0,4-1.91v1.8h1.5v-7.17c0-3-1.7-4.49-4.69-4.49Zm-.55,10.54c-1.85,0-2.93-.84-2.93-2.18,0-1.19.73-2.07,3-2.07h3.63v1.9A3.7,3.7,0,0,1,250.19,296.69Z" fill="#fff" fill-rule="evenodd"/><path d="M265.57,286.15a4.87,4.87,0,0,0-4.4,2.22v-2.13h-1.5v11.57h1.56v-6.07c0-2.64,1.56-4.18,4-4.18,2.2,0,3.48,1.25,3.48,3.7v6.55h1.56V291.1C270.32,287.78,268.38,286.15,265.57,286.15Z" fill="#fff" fill-rule="evenodd"/><rect x="280.33" y="281.49" width="1.56" height="16.32" fill="#fff"/><path d="M287,283.71a1.12,1.12,0,0,0,1.14-1.14,1.1,1.1,0,0,0-1.14-1.08,1.11,1.11,0,1,0,0,2.22Zm-.79,14.1h1.56V286.24h-1.56Z" fill="#fff" fill-rule="evenodd"/><path d="M301.38,286.24v2.22a5.22,5.22,0,0,0-4.57-2.31,5.61,5.61,0,1,0,0,11.22,5.22,5.22,0,0,0,4.51-2.24v1.47c0,2.86-1.35,4.2-4.27,4.2a6.91,6.91,0,0,1-4.56-1.58l-.79,1.19a8.09,8.09,0,0,0,5.39,1.78c3.83,0,5.79-1.8,5.79-5.79V286.24ZM297,296a4.24,4.24,0,1,1,4.4-4.25A4.14,4.14,0,0,1,297,296Z" fill="#fff" fill-rule="evenodd"/><path d="M311.3,286.15a7.32,7.32,0,0,0-4.7,1.56l.7,1.17a5.87,5.87,0,0,1,3.85-1.36c2.16,0,3.28,1.07,3.28,3.05v.71h-3.68c-3.32,0-4.46,1.49-4.46,3.28,0,2,1.6,3.36,4.22,3.36a4.32,4.32,0,0,0,4-1.91v1.8H316v-7.17c0-3-1.69-4.49-4.69-4.49Zm-.55,10.54c-1.84,0-2.92-.84-2.92-2.18,0-1.19.72-2.07,3-2.07h3.63v1.9A3.72,3.72,0,0,1,310.75,296.69Z" fill="#fff" fill-rule="evenodd"/><path d="M329.28,281.49v6.95a5,5,0,0,0-4.4-2.29,5.89,5.89,0,0,0,0,11.77,5,5,0,0,0,4.46-2.4v2.29h1.5V281.49ZM325,296.54A4.52,4.52,0,1,1,329.3,292,4.24,4.24,0,0,1,325,296.54Z" fill="#fff" fill-rule="evenodd"/><path d="M339.93,297.92A5.89,5.89,0,1,0,334,292a5.69,5.69,0,0,0,5.9,5.89Zm0-1.38a4.52,4.52,0,1,1,4.29-4.51A4.24,4.24,0,0,1,339.93,296.54Z" fill="#fff" fill-rule="evenodd"/><path d="M352.09,297.92c3,0,4.78-1.3,4.78-3.3,0-4.44-7.51-2.08-7.51-5.21,0-1.1.93-1.92,3-1.92a6,6,0,0,1,3.41,1l.68-1.25a7.86,7.86,0,0,0-4.09-1.08c-2.95,0-4.58,1.41-4.58,3.3,0,4.58,7.5,2.21,7.5,5.22,0,1.14-.9,1.89-3.1,1.89a6.94,6.94,0,0,1-4.11-1.3l-.71,1.23A7.72,7.72,0,0,0,352.09,297.92Z" fill="#fff" fill-rule="evenodd"/><path d="M369.56,286.15a7.35,7.35,0,0,0-4.71,1.56l.71,1.17a5.85,5.85,0,0,1,3.85-1.36c2.15,0,3.27,1.07,3.27,3.05v.71H369c-3.32,0-4.47,1.49-4.47,3.28,0,2,1.61,3.36,4.23,3.36a4.34,4.34,0,0,0,4-1.91v1.8h1.5v-7.17c0-3-1.7-4.49-4.69-4.49ZM369,296.69c-1.85,0-2.93-.84-2.93-2.18,0-1.19.73-2.07,3-2.07h3.63v1.9A3.7,3.7,0,0,1,369,296.69Z" fill="#fff" fill-rule="evenodd"/><path d="M66.86,328.26A5.11,5.11,0,0,0,71.4,326l-1.17-.79a3.9,3.9,0,0,1-3.37,1.69,4.51,4.51,0,0,1,0-9,3.92,3.92,0,0,1,3.37,1.72l1.17-.79a5.07,5.07,0,0,0-4.54-2.29,5.89,5.89,0,1,0,0,11.77Z" fill="#fff" fill-rule="evenodd"/><path d="M78.5,316.49a7.37,7.37,0,0,0-4.71,1.56l.71,1.17a5.86,5.86,0,0,1,3.85-1.37c2.15,0,3.28,1.08,3.28,3.06v.71H78c-3.32,0-4.46,1.49-4.46,3.27,0,2,1.6,3.37,4.22,3.37a4.36,4.36,0,0,0,4-1.91v1.8h1.5V321c0-3-1.7-4.49-4.69-4.49ZM78,327c-1.85,0-2.92-.84-2.92-2.18s.72-2.07,3-2.07h3.63v1.89A3.72,3.72,0,0,1,78,327Z" fill="#fff" fill-rule="evenodd"/><path d="M96.48,311.83v6.95a5.06,5.06,0,0,0-4.4-2.29,5.89,5.89,0,0,0,0,11.77,5,5,0,0,0,4.46-2.4v2.29H98V311.83Zm-4.27,15a4.52,4.52,0,1,1,4.29-4.51A4.23,4.23,0,0,1,92.21,326.87Z" fill="#fff" fill-rule="evenodd"/><path d="M106.44,316.49a7.37,7.37,0,0,0-4.71,1.56l.71,1.17a5.86,5.86,0,0,1,3.85-1.37c2.15,0,3.28,1.08,3.28,3.06v.71h-3.68c-3.32,0-4.46,1.49-4.46,3.27,0,2,1.6,3.37,4.22,3.37a4.36,4.36,0,0,0,4-1.91v1.8h1.5V321c0-3-1.7-4.49-4.69-4.49ZM105.89,327c-1.85,0-2.92-.84-2.92-2.18s.72-2.07,3-2.07h3.63v1.89A3.72,3.72,0,0,1,105.89,327Z" fill="#fff" fill-rule="evenodd"/><polygon points="129.32 316.58 124.94 326.43 120.61 316.58 118.98 316.58 124.11 328.15 125.71 328.15 130.86 316.58 129.32 316.58" fill="#fff" fill-rule="evenodd"/><path d="M133.85,314.05A1.13,1.13,0,0,0,135,312.9a1.11,1.11,0,0,0-1.15-1.07,1.11,1.11,0,1,0,0,2.22Zm-.79,14.1h1.56V316.58h-1.56Z" fill="#fff" fill-rule="evenodd"/><polygon points="147.16 316.58 142.78 326.43 138.45 316.58 136.82 316.58 141.95 328.15 143.56 328.15 148.7 316.58 147.16 316.58" fill="#fff" fill-rule="evenodd"/><path d="M151.69,314.05a1.13,1.13,0,0,0,1.15-1.15,1.11,1.11,0,0,0-1.15-1.07,1.11,1.11,0,1,0,0,2.22Zm-.79,14.1h1.57V316.58H150.9Z" fill="#fff" fill-rule="evenodd"/><path d="M166.92,322.36a5.51,5.51,0,0,0-5.61-5.87,5.57,5.57,0,0,0-5.66,5.87,6.12,6.12,0,0,0,10.54,4l-.88-1a4.55,4.55,0,0,1-3.54,1.51,4.27,4.27,0,0,1-4.55-4h9.68c0-.18,0-.35,0-.49Zm-5.61-4.53a4,4,0,0,1,4.11,3.85h-8.2A4,4,0,0,1,161.31,317.83Z" fill="#fff" fill-rule="evenodd"/><path d="M176,316.49a4.86,4.86,0,0,0-4.4,2.22v-2.13h-1.49v11.57h1.56v-6.07c0-2.64,1.56-4.18,4.05-4.18,2.2,0,3.47,1.25,3.47,3.69v6.56h1.57v-6.71C180.76,318.12,178.82,316.49,176,316.49Z" fill="#fff" fill-rule="evenodd"/><path d="M194,311.83v6.95a5,5,0,0,0-4.4-2.29,5.89,5.89,0,0,0,0,11.77,5,5,0,0,0,4.47-2.4v2.29h1.5V311.83Zm-4.26,15a4.52,4.52,0,1,1,4.29-4.51A4.24,4.24,0,0,1,189.78,326.87Z" fill="#fff" fill-rule="evenodd"/><path d="M204,316.49a7.35,7.35,0,0,0-4.71,1.56l.71,1.17a5.86,5.86,0,0,1,3.85-1.37c2.15,0,3.27,1.08,3.27,3.06v.71h-3.67c-3.32,0-4.47,1.49-4.47,3.27,0,2,1.61,3.37,4.23,3.37a4.36,4.36,0,0,0,4-1.91v1.8h1.5V321c0-3-1.7-4.49-4.69-4.49ZM203.46,327c-1.85,0-2.93-.84-2.93-2.18s.73-2.07,3-2.07h3.63v1.89A3.69,3.69,0,0,1,203.46,327Z" fill="#fff" fill-rule="evenodd"/><path d="M213.1,328.26a1.2,1.2,0,0,0,1.18-1.21,1.18,1.18,0,0,0-1.18-1.19,1.17,1.17,0,0,0-1.17,1.19A1.19,1.19,0,0,0,213.1,328.26Z" fill="#fff" fill-rule="evenodd"/><polygon points="226.69 328.15 228.32 328.15 228.32 314.16 233.73 314.16 233.73 312.75 221.28 312.75 221.28 314.16 226.69 314.16 226.69 328.15" fill="#fff" fill-rule="evenodd"/><path d="M237.19,318.84v-2.26h-1.5v11.57h1.56v-5.9c0-2.72,1.48-4.26,3.9-4.26l.37,0v-1.52C239.39,316.49,237.91,317.3,237.19,318.84Z" fill="#fff" fill-rule="evenodd"/><path d="M248.36,316.49a7.37,7.37,0,0,0-4.71,1.56l.71,1.17a5.86,5.86,0,0,1,3.85-1.37c2.15,0,3.28,1.08,3.28,3.06v.71h-3.68c-3.32,0-4.46,1.49-4.46,3.27,0,2,1.6,3.37,4.22,3.37a4.36,4.36,0,0,0,4-1.91v1.8h1.5V321c0-3-1.7-4.49-4.69-4.49ZM247.81,327c-1.85,0-2.92-.84-2.92-2.18s.72-2.07,3-2.07h3.63v1.89A3.72,3.72,0,0,1,247.81,327Z" fill="#fff" fill-rule="evenodd"/><path d="M263.19,316.49a4.86,4.86,0,0,0-4.4,2.22v-2.13h-1.5v11.57h1.57v-6.07c0-2.64,1.56-4.18,4-4.18,2.2,0,3.48,1.25,3.48,3.69v6.56h1.56v-6.71C267.94,318.12,266,316.49,263.19,316.49Z" fill="#fff" fill-rule="evenodd"/><path d="M275.29,328.26c3,0,4.77-1.3,4.77-3.3,0-4.44-7.5-2.09-7.5-5.21,0-1.1.93-1.92,3-1.92a6,6,0,0,1,3.41,1l.68-1.25a7.86,7.86,0,0,0-4.09-1.08c-2.95,0-4.58,1.41-4.58,3.3,0,4.58,7.5,2.2,7.5,5.21,0,1.15-.9,1.9-3.1,1.9a7,7,0,0,1-4.11-1.3l-.71,1.23A7.78,7.78,0,0,0,275.29,328.26Z" fill="#fff" fill-rule="evenodd"/><path d="M288.91,316.49a5,5,0,0,0-4.47,2.38v-2.29H283v15.84h1.56V326a5,5,0,0,0,4.4,2.29,5.89,5.89,0,0,0,0-11.77Zm-.11,10.38a4.51,4.51,0,1,1,4.31-4.51A4.23,4.23,0,0,1,288.8,326.87Z" fill="#fff" fill-rule="evenodd"/><path d="M301.84,316.49a7.32,7.32,0,0,0-4.7,1.56l.7,1.17a5.88,5.88,0,0,1,3.85-1.37c2.16,0,3.28,1.08,3.28,3.06v.71h-3.68c-3.32,0-4.46,1.49-4.46,3.27,0,2,1.6,3.37,4.22,3.37a4.34,4.34,0,0,0,4-1.91v1.8h1.5V321c0-3-1.69-4.49-4.69-4.49ZM301.29,327c-1.84,0-2.92-.84-2.92-2.18s.72-2.07,3-2.07H305v1.89A3.72,3.72,0,0,1,301.29,327Z" fill="#fff" fill-rule="evenodd"/><path d="M312.27,318.84v-2.26h-1.49v11.57h1.56v-5.9c0-2.72,1.47-4.26,3.89-4.26l.38,0v-1.52C314.47,316.49,313,317.3,312.27,318.84Z" fill="#fff" fill-rule="evenodd"/><path d="M329.41,322.36a5.63,5.63,0,1,0-11.26,0,6.11,6.11,0,0,0,10.53,4l-.88-1a4.55,4.55,0,0,1-3.54,1.51,4.27,4.27,0,0,1-4.55-4h9.68c0-.18,0-.35,0-.49Zm-5.61-4.53a4,4,0,0,1,4.11,3.85h-8.2A4,4,0,0,1,323.8,317.83Z" fill="#fff" fill-rule="evenodd"/><path d="M338.5,316.49a4.84,4.84,0,0,0-4.4,2.22v-2.13h-1.5v11.57h1.56v-6.07c0-2.64,1.56-4.18,4-4.18,2.2,0,3.48,1.25,3.48,3.69v6.56h1.56v-6.71C343.25,318.12,341.31,316.49,338.5,316.49Z" fill="#fff" fill-rule="evenodd"/><path d="M352.33,328.26a5.11,5.11,0,0,0,4.54-2.29l-1.17-.79a3.9,3.9,0,0,1-3.37,1.69,4.51,4.51,0,0,1,0-9,3.92,3.92,0,0,1,3.37,1.72l1.17-.79a5.07,5.07,0,0,0-4.54-2.29,5.89,5.89,0,1,0,0,11.77Z" fill="#fff" fill-rule="evenodd"/><path d="M360.72,314.05a1.12,1.12,0,0,0,1.14-1.15,1.11,1.11,0,0,0-1.14-1.07,1.11,1.11,0,1,0,0,2.22Zm-.8,14.1h1.57V316.58h-1.57Z" fill="#fff" fill-rule="evenodd"/><path d="M369.89,316.49a7.35,7.35,0,0,0-4.71,1.56l.71,1.17a5.86,5.86,0,0,1,3.85-1.37c2.15,0,3.27,1.08,3.27,3.06v.71h-3.67c-3.32,0-4.47,1.49-4.47,3.27,0,2,1.61,3.37,4.23,3.37a4.36,4.36,0,0,0,4-1.91v1.8h1.5V321c0-3-1.7-4.49-4.69-4.49ZM369.34,327c-1.85,0-2.93-.84-2.93-2.18s.73-2.07,3-2.07H373v1.89A3.69,3.69,0,0,1,369.34,327Z" fill="#fff" fill-rule="evenodd"/><path d="M126.89,352.7a5.63,5.63,0,1,0-11.26,0,6.11,6.11,0,0,0,10.53,4l-.88-1a4.53,4.53,0,0,1-3.54,1.52,4.27,4.27,0,0,1-4.55-4h9.68c0-.18,0-.36,0-.49Zm-5.61-4.53a4,4,0,0,1,4.11,3.85h-8.2A4,4,0,0,1,121.28,348.17Z" fill="#fff" fill-rule="evenodd"/><path d="M136,346.83a4.84,4.84,0,0,0-4.4,2.22v-2.13h-1.5v11.57h1.56v-6.07c0-2.64,1.56-4.18,4.05-4.18,2.2,0,3.48,1.25,3.48,3.69v6.56h1.56v-6.71C140.73,348.46,138.79,346.83,136,346.83Z" fill="#fff" fill-rule="evenodd"/><path d="M156.28,356.66a2.57,2.57,0,0,1-1.71.6,1.86,1.86,0,0,1-2-2.12v-6.9h3.52v-1.32h-3.52v-2.53H151v2.53h-2.07v1.32H151v7a3.07,3.07,0,0,0,3.39,3.37,3.71,3.71,0,0,0,2.44-.82Z" fill="#fff" fill-rule="evenodd"/><path d="M164,358.6a5.89,5.89,0,1,0-5.89-5.9,5.7,5.7,0,0,0,5.89,5.9Zm0-1.39a4.52,4.52,0,1,1,4.29-4.51A4.24,4.24,0,0,1,164,357.21Z" fill="#fff" fill-rule="evenodd"/><path d="M182,342.16v7a5,5,0,0,0-4.4-2.29,5.89,5.89,0,0,0,0,11.77,5,5,0,0,0,4.47-2.4v2.29h1.5V342.16Zm-4.26,15a4.52,4.52,0,1,1,4.29-4.51A4.24,4.24,0,0,1,177.78,357.21Z" fill="#fff" fill-rule="evenodd"/><path d="M192.69,358.6a5.89,5.89,0,1,0-5.89-5.9,5.7,5.7,0,0,0,5.89,5.9Zm0-1.39A4.52,4.52,0,1,1,197,352.7,4.24,4.24,0,0,1,192.69,357.21Z" fill="#fff" fill-rule="evenodd"/><path d="M217.62,352.7a5.52,5.52,0,0,0-5.61-5.87,5.57,5.57,0,0,0-5.66,5.87,6.12,6.12,0,0,0,10.54,4l-.88-1a4.53,4.53,0,0,1-3.54,1.52,4.27,4.27,0,0,1-4.55-4h9.68c0-.18,0-.36,0-.49ZM212,348.17a4,4,0,0,1,4.11,3.85h-8.2A4,4,0,0,1,212,348.17Z" fill="#fff" fill-rule="evenodd"/><rect x="220.81" y="342.16" width="1.56" height="16.32" fill="#fff"/><path d="M238.45,346.83A5,5,0,0,0,234,349.2v-2.28h-1.5v15.84h1.56v-6.45a5,5,0,0,0,4.4,2.29,5.89,5.89,0,0,0,0-11.77Zm-.11,10.38a4.51,4.51,0,1,1,4.31-4.51A4.24,4.24,0,0,1,238.34,357.21Z" fill="#fff" fill-rule="evenodd"/><path d="M248.9,349.18v-2.26h-1.49v11.57H249v-5.9c0-2.73,1.47-4.27,3.89-4.27.11,0,.24,0,.38,0v-1.52C251.1,346.83,249.63,347.64,248.9,349.18Z" fill="#fff" fill-rule="evenodd"/><path d="M260.67,358.6a5.89,5.89,0,1,0-5.89-5.9,5.7,5.7,0,0,0,5.89,5.9Zm0-1.39A4.52,4.52,0,1,1,265,352.7,4.24,4.24,0,0,1,260.67,357.21Z" fill="#fff" fill-rule="evenodd"/><path d="M274.53,358.6a5.08,5.08,0,0,0,4.53-2.29l-1.16-.79a3.93,3.93,0,0,1-3.37,1.69,4.51,4.51,0,0,1,0-9,3.93,3.93,0,0,1,3.37,1.72l1.16-.79a5,5,0,0,0-4.53-2.29,5.89,5.89,0,1,0,0,11.77Z" fill="#fff" fill-rule="evenodd"/><path d="M292,352.7a5.51,5.51,0,0,0-5.61-5.87,5.57,5.57,0,0,0-5.65,5.87,6.12,6.12,0,0,0,10.54,4l-.88-1a4.55,4.55,0,0,1-3.55,1.52,4.28,4.28,0,0,1-4.55-4H292c0-.18,0-.36,0-.49Zm-5.61-4.53a4,4,0,0,1,4.12,3.85h-8.21A4,4,0,0,1,286.41,348.17Z" fill="#fff" fill-rule="evenodd"/><path d="M298.31,358.6c3,0,4.78-1.3,4.78-3.3,0-4.44-7.5-2.09-7.5-5.22,0-1.1.92-1.91,3-1.91a6,6,0,0,1,3.41,1l.68-1.25a7.83,7.83,0,0,0-4.09-1.08c-3,0-4.58,1.41-4.58,3.3,0,4.57,7.51,2.2,7.51,5.21,0,1.15-.91,1.89-3.11,1.89a7,7,0,0,1-4.11-1.29l-.7,1.23A7.73,7.73,0,0,0,298.31,358.6Z" fill="#fff" fill-rule="evenodd"/><path d="M310.7,358.6a5.89,5.89,0,1,0-5.9-5.9,5.69,5.69,0,0,0,5.9,5.9Zm0-1.39A4.52,4.52,0,1,1,315,352.7,4.24,4.24,0,0,1,310.7,357.21Z" fill="#fff" fill-rule="evenodd"/><path d="M319.59,358.6a1.2,1.2,0,0,0,1.19-1.21,1.19,1.19,0,0,0-1.19-1.19,1.17,1.17,0,0,0-1.17,1.19A1.19,1.19,0,0,0,319.59,358.6Z" fill="#fff" fill-rule="evenodd"/></svg>