<svg id="Capa_1" data-name="Capa 1" xmlns="http://www.w3.org/2000/svg" xmlns:xlink="http://www.w3.org/1999/xlink" width="154mm" height="154mm" viewBox="0 0 436.54 436.54"><defs><linearGradient id="GradientFill_1" x1="228.18" y1="203.67" x2="-40.12" y2="598.69" gradientTransform="translate(218.27 -90.41) rotate(45)" gradientUnits="userSpaceOnUse"><stop offset="0" stop-color="#292123"/><stop offset="0.48" stop-color="#3b3338"/><stop offset="1" stop-color="#1a1413"/></linearGradient></defs><title>QUESITO NEGRO CIRCULO 4</title><circle cx="218.27" cy="218.27" r="218.04" transform="translate(-90.41 218.27) rotate(-45)" fill="url(#GradientFill_1)"/><polygon points="167.02 60.81 160.4 72.22 153.71 60.81 152.37 60.81 152.37 76.21 153.93 76.21 153.93 63.95 159.98 74.25 160.75 74.25 166.8 63.89 166.8 76.21 168.36 76.21 168.36 60.81 167.02 60.81" fill="#fff" fill-rule="evenodd"/><path d="M177.09,64.55a7.32,7.32,0,0,0-4.7,1.56l.7,1.16a5.92,5.92,0,0,1,3.85-1.36c2.16,0,3.28,1.08,3.28,3.06v.7h-3.68c-3.32,0-4.46,1.5-4.46,3.28,0,2,1.6,3.37,4.22,3.37a4.33,4.33,0,0,0,4-1.92v1.81h1.5V69c0-3-1.69-4.48-4.69-4.48Zm-.55,10.53c-1.84,0-2.92-.83-2.92-2.17,0-1.19.72-2.07,3-2.07h3.63v1.89A3.71,3.71,0,0,1,176.54,75.08Z" fill="#fff" fill-rule="evenodd"/><path d="M187.52,66.9V64.63H186V76.21h1.56v-5.9c0-2.73,1.47-4.27,3.89-4.27l.38,0V64.55C189.72,64.55,188.25,65.36,187.52,66.9Z" fill="#fff" fill-rule="evenodd"/><path d="M199.36,76.32A5.11,5.11,0,0,0,203.89,74l-1.17-.79a3.91,3.91,0,0,1-3.36,1.69,4.51,4.51,0,0,1,0-9,3.92,3.92,0,0,1,3.36,1.72l1.17-.8a5.05,5.05,0,0,0-4.53-2.28,5.89,5.89,0,1,0,0,11.77Z" fill="#fff" fill-rule="evenodd"/><path d="M211,64.55a7.33,7.33,0,0,0-4.71,1.56l.7,1.16a5.94,5.94,0,0,1,3.85-1.36c2.16,0,3.28,1.08,3.28,3.06v.7h-3.67c-3.33,0-4.47,1.5-4.47,3.28,0,2,1.61,3.37,4.22,3.37a4.36,4.36,0,0,0,4-1.92v1.81h1.49V69c0-3-1.69-4.48-4.68-4.48Zm-.55,10.53c-1.85,0-2.93-.83-2.93-2.17,0-1.19.73-2.07,3-2.07h3.63v1.89A3.69,3.69,0,0,1,210.45,75.08Z" fill="#fff" fill-rule="evenodd"/><path d="M230.49,76.32A5.11,5.11,0,0,0,235,74l-1.17-.79a3.91,3.91,0,0,1-3.36,1.69,4.51,4.51,0,0,1,0-9,3.92,3.92,0,0,1,3.36,1.72l1.17-.8a5.05,5.05,0,0,0-4.53-2.28,5.89,5.89,0,1,0,0,11.77Z" fill="#fff" fill-rule="evenodd"/><path d="M242.61,76.32a5.89,5.89,0,1,0-5.9-5.9,5.69,5.69,0,0,0,5.9,5.9Zm0-1.39a4.52,4.52,0,1,1,4.29-4.51A4.24,4.24,0,0,1,242.61,74.93Z" fill="#fff" fill-rule="evenodd"/><path d="M266.11,64.55A5,5,0,0,0,261.53,67a4.15,4.15,0,0,0-4.11-2.44,4.67,4.67,0,0,0-4.25,2.2V64.63h-1.5V76.21h1.57V70.13c0-2.64,1.51-4.18,3.87-4.18,2.11,0,3.34,1.26,3.34,3.7v6.56H262V70.13c0-2.64,1.5-4.18,3.88-4.18,2.09,0,3.32,1.26,3.32,3.7v6.56h1.56V69.5C270.77,66.17,268.92,64.55,266.11,64.55Z" fill="#fff" fill-rule="evenodd"/><path d="M279.79,76.32a5.89,5.89,0,1,0-5.9-5.9,5.69,5.69,0,0,0,5.9,5.9Zm0-1.39a4.52,4.52,0,1,1,4.29-4.51A4.24,4.24,0,0,1,279.79,74.93Z" fill="#fff" fill-rule="evenodd"/><path d="M80.49,91.43a2.68,2.68,0,0,1,1.72.57l.53-1.16a3.63,3.63,0,0,0-2.31-.73,3.18,3.18,0,0,0-3.5,3.43V95H74.86v1.32h2.07v10.25h1.56V96.29H82V95H78.45V93.61C78.45,92.18,79.15,91.43,80.49,91.43Z" fill="#fff" fill-rule="evenodd"/><path d="M88,94.88a7.38,7.38,0,0,0-4.71,1.57L84,97.61a5.9,5.9,0,0,1,3.85-1.36c2.15,0,3.28,1.08,3.28,3.06v.7H87.4c-3.32,0-4.46,1.5-4.46,3.28,0,2,1.6,3.36,4.22,3.36a4.34,4.34,0,0,0,4-1.91v1.8h1.5V99.37c0-3-1.7-4.49-4.69-4.49Zm-.55,10.54c-1.85,0-2.92-.83-2.92-2.18,0-1.18.72-2.06,3-2.06h3.63v1.89A3.71,3.71,0,0,1,87.4,105.42Z" fill="#fff" fill-rule="evenodd"/><polygon points="104.85 94.97 100.47 104.83 96.14 94.97 94.51 94.97 99.63 106.54 101.24 106.54 106.39 94.97 104.85 94.97" fill="#fff" fill-rule="evenodd"/><path d="M113,106.65a5.89,5.89,0,1,0-5.9-5.89,5.68,5.68,0,0,0,5.9,5.89Zm0-1.38a4.52,4.52,0,1,1,4.29-4.51A4.24,4.24,0,0,1,113,105.27Z" fill="#fff" fill-rule="evenodd"/><path d="M123.55,97.24V95h-1.5v11.57h1.56v-5.89c0-2.73,1.48-4.27,3.9-4.27l.37,0V94.88C125.75,94.88,124.27,95.7,123.55,97.24Z" fill="#fff" fill-rule="evenodd"/><path d="M131.49,92.44a1.11,1.11,0,0,0,1.14-1.14,1.1,1.1,0,0,0-1.14-1.08,1.11,1.11,0,1,0,0,2.22Zm-.79,14.1h1.56V95H130.7Z" fill="#fff" fill-rule="evenodd"/><path d="M142.16,104.72a2.62,2.62,0,0,1-1.72.59,1.86,1.86,0,0,1-2-2.11V96.29H142V95h-3.52V92.44h-1.56V95h-2.07v1.32h2.07v7a3.06,3.06,0,0,0,3.39,3.36,3.72,3.72,0,0,0,2.44-.81Z" fill="#fff" fill-rule="evenodd"/><path d="M149.6,94.88a7.34,7.34,0,0,0-4.71,1.57l.7,1.16a5.92,5.92,0,0,1,3.85-1.36c2.16,0,3.28,1.08,3.28,3.06v.7h-3.67c-3.33,0-4.47,1.5-4.47,3.28,0,2,1.6,3.36,4.22,3.36a4.35,4.35,0,0,0,4-1.91v1.8h1.49V99.37c0-3-1.69-4.49-4.68-4.49Zm-.55,10.54c-1.85,0-2.93-.83-2.93-2.18,0-1.18.73-2.06,3-2.06h3.63v1.89A3.69,3.69,0,0,1,149.05,105.42Z" fill="#fff" fill-rule="evenodd"/><path d="M168.34,94.88a7.36,7.36,0,0,0-4.71,1.57l.7,1.16a5.94,5.94,0,0,1,3.85-1.36c2.16,0,3.28,1.08,3.28,3.06v.7h-3.67c-3.32,0-4.47,1.5-4.47,3.28,0,2,1.61,3.36,4.23,3.36a4.35,4.35,0,0,0,4-1.91v1.8H173V99.37c0-3-1.69-4.49-4.68-4.49Zm-.55,10.54c-1.85,0-2.93-.83-2.93-2.18,0-1.18.73-2.06,3-2.06h3.63v1.89A3.69,3.69,0,0,1,167.79,105.42Z" fill="#fff" fill-rule="evenodd"/><path d="M186.38,95v2.29a5,5,0,0,0-4.47-2.38,5.89,5.89,0,0,0,0,11.77,5,5,0,0,0,4.4-2.28v6.44h1.56V95ZM182,105.27a4.52,4.52,0,1,1,4.29-4.51A4.24,4.24,0,0,1,182,105.27Z" fill="#fff" fill-rule="evenodd"/><path d="M201.1,95V101c0,2.64-1.52,4.21-3.94,4.21-2.2,0-3.48-1.26-3.48-3.72V95h-1.56v6.71c0,3.32,1.94,5,4.88,5a4.59,4.59,0,0,0,4.16-2.22v2.11h1.5V95Z" fill="#fff" fill-rule="evenodd"/><path d="M217.13,100.76a5.51,5.51,0,0,0-5.61-5.88,5.58,5.58,0,0,0-5.65,5.88,6.12,6.12,0,0,0,10.54,4l-.88-1a4.58,4.58,0,0,1-3.54,1.52,4.29,4.29,0,0,1-4.56-4h9.68c0-.17,0-.35,0-.48Zm-5.61-4.53a4,4,0,0,1,4.12,3.85h-8.21A4,4,0,0,1,211.52,96.23Z" fill="#fff" fill-rule="evenodd"/><rect x="220.32" y="90.22" width="1.56" height="16.32" fill="#fff"/><rect x="226.24" y="90.22" width="1.56" height="16.32" fill="#fff"/><path d="M236.21,94.88a7.36,7.36,0,0,0-4.71,1.57l.7,1.16a5.94,5.94,0,0,1,3.85-1.36c2.16,0,3.28,1.08,3.28,3.06v.7h-3.67c-3.32,0-4.47,1.5-4.47,3.28,0,2,1.61,3.36,4.23,3.36a4.35,4.35,0,0,0,4-1.91v1.8h1.49V99.37c0-3-1.69-4.49-4.68-4.49Zm-.55,10.54c-1.85,0-2.93-.83-2.93-2.18,0-1.18.73-2.06,3-2.06h3.63v1.89A3.69,3.69,0,0,1,235.66,105.42Z" fill="#fff" fill-rule="evenodd"/><path d="M248.24,106.65c3,0,4.78-1.29,4.78-3.3,0-4.44-7.51-2.08-7.51-5.21,0-1.1.93-1.91,3-1.91a5.88,5.88,0,0,1,3.41,1l.68-1.26a7.86,7.86,0,0,0-4.09-1.08c-2.95,0-4.58,1.41-4.58,3.3,0,4.58,7.5,2.21,7.5,5.22,0,1.14-.9,1.89-3.1,1.89a6.94,6.94,0,0,1-4.11-1.3l-.71,1.23A7.72,7.72,0,0,0,248.24,106.65Z" fill="#fff" fill-rule="evenodd"/><polygon points="269.85 94.97 265.47 104.83 261.13 94.97 259.51 94.97 264.63 106.54 266.24 106.54 271.39 94.97 269.85 94.97" fill="#fff" fill-rule="evenodd"/><path d="M274.38,92.44a1.11,1.11,0,0,0,1.14-1.14,1.1,1.1,0,0,0-1.14-1.08,1.11,1.11,0,1,0,0,2.22Zm-.79,14.1h1.56V95h-1.56Z" fill="#fff" fill-rule="evenodd"/><polygon points="287.69 94.97 283.31 104.83 278.98 94.97 277.35 94.97 282.47 106.54 284.08 106.54 289.23 94.97 287.69 94.97" fill="#fff" fill-rule="evenodd"/><path d="M292.22,92.44a1.11,1.11,0,0,0,1.14-1.14,1.1,1.1,0,0,0-1.14-1.08,1.11,1.11,0,1,0,0,2.22Zm-.79,14.1H293V95h-1.56Z" fill="#fff" fill-rule="evenodd"/><path d="M307.44,100.76a5.51,5.51,0,0,0-5.61-5.88,5.58,5.58,0,0,0-5.65,5.88,6.12,6.12,0,0,0,10.54,4l-.88-1a4.58,4.58,0,0,1-3.54,1.52,4.29,4.29,0,0,1-4.56-4h9.68c0-.17,0-.35,0-.48Zm-5.61-4.53a4,4,0,0,1,4.12,3.85h-8.21A4,4,0,0,1,301.83,96.23Z" fill="#fff" fill-rule="evenodd"/><path d="M316.53,94.88a4.87,4.87,0,0,0-4.4,2.23V95h-1.5v11.57h1.57v-6.07c0-2.64,1.56-4.18,4-4.18,2.2,0,3.48,1.26,3.48,3.7v6.55h1.56V99.83C321.28,96.51,319.35,94.88,316.53,94.88Z" fill="#fff" fill-rule="evenodd"/><path d="M334.57,90.22v7a5.07,5.07,0,0,0-4.4-2.29,5.89,5.89,0,0,0,0,11.77,5,5,0,0,0,4.47-2.39v2.28h1.49V90.22Zm-4.27,15a4.52,4.52,0,1,1,4.29-4.51A4.24,4.24,0,0,1,330.3,105.27Z" fill="#fff" fill-rule="evenodd"/><path d="M344.54,94.88a7.34,7.34,0,0,0-4.71,1.57l.7,1.16a5.94,5.94,0,0,1,3.85-1.36c2.16,0,3.28,1.08,3.28,3.06v.7H344c-3.33,0-4.47,1.5-4.47,3.28,0,2,1.61,3.36,4.22,3.36a4.35,4.35,0,0,0,4-1.91v1.8h1.49V99.37c0-3-1.69-4.49-4.68-4.49ZM344,105.42c-1.85,0-2.93-.83-2.93-2.18,0-1.18.73-2.06,3-2.06h3.63v1.89A3.69,3.69,0,0,1,344,105.42Z" fill="#fff" fill-rule="evenodd"/><path d="M356.57,106.65c3,0,4.77-1.29,4.77-3.3,0-4.44-7.5-2.08-7.5-5.21,0-1.1.93-1.91,3-1.91a5.92,5.92,0,0,1,3.41,1L361,96a7.86,7.86,0,0,0-4.09-1.08c-2.95,0-4.58,1.41-4.58,3.3,0,4.58,7.5,2.21,7.5,5.22,0,1.14-.9,1.89-3.1,1.89a6.94,6.94,0,0,1-4.11-1.3l-.71,1.23A7.72,7.72,0,0,0,356.57,106.65Z" fill="#fff" fill-rule="evenodd"/><path d="M59.29,137a5.11,5.11,0,0,0,4.53-2.29l-1.17-.79a3.9,3.9,0,0,1-3.36,1.7,4.51,4.51,0,0,1,0-9,3.93,3.93,0,0,1,3.36,1.71l1.17-.79a5.06,5.06,0,0,0-4.53-2.29,5.89,5.89,0,1,0,0,11.77Z" fill="#fff" fill-rule="evenodd"/><path d="M71.41,137a5.89,5.89,0,1,0-5.9-5.89,5.69,5.69,0,0,0,5.9,5.89Zm0-1.38a4.52,4.52,0,1,1,4.29-4.51A4.24,4.24,0,0,1,71.41,135.61Z" fill="#fff" fill-rule="evenodd"/><path d="M86.37,125.22a4.87,4.87,0,0,0-4.4,2.22v-2.13h-1.5v11.57H82v-6.07c0-2.64,1.56-4.18,4-4.18,2.2,0,3.48,1.25,3.48,3.7v6.55h1.56v-6.71C91.12,126.85,89.18,125.22,86.37,125.22Z" fill="#fff" fill-rule="evenodd"/><rect x="101.13" y="120.56" width="1.56" height="16.32" fill="#fff"/><path d="M111.09,125.22a7.32,7.32,0,0,0-4.7,1.56l.7,1.17a5.87,5.87,0,0,1,3.85-1.36c2.16,0,3.28,1.07,3.28,3v.71h-3.68c-3.32,0-4.46,1.49-4.46,3.28,0,2,1.6,3.36,4.22,3.36a4.32,4.32,0,0,0,4-1.91v1.8h1.5v-7.17c0-3-1.69-4.49-4.69-4.49Zm-.55,10.54c-1.84,0-2.92-.84-2.92-2.18s.72-2.07,3-2.07h3.63v1.9A3.72,3.72,0,0,1,110.54,135.76Z" fill="#fff" fill-rule="evenodd"/><path d="M123.13,137c3,0,4.77-1.3,4.77-3.3,0-4.44-7.5-2.08-7.5-5.21,0-1.1.92-1.92,3-1.92a6,6,0,0,1,3.41,1l.69-1.25a7.87,7.87,0,0,0-4.1-1.08c-2.94,0-4.57,1.41-4.57,3.3,0,4.58,7.5,2.21,7.5,5.22,0,1.14-.9,1.89-3.1,1.89a7,7,0,0,1-4.12-1.3l-.7,1.23A7.69,7.69,0,0,0,123.13,137Z" fill="#fff" fill-rule="evenodd"/><path d="M145.61,125.31v2.29a5,5,0,0,0-4.46-2.38,5.89,5.89,0,0,0,0,11.77,5.06,5.06,0,0,0,4.4-2.29v6.45h1.56V125.31Zm-4.33,10.3a4.52,4.52,0,1,1,4.29-4.51A4.24,4.24,0,0,1,141.28,135.61Z" fill="#fff" fill-rule="evenodd"/><path d="M160.33,125.31v6.07c0,2.64-1.52,4.2-3.94,4.2-2.2,0-3.47-1.25-3.47-3.71v-6.56h-1.57V132c0,3.32,1.94,5,4.89,5a4.61,4.61,0,0,0,4.16-2.22v2.11h1.49V125.31Z" fill="#fff" fill-rule="evenodd"/><path d="M176.37,131.1a5.52,5.52,0,0,0-5.61-5.88,5.58,5.58,0,0,0-5.66,5.88,6.12,6.12,0,0,0,10.54,4l-.88-1a4.56,4.56,0,0,1-3.54,1.52,4.28,4.28,0,0,1-4.55-4h9.68c0-.18,0-.35,0-.48Zm-5.61-4.54a4,4,0,0,1,4.11,3.85h-8.2A4,4,0,0,1,170.76,126.56Z" fill="#fff" fill-rule="evenodd"/><path d="M195.42,131.1a5.64,5.64,0,1,0-11.26,0,6.11,6.11,0,0,0,10.53,4l-.88-1a4.56,4.56,0,0,1-3.54,1.52,4.28,4.28,0,0,1-4.55-4h9.68c0-.18,0-.35,0-.48Zm-5.61-4.54a4,4,0,0,1,4.11,3.85h-8.2A4,4,0,0,1,189.81,126.56Z" fill="#fff" fill-rule="evenodd"/><path d="M201.71,137c3,0,4.78-1.3,4.78-3.3,0-4.44-7.51-2.08-7.51-5.21,0-1.1.93-1.92,3-1.92a6,6,0,0,1,3.41,1l.68-1.25a7.86,7.86,0,0,0-4.09-1.08c-2.95,0-4.58,1.41-4.58,3.3,0,4.58,7.5,2.21,7.5,5.22,0,1.14-.9,1.89-3.1,1.89a6.94,6.94,0,0,1-4.11-1.3l-.71,1.23A7.72,7.72,0,0,0,201.71,137Z" fill="#fff" fill-rule="evenodd"/><path d="M214.91,135.06a2.61,2.61,0,0,1-1.71.59,1.86,1.86,0,0,1-2-2.11v-6.91h3.52v-1.32h-3.52v-2.53h-1.56v2.53h-2.07v1.32h2.07v7A3.06,3.06,0,0,0,213,137a3.7,3.7,0,0,0,2.44-.81Z" fill="#fff" fill-rule="evenodd"/><path d="M226,120.8H224l-3,2.73h1.54L226,120.8ZM228,131.1a5.64,5.64,0,1,0-11.26,0,6.11,6.11,0,0,0,10.53,4l-.88-1a4.56,4.56,0,0,1-3.54,1.52,4.28,4.28,0,0,1-4.55-4H228c0-.18,0-.35,0-.48Zm-5.61-4.54a4,4,0,0,1,4.11,3.85h-8.2A4,4,0,0,1,222.37,126.56Z" fill="#fff" fill-rule="evenodd"/><path d="M234.27,137c3,0,4.78-1.3,4.78-3.3,0-4.44-7.51-2.08-7.51-5.21,0-1.1.93-1.92,3-1.92a6,6,0,0,1,3.41,1l.68-1.25a7.86,7.86,0,0,0-4.09-1.08c-2.95,0-4.58,1.41-4.58,3.3,0,4.58,7.5,2.21,7.5,5.22,0,1.14-.9,1.89-3.1,1.89a6.94,6.94,0,0,1-4.11-1.3l-.71,1.23A7.72,7.72,0,0,0,234.27,137Z" fill="#fff" fill-rule="evenodd"/><path d="M253.24,135.06a2.62,2.62,0,0,1-1.72.59,1.85,1.85,0,0,1-2-2.11v-6.91H253v-1.32h-3.52v-2.53H248v2.53h-2.07v1.32H248v7a3.06,3.06,0,0,0,3.38,3.36,3.73,3.73,0,0,0,2.45-.81Z" fill="#fff" fill-rule="evenodd"/><path d="M258.12,127.58v-2.27h-1.5v11.57h1.57V131c0-2.73,1.47-4.27,3.89-4.27l.37,0v-1.52C260.32,125.22,258.85,126,258.12,127.58Z" fill="#fff" fill-rule="evenodd"/><path d="M269.3,125.22a7.33,7.33,0,0,0-4.71,1.56l.7,1.17a5.89,5.89,0,0,1,3.85-1.36c2.16,0,3.28,1.07,3.28,3v.71h-3.67c-3.33,0-4.47,1.49-4.47,3.28,0,2,1.61,3.36,4.22,3.36a4.35,4.35,0,0,0,4-1.91v1.8H274v-7.17c0-3-1.69-4.49-4.68-4.49Zm-.55,10.54c-1.85,0-2.93-.84-2.93-2.18s.73-2.07,3-2.07h3.63v1.9A3.71,3.71,0,0,1,268.75,135.76Z" fill="#fff" fill-rule="evenodd"/><path d="M284.19,125.22a5,5,0,0,0-4.4,2.29v-7h-1.56v16.32h1.49v-2.29a5,5,0,0,0,4.47,2.4,5.89,5.89,0,0,0,0-11.77Zm-.11,10.39a4.51,4.51,0,1,1,4.31-4.51A4.24,4.24,0,0,1,284.08,135.61Z" fill="#fff" fill-rule="evenodd"/><path d="M297.13,125.22a7.33,7.33,0,0,0-4.71,1.56l.7,1.17a5.89,5.89,0,0,1,3.85-1.36c2.16,0,3.28,1.07,3.28,3v.71h-3.67c-3.33,0-4.47,1.49-4.47,3.28,0,2,1.61,3.36,4.22,3.36a4.35,4.35,0,0,0,4-1.91v1.8h1.49v-7.17c0-3-1.69-4.49-4.68-4.49Zm-.55,10.54c-1.85,0-2.93-.84-2.93-2.18s.73-2.07,3-2.07h3.63v1.9A3.71,3.71,0,0,1,296.58,135.76Z" fill="#fff" fill-rule="evenodd"/><path d="M307,122.78a1.12,1.12,0,0,0,1.14-1.14,1.1,1.1,0,0,0-1.14-1.08,1.11,1.11,0,1,0,0,2.22Zm-2.62,18.48a3.17,3.17,0,0,0,3.39-3.52V125.31h-1.56v12.43c0,1.43-.68,2.18-1.92,2.18a2.68,2.68,0,0,1-1.8-.6l-.55,1.19A3.78,3.78,0,0,0,304.34,141.26Z" fill="#fff" fill-rule="evenodd"/><path d="M316.13,125.22a7.32,7.32,0,0,0-4.7,1.56l.7,1.17a5.87,5.87,0,0,1,3.85-1.36c2.16,0,3.28,1.07,3.28,3v.71h-3.68c-3.32,0-4.46,1.49-4.46,3.28,0,2,1.6,3.36,4.22,3.36a4.32,4.32,0,0,0,4-1.91v1.8h1.5v-7.17c0-3-1.69-4.49-4.69-4.49Zm-.55,10.54c-1.84,0-2.92-.84-2.92-2.18s.72-2.07,3-2.07h3.63v1.9A3.72,3.72,0,0,1,315.58,135.76Z" fill="#fff" fill-rule="evenodd"/><path d="M331,125.22a4.89,4.89,0,0,0-4.4,2.22v-2.13h-1.49v11.57h1.56v-6.07c0-2.64,1.56-4.18,4.05-4.18,2.2,0,3.47,1.25,3.47,3.7v6.55h1.56v-6.71C335.71,126.85,333.78,125.22,331,125.22Z" fill="#fff" fill-rule="evenodd"/><path d="M349,120.56v7a5,5,0,0,0-4.4-2.29,5.89,5.89,0,0,0,0,11.77,5,5,0,0,0,4.47-2.4v2.29h1.49V120.56Zm-4.27,15.05A4.52,4.52,0,1,1,349,131.1,4.24,4.24,0,0,1,344.73,135.61Z" fill="#fff" fill-rule="evenodd"/><path d="M359.65,137a5.89,5.89,0,1,0-5.9-5.89,5.68,5.68,0,0,0,5.9,5.89Zm0-1.38a4.52,4.52,0,1,1,4.29-4.51A4.24,4.24,0,0,1,359.65,135.61Z" fill="#fff" fill-rule="evenodd"/><path d="M382.66,125.31l-4.35,9.83L374,125.31h-1.63l5.17,11.55L377,138c-.66,1.45-1.37,1.94-2.4,1.94a2.88,2.88,0,0,1-2.11-.88l-.73,1.16a3.94,3.94,0,0,0,2.82,1.06c1.65,0,2.88-.73,3.85-3l5.78-13Z" fill="#fff" fill-rule="evenodd"/><path d="M44.82,157.91v-2.26h-1.5v11.57h1.57v-5.9c0-2.72,1.47-4.26,3.89-4.26l.37,0v-1.52C47,155.56,45.55,156.37,44.82,157.91Z" fill="#fff" fill-rule="evenodd"/><path d="M62,161.43a5.52,5.52,0,0,0-5.61-5.87,5.57,5.57,0,0,0-5.66,5.87,5.73,5.73,0,0,0,6.08,5.9,5.69,5.69,0,0,0,4.46-1.89l-.88-1a4.55,4.55,0,0,1-3.54,1.51,4.27,4.27,0,0,1-4.55-4h9.68c0-.18,0-.35,0-.49Zm-5.61-4.53a4,4,0,0,1,4.11,3.85h-8.2A4,4,0,0,1,56.35,156.9Z" fill="#fff" fill-rule="evenodd"/><path d="M69.94,167.33A5.11,5.11,0,0,0,74.48,165l-1.17-.79a3.9,3.9,0,0,1-3.37,1.69,4.51,4.51,0,0,1,0-9,3.92,3.92,0,0,1,3.37,1.72l1.17-.79a5.07,5.07,0,0,0-4.54-2.29,5.89,5.89,0,1,0,0,11.77Z" fill="#fff" fill-rule="evenodd"/><path d="M78.33,153.12A1.12,1.12,0,0,0,79.47,152a1.11,1.11,0,0,0-1.14-1.07,1.11,1.11,0,1,0,0,2.22Zm-.8,14.1H79.1V155.65H77.53Z" fill="#fff" fill-rule="evenodd"/><path d="M89.41,155.56a5.06,5.06,0,0,0-4.4,2.29V150.9H83.45v16.32H85v-2.29a5,5,0,0,0,4.46,2.4,5.89,5.89,0,0,0,0-11.77Zm-.11,10.38a4.51,4.51,0,1,1,4.32-4.51A4.24,4.24,0,0,1,89.3,165.94Z" fill="#fff" fill-rule="evenodd"/><path d="M99.16,153.12A1.12,1.12,0,0,0,100.3,152a1.1,1.1,0,0,0-1.14-1.07,1.11,1.11,0,1,0,0,2.22Zm-.79,14.1h1.56V155.65H98.37Z" fill="#fff" fill-rule="evenodd"/><path d="M105.78,157.91v-2.26h-1.49v11.57h1.56v-5.9c0-2.72,1.47-4.26,3.89-4.26l.38,0v-1.52C108,155.56,106.51,156.37,105.78,157.91Z" fill="#fff" fill-rule="evenodd"/><path d="M120.68,151.14h-2.09l-3,2.73h1.54l3.57-2.73ZM117,155.56a7.35,7.35,0,0,0-4.71,1.56l.7,1.17a5.9,5.9,0,0,1,3.85-1.37c2.16,0,3.28,1.08,3.28,3.06v.71h-3.67c-3.32,0-4.47,1.49-4.47,3.27,0,2,1.61,3.37,4.23,3.37a4.37,4.37,0,0,0,4-1.91v1.8h1.49v-7.17c0-3-1.69-4.49-4.68-4.49Zm-.55,10.54c-1.85,0-2.93-.84-2.93-2.18,0-1.19.73-2.07,3-2.07h3.63v1.89A3.69,3.69,0,0,1,116.41,166.1Z" fill="#fff" fill-rule="evenodd"/><path d="M129,167.33c3,0,4.78-1.3,4.78-3.3,0-4.44-7.51-2.09-7.51-5.21,0-1.1.93-1.92,3-1.92a6,6,0,0,1,3.41,1l.68-1.25a7.86,7.86,0,0,0-4.09-1.08c-3,0-4.58,1.41-4.58,3.3,0,4.58,7.5,2.2,7.5,5.21,0,1.15-.9,1.9-3.1,1.9a7,7,0,0,1-4.11-1.3l-.71,1.23A7.78,7.78,0,0,0,129,167.33Z" fill="#fff" fill-rule="evenodd"/><path d="M147.21,167.33a5.08,5.08,0,0,0,4.53-2.29l-1.17-.79a3.89,3.89,0,0,1-3.36,1.69,4.51,4.51,0,0,1,0-9,3.92,3.92,0,0,1,3.36,1.72l1.17-.79a5,5,0,0,0-4.53-2.29,5.89,5.89,0,1,0,0,11.77Z" fill="#fff" fill-rule="evenodd"/><path d="M163.66,155.65v6.07c0,2.64-1.51,4.2-3.93,4.2-2.2,0-3.48-1.25-3.48-3.72v-6.55h-1.56v6.71c0,3.32,1.93,5,4.88,5a4.59,4.59,0,0,0,4.16-2.22v2.11h1.5V155.65Z" fill="#fff" fill-rule="evenodd"/><path d="M173.65,155.56a7.37,7.37,0,0,0-4.71,1.56l.71,1.17a5.86,5.86,0,0,1,3.85-1.37c2.15,0,3.28,1.08,3.28,3.06v.71H173.1c-3.32,0-4.46,1.49-4.46,3.27,0,2,1.6,3.37,4.22,3.37a4.36,4.36,0,0,0,4-1.91v1.8h1.5v-7.17c0-3-1.7-4.49-4.69-4.49Zm-.55,10.54c-1.85,0-2.92-.84-2.92-2.18,0-1.19.72-2.07,3-2.07h3.63v1.89A3.72,3.72,0,0,1,173.1,166.1Z" fill="#fff" fill-rule="evenodd"/><rect x="182.58" y="150.9" width="1.56" height="16.32" fill="#fff"/><path d="M197.57,155.65v2.29a5.06,5.06,0,0,0-4.47-2.38,5.89,5.89,0,0,0,0,11.77,5,5,0,0,0,4.4-2.29v6.45h1.56V155.65Zm-4.34,10.29a4.52,4.52,0,1,1,4.29-4.51A4.24,4.24,0,0,1,193.23,165.94Z" fill="#fff" fill-rule="evenodd"/><path d="M212.28,155.65v6.07c0,2.64-1.51,4.2-3.93,4.2-2.2,0-3.48-1.25-3.48-3.72v-6.55h-1.56v6.71c0,3.32,1.93,5,4.88,5a4.59,4.59,0,0,0,4.16-2.22v2.11h1.5V155.65Z" fill="#fff" fill-rule="evenodd"/><path d="M219,153.12a1.12,1.12,0,0,0,1.14-1.15A1.11,1.11,0,0,0,219,150.9a1.11,1.11,0,1,0,0,2.22Zm-.8,14.1h1.57V155.65h-1.57Z" fill="#fff" fill-rule="evenodd"/><path d="M234.24,161.43a5.63,5.63,0,1,0-11.26,0,6.11,6.11,0,0,0,10.53,4l-.88-1a4.55,4.55,0,0,1-3.54,1.51,4.27,4.27,0,0,1-4.55-4h9.68c0-.18,0-.35,0-.49Zm-5.61-4.53a4,4,0,0,1,4.11,3.85h-8.2A4,4,0,0,1,228.63,156.9Z" fill="#fff" fill-rule="evenodd"/><path d="M238.93,157.91v-2.26h-1.5v11.57H239v-5.9c0-2.72,1.48-4.26,3.9-4.26l.37,0v-1.52C241.13,155.56,239.65,156.37,238.93,157.91Z" fill="#fff" fill-rule="evenodd"/><path d="M266.45,155.56a5.06,5.06,0,0,0-4.58,2.44,4.15,4.15,0,0,0-4.11-2.44,4.68,4.68,0,0,0-4.25,2.2v-2.11H252v11.57h1.56v-6.07c0-2.64,1.52-4.18,3.87-4.18,2.11,0,3.34,1.25,3.34,3.69v6.56h1.57v-6.07c0-2.64,1.49-4.18,3.87-4.18,2.09,0,3.32,1.25,3.32,3.69v6.56h1.56v-6.71C271.11,157.19,269.26,155.56,266.45,155.56Z" fill="#fff" fill-rule="evenodd"/><path d="M280.13,167.33a5.89,5.89,0,1,0-5.9-5.9,5.69,5.69,0,0,0,5.9,5.9Zm0-1.39a4.52,4.52,0,1,1,4.29-4.51A4.24,4.24,0,0,1,280.13,165.94Z" fill="#fff" fill-rule="evenodd"/><path d="M298.19,150.9v6.95a5,5,0,0,0-4.4-2.29,5.89,5.89,0,0,0,0,11.77,5,5,0,0,0,4.47-2.4v2.29h1.49V150.9Zm-4.27,15a4.52,4.52,0,1,1,4.29-4.51A4.24,4.24,0,0,1,293.92,165.94Z" fill="#fff" fill-rule="evenodd"/><path d="M304.9,153.12a1.13,1.13,0,0,0,1.15-1.15,1.15,1.15,0,0,0-2.29,0,1.13,1.13,0,0,0,1.14,1.12Zm-.79,14.1h1.56V155.65h-1.56Z" fill="#fff" fill-rule="evenodd"/><path d="M310.29,154.22v1.43h-2.07V157h2.07v10.25h1.56V157h3.52v-1.32h-3.56v-1.37c0-1.43.7-2.17,2.05-2.17a2.6,2.6,0,0,1,1.71.57l.53-1.17a3.68,3.68,0,0,0-2.31-.72,3.18,3.18,0,0,0-3.5,3.43ZM320,150.9a1.11,1.11,0,1,0,1.14,1.07A1.1,1.1,0,0,0,320,150.9Zm-.79,16.32h1.56V155.65h-1.56Z" fill="#fff" fill-rule="evenodd"/><path d="M330,167.33a5.08,5.08,0,0,0,4.53-2.29l-1.16-.79a3.92,3.92,0,0,1-3.37,1.69,4.51,4.51,0,0,1,0-9,4,4,0,0,1,3.37,1.72l1.16-.79a5,5,0,0,0-4.53-2.29,5.89,5.89,0,1,0,0,11.77Z" fill="#fff" fill-rule="evenodd"/><path d="M341.6,155.56a7.35,7.35,0,0,0-4.71,1.56l.7,1.17a5.9,5.9,0,0,1,3.85-1.37c2.16,0,3.28,1.08,3.28,3.06v.71h-3.67c-3.32,0-4.47,1.49-4.47,3.27,0,2,1.61,3.37,4.23,3.37a4.37,4.37,0,0,0,4-1.91v1.8h1.49v-7.17c0-3-1.69-4.49-4.68-4.49Zm-.55,10.54c-1.85,0-2.93-.84-2.93-2.18,0-1.19.73-2.07,3-2.07h3.63v1.89A3.69,3.69,0,0,1,341.05,166.1Z" fill="#fff" fill-rule="evenodd"/><path d="M355.37,167.33A5.08,5.08,0,0,0,359.9,165l-1.16-.79a3.92,3.92,0,0,1-3.37,1.69,4.51,4.51,0,0,1,0-9,4,4,0,0,1,3.37,1.72l1.16-.79a5,5,0,0,0-4.53-2.29,5.89,5.89,0,1,0,0,11.77Z" fill="#fff" fill-rule="evenodd"/><path d="M363.75,153.12A1.13,1.13,0,0,0,364.9,152a1.15,1.15,0,0,0-2.29,0,1.13,1.13,0,0,0,1.14,1.12Zm-.79,14.1h1.56V155.65H363Z" fill="#fff" fill-rule="evenodd"/><path d="M372.16,153.87h1.54l3.56-2.73h-2.09l-3,2.73Zm1.45,13.46a5.89,5.89,0,1,0-5.9-5.9,5.69,5.69,0,0,0,5.9,5.9Zm0-1.39a4.52,4.52,0,1,1,4.29-4.51A4.23,4.23,0,0,1,373.61,165.94Z" fill="#fff" fill-rule="evenodd"/><path d="M388.57,155.56a4.85,4.85,0,0,0-4.4,2.22v-2.13h-1.5v11.57h1.56v-6.07c0-2.64,1.57-4.18,4-4.18,2.2,0,3.48,1.25,3.48,3.69v6.56h1.56v-6.71C393.32,157.19,391.38,155.56,388.57,155.56Z" fill="#fff" fill-rule="evenodd"/><path d="M62.54,188.25V186H61.05v11.57h1.56v-5.9c0-2.73,1.47-4.27,3.89-4.27.11,0,.24,0,.38,0V185.9C64.74,185.9,63.27,186.71,62.54,188.25Z" fill="#fff" fill-rule="evenodd"/><path d="M79.68,191.77a5.63,5.63,0,1,0-11.26,0,6.11,6.11,0,0,0,10.53,4l-.88-1a4.53,4.53,0,0,1-3.54,1.52,4.27,4.27,0,0,1-4.55-4h9.68c0-.18,0-.36,0-.49Zm-5.61-4.53a4,4,0,0,1,4.11,3.85H70A4,4,0,0,1,74.07,187.24Z" fill="#fff" fill-rule="evenodd"/><path d="M86.59,185.9a7.35,7.35,0,0,0-4.71,1.56l.7,1.17a5.9,5.9,0,0,1,3.85-1.37c2.16,0,3.28,1.08,3.28,3.06v.7H86c-3.32,0-4.47,1.5-4.47,3.28,0,2,1.61,3.37,4.23,3.37a4.35,4.35,0,0,0,4-1.92v1.81h1.49v-7.17c0-3-1.69-4.49-4.68-4.49ZM86,196.44c-1.85,0-2.93-.84-2.93-2.18,0-1.19.73-2.07,3-2.07h3.63v1.89A3.69,3.69,0,0,1,86,196.44Z" fill="#fff" fill-rule="evenodd"/><rect x="95.52" y="181.23" width="1.56" height="16.32" fill="#fff"/><path d="M102.23,183.46a1.12,1.12,0,0,0,1.14-1.15,1.11,1.11,0,0,0-1.14-1.08,1.12,1.12,0,1,0,0,2.23Zm-.79,14.1H103V186h-1.56Z" fill="#fff" fill-rule="evenodd"/><polygon points="108.1 196.26 115.39 187.02 115.39 185.99 106.23 185.99 106.23 187.31 113.38 187.31 106.1 196.52 106.1 197.56 115.52 197.56 115.52 196.26 108.1 196.26" fill="#fff" fill-rule="evenodd"/><path d="M122.64,185.9a7.32,7.32,0,0,0-4.7,1.56l.7,1.17a5.88,5.88,0,0,1,3.85-1.37c2.16,0,3.28,1.08,3.28,3.06v.7h-3.68c-3.32,0-4.46,1.5-4.46,3.28,0,2,1.6,3.37,4.22,3.37a4.36,4.36,0,0,0,4-1.92v1.81h1.49v-7.17c0-3-1.69-4.49-4.69-4.49Zm-.55,10.54c-1.84,0-2.92-.84-2.92-2.18,0-1.19.73-2.07,3-2.07h3.63v1.89A3.71,3.71,0,0,1,122.09,196.44Z" fill="#fff" fill-rule="evenodd"/><path d="M140.62,181.23v7a5,5,0,0,0-4.4-2.29,5.89,5.89,0,0,0,0,11.77,5,5,0,0,0,4.46-2.4v2.29h1.5V181.23Zm-4.27,15.05a4.52,4.52,0,1,1,4.29-4.51A4.24,4.24,0,0,1,136.35,196.28Z" fill="#fff" fill-rule="evenodd"/><path d="M150.58,185.9a7.32,7.32,0,0,0-4.7,1.56l.7,1.17a5.88,5.88,0,0,1,3.85-1.37c2.16,0,3.28,1.08,3.28,3.06v.7H150c-3.32,0-4.46,1.5-4.46,3.28,0,2,1.6,3.37,4.22,3.37a4.33,4.33,0,0,0,4-1.92v1.81h1.5v-7.17c0-3-1.69-4.49-4.69-4.49ZM150,196.44c-1.84,0-2.92-.84-2.92-2.18,0-1.19.72-2.07,3-2.07h3.63v1.89A3.72,3.72,0,0,1,150,196.44Z" fill="#fff" fill-rule="evenodd"/><path d="M171.24,185.9a5,5,0,0,0-4.46,2.37V186h-1.5v15.84h1.56v-6.45a5,5,0,0,0,4.4,2.29,5.89,5.89,0,0,0,0-11.77Zm-.11,10.38a4.51,4.51,0,1,1,4.31-4.51A4.24,4.24,0,0,1,171.13,196.28Z" fill="#fff" fill-rule="evenodd"/><path d="M184.93,197.67a5.89,5.89,0,1,0-5.9-5.9,5.7,5.7,0,0,0,5.9,5.9Zm0-1.39a4.52,4.52,0,1,1,4.29-4.51A4.24,4.24,0,0,1,184.93,196.28Z" fill="#fff" fill-rule="evenodd"/><path d="M195.49,188.25V186H194v11.57h1.56v-5.9c0-2.73,1.48-4.27,3.9-4.27.11,0,.24,0,.37,0V185.9C197.69,185.9,196.21,186.71,195.49,188.25Z" fill="#fff" fill-rule="evenodd"/><path d="M218.67,191.77a5.51,5.51,0,0,0-5.61-5.87,5.57,5.57,0,0,0-5.65,5.87,6.12,6.12,0,0,0,10.54,4l-.88-1a4.54,4.54,0,0,1-3.54,1.52,4.29,4.29,0,0,1-4.56-4h9.68c0-.18,0-.36,0-.49Zm-5.61-4.53a4,4,0,0,1,4.12,3.85H209A4,4,0,0,1,213.06,187.24Z" fill="#fff" fill-rule="evenodd"/><rect x="221.86" y="181.23" width="1.56" height="16.32" fill="#fff"/><path d="M239.51,185.9a5,5,0,0,0-4.47,2.37V186h-1.49v15.84h1.56v-6.45a5,5,0,0,0,4.4,2.29,5.89,5.89,0,0,0,0-11.77Zm-.11,10.38a4.51,4.51,0,1,1,4.31-4.51A4.23,4.23,0,0,1,239.4,196.28Z" fill="#fff" fill-rule="evenodd"/><path d="M250,188.25V186h-1.5v11.57H250v-5.9c0-2.73,1.48-4.27,3.9-4.27.11,0,.24,0,.37,0V185.9C252.16,185.9,250.68,186.71,250,188.25Z" fill="#fff" fill-rule="evenodd"/><path d="M261.73,197.67a5.89,5.89,0,1,0-5.9-5.9,5.69,5.69,0,0,0,5.9,5.9Zm0-1.39a4.52,4.52,0,1,1,4.29-4.51A4.23,4.23,0,0,1,261.73,196.28Z" fill="#fff" fill-rule="evenodd"/><path d="M276.75,185.9a5,5,0,0,0-4.46,2.37V186h-1.5v15.84h1.56v-6.45a5.06,5.06,0,0,0,4.4,2.29,5.89,5.89,0,0,0,0-11.77Zm-.11,10.38a4.51,4.51,0,1,1,4.32-4.51A4.24,4.24,0,0,1,276.64,196.28Z" fill="#fff" fill-rule="evenodd"/><path d="M286.5,183.46a1.12,1.12,0,0,0,1.14-1.15,1.11,1.11,0,0,0-1.14-1.08,1.12,1.12,0,1,0,0,2.23Zm-.79,14.1h1.56V186h-1.56Z" fill="#fff" fill-rule="evenodd"/><path d="M301.72,191.77a5.51,5.51,0,0,0-5.61-5.87,5.57,5.57,0,0,0-5.65,5.87,6.12,6.12,0,0,0,10.54,4l-.88-1a4.54,4.54,0,0,1-3.54,1.52,4.29,4.29,0,0,1-4.56-4h9.68c0-.18,0-.36,0-.49Zm-5.61-4.53a4,4,0,0,1,4.12,3.85H292A4,4,0,0,1,296.11,187.24Z" fill="#fff" fill-rule="evenodd"/><path d="M310.46,195.73a2.58,2.58,0,0,1-1.72.6,1.85,1.85,0,0,1-2-2.12v-6.9h3.52V186h-3.52v-2.53h-1.56V186h-2.07v1.32h2.07v7a3.07,3.07,0,0,0,3.39,3.37,3.73,3.73,0,0,0,2.44-.82Z" fill="#fff" fill-rule="evenodd"/><path d="M317.89,185.9a7.32,7.32,0,0,0-4.7,1.56l.7,1.17a5.88,5.88,0,0,1,3.85-1.37c2.16,0,3.28,1.08,3.28,3.06v.7h-3.68c-3.32,0-4.46,1.5-4.46,3.28,0,2,1.6,3.37,4.22,3.37a4.33,4.33,0,0,0,4-1.92v1.81h1.5v-7.17c0-3-1.69-4.49-4.69-4.49Zm-.55,10.54c-1.84,0-2.92-.84-2.92-2.18,0-1.19.72-2.07,3-2.07H321v1.89A3.72,3.72,0,0,1,317.34,196.44Z" fill="#fff" fill-rule="evenodd"/><path d="M328.32,188.25V186h-1.49v11.57h1.56v-5.9c0-2.73,1.47-4.27,3.89-4.27.11,0,.24,0,.38,0V185.9C330.52,185.9,329.05,186.71,328.32,188.25Z" fill="#fff" fill-rule="evenodd"/><path d="M336.26,183.46a1.13,1.13,0,0,0,1.15-1.15,1.12,1.12,0,0,0-1.15-1.08,1.12,1.12,0,1,0,0,2.23Zm-.79,14.1H337V186h-1.56Z" fill="#fff" fill-rule="evenodd"/><path d="M346.12,197.67a5.89,5.89,0,1,0-5.9-5.9,5.69,5.69,0,0,0,5.9,5.9Zm0-1.39a4.52,4.52,0,1,1,4.29-4.51A4.24,4.24,0,0,1,346.12,196.28Z" fill="#fff" fill-rule="evenodd"/><path d="M365,185.9a7.33,7.33,0,0,0-4.71,1.56l.7,1.17a5.9,5.9,0,0,1,3.85-1.37c2.16,0,3.28,1.08,3.28,3.06v.7h-3.67c-3.33,0-4.47,1.5-4.47,3.28,0,2,1.61,3.37,4.22,3.37a4.36,4.36,0,0,0,4-1.92v1.81h1.49v-7.17c0-3-1.69-4.49-4.68-4.49Zm-.55,10.54c-1.85,0-2.93-.84-2.93-2.18,0-1.19.73-2.07,3-2.07h3.63v1.89A3.7,3.7,0,0,1,364.45,196.44Z" fill="#fff" fill-rule="evenodd"/><rect x="373.93" y="181.23" width="1.56" height="16.32" fill="#fff"/><path d="M42.8,213.79a1.11,1.11,0,1,0,0-2.22,1.11,1.11,0,1,0,0,2.22ZM42,227.9h1.57V216.32H42Z" fill="#fff" fill-rule="evenodd"/><path d="M53.82,216.24a4.85,4.85,0,0,0-4.4,2.22v-2.14h-1.5V227.9h1.56v-6.08c0-2.64,1.57-4.18,4.05-4.18,2.2,0,3.48,1.26,3.48,3.7v6.56h1.56v-6.71C58.57,217.86,56.63,216.24,53.82,216.24Z" fill="#fff" fill-rule="evenodd"/><path d="M65.92,228c3,0,4.77-1.3,4.77-3.3,0-4.44-7.5-2.09-7.5-5.22,0-1.1.92-1.91,3-1.91a5.88,5.88,0,0,1,3.41,1l.69-1.26a7.86,7.86,0,0,0-4.1-1.07c-2.94,0-4.57,1.4-4.57,3.3,0,4.57,7.5,2.2,7.5,5.21,0,1.14-.9,1.89-3.1,1.89a7,7,0,0,1-4.12-1.3l-.7,1.24A7.76,7.76,0,0,0,65.92,228Z" fill="#fff" fill-rule="evenodd"/><path d="M79.12,226.07a2.57,2.57,0,0,1-1.72.59,1.85,1.85,0,0,1-2-2.11v-6.91h3.52v-1.32H75.4v-2.53H73.84v2.53H71.77v1.32h2.07v7A3.07,3.07,0,0,0,77.23,228a3.73,3.73,0,0,0,2.44-.82Z" fill="#fff" fill-rule="evenodd"/><path d="M86.55,216.24a7.32,7.32,0,0,0-4.7,1.56l.7,1.16a5.92,5.92,0,0,1,3.85-1.36c2.16,0,3.28,1.08,3.28,3.06v.7H86c-3.32,0-4.46,1.5-4.46,3.28,0,2,1.6,3.37,4.22,3.37a4.33,4.33,0,0,0,4-1.92v1.81h1.5v-7.18c0-3-1.69-4.48-4.69-4.48ZM86,226.77c-1.84,0-2.92-.83-2.92-2.17,0-1.19.72-2.07,3-2.07h3.63v1.89A3.71,3.71,0,0,1,86,226.77Z" fill="#fff" fill-rule="evenodd"/><path d="M101.38,216.24a4.86,4.86,0,0,0-4.4,2.22v-2.14H95.49V227.9h1.56v-6.08c0-2.64,1.56-4.18,4-4.18,2.2,0,3.47,1.26,3.47,3.7v6.56h1.56v-6.71C106.13,217.86,104.2,216.24,101.38,216.24Z" fill="#fff" fill-rule="evenodd"/><path d="M115.92,226.07a2.54,2.54,0,0,1-1.71.59,1.85,1.85,0,0,1-2-2.11v-6.91h3.52v-1.32h-3.52v-2.53h-1.57v2.53h-2.06v1.32h2.06v7A3.07,3.07,0,0,0,114,228a3.71,3.71,0,0,0,2.44-.82Z" fill="#fff" fill-rule="evenodd"/><path d="M129,222.11a5.51,5.51,0,0,0-5.61-5.87,5.57,5.57,0,0,0-5.65,5.87,6.11,6.11,0,0,0,10.54,4l-.88-1a4.58,4.58,0,0,1-3.55,1.52,4.29,4.29,0,0,1-4.55-4H129c0-.17,0-.35,0-.48Zm-5.61-4.53a4,4,0,0,1,4.12,3.85h-8.21A4,4,0,0,1,123.38,217.58Z" fill="#fff" fill-rule="evenodd"/><path d="M132.34,228a1.2,1.2,0,0,0,1.18-1.21,1.18,1.18,0,0,0-1.18-1.19,1.16,1.16,0,0,0-1.17,1.19A1.19,1.19,0,0,0,132.34,228Z" fill="#fff" fill-rule="evenodd"/><path d="M154.45,227.9h1.71l-7-15.4h-1.6l-7,15.4h1.69l1.85-4.12h8.58l1.85,4.12Zm-9.84-5.44,3.7-8.27,3.69,8.27Z" fill="#fff" fill-rule="evenodd"/><path d="M167.27,211.57v7a5.06,5.06,0,0,0-4.4-2.28,5.89,5.89,0,0,0,0,11.77,5,5,0,0,0,4.47-2.4v2.29h1.49V211.57ZM163,226.62a4.52,4.52,0,1,1,4.29-4.51A4.24,4.24,0,0,1,163,226.62Z" fill="#fff" fill-rule="evenodd"/><path d="M183.29,222.11a5.51,5.51,0,0,0-5.61-5.87,5.57,5.57,0,0,0-5.66,5.87,5.74,5.74,0,0,0,6.08,5.9,5.67,5.67,0,0,0,4.46-1.9l-.88-1a4.56,4.56,0,0,1-3.54,1.52,4.28,4.28,0,0,1-4.55-4h9.68c0-.17,0-.35,0-.48Zm-5.61-4.53a4,4,0,0,1,4.11,3.85h-8.2A4,4,0,0,1,177.68,217.58Z" fill="#fff" fill-rule="evenodd"/><path d="M200.91,216.24a5,5,0,0,0-4.58,2.44,4.15,4.15,0,0,0-4.11-2.44,4.68,4.68,0,0,0-4.25,2.2v-2.12h-1.49V227.9H188v-6.08c0-2.64,1.52-4.18,3.87-4.18,2.11,0,3.35,1.26,3.35,3.7v6.56h1.56v-6.08c0-2.64,1.49-4.18,3.87-4.18,2.09,0,3.32,1.26,3.32,3.7v6.56h1.56v-6.71C205.57,217.86,203.73,216.24,200.91,216.24Z" fill="#fff" fill-rule="evenodd"/><path d="M217.59,211.81H215.5l-3,2.73H214l3.57-2.73Zm-3.72,4.43a7.35,7.35,0,0,0-4.71,1.56l.7,1.16a5.94,5.94,0,0,1,3.85-1.36c2.16,0,3.28,1.08,3.28,3.06v.7h-3.67c-3.32,0-4.47,1.5-4.47,3.28,0,2,1.61,3.37,4.23,3.37a4.35,4.35,0,0,0,4-1.92v1.81h1.49v-7.18c0-3-1.69-4.48-4.68-4.48Zm-.55,10.53c-1.85,0-2.93-.83-2.93-2.17,0-1.19.73-2.07,3-2.07H217v1.89A3.69,3.69,0,0,1,213.32,226.77Z" fill="#fff" fill-rule="evenodd"/><path d="M225.9,228c3,0,4.78-1.3,4.78-3.3,0-4.44-7.51-2.09-7.51-5.22,0-1.1.93-1.91,3-1.91a5.88,5.88,0,0,1,3.41,1l.68-1.26a7.85,7.85,0,0,0-4.09-1.07c-2.95,0-4.58,1.4-4.58,3.3,0,4.57,7.5,2.2,7.5,5.21,0,1.14-.9,1.89-3.1,1.89a6.94,6.94,0,0,1-4.11-1.3l-.71,1.24A7.78,7.78,0,0,0,225.9,228Z" fill="#fff" fill-rule="evenodd"/><path d="M245.28,216.24a5,5,0,0,0-4.46,2.37v-2.29h-1.5v15.84h1.56v-6.44a5.08,5.08,0,0,0,4.4,2.29,5.89,5.89,0,0,0,0-11.77Zm-.11,10.38a4.51,4.51,0,1,1,4.32-4.51A4.24,4.24,0,0,1,245.17,226.62Z" fill="#fff" fill-rule="evenodd"/><path d="M259,228a5.89,5.89,0,1,0-5.9-5.9A5.69,5.69,0,0,0,259,228Zm0-1.39a4.52,4.52,0,1,1,4.29-4.51A4.23,4.23,0,0,1,259,226.62Z" fill="#fff" fill-rule="evenodd"/><path d="M277,211.57v7a5.06,5.06,0,0,0-4.4-2.28,5.89,5.89,0,0,0,0,11.77,5,5,0,0,0,4.47-2.4v2.29h1.49V211.57Zm-4.27,15.05a4.52,4.52,0,1,1,4.29-4.51A4.24,4.24,0,0,1,272.76,226.62Z" fill="#fff" fill-rule="evenodd"/><path d="M284.44,218.59v-2.27H283V227.9h1.56V222c0-2.73,1.47-4.27,3.89-4.27l.38,0v-1.51C286.64,216.24,285.17,217.05,284.44,218.59Z" fill="#fff" fill-rule="evenodd"/><path d="M299.34,211.81h-2.09l-3,2.73h1.54l3.57-2.73Zm-3.72,4.43a7.35,7.35,0,0,0-4.71,1.56l.71,1.16a5.9,5.9,0,0,1,3.85-1.36c2.15,0,3.27,1.08,3.27,3.06v.7h-3.67c-3.32,0-4.47,1.5-4.47,3.28,0,2,1.61,3.37,4.23,3.37a4.34,4.34,0,0,0,4-1.92v1.81h1.5v-7.18c0-3-1.7-4.48-4.69-4.48Zm-.55,10.53c-1.85,0-2.93-.83-2.93-2.17,0-1.19.73-2.07,3-2.07h3.63v1.89A3.69,3.69,0,0,1,295.07,226.77Z" fill="#fff" fill-rule="evenodd"/><path d="M307.65,228c3,0,4.78-1.3,4.78-3.3,0-4.44-7.5-2.09-7.5-5.22,0-1.1.92-1.91,3-1.91a5.88,5.88,0,0,1,3.41,1l.68-1.26a7.83,7.83,0,0,0-4.09-1.07c-2.95,0-4.58,1.4-4.58,3.3,0,4.57,7.51,2.2,7.51,5.21,0,1.14-.91,1.89-3.11,1.89a7,7,0,0,1-4.11-1.3l-.7,1.24A7.73,7.73,0,0,0,307.65,228Z" fill="#fff" fill-rule="evenodd"/><path d="M325.87,228a5.11,5.11,0,0,0,4.53-2.29l-1.16-.79a3.94,3.94,0,0,1-3.37,1.69,4.51,4.51,0,0,1,0-9,4,4,0,0,1,3.37,1.72l1.16-.8a5.05,5.05,0,0,0-4.53-2.28,5.89,5.89,0,1,0,0,11.77Z" fill="#fff" fill-rule="evenodd"/><path d="M335,218.59v-2.27h-1.5V227.9H335V222c0-2.73,1.48-4.27,3.9-4.27l.37,0v-1.51C337.16,216.24,335.68,217.05,335,218.59Z" fill="#fff" fill-rule="evenodd"/><path d="M352.09,222.11a5.51,5.51,0,0,0-5.61-5.87,5.57,5.57,0,0,0-5.65,5.87,6.11,6.11,0,0,0,10.54,4l-.88-1a4.58,4.58,0,0,1-3.54,1.52,4.29,4.29,0,0,1-4.56-4h9.68c0-.17,0-.35,0-.48Zm-5.61-4.53a4,4,0,0,1,4.12,3.85h-8.21A4,4,0,0,1,346.48,217.58Z" fill="#fff" fill-rule="evenodd"/><path d="M359,216.24a7.37,7.37,0,0,0-4.71,1.56L355,219a5.9,5.9,0,0,1,3.85-1.36c2.15,0,3.28,1.08,3.28,3.06v.7h-3.68c-3.32,0-4.46,1.5-4.46,3.28,0,2,1.6,3.37,4.22,3.37a4.34,4.34,0,0,0,4-1.92v1.81h1.5v-7.18c0-3-1.7-4.48-4.69-4.48Zm-.55,10.53c-1.85,0-2.92-.83-2.92-2.17,0-1.19.72-2.07,3-2.07h3.63v1.89A3.71,3.71,0,0,1,358.45,226.77Z" fill="#fff" fill-rule="evenodd"/><path d="M369.43,218.59v-2.27h-1.5V227.9h1.57V222c0-2.73,1.47-4.27,3.89-4.27l.37,0v-1.51C371.63,216.24,370.16,217.05,369.43,218.59Z" fill="#fff" fill-rule="evenodd"/><path d="M382.63,226.07a2.57,2.57,0,0,1-1.72.59,1.85,1.85,0,0,1-2-2.11v-6.91h3.52v-1.32h-3.52v-2.53h-1.56v2.53h-2.07v1.32h2.07v7a3.07,3.07,0,0,0,3.39,3.37,3.73,3.73,0,0,0,2.44-.82Z" fill="#fff" fill-rule="evenodd"/><path d="M395.7,222.11a5.51,5.51,0,0,0-5.61-5.87,5.57,5.57,0,0,0-5.66,5.87,5.74,5.74,0,0,0,6.08,5.9,5.67,5.67,0,0,0,4.46-1.9l-.88-1a4.56,4.56,0,0,1-3.54,1.52,4.29,4.29,0,0,1-4.56-4h9.68c0-.17,0-.35,0-.48Zm-5.61-4.53a4,4,0,0,1,4.11,3.85H386A4,4,0,0,1,390.09,217.58Z" fill="#fff" fill-rule="evenodd"/><path d="M44.29,246.57a7.38,7.38,0,0,0-4.71,1.57l.71,1.16a5.9,5.9,0,0,1,3.85-1.36c2.15,0,3.28,1.08,3.28,3.06v.7H43.74c-3.32,0-4.46,1.5-4.46,3.28,0,2,1.6,3.36,4.22,3.36a4.34,4.34,0,0,0,4-1.91v1.8H49v-7.17c0-3-1.7-4.49-4.69-4.49Zm-.55,10.54c-1.85,0-2.92-.83-2.92-2.18,0-1.18.72-2.06,3-2.06h3.63v1.89A3.71,3.71,0,0,1,43.74,257.11Z" fill="#fff" fill-rule="evenodd"/><rect x="53.22" y="241.91" width="1.56" height="16.32" fill="#fff"/><path d="M69.24,252.45a5.51,5.51,0,0,0-5.61-5.88A5.57,5.57,0,0,0,58,252.45a6.11,6.11,0,0,0,10.53,4l-.88-1A4.56,4.56,0,0,1,64.09,257a4.28,4.28,0,0,1-4.55-4h9.68c0-.17,0-.35,0-.48Zm-5.61-4.53a4,4,0,0,1,4.11,3.85h-8.2A4,4,0,0,1,63.63,247.92Z" fill="#fff" fill-rule="evenodd"/><path d="M73.93,248.93v-2.27h-1.5v11.57H74v-5.89c0-2.73,1.48-4.27,3.9-4.27l.37,0v-1.52C76.13,246.57,74.65,247.39,73.93,248.93Z" fill="#fff" fill-rule="evenodd"/><path d="M87.13,256.41a2.62,2.62,0,0,1-1.72.59,1.85,1.85,0,0,1-2-2.11V248h3.52v-1.32H83.41v-2.53H81.85v2.53H79.78V248h2.07v7a3.06,3.06,0,0,0,3.38,3.36,3.73,3.73,0,0,0,2.45-.81Z" fill="#fff" fill-rule="evenodd"/><path d="M94.56,246.57a7.38,7.38,0,0,0-4.71,1.57l.71,1.16a5.9,5.9,0,0,1,3.85-1.36c2.15,0,3.28,1.08,3.28,3.06v.7H94c-3.32,0-4.46,1.5-4.46,3.28,0,2,1.6,3.36,4.22,3.36a4.34,4.34,0,0,0,4-1.91v1.8h1.5v-7.17c0-3-1.7-4.49-4.69-4.49ZM94,257.11c-1.85,0-2.92-.83-2.92-2.18,0-1.18.72-2.06,3-2.06h3.63v1.89A3.71,3.71,0,0,1,94,257.11Z" fill="#fff" fill-rule="evenodd"/><path d="M106.6,258.34c3,0,4.77-1.29,4.77-3.3,0-4.44-7.5-2.08-7.5-5.21,0-1.1.92-1.91,3-1.91a5.88,5.88,0,0,1,3.41,1l.68-1.26a7.8,7.8,0,0,0-4.09-1.08c-2.95,0-4.57,1.41-4.57,3.3,0,4.58,7.5,2.21,7.5,5.22,0,1.14-.9,1.89-3.1,1.89a7,7,0,0,1-4.12-1.3l-.7,1.23A7.67,7.67,0,0,0,106.6,258.34Z" fill="#fff" fill-rule="evenodd"/><path d="M123.12,258.34c3,0,4.77-1.29,4.77-3.3,0-4.44-7.5-2.08-7.5-5.21,0-1.1.92-1.91,3-1.91a5.88,5.88,0,0,1,3.41,1l.69-1.26a7.87,7.87,0,0,0-4.1-1.08c-2.94,0-4.57,1.41-4.57,3.3,0,4.58,7.5,2.21,7.5,5.22,0,1.14-.9,1.89-3.1,1.89a7,7,0,0,1-4.12-1.3l-.7,1.23A7.69,7.69,0,0,0,123.12,258.34Z" fill="#fff" fill-rule="evenodd"/><path d="M135.5,258.34a5.89,5.89,0,1,0-5.89-5.89,5.69,5.69,0,0,0,5.89,5.89Zm0-1.38a4.52,4.52,0,1,1,4.29-4.51A4.24,4.24,0,0,1,135.5,257Z" fill="#fff" fill-rule="evenodd"/><path d="M150.53,246.57a5.07,5.07,0,0,0-4.4,2.29v-7h-1.56v16.32h1.49V256a5,5,0,0,0,4.47,2.39,5.89,5.89,0,0,0,0-11.77ZM150.42,257a4.51,4.51,0,1,1,4.31-4.51A4.24,4.24,0,0,1,150.42,257Z" fill="#fff" fill-rule="evenodd"/><path d="M161,248.93v-2.27h-1.5v11.57h1.57v-5.89c0-2.73,1.47-4.27,3.89-4.27l.37,0v-1.52C163.18,246.57,161.71,247.39,161,248.93Z" fill="#fff" fill-rule="evenodd"/><path d="M178.12,252.45a5.52,5.52,0,0,0-5.61-5.88,5.58,5.58,0,0,0-5.66,5.88,6.12,6.12,0,0,0,10.54,4l-.88-1A4.56,4.56,0,0,1,173,257a4.28,4.28,0,0,1-4.55-4h9.68c0-.17,0-.35,0-.48Zm-5.61-4.53a4,4,0,0,1,4.11,3.85h-8.2A4,4,0,0,1,172.51,247.92Z" fill="#fff" fill-rule="evenodd"/><path d="M192.62,256.41a2.62,2.62,0,0,1-1.72.59,1.85,1.85,0,0,1-2-2.11V248h3.52v-1.32H188.9v-2.53h-1.56v2.53h-2.07V248h2.07v7a3.06,3.06,0,0,0,3.38,3.36,3.73,3.73,0,0,0,2.45-.81Z" fill="#fff" fill-rule="evenodd"/><path d="M204.87,246.66v6.07c0,2.64-1.52,4.21-3.94,4.21-2.2,0-3.47-1.26-3.47-3.72v-6.56h-1.57v6.71c0,3.32,1.94,5,4.89,5a4.61,4.61,0,0,0,4.16-2.22v2.11h1.49V246.66Z" fill="#fff" fill-rule="evenodd"/><path d="M213.91,258.34c3,0,4.78-1.29,4.78-3.3,0-4.44-7.51-2.08-7.51-5.21,0-1.1.93-1.91,3-1.91a5.88,5.88,0,0,1,3.41,1l.68-1.26a7.86,7.86,0,0,0-4.09-1.08c-2.95,0-4.58,1.41-4.58,3.3,0,4.58,7.5,2.21,7.5,5.22,0,1.14-.9,1.89-3.1,1.89a6.94,6.94,0,0,1-4.11-1.3l-.71,1.23A7.72,7.72,0,0,0,213.91,258.34Z" fill="#fff" fill-rule="evenodd"/><path d="M236.33,241.91v7a5.07,5.07,0,0,0-4.4-2.29,5.89,5.89,0,0,0,0,11.77A5,5,0,0,0,236.4,256v2.28h1.49V241.91Zm-4.27,15a4.52,4.52,0,1,1,4.29-4.51A4.24,4.24,0,0,1,232.06,257Z" fill="#fff" fill-rule="evenodd"/><path d="M252.35,252.45a5.52,5.52,0,0,0-5.61-5.88,5.58,5.58,0,0,0-5.66,5.88,6.12,6.12,0,0,0,10.54,4l-.88-1A4.56,4.56,0,0,1,247.2,257a4.29,4.29,0,0,1-4.56-4h9.68c0-.17,0-.35,0-.48Zm-5.61-4.53a4,4,0,0,1,4.11,3.85h-8.21A4,4,0,0,1,246.74,247.92Z" fill="#fff" fill-rule="evenodd"/><path d="M270,246.57a5,5,0,0,0-4.58,2.45,4.15,4.15,0,0,0-4.11-2.45,4.7,4.7,0,0,0-4.25,2.2v-2.11h-1.49v11.57h1.56v-6.07c0-2.64,1.52-4.18,3.87-4.18,2.11,0,3.34,1.26,3.34,3.7v6.55h1.57v-6.07c0-2.64,1.49-4.18,3.87-4.18,2.09,0,3.32,1.26,3.32,3.7v6.55h1.56v-6.71C274.63,248.2,272.78,246.57,270,246.57Z" fill="#fff" fill-rule="evenodd"/><path d="M282.93,246.57a7.34,7.34,0,0,0-4.71,1.57l.7,1.16a5.94,5.94,0,0,1,3.85-1.36c2.16,0,3.28,1.08,3.28,3.06v.7h-3.67c-3.33,0-4.47,1.5-4.47,3.28,0,2,1.61,3.36,4.22,3.36a4.35,4.35,0,0,0,4-1.91v1.8h1.49v-7.17c0-3-1.69-4.49-4.68-4.49Zm-.55,10.54c-1.85,0-2.93-.83-2.93-2.18,0-1.18.73-2.06,3-2.06h3.63v1.89A3.69,3.69,0,0,1,282.38,257.11Z" fill="#fff" fill-rule="evenodd"/><path d="M297.75,246.57a4.87,4.87,0,0,0-4.4,2.23v-2.14h-1.49v11.57h1.56v-6.07c0-2.64,1.56-4.18,4.05-4.18,2.2,0,3.47,1.26,3.47,3.7v6.55h1.56v-6.71C302.5,248.2,300.57,246.57,297.75,246.57Z" fill="#fff" fill-rule="evenodd"/><path d="M315.79,241.91v7a5.06,5.06,0,0,0-4.4-2.29,5.89,5.89,0,0,0,0,11.77,5,5,0,0,0,4.47-2.39v2.28h1.5V241.91Zm-4.26,15a4.52,4.52,0,1,1,4.28-4.51A4.24,4.24,0,0,1,311.53,257Z" fill="#fff" fill-rule="evenodd"/><path d="M325.76,246.57a7.36,7.36,0,0,0-4.71,1.57l.7,1.16a5.94,5.94,0,0,1,3.85-1.36c2.16,0,3.28,1.08,3.28,3.06v.7h-3.67c-3.32,0-4.47,1.5-4.47,3.28,0,2,1.61,3.36,4.23,3.36a4.35,4.35,0,0,0,4-1.91v1.8h1.49v-7.17c0-3-1.69-4.49-4.68-4.49Zm-.55,10.54c-1.85,0-2.93-.83-2.93-2.18,0-1.18.73-2.06,3-2.06h3.63v1.89A3.69,3.69,0,0,1,325.21,257.11Z" fill="#fff" fill-rule="evenodd"/><path d="M337.79,258.34c3,0,4.78-1.29,4.78-3.3,0-4.44-7.51-2.08-7.51-5.21,0-1.1.93-1.91,3-1.91a5.88,5.88,0,0,1,3.41,1l.68-1.26a7.86,7.86,0,0,0-4.09-1.08c-2.95,0-4.58,1.41-4.58,3.3,0,4.58,7.5,2.21,7.5,5.22,0,1.14-.9,1.89-3.1,1.89a6.94,6.94,0,0,1-4.11-1.3l-.71,1.23A7.72,7.72,0,0,0,337.79,258.34Z" fill="#fff" fill-rule="evenodd"/><path d="M357.17,246.57a5,5,0,0,0-4.46,2.38v-2.29h-1.5V262.5h1.56v-6.44a5.07,5.07,0,0,0,4.4,2.28,5.89,5.89,0,0,0,0-11.77ZM357.06,257a4.51,4.51,0,1,1,4.32-4.51A4.24,4.24,0,0,1,357.06,257Z" fill="#fff" fill-rule="evenodd"/><path d="M370.11,246.57a7.36,7.36,0,0,0-4.71,1.57l.71,1.16a5.9,5.9,0,0,1,3.85-1.36c2.15,0,3.27,1.08,3.27,3.06v.7h-3.67c-3.32,0-4.47,1.5-4.47,3.28,0,2,1.61,3.36,4.23,3.36a4.34,4.34,0,0,0,4-1.91v1.8h1.5v-7.17c0-3-1.7-4.49-4.69-4.49Zm-.55,10.54c-1.85,0-2.93-.83-2.93-2.18,0-1.18.73-2.06,3-2.06h3.63v1.89A3.69,3.69,0,0,1,369.56,257.11Z" fill="#fff" fill-rule="evenodd"/><path d="M380.54,248.93v-2.27H379v11.57h1.56v-5.89c0-2.73,1.48-4.27,3.9-4.27l.37,0v-1.52C382.74,246.57,381.26,247.39,380.54,248.93Z" fill="#fff" fill-rule="evenodd"/><path d="M391.71,246.57a7.33,7.33,0,0,0-4.7,1.57l.7,1.16a5.92,5.92,0,0,1,3.85-1.36c2.16,0,3.28,1.08,3.28,3.06v.7h-3.68c-3.32,0-4.46,1.5-4.46,3.28,0,2,1.6,3.36,4.22,3.36a4.32,4.32,0,0,0,4-1.91v1.8h1.5v-7.17c0-3-1.69-4.49-4.69-4.49Zm-.55,10.54c-1.84,0-2.92-.83-2.92-2.18,0-1.18.72-2.06,3-2.06h3.63v1.89A3.71,3.71,0,0,1,391.16,257.11Z" fill="#fff" fill-rule="evenodd"/><path d="M43,288.68c3,0,4.78-1.3,4.78-3.3,0-4.44-7.51-2.08-7.51-5.21,0-1.1.93-1.92,3-1.92a6,6,0,0,1,3.41,1l.68-1.25a7.86,7.86,0,0,0-4.09-1.08c-2.95,0-4.58,1.41-4.58,3.3,0,4.58,7.5,2.21,7.5,5.22,0,1.14-.9,1.89-3.1,1.89A6.94,6.94,0,0,1,39,286l-.71,1.23A7.72,7.72,0,0,0,43,288.68Z" fill="#fff" fill-rule="evenodd"/><path d="M60.73,282.79a5.52,5.52,0,0,0-5.61-5.88,5.58,5.58,0,0,0-5.66,5.88,5.73,5.73,0,0,0,6.07,5.89A5.7,5.7,0,0,0,60,286.79l-.88-1a4.56,4.56,0,0,1-3.54,1.52,4.29,4.29,0,0,1-4.56-4H60.7c0-.18,0-.35,0-.48Zm-5.61-4.54a4,4,0,0,1,4.11,3.85H51A4,4,0,0,1,55.12,278.25Z" fill="#fff" fill-rule="evenodd"/><path d="M65.41,279.27V277H63.92v11.57h1.56v-5.89c0-2.73,1.47-4.27,3.89-4.27l.38,0v-1.52C67.61,276.91,66.14,277.73,65.41,279.27Z" fill="#fff" fill-rule="evenodd"/><path d="M84.4,276.91a4.87,4.87,0,0,0-4.4,2.22V277H78.5v11.57h1.56V282.5c0-2.64,1.57-4.18,4-4.18,2.2,0,3.48,1.25,3.48,3.7v6.55h1.56v-6.71C89.15,278.54,87.21,276.91,84.4,276.91Z" fill="#fff" fill-rule="evenodd"/><path d="M98.17,288.68a5.89,5.89,0,1,0-5.9-5.89,5.68,5.68,0,0,0,5.9,5.89Zm0-1.38a4.52,4.52,0,1,1,4.29-4.51A4.24,4.24,0,0,1,98.17,287.3Z" fill="#fff" fill-rule="evenodd"/><path d="M112.78,286.75a2.62,2.62,0,0,1-1.72.59,1.85,1.85,0,0,1-2-2.11v-6.91h3.52V277h-3.52v-2.53H107.5V277h-2.07v1.32h2.07v7a3.06,3.06,0,0,0,3.39,3.36,3.72,3.72,0,0,0,2.44-.81Z" fill="#fff" fill-rule="evenodd"/><path d="M117,274.47a1.12,1.12,0,0,0,1.14-1.14,1.1,1.1,0,0,0-1.14-1.08,1.11,1.11,0,1,0,0,2.22Zm-.79,14.1h1.56V277h-1.56Z" fill="#fff" fill-rule="evenodd"/><path d="M122.35,275.57V277h-2.07v1.32h2.07v10.25h1.56V278.32h3.52V277h-3.56v-1.36c0-1.43.7-2.18,2-2.18a2.68,2.68,0,0,1,1.72.57l.53-1.17a3.72,3.72,0,0,0-2.31-.72,3.18,3.18,0,0,0-3.5,3.43Zm9.74-3.32a1.11,1.11,0,1,0,1.15,1.08,1.11,1.11,0,0,0-1.15-1.08Zm-.79,16.32h1.56V277H131.3Z" fill="#fff" fill-rule="evenodd"/><path d="M142,288.68a5.11,5.11,0,0,0,4.53-2.29l-1.17-.79a3.9,3.9,0,0,1-3.36,1.7,4.51,4.51,0,0,1,0-9,3.93,3.93,0,0,1,3.36,1.71l1.17-.79a5.06,5.06,0,0,0-4.53-2.29,5.89,5.89,0,1,0,0,11.77Z" fill="#fff" fill-rule="evenodd"/><path d="M153.65,276.91a7.32,7.32,0,0,0-4.7,1.56l.7,1.17a5.87,5.87,0,0,1,3.85-1.36c2.16,0,3.28,1.07,3.28,3.05V282H153.1c-3.32,0-4.46,1.49-4.46,3.28,0,2,1.6,3.36,4.22,3.36a4.32,4.32,0,0,0,4-1.91v1.8h1.5V281.4c0-3-1.69-4.49-4.69-4.49Zm-.55,10.54c-1.84,0-2.92-.84-2.92-2.18,0-1.19.72-2.07,3-2.07h3.63v1.9A3.72,3.72,0,0,1,153.1,287.45Z" fill="#fff" fill-rule="evenodd"/><path d="M171.63,272.25v6.95a5,5,0,0,0-4.4-2.29,5.89,5.89,0,0,0,0,11.77,5,5,0,0,0,4.46-2.4v2.29h1.5V272.25Zm-4.27,15.05a4.52,4.52,0,1,1,4.29-4.51A4.24,4.24,0,0,1,167.36,287.3Z" fill="#fff" fill-rule="evenodd"/><path d="M182.28,288.68a5.89,5.89,0,1,0-5.9-5.89,5.69,5.69,0,0,0,5.9,5.89Zm0-1.38a4.52,4.52,0,1,1,4.29-4.51A4.24,4.24,0,0,1,182.28,287.3Z" fill="#fff" fill-rule="evenodd"/><path d="M207.2,282.79a5.51,5.51,0,0,0-5.61-5.88,5.57,5.57,0,0,0-5.65,5.88,6.12,6.12,0,0,0,10.54,4l-.88-1a4.58,4.58,0,0,1-3.55,1.52,4.29,4.29,0,0,1-4.55-4h9.68c0-.18,0-.35,0-.48Zm-5.61-4.54a4,4,0,0,1,4.12,3.85H197.5A4,4,0,0,1,201.59,278.25Z" fill="#fff" fill-rule="evenodd"/><path d="M216.29,276.91a4.87,4.87,0,0,0-4.4,2.22V277h-1.5v11.57H212V282.5c0-2.64,1.57-4.18,4.05-4.18,2.2,0,3.48,1.25,3.48,3.7v6.55H221v-6.71C221,278.54,219.1,276.91,216.29,276.91Z" fill="#fff" fill-rule="evenodd"/><path d="M241.15,282.79a5.52,5.52,0,0,0-5.61-5.88,5.58,5.58,0,0,0-5.66,5.88,6.12,6.12,0,0,0,10.54,4l-.88-1A4.56,4.56,0,0,1,236,287.3a4.28,4.28,0,0,1-4.55-4h9.68c0-.18,0-.35,0-.48Zm-5.61-4.54a4,4,0,0,1,4.11,3.85h-8.2A4,4,0,0,1,235.54,278.25Z" fill="#fff" fill-rule="evenodd"/><rect x="244.34" y="272.25" width="1.56" height="16.32" fill="#fff"/><path d="M270.45,276.91a5,5,0,0,0-4.57,2.44,4.17,4.17,0,0,0-4.12-2.44,4.68,4.68,0,0,0-4.24,2.2V277H256v11.57h1.56V282.5c0-2.64,1.52-4.18,3.87-4.18,2.12,0,3.35,1.25,3.35,3.7v6.55h1.56V282.5c0-2.64,1.5-4.18,3.87-4.18,2.09,0,3.32,1.25,3.32,3.7v6.55h1.57v-6.71C275.12,278.54,273.27,276.91,270.45,276.91Z" fill="#fff" fill-rule="evenodd"/><path d="M284.13,288.68a5.89,5.89,0,1,0-5.89-5.89,5.69,5.69,0,0,0,5.89,5.89Zm0-1.38a4.52,4.52,0,1,1,4.29-4.51A4.24,4.24,0,0,1,284.13,287.3Z" fill="#fff" fill-rule="evenodd"/><path d="M307.63,276.91a5.06,5.06,0,0,0-4.58,2.44,4.16,4.16,0,0,0-4.11-2.44,4.7,4.7,0,0,0-4.25,2.2V277H293.2v11.57h1.56V282.5c0-2.64,1.52-4.18,3.87-4.18,2.11,0,3.35,1.25,3.35,3.7v6.55h1.56V282.5c0-2.64,1.49-4.18,3.87-4.18,2.09,0,3.32,1.25,3.32,3.7v6.55h1.56v-6.71C312.29,278.54,310.45,276.91,307.63,276.91Z" fill="#fff" fill-rule="evenodd"/><path d="M326.68,282.79a5.51,5.51,0,0,0-5.61-5.88,5.57,5.57,0,0,0-5.65,5.88,6.12,6.12,0,0,0,10.54,4l-.88-1a4.58,4.58,0,0,1-3.55,1.52,4.29,4.29,0,0,1-4.55-4h9.68c0-.18,0-.35,0-.48Zm-5.61-4.54a4,4,0,0,1,4.12,3.85H317A4,4,0,0,1,321.07,278.25Z" fill="#fff" fill-rule="evenodd"/><path d="M335.77,276.91a4.87,4.87,0,0,0-4.4,2.22V277h-1.5v11.57h1.56V282.5c0-2.64,1.57-4.18,4.05-4.18,2.2,0,3.48,1.25,3.48,3.7v6.55h1.56v-6.71C340.52,278.54,338.58,276.91,335.77,276.91Z" fill="#fff" fill-rule="evenodd"/><path d="M350.31,286.75a2.62,2.62,0,0,1-1.72.59,1.86,1.86,0,0,1-2-2.11v-6.91h3.52V277h-3.52v-2.53H345V277H343v1.32H345v7a3.06,3.06,0,0,0,3.39,3.36,3.72,3.72,0,0,0,2.44-.81Z" fill="#fff" fill-rule="evenodd"/><path d="M358,288.68a5.89,5.89,0,1,0-5.9-5.89,5.68,5.68,0,0,0,5.9,5.89Zm0-1.38a4.52,4.52,0,1,1,4.29-4.51A4.24,4.24,0,0,1,358,287.3Z" fill="#fff" fill-rule="evenodd"/><path d="M382.94,282.79a5.52,5.52,0,0,0-5.61-5.88,5.58,5.58,0,0,0-5.66,5.88,6.12,6.12,0,0,0,10.54,4l-.88-1a4.56,4.56,0,0,1-3.54,1.52,4.29,4.29,0,0,1-4.56-4h9.68c0-.18,0-.35,0-.48Zm-5.61-4.54a4,4,0,0,1,4.11,3.85h-8.21A4,4,0,0,1,377.33,278.25Z" fill="#fff" fill-rule="evenodd"/><path d="M392,276.91a4.89,4.89,0,0,0-4.4,2.22V277h-1.49v11.57h1.56V282.5c0-2.64,1.56-4.18,4.05-4.18,2.2,0,3.47,1.25,3.47,3.7v6.55h1.56v-6.71C396.77,278.54,394.84,276.91,392,276.91Z" fill="#fff" fill-rule="evenodd"/><path d="M106.29,307.34v2.29a5,5,0,0,0-4.47-2.38,5.89,5.89,0,0,0,0,11.77,5,5,0,0,0,4.4-2.29v6.45h1.56V307.34ZM102,317.63a4.52,4.52,0,1,1,4.29-4.51A4.24,4.24,0,0,1,102,317.63Z" fill="#fff" fill-rule="evenodd"/><path d="M121,307.34v6.07c0,2.64-1.52,4.2-3.94,4.2-2.2,0-3.48-1.25-3.48-3.72v-6.55H112v6.71c0,3.32,1.94,5,4.88,5a4.59,4.59,0,0,0,4.16-2.22v2.11h1.5V307.34Z" fill="#fff" fill-rule="evenodd"/><path d="M137,313.12a5.51,5.51,0,0,0-5.61-5.87,5.57,5.57,0,0,0-5.65,5.87,6.12,6.12,0,0,0,10.54,4l-.88-1a4.57,4.57,0,0,1-3.54,1.51,4.29,4.29,0,0,1-4.56-4H137c0-.18,0-.35,0-.49Zm-5.61-4.53a4,4,0,0,1,4.12,3.85h-8.21A4,4,0,0,1,131.43,308.59Z" fill="#fff" fill-rule="evenodd"/><path d="M150.05,307.25a7.33,7.33,0,0,0-4.71,1.56L146,310a5.9,5.9,0,0,1,3.85-1.37c2.16,0,3.28,1.08,3.28,3.06v.71H149.5c-3.33,0-4.47,1.49-4.47,3.27,0,2,1.61,3.37,4.22,3.37a4.37,4.37,0,0,0,4-1.91v1.8h1.49v-7.17c0-3-1.69-4.49-4.68-4.49Zm-.55,10.54c-1.85,0-2.93-.84-2.93-2.18s.73-2.07,3-2.07h3.63v1.89A3.7,3.7,0,0,1,149.5,317.79Z" fill="#fff" fill-rule="evenodd"/><path d="M164.94,307.25a5.06,5.06,0,0,0-4.47,2.38v-2.29H159v15.84h1.56v-6.45a5,5,0,0,0,4.4,2.29,5.89,5.89,0,0,0,0-11.77Zm-.11,10.38a4.51,4.51,0,1,1,4.31-4.51A4.24,4.24,0,0,1,164.83,317.63Z" fill="#fff" fill-rule="evenodd"/><path d="M177.87,307.25a7.32,7.32,0,0,0-4.7,1.56l.7,1.17a5.88,5.88,0,0,1,3.85-1.37c2.16,0,3.28,1.08,3.28,3.06v.71h-3.68c-3.32,0-4.46,1.49-4.46,3.27,0,2,1.6,3.37,4.22,3.37a4.34,4.34,0,0,0,4-1.91v1.8h1.5v-7.17c0-3-1.69-4.49-4.69-4.49Zm-.55,10.54c-1.84,0-2.92-.84-2.92-2.18s.72-2.07,3-2.07H181v1.89A3.72,3.72,0,0,1,177.32,317.79Z" fill="#fff" fill-rule="evenodd"/><path d="M188.3,309.6v-2.26h-1.49v11.57h1.56V313c0-2.72,1.47-4.26,3.89-4.26l.38,0v-1.52C190.5,307.25,189,308.06,188.3,309.6Z" fill="#fff" fill-rule="evenodd"/><path d="M205.44,313.12a5.63,5.63,0,1,0-11.26,0,6.11,6.11,0,0,0,10.53,4l-.88-1a4.55,4.55,0,0,1-3.54,1.51,4.27,4.27,0,0,1-4.55-4h9.68c0-.18,0-.35,0-.49Zm-5.61-4.53a4,4,0,0,1,4.11,3.85h-8.2A4,4,0,0,1,199.83,308.59Z" fill="#fff" fill-rule="evenodd"/><polygon points="209.27 317.61 216.55 308.37 216.55 307.34 207.4 307.34 207.4 308.66 214.55 308.66 207.27 317.88 207.27 318.91 216.68 318.91 216.68 317.61 209.27 317.61" fill="#fff" fill-rule="evenodd"/><path d="M224.36,319a5.08,5.08,0,0,0,4.53-2.29l-1.16-.79a3.92,3.92,0,0,1-3.37,1.69,4.51,4.51,0,0,1,0-9,4,4,0,0,1,3.37,1.72l1.16-.79a5,5,0,0,0-4.53-2.29,5.89,5.89,0,1,0,0,11.77Z" fill="#fff" fill-rule="evenodd"/><path d="M236,307.25a7.35,7.35,0,0,0-4.71,1.56L232,310a5.9,5.9,0,0,1,3.85-1.37c2.16,0,3.28,1.08,3.28,3.06v.71h-3.67c-3.32,0-4.47,1.49-4.47,3.27,0,2,1.61,3.37,4.23,3.37a4.37,4.37,0,0,0,4-1.91v1.8h1.49v-7.17c0-3-1.69-4.49-4.68-4.49Zm-.55,10.54c-1.85,0-2.93-.84-2.93-2.18s.73-2.07,3-2.07h3.63v1.89A3.69,3.69,0,0,1,235.45,317.79Z" fill="#fff" fill-rule="evenodd"/><path d="M250.83,307.25a4.84,4.84,0,0,0-4.4,2.22v-2.13h-1.5v11.57h1.56v-6.07c0-2.64,1.56-4.18,4-4.18,2.2,0,3.48,1.25,3.48,3.69v6.56h1.56V312.2C255.58,308.88,253.64,307.25,250.83,307.25Z" fill="#fff" fill-rule="evenodd"/><path d="M271.48,307.25a4.86,4.86,0,0,0-4.4,2.22v-2.13h-1.49v11.57h1.56v-6.07c0-2.64,1.56-4.18,4.05-4.18,2.2,0,3.47,1.25,3.47,3.69v6.56h1.57V312.2C276.24,308.88,274.3,307.25,271.48,307.25Z" fill="#fff" fill-rule="evenodd"/><path d="M289.35,307.34v6.07c0,2.64-1.52,4.2-3.94,4.2-2.2,0-3.48-1.25-3.48-3.72v-6.55h-1.56v6.71c0,3.32,1.94,5,4.89,5a4.59,4.59,0,0,0,4.15-2.22v2.11h1.5V307.34Z" fill="#fff" fill-rule="evenodd"/><path d="M305.39,313.12a5.52,5.52,0,0,0-5.61-5.87,5.57,5.57,0,0,0-5.66,5.87,6.12,6.12,0,0,0,10.54,4l-.88-1a4.55,4.55,0,0,1-3.54,1.51,4.29,4.29,0,0,1-4.56-4h9.68c0-.18,0-.35,0-.49Zm-5.61-4.53a4,4,0,0,1,4.11,3.85h-8.21A4,4,0,0,1,299.78,308.59Z" fill="#fff" fill-rule="evenodd"/><polygon points="316.54 307.34 312.16 317.19 307.83 307.34 306.2 307.34 311.33 318.91 312.93 318.91 318.08 307.34 316.54 307.34" fill="#fff" fill-rule="evenodd"/><path d="M324,307.25a7.33,7.33,0,0,0-4.71,1.56L320,310a5.9,5.9,0,0,1,3.85-1.37c2.16,0,3.28,1.08,3.28,3.06v.71h-3.67c-3.33,0-4.47,1.49-4.47,3.27,0,2,1.61,3.37,4.22,3.37a4.37,4.37,0,0,0,4-1.91v1.8h1.49v-7.17c0-3-1.69-4.49-4.68-4.49Zm-.55,10.54c-1.85,0-2.93-.84-2.93-2.18s.73-2.07,3-2.07h3.63v1.89A3.7,3.7,0,0,1,323.43,317.79Z" fill="#fff" fill-rule="evenodd"/><path d="M336,319c3,0,4.77-1.3,4.77-3.3,0-4.44-7.5-2.09-7.5-5.21,0-1.1.93-1.92,3-1.92a6,6,0,0,1,3.41,1l.68-1.25a7.86,7.86,0,0,0-4.09-1.08c-2.95,0-4.58,1.41-4.58,3.3,0,4.58,7.5,2.2,7.5,5.21,0,1.15-.9,1.9-3.1,1.9a7,7,0,0,1-4.11-1.3l-.71,1.23A7.78,7.78,0,0,0,336,319Z" fill="#fff" fill-rule="evenodd"/><polygon points="106.18 337.68 101.8 347.53 97.47 337.68 95.84 337.68 100.96 349.25 102.57 349.25 107.72 337.68 106.18 337.68" fill="#fff" fill-rule="evenodd"/><path d="M110.71,335.15a1.12,1.12,0,0,0,1.14-1.15,1.11,1.11,0,0,0-1.14-1.08,1.12,1.12,0,1,0,0,2.23Zm-.79,14.1h1.56V337.68h-1.56Z" fill="#fff" fill-rule="evenodd"/><polygon points="124.02 337.68 119.64 347.53 115.31 337.68 113.68 337.68 118.81 349.25 120.41 349.25 125.56 337.68 124.02 337.68" fill="#fff" fill-rule="evenodd"/><path d="M128.55,335.15A1.13,1.13,0,0,0,129.7,334a1.15,1.15,0,0,0-2.29,0,1.13,1.13,0,0,0,1.14,1.13Zm-.79,14.1h1.56V337.68h-1.56Z" fill="#fff" fill-rule="evenodd"/><path d="M143.78,343.46a5.52,5.52,0,0,0-5.61-5.87,5.57,5.57,0,0,0-5.66,5.87,6.12,6.12,0,0,0,10.54,4l-.88-1a4.53,4.53,0,0,1-3.54,1.52,4.29,4.29,0,0,1-4.56-4h9.68c0-.18,0-.36,0-.49Zm-5.61-4.53a4,4,0,0,1,4.11,3.85h-8.21A4,4,0,0,1,138.17,338.93Z" fill="#fff" fill-rule="evenodd"/><path d="M152.86,337.59a4.86,4.86,0,0,0-4.4,2.22v-2.13H147v11.57h1.56v-6.07c0-2.64,1.56-4.18,4.05-4.18,2.2,0,3.47,1.25,3.47,3.69v6.56h1.56v-6.71C157.61,339.22,155.68,337.59,152.86,337.59Z" fill="#fff" fill-rule="evenodd"/><path d="M170.9,332.92v7a5,5,0,0,0-4.4-2.29,5.89,5.89,0,0,0,0,11.77A5,5,0,0,0,171,347v2.29h1.49V332.92ZM166.63,348a4.52,4.52,0,1,1,4.29-4.51A4.24,4.24,0,0,1,166.63,348Z" fill="#fff" fill-rule="evenodd"/><path d="M180.87,337.59a7.35,7.35,0,0,0-4.71,1.56l.7,1.17a5.9,5.9,0,0,1,3.85-1.37C182.87,339,184,340,184,342v.7h-3.67c-3.33,0-4.47,1.5-4.47,3.28,0,2,1.61,3.37,4.23,3.37a4.35,4.35,0,0,0,4-1.92v1.81h1.49v-7.17c0-3-1.69-4.49-4.68-4.49Zm-.55,10.54c-1.85,0-2.93-.84-2.93-2.18,0-1.19.73-2.07,3-2.07H184v1.89A3.69,3.69,0,0,1,180.32,348.13Z" fill="#fff" fill-rule="evenodd"/><path d="M192.9,349.36c3,0,4.77-1.3,4.77-3.3,0-4.44-7.5-2.09-7.5-5.22,0-1.1.93-1.91,3-1.91a6,6,0,0,1,3.41,1l.68-1.25a7.86,7.86,0,0,0-4.09-1.08c-2.95,0-4.58,1.41-4.58,3.3,0,4.57,7.5,2.2,7.5,5.21,0,1.15-.9,1.89-3.1,1.89a7,7,0,0,1-4.11-1.29l-.71,1.23A7.78,7.78,0,0,0,192.9,349.36Z" fill="#fff" fill-rule="evenodd"/><path d="M215.38,337.68V340a5,5,0,0,0-4.46-2.37,5.89,5.89,0,0,0,0,11.77,5,5,0,0,0,4.4-2.29v6.45h1.56V337.68ZM211.05,348a4.52,4.52,0,1,1,4.29-4.51A4.24,4.24,0,0,1,211.05,348Z" fill="#fff" fill-rule="evenodd"/><path d="M230.1,337.68v6.07c0,2.64-1.52,4.2-3.94,4.2-2.2,0-3.47-1.25-3.47-3.72v-6.55h-1.56v6.71c0,3.32,1.93,5,4.88,5a4.63,4.63,0,0,0,4.16-2.22v2.11h1.49V337.68Z" fill="#fff" fill-rule="evenodd"/><path d="M246.14,343.46a5.63,5.63,0,1,0-11.26,0,6.11,6.11,0,0,0,10.53,4l-.88-1A4.53,4.53,0,0,1,241,348a4.27,4.27,0,0,1-4.55-4h9.68c0-.18,0-.36,0-.49Zm-5.61-4.53a4,4,0,0,1,4.11,3.85h-8.2A4,4,0,0,1,240.53,338.93Z" fill="#fff" fill-rule="evenodd"/><path d="M265.19,343.46a5.51,5.51,0,0,0-5.61-5.87,5.57,5.57,0,0,0-5.65,5.87,6.12,6.12,0,0,0,10.54,4l-.88-1A4.55,4.55,0,0,1,260,348a4.28,4.28,0,0,1-4.55-4h9.68c0-.18,0-.36,0-.49Zm-5.61-4.53a4,4,0,0,1,4.12,3.85h-8.21A4,4,0,0,1,259.58,338.93Z" fill="#fff" fill-rule="evenodd"/><path d="M274.28,337.59a4.85,4.85,0,0,0-4.4,2.22v-2.13h-1.5v11.57h1.56v-6.07c0-2.64,1.57-4.18,4.05-4.18,2.2,0,3.48,1.25,3.48,3.69v6.56H279v-6.71C279,339.22,277.09,337.59,274.28,337.59Z" fill="#fff" fill-rule="evenodd"/><path d="M288.12,349.36a5.11,5.11,0,0,0,4.53-2.29l-1.17-.79a3.91,3.91,0,0,1-3.36,1.69,4.51,4.51,0,0,1,0-9,3.92,3.92,0,0,1,3.36,1.72l1.17-.79a5.06,5.06,0,0,0-4.53-2.29,5.89,5.89,0,1,0,0,11.77Z" fill="#fff" fill-rule="evenodd"/><path d="M299.75,337.59a7.32,7.32,0,0,0-4.7,1.56l.7,1.17A5.88,5.88,0,0,1,299.6,339c2.16,0,3.28,1.08,3.28,3.06v.7H299.2c-3.32,0-4.46,1.5-4.46,3.28,0,2,1.6,3.37,4.22,3.37a4.33,4.33,0,0,0,4-1.92v1.81h1.5v-7.17c0-3-1.69-4.49-4.69-4.49Zm-.55,10.54c-1.84,0-2.92-.84-2.92-2.18,0-1.19.72-2.07,3-2.07h3.63v1.89A3.72,3.72,0,0,1,299.2,348.13Z" fill="#fff" fill-rule="evenodd"/><path d="M309.59,335.15a1.12,1.12,0,0,0,1.14-1.15,1.11,1.11,0,0,0-1.14-1.08,1.12,1.12,0,1,0,0,2.23ZM307,353.63a3.17,3.17,0,0,0,3.39-3.52V337.68H308.8v12.43c0,1.43-.69,2.17-1.92,2.17a2.67,2.67,0,0,1-1.8-.59l-.55,1.19A3.84,3.84,0,0,0,307,353.63Z" fill="#fff" fill-rule="evenodd"/><path d="M324.81,343.46a5.51,5.51,0,0,0-5.61-5.87,5.57,5.57,0,0,0-5.65,5.87,6.12,6.12,0,0,0,10.54,4l-.88-1a4.55,4.55,0,0,1-3.55,1.52,4.28,4.28,0,0,1-4.55-4h9.68c0-.18,0-.36,0-.49Zm-5.61-4.53a4,4,0,0,1,4.12,3.85h-8.21A4,4,0,0,1,319.2,338.93Z" fill="#fff" fill-rule="evenodd"/><path d="M333.9,337.59a4.85,4.85,0,0,0-4.4,2.22v-2.13H328v11.57h1.56v-6.07c0-2.64,1.57-4.18,4.05-4.18,2.2,0,3.48,1.25,3.48,3.69v6.56h1.56v-6.71C338.65,339.22,336.71,337.59,333.9,337.59Z" fill="#fff" fill-rule="evenodd"/><path d="M135.53,379.7a5.13,5.13,0,0,0,4.53-2.29l-1.17-.79a3.91,3.91,0,0,1-3.36,1.69,4.51,4.51,0,0,1,0-9,3.92,3.92,0,0,1,3.36,1.72l1.17-.8a5.08,5.08,0,0,0-4.53-2.28,5.89,5.89,0,1,0,0,11.77Z" fill="#fff" fill-rule="evenodd"/><path d="M147.65,379.7a5.89,5.89,0,1,0-5.9-5.9,5.69,5.69,0,0,0,5.9,5.9Zm0-1.39a4.52,4.52,0,1,1,4.29-4.51A4.23,4.23,0,0,1,147.65,378.31Z" fill="#fff" fill-rule="evenodd"/><path d="M162.61,367.93a4.85,4.85,0,0,0-4.4,2.22V368h-1.5v11.58h1.56v-6.08c0-2.64,1.57-4.18,4-4.18,2.2,0,3.48,1.26,3.48,3.7v6.56h1.56v-6.71C167.36,369.55,165.42,367.93,162.61,367.93Z" fill="#fff" fill-rule="evenodd"/><path d="M182.91,377.76a2.54,2.54,0,0,1-1.71.59,1.85,1.85,0,0,1-2-2.11v-6.91h3.52V368H179.2v-2.53h-1.57V368h-2.06v1.32h2.06v7A3.07,3.07,0,0,0,181,379.7a3.71,3.71,0,0,0,2.44-.82Z" fill="#fff" fill-rule="evenodd"/><path d="M195.17,368v6.08c0,2.64-1.52,4.2-3.94,4.2-2.2,0-3.48-1.26-3.48-3.72V368h-1.56v6.71c0,3.33,1.94,5,4.89,5a4.6,4.6,0,0,0,4.15-2.23v2.12h1.5V368Z" fill="#fff" fill-rule="evenodd"/><path d="M204.21,379.7c3,0,4.77-1.3,4.77-3.3,0-4.44-7.5-2.09-7.5-5.22,0-1.1.93-1.91,3-1.91a5.92,5.92,0,0,1,3.41,1l.68-1.26a7.85,7.85,0,0,0-4.09-1.07c-2.95,0-4.58,1.4-4.58,3.3,0,4.57,7.5,2.2,7.5,5.21,0,1.14-.9,1.89-3.1,1.89a6.94,6.94,0,0,1-4.11-1.3l-.71,1.24A7.78,7.78,0,0,0,204.21,379.7Z" fill="#fff" fill-rule="evenodd"/><path d="M222.43,379.7a5.13,5.13,0,0,0,4.53-2.29l-1.17-.79a3.91,3.91,0,0,1-3.36,1.69,4.51,4.51,0,0,1,0-9,3.92,3.92,0,0,1,3.36,1.72l1.17-.8a5.08,5.08,0,0,0-4.53-2.28,5.89,5.89,0,1,0,0,11.77Z" fill="#fff" fill-rule="evenodd"/><path d="M231.51,370.28V368H230v11.58h1.56v-5.9c0-2.73,1.47-4.27,3.89-4.27l.38,0v-1.51C233.71,367.93,232.24,368.74,231.51,370.28Z" fill="#fff" fill-rule="evenodd"/><path d="M239.45,365.48a1.11,1.11,0,1,0-1.14-1.12,1.12,1.12,0,0,0,1.14,1.12Zm-.79,14.11h1.56V368h-1.56Z" fill="#fff" fill-rule="evenodd"/><path d="M250.12,377.76a2.54,2.54,0,0,1-1.71.59,1.85,1.85,0,0,1-2-2.11v-6.91h3.53V368H246.4v-2.53h-1.56V368h-2.07v1.32h2.07v7a3.07,3.07,0,0,0,3.39,3.37,3.71,3.71,0,0,0,2.44-.82Z" fill="#fff" fill-rule="evenodd"/><path d="M263.19,373.8a5.51,5.51,0,0,0-5.61-5.87,5.57,5.57,0,0,0-5.65,5.87,5.73,5.73,0,0,0,6.07,5.9,5.67,5.67,0,0,0,4.46-1.9l-.88-1a4.56,4.56,0,0,1-3.54,1.52,4.28,4.28,0,0,1-4.55-4h9.68c0-.17,0-.35,0-.48Zm-5.61-4.53a4,4,0,0,1,4.11,3.85h-8.2A4,4,0,0,1,257.58,369.27Z" fill="#fff" fill-rule="evenodd"/><path d="M267.88,370.28V368h-1.5v11.58h1.56v-5.9c0-2.73,1.48-4.27,3.9-4.27l.37,0v-1.51C270.08,367.93,268.6,368.74,267.88,370.28Z" fill="#fff" fill-rule="evenodd"/><path d="M275.82,365.48a1.11,1.11,0,1,0,0-2.22,1.11,1.11,0,1,0,0,2.22ZM275,379.59h1.56V368H275Z" fill="#fff" fill-rule="evenodd"/><path d="M285.67,379.7a5.89,5.89,0,1,0-5.89-5.9,5.7,5.7,0,0,0,5.89,5.9Zm0-1.39A4.52,4.52,0,1,1,290,373.8,4.24,4.24,0,0,1,285.67,378.31Z" fill="#fff" fill-rule="evenodd"/><path d="M297.84,379.7c3,0,4.77-1.3,4.77-3.3,0-4.44-7.5-2.09-7.5-5.22,0-1.1.93-1.91,3-1.91a5.92,5.92,0,0,1,3.41,1l.68-1.26a7.85,7.85,0,0,0-4.09-1.07c-2.95,0-4.58,1.4-4.58,3.3,0,4.57,7.5,2.2,7.5,5.21,0,1.14-.9,1.89-3.1,1.89a6.94,6.94,0,0,1-4.11-1.3l-.71,1.24A7.78,7.78,0,0,0,297.84,379.7Z" fill="#fff" fill-rule="evenodd"/><path d="M305.65,379.7a1.2,1.2,0,0,0,1.19-1.21,1.18,1.18,0,0,0-1.19-1.19,1.16,1.16,0,0,0-1.17,1.19A1.19,1.19,0,0,0,305.65,379.7Z" fill="#fff" fill-rule="evenodd"/></svg>