<svg id="Capa_1" data-name="Capa 1" xmlns="http://www.w3.org/2000/svg" xmlns:xlink="http://www.w3.org/1999/xlink" width="154mm" height="154mm" viewBox="0 0 436.54 436.54"><defs><linearGradient id="GradientFill_1" x1="228.18" y1="203.67" x2="-40.12" y2="598.69" gradientTransform="translate(218.27 -90.41) rotate(45)" gradientUnits="userSpaceOnUse"><stop offset="0" stop-color="#292123"/><stop offset="0.48" stop-color="#3b3338"/><stop offset="1" stop-color="#1a1413"/></linearGradient></defs><title>QUESITO NEGRO CIRCULO 5</title><circle cx="218.27" cy="218.27" r="218.04" transform="translate(-90.41 218.27) rotate(-45)" fill="url(#GradientFill_1)"/><path d="M187.92,86.77h1.71l-7-15.4H181l-7,15.4h1.69l1.85-4.12h8.58l1.85,4.12Zm-9.84-5.44,3.7-8.27,3.7,8.27Z" fill="#fff" fill-rule="evenodd"/><rect x="191.86" y="70.44" width="1.56" height="16.32" fill="#fff"/><path d="M209.08,84.94a2.56,2.56,0,0,1-1.71.59,1.85,1.85,0,0,1-2-2.11V76.51h3.52V75.19h-3.52V72.66H203.8v2.53h-2.07v1.32h2.07v7a3.07,3.07,0,0,0,3.39,3.37,3.71,3.71,0,0,0,2.44-.82Z" fill="#fff" fill-rule="evenodd"/><path d="M214,77.46V75.19h-1.5V86.77H214v-5.9c0-2.73,1.48-4.27,3.9-4.27l.37,0V75.11C216.17,75.11,214.69,75.92,214,77.46Z" fill="#fff" fill-rule="evenodd"/><path d="M225.14,75.11a7.37,7.37,0,0,0-4.71,1.56l.71,1.16A5.9,5.9,0,0,1,225,76.47c2.15,0,3.28,1.08,3.28,3.06v.7h-3.68c-3.32,0-4.46,1.5-4.46,3.28,0,2,1.6,3.37,4.22,3.37a4.34,4.34,0,0,0,4-1.92v1.81h1.5V79.59c0-3-1.7-4.48-4.69-4.48Zm-.55,10.53c-1.85,0-2.92-.83-2.92-2.17,0-1.19.72-2.07,3-2.07h3.63v1.89A3.71,3.71,0,0,1,224.59,85.64Z" fill="#fff" fill-rule="evenodd"/><path d="M239.62,84.94a2.57,2.57,0,0,1-1.72.59,1.85,1.85,0,0,1-2-2.11V76.51h3.52V75.19H235.9V72.66h-1.56v2.53h-2.07v1.32h2.07v7a3.07,3.07,0,0,0,3.39,3.37,3.73,3.73,0,0,0,2.44-.82Z" fill="#fff" fill-rule="evenodd"/><path d="M247.05,75.11a7.32,7.32,0,0,0-4.7,1.56l.7,1.16a5.92,5.92,0,0,1,3.85-1.36c2.16,0,3.28,1.08,3.28,3.06v.7H246.5c-3.32,0-4.46,1.5-4.46,3.28,0,2,1.6,3.37,4.22,3.37a4.33,4.33,0,0,0,4-1.92v1.81h1.5V79.59c0-3-1.69-4.48-4.69-4.48Zm-.55,10.53c-1.84,0-2.92-.83-2.92-2.17,0-1.19.72-2.07,3-2.07h3.63v1.89A3.71,3.71,0,0,1,246.5,85.64Z" fill="#fff" fill-rule="evenodd"/><path d="M257.48,77.46V75.19H256V86.77h1.56v-5.9c0-2.73,1.47-4.27,3.89-4.27l.38,0V75.11C259.68,75.11,258.21,75.92,257.48,77.46Z" fill="#fff" fill-rule="evenodd"/><path d="M118.41,100.78v7a5.07,5.07,0,0,0-4.4-2.29,5.89,5.89,0,0,0,0,11.77,5,5,0,0,0,4.47-2.39v2.28H120V100.78Zm-4.27,15a4.52,4.52,0,1,1,4.29-4.51A4.24,4.24,0,0,1,114.14,115.83Z" fill="#fff" fill-rule="evenodd"/><path d="M125.12,103a1.11,1.11,0,0,0,1.14-1.14,1.1,1.1,0,0,0-1.14-1.08,1.11,1.11,0,1,0,0,2.22Zm-.79,14.1h1.56V105.53h-1.56Z" fill="#fff" fill-rule="evenodd"/><path d="M131.74,107.8v-2.27h-1.49V117.1h1.56v-5.89c0-2.73,1.47-4.27,3.89-4.27l.38,0v-1.52C133.94,105.44,132.47,106.26,131.74,107.8Z" fill="#fff" fill-rule="evenodd"/><path d="M148.88,111.32a5.51,5.51,0,0,0-5.61-5.88,5.57,5.57,0,0,0-5.65,5.88,6.11,6.11,0,0,0,10.53,4l-.88-1a4.56,4.56,0,0,1-3.54,1.52,4.28,4.28,0,0,1-4.55-4h9.68c0-.17,0-.35,0-.48Zm-5.61-4.53a4,4,0,0,1,4.11,3.85h-8.2A4,4,0,0,1,143.27,106.79Z" fill="#fff" fill-rule="evenodd"/><path d="M156.87,117.21a5.12,5.12,0,0,0,4.53-2.28l-1.17-.8a3.9,3.9,0,0,1-3.36,1.7,4.51,4.51,0,0,1,0-9,3.93,3.93,0,0,1,3.36,1.71l1.17-.79a5.06,5.06,0,0,0-4.53-2.29,5.89,5.89,0,1,0,0,11.77Z" fill="#fff" fill-rule="evenodd"/><path d="M170.13,115.28a2.61,2.61,0,0,1-1.71.59,1.86,1.86,0,0,1-2-2.11v-6.91h3.52v-1.32h-3.52V103h-1.56v2.53h-2.07v1.32h2.07v7a3.06,3.06,0,0,0,3.39,3.36,3.7,3.7,0,0,0,2.44-.81Z" fill="#fff" fill-rule="evenodd"/><path d="M177.57,105.44a7.36,7.36,0,0,0-4.71,1.57l.7,1.16a5.94,5.94,0,0,1,3.85-1.36c2.16,0,3.28,1.08,3.28,3.06v.7H177c-3.32,0-4.47,1.5-4.47,3.28,0,2,1.61,3.36,4.23,3.36a4.35,4.35,0,0,0,4-1.91v1.8h1.49v-7.17c0-3-1.69-4.49-4.68-4.49ZM177,116c-1.85,0-2.93-.83-2.93-2.18,0-1.18.73-2.06,3-2.06h3.63v1.89A3.69,3.69,0,0,1,177,116Z" fill="#fff" fill-rule="evenodd"/><path d="M200.93,105.44a5,5,0,0,0-4.57,2.45,4.17,4.17,0,0,0-4.12-2.45,4.68,4.68,0,0,0-4.24,2.2v-2.11h-1.5V117.1h1.56V111c0-2.64,1.52-4.18,3.87-4.18,2.12,0,3.35,1.26,3.35,3.7v6.55h1.56V111c0-2.64,1.5-4.18,3.87-4.18,2.09,0,3.32,1.26,3.32,3.7v6.55h1.57v-6.71C205.6,107.07,203.75,105.44,200.93,105.44Z" fill="#fff" fill-rule="evenodd"/><path d="M220,111.32a5.51,5.51,0,0,0-5.61-5.88,5.58,5.58,0,0,0-5.65,5.88,6.12,6.12,0,0,0,10.54,4l-.88-1a4.58,4.58,0,0,1-3.54,1.52,4.29,4.29,0,0,1-4.56-4H220c0-.17,0-.35,0-.48Zm-5.61-4.53a4,4,0,0,1,4.12,3.85h-8.21A4,4,0,0,1,214.37,106.79Z" fill="#fff" fill-rule="evenodd"/><path d="M229.07,105.44a4.87,4.87,0,0,0-4.4,2.23v-2.14h-1.5V117.1h1.57V111c0-2.64,1.56-4.18,4-4.18,2.2,0,3.48,1.26,3.48,3.7v6.55h1.56v-6.71C233.82,107.07,231.89,105.44,229.07,105.44Z" fill="#fff" fill-rule="evenodd"/><path d="M243.61,115.28a2.61,2.61,0,0,1-1.71.59,1.86,1.86,0,0,1-2-2.11v-6.91h3.52v-1.32h-3.52V103h-1.56v2.53h-2.07v1.32h2.07v7a3.06,3.06,0,0,0,3.39,3.36,3.7,3.7,0,0,0,2.44-.81Z" fill="#fff" fill-rule="evenodd"/><path d="M256.68,111.32a5.51,5.51,0,0,0-5.61-5.88,5.57,5.57,0,0,0-5.65,5.88,6.11,6.11,0,0,0,10.53,4l-.88-1a4.56,4.56,0,0,1-3.54,1.52,4.28,4.28,0,0,1-4.55-4h9.68c0-.17,0-.35,0-.48Zm-5.61-4.53a4,4,0,0,1,4.11,3.85H247A4,4,0,0,1,251.07,106.79Z" fill="#fff" fill-rule="evenodd"/><path d="M270.43,117.21a5.1,5.1,0,0,0,4.53-2.28l-1.16-.8a3.93,3.93,0,0,1-3.37,1.7,4.51,4.51,0,0,1,0-9,4,4,0,0,1,3.37,1.71l1.16-.79a5,5,0,0,0-4.53-2.29,5.89,5.89,0,1,0,0,11.77Z" fill="#fff" fill-rule="evenodd"/><path d="M282.55,117.21a5.89,5.89,0,1,0-5.89-5.89,5.69,5.69,0,0,0,5.89,5.89Zm0-1.38a4.52,4.52,0,1,1,4.29-4.51A4.24,4.24,0,0,1,282.55,115.83Z" fill="#fff" fill-rule="evenodd"/><path d="M297.51,105.44a4.87,4.87,0,0,0-4.4,2.23v-2.14h-1.49V117.1h1.56V111c0-2.64,1.56-4.18,4.05-4.18,2.2,0,3.47,1.26,3.47,3.7v6.55h1.56v-6.71C302.26,107.07,300.33,105.44,297.51,105.44Z" fill="#fff" fill-rule="evenodd"/><path d="M322.37,111.32a5.51,5.51,0,0,0-5.61-5.88,5.58,5.58,0,0,0-5.65,5.88,6.12,6.12,0,0,0,10.54,4l-.88-1a4.58,4.58,0,0,1-3.55,1.52,4.29,4.29,0,0,1-4.55-4h9.68c0-.17,0-.35,0-.48Zm-5.61-4.53a4,4,0,0,1,4.12,3.85h-8.21A4,4,0,0,1,316.76,106.79Z" fill="#fff" fill-rule="evenodd"/><rect x="325.56" y="100.78" width="1.56" height="16.32" fill="#fff"/><path d="M85.16,135.78a5,5,0,0,0-4.47,2.38v-2.29h-1.5v15.84h1.57v-6.45a5,5,0,0,0,4.4,2.29,5.89,5.89,0,0,0,0-11.77Zm-.11,10.39a4.51,4.51,0,1,1,4.31-4.51A4.24,4.24,0,0,1,85.05,146.17Z" fill="#fff" fill-rule="evenodd"/><path d="M95.61,138.14v-2.27h-1.5v11.57h1.56v-5.89c0-2.73,1.48-4.27,3.9-4.27l.37,0v-1.52C97.81,135.78,96.33,136.6,95.61,138.14Z" fill="#fff" fill-rule="evenodd"/><path d="M107.38,147.55a5.89,5.89,0,1,0-5.9-5.89,5.69,5.69,0,0,0,5.9,5.89Zm0-1.38a4.52,4.52,0,1,1,4.29-4.51A4.24,4.24,0,0,1,107.38,146.17Z" fill="#fff" fill-rule="evenodd"/><path d="M122.4,135.78a5,5,0,0,0-4.46,2.38v-2.29h-1.5v15.84H118v-6.45a5,5,0,0,0,4.4,2.29,5.89,5.89,0,0,0,0-11.77Zm-.11,10.39a4.51,4.51,0,1,1,4.31-4.51A4.24,4.24,0,0,1,122.29,146.17Z" fill="#fff" fill-rule="evenodd"/><path d="M132.15,133.34a1.12,1.12,0,0,0,1.14-1.14,1.1,1.1,0,0,0-1.14-1.08,1.11,1.11,0,1,0,0,2.22Zm-.79,14.1h1.56V135.87h-1.56Z" fill="#fff" fill-rule="evenodd"/><path d="M147.37,141.66a5.51,5.51,0,0,0-5.61-5.88,5.57,5.57,0,0,0-5.65,5.88,6.12,6.12,0,0,0,10.54,4l-.88-1a4.58,4.58,0,0,1-3.55,1.52,4.29,4.29,0,0,1-4.55-4h9.68c0-.18,0-.35,0-.48Zm-5.61-4.54a4,4,0,0,1,4.12,3.85h-8.21A4,4,0,0,1,141.76,137.12Z" fill="#fff" fill-rule="evenodd"/><path d="M156.11,145.62a2.62,2.62,0,0,1-1.72.59,1.85,1.85,0,0,1-2-2.11v-6.91h3.52v-1.32h-3.52v-2.53h-1.56v2.53h-2.07v1.32h2.07v7a3.06,3.06,0,0,0,3.38,3.36,3.73,3.73,0,0,0,2.45-.81Z" fill="#fff" fill-rule="evenodd"/><path d="M163.54,135.78a7.37,7.37,0,0,0-4.71,1.56l.71,1.17a5.85,5.85,0,0,1,3.85-1.36c2.15,0,3.28,1.07,3.28,3v.71H163c-3.32,0-4.46,1.49-4.46,3.28,0,2,1.6,3.36,4.22,3.36a4.34,4.34,0,0,0,4-1.91v1.8h1.5v-7.17c0-3-1.7-4.49-4.69-4.49ZM163,146.32c-1.85,0-2.92-.84-2.92-2.18,0-1.19.72-2.07,3-2.07h3.63V144A3.72,3.72,0,0,1,163,146.32Z" fill="#fff" fill-rule="evenodd"/><path d="M174,138.14v-2.27h-1.5v11.57H174v-5.89c0-2.73,1.47-4.27,3.89-4.27l.37,0v-1.52C176.17,135.78,174.7,136.6,174,138.14Z" fill="#fff" fill-rule="evenodd"/><path d="M181.91,133.34a1.13,1.13,0,0,0,1.15-1.14,1.15,1.15,0,0,0-2.29,0,1.13,1.13,0,0,0,1.14,1.12Zm-.79,14.1h1.56V135.87h-1.56Z" fill="#fff" fill-rule="evenodd"/><path d="M191.77,147.55a5.89,5.89,0,1,0-5.9-5.89,5.68,5.68,0,0,0,5.9,5.89Zm0-1.38a4.52,4.52,0,1,1,4.29-4.51A4.24,4.24,0,0,1,191.77,146.17Z" fill="#fff" fill-rule="evenodd"/><path d="M215.59,131.12v6.95a5,5,0,0,0-4.4-2.29,5.89,5.89,0,0,0,0,11.77,5,5,0,0,0,4.47-2.4v2.29h1.5V131.12Zm-4.26,15a4.52,4.52,0,1,1,4.29-4.51A4.24,4.24,0,0,1,211.33,146.17Z" fill="#fff" fill-rule="evenodd"/><path d="M231.61,141.66a5.64,5.64,0,1,0-11.26,0,6.11,6.11,0,0,0,10.53,4l-.88-1a4.56,4.56,0,0,1-3.54,1.52,4.28,4.28,0,0,1-4.55-4h9.68c0-.18,0-.35,0-.48ZM226,137.12a4,4,0,0,1,4.11,3.85h-8.2A4,4,0,0,1,226,137.12Z" fill="#fff" fill-rule="evenodd"/><rect x="240.56" y="131.12" width="1.56" height="16.32" fill="#fff"/><path d="M250.53,135.78a7.35,7.35,0,0,0-4.71,1.56l.71,1.17a5.85,5.85,0,0,1,3.85-1.36c2.15,0,3.27,1.07,3.27,3v.71H250c-3.32,0-4.47,1.49-4.47,3.28,0,2,1.61,3.36,4.23,3.36a4.34,4.34,0,0,0,4-1.91v1.8h1.5v-7.17c0-3-1.7-4.49-4.69-4.49ZM250,146.32c-1.85,0-2.93-.84-2.93-2.18,0-1.19.73-2.07,3-2.07h3.63V144A3.7,3.7,0,0,1,250,146.32Z" fill="#fff" fill-rule="evenodd"/><polygon points="273.41 135.87 269.03 145.73 264.7 135.87 263.07 135.87 268.2 147.44 269.8 147.44 274.95 135.87 273.41 135.87" fill="#fff" fill-rule="evenodd"/><path d="M277.94,133.34a1.13,1.13,0,0,0,1.15-1.14,1.15,1.15,0,0,0-2.29,0,1.13,1.13,0,0,0,1.14,1.12Zm-.79,14.1h1.56V135.87h-1.56Z" fill="#fff" fill-rule="evenodd"/><polygon points="291.25 135.87 286.87 145.73 282.54 135.87 280.91 135.87 286.04 147.44 287.64 147.44 292.79 135.87 291.25 135.87" fill="#fff" fill-rule="evenodd"/><path d="M295.78,133.34a1.13,1.13,0,0,0,1.15-1.14,1.11,1.11,0,0,0-1.15-1.08,1.11,1.11,0,1,0,0,2.22Zm-.79,14.1h1.56V135.87H295Z" fill="#fff" fill-rule="evenodd"/><path d="M311,141.66a5.52,5.52,0,0,0-5.61-5.88,5.58,5.58,0,0,0-5.66,5.88,6.12,6.12,0,0,0,10.54,4l-.88-1a4.56,4.56,0,0,1-3.54,1.52,4.28,4.28,0,0,1-4.55-4H311c0-.18,0-.35,0-.48Zm-5.61-4.54a4,4,0,0,1,4.11,3.85h-8.2A4,4,0,0,1,305.4,137.12Z" fill="#fff" fill-rule="evenodd"/><path d="M320.09,135.78a4.89,4.89,0,0,0-4.4,2.22v-2.13H314.2v11.57h1.56v-6.07c0-2.64,1.56-4.18,4.05-4.18,2.2,0,3.47,1.25,3.47,3.7v6.55h1.57v-6.71C324.85,137.41,322.91,135.78,320.09,135.78Z" fill="#fff" fill-rule="evenodd"/><path d="M338.13,131.12v6.95a5,5,0,0,0-4.4-2.29,5.89,5.89,0,0,0,0,11.77,5,5,0,0,0,4.47-2.4v2.29h1.5V131.12Zm-4.26,15a4.52,4.52,0,1,1,4.29-4.51A4.24,4.24,0,0,1,333.87,146.17Z" fill="#fff" fill-rule="evenodd"/><path d="M348.1,135.78a7.35,7.35,0,0,0-4.71,1.56l.71,1.17a5.85,5.85,0,0,1,3.85-1.36c2.15,0,3.27,1.07,3.27,3v.71h-3.67c-3.32,0-4.47,1.49-4.47,3.28,0,2,1.61,3.36,4.23,3.36a4.34,4.34,0,0,0,4-1.91v1.8h1.5v-7.17c0-3-1.7-4.49-4.69-4.49Zm-.55,10.54c-1.85,0-2.93-.84-2.93-2.18,0-1.19.73-2.07,3-2.07h3.63V144A3.7,3.7,0,0,1,347.55,146.32Z" fill="#fff" fill-rule="evenodd"/><path d="M357.21,145.15a1.16,1.16,0,0,0-1.17,1.19,1.11,1.11,0,0,0,.79,1.12l-.74,3.19h1.05l.93-3a3.55,3.55,0,0,0,.3-1.28A1.15,1.15,0,0,0,357.21,145.15Z" fill="#fff" fill-rule="evenodd"/><path d="M41.47,177.89a5.89,5.89,0,1,0-5.9-5.9,5.69,5.69,0,0,0,5.9,5.9Zm0-1.39A4.52,4.52,0,1,1,45.76,172,4.24,4.24,0,0,1,41.47,176.5Z" fill="#fff" fill-rule="evenodd"/><rect x="50.53" y="161.46" width="1.56" height="16.32" fill="#fff"/><polygon points="64.63 166.21 60.25 176.06 55.92 166.21 54.29 166.21 59.42 177.78 61.02 177.78 66.17 166.21 64.63 166.21" fill="#fff" fill-rule="evenodd"/><path d="M67.73,164.43h1.54l3.57-2.73H70.75l-3,2.73Zm.64,13.35h1.56V166.21H68.37Z" fill="#fff" fill-rule="evenodd"/><path d="M83.29,161.46v6.95a5,5,0,0,0-4.4-2.29,5.89,5.89,0,0,0,0,11.77,5,5,0,0,0,4.46-2.4v2.29h1.5V161.46ZM79,176.5A4.52,4.52,0,1,1,83.31,172,4.24,4.24,0,0,1,79,176.5Z" fill="#fff" fill-rule="evenodd"/><path d="M93.25,166.12a7.32,7.32,0,0,0-4.7,1.56l.7,1.17a5.88,5.88,0,0,1,3.85-1.37c2.16,0,3.28,1.08,3.28,3.06v.71H92.7c-3.32,0-4.46,1.49-4.46,3.27,0,2,1.6,3.37,4.22,3.37a4.34,4.34,0,0,0,4-1.91v1.8h1.5v-7.17c0-3-1.69-4.49-4.69-4.49Zm-.55,10.54c-1.85,0-2.92-.84-2.92-2.18,0-1.19.72-2.07,3-2.07h3.63v1.89A3.72,3.72,0,0,1,92.7,176.66Z" fill="#fff" fill-rule="evenodd"/><path d="M107.73,176a2.58,2.58,0,0,1-1.72.6,1.85,1.85,0,0,1-2-2.11v-6.91h3.52v-1.32H104v-2.53h-1.56v2.53h-2.07v1.32h2.07v7a3.07,3.07,0,0,0,3.39,3.37,3.72,3.72,0,0,0,2.44-.81Z" fill="#fff" fill-rule="evenodd"/><path d="M120.8,172a5.52,5.52,0,0,0-5.61-5.87,5.57,5.57,0,0,0-5.66,5.87,6.12,6.12,0,0,0,10.54,4l-.88-1a4.55,4.55,0,0,1-3.54,1.51,4.29,4.29,0,0,1-4.56-4h9.68c0-.18,0-.35,0-.49Zm-5.61-4.53a4,4,0,0,1,4.11,3.85h-8.21A4,4,0,0,1,115.19,167.46Z" fill="#fff" fill-rule="evenodd"/><path d="M138.75,161.46v6.95a5,5,0,0,0-4.4-2.29,5.89,5.89,0,0,0,0,11.77,5,5,0,0,0,4.46-2.4v2.29h1.5V161.46Zm-4.27,15a4.52,4.52,0,1,1,4.29-4.51A4.24,4.24,0,0,1,134.48,176.5Z" fill="#fff" fill-rule="evenodd"/><path d="M154.76,172a5.51,5.51,0,0,0-5.61-5.87A5.57,5.57,0,0,0,143.5,172,6.12,6.12,0,0,0,154,176l-.88-1a4.57,4.57,0,0,1-3.54,1.51,4.29,4.29,0,0,1-4.56-4h9.68c0-.18,0-.35,0-.49Zm-5.61-4.53a4,4,0,0,1,4.12,3.85h-8.21A4,4,0,0,1,149.15,167.46Z" fill="#fff" fill-rule="evenodd"/><path d="M168.51,177.89a5.11,5.11,0,0,0,4.54-2.29l-1.17-.79a3.9,3.9,0,0,1-3.37,1.69,4.51,4.51,0,0,1,0-9,3.92,3.92,0,0,1,3.37,1.72l1.17-.79a5.07,5.07,0,0,0-4.54-2.29,5.89,5.89,0,1,0,0,11.77Z" fill="#fff" fill-rule="evenodd"/><path d="M180.64,177.89a5.89,5.89,0,1,0-5.9-5.9,5.69,5.69,0,0,0,5.9,5.9Zm0-1.39a4.52,4.52,0,1,1,4.29-4.51A4.24,4.24,0,0,1,180.64,176.5Z" fill="#fff" fill-rule="evenodd"/><path d="M204.13,166.12a5,5,0,0,0-4.57,2.44,4.16,4.16,0,0,0-4.12-2.44,4.66,4.66,0,0,0-4.24,2.2v-2.11h-1.5v11.57h1.56v-6.07c0-2.64,1.52-4.18,3.87-4.18,2.12,0,3.35,1.25,3.35,3.69v6.56H200v-6.07c0-2.64,1.5-4.18,3.87-4.18,2.09,0,3.32,1.25,3.32,3.69v6.56h1.57v-6.71C208.8,167.75,207,166.12,204.13,166.12Z" fill="#fff" fill-rule="evenodd"/><path d="M219,166.12a5,5,0,0,0-4.46,2.38v-2.29H213v15.84h1.56V175.6a5.06,5.06,0,0,0,4.4,2.29,5.89,5.89,0,0,0,0-11.77Zm-.11,10.38a4.51,4.51,0,1,1,4.32-4.51A4.24,4.24,0,0,1,218.89,176.5Z" fill="#fff" fill-rule="evenodd"/><path d="M231.94,166.12a7.35,7.35,0,0,0-4.71,1.56l.71,1.17a5.86,5.86,0,0,1,3.85-1.37c2.15,0,3.27,1.08,3.27,3.06v.71h-3.67c-3.32,0-4.47,1.49-4.47,3.27,0,2,1.61,3.37,4.23,3.37a4.36,4.36,0,0,0,4-1.91v1.8h1.5v-7.17c0-3-1.7-4.49-4.69-4.49Zm-.55,10.54c-1.85,0-2.93-.84-2.93-2.18,0-1.19.73-2.07,3-2.07h3.63v1.89A3.69,3.69,0,0,1,231.39,176.66Z" fill="#fff" fill-rule="evenodd"/><path d="M242.37,168.47v-2.26h-1.5v11.57h1.56v-5.9c0-2.72,1.48-4.26,3.9-4.26l.37,0v-1.52C244.57,166.12,243.09,166.93,242.37,168.47Z" fill="#fff" fill-rule="evenodd"/><path d="M255.57,176a2.58,2.58,0,0,1-1.72.6,1.85,1.85,0,0,1-2-2.11v-6.91h3.52v-1.32h-3.52v-2.53h-1.56v2.53h-2.07v1.32h2.07v7a3.07,3.07,0,0,0,3.39,3.37,3.72,3.72,0,0,0,2.44-.81Z" fill="#fff" fill-rule="evenodd"/><path d="M259.75,163.68a1.12,1.12,0,0,0,1.14-1.15,1.1,1.1,0,0,0-1.14-1.07,1.11,1.11,0,1,0,0,2.22Zm-.79,14.1h1.56V166.21H259Z" fill="#fff" fill-rule="evenodd"/><path d="M266.37,168.47v-2.26h-1.5v11.57h1.57v-5.9c0-2.72,1.47-4.26,3.89-4.26l.37,0v-1.52C268.57,166.12,267.1,166.93,266.37,168.47Z" fill="#fff" fill-rule="evenodd"/><path d="M284.26,177.89a5.11,5.11,0,0,0,4.53-2.29l-1.17-.79a3.89,3.89,0,0,1-3.36,1.69,4.51,4.51,0,0,1,0-9,3.92,3.92,0,0,1,3.36,1.72l1.17-.79a5.06,5.06,0,0,0-4.53-2.29,5.89,5.89,0,1,0,0,11.77Z" fill="#fff" fill-rule="evenodd"/><path d="M296.38,177.89a5.89,5.89,0,1,0-5.9-5.9,5.69,5.69,0,0,0,5.9,5.9Zm0-1.39a4.52,4.52,0,1,1,4.29-4.51A4.23,4.23,0,0,1,296.38,176.5Z" fill="#fff" fill-rule="evenodd"/><path d="M319.87,166.12a5,5,0,0,0-4.57,2.44,4.16,4.16,0,0,0-4.12-2.44,4.66,4.66,0,0,0-4.24,2.2v-2.11h-1.5v11.57H307v-6.07c0-2.64,1.52-4.18,3.88-4.18,2.11,0,3.34,1.25,3.34,3.69v6.56h1.56v-6.07c0-2.64,1.5-4.18,3.87-4.18,2.09,0,3.33,1.25,3.33,3.69v6.56h1.56v-6.71C324.54,167.75,322.69,166.12,319.87,166.12Z" fill="#fff" fill-rule="evenodd"/><path d="M329.58,163.68a1.12,1.12,0,0,0,1.14-1.15,1.11,1.11,0,0,0-1.14-1.07,1.11,1.11,0,1,0,0,2.22Zm-.8,14.1h1.57V166.21h-1.57Z" fill="#fff" fill-rule="evenodd"/><path d="M337.8,177.89c3,0,4.78-1.3,4.78-3.3,0-4.44-7.5-2.09-7.5-5.21,0-1.1.92-1.92,3-1.92a6,6,0,0,1,3.41,1l.68-1.25a7.83,7.83,0,0,0-4.09-1.08c-2.95,0-4.58,1.41-4.58,3.3,0,4.58,7.51,2.2,7.51,5.21,0,1.15-.91,1.9-3.11,1.9a7,7,0,0,1-4.11-1.3l-.7,1.23A7.73,7.73,0,0,0,337.8,177.89Z" fill="#fff" fill-rule="evenodd"/><path d="M346.25,163.68a1.13,1.13,0,0,0,1.15-1.15,1.15,1.15,0,0,0-2.29,0,1.13,1.13,0,0,0,1.14,1.12Zm-.79,14.1H347V166.21h-1.56Z" fill="#fff" fill-rule="evenodd"/><path d="M356.11,177.89a5.89,5.89,0,1,0-5.9-5.9,5.69,5.69,0,0,0,5.9,5.9Zm0-1.39A4.52,4.52,0,1,1,360.4,172,4.23,4.23,0,0,1,356.11,176.5Z" fill="#fff" fill-rule="evenodd"/><path d="M371.07,166.12a4.85,4.85,0,0,0-4.4,2.22v-2.13h-1.5v11.57h1.56v-6.07c0-2.64,1.57-4.18,4-4.18,2.2,0,3.48,1.25,3.48,3.69v6.56h1.56v-6.71C375.82,167.75,373.88,166.12,371.07,166.12Z" fill="#fff" fill-rule="evenodd"/><path d="M390.21,172a5.52,5.52,0,0,0-5.61-5.87,5.57,5.57,0,0,0-5.66,5.87,6.12,6.12,0,0,0,10.54,4l-.88-1a4.55,4.55,0,0,1-3.54,1.51,4.27,4.27,0,0,1-4.55-4h9.68c0-.18,0-.35,0-.49Zm-5.61-4.53a4,4,0,0,1,4.11,3.85h-8.2A4,4,0,0,1,384.6,167.46Z" fill="#fff" fill-rule="evenodd"/><path d="M396.5,177.89c3,0,4.77-1.3,4.77-3.3,0-4.44-7.5-2.09-7.5-5.21,0-1.1.93-1.92,3-1.92a6,6,0,0,1,3.41,1l.68-1.25a7.86,7.86,0,0,0-4.09-1.08c-3,0-4.58,1.41-4.58,3.3,0,4.58,7.5,2.2,7.5,5.21,0,1.15-.9,1.9-3.1,1.9a7,7,0,0,1-4.11-1.3l-.71,1.23A7.78,7.78,0,0,0,396.5,177.89Z" fill="#fff" fill-rule="evenodd"/><path d="M120,208.23a5.08,5.08,0,0,0,4.53-2.29l-1.16-.79a3.93,3.93,0,0,1-3.37,1.69,4.51,4.51,0,0,1,0-9,3.93,3.93,0,0,1,3.37,1.72l1.16-.79a5,5,0,0,0-4.53-2.29,5.89,5.89,0,1,0,0,11.77Z" fill="#fff" fill-rule="evenodd"/><path d="M132.09,208.23a5.89,5.89,0,1,0-5.89-5.9,5.7,5.7,0,0,0,5.89,5.9Zm0-1.39a4.52,4.52,0,1,1,4.29-4.51A4.24,4.24,0,0,1,132.09,206.84Z" fill="#fff" fill-rule="evenodd"/><path d="M147.05,196.46a4.86,4.86,0,0,0-4.4,2.22v-2.13h-1.49v11.57h1.56v-6.07c0-2.64,1.56-4.18,4.05-4.18,2.2,0,3.47,1.25,3.47,3.69v6.56h1.57v-6.71C151.81,198.09,149.87,196.46,147.05,196.46Z" fill="#fff" fill-rule="evenodd"/><path d="M166.55,208.23a5.89,5.89,0,1,0-5.9-5.9,5.7,5.7,0,0,0,5.9,5.9Zm0-1.39a4.52,4.52,0,1,1,4.29-4.51A4.24,4.24,0,0,1,166.55,206.84Z" fill="#fff" fill-rule="evenodd"/><path d="M181.15,206.29a2.55,2.55,0,0,1-1.71.6,1.85,1.85,0,0,1-2-2.12v-6.9H181v-1.32h-3.52V194h-1.57v2.53h-2.06v1.32h2.06v7a3.07,3.07,0,0,0,3.39,3.37,3.71,3.71,0,0,0,2.44-.82Z" fill="#fff" fill-rule="evenodd"/><path d="M186,198.81v-2.26h-1.5v11.57h1.56v-5.9c0-2.73,1.48-4.27,3.9-4.27.11,0,.24,0,.37,0v-1.52C188.24,196.46,186.76,197.27,186,198.81Z" fill="#fff" fill-rule="evenodd"/><path d="M197.21,196.46a7.32,7.32,0,0,0-4.7,1.56l.7,1.17a5.88,5.88,0,0,1,3.85-1.37c2.16,0,3.28,1.08,3.28,3.06v.7h-3.68c-3.32,0-4.46,1.5-4.46,3.28,0,2,1.6,3.37,4.22,3.37a4.33,4.33,0,0,0,4-1.92v1.81h1.5V201c0-3-1.69-4.49-4.69-4.49ZM196.66,207c-1.84,0-2.92-.84-2.92-2.18,0-1.19.72-2.07,3-2.07h3.63v1.89A3.72,3.72,0,0,1,196.66,207Z" fill="#fff" fill-rule="evenodd"/><path d="M209.25,208.23c3,0,4.77-1.3,4.77-3.3,0-4.44-7.5-2.09-7.5-5.22,0-1.1.92-1.91,3-1.91a6,6,0,0,1,3.41,1l.69-1.25a7.87,7.87,0,0,0-4.1-1.08c-2.94,0-4.57,1.41-4.57,3.3,0,4.57,7.5,2.2,7.5,5.21,0,1.15-.9,1.89-3.1,1.89a7.06,7.06,0,0,1-4.12-1.29l-.7,1.23A7.76,7.76,0,0,0,209.25,208.23Z" fill="#fff" fill-rule="evenodd"/><path d="M226.72,196.46A7.33,7.33,0,0,0,222,198l.7,1.17a5.9,5.9,0,0,1,3.85-1.37c2.16,0,3.28,1.08,3.28,3.06v.7h-3.67c-3.33,0-4.47,1.5-4.47,3.28,0,2,1.61,3.37,4.22,3.37a4.36,4.36,0,0,0,4-1.92v1.81h1.49V201c0-3-1.69-4.49-4.68-4.49ZM226.17,207c-1.85,0-2.93-.84-2.93-2.18,0-1.19.73-2.07,3-2.07h3.63v1.89A3.7,3.7,0,0,1,226.17,207Z" fill="#fff" fill-rule="evenodd"/><path d="M244.91,196.55v2.22a5.22,5.22,0,0,0-4.58-2.31,5.61,5.61,0,1,0,0,11.22,5.18,5.18,0,0,0,4.51-2.25v1.48c0,2.86-1.34,4.2-4.26,4.2a6.89,6.89,0,0,1-4.56-1.58l-.79,1.18a8,8,0,0,0,5.39,1.79c3.83,0,5.79-1.81,5.79-5.79V196.55Zm-4.42,9.74a4.24,4.24,0,1,1,4.4-4.24A4.14,4.14,0,0,1,240.49,206.29Z" fill="#fff" fill-rule="evenodd"/><path d="M260.88,202.33a5.51,5.51,0,0,0-5.61-5.87,5.57,5.57,0,0,0-5.65,5.87,6.12,6.12,0,0,0,10.54,4l-.88-1a4.55,4.55,0,0,1-3.55,1.52,4.28,4.28,0,0,1-4.55-4h9.68c0-.18,0-.36,0-.49Zm-5.61-4.53a4,4,0,0,1,4.12,3.85h-8.21A4,4,0,0,1,255.27,197.8Z" fill="#fff" fill-rule="evenodd"/><path d="M270,196.46a4.85,4.85,0,0,0-4.4,2.22v-2.13h-1.5v11.57h1.56v-6.07c0-2.64,1.57-4.18,4.05-4.18,2.2,0,3.48,1.25,3.48,3.69v6.56h1.56v-6.71C274.72,198.09,272.78,196.46,270,196.46Z" fill="#fff" fill-rule="evenodd"/><path d="M283.81,208.23a5.11,5.11,0,0,0,4.53-2.29l-1.17-.79a3.91,3.91,0,0,1-3.36,1.69,4.51,4.51,0,0,1,0-9,3.92,3.92,0,0,1,3.36,1.72l1.17-.79a5.06,5.06,0,0,0-4.53-2.29,5.89,5.89,0,1,0,0,11.77Z" fill="#fff" fill-rule="evenodd"/><path d="M292.19,194a1.12,1.12,0,0,0,1.14-1.15,1.11,1.11,0,0,0-1.14-1.08,1.12,1.12,0,1,0,0,2.23Zm-.79,14.1H293V196.55H291.4Z" fill="#fff" fill-rule="evenodd"/><path d="M301.36,196.46a7.37,7.37,0,0,0-4.71,1.56l.71,1.17a5.86,5.86,0,0,1,3.85-1.37c2.15,0,3.28,1.08,3.28,3.06v.7h-3.68c-3.32,0-4.46,1.5-4.46,3.28,0,2,1.6,3.37,4.22,3.37a4.34,4.34,0,0,0,4-1.92v1.81h1.5V201c0-3-1.7-4.49-4.69-4.49ZM300.81,207c-1.85,0-2.92-.84-2.92-2.18,0-1.19.72-2.07,3-2.07h3.63v1.89A3.72,3.72,0,0,1,300.81,207Z" fill="#fff" fill-rule="evenodd"/><path d="M313.4,208.23c3,0,4.77-1.3,4.77-3.3,0-4.44-7.5-2.09-7.5-5.22,0-1.1.92-1.91,3-1.91a6,6,0,0,1,3.41,1l.68-1.25a7.83,7.83,0,0,0-4.09-1.08c-2.95,0-4.58,1.41-4.58,3.3,0,4.57,7.51,2.2,7.51,5.21,0,1.15-.9,1.89-3.1,1.89a7,7,0,0,1-4.12-1.29l-.7,1.23A7.74,7.74,0,0,0,313.4,208.23Z" fill="#fff" fill-rule="evenodd"/><path d="M321.21,208.23a1.2,1.2,0,0,0,1.18-1.21,1.18,1.18,0,0,0-1.18-1.19A1.17,1.17,0,0,0,320,207,1.19,1.19,0,0,0,321.21,208.23Z" fill="#fff" fill-rule="evenodd"/><polygon points="72.28 245.58 73.9 245.58 73.9 231.59 79.32 231.59 79.32 230.18 66.86 230.18 66.86 231.59 72.28 231.59 72.28 245.58" fill="#fff" fill-rule="evenodd"/><path d="M85.1,245.69a5.89,5.89,0,1,0-5.89-5.89,5.69,5.69,0,0,0,5.89,5.89Zm0-1.38a4.52,4.52,0,1,1,4.29-4.51A4.24,4.24,0,0,1,85.1,244.31Z" fill="#fff" fill-rule="evenodd"/><path d="M103.16,229.26v7a5,5,0,0,0-4.4-2.29,5.89,5.89,0,0,0,0,11.77,5,5,0,0,0,4.47-2.4v2.29h1.5V229.26ZM98.9,244.31a4.52,4.52,0,1,1,4.29-4.51A4.24,4.24,0,0,1,98.9,244.31Z" fill="#fff" fill-rule="evenodd"/><path d="M113.13,233.92a7.35,7.35,0,0,0-4.71,1.56l.71,1.17a5.85,5.85,0,0,1,3.85-1.36c2.15,0,3.27,1.07,3.27,3.05v.71h-3.67c-3.32,0-4.47,1.49-4.47,3.28,0,2,1.61,3.36,4.23,3.36a4.34,4.34,0,0,0,4-1.91v1.8h1.5v-7.17c0-3-1.7-4.49-4.69-4.49Zm-.55,10.54c-1.85,0-2.93-.84-2.93-2.18,0-1.19.73-2.07,3-2.07h3.63v1.9A3.7,3.7,0,0,1,112.58,244.46Z" fill="#fff" fill-rule="evenodd"/><rect x="127.83" y="229.26" width="1.56" height="16.32" fill="#fff"/><path d="M137.79,233.92a7.37,7.37,0,0,0-4.71,1.56l.71,1.17a5.85,5.85,0,0,1,3.85-1.36c2.15,0,3.28,1.07,3.28,3.05v.71h-3.68c-3.32,0-4.46,1.49-4.46,3.28,0,2,1.6,3.36,4.22,3.36a4.34,4.34,0,0,0,4-1.91v1.8h1.5v-7.17c0-3-1.7-4.49-4.69-4.49Zm-.55,10.54c-1.85,0-2.92-.84-2.92-2.18,0-1.19.72-2.07,3-2.07h3.63v1.9A3.72,3.72,0,0,1,137.24,244.46Z" fill="#fff" fill-rule="evenodd"/><path d="M157.28,245.69a5.11,5.11,0,0,0,4.54-2.29l-1.17-.79a3.91,3.91,0,0,1-3.37,1.7,4.51,4.51,0,0,1,0-9,3.94,3.94,0,0,1,3.37,1.71l1.17-.79a5.07,5.07,0,0,0-4.54-2.29,5.89,5.89,0,1,0,0,11.77Z" fill="#fff" fill-rule="evenodd"/><path d="M168.92,233.92a7.37,7.37,0,0,0-4.71,1.56l.71,1.17a5.85,5.85,0,0,1,3.85-1.36c2.15,0,3.28,1.07,3.28,3.05v.71h-3.68c-3.32,0-4.46,1.49-4.46,3.28,0,2,1.6,3.36,4.22,3.36a4.34,4.34,0,0,0,4-1.91v1.8h1.5v-7.17c0-3-1.7-4.49-4.69-4.49Zm-.55,10.54c-1.85,0-2.92-.84-2.92-2.18,0-1.19.72-2.07,3-2.07h3.63v1.9A3.72,3.72,0,0,1,168.37,244.46Z" fill="#fff" fill-rule="evenodd"/><path d="M179.35,236.28V234h-1.5v11.57h1.57v-5.89c0-2.73,1.47-4.27,3.89-4.27l.37,0v-1.52C181.55,233.92,180.08,234.74,179.35,236.28Z" fill="#fff" fill-rule="evenodd"/><path d="M192.55,243.76a2.62,2.62,0,0,1-1.72.59,1.86,1.86,0,0,1-2-2.11v-6.91h3.52V234h-3.52v-2.53h-1.56V234H185.2v1.32h2.07v7a3.06,3.06,0,0,0,3.39,3.36,3.72,3.72,0,0,0,2.44-.81Z" fill="#fff" fill-rule="evenodd"/><path d="M205.62,239.8a5.52,5.52,0,0,0-5.61-5.88,5.58,5.58,0,0,0-5.66,5.88,6.12,6.12,0,0,0,10.54,4l-.88-1a4.56,4.56,0,0,1-3.54,1.52,4.29,4.29,0,0,1-4.56-4h9.68c0-.18,0-.35,0-.48ZM200,235.26a4,4,0,0,1,4.11,3.85h-8.21A4,4,0,0,1,200,235.26Z" fill="#fff" fill-rule="evenodd"/><path d="M210.3,236.28V234h-1.49v11.57h1.56v-5.89c0-2.73,1.47-4.27,3.89-4.27l.38,0v-1.52C212.5,233.92,211,234.74,210.3,236.28Z" fill="#fff" fill-rule="evenodd"/><path d="M221.48,233.92a7.35,7.35,0,0,0-4.71,1.56l.71,1.17a5.85,5.85,0,0,1,3.85-1.36c2.15,0,3.27,1.07,3.27,3.05v.71h-3.67c-3.32,0-4.47,1.49-4.47,3.28,0,2,1.61,3.36,4.23,3.36a4.34,4.34,0,0,0,4-1.91v1.8h1.5v-7.17c0-3-1.7-4.49-4.69-4.49Zm-.55,10.54c-1.85,0-2.93-.84-2.93-2.18,0-1.19.73-2.07,3-2.07h3.63v1.9A3.7,3.7,0,0,1,220.93,244.46Z" fill="#fff" fill-rule="evenodd"/><path d="M245.17,229.26v7a5,5,0,0,0-4.4-2.29,5.89,5.89,0,0,0,0,11.77,5,5,0,0,0,4.47-2.4v2.29h1.49V229.26Zm-4.27,15.05a4.52,4.52,0,1,1,4.29-4.51A4.24,4.24,0,0,1,240.9,244.31Z" fill="#fff" fill-rule="evenodd"/><path d="M261.19,239.8a5.52,5.52,0,0,0-5.61-5.88,5.58,5.58,0,0,0-5.66,5.88,6.12,6.12,0,0,0,10.54,4l-.88-1a4.56,4.56,0,0,1-3.54,1.52,4.28,4.28,0,0,1-4.55-4h9.68c0-.18,0-.35,0-.48Zm-5.61-4.54a4,4,0,0,1,4.11,3.85h-8.2A4,4,0,0,1,255.58,235.26Z" fill="#fff" fill-rule="evenodd"/><path d="M276.1,233.92a5,5,0,0,0-4.46,2.38V234h-1.5v15.84h1.56V243.4a5.06,5.06,0,0,0,4.4,2.29,5.89,5.89,0,0,0,0-11.77ZM276,244.31a4.51,4.51,0,1,1,4.32-4.51A4.24,4.24,0,0,1,276,244.31Z" fill="#fff" fill-rule="evenodd"/><path d="M286.55,236.28V234h-1.49v11.57h1.56v-5.89c0-2.73,1.47-4.27,3.89-4.27l.38,0v-1.52C288.75,233.92,287.28,234.74,286.55,236.28Z" fill="#fff" fill-rule="evenodd"/><path d="M298.32,245.69a5.89,5.89,0,1,0-5.89-5.89,5.69,5.69,0,0,0,5.89,5.89Zm0-1.38a4.52,4.52,0,1,1,4.29-4.51A4.24,4.24,0,0,1,298.32,244.31Z" fill="#fff" fill-rule="evenodd"/><path d="M316.39,229.26v7a5.06,5.06,0,0,0-4.4-2.29,5.89,5.89,0,0,0,0,11.77,5,5,0,0,0,4.46-2.4v2.29H318V229.26Zm-4.27,15.05a4.52,4.52,0,1,1,4.29-4.51A4.24,4.24,0,0,1,312.12,244.31Z" fill="#fff" fill-rule="evenodd"/><path d="M331.17,234v6.07c0,2.64-1.52,4.2-3.94,4.2-2.2,0-3.47-1.25-3.47-3.71V234h-1.57v6.71c0,3.32,1.94,5,4.89,5a4.61,4.61,0,0,0,4.16-2.22v2.11h1.49V234Z" fill="#fff" fill-rule="evenodd"/><path d="M341.91,245.69a5.11,5.11,0,0,0,4.53-2.29l-1.17-.79a3.9,3.9,0,0,1-3.36,1.7,4.51,4.51,0,0,1,0-9,3.93,3.93,0,0,1,3.36,1.71l1.17-.79a5.06,5.06,0,0,0-4.53-2.29,5.89,5.89,0,1,0,0,11.77Z" fill="#fff" fill-rule="evenodd"/><path d="M355.17,243.76a2.61,2.61,0,0,1-1.71.59,1.86,1.86,0,0,1-2-2.11v-6.91H355V234h-3.52v-2.53h-1.56V234h-2.07v1.32h2.07v7a3.06,3.06,0,0,0,3.39,3.36,3.7,3.7,0,0,0,2.44-.81Z" fill="#fff" fill-rule="evenodd"/><path d="M362.87,245.69A5.89,5.89,0,1,0,357,239.8a5.69,5.69,0,0,0,5.89,5.89Zm0-1.38a4.52,4.52,0,1,1,4.29-4.51A4.24,4.24,0,0,1,362.87,244.31Z" fill="#fff" fill-rule="evenodd"/><path d="M73.24,259.6v6.95a5,5,0,0,0-4.4-2.29,5.89,5.89,0,0,0,0,11.77,5,5,0,0,0,4.47-2.4v2.29h1.5V259.6Zm-4.26,15a4.52,4.52,0,1,1,4.29-4.51A4.24,4.24,0,0,1,69,274.64Z" fill="#fff" fill-rule="evenodd"/><path d="M89.26,270.13a5.63,5.63,0,1,0-11.26,0,6.11,6.11,0,0,0,10.53,4l-.88-1a4.55,4.55,0,0,1-3.54,1.51,4.27,4.27,0,0,1-4.55-4h9.68c0-.18,0-.35,0-.49Zm-5.61-4.53a4,4,0,0,1,4.11,3.85h-8.2A4,4,0,0,1,83.65,265.6Z" fill="#fff" fill-rule="evenodd"/><rect x="98.21" y="259.6" width="1.56" height="16.32" fill="#fff"/><path d="M108.18,264.26a7.35,7.35,0,0,0-4.71,1.56l.71,1.17a5.86,5.86,0,0,1,3.85-1.37c2.15,0,3.27,1.08,3.27,3.06v.71h-3.67c-3.32,0-4.47,1.49-4.47,3.27,0,2,1.61,3.37,4.23,3.37a4.36,4.36,0,0,0,4-1.91v1.8h1.5v-7.17c0-3-1.7-4.49-4.69-4.49Zm-.55,10.54c-1.85,0-2.93-.84-2.93-2.18s.73-2.07,3-2.07h3.63v1.89A3.69,3.69,0,0,1,107.63,274.8Z" fill="#fff" fill-rule="evenodd"/><path d="M128.84,264.26a5,5,0,0,0-4.47,2.38v-2.29h-1.49v15.84h1.56v-6.45a5,5,0,0,0,4.4,2.29,5.89,5.89,0,0,0,0-11.77Zm-.11,10.38a4.51,4.51,0,1,1,4.31-4.51A4.23,4.23,0,0,1,128.73,274.64Z" fill="#fff" fill-rule="evenodd"/><rect x="137.79" y="259.6" width="1.56" height="16.32" fill="#fff"/><path d="M147.76,264.26a7.35,7.35,0,0,0-4.71,1.56l.7,1.17a5.9,5.9,0,0,1,3.85-1.37c2.16,0,3.28,1.08,3.28,3.06v.71h-3.67c-3.32,0-4.47,1.49-4.47,3.27,0,2,1.61,3.37,4.23,3.37a4.37,4.37,0,0,0,4-1.91v1.8h1.49v-7.17c0-3-1.69-4.49-4.68-4.49Zm-.55,10.54c-1.85,0-2.93-.84-2.93-2.18s.73-2.07,3-2.07h3.63v1.89A3.69,3.69,0,0,1,147.21,274.8Z" fill="#fff" fill-rule="evenodd"/><path d="M162.23,274.09a2.55,2.55,0,0,1-1.71.6,1.85,1.85,0,0,1-2-2.11v-6.91H162v-1.32h-3.52v-2.53H157v2.53h-2.06v1.32H157v7a3.07,3.07,0,0,0,3.39,3.37,3.7,3.7,0,0,0,2.44-.81Z" fill="#fff" fill-rule="evenodd"/><path d="M169.67,264.26a7.35,7.35,0,0,0-4.71,1.56l.71,1.17a5.86,5.86,0,0,1,3.85-1.37c2.15,0,3.27,1.08,3.27,3.06v.71h-3.67c-3.32,0-4.47,1.49-4.47,3.27,0,2,1.61,3.37,4.23,3.37a4.36,4.36,0,0,0,4-1.91v1.8h1.5v-7.17c0-3-1.7-4.49-4.69-4.49Zm-.55,10.54c-1.85,0-2.93-.84-2.93-2.18s.73-2.07,3-2.07h3.63v1.89A3.69,3.69,0,0,1,169.12,274.8Z" fill="#fff" fill-rule="evenodd"/><path d="M182.43,260.81a2.6,2.6,0,0,1,1.71.57l.53-1.17a3.68,3.68,0,0,0-2.31-.72,3.18,3.18,0,0,0-3.49,3.43v1.43H176.8v1.32h2.07v10.25h1.56V265.67H184v-1.32h-3.57V263C180.38,261.55,181.09,260.81,182.43,260.81Z" fill="#fff" fill-rule="evenodd"/><path d="M190.59,276a5.89,5.89,0,1,0-5.89-5.9,5.69,5.69,0,0,0,5.89,5.9Zm0-1.39a4.52,4.52,0,1,1,4.29-4.51A4.24,4.24,0,0,1,190.59,274.64Z" fill="#fff" fill-rule="evenodd"/><path d="M201.15,266.61v-2.26h-1.5v11.57h1.57V270c0-2.72,1.47-4.26,3.89-4.26l.37,0v-1.52C203.35,264.26,201.88,265.07,201.15,266.61Z" fill="#fff" fill-rule="evenodd"/><path d="M222.73,264.26a5,5,0,0,0-4.57,2.44,4.16,4.16,0,0,0-4.12-2.44,4.66,4.66,0,0,0-4.24,2.2v-2.11h-1.5v11.57h1.56v-6.07c0-2.64,1.52-4.18,3.87-4.18,2.12,0,3.35,1.25,3.35,3.69v6.56h1.56v-6.07c0-2.64,1.5-4.18,3.87-4.18,2.09,0,3.32,1.25,3.32,3.69v6.56h1.57v-6.71C227.4,265.89,225.55,264.26,222.73,264.26Z" fill="#fff" fill-rule="evenodd"/><path d="M235.69,264.26a7.35,7.35,0,0,0-4.71,1.56l.71,1.17a5.86,5.86,0,0,1,3.85-1.37c2.15,0,3.27,1.08,3.27,3.06v.71h-3.67c-3.32,0-4.46,1.49-4.46,3.27,0,2,1.6,3.37,4.22,3.37a4.36,4.36,0,0,0,4-1.91v1.8h1.5v-7.17c0-3-1.7-4.49-4.69-4.49Zm-.55,10.54c-1.85,0-2.93-.84-2.93-2.18s.73-2.07,3-2.07h3.63v1.89A3.69,3.69,0,0,1,235.14,274.8Z" fill="#fff" fill-rule="evenodd"/><path d="M255.18,276a5.08,5.08,0,0,0,4.53-2.29l-1.16-.79a3.91,3.91,0,0,1-3.37,1.69,4.51,4.51,0,0,1,0-9,3.93,3.93,0,0,1,3.37,1.72l1.16-.79a5,5,0,0,0-4.53-2.29,5.89,5.89,0,1,0,0,11.77Z" fill="#fff" fill-rule="evenodd"/><path d="M267.3,276a5.89,5.89,0,1,0-5.89-5.9,5.69,5.69,0,0,0,5.89,5.9Zm0-1.39a4.52,4.52,0,1,1,4.29-4.51A4.24,4.24,0,0,1,267.3,274.64Z" fill="#fff" fill-rule="evenodd"/><path d="M282.26,264.26a4.86,4.86,0,0,0-4.4,2.22v-2.13h-1.49v11.57h1.56v-6.07c0-2.64,1.56-4.18,4.05-4.18,2.2,0,3.47,1.25,3.47,3.69v6.56H287v-6.71C287,265.89,285.08,264.26,282.26,264.26Z" fill="#fff" fill-rule="evenodd"/><path d="M294.36,276c3,0,4.78-1.3,4.78-3.3,0-4.44-7.5-2.09-7.5-5.21,0-1.1.92-1.92,3-1.92a6,6,0,0,1,3.41,1l.68-1.25a7.83,7.83,0,0,0-4.09-1.08c-2.95,0-4.58,1.41-4.58,3.3,0,4.58,7.51,2.2,7.51,5.21,0,1.15-.91,1.9-3.11,1.9a7,7,0,0,1-4.11-1.3l-.7,1.23A7.73,7.73,0,0,0,294.36,276Z" fill="#fff" fill-rule="evenodd"/><path d="M302.81,261.82a1.13,1.13,0,0,0,1.15-1.15,1.15,1.15,0,0,0-2.29,0,1.13,1.13,0,0,0,1.14,1.12Zm-.79,14.1h1.56V264.35H302Z" fill="#fff" fill-rule="evenodd"/><path d="M316.94,259.6v6.95a5.06,5.06,0,0,0-4.4-2.29,5.89,5.89,0,0,0,0,11.77,5,5,0,0,0,4.46-2.4v2.29h1.5V259.6Zm-4.27,15a4.52,4.52,0,1,1,4.29-4.51A4.23,4.23,0,0,1,312.67,274.64Z" fill="#fff" fill-rule="evenodd"/><path d="M331,259.84h-2.09l-3,2.73h1.54l3.57-2.73ZM333,270.13a5.51,5.51,0,0,0-5.61-5.87,5.57,5.57,0,0,0-5.65,5.87,6.12,6.12,0,0,0,10.54,4l-.88-1a4.58,4.58,0,0,1-3.55,1.51,4.28,4.28,0,0,1-4.55-4h9.68c0-.18,0-.35,0-.49Zm-5.61-4.53a4,4,0,0,1,4.12,3.85h-8.21A4,4,0,0,1,327.34,265.6Z" fill="#fff" fill-rule="evenodd"/><path d="M337.64,266.61v-2.26h-1.5v11.57h1.56V270c0-2.72,1.48-4.26,3.9-4.26l.37,0v-1.52C339.84,264.26,338.36,265.07,337.64,266.61Z" fill="#fff" fill-rule="evenodd"/><path d="M348.81,264.26a7.32,7.32,0,0,0-4.7,1.56l.7,1.17a5.88,5.88,0,0,1,3.85-1.37c2.16,0,3.28,1.08,3.28,3.06v.71h-3.68c-3.32,0-4.46,1.49-4.46,3.27,0,2,1.6,3.37,4.22,3.37a4.34,4.34,0,0,0,4-1.91v1.8h1.5v-7.17c0-3-1.69-4.49-4.69-4.49Zm-.55,10.54c-1.84,0-2.92-.84-2.92-2.18s.72-2.07,3-2.07h3.63v1.89A3.72,3.72,0,0,1,348.26,274.8Z" fill="#fff" fill-rule="evenodd"/><rect x="357.75" y="259.6" width="1.56" height="16.32" fill="#fff"/><path d="M367.71,264.26a7.37,7.37,0,0,0-4.71,1.56l.71,1.17a5.86,5.86,0,0,1,3.85-1.37c2.15,0,3.28,1.08,3.28,3.06v.71h-3.68c-3.32,0-4.46,1.49-4.46,3.27,0,2,1.6,3.37,4.22,3.37a4.36,4.36,0,0,0,4-1.91v1.8h1.5v-7.17c0-3-1.7-4.49-4.69-4.49Zm-.55,10.54c-1.85,0-2.92-.84-2.92-2.18s.72-2.07,3-2.07h3.63v1.89A3.72,3.72,0,0,1,367.16,274.8Z" fill="#fff" fill-rule="evenodd"/><path d="M164.3,306.37a5.08,5.08,0,0,0,4.53-2.29l-1.16-.79A3.93,3.93,0,0,1,164.3,305a4.51,4.51,0,0,1,0-9,3.93,3.93,0,0,1,3.37,1.72l1.16-.79a5,5,0,0,0-4.53-2.29,5.89,5.89,0,1,0,0,11.77Z" fill="#fff" fill-rule="evenodd"/><path d="M176.42,306.37a5.89,5.89,0,1,0-5.89-5.9,5.7,5.7,0,0,0,5.89,5.9Zm0-1.39a4.52,4.52,0,1,1,4.29-4.51A4.24,4.24,0,0,1,176.42,305Z" fill="#fff" fill-rule="evenodd"/><path d="M199.92,294.6a5,5,0,0,0-4.58,2.44,4.15,4.15,0,0,0-4.11-2.44,4.68,4.68,0,0,0-4.25,2.2v-2.11h-1.49v11.57h1.56v-6.07c0-2.64,1.52-4.18,3.87-4.18,2.11,0,3.35,1.25,3.35,3.69v6.56h1.56v-6.07c0-2.64,1.49-4.18,3.87-4.18,2.09,0,3.32,1.25,3.32,3.69v6.56h1.56v-6.71C204.58,296.23,202.74,294.6,199.92,294.6Z" fill="#fff" fill-rule="evenodd"/><path d="M213.6,306.37a5.89,5.89,0,1,0-5.89-5.9,5.7,5.7,0,0,0,5.89,5.9Zm0-1.39a4.52,4.52,0,1,1,4.29-4.51A4.24,4.24,0,0,1,213.6,305Z" fill="#fff" fill-rule="evenodd"/><path d="M234,304.43a2.58,2.58,0,0,1-1.72.6,1.85,1.85,0,0,1-2-2.12V296h3.52v-1.32h-3.52v-2.53H228.7v2.53h-2.07V296h2.07v7a3.06,3.06,0,0,0,3.38,3.37,3.74,3.74,0,0,0,2.45-.82Z" fill="#fff" fill-rule="evenodd"/><path d="M246.23,294.69v6.07c0,2.64-1.52,4.2-3.94,4.2-2.2,0-3.47-1.25-3.47-3.72v-6.55h-1.57v6.71c0,3.32,1.94,5,4.89,5a4.63,4.63,0,0,0,4.16-2.22v2.11h1.49V294.69Z" fill="#fff" fill-rule="evenodd"/><path d="M260.35,294.69,256,304.52l-4.36-9.83H250l5.17,11.55-.5,1.12c-.66,1.45-1.37,1.93-2.4,1.93a2.85,2.85,0,0,1-2.11-.88l-.73,1.17a4,4,0,0,0,2.82,1.06c1.65,0,2.88-.73,3.85-3l5.78-12.95Z" fill="#fff" fill-rule="evenodd"/><path d="M267.79,294.6a7.35,7.35,0,0,0-4.71,1.56l.71,1.17a5.86,5.86,0,0,1,3.85-1.37c2.15,0,3.27,1.08,3.27,3.06v.7h-3.67c-3.32,0-4.47,1.5-4.47,3.28,0,2,1.61,3.37,4.23,3.37a4.34,4.34,0,0,0,4-1.92v1.81h1.49v-7.17c0-3-1.69-4.49-4.68-4.49Zm-.55,10.54c-1.85,0-2.93-.84-2.93-2.18,0-1.19.73-2.07,3-2.07h3.63v1.89A3.69,3.69,0,0,1,267.24,305.14Z" fill="#fff" fill-rule="evenodd"/><path d="M276.87,306.37a1.2,1.2,0,0,0,1.19-1.21,1.19,1.19,0,0,0-1.19-1.19,1.17,1.17,0,0,0-1.16,1.19A1.19,1.19,0,0,0,276.87,306.37Z" fill="#fff" fill-rule="evenodd"/><path d="M114.31,339.1h1.21l.33-10.78H114l.31,10.78Zm.61,4.73a1.14,1.14,0,0,0,1.15-1.14,1.16,1.16,0,0,0-2.31,0A1.14,1.14,0,0,0,114.92,343.83Z" fill="#fff" fill-rule="evenodd"/><path d="M124.54,343.86c3.93,0,5.74-1.94,5.74-4.21,0-5.61-9.48-3-9.48-7.28,0-1.54,1.25-2.79,4.07-2.79a8,8,0,0,1,4.22,1.27l.55-1.29a8.68,8.68,0,0,0-4.77-1.37c-3.92,0-5.68,2-5.68,4.23,0,5.69,9.48,3.1,9.48,7.32,0,1.52-1.25,2.73-4.13,2.73a7.56,7.56,0,0,1-5.09-1.87l-.63,1.25A8.34,8.34,0,0,0,124.54,343.86Z" fill="#fff" fill-rule="evenodd"/><path d="M134.28,329.62a1.12,1.12,0,0,0,1.15-1.14,1.11,1.11,0,0,0-1.15-1.08,1.11,1.11,0,1,0,0,2.22Zm-.79,14.1h1.56V332.15h-1.56Z" fill="#fff" fill-rule="evenodd"/><path d="M145.3,332.06a4.87,4.87,0,0,0-4.4,2.23v-2.14h-1.49v11.57H141v-6.07c0-2.64,1.56-4.18,4.05-4.18,2.2,0,3.47,1.26,3.47,3.7v6.55h1.57V337C150.06,333.69,148.12,332.06,145.3,332.06Z" fill="#fff" fill-rule="evenodd"/><path d="M160.86,329.62a1.11,1.11,0,0,0,1.14-1.14,1.1,1.1,0,0,0-1.14-1.08,1.11,1.11,0,1,0,0,2.22Zm-.79,14.1h1.56V332.15h-1.56Z" fill="#fff" fill-rule="evenodd"/><path d="M171.88,332.06a4.87,4.87,0,0,0-4.4,2.23v-2.14H166v11.57h1.57v-6.07c0-2.64,1.56-4.18,4-4.18,2.2,0,3.48,1.26,3.48,3.7v6.55h1.56V337C176.63,333.69,174.7,332.06,171.88,332.06Z" fill="#fff" fill-rule="evenodd"/><path d="M186.42,341.9a2.61,2.61,0,0,1-1.71.59,1.86,1.86,0,0,1-2-2.11v-6.91h3.52v-1.32H182.7v-2.53h-1.56v2.53h-2.07v1.32h2.07v7a3.06,3.06,0,0,0,3.39,3.36A3.7,3.7,0,0,0,187,343Z" fill="#fff" fill-rule="evenodd"/><path d="M199.49,337.94a5.51,5.51,0,0,0-5.61-5.88,5.57,5.57,0,0,0-5.65,5.88,6.11,6.11,0,0,0,10.53,4l-.88-1a4.56,4.56,0,0,1-3.54,1.52,4.28,4.28,0,0,1-4.55-4h9.68c0-.17,0-.35,0-.48Zm-5.61-4.53a4,4,0,0,1,4.11,3.85h-8.2A4,4,0,0,1,193.88,333.41Z" fill="#fff" fill-rule="evenodd"/><path d="M204.18,334.42v-2.27h-1.5v11.57h1.56v-5.89c0-2.73,1.48-4.27,3.9-4.27l.37,0v-1.52C206.38,332.06,204.9,332.88,204.18,334.42Z" fill="#fff" fill-rule="evenodd"/><path d="M225.76,332.06a5,5,0,0,0-4.58,2.45,4.15,4.15,0,0,0-4.11-2.45,4.7,4.7,0,0,0-4.25,2.2v-2.11h-1.49v11.57h1.56v-6.07c0-2.64,1.52-4.18,3.87-4.18,2.11,0,3.34,1.26,3.34,3.7v6.55h1.57v-6.07c0-2.64,1.49-4.18,3.87-4.18,2.09,0,3.32,1.26,3.32,3.7v6.55h1.56V337C230.42,333.69,228.57,332.06,225.76,332.06Z" fill="#fff" fill-rule="evenodd"/><path d="M244.81,337.94a5.51,5.51,0,0,0-5.61-5.88,5.57,5.57,0,0,0-5.65,5.88,6.11,6.11,0,0,0,10.53,4l-.88-1a4.56,4.56,0,0,1-3.54,1.52,4.28,4.28,0,0,1-4.55-4h9.68c0-.17,0-.35,0-.48Zm-5.61-4.53a4,4,0,0,1,4.11,3.85h-8.2A4,4,0,0,1,239.2,333.41Z" fill="#fff" fill-rule="evenodd"/><path d="M257,327.4v7a5.07,5.07,0,0,0-4.4-2.29,5.89,5.89,0,0,0,0,11.77,5,5,0,0,0,4.46-2.39v2.28h1.5V327.4Zm-4.27,15.05a4.52,4.52,0,1,1,4.29-4.51A4.24,4.24,0,0,1,252.73,342.45Z" fill="#fff" fill-rule="evenodd"/><path d="M263.71,329.62a1.11,1.11,0,0,0,1.14-1.14,1.1,1.1,0,0,0-1.14-1.08,1.11,1.11,0,1,0,0,2.22Zm-.79,14.1h1.56V332.15h-1.56Z" fill="#fff" fill-rule="evenodd"/><path d="M272.88,332.06a7.38,7.38,0,0,0-4.71,1.57l.71,1.16a5.9,5.9,0,0,1,3.85-1.36c2.15,0,3.28,1.08,3.28,3.06v.7h-3.68c-3.32,0-4.46,1.5-4.46,3.28,0,2,1.6,3.36,4.22,3.36a4.34,4.34,0,0,0,4-1.91v1.8h1.5v-7.17c0-3-1.7-4.49-4.69-4.49Zm-.55,10.54c-1.85,0-2.92-.83-2.92-2.18,0-1.18.72-2.06,3-2.06H276v1.89A3.71,3.71,0,0,1,272.33,342.6Z" fill="#fff" fill-rule="evenodd"/><path d="M283.31,334.42v-2.27h-1.5v11.57h1.57v-5.89c0-2.73,1.47-4.27,3.89-4.27l.37,0v-1.52C285.51,332.06,284,332.88,283.31,334.42Z" fill="#fff" fill-rule="evenodd"/><path d="M291.25,329.62a1.12,1.12,0,0,0,1.15-1.14,1.11,1.11,0,0,0-1.15-1.08,1.11,1.11,0,1,0,0,2.22Zm-.79,14.1H292V332.15h-1.56Z" fill="#fff" fill-rule="evenodd"/><path d="M301.11,343.83a5.89,5.89,0,1,0-5.9-5.89,5.68,5.68,0,0,0,5.9,5.89Zm0-1.38a4.52,4.52,0,1,1,4.29-4.51A4.24,4.24,0,0,1,301.11,342.45Z" fill="#fff" fill-rule="evenodd"/><path d="M313.27,343.83c3,0,4.78-1.29,4.78-3.3,0-4.44-7.5-2.08-7.5-5.21,0-1.1.92-1.91,3-1.91a5.88,5.88,0,0,1,3.41,1l.68-1.26a7.83,7.83,0,0,0-4.09-1.08c-2.95,0-4.58,1.41-4.58,3.3,0,4.58,7.51,2.21,7.51,5.22,0,1.14-.91,1.89-3.11,1.89a7,7,0,0,1-4.11-1.3l-.7,1.23A7.66,7.66,0,0,0,313.27,343.83Z" fill="#fff" fill-rule="evenodd"/><path d="M321,339.1h1.21l.33-10.78h-1.85L321,339.1Zm.61,4.73a1.14,1.14,0,0,0,1.15-1.14,1.16,1.16,0,0,0-2.31,0A1.14,1.14,0,0,0,321.61,343.83Z" fill="#fff" fill-rule="evenodd"/></svg>