<svg id="Capa_1" data-name="Capa 1" xmlns="http://www.w3.org/2000/svg" xmlns:xlink="http://www.w3.org/1999/xlink" width="154mm" height="154mm" viewBox="0 0 436.54 436.54"><defs><linearGradient id="GradientFill_1" x1="228.18" y1="203.67" x2="-40.12" y2="598.69" gradientUnits="userSpaceOnUse"><stop offset="0" stop-color="#292123"/><stop offset="0.48" stop-color="#3b3338"/><stop offset="1" stop-color="#1a1413"/></linearGradient></defs><title>QUESITO NEGRO CIRCULO 6</title><circle cx="218.27" cy="218.27" r="218.04" fill="url(#GradientFill_1)"/><polygon points="144.03 91.39 154.28 91.39 154.28 89.98 145.66 89.98 145.66 75.98 144.03 75.98 144.03 91.39" fill="#fff" fill-rule="evenodd"/><path d="M160.75,79.73A7.35,7.35,0,0,0,156,81.29l.7,1.16a5.94,5.94,0,0,1,3.85-1.36c2.16,0,3.28,1.08,3.28,3.06v.7H160.2c-3.32,0-4.47,1.5-4.47,3.28,0,2,1.61,3.37,4.23,3.37a4.35,4.35,0,0,0,4-1.92v1.81h1.49V84.21c0-3-1.69-4.48-4.68-4.48Zm-.55,10.53c-1.85,0-2.93-.83-2.93-2.17,0-1.19.73-2.07,3-2.07h3.63v1.89A3.69,3.69,0,0,1,160.2,90.26Z" fill="#fff" fill-rule="evenodd"/><path d="M181.41,79.73a5,5,0,0,0-4.47,2.37V79.81h-1.5V95.65H177V89.21a5.06,5.06,0,0,0,4.4,2.29,5.89,5.89,0,0,0,0-11.77Zm-.11,10.38a4.51,4.51,0,1,1,4.31-4.51A4.24,4.24,0,0,1,181.3,90.11Z" fill="#fff" fill-rule="evenodd"/><rect x="190.36" y="75.06" width="1.56" height="16.32" fill="#fff"/><path d="M200.33,79.73a7.33,7.33,0,0,0-4.71,1.56l.7,1.16a5.94,5.94,0,0,1,3.85-1.36c2.16,0,3.28,1.08,3.28,3.06v.7h-3.67c-3.33,0-4.47,1.5-4.47,3.28,0,2,1.61,3.37,4.22,3.37a4.36,4.36,0,0,0,4-1.92v1.81H205V84.21c0-3-1.69-4.48-4.68-4.48Zm-.55,10.53c-1.85,0-2.93-.83-2.93-2.17,0-1.19.73-2.07,3-2.07h3.63v1.89A3.69,3.69,0,0,1,199.78,90.26Z" fill="#fff" fill-rule="evenodd"/><path d="M214.8,89.56a2.56,2.56,0,0,1-1.71.59,1.85,1.85,0,0,1-2-2.11V81.13h3.52V79.81h-3.52V77.28h-1.56v2.53h-2.07v1.32h2.07v7a3.07,3.07,0,0,0,3.39,3.37,3.71,3.71,0,0,0,2.44-.82Z" fill="#fff" fill-rule="evenodd"/><path d="M222.24,79.73a7.35,7.35,0,0,0-4.71,1.56l.7,1.16a5.94,5.94,0,0,1,3.85-1.36c2.16,0,3.28,1.08,3.28,3.06v.7h-3.67c-3.32,0-4.47,1.5-4.47,3.28,0,2,1.61,3.37,4.23,3.37a4.35,4.35,0,0,0,4-1.92v1.81h1.49V84.21c0-3-1.69-4.48-4.68-4.48Zm-.55,10.53c-1.85,0-2.93-.83-2.93-2.17,0-1.19.73-2.07,3-2.07h3.63v1.89A3.69,3.69,0,0,1,221.69,90.26Z" fill="#fff" fill-rule="evenodd"/><path d="M235,76.27a2.65,2.65,0,0,1,1.71.57l.53-1.16a3.63,3.63,0,0,0-2.31-.73,3.19,3.19,0,0,0-3.5,3.43v1.43h-2.06v1.32h2.06V91.39H233V81.13h3.52V79.81H233V78.45C233,77,233.66,76.27,235,76.27Z" fill="#fff" fill-rule="evenodd"/><path d="M243.16,91.5a5.89,5.89,0,1,0-5.9-5.9,5.69,5.69,0,0,0,5.9,5.9Zm0-1.39a4.52,4.52,0,1,1,4.29-4.51A4.24,4.24,0,0,1,243.16,90.11Z" fill="#fff" fill-rule="evenodd"/><path d="M253.72,82.08V79.81h-1.5V91.39h1.57v-5.9c0-2.73,1.47-4.27,3.89-4.27l.37,0V79.73C255.92,79.73,254.45,80.54,253.72,82.08Z" fill="#fff" fill-rule="evenodd"/><path d="M275.3,79.73a5,5,0,0,0-4.57,2.44,4.16,4.16,0,0,0-4.12-2.44,4.66,4.66,0,0,0-4.24,2.2V79.81h-1.5V91.39h1.56V85.31c0-2.64,1.52-4.18,3.87-4.18,2.12,0,3.35,1.26,3.35,3.7v6.56h1.56V85.31c0-2.64,1.5-4.18,3.87-4.18,2.09,0,3.32,1.26,3.32,3.7v6.56H280V84.68C280,81.35,278.12,79.73,275.3,79.73Z" fill="#fff" fill-rule="evenodd"/><path d="M288.26,79.73a7.35,7.35,0,0,0-4.71,1.56l.71,1.16a5.9,5.9,0,0,1,3.85-1.36c2.15,0,3.27,1.08,3.27,3.06v.7h-3.67c-3.32,0-4.47,1.5-4.47,3.28,0,2,1.61,3.37,4.23,3.37a4.34,4.34,0,0,0,4-1.92v1.81H293V84.21c0-3-1.7-4.48-4.69-4.48Zm-.55,10.53c-1.85,0-2.93-.83-2.93-2.17,0-1.19.73-2.07,3-2.07h3.63v1.89A3.69,3.69,0,0,1,287.71,90.26Z" fill="#fff" fill-rule="evenodd"/><path d="M91.22,110.06a5,5,0,0,0-4.47,2.38v-2.29H85.26V126h1.56v-6.44a5.06,5.06,0,0,0,4.4,2.28,5.89,5.89,0,0,0,0-11.77Zm-.11,10.39a4.51,4.51,0,1,1,4.31-4.51A4.24,4.24,0,0,1,91.11,120.45Z" fill="#fff" fill-rule="evenodd"/><path d="M104.9,121.83A5.89,5.89,0,1,0,99,115.94a5.69,5.69,0,0,0,5.89,5.89Zm0-1.38a4.52,4.52,0,1,1,4.29-4.51A4.24,4.24,0,0,1,104.9,120.45Z" fill="#fff" fill-rule="evenodd"/><path d="M119.86,110.06a4.87,4.87,0,0,0-4.4,2.23v-2.14H114v11.57h1.56v-6.07c0-2.64,1.56-4.18,4-4.18,2.2,0,3.47,1.26,3.47,3.7v6.55h1.56V115C124.61,111.69,122.68,110.06,119.86,110.06Z" fill="#fff" fill-rule="evenodd"/><path d="M139,115.94a5.51,5.51,0,0,0-5.61-5.88,5.58,5.58,0,0,0-5.65,5.88,6.12,6.12,0,0,0,10.54,4l-.88-1a4.58,4.58,0,0,1-3.55,1.52,4.29,4.29,0,0,1-4.55-4H139c0-.17,0-.35,0-.48Zm-5.61-4.53a4,4,0,0,1,4.12,3.85H129.3A4,4,0,0,1,133.39,111.41Z" fill="#fff" fill-rule="evenodd"/><path d="M152,110.06a7.33,7.33,0,0,0-4.7,1.57l.7,1.16a5.92,5.92,0,0,1,3.85-1.36c2.16,0,3.28,1.08,3.28,3.06v.7h-3.68c-3.32,0-4.46,1.5-4.46,3.28,0,2,1.6,3.36,4.22,3.36a4.32,4.32,0,0,0,4-1.91v1.8h1.5v-7.17c0-3-1.69-4.49-4.69-4.49Zm-.55,10.54c-1.84,0-2.92-.83-2.92-2.18,0-1.18.72-2.06,3-2.06h3.63v1.89A3.71,3.71,0,0,1,151.45,120.6Z" fill="#fff" fill-rule="evenodd"/><path d="M172.24,119.9a2.59,2.59,0,0,1-1.71.59,1.85,1.85,0,0,1-2-2.11v-6.91h3.52v-1.32h-3.52v-2.53H167v2.53H164.9v1.32H167v7a3.06,3.06,0,0,0,3.39,3.36,3.7,3.7,0,0,0,2.44-.81Z" fill="#fff" fill-rule="evenodd"/><path d="M184.5,110.15v6.07c0,2.64-1.52,4.21-3.94,4.21-2.2,0-3.48-1.26-3.48-3.72v-6.56h-1.56v6.71c0,3.32,1.94,5,4.89,5a4.59,4.59,0,0,0,4.15-2.22v2.11h1.5V110.15Z" fill="#fff" fill-rule="evenodd"/><path d="M205.2,105.4v6.95a5.07,5.07,0,0,0-4.4-2.29,5.89,5.89,0,0,0,0,11.77,5,5,0,0,0,4.47-2.39v2.28h1.49V105.4Zm-4.27,15a4.52,4.52,0,1,1,4.29-4.51A4.24,4.24,0,0,1,200.93,120.45Z" fill="#fff" fill-rule="evenodd"/><path d="M211.91,107.62a1.11,1.11,0,0,0,1.14-1.14,1.1,1.1,0,0,0-1.14-1.08,1.11,1.11,0,1,0,0,2.22Zm-.79,14.1h1.56V110.15h-1.56Z" fill="#fff" fill-rule="evenodd"/><path d="M220.14,121.83c3,0,4.77-1.29,4.77-3.3,0-4.44-7.5-2.08-7.5-5.21,0-1.1.92-1.91,3-1.91a5.88,5.88,0,0,1,3.41,1l.69-1.26a7.87,7.87,0,0,0-4.1-1.08c-2.94,0-4.57,1.41-4.57,3.3,0,4.58,7.5,2.21,7.5,5.22,0,1.14-.9,1.89-3.1,1.89a7,7,0,0,1-4.12-1.3l-.7,1.23A7.69,7.69,0,0,0,220.14,121.83Z" fill="#fff" fill-rule="evenodd"/><path d="M233.76,110.06a5,5,0,0,0-4.47,2.38v-2.29h-1.5V126h1.57v-6.44a5,5,0,0,0,4.4,2.28,5.89,5.89,0,0,0,0-11.77Zm-.11,10.39a4.51,4.51,0,1,1,4.31-4.51A4.24,4.24,0,0,1,233.65,120.45Z" fill="#fff" fill-rule="evenodd"/><path d="M247.44,121.83a5.89,5.89,0,1,0-5.9-5.89,5.68,5.68,0,0,0,5.9,5.89Zm0-1.38a4.52,4.52,0,1,1,4.29-4.51A4.24,4.24,0,0,1,247.44,120.45Z" fill="#fff" fill-rule="evenodd"/><path d="M259.61,121.83c3,0,4.77-1.29,4.77-3.3,0-4.44-7.5-2.08-7.5-5.21,0-1.1.92-1.91,3-1.91a5.88,5.88,0,0,1,3.41,1l.68-1.26a7.8,7.8,0,0,0-4.09-1.08c-2.95,0-4.57,1.41-4.57,3.3,0,4.58,7.5,2.21,7.5,5.22,0,1.14-.9,1.89-3.1,1.89a7,7,0,0,1-4.12-1.3l-.7,1.23A7.67,7.67,0,0,0,259.61,121.83Z" fill="#fff" fill-rule="evenodd"/><path d="M268.05,107.62a1.12,1.12,0,0,0,1.15-1.14,1.11,1.11,0,0,0-1.15-1.08,1.11,1.11,0,1,0,0,2.22Zm-.79,14.1h1.56V110.15h-1.56Z" fill="#fff" fill-rule="evenodd"/><path d="M278,121.83a5.12,5.12,0,0,0,4.53-2.28l-1.17-.8a3.9,3.9,0,0,1-3.36,1.7,4.51,4.51,0,0,1,0-9,3.93,3.93,0,0,1,3.36,1.71l1.17-.79a5.06,5.06,0,0,0-4.53-2.29,5.89,5.89,0,1,0,0,11.77Z" fill="#fff" fill-rule="evenodd"/><path d="M286.36,107.62a1.11,1.11,0,0,0,1.14-1.14,1.1,1.1,0,0,0-1.14-1.08,1.11,1.11,0,1,0,0,2.22Zm-.79,14.1h1.56V110.15h-1.56Z" fill="#fff" fill-rule="evenodd"/><path d="M294.76,108.37h1.54l3.56-2.73h-2.09l-3,2.73Zm1.45,13.46a5.89,5.89,0,1,0-5.89-5.89,5.69,5.69,0,0,0,5.89,5.89Zm0-1.38a4.52,4.52,0,1,1,4.29-4.51A4.24,4.24,0,0,1,296.21,120.45Z" fill="#fff" fill-rule="evenodd"/><path d="M311.17,110.06a4.87,4.87,0,0,0-4.4,2.23v-2.14h-1.49v11.57h1.56v-6.07c0-2.64,1.56-4.18,4.05-4.18,2.2,0,3.47,1.26,3.47,3.7v6.55h1.56V115C315.92,111.69,314,110.06,311.17,110.06Z" fill="#fff" fill-rule="evenodd"/><path d="M334.8,110.15v6.07c0,2.64-1.52,4.21-3.94,4.21-2.2,0-3.47-1.26-3.47-3.72v-6.56h-1.57v6.71c0,3.32,1.94,5,4.89,5a4.61,4.61,0,0,0,4.16-2.22v2.11h1.49V110.15Z" fill="#fff" fill-rule="evenodd"/><path d="M346.64,110.06a4.86,4.86,0,0,0-4.4,2.23v-2.14h-1.5v11.57h1.56v-6.07c0-2.64,1.56-4.18,4.05-4.18,2.2,0,3.48,1.26,3.48,3.7v6.55h1.56V115C351.39,111.69,349.45,110.06,346.64,110.06Z" fill="#fff" fill-rule="evenodd"/><path d="M56.22,152.17c3,0,4.77-1.3,4.77-3.3,0-4.44-7.5-2.08-7.5-5.21,0-1.1.92-1.92,3-1.92a6,6,0,0,1,3.41,1l.68-1.25a7.8,7.8,0,0,0-4.09-1.08c-3,0-4.57,1.41-4.57,3.3,0,4.58,7.5,2.21,7.5,5.22,0,1.14-.9,1.89-3.1,1.89a7,7,0,0,1-4.12-1.3l-.7,1.23A7.67,7.67,0,0,0,56.22,152.17Z" fill="#fff" fill-rule="evenodd"/><path d="M64.66,138a1.13,1.13,0,0,0,1.15-1.14,1.11,1.11,0,0,0-1.15-1.08,1.11,1.11,0,1,0,0,2.22Zm-.79,14.1h1.56V140.49H63.87Z" fill="#fff" fill-rule="evenodd"/><path d="M72.89,152.17c3,0,4.78-1.3,4.78-3.3,0-4.44-7.51-2.08-7.51-5.21,0-1.1.93-1.92,3-1.92a6,6,0,0,1,3.41,1l.68-1.25a7.86,7.86,0,0,0-4.09-1.08c-3,0-4.58,1.41-4.58,3.3,0,4.58,7.5,2.21,7.5,5.22,0,1.14-.9,1.89-3.1,1.89a6.94,6.94,0,0,1-4.11-1.3l-.71,1.23A7.72,7.72,0,0,0,72.89,152.17Z" fill="#fff" fill-rule="evenodd"/><path d="M86.09,150.24a2.61,2.61,0,0,1-1.71.59,1.86,1.86,0,0,1-2-2.11v-6.91h3.52v-1.32H82.37V138H80.81v2.53H78.74v1.32h2.07v7a3.06,3.06,0,0,0,3.39,3.36,3.7,3.7,0,0,0,2.44-.81Z" fill="#fff" fill-rule="evenodd"/><path d="M99.16,146.28a5.64,5.64,0,1,0-11.26,0,6.11,6.11,0,0,0,10.53,4l-.88-1A4.56,4.56,0,0,1,94,150.79a4.28,4.28,0,0,1-4.55-4h9.68c0-.18,0-.35,0-.48Zm-5.61-4.54a4,4,0,0,1,4.11,3.85h-8.2A4,4,0,0,1,93.55,141.74Z" fill="#fff" fill-rule="evenodd"/><path d="M116.78,140.4a5,5,0,0,0-4.57,2.44,4.17,4.17,0,0,0-4.12-2.44,4.68,4.68,0,0,0-4.24,2.2v-2.11h-1.5v11.57h1.56V146c0-2.64,1.52-4.18,3.87-4.18,2.12,0,3.35,1.25,3.35,3.7v6.55h1.56V146c0-2.64,1.5-4.18,3.87-4.18,2.09,0,3.32,1.25,3.32,3.7v6.55h1.57v-6.71C121.45,142,119.6,140.4,116.78,140.4Z" fill="#fff" fill-rule="evenodd"/><path d="M129.74,140.4A7.35,7.35,0,0,0,125,142l.71,1.17a5.85,5.85,0,0,1,3.85-1.36c2.15,0,3.27,1.07,3.27,3v.71h-3.67c-3.32,0-4.47,1.49-4.47,3.28,0,2,1.61,3.36,4.23,3.36a4.34,4.34,0,0,0,4-1.91v1.8h1.5v-7.17c0-3-1.7-4.49-4.69-4.49Zm-.55,10.54c-1.85,0-2.93-.84-2.93-2.18,0-1.19.73-2.07,3-2.07h3.63v1.9A3.7,3.7,0,0,1,129.19,150.94Z" fill="#fff" fill-rule="evenodd"/><path d="M153.43,135.74v6.95a5,5,0,0,0-4.4-2.29,5.89,5.89,0,0,0,0,11.77,5,5,0,0,0,4.47-2.4v2.29H155V135.74Zm-4.26,15a4.52,4.52,0,1,1,4.29-4.51A4.24,4.24,0,0,1,149.17,150.79Z" fill="#fff" fill-rule="evenodd"/><path d="M169.45,146.28a5.64,5.64,0,1,0-11.26,0,6.11,6.11,0,0,0,10.53,4l-.88-1a4.56,4.56,0,0,1-3.54,1.52,4.28,4.28,0,0,1-4.55-4h9.68c0-.18,0-.35,0-.48Zm-5.61-4.54a4,4,0,0,1,4.11,3.85h-8.2A4,4,0,0,1,163.84,141.74Z" fill="#fff" fill-rule="evenodd"/><path d="M179.9,142.76v-2.27h-1.5v11.57H180v-5.89c0-2.73,1.47-4.27,3.89-4.27l.37,0V140.4C182.1,140.4,180.63,141.22,179.9,142.76Z" fill="#fff" fill-rule="evenodd"/><path d="M197,146.28a5.52,5.52,0,0,0-5.61-5.88,5.58,5.58,0,0,0-5.66,5.88,6.12,6.12,0,0,0,10.54,4l-.88-1a4.56,4.56,0,0,1-3.54,1.52,4.28,4.28,0,0,1-4.55-4H197c0-.18,0-.35,0-.48Zm-5.61-4.54a4,4,0,0,1,4.11,3.85h-8.2A4,4,0,0,1,191.43,141.74Z" fill="#fff" fill-rule="evenodd"/><path d="M209.45,140.49v2.22a5.22,5.22,0,0,0-4.58-2.31,5.61,5.61,0,1,0,0,11.22,5.22,5.22,0,0,0,4.51-2.24v1.47c0,2.86-1.34,4.2-4.27,4.2a6.88,6.88,0,0,1-4.55-1.58l-.79,1.19a8.08,8.08,0,0,0,5.39,1.78c3.82,0,5.78-1.8,5.78-5.79V140.49ZM205,150.24a4.24,4.24,0,1,1,4.4-4.25A4.13,4.13,0,0,1,205,150.24Z" fill="#fff" fill-rule="evenodd"/><path d="M216.11,138a1.13,1.13,0,0,0,1.15-1.14,1.15,1.15,0,0,0-2.29,0,1.13,1.13,0,0,0,1.14,1.12Zm-.79,14.1h1.56V140.49h-1.56Z" fill="#fff" fill-rule="evenodd"/><path d="M224.34,152.17c3,0,4.77-1.3,4.77-3.3,0-4.44-7.5-2.08-7.5-5.21,0-1.1.93-1.92,3-1.92a6,6,0,0,1,3.41,1l.68-1.25a7.86,7.86,0,0,0-4.09-1.08c-2.95,0-4.58,1.41-4.58,3.3,0,4.58,7.5,2.21,7.5,5.22,0,1.14-.9,1.89-3.1,1.89a6.94,6.94,0,0,1-4.11-1.3l-.71,1.23A7.72,7.72,0,0,0,224.34,152.17Z" fill="#fff" fill-rule="evenodd"/><path d="M237.54,150.24a2.62,2.62,0,0,1-1.72.59,1.86,1.86,0,0,1-2-2.11v-6.91h3.52v-1.32h-3.52V138h-1.56v2.53h-2.07v1.32h2.07v7a3.06,3.06,0,0,0,3.39,3.36,3.72,3.72,0,0,0,2.44-.81Z" fill="#fff" fill-rule="evenodd"/><path d="M242.42,142.76v-2.27h-1.49v11.57h1.56v-5.89c0-2.73,1.47-4.27,3.89-4.27l.38,0V140.4C244.62,140.4,243.15,141.22,242.42,142.76Z" fill="#fff" fill-rule="evenodd"/><path d="M254.19,152.17a5.89,5.89,0,1,0-5.89-5.89,5.69,5.69,0,0,0,5.89,5.89Zm0-1.38a4.52,4.52,0,1,1,4.29-4.51A4.24,4.24,0,0,1,254.19,150.79Z" fill="#fff" fill-rule="evenodd"/><path d="M278,135.74v6.95a5,5,0,0,0-4.4-2.29,5.89,5.89,0,0,0,0,11.77,5,5,0,0,0,4.46-2.4v2.29h1.5V135.74Zm-4.27,15a4.52,4.52,0,1,1,4.29-4.51A4.24,4.24,0,0,1,273.75,150.79Z" fill="#fff" fill-rule="evenodd"/><path d="M294,146.28a5.51,5.51,0,0,0-5.61-5.88,5.57,5.57,0,0,0-5.65,5.88,6.12,6.12,0,0,0,10.54,4l-.88-1a4.58,4.58,0,0,1-3.54,1.52,4.29,4.29,0,0,1-4.56-4H294c0-.18,0-.35,0-.48Zm-5.61-4.54a4,4,0,0,1,4.12,3.85h-8.21A4,4,0,0,1,288.42,141.74Z" fill="#fff" fill-rule="evenodd"/><path d="M307.78,152.17a5.11,5.11,0,0,0,4.54-2.29l-1.17-.79a3.91,3.91,0,0,1-3.37,1.7,4.51,4.51,0,0,1,0-9,3.94,3.94,0,0,1,3.37,1.71l1.17-.79a5.07,5.07,0,0,0-4.54-2.29,5.89,5.89,0,1,0,0,11.77Z" fill="#fff" fill-rule="evenodd"/><rect x="315.2" y="135.74" width="1.56" height="16.32" fill="#fff"/><path d="M321.91,138a1.12,1.12,0,0,0,1.14-1.14,1.1,1.1,0,0,0-1.14-1.08,1.11,1.11,0,1,0,0,2.22Zm-.79,14.1h1.56V140.49h-1.56Z" fill="#fff" fill-rule="evenodd"/><path d="M337.13,146.28a5.51,5.51,0,0,0-5.61-5.88,5.57,5.57,0,0,0-5.65,5.88,6.12,6.12,0,0,0,10.54,4l-.88-1a4.58,4.58,0,0,1-3.55,1.52,4.29,4.29,0,0,1-4.55-4h9.68c0-.18,0-.35,0-.48Zm-5.61-4.54a4,4,0,0,1,4.12,3.85h-8.21A4,4,0,0,1,331.52,141.74Z" fill="#fff" fill-rule="evenodd"/><path d="M346.22,140.4a4.87,4.87,0,0,0-4.4,2.22v-2.13h-1.5v11.57h1.56V146c0-2.64,1.57-4.18,4.05-4.18,2.2,0,3.48,1.25,3.48,3.7v6.55H351v-6.71C351,142,349,140.4,346.22,140.4Z" fill="#fff" fill-rule="evenodd"/><path d="M360.76,150.24a2.62,2.62,0,0,1-1.72.59,1.86,1.86,0,0,1-2-2.11v-6.91h3.52v-1.32H357V138h-1.56v2.53h-2.07v1.32h2.07v7a3.06,3.06,0,0,0,3.39,3.36,3.72,3.72,0,0,0,2.44-.81Z" fill="#fff" fill-rule="evenodd"/><path d="M373.83,146.28a5.52,5.52,0,0,0-5.61-5.88,5.58,5.58,0,0,0-5.66,5.88,6.12,6.12,0,0,0,10.54,4l-.88-1a4.56,4.56,0,0,1-3.54,1.52,4.28,4.28,0,0,1-4.55-4h9.68c0-.18,0-.35,0-.48Zm-5.61-4.54a4,4,0,0,1,4.11,3.85h-8.2A4,4,0,0,1,368.22,141.74Z" fill="#fff" fill-rule="evenodd"/><path d="M380.12,152.17c3,0,4.77-1.3,4.77-3.3,0-4.44-7.5-2.08-7.5-5.21,0-1.1.93-1.92,3-1.92a6,6,0,0,1,3.41,1l.68-1.25a7.86,7.86,0,0,0-4.09-1.08c-3,0-4.58,1.41-4.58,3.3,0,4.58,7.5,2.21,7.5,5.22,0,1.14-.9,1.89-3.1,1.89a6.94,6.94,0,0,1-4.11-1.3l-.71,1.23A7.72,7.72,0,0,0,380.12,152.17Z" fill="#fff" fill-rule="evenodd"/><path d="M103.93,170.83v2.29a5,5,0,0,0-4.46-2.38,5.89,5.89,0,0,0,0,11.77,5,5,0,0,0,4.4-2.29v6.45h1.56V170.83ZM99.6,181.12a4.52,4.52,0,1,1,4.29-4.51A4.24,4.24,0,0,1,99.6,181.12Z" fill="#fff" fill-rule="evenodd"/><path d="M118.65,170.83v6.07c0,2.64-1.52,4.2-3.94,4.2-2.2,0-3.47-1.25-3.47-3.72v-6.55h-1.56v6.71c0,3.32,1.93,5,4.88,5a4.61,4.61,0,0,0,4.16-2.22v2.11h1.49V170.83Z" fill="#fff" fill-rule="evenodd"/><path d="M134.69,176.61a5.63,5.63,0,1,0-11.26,0,6.11,6.11,0,0,0,10.53,4l-.88-1a4.55,4.55,0,0,1-3.54,1.51,4.27,4.27,0,0,1-4.55-4h9.68c0-.18,0-.35,0-.49Zm-5.61-4.53a4,4,0,0,1,4.11,3.85H125A4,4,0,0,1,129.08,172.08Z" fill="#fff" fill-rule="evenodd"/><path d="M153.74,176.61a5.51,5.51,0,0,0-5.61-5.87,5.57,5.57,0,0,0-5.65,5.87,6.12,6.12,0,0,0,10.54,4l-.88-1a4.58,4.58,0,0,1-3.55,1.51,4.28,4.28,0,0,1-4.55-4h9.68c0-.18,0-.35,0-.49Zm-5.61-4.53a4,4,0,0,1,4.12,3.85H144A4,4,0,0,1,148.13,172.08Z" fill="#fff" fill-rule="evenodd"/><path d="M160,182.51c3,0,4.78-1.3,4.78-3.3,0-4.44-7.5-2.09-7.5-5.21,0-1.1.92-1.92,3-1.92a6,6,0,0,1,3.41,1l.68-1.25a7.83,7.83,0,0,0-4.09-1.08c-2.95,0-4.58,1.41-4.58,3.3,0,4.58,7.51,2.2,7.51,5.21,0,1.15-.91,1.9-3.11,1.9a7,7,0,0,1-4.11-1.3l-.7,1.23A7.73,7.73,0,0,0,160,182.51Z" fill="#fff" fill-rule="evenodd"/><polygon points="181.64 170.83 177.26 180.68 172.93 170.83 171.3 170.83 176.42 182.4 178.03 182.4 183.18 170.83 181.64 170.83" fill="#fff" fill-rule="evenodd"/><path d="M189.07,170.74a7.32,7.32,0,0,0-4.7,1.56l.7,1.17a5.88,5.88,0,0,1,3.85-1.37c2.16,0,3.28,1.08,3.28,3.06v.71h-3.68c-3.32,0-4.46,1.49-4.46,3.27,0,2,1.6,3.37,4.22,3.37a4.34,4.34,0,0,0,4-1.91v1.8h1.5v-7.17c0-3-1.69-4.49-4.69-4.49Zm-.55,10.54c-1.84,0-2.92-.84-2.92-2.18,0-1.19.72-2.07,3-2.07h3.63v1.89A3.72,3.72,0,0,1,188.52,181.28Z" fill="#fff" fill-rule="evenodd"/><rect x="198.01" y="166.08" width="1.56" height="16.32" fill="#fff"/><path d="M204.72,168.3a1.12,1.12,0,0,0,1.14-1.15,1.11,1.11,0,0,0-1.14-1.07,1.11,1.11,0,1,0,0,2.22Zm-.8,14.1h1.57V170.83h-1.57Z" fill="#fff" fill-rule="evenodd"/><path d="M218.84,166.08V173a5,5,0,0,0-4.4-2.29,5.89,5.89,0,0,0,0,11.77,5,5,0,0,0,4.47-2.4v2.29h1.49V166.08Zm-4.27,15a4.52,4.52,0,1,1,4.29-4.51A4.24,4.24,0,0,1,214.57,181.12Z" fill="#fff" fill-rule="evenodd"/><path d="M228.81,170.74a7.33,7.33,0,0,0-4.71,1.56l.7,1.17a5.9,5.9,0,0,1,3.85-1.37c2.16,0,3.28,1.08,3.28,3.06v.71h-3.67c-3.33,0-4.47,1.49-4.47,3.27,0,2,1.61,3.37,4.22,3.37a4.37,4.37,0,0,0,4-1.91v1.8h1.49v-7.17c0-3-1.69-4.49-4.68-4.49Zm-.55,10.54c-1.85,0-2.93-.84-2.93-2.18,0-1.19.73-2.07,3-2.07h3.63v1.89A3.7,3.7,0,0,1,228.26,181.28Z" fill="#fff" fill-rule="evenodd"/><path d="M246.78,166.08V173a5,5,0,0,0-4.4-2.29,5.89,5.89,0,0,0,0,11.77,5,5,0,0,0,4.47-2.4v2.29h1.49V166.08Zm-4.27,15a4.52,4.52,0,1,1,4.29-4.51A4.24,4.24,0,0,1,242.51,181.12Z" fill="#fff" fill-rule="evenodd"/><path d="M257.43,182.51a5.89,5.89,0,1,0-5.9-5.9,5.69,5.69,0,0,0,5.9,5.9Zm0-1.39a4.52,4.52,0,1,1,4.29-4.51A4.23,4.23,0,0,1,257.43,181.12Z" fill="#fff" fill-rule="evenodd"/><path d="M278.22,170.74a5,5,0,0,0-4.47,2.38v-2.29h-1.5v15.84h1.57v-6.45a5,5,0,0,0,4.4,2.29,5.89,5.89,0,0,0,0-11.77Zm-.11,10.38a4.51,4.51,0,1,1,4.31-4.51A4.23,4.23,0,0,1,278.11,181.12Z" fill="#fff" fill-rule="evenodd"/><path d="M291.9,182.51a5.89,5.89,0,1,0-5.9-5.9,5.69,5.69,0,0,0,5.9,5.9Zm0-1.39a4.52,4.52,0,1,1,4.29-4.51A4.24,4.24,0,0,1,291.9,181.12Z" fill="#fff" fill-rule="evenodd"/><path d="M302.46,173.09v-2.26H301V182.4h1.57v-5.9c0-2.72,1.47-4.26,3.89-4.26l.37,0v-1.52C304.66,170.74,303.19,171.55,302.46,173.09Z" fill="#fff" fill-rule="evenodd"/><rect x="315.55" y="166.08" width="1.56" height="16.32" fill="#fff"/><path d="M326.2,182.51a5.89,5.89,0,1,0-5.9-5.9,5.69,5.69,0,0,0,5.9,5.9Zm0-1.39a4.52,4.52,0,1,1,4.29-4.51A4.23,4.23,0,0,1,326.2,181.12Z" fill="#fff" fill-rule="evenodd"/><path d="M338.36,182.51c3,0,4.78-1.3,4.78-3.3,0-4.44-7.5-2.09-7.5-5.21,0-1.1.92-1.92,3-1.92a6,6,0,0,1,3.41,1l.68-1.25a7.83,7.83,0,0,0-4.09-1.08c-2.95,0-4.58,1.41-4.58,3.3,0,4.58,7.51,2.2,7.51,5.21,0,1.15-.91,1.9-3.11,1.9a7,7,0,0,1-4.11-1.3l-.7,1.23A7.73,7.73,0,0,0,338.36,182.51Z" fill="#fff" fill-rule="evenodd"/><path d="M77.6,201.08a5.05,5.05,0,0,0-4.47,2.37v-2.28H71.64V217H73.2v-6.45a5,5,0,0,0,4.4,2.29,5.89,5.89,0,0,0,0-11.77Zm-.11,10.38A4.51,4.51,0,1,1,81.8,207,4.24,4.24,0,0,1,77.49,211.46Z" fill="#fff" fill-rule="evenodd"/><path d="M88.05,203.43v-2.26h-1.5v11.57h1.57v-5.9c0-2.73,1.47-4.27,3.89-4.27.11,0,.24,0,.37,0v-1.52C90.25,201.08,88.78,201.89,88.05,203.43Z" fill="#fff" fill-rule="evenodd"/><path d="M99.82,212.85a5.89,5.89,0,1,0-5.9-5.9,5.69,5.69,0,0,0,5.9,5.9Zm0-1.39a4.52,4.52,0,1,1,4.29-4.51A4.24,4.24,0,0,1,99.82,211.46Z" fill="#fff" fill-rule="evenodd"/><path d="M114.85,201.08a5,5,0,0,0-4.47,2.37v-2.28h-1.5V217h1.57v-6.45a5,5,0,0,0,4.4,2.29,5.89,5.89,0,0,0,0-11.77Zm-.11,10.38a4.51,4.51,0,1,1,4.31-4.51A4.24,4.24,0,0,1,114.74,211.46Z" fill="#fff" fill-rule="evenodd"/><path d="M124.59,198.64a1.13,1.13,0,0,0,1.15-1.15,1.15,1.15,0,0,0-2.29,0,1.13,1.13,0,0,0,1.14,1.13Zm-.79,14.1h1.56V201.17H123.8Z" fill="#fff" fill-rule="evenodd"/><path d="M139.82,207a5.52,5.52,0,0,0-5.61-5.87,5.57,5.57,0,0,0-5.66,5.87,6.12,6.12,0,0,0,10.54,4l-.88-1a4.53,4.53,0,0,1-3.54,1.52,4.29,4.29,0,0,1-4.56-4h9.68c0-.18,0-.36,0-.49Zm-5.61-4.53a4,4,0,0,1,4.11,3.85h-8.21A4,4,0,0,1,134.21,202.42Z" fill="#fff" fill-rule="evenodd"/><path d="M148.55,210.91a2.58,2.58,0,0,1-1.72.6,1.86,1.86,0,0,1-2-2.12v-6.9h3.52v-1.32h-3.52v-2.53h-1.56v2.53H141.2v1.32h2.07v7a3.07,3.07,0,0,0,3.39,3.37,3.73,3.73,0,0,0,2.44-.82Z" fill="#fff" fill-rule="evenodd"/><path d="M156,201.08a7.33,7.33,0,0,0-4.71,1.56l.7,1.17a5.9,5.9,0,0,1,3.85-1.37c2.16,0,3.28,1.08,3.28,3.06v.7h-3.67c-3.33,0-4.47,1.5-4.47,3.28,0,2,1.61,3.37,4.22,3.37a4.36,4.36,0,0,0,4-1.92v1.81h1.49v-7.17c0-3-1.69-4.49-4.68-4.49Zm-.55,10.54c-1.85,0-2.93-.84-2.93-2.18,0-1.19.73-2.07,3-2.07h3.63v1.89A3.7,3.7,0,0,1,155.44,211.62Z" fill="#fff" fill-rule="evenodd"/><path d="M166.41,203.43v-2.26h-1.49v11.57h1.56v-5.9c0-2.73,1.47-4.27,3.89-4.27.11,0,.25,0,.38,0v-1.52C168.61,201.08,167.14,201.89,166.41,203.43Z" fill="#fff" fill-rule="evenodd"/><path d="M174.36,198.64a1.12,1.12,0,1,0-1.15-1.13,1.14,1.14,0,0,0,1.15,1.13Zm-.8,14.1h1.57V201.17h-1.57Z" fill="#fff" fill-rule="evenodd"/><path d="M184.21,212.85a5.89,5.89,0,1,0-5.89-5.9,5.7,5.7,0,0,0,5.89,5.9Zm0-1.39A4.52,4.52,0,1,1,188.5,207,4.24,4.24,0,0,1,184.21,211.46Z" fill="#fff" fill-rule="evenodd"/><path d="M196.38,212.85c3,0,4.77-1.3,4.77-3.3,0-4.44-7.5-2.09-7.5-5.22,0-1.1.92-1.91,3-1.91a6,6,0,0,1,3.41,1l.69-1.25a7.87,7.87,0,0,0-4.1-1.08c-2.94,0-4.57,1.41-4.57,3.3,0,4.57,7.5,2.2,7.5,5.21,0,1.15-.9,1.89-3.1,1.89a7.06,7.06,0,0,1-4.12-1.29l-.7,1.23A7.76,7.76,0,0,0,196.38,212.85Z" fill="#fff" fill-rule="evenodd"/><path d="M215.76,201.08a5.05,5.05,0,0,0-4.47,2.37v-2.28H209.8V217h1.56v-6.45a5,5,0,0,0,4.4,2.29,5.89,5.89,0,0,0,0-11.77Zm-.11,10.38A4.51,4.51,0,1,1,220,207,4.24,4.24,0,0,1,215.65,211.46Z" fill="#fff" fill-rule="evenodd"/><path d="M226.21,203.43v-2.26h-1.5v11.57h1.57v-5.9c0-2.73,1.47-4.27,3.89-4.27.11,0,.24,0,.37,0v-1.52C228.41,201.08,226.94,201.89,226.21,203.43Z" fill="#fff" fill-rule="evenodd"/><path d="M243.35,207a5.52,5.52,0,0,0-5.61-5.87,5.57,5.57,0,0,0-5.66,5.87,6.12,6.12,0,0,0,10.54,4l-.88-1a4.53,4.53,0,0,1-3.54,1.52,4.27,4.27,0,0,1-4.55-4h9.68c0-.18,0-.36,0-.49Zm-5.61-4.53a4,4,0,0,1,4.11,3.85h-8.2A4,4,0,0,1,237.74,202.42Z" fill="#fff" fill-rule="evenodd"/><polygon points="254.5 201.17 250.12 211.02 245.79 201.17 244.16 201.17 249.29 212.74 250.89 212.74 256.04 201.17 254.5 201.17" fill="#fff" fill-rule="evenodd"/><path d="M259,198.64a1.13,1.13,0,0,0,1.15-1.15,1.12,1.12,0,0,0-1.15-1.08,1.12,1.12,0,1,0,0,2.23Zm-.79,14.1h1.56V201.17h-1.56Z" fill="#fff" fill-rule="evenodd"/><path d="M268.21,201.08a7.35,7.35,0,0,0-4.71,1.56l.7,1.17a5.9,5.9,0,0,1,3.85-1.37c2.16,0,3.28,1.08,3.28,3.06v.7h-3.67c-3.33,0-4.47,1.5-4.47,3.28,0,2,1.61,3.37,4.23,3.37a4.35,4.35,0,0,0,4-1.92v1.81h1.49v-7.17c0-3-1.69-4.49-4.68-4.49Zm-.55,10.54c-1.85,0-2.93-.84-2.93-2.18,0-1.19.73-2.07,3-2.07h3.63v1.89A3.69,3.69,0,0,1,267.66,211.62Z" fill="#fff" fill-rule="evenodd"/><path d="M291.57,201.08a5,5,0,0,0-4.58,2.44,4.15,4.15,0,0,0-4.11-2.44,4.68,4.68,0,0,0-4.25,2.2v-2.11h-1.49v11.57h1.56v-6.07c0-2.64,1.52-4.18,3.87-4.18,2.11,0,3.35,1.25,3.35,3.69v6.56h1.56v-6.07c0-2.64,1.49-4.18,3.87-4.18,2.09,0,3.32,1.25,3.32,3.69v6.56h1.56V206C296.23,202.71,294.39,201.08,291.57,201.08Z" fill="#fff" fill-rule="evenodd"/><path d="M310.62,207a5.51,5.51,0,0,0-5.61-5.87,5.57,5.57,0,0,0-5.65,5.87,6.12,6.12,0,0,0,10.54,4l-.88-1a4.55,4.55,0,0,1-3.55,1.52,4.28,4.28,0,0,1-4.55-4h9.68c0-.18,0-.36,0-.49ZM305,202.42a4,4,0,0,1,4.12,3.85h-8.21A4,4,0,0,1,305,202.42Z" fill="#fff" fill-rule="evenodd"/><path d="M319.71,201.08a4.85,4.85,0,0,0-4.4,2.22v-2.13h-1.5v11.57h1.56v-6.07c0-2.64,1.57-4.18,4.05-4.18,2.2,0,3.48,1.25,3.48,3.69v6.56h1.56V206C324.46,202.71,322.52,201.08,319.71,201.08Z" fill="#fff" fill-rule="evenodd"/><path d="M334.25,210.91a2.58,2.58,0,0,1-1.72.6,1.86,1.86,0,0,1-2-2.12v-6.9h3.52v-1.32h-3.52v-2.53H329v2.53H326.9v1.32H329v7a3.07,3.07,0,0,0,3.39,3.37,3.73,3.73,0,0,0,2.44-.82Z" fill="#fff" fill-rule="evenodd"/><path d="M347.32,207a5.52,5.52,0,0,0-5.61-5.87,5.57,5.57,0,0,0-5.66,5.87,6.12,6.12,0,0,0,10.54,4l-.88-1a4.53,4.53,0,0,1-3.54,1.52,4.27,4.27,0,0,1-4.55-4h9.68c0-.18,0-.36,0-.49Zm-5.61-4.53a4,4,0,0,1,4.11,3.85h-8.2A4,4,0,0,1,341.71,202.42Z" fill="#fff" fill-rule="evenodd"/><path d="M360.32,201.08a7.35,7.35,0,0,0-4.71,1.56l.71,1.17a5.86,5.86,0,0,1,3.85-1.37c2.15,0,3.27,1.08,3.27,3.06v.7h-3.67c-3.32,0-4.47,1.5-4.47,3.28,0,2,1.61,3.37,4.23,3.37a4.34,4.34,0,0,0,4-1.92v1.81H365v-7.17c0-3-1.7-4.49-4.69-4.49Zm-.55,10.54c-1.85,0-2.93-.84-2.93-2.18,0-1.19.73-2.07,3-2.07h3.63v1.89A3.69,3.69,0,0,1,359.77,211.62Z" fill="#fff" fill-rule="evenodd"/><path d="M58.2,243.19a5.13,5.13,0,0,0,4.53-2.29l-1.17-.79a3.91,3.91,0,0,1-3.36,1.69,4.51,4.51,0,0,1,0-9,3.92,3.92,0,0,1,3.36,1.72l1.17-.8a5.08,5.08,0,0,0-4.53-2.28,5.89,5.89,0,1,0,0,11.77Z" fill="#fff" fill-rule="evenodd"/><path d="M74.65,231.5v6.08c0,2.64-1.52,4.2-3.94,4.2-2.2,0-3.47-1.26-3.47-3.72V231.5H65.68v6.71c0,3.33,1.93,5,4.88,5A4.61,4.61,0,0,0,74.72,241v2.12h1.49V231.5Z" fill="#fff" fill-rule="evenodd"/><path d="M84.64,231.42A7.35,7.35,0,0,0,79.93,233l.71,1.16a5.9,5.9,0,0,1,3.85-1.36c2.15,0,3.27,1.08,3.27,3.06v.7H84.09c-3.32,0-4.47,1.5-4.47,3.28,0,2,1.61,3.37,4.23,3.37a4.34,4.34,0,0,0,4-1.92v1.81h1.5V235.9c0-3-1.7-4.48-4.69-4.48ZM84.09,242c-1.85,0-2.93-.83-2.93-2.17,0-1.19.73-2.07,3-2.07h3.63v1.89A3.69,3.69,0,0,1,84.09,242Z" fill="#fff" fill-rule="evenodd"/><rect x="93.57" y="226.75" width="1.56" height="16.32" fill="#fff"/><path d="M108.55,231.5v2.29a5,5,0,0,0-4.46-2.37,5.89,5.89,0,0,0,0,11.77,5.07,5.07,0,0,0,4.4-2.29v6.44h1.56V231.5Zm-4.33,10.3a4.52,4.52,0,1,1,4.29-4.51A4.24,4.24,0,0,1,104.22,241.8Z" fill="#fff" fill-rule="evenodd"/><path d="M123.27,231.5v6.08c0,2.64-1.52,4.2-3.94,4.2-2.2,0-3.47-1.26-3.47-3.72V231.5H114.3v6.71c0,3.33,1.93,5,4.88,5a4.61,4.61,0,0,0,4.16-2.23v2.12h1.49V231.5Z" fill="#fff" fill-rule="evenodd"/><path d="M130,229a1.11,1.11,0,1,0-1.14-1.12A1.12,1.12,0,0,0,130,229Zm-.79,14.11h1.56V231.5h-1.56Z" fill="#fff" fill-rule="evenodd"/><path d="M145.23,237.29a5.51,5.51,0,0,0-5.61-5.87,5.57,5.57,0,0,0-5.66,5.87,5.74,5.74,0,0,0,6.08,5.9,5.67,5.67,0,0,0,4.46-1.9l-.88-1a4.56,4.56,0,0,1-3.54,1.52,4.28,4.28,0,0,1-4.55-4h9.68c0-.17,0-.35,0-.48Zm-5.61-4.53a4,4,0,0,1,4.11,3.85h-8.2A4,4,0,0,1,139.62,232.76Z" fill="#fff" fill-rule="evenodd"/><path d="M149.91,233.77V231.5h-1.49v11.58H150v-5.9c0-2.73,1.47-4.27,3.89-4.27l.38,0v-1.51C152.11,231.42,150.64,232.23,149.91,233.77Z" fill="#fff" fill-rule="evenodd"/><polygon points="171.19 231.5 166.81 241.36 162.48 231.5 160.85 231.5 165.97 243.08 167.58 243.08 172.73 231.5 171.19 231.5" fill="#fff" fill-rule="evenodd"/><path d="M175.72,229a1.11,1.11,0,1,0-1.14-1.12,1.11,1.11,0,0,0,1.14,1.12Zm-.79,14.11h1.56V231.5h-1.56Z" fill="#fff" fill-rule="evenodd"/><path d="M184,243.19c3,0,4.77-1.3,4.77-3.3,0-4.44-7.5-2.09-7.5-5.22,0-1.1.92-1.91,3-1.91a5.88,5.88,0,0,1,3.41,1l.69-1.26a7.86,7.86,0,0,0-4.1-1.07c-2.94,0-4.57,1.4-4.57,3.3,0,4.57,7.5,2.2,7.5,5.21,0,1.14-.9,1.89-3.1,1.89a7,7,0,0,1-4.12-1.3l-.7,1.24A7.76,7.76,0,0,0,184,243.19Z" fill="#fff" fill-rule="evenodd"/><path d="M192.4,229a1.11,1.11,0,1,0,0-2.22,1.11,1.11,0,1,0,0,2.22Zm-.8,14.11h1.57V231.5H191.6Z" fill="#fff" fill-rule="evenodd"/><path d="M203.07,241.25a2.57,2.57,0,0,1-1.72.59,1.85,1.85,0,0,1-2-2.11v-6.91h3.52V231.5h-3.52V229h-1.56v2.53h-2.07v1.32h2.07v7a3.07,3.07,0,0,0,3.38,3.37,3.74,3.74,0,0,0,2.45-.82Z" fill="#fff" fill-rule="evenodd"/><path d="M210.5,231.42a7.37,7.37,0,0,0-4.71,1.56l.71,1.16a5.9,5.9,0,0,1,3.85-1.36c2.15,0,3.28,1.08,3.28,3.06v.7H210c-3.32,0-4.46,1.5-4.46,3.28,0,2,1.6,3.37,4.22,3.37a4.34,4.34,0,0,0,4-1.92v1.81h1.5V235.9c0-3-1.7-4.48-4.69-4.48ZM210,242c-1.85,0-2.92-.83-2.92-2.17,0-1.19.72-2.07,3-2.07h3.63v1.89A3.71,3.71,0,0,1,210,242Z" fill="#fff" fill-rule="evenodd"/><path d="M229.25,231.42a7.33,7.33,0,0,0-4.71,1.56l.7,1.16a5.94,5.94,0,0,1,3.85-1.36c2.16,0,3.28,1.08,3.28,3.06v.7H228.7c-3.33,0-4.47,1.5-4.47,3.28,0,2,1.61,3.37,4.22,3.37a4.36,4.36,0,0,0,4-1.92v1.81h1.49V235.9c0-3-1.69-4.48-4.68-4.48ZM228.7,242c-1.85,0-2.93-.83-2.93-2.17,0-1.19.73-2.07,3-2.07h3.63v1.89A3.69,3.69,0,0,1,228.7,242Z" fill="#fff" fill-rule="evenodd"/><rect x="243.94" y="226.75" width="1.56" height="16.32" fill="#fff"/><path d="M253.91,231.42A7.35,7.35,0,0,0,249.2,233l.7,1.16a5.94,5.94,0,0,1,3.85-1.36c2.16,0,3.28,1.08,3.28,3.06v.7h-3.67c-3.32,0-4.47,1.5-4.47,3.28,0,2,1.61,3.37,4.23,3.37a4.35,4.35,0,0,0,4-1.92v1.81h1.49V235.9c0-3-1.69-4.48-4.68-4.48ZM253.36,242c-1.85,0-2.93-.83-2.93-2.17,0-1.19.73-2.07,3-2.07H257v1.89A3.69,3.69,0,0,1,253.36,242Z" fill="#fff" fill-rule="evenodd"/><path d="M274.56,231.42a5,5,0,0,0-4.46,2.37V231.5h-1.5v15.84h1.56V240.9a5.08,5.08,0,0,0,4.4,2.29,5.89,5.89,0,0,0,0-11.77Zm-.11,10.38a4.51,4.51,0,1,1,4.32-4.51A4.24,4.24,0,0,1,274.45,241.8Z" fill="#fff" fill-rule="evenodd"/><path d="M285,233.77V231.5h-1.49v11.58h1.56v-5.9c0-2.73,1.47-4.27,3.89-4.27l.38,0v-1.51C287.21,231.42,285.74,232.23,285,233.77Z" fill="#fff" fill-rule="evenodd"/><path d="M296.78,243.19a5.89,5.89,0,1,0-5.89-5.9,5.7,5.7,0,0,0,5.89,5.9Zm0-1.39a4.52,4.52,0,1,1,4.29-4.51A4.24,4.24,0,0,1,296.78,241.8Z" fill="#fff" fill-rule="evenodd"/><path d="M311.81,231.42a5.05,5.05,0,0,0-4.47,2.37V231.5h-1.49v15.84h1.56V240.9a5.07,5.07,0,0,0,4.4,2.29,5.89,5.89,0,0,0,0-11.77Zm-.11,10.38a4.51,4.51,0,1,1,4.31-4.51A4.24,4.24,0,0,1,311.7,241.8Z" fill="#fff" fill-rule="evenodd"/><path d="M321.56,229a1.11,1.11,0,1,0,0-2.22,1.11,1.11,0,1,0,0,2.22Zm-.8,14.11h1.57V231.5h-1.57Z" fill="#fff" fill-rule="evenodd"/><path d="M336.78,237.29a5.51,5.51,0,0,0-5.61-5.87,5.57,5.57,0,0,0-5.65,5.87,5.73,5.73,0,0,0,6.07,5.9,5.67,5.67,0,0,0,4.46-1.9l-.88-1a4.56,4.56,0,0,1-3.54,1.52,4.28,4.28,0,0,1-4.55-4h9.68c0-.17,0-.35,0-.48Zm-5.61-4.53a4,4,0,0,1,4.11,3.85h-8.2A4,4,0,0,1,331.17,232.76Z" fill="#fff" fill-rule="evenodd"/><path d="M349,226.75v6.95a5.06,5.06,0,0,0-4.4-2.28,5.89,5.89,0,0,0,0,11.77,5,5,0,0,0,4.46-2.4v2.29h1.5V226.75ZM344.7,241.8a4.52,4.52,0,1,1,4.29-4.51A4.24,4.24,0,0,1,344.7,241.8Z" fill="#fff" fill-rule="evenodd"/><path d="M358.93,231.42a7.32,7.32,0,0,0-4.7,1.56l.7,1.16a5.92,5.92,0,0,1,3.85-1.36c2.16,0,3.28,1.08,3.28,3.06v.7h-3.68c-3.32,0-4.46,1.5-4.46,3.28,0,2,1.6,3.37,4.22,3.37a4.33,4.33,0,0,0,4-1.92v1.81h1.5V235.9c0-3-1.69-4.48-4.69-4.48ZM358.38,242c-1.84,0-2.92-.83-2.92-2.17,0-1.19.72-2.07,3-2.07h3.63v1.89A3.71,3.71,0,0,1,358.38,242Z" fill="#fff" fill-rule="evenodd"/><path d="M376.91,226.75v6.95a5.06,5.06,0,0,0-4.4-2.28,5.89,5.89,0,0,0,0,11.77,5,5,0,0,0,4.46-2.4v2.29h1.5V226.75Zm-4.27,15.05a4.52,4.52,0,1,1,4.29-4.51A4.24,4.24,0,0,1,372.64,241.8Z" fill="#fff" fill-rule="evenodd"/><path d="M383,243.19a1.2,1.2,0,0,0,1.19-1.21,1.18,1.18,0,0,0-1.19-1.19,1.16,1.16,0,0,0-1.17,1.19A1.19,1.19,0,0,0,383,243.19Z" fill="#fff" fill-rule="evenodd"/><path d="M72,273.55a7.46,7.46,0,0,0,5.65-2.27l-1-1a6,6,0,0,1-4.55,1.84,6.38,6.38,0,1,1,0-12.76,6.08,6.08,0,0,1,4.55,1.83l1-1A7.43,7.43,0,0,0,72,257.88a7.84,7.84,0,1,0,0,15.67Z" fill="#fff" fill-rule="evenodd"/><path d="M85,273.52a5.89,5.89,0,1,0-5.89-5.89A5.69,5.69,0,0,0,85,273.52Zm0-1.38a4.52,4.52,0,1,1,4.29-4.51A4.24,4.24,0,0,1,85,272.14Z" fill="#fff" fill-rule="evenodd"/><path d="M100,261.75a4.87,4.87,0,0,0-4.4,2.23v-2.14H94.08v11.57h1.56v-6.07c0-2.64,1.56-4.18,4-4.18,2.2,0,3.47,1.26,3.47,3.7v6.55h1.57V266.7C104.73,263.38,102.79,261.75,100,261.75Z" fill="#fff" fill-rule="evenodd"/><path d="M124.83,267.63a5.51,5.51,0,0,0-5.61-5.88,5.58,5.58,0,0,0-5.65,5.88,6.12,6.12,0,0,0,10.54,4l-.88-1a4.58,4.58,0,0,1-3.54,1.52,4.29,4.29,0,0,1-4.56-4h9.68c0-.17,0-.35,0-.48Zm-5.61-4.53a4,4,0,0,1,4.12,3.85h-8.21A4,4,0,0,1,119.22,263.1Z" fill="#fff" fill-rule="evenodd"/><path d="M131.13,273.52c3,0,4.77-1.29,4.77-3.3,0-4.44-7.5-2.08-7.5-5.21,0-1.1.92-1.91,3-1.91a5.88,5.88,0,0,1,3.41,1l.68-1.26a7.8,7.8,0,0,0-4.09-1.08c-2.95,0-4.57,1.41-4.57,3.3,0,4.58,7.5,2.21,7.5,5.22,0,1.14-.9,1.89-3.1,1.89a7,7,0,0,1-4.12-1.3l-.7,1.23A7.67,7.67,0,0,0,131.13,273.52Z" fill="#fff" fill-rule="evenodd"/><path d="M144.33,271.59a2.62,2.62,0,0,1-1.72.59,1.85,1.85,0,0,1-2-2.11v-6.91h3.52v-1.32h-3.52v-2.53h-1.56v2.53H137v1.32h2.07v7a3.06,3.06,0,0,0,3.38,3.36,3.73,3.73,0,0,0,2.45-.81Z" fill="#fff" fill-rule="evenodd"/><path d="M157.39,267.63a5.51,5.51,0,0,0-5.61-5.88,5.58,5.58,0,0,0-5.65,5.88,6.12,6.12,0,0,0,10.54,4l-.88-1a4.58,4.58,0,0,1-3.54,1.52,4.29,4.29,0,0,1-4.56-4h9.68c0-.17,0-.35,0-.48Zm-5.61-4.53A4,4,0,0,1,155.9,267h-8.21A4,4,0,0,1,151.78,263.1Z" fill="#fff" fill-rule="evenodd"/><path d="M169.45,273.52c3,0,4.77-1.29,4.77-3.3,0-4.44-7.5-2.08-7.5-5.21,0-1.1.93-1.91,3-1.91a5.92,5.92,0,0,1,3.41,1l.68-1.26a7.86,7.86,0,0,0-4.09-1.08c-3,0-4.58,1.41-4.58,3.3,0,4.58,7.5,2.21,7.5,5.22,0,1.14-.9,1.89-3.1,1.89a6.94,6.94,0,0,1-4.11-1.3l-.71,1.23A7.72,7.72,0,0,0,169.45,273.52Z" fill="#fff" fill-rule="evenodd"/><path d="M177.9,259.31a1.11,1.11,0,0,0,1.14-1.14,1.1,1.1,0,0,0-1.14-1.08,1.11,1.11,0,1,0,0,2.22Zm-.79,14.1h1.56V261.84h-1.56Z" fill="#fff" fill-rule="evenodd"/><path d="M186.13,273.52c3,0,4.77-1.29,4.77-3.3,0-4.44-7.5-2.08-7.5-5.21,0-1.1.92-1.91,3-1.91a5.88,5.88,0,0,1,3.41,1l.68-1.26a7.8,7.8,0,0,0-4.09-1.08c-2.95,0-4.57,1.41-4.57,3.3,0,4.58,7.5,2.21,7.5,5.22,0,1.14-.9,1.89-3.1,1.89a7,7,0,0,1-4.12-1.3l-.7,1.23A7.67,7.67,0,0,0,186.13,273.52Z" fill="#fff" fill-rule="evenodd"/><path d="M199.33,271.59a2.62,2.62,0,0,1-1.72.59,1.85,1.85,0,0,1-2-2.11v-6.91h3.52v-1.32h-3.52v-2.53h-1.56v2.53H192v1.32h2.07v7a3.06,3.06,0,0,0,3.38,3.36,3.73,3.73,0,0,0,2.45-.81Z" fill="#fff" fill-rule="evenodd"/><path d="M212.39,267.63a5.51,5.51,0,0,0-5.61-5.88,5.58,5.58,0,0,0-5.65,5.88,6.12,6.12,0,0,0,10.54,4l-.88-1a4.58,4.58,0,0,1-3.54,1.52,4.29,4.29,0,0,1-4.56-4h9.68c0-.17,0-.35,0-.48Zm-5.61-4.53A4,4,0,0,1,210.9,267h-8.21A4,4,0,0,1,206.78,263.1Z" fill="#fff" fill-rule="evenodd"/><path d="M230,261.75a5,5,0,0,0-4.58,2.45,4.15,4.15,0,0,0-4.11-2.45,4.69,4.69,0,0,0-4.25,2.2v-2.11h-1.5v11.57h1.57v-6.07c0-2.64,1.51-4.18,3.87-4.18,2.11,0,3.34,1.26,3.34,3.7v6.55h1.56v-6.07c0-2.64,1.5-4.18,3.88-4.18,2.09,0,3.32,1.26,3.32,3.7v6.55h1.56V266.7C234.68,263.38,232.83,261.75,230,261.75Z" fill="#fff" fill-rule="evenodd"/><path d="M243,261.75a7.33,7.33,0,0,0-4.7,1.57l.7,1.16a5.92,5.92,0,0,1,3.85-1.36c2.16,0,3.28,1.08,3.28,3.06v.7h-3.68c-3.32,0-4.46,1.5-4.46,3.28,0,2,1.6,3.36,4.22,3.36a4.32,4.32,0,0,0,4-1.91v1.8h1.5v-7.17c0-3-1.69-4.49-4.69-4.49Zm-.55,10.54c-1.84,0-2.92-.83-2.92-2.18,0-1.18.72-2.06,3-2.06h3.63v1.89A3.71,3.71,0,0,1,242.42,272.29Z" fill="#fff" fill-rule="evenodd"/><path d="M262.4,273.52a5.89,5.89,0,1,0-5.9-5.89,5.68,5.68,0,0,0,5.9,5.89Zm0-1.38a4.52,4.52,0,1,1,4.29-4.51A4.24,4.24,0,0,1,262.4,272.14Z" fill="#fff" fill-rule="evenodd"/><path d="M275.29,258.3a2.68,2.68,0,0,1,1.72.57l.53-1.16a3.67,3.67,0,0,0-2.31-.73,3.18,3.18,0,0,0-3.5,3.43v1.43h-2.07v1.32h2.07v10.25h1.56V263.16h3.52v-1.32h-3.56v-1.36C273.25,259.05,274,258.3,275.29,258.3Z" fill="#fff" fill-rule="evenodd"/><path d="M282.18,264.11v-2.27h-1.5v11.57h1.56v-5.89c0-2.73,1.48-4.27,3.9-4.27l.37,0v-1.52C284.38,261.75,282.9,262.57,282.18,264.11Z" fill="#fff" fill-rule="evenodd"/><path d="M299.32,267.63a5.52,5.52,0,0,0-5.61-5.88,5.58,5.58,0,0,0-5.66,5.88,6.12,6.12,0,0,0,10.54,4l-.88-1a4.56,4.56,0,0,1-3.54,1.52,4.29,4.29,0,0,1-4.56-4h9.68c0-.17,0-.35,0-.48Zm-5.61-4.53a4,4,0,0,1,4.11,3.85h-8.21A4,4,0,0,1,293.71,263.1Z" fill="#fff" fill-rule="evenodd"/><path d="M307.3,273.52a5.1,5.1,0,0,0,4.53-2.28l-1.16-.8a3.93,3.93,0,0,1-3.37,1.7,4.51,4.51,0,0,1,0-9,4,4,0,0,1,3.37,1.71l1.16-.79a5,5,0,0,0-4.53-2.29,5.89,5.89,0,1,0,0,11.77Z" fill="#fff" fill-rule="evenodd"/><path d="M324.79,267.63a5.51,5.51,0,0,0-5.61-5.88,5.57,5.57,0,0,0-5.65,5.88,6.11,6.11,0,0,0,10.53,4l-.88-1a4.56,4.56,0,0,1-3.54,1.52,4.28,4.28,0,0,1-4.55-4h9.68c0-.17,0-.35,0-.48Zm-5.61-4.53a4,4,0,0,1,4.11,3.85h-8.2A4,4,0,0,1,319.18,263.1Z" fill="#fff" fill-rule="evenodd"/><path d="M342.41,261.75a5,5,0,0,0-4.57,2.45,4.17,4.17,0,0,0-4.12-2.45,4.68,4.68,0,0,0-4.24,2.2v-2.11H328v11.57h1.56v-6.07c0-2.64,1.52-4.18,3.87-4.18,2.12,0,3.35,1.26,3.35,3.7v6.55h1.56v-6.07c0-2.64,1.5-4.18,3.87-4.18,2.09,0,3.32,1.26,3.32,3.7v6.55h1.57V266.7C347.08,263.38,345.23,261.75,342.41,261.75Z" fill="#fff" fill-rule="evenodd"/><path d="M356.1,273.52a5.89,5.89,0,1,0-5.9-5.89,5.69,5.69,0,0,0,5.9,5.89Zm0-1.38a4.52,4.52,0,1,1,4.29-4.51A4.24,4.24,0,0,1,356.1,272.14Z" fill="#fff" fill-rule="evenodd"/><path d="M368.26,273.52c3,0,4.78-1.29,4.78-3.3,0-4.44-7.51-2.08-7.51-5.21,0-1.1.93-1.91,3-1.91a5.88,5.88,0,0,1,3.41,1l.68-1.26a7.86,7.86,0,0,0-4.09-1.08c-2.95,0-4.58,1.41-4.58,3.3,0,4.58,7.5,2.21,7.5,5.22,0,1.14-.9,1.89-3.1,1.89a6.94,6.94,0,0,1-4.11-1.3l-.71,1.23A7.72,7.72,0,0,0,368.26,273.52Z" fill="#fff" fill-rule="evenodd"/><path d="M91,292.18v6.07c0,2.64-1.52,4.2-3.94,4.2-2.2,0-3.47-1.25-3.47-3.71v-6.56H82v6.71c0,3.32,1.94,5,4.89,5a4.61,4.61,0,0,0,4.16-2.22v2.11h1.49V292.18Z" fill="#fff" fill-rule="evenodd"/><path d="M102.86,292.09a4.86,4.86,0,0,0-4.4,2.22v-2.13H97v11.57h1.56v-6.07c0-2.64,1.56-4.18,4-4.18,2.2,0,3.48,1.25,3.48,3.7v6.55h1.56V297C107.61,293.72,105.67,292.09,102.86,292.09Z" fill="#fff" fill-rule="evenodd"/><path d="M115.9,292.09a7.37,7.37,0,0,0-4.71,1.56l.71,1.17a5.85,5.85,0,0,1,3.85-1.36c2.15,0,3.28,1.07,3.28,3.05v.71h-3.68c-3.32,0-4.46,1.49-4.46,3.28,0,2,1.6,3.36,4.22,3.36a4.34,4.34,0,0,0,4-1.91v1.8h1.5v-7.17c0-3-1.7-4.49-4.69-4.49Zm-.55,10.54c-1.85,0-2.92-.84-2.92-2.18,0-1.19.72-2.07,3-2.07H119v1.9A3.72,3.72,0,0,1,115.35,302.63Z" fill="#fff" fill-rule="evenodd"/><path d="M145,292.09a5.06,5.06,0,0,0-4.58,2.44,4.16,4.16,0,0,0-4.11-2.44,4.7,4.7,0,0,0-4.25,2.2v-2.11H130.6v11.57h1.56v-6.07c0-2.64,1.52-4.18,3.87-4.18,2.11,0,3.35,1.25,3.35,3.7v6.55h1.56v-6.07c0-2.64,1.49-4.18,3.87-4.18,2.09,0,3.32,1.25,3.32,3.7v6.55h1.56V297C149.69,293.72,147.85,292.09,145,292.09Z" fill="#fff" fill-rule="evenodd"/><path d="M158,292.09a7.35,7.35,0,0,0-4.71,1.56l.7,1.17a5.89,5.89,0,0,1,3.85-1.36c2.16,0,3.28,1.07,3.28,3.05v.71h-3.67c-3.32,0-4.47,1.49-4.47,3.28,0,2,1.61,3.36,4.23,3.36a4.35,4.35,0,0,0,4-1.91v1.8h1.49v-7.17c0-3-1.69-4.49-4.68-4.49Zm-.55,10.54c-1.85,0-2.93-.84-2.93-2.18,0-1.19.73-2.07,3-2.07h3.63v1.9A3.7,3.7,0,0,1,157.44,302.63Z" fill="#fff" fill-rule="evenodd"/><path d="M174.88,292.18,170.53,302l-4.36-9.83h-1.63l5.17,11.55-.5,1.12c-.66,1.45-1.37,1.94-2.4,1.94a2.88,2.88,0,0,1-2.11-.88l-.73,1.16a4,4,0,0,0,2.82,1.06c1.65,0,2.88-.73,3.85-3l5.78-13Z" fill="#fff" fill-rule="evenodd"/><path d="M183,303.86a5.89,5.89,0,1,0-5.89-5.89,5.69,5.69,0,0,0,5.89,5.89Zm0-1.38a4.52,4.52,0,1,1,4.29-4.51A4.24,4.24,0,0,1,183,302.48Z" fill="#fff" fill-rule="evenodd"/><path d="M193.58,294.45v-2.27h-1.49v11.57h1.56v-5.89c0-2.73,1.47-4.27,3.89-4.27l.38,0v-1.52C195.78,292.09,194.31,292.91,193.58,294.45Z" fill="#fff" fill-rule="evenodd"/><path d="M212.22,301.93a2.62,2.62,0,0,1-1.72.59,1.85,1.85,0,0,1-2-2.11V293.5H212v-1.32H208.5v-2.53h-1.56v2.53h-2.07v1.32h2.07v7a3.06,3.06,0,0,0,3.39,3.36,3.72,3.72,0,0,0,2.44-.81Z" fill="#fff" fill-rule="evenodd"/><path d="M217.1,294.45v-2.27h-1.5v11.57h1.57v-5.89c0-2.73,1.47-4.27,3.89-4.27l.37,0v-1.52C219.3,292.09,217.83,292.91,217.1,294.45Z" fill="#fff" fill-rule="evenodd"/><path d="M228.28,292.09a7.35,7.35,0,0,0-4.71,1.56l.7,1.17a5.89,5.89,0,0,1,3.85-1.36c2.16,0,3.28,1.07,3.28,3.05v.71h-3.67c-3.32,0-4.47,1.49-4.47,3.28,0,2,1.61,3.36,4.23,3.36a4.35,4.35,0,0,0,4-1.91v1.8H233v-7.17c0-3-1.69-4.49-4.68-4.49Zm-.55,10.54c-1.85,0-2.93-.84-2.93-2.18,0-1.19.73-2.07,3-2.07h3.63v1.9A3.7,3.7,0,0,1,227.73,302.63Z" fill="#fff" fill-rule="evenodd"/><path d="M243.1,292.09a4.89,4.89,0,0,0-4.4,2.22v-2.13h-1.49v11.57h1.56v-6.07c0-2.64,1.56-4.18,4-4.18,2.2,0,3.47,1.25,3.47,3.7v6.55h1.57V297C247.86,293.72,245.92,292.09,243.1,292.09Z" fill="#fff" fill-rule="evenodd"/><path d="M255.21,303.86c3,0,4.77-1.3,4.77-3.3,0-4.44-7.5-2.08-7.5-5.21,0-1.1.92-1.92,3-1.92a6,6,0,0,1,3.41,1l.68-1.25a7.83,7.83,0,0,0-4.09-1.08c-3,0-4.58,1.41-4.58,3.3,0,4.58,7.51,2.21,7.51,5.22,0,1.14-.9,1.89-3.1,1.89a7,7,0,0,1-4.12-1.3l-.7,1.23A7.67,7.67,0,0,0,255.21,303.86Z" fill="#fff" fill-rule="evenodd"/><path d="M268.82,292.09a5,5,0,0,0-4.46,2.38v-2.29h-1.5V308h1.56v-6.45a5.06,5.06,0,0,0,4.4,2.29,5.89,5.89,0,0,0,0-11.77Zm-.11,10.39A4.51,4.51,0,1,1,273,298,4.24,4.24,0,0,1,268.71,302.48Z" fill="#fff" fill-rule="evenodd"/><path d="M281.76,292.09a7.35,7.35,0,0,0-4.71,1.56l.71,1.17a5.85,5.85,0,0,1,3.85-1.36c2.15,0,3.27,1.07,3.27,3.05v.71h-3.67c-3.32,0-4.47,1.49-4.47,3.28,0,2,1.61,3.36,4.23,3.36a4.35,4.35,0,0,0,4-1.91v1.8h1.49v-7.17c0-3-1.69-4.49-4.68-4.49Zm-.55,10.54c-1.85,0-2.93-.84-2.93-2.18,0-1.19.73-2.07,3-2.07h3.63v1.9A3.7,3.7,0,0,1,281.21,302.63Z" fill="#fff" fill-rule="evenodd"/><path d="M292.19,294.45v-2.27h-1.5v11.57h1.56v-5.89c0-2.73,1.48-4.27,3.9-4.27l.37,0v-1.52C294.39,292.09,292.91,292.91,292.19,294.45Z" fill="#fff" fill-rule="evenodd"/><path d="M309.32,298a5.51,5.51,0,0,0-5.61-5.88,5.57,5.57,0,0,0-5.65,5.88,6.12,6.12,0,0,0,10.54,4l-.88-1a4.58,4.58,0,0,1-3.54,1.52,4.29,4.29,0,0,1-4.56-4h9.68c0-.18,0-.35,0-.48Zm-5.61-4.54a4,4,0,0,1,4.12,3.85h-8.21A4,4,0,0,1,303.71,293.43Z" fill="#fff" fill-rule="evenodd"/><path d="M318.41,292.09a4.89,4.89,0,0,0-4.4,2.22v-2.13h-1.5v11.57h1.57v-6.07c0-2.64,1.56-4.18,4-4.18,2.2,0,3.48,1.25,3.48,3.7v6.55h1.56V297C323.16,293.72,321.23,292.09,318.41,292.09Z" fill="#fff" fill-rule="evenodd"/><path d="M332.25,303.86a5.08,5.08,0,0,0,4.53-2.29l-1.17-.79a3.9,3.9,0,0,1-3.36,1.7,4.51,4.51,0,0,1,0-9,3.93,3.93,0,0,1,3.36,1.71l1.17-.79a5,5,0,0,0-4.53-2.29,5.89,5.89,0,1,0,0,11.77Z" fill="#fff" fill-rule="evenodd"/><path d="M340.63,289.65a1.12,1.12,0,0,0,1.14-1.14,1.1,1.1,0,0,0-1.14-1.08,1.11,1.11,0,1,0,0,2.22Zm-.79,14.1h1.56V292.18h-1.56Z" fill="#fff" fill-rule="evenodd"/><path d="M349.8,292.09a7.32,7.32,0,0,0-4.7,1.56l.7,1.17a5.87,5.87,0,0,1,3.85-1.36c2.16,0,3.28,1.07,3.28,3.05v.71h-3.68c-3.32,0-4.46,1.49-4.46,3.28,0,2,1.6,3.36,4.22,3.36a4.32,4.32,0,0,0,4-1.91v1.8h1.5v-7.17c0-3-1.69-4.49-4.69-4.49Zm-.55,10.54c-1.84,0-2.92-.84-2.92-2.18,0-1.19.72-2.07,3-2.07h3.63v1.9A3.72,3.72,0,0,1,349.25,302.63Z" fill="#fff" fill-rule="evenodd"/><path d="M117.67,322.52l-4.35,9.83L109,322.52h-1.63l5.17,11.55-.5,1.12c-.66,1.45-1.37,1.94-2.4,1.94a2.88,2.88,0,0,1-2.11-.88l-.73,1.16a3.94,3.94,0,0,0,2.82,1.06c1.65,0,2.88-.73,3.85-3l5.78-13Z" fill="#fff" fill-rule="evenodd"/><path d="M132,334.2a5.08,5.08,0,0,0,4.53-2.29l-1.16-.79a3.91,3.91,0,0,1-3.37,1.69,4.51,4.51,0,0,1,0-9,3.93,3.93,0,0,1,3.37,1.72l1.16-.79a5,5,0,0,0-4.53-2.29,5.89,5.89,0,1,0,0,11.77Z" fill="#fff" fill-rule="evenodd"/><rect x="139.39" y="317.77" width="1.56" height="16.32" fill="#fff"/><path d="M149.35,322.43a7.37,7.37,0,0,0-4.71,1.56l.71,1.17a5.86,5.86,0,0,1,3.85-1.37c2.15,0,3.28,1.08,3.28,3.06v.71H148.8c-3.32,0-4.46,1.49-4.46,3.27,0,2,1.6,3.37,4.22,3.37a4.36,4.36,0,0,0,4-1.91v1.8H154v-7.17c0-3-1.7-4.49-4.69-4.49ZM148.8,333c-1.85,0-2.92-.84-2.92-2.18s.72-2.07,3-2.07h3.63v1.89A3.72,3.72,0,0,1,148.8,333Z" fill="#fff" fill-rule="evenodd"/><path d="M159.78,324.78v-2.26h-1.5v11.57h1.57v-5.9c0-2.72,1.47-4.26,3.89-4.26l.37,0v-1.52C162,322.43,160.51,323.24,159.78,324.78Z" fill="#fff" fill-rule="evenodd"/><path d="M167.72,320a1.13,1.13,0,0,0,1.15-1.15,1.15,1.15,0,0,0-2.29,0,1.13,1.13,0,0,0,1.14,1.12Zm-.79,14.1h1.56V322.52h-1.56Z" fill="#fff" fill-rule="evenodd"/><path d="M181.85,317.77v7a5.06,5.06,0,0,0-4.4-2.29,5.89,5.89,0,0,0,0,11.77,5,5,0,0,0,4.46-2.4v2.29h1.5V317.77Zm-4.27,15a4.52,4.52,0,1,1,4.29-4.51A4.23,4.23,0,0,1,177.58,332.81Z" fill="#fff" fill-rule="evenodd"/><path d="M191.81,322.43A7.37,7.37,0,0,0,187.1,324l.71,1.17a5.86,5.86,0,0,1,3.85-1.37c2.15,0,3.28,1.08,3.28,3.06v.71h-3.68c-3.32,0-4.46,1.49-4.46,3.27,0,2,1.6,3.37,4.22,3.37a4.36,4.36,0,0,0,4-1.91v1.8h1.5v-7.17c0-3-1.7-4.49-4.69-4.49ZM191.26,333c-1.85,0-2.92-.84-2.92-2.18s.72-2.07,3-2.07h3.63v1.89A3.72,3.72,0,0,1,191.26,333Z" fill="#fff" fill-rule="evenodd"/><path d="M209.79,317.77v7a5.06,5.06,0,0,0-4.4-2.29,5.89,5.89,0,0,0,0,11.77,5,5,0,0,0,4.46-2.4v2.29h1.5V317.77Zm-4.27,15a4.52,4.52,0,1,1,4.29-4.51A4.23,4.23,0,0,1,205.52,332.81Z" fill="#fff" fill-rule="evenodd"/><path d="M231.57,328.3a5.52,5.52,0,0,0-5.61-5.87,5.57,5.57,0,0,0-5.66,5.87,6.12,6.12,0,0,0,10.54,4l-.88-1a4.55,4.55,0,0,1-3.54,1.51,4.29,4.29,0,0,1-4.56-4h9.68c0-.18,0-.35,0-.49ZM226,323.77a4,4,0,0,1,4.11,3.85h-8.21A4,4,0,0,1,226,323.77Z" fill="#fff" fill-rule="evenodd"/><path d="M240.65,322.43a4.86,4.86,0,0,0-4.4,2.22v-2.13h-1.49v11.57h1.56V328c0-2.64,1.56-4.18,4.05-4.18,2.2,0,3.47,1.25,3.47,3.69v6.56h1.56v-6.71C245.4,324.06,243.47,322.43,240.65,322.43Z" fill="#fff" fill-rule="evenodd"/><path d="M261,332.26a2.58,2.58,0,0,1-1.72.6,1.85,1.85,0,0,1-2-2.11v-6.91h3.52v-1.32h-3.52V320h-1.56v2.53h-2.07v1.32h2.07v7a3.07,3.07,0,0,0,3.39,3.37,3.72,3.72,0,0,0,2.44-.81Z" fill="#fff" fill-rule="evenodd"/><path d="M268.66,334.2a5.89,5.89,0,1,0-5.9-5.9,5.69,5.69,0,0,0,5.9,5.9Zm0-1.39A4.52,4.52,0,1,1,273,328.3,4.23,4.23,0,0,1,268.66,332.81Z" fill="#fff" fill-rule="evenodd"/><path d="M286.72,317.77v7a5,5,0,0,0-4.4-2.29,5.89,5.89,0,0,0,0,11.77,5,5,0,0,0,4.47-2.4v2.29h1.49V317.77Zm-4.27,15a4.52,4.52,0,1,1,4.29-4.51A4.24,4.24,0,0,1,282.45,332.81Z" fill="#fff" fill-rule="evenodd"/><path d="M297.37,334.2a5.89,5.89,0,1,0-5.9-5.9,5.69,5.69,0,0,0,5.9,5.9Zm0-1.39a4.52,4.52,0,1,1,4.29-4.51A4.23,4.23,0,0,1,297.37,332.81Z" fill="#fff" fill-rule="evenodd"/><path d="M322.29,328.3a5.51,5.51,0,0,0-5.61-5.87A5.57,5.57,0,0,0,311,328.3a6.12,6.12,0,0,0,10.54,4l-.88-1a4.57,4.57,0,0,1-3.54,1.51,4.29,4.29,0,0,1-4.56-4h9.68c0-.18,0-.35,0-.49Zm-5.61-4.53a4,4,0,0,1,4.12,3.85h-8.21A4,4,0,0,1,316.68,323.77Z" fill="#fff" fill-rule="evenodd"/><rect x="325.48" y="317.77" width="1.56" height="16.32" fill="#fff"/><path d="M180.6,352.77a5,5,0,0,0-4.46,2.37v-2.28h-1.5V368.7h1.56v-6.45a5.06,5.06,0,0,0,4.4,2.29,5.89,5.89,0,0,0,0-11.77Zm-.11,10.38a4.51,4.51,0,1,1,4.32-4.51A4.24,4.24,0,0,1,180.49,363.15Z" fill="#fff" fill-rule="evenodd"/><path d="M191.05,355.12v-2.26h-1.49v11.57h1.56v-5.9c0-2.73,1.47-4.27,3.89-4.27.11,0,.25,0,.38,0v-1.52C193.25,352.77,191.78,353.58,191.05,355.12Z" fill="#fff" fill-rule="evenodd"/><path d="M202.82,364.54a5.89,5.89,0,1,0-5.89-5.9,5.7,5.7,0,0,0,5.89,5.9Zm0-1.39a4.52,4.52,0,1,1,4.29-4.51A4.24,4.24,0,0,1,202.82,363.15Z" fill="#fff" fill-rule="evenodd"/><path d="M216.68,364.54a5.11,5.11,0,0,0,4.54-2.29l-1.17-.79a3.92,3.92,0,0,1-3.37,1.69,4.51,4.51,0,0,1,0-9,3.92,3.92,0,0,1,3.37,1.72l1.17-.79a5.07,5.07,0,0,0-4.54-2.29,5.89,5.89,0,1,0,0,11.77Z" fill="#fff" fill-rule="evenodd"/><path d="M234.17,358.64a5.51,5.51,0,0,0-5.61-5.87,5.57,5.57,0,0,0-5.65,5.87,6.12,6.12,0,0,0,10.54,4l-.88-1a4.55,4.55,0,0,1-3.55,1.52,4.28,4.28,0,0,1-4.55-4h9.68c0-.18,0-.36,0-.49Zm-5.61-4.53a4,4,0,0,1,4.12,3.85h-8.21A4,4,0,0,1,228.56,354.11Z" fill="#fff" fill-rule="evenodd"/><path d="M240.46,364.54c3,0,4.78-1.3,4.78-3.3,0-4.44-7.5-2.09-7.5-5.22,0-1.1.92-1.91,3-1.91a6,6,0,0,1,3.41,1l.68-1.25a7.83,7.83,0,0,0-4.09-1.08c-2.95,0-4.58,1.41-4.58,3.3,0,4.57,7.51,2.2,7.51,5.21,0,1.15-.91,1.89-3.11,1.89a7,7,0,0,1-4.11-1.29l-.7,1.23A7.73,7.73,0,0,0,240.46,364.54Z" fill="#fff" fill-rule="evenodd"/><path d="M252.85,364.54a5.89,5.89,0,1,0-5.9-5.9,5.69,5.69,0,0,0,5.9,5.9Zm0-1.39a4.52,4.52,0,1,1,4.29-4.51A4.24,4.24,0,0,1,252.85,363.15Z" fill="#fff" fill-rule="evenodd"/><path d="M261.74,364.54a1.2,1.2,0,0,0,1.19-1.21,1.19,1.19,0,0,0-1.19-1.19,1.17,1.17,0,0,0-1.17,1.19A1.19,1.19,0,0,0,261.74,364.54Z" fill="#fff" fill-rule="evenodd"/></svg>