<svg id="Capa_1" data-name="Capa 1" xmlns="http://www.w3.org/2000/svg" xmlns:xlink="http://www.w3.org/1999/xlink" width="154mm" height="154mm" viewBox="0 0 436.54 436.54"><defs><linearGradient id="GradientFill_1" x1="228.18" y1="203.67" x2="-40.12" y2="598.69" gradientTransform="translate(218.27 -90.41) rotate(45)" gradientUnits="userSpaceOnUse"><stop offset="0" stop-color="#292123"/><stop offset="0.48" stop-color="#3b3338"/><stop offset="1" stop-color="#1a1413"/></linearGradient></defs><title>QUESITO NEGRO CIRCULO 7</title><circle cx="218.27" cy="218.27" r="218.04" transform="translate(-90.41 218.27) rotate(-45)" fill="url(#GradientFill_1)"/><path d="M152.83,47.74h-5.77v15.4h1.63V58.28h4.14c3.91,0,6.29-2,6.29-5.26s-2.38-5.28-6.29-5.28Zm-.05,9.11h-4.09v-7.7h4.09c3.08,0,4.71,1.41,4.71,3.87S155.86,56.85,152.78,56.85Z" fill="#fff" fill-rule="evenodd"/><path d="M166.25,51.48A7.35,7.35,0,0,0,161.54,53l.7,1.17a5.9,5.9,0,0,1,3.85-1.37c2.16,0,3.28,1.08,3.28,3.06v.71H165.7c-3.32,0-4.47,1.49-4.47,3.27,0,2,1.61,3.37,4.23,3.37a4.35,4.35,0,0,0,4-1.92v1.81h1.49V56c0-3-1.69-4.49-4.68-4.49ZM165.7,62c-1.85,0-2.93-.84-2.93-2.18s.73-2.07,3-2.07h3.63v1.89A3.69,3.69,0,0,1,165.7,62Z" fill="#fff" fill-rule="evenodd"/><path d="M176.68,53.83V51.57h-1.5V63.14h1.56v-5.9c0-2.73,1.48-4.26,3.9-4.26l.37,0V51.48C178.88,51.48,177.4,52.29,176.68,53.83Z" fill="#fff" fill-rule="evenodd"/><path d="M187.85,51.48A7.37,7.37,0,0,0,183.14,53l.71,1.17a5.86,5.86,0,0,1,3.85-1.37c2.15,0,3.28,1.08,3.28,3.06v.71H187.3c-3.32,0-4.46,1.49-4.46,3.27,0,2,1.6,3.37,4.22,3.37a4.34,4.34,0,0,0,4-1.92v1.81h1.5V56c0-3-1.7-4.49-4.69-4.49ZM187.3,62c-1.85,0-2.92-.84-2.92-2.18s.72-2.07,3-2.07H191v1.89A3.72,3.72,0,0,1,187.3,62Z" fill="#fff" fill-rule="evenodd"/><path d="M206.6,51.48A7.33,7.33,0,0,0,201.89,53l.7,1.17a5.9,5.9,0,0,1,3.85-1.37c2.16,0,3.28,1.08,3.28,3.06v.71h-3.67c-3.33,0-4.47,1.49-4.47,3.27,0,2,1.61,3.37,4.22,3.37a4.36,4.36,0,0,0,4-1.92v1.81h1.49V56c0-3-1.69-4.49-4.68-4.49ZM206.05,62c-1.85,0-2.93-.84-2.93-2.18s.73-2.07,3-2.07h3.63v1.89A3.7,3.7,0,0,1,206.05,62Z" fill="#fff" fill-rule="evenodd"/><path d="M224.64,51.57v2.28a5.05,5.05,0,0,0-4.47-2.37,5.59,5.59,0,0,0-5.76,5.87,5.6,5.6,0,0,0,5.76,5.9,5,5,0,0,0,4.4-2.29v6.45h1.56V51.57ZM220.3,61.86a4.52,4.52,0,1,1,4.29-4.51A4.24,4.24,0,0,1,220.3,61.86Z" fill="#fff" fill-rule="evenodd"/><path d="M239.35,51.57v6.07c0,2.64-1.51,4.2-3.93,4.2-2.2,0-3.48-1.25-3.48-3.72V51.57h-1.56v6.71c0,3.32,1.93,5,4.88,5A4.61,4.61,0,0,0,239.42,61v2.11h1.5V51.57Z" fill="#fff" fill-rule="evenodd"/><path d="M255.39,57.35a5.51,5.51,0,0,0-5.61-5.87,5.57,5.57,0,0,0-5.65,5.87,6.12,6.12,0,0,0,10.54,4l-.88-1a4.55,4.55,0,0,1-3.55,1.52,4.28,4.28,0,0,1-4.55-4h9.68c0-.18,0-.36,0-.49Zm-5.61-4.53a4,4,0,0,1,4.12,3.85h-8.21A4,4,0,0,1,249.78,52.82Z" fill="#fff" fill-rule="evenodd"/><rect x="258.58" y="46.82" width="1.56" height="16.32" fill="#fff"/><rect x="264.5" y="46.82" width="1.56" height="16.32" fill="#fff"/><path d="M274.47,51.48A7.33,7.33,0,0,0,269.76,53l.7,1.17a5.9,5.9,0,0,1,3.85-1.37c2.16,0,3.28,1.08,3.28,3.06v.71h-3.67c-3.33,0-4.47,1.49-4.47,3.27,0,2,1.61,3.37,4.22,3.37a4.36,4.36,0,0,0,4-1.92v1.81h1.49V56c0-3-1.69-4.49-4.68-4.49ZM273.92,62c-1.85,0-2.93-.84-2.93-2.18s.73-2.07,3-2.07h3.63v1.89A3.7,3.7,0,0,1,273.92,62Z" fill="#fff" fill-rule="evenodd"/><path d="M286.5,63.25c3,0,4.77-1.3,4.77-3.3,0-4.44-7.5-2.09-7.5-5.21,0-1.11.93-1.92,3-1.92a6,6,0,0,1,3.41,1l.68-1.25a7.86,7.86,0,0,0-4.09-1.08c-3,0-4.58,1.41-4.58,3.3,0,4.57,7.5,2.2,7.5,5.21,0,1.15-.9,1.89-3.1,1.89a7,7,0,0,1-4.11-1.29l-.71,1.23A7.78,7.78,0,0,0,286.5,63.25Z" fill="#fff" fill-rule="evenodd"/><polygon points="118.28 81.91 113.9 91.76 109.57 81.91 107.94 81.91 113.06 93.48 114.67 93.48 119.82 81.91 118.28 81.91" fill="#fff" fill-rule="evenodd"/><path d="M122.81,79.37a1.11,1.11,0,1,0-1.14-1.12,1.11,1.11,0,0,0,1.14,1.12ZM122,93.48h1.56V81.91H122Z" fill="#fff" fill-rule="evenodd"/><polygon points="136.12 81.91 131.74 91.76 127.41 81.91 125.78 81.91 130.91 93.48 132.51 93.48 137.66 81.91 136.12 81.91" fill="#fff" fill-rule="evenodd"/><path d="M140.65,79.37a1.11,1.11,0,1,0-1.14-1.12,1.12,1.12,0,0,0,1.14,1.12Zm-.79,14.11h1.56V81.91h-1.56Z" fill="#fff" fill-rule="evenodd"/><path d="M155.88,87.69a5.52,5.52,0,0,0-5.61-5.87,5.57,5.57,0,0,0-5.66,5.87,6.12,6.12,0,0,0,10.54,4l-.88-1a4.53,4.53,0,0,1-3.54,1.52,4.29,4.29,0,0,1-4.56-4h9.68c0-.18,0-.36,0-.49Zm-5.61-4.53A4,4,0,0,1,154.38,87h-8.21A4,4,0,0,1,150.27,83.16Z" fill="#fff" fill-rule="evenodd"/><path d="M165,81.82a4.86,4.86,0,0,0-4.4,2.22V81.91h-1.49V93.48h1.56V87.4c0-2.63,1.56-4.18,4.05-4.18,2.2,0,3.47,1.26,3.47,3.7v6.56h1.56V86.77C169.71,83.44,167.78,81.82,165,81.82Z" fill="#fff" fill-rule="evenodd"/><path d="M183,77.15v7a5,5,0,0,0-4.4-2.29,5.89,5.89,0,0,0,0,11.77,5,5,0,0,0,4.47-2.4v2.29h1.49V77.15Zm-4.27,15A4.52,4.52,0,1,1,183,87.69,4.24,4.24,0,0,1,178.73,92.2Z" fill="#fff" fill-rule="evenodd"/><path d="M193,81.82a7.35,7.35,0,0,0-4.71,1.56l.7,1.17a5.9,5.9,0,0,1,3.85-1.37c2.16,0,3.28,1.08,3.28,3.06v.7h-3.67c-3.32,0-4.47,1.5-4.47,3.28,0,2,1.61,3.37,4.23,3.37a4.35,4.35,0,0,0,4-1.92v1.81h1.49V86.31c0-3-1.69-4.49-4.68-4.49Zm-.55,10.54c-1.85,0-2.93-.84-2.93-2.18s.73-2.07,3-2.07h3.63V90A3.69,3.69,0,0,1,192.42,92.36Z" fill="#fff" fill-rule="evenodd"/><path d="M205,93.59c3,0,4.78-1.3,4.78-3.3,0-4.44-7.51-2.09-7.51-5.22,0-1.1.93-1.91,3-1.91a5.88,5.88,0,0,1,3.41,1l.68-1.25a7.86,7.86,0,0,0-4.09-1.08c-2.95,0-4.58,1.4-4.58,3.3,0,4.57,7.5,2.2,7.5,5.21,0,1.14-.9,1.89-3.1,1.89a6.94,6.94,0,0,1-4.11-1.3l-.71,1.24A7.78,7.78,0,0,0,205,93.59Z" fill="#fff" fill-rule="evenodd"/><path d="M228.52,87.69a5.63,5.63,0,1,0-11.26,0,6.11,6.11,0,0,0,10.53,4l-.88-1a4.53,4.53,0,0,1-3.54,1.52,4.27,4.27,0,0,1-4.55-4h9.68c0-.18,0-.36,0-.49Zm-5.61-4.53A4,4,0,0,1,227,87h-8.2A4,4,0,0,1,222.91,83.16Z" fill="#fff" fill-rule="evenodd"/><path d="M237.61,81.82a4.84,4.84,0,0,0-4.4,2.22V81.91h-1.5V93.48h1.56V87.4c0-2.63,1.56-4.18,4-4.18,2.2,0,3.48,1.26,3.48,3.7v6.56h1.56V86.77C242.36,83.44,240.42,81.82,237.61,81.82Z" fill="#fff" fill-rule="evenodd"/><rect x="252.37" y="77.15" width="1.56" height="16.32" fill="#fff"/><path d="M262.33,81.82a7.32,7.32,0,0,0-4.7,1.56l.7,1.17a5.88,5.88,0,0,1,3.85-1.37c2.16,0,3.28,1.08,3.28,3.06v.7h-3.68c-3.32,0-4.46,1.5-4.46,3.28,0,2,1.6,3.37,4.22,3.37a4.33,4.33,0,0,0,4-1.92v1.81H267V86.31c0-3-1.69-4.49-4.69-4.49Zm-.55,10.54c-1.84,0-2.92-.84-2.92-2.18s.72-2.07,3-2.07h3.63V90A3.72,3.72,0,0,1,261.78,92.36Z" fill="#fff" fill-rule="evenodd"/><path d="M274.37,93.59c3,0,4.77-1.3,4.77-3.3,0-4.44-7.5-2.09-7.5-5.22,0-1.1.92-1.91,3-1.91a5.88,5.88,0,0,1,3.41,1l.69-1.25a7.87,7.87,0,0,0-4.1-1.08c-2.94,0-4.57,1.4-4.57,3.3,0,4.57,7.5,2.2,7.5,5.21,0,1.14-.9,1.89-3.1,1.89a7,7,0,0,1-4.12-1.3l-.7,1.24A7.76,7.76,0,0,0,274.37,93.59Z" fill="#fff" fill-rule="evenodd"/><path d="M296.85,81.91v2.28a5,5,0,0,0-4.46-2.37,5.89,5.89,0,0,0,0,11.77,5.06,5.06,0,0,0,4.4-2.29v6.45h1.56V81.91ZM292.52,92.2a4.52,4.52,0,1,1,4.29-4.51A4.23,4.23,0,0,1,292.52,92.2Z" fill="#fff" fill-rule="evenodd"/><path d="M311.57,81.91V88c0,2.64-1.52,4.2-3.94,4.2-2.2,0-3.47-1.26-3.47-3.72V81.91h-1.57v6.71c0,3.32,1.94,5,4.89,5a4.61,4.61,0,0,0,4.16-2.23v2.12h1.49V81.91Z" fill="#fff" fill-rule="evenodd"/><path d="M327.61,87.69A5.52,5.52,0,0,0,322,81.82a5.57,5.57,0,0,0-5.66,5.87,6.12,6.12,0,0,0,10.54,4l-.88-1a4.53,4.53,0,0,1-3.54,1.52,4.29,4.29,0,0,1-4.56-4h9.68c0-.18,0-.36,0-.49ZM322,83.16A4,4,0,0,1,326.11,87H317.9A4,4,0,0,1,322,83.16Z" fill="#fff" fill-rule="evenodd"/><path d="M81.88,107.49v7a5.06,5.06,0,0,0-4.4-2.28,5.89,5.89,0,0,0,0,11.77,5,5,0,0,0,4.46-2.4v2.29h1.5V107.49Zm-4.27,15.05A4.52,4.52,0,1,1,81.9,118,4.24,4.24,0,0,1,77.61,122.54Z" fill="#fff" fill-rule="evenodd"/><path d="M88.59,109.71a1.11,1.11,0,1,0,0-2.22,1.11,1.11,0,1,0,0,2.22Zm-.79,14.11h1.56V112.24H87.8Z" fill="#fff" fill-rule="evenodd"/><path d="M96.82,123.93c3,0,4.77-1.3,4.77-3.31,0-4.44-7.5-2.08-7.5-5.21,0-1.1.92-1.91,3-1.91a5.88,5.88,0,0,1,3.41,1l.68-1.26a7.8,7.8,0,0,0-4.09-1.07c-2.95,0-4.57,1.4-4.57,3.3,0,4.57,7.5,2.2,7.5,5.21,0,1.14-.9,1.89-3.1,1.89a7,7,0,0,1-4.12-1.3l-.7,1.24A7.74,7.74,0,0,0,96.82,123.93Z" fill="#fff" fill-rule="evenodd"/><path d="M110.43,112.16a5,5,0,0,0-4.46,2.37v-2.29h-1.5v15.84H106v-6.44a5.08,5.08,0,0,0,4.4,2.29,5.89,5.89,0,0,0,0-11.77Zm-.11,10.38a4.51,4.51,0,1,1,4.32-4.51A4.24,4.24,0,0,1,110.32,122.54Z" fill="#fff" fill-rule="evenodd"/><path d="M124.12,123.93a5.89,5.89,0,1,0-5.9-5.9,5.69,5.69,0,0,0,5.9,5.9Zm0-1.39a4.52,4.52,0,1,1,4.29-4.51A4.24,4.24,0,0,1,124.12,122.54Z" fill="#fff" fill-rule="evenodd"/><path d="M139.08,112.16a4.85,4.85,0,0,0-4.4,2.22v-2.14h-1.5v11.58h1.56v-6.08c0-2.64,1.57-4.18,4-4.18,2.2,0,3.48,1.26,3.48,3.7v6.56h1.56v-6.71C143.83,113.78,141.89,112.16,139.08,112.16Z" fill="#fff" fill-rule="evenodd"/><path d="M157.34,112.24v2.23a5.22,5.22,0,0,0-4.58-2.31,5.61,5.61,0,1,0,0,11.22,5.23,5.23,0,0,0,4.51-2.25v1.47c0,2.87-1.34,4.21-4.27,4.21a6.88,6.88,0,0,1-4.55-1.59l-.79,1.19a8,8,0,0,0,5.39,1.78c3.83,0,5.78-1.8,5.78-5.78V112.24ZM152.92,122a4.24,4.24,0,1,1,4.4-4.25A4.14,4.14,0,0,1,152.92,122Z" fill="#fff" fill-rule="evenodd"/><path d="M167.26,112.16a7.35,7.35,0,0,0-4.71,1.56l.71,1.16a5.9,5.9,0,0,1,3.85-1.36c2.15,0,3.27,1.08,3.27,3.06v.7h-3.67c-3.32,0-4.47,1.5-4.47,3.28,0,2,1.61,3.37,4.23,3.37a4.34,4.34,0,0,0,4-1.92v1.81H172v-7.18c0-3-1.7-4.48-4.69-4.48Zm-.55,10.53c-1.85,0-2.93-.83-2.93-2.17,0-1.19.73-2.07,3-2.07h3.63v1.89A3.69,3.69,0,0,1,166.71,122.69Z" fill="#fff" fill-rule="evenodd"/><path d="M179.29,123.93c3,0,4.78-1.3,4.78-3.31,0-4.44-7.5-2.08-7.5-5.21,0-1.1.92-1.91,3-1.91a5.88,5.88,0,0,1,3.41,1l.68-1.26a7.83,7.83,0,0,0-4.09-1.07c-3,0-4.58,1.4-4.58,3.3,0,4.57,7.51,2.2,7.51,5.21,0,1.14-.91,1.89-3.11,1.89a7,7,0,0,1-4.11-1.3l-.7,1.24A7.73,7.73,0,0,0,179.29,123.93Z" fill="#fff" fill-rule="evenodd"/><path d="M201.71,107.49v7a5.06,5.06,0,0,0-4.4-2.28,5.89,5.89,0,0,0,0,11.77,5,5,0,0,0,4.47-2.4v2.29h1.49V107.49Zm-4.27,15.05a4.52,4.52,0,1,1,4.29-4.51A4.24,4.24,0,0,1,197.44,122.54Z" fill="#fff" fill-rule="evenodd"/><path d="M217.73,118a5.51,5.51,0,0,0-5.61-5.87,5.57,5.57,0,0,0-5.66,5.87,5.74,5.74,0,0,0,6.08,5.9A5.67,5.67,0,0,0,217,122l-.88-1a4.56,4.56,0,0,1-3.54,1.52,4.28,4.28,0,0,1-4.55-4h9.68c0-.17,0-.35,0-.48Zm-5.61-4.53a4,4,0,0,1,4.11,3.85H208A4,4,0,0,1,212.12,113.5Z" fill="#fff" fill-rule="evenodd"/><rect x="220.92" y="107.49" width="1.56" height="16.32" fill="#fff"/><path d="M247,112.16a5,5,0,0,0-4.57,2.44,4.16,4.16,0,0,0-4.12-2.44,4.66,4.66,0,0,0-4.24,2.2v-2.12h-1.5v11.58h1.56v-6.08c0-2.64,1.52-4.18,3.87-4.18,2.12,0,3.35,1.26,3.35,3.7v6.56h1.56v-6.08c0-2.64,1.5-4.18,3.87-4.18,2.09,0,3.32,1.26,3.32,3.7v6.56h1.57v-6.71C251.7,113.78,249.85,112.16,247,112.16Z" fill="#fff" fill-rule="evenodd"/><path d="M260,112.16a7.35,7.35,0,0,0-4.71,1.56l.71,1.16a5.9,5.9,0,0,1,3.85-1.36c2.15,0,3.27,1.08,3.27,3.06v.7h-3.67c-3.32,0-4.47,1.5-4.47,3.28,0,2,1.61,3.37,4.23,3.37a4.34,4.34,0,0,0,4-1.92v1.81h1.5v-7.18c0-3-1.7-4.48-4.69-4.48Zm-.55,10.53c-1.85,0-2.93-.83-2.93-2.17,0-1.19.73-2.07,3-2.07h3.63v1.89A3.69,3.69,0,0,1,259.44,122.69Z" fill="#fff" fill-rule="evenodd"/><path d="M274.82,112.16a4.85,4.85,0,0,0-4.4,2.22v-2.14h-1.5v11.58h1.56v-6.08c0-2.64,1.57-4.18,4-4.18,2.2,0,3.48,1.26,3.48,3.7v6.56h1.56v-6.71C279.57,113.78,277.63,112.16,274.82,112.16Z" fill="#fff" fill-rule="evenodd"/><path d="M292.86,107.49v7a5.06,5.06,0,0,0-4.4-2.28,5.89,5.89,0,0,0,0,11.77,5,5,0,0,0,4.46-2.4v2.29h1.5V107.49Zm-4.27,15.05a4.52,4.52,0,1,1,4.29-4.51A4.24,4.24,0,0,1,288.59,122.54Z" fill="#fff" fill-rule="evenodd"/><path d="M302.82,112.16a7.32,7.32,0,0,0-4.7,1.56l.7,1.16a5.92,5.92,0,0,1,3.85-1.36c2.16,0,3.28,1.08,3.28,3.06v.7h-3.68c-3.32,0-4.46,1.5-4.46,3.28,0,2,1.6,3.37,4.22,3.37a4.33,4.33,0,0,0,4-1.92v1.81h1.5v-7.18c0-3-1.69-4.48-4.69-4.48Zm-.55,10.53c-1.84,0-2.92-.83-2.92-2.17,0-1.19.72-2.07,3-2.07H306v1.89A3.71,3.71,0,0,1,302.27,122.69Z" fill="#fff" fill-rule="evenodd"/><path d="M317.3,122a2.57,2.57,0,0,1-1.72.59,1.85,1.85,0,0,1-2-2.11v-6.91h3.52v-1.32h-3.52v-2.53H312v2.53H310v1.32H312v7a3.07,3.07,0,0,0,3.39,3.37,3.73,3.73,0,0,0,2.44-.82Z" fill="#fff" fill-rule="evenodd"/><path d="M325,123.93a5.89,5.89,0,1,0-5.9-5.9,5.69,5.69,0,0,0,5.9,5.9Zm0-1.39a4.52,4.52,0,1,1,4.29-4.51A4.24,4.24,0,0,1,325,122.54Z" fill="#fff" fill-rule="evenodd"/><path d="M349.93,118a5.51,5.51,0,0,0-5.61-5.87,5.57,5.57,0,0,0-5.66,5.87,5.74,5.74,0,0,0,6.07,5.9,5.67,5.67,0,0,0,4.47-1.9l-.88-1a4.56,4.56,0,0,1-3.54,1.52,4.29,4.29,0,0,1-4.56-4h9.68c0-.17,0-.35,0-.48Zm-5.61-4.53a4,4,0,0,1,4.11,3.85h-8.21A4,4,0,0,1,344.32,113.5Z" fill="#fff" fill-rule="evenodd"/><path d="M359,112.16a4.86,4.86,0,0,0-4.4,2.22v-2.14h-1.49v11.58h1.56v-6.08c0-2.64,1.56-4.18,4.05-4.18,2.2,0,3.47,1.26,3.47,3.7v6.56h1.56v-6.71C363.76,113.78,361.83,112.16,359,112.16Z" fill="#fff" fill-rule="evenodd"/><path d="M107.45,148.37a5.51,5.51,0,0,0-5.61-5.88,5.58,5.58,0,0,0-5.65,5.88,6.12,6.12,0,0,0,10.54,4l-.88-1a4.58,4.58,0,0,1-3.54,1.52,4.29,4.29,0,0,1-4.56-4h9.68c0-.17,0-.35,0-.48Zm-5.61-4.53a4,4,0,0,1,4.12,3.85H97.75A4,4,0,0,1,101.84,143.84Z" fill="#fff" fill-rule="evenodd"/><polygon points="119.47 154.15 114.85 148.21 119.2 142.58 117.49 142.58 114.01 147.11 110.53 142.58 108.77 142.58 113.13 148.21 108.55 154.15 110.31 154.15 114.01 149.31 117.68 154.15 119.47 154.15" fill="#fff" fill-rule="evenodd"/><path d="M126.44,154.26A5.1,5.1,0,0,0,131,152l-1.16-.8a3.93,3.93,0,0,1-3.37,1.7,4.51,4.51,0,0,1,0-9,4,4,0,0,1,3.37,1.71l1.16-.79a5,5,0,0,0-4.53-2.29,5.89,5.89,0,1,0,0,11.77Z" fill="#fff" fill-rule="evenodd"/><rect x="133.85" y="137.83" width="1.56" height="16.32" fill="#fff"/><path d="M148.64,142.58v6.07c0,2.64-1.52,4.21-3.94,4.21-2.2,0-3.48-1.26-3.48-3.72v-6.56h-1.56v6.71c0,3.32,1.94,5,4.89,5A4.59,4.59,0,0,0,148.7,152v2.11h1.5V142.58Z" fill="#fff" fill-rule="evenodd"/><path d="M157.68,154.26c3,0,4.77-1.29,4.77-3.3,0-4.44-7.5-2.08-7.5-5.21,0-1.1.93-1.91,3-1.91a5.92,5.92,0,0,1,3.41,1l.68-1.26a7.86,7.86,0,0,0-4.09-1.08c-2.95,0-4.58,1.41-4.58,3.3,0,4.58,7.5,2.21,7.5,5.22,0,1.14-.9,1.89-3.1,1.89a6.94,6.94,0,0,1-4.11-1.3l-.71,1.23A7.72,7.72,0,0,0,157.68,154.26Z" fill="#fff" fill-rule="evenodd"/><path d="M166.13,140.05a1.11,1.11,0,0,0,1.14-1.14,1.1,1.1,0,0,0-1.14-1.08,1.11,1.11,0,1,0,0,2.22Zm-.79,14.1h1.56V142.58h-1.56Z" fill="#fff" fill-rule="evenodd"/><polygon points="179.44 142.58 175.06 152.44 170.73 142.58 169.1 142.58 174.22 154.15 175.83 154.15 180.98 142.58 179.44 142.58" fill="#fff" fill-rule="evenodd"/><path d="M186.87,142.49a7.33,7.33,0,0,0-4.7,1.57l.7,1.16a5.92,5.92,0,0,1,3.85-1.36c2.16,0,3.28,1.08,3.28,3.06v.7h-3.68c-3.32,0-4.46,1.5-4.46,3.28,0,2,1.6,3.36,4.22,3.36a4.32,4.32,0,0,0,4-1.91v1.8h1.5V147c0-3-1.69-4.49-4.69-4.49ZM186.32,153c-1.84,0-2.92-.83-2.92-2.18,0-1.18.72-2.06,3-2.06H190v1.89A3.71,3.71,0,0,1,186.32,153Z" fill="#fff" fill-rule="evenodd"/><path d="M207.53,142.49a5,5,0,0,0-4.46,2.38v-2.29h-1.5v15.84h1.56V152a5.06,5.06,0,0,0,4.4,2.28,5.89,5.89,0,0,0,0-11.77Zm-.11,10.39a4.51,4.51,0,1,1,4.31-4.51A4.24,4.24,0,0,1,207.42,152.88Z" fill="#fff" fill-rule="evenodd"/><path d="M221.22,154.26a5.89,5.89,0,1,0-5.9-5.89,5.69,5.69,0,0,0,5.9,5.89Zm0-1.38a4.52,4.52,0,1,1,4.29-4.51A4.24,4.24,0,0,1,221.22,152.88Z" fill="#fff" fill-rule="evenodd"/><path d="M231.78,144.85v-2.27h-1.5v11.57h1.56v-5.89c0-2.73,1.48-4.27,3.9-4.27l.37,0v-1.52C234,142.49,232.5,143.31,231.78,144.85Z" fill="#fff" fill-rule="evenodd"/><path d="M250.83,142.49a5,5,0,0,0-4.47,2.38v-2.29h-1.49v15.84h1.56V152a5.06,5.06,0,0,0,4.4,2.28,5.89,5.89,0,0,0,0-11.77Zm-.11,10.39a4.51,4.51,0,1,1,4.31-4.51A4.24,4.24,0,0,1,250.72,152.88Z" fill="#fff" fill-rule="evenodd"/><path d="M263.76,142.49a7.33,7.33,0,0,0-4.7,1.57l.7,1.16a5.92,5.92,0,0,1,3.85-1.36c2.16,0,3.28,1.08,3.28,3.06v.7h-3.68c-3.32,0-4.46,1.5-4.46,3.28,0,2,1.6,3.36,4.22,3.36a4.32,4.32,0,0,0,4-1.91v1.8h1.5V147c0-3-1.69-4.49-4.69-4.49ZM263.21,153c-1.84,0-2.92-.83-2.92-2.18,0-1.18.72-2.06,3-2.06h3.63v1.89A3.71,3.71,0,0,1,263.21,153Z" fill="#fff" fill-rule="evenodd"/><path d="M274.19,144.85v-2.27h-1.5v11.57h1.57v-5.89c0-2.73,1.47-4.27,3.89-4.27l.37,0v-1.52C276.39,142.49,274.92,143.31,274.19,144.85Z" fill="#fff" fill-rule="evenodd"/><path d="M287.39,152.33a2.61,2.61,0,0,1-1.71.59,1.86,1.86,0,0,1-2-2.11V143.9h3.52v-1.32h-3.52v-2.53h-1.56v2.53H280v1.32h2.07v7a3.06,3.06,0,0,0,3.39,3.36,3.7,3.7,0,0,0,2.44-.81Z" fill="#fff" fill-rule="evenodd"/><path d="M300.46,148.37a5.52,5.52,0,0,0-5.61-5.88,5.58,5.58,0,0,0-5.66,5.88,6.12,6.12,0,0,0,10.54,4l-.88-1a4.56,4.56,0,0,1-3.54,1.52,4.28,4.28,0,0,1-4.55-4h9.68c0-.17,0-.35,0-.48Zm-5.61-4.53a4,4,0,0,1,4.11,3.85h-8.2A4,4,0,0,1,294.85,143.84Z" fill="#fff" fill-rule="evenodd"/><path d="M318.41,137.83v6.95a5.07,5.07,0,0,0-4.4-2.29,5.89,5.89,0,0,0,0,11.77,5,5,0,0,0,4.47-2.39v2.28H320V137.83Zm-4.27,15a4.52,4.52,0,1,1,4.29-4.51A4.24,4.24,0,0,1,314.14,152.88Z" fill="#fff" fill-rule="evenodd"/><path d="M334.43,148.37a5.52,5.52,0,0,0-5.61-5.88,5.58,5.58,0,0,0-5.66,5.88,6.12,6.12,0,0,0,10.54,4l-.88-1a4.56,4.56,0,0,1-3.54,1.52,4.29,4.29,0,0,1-4.56-4h9.68c0-.17,0-.35,0-.48Zm-5.61-4.53a4,4,0,0,1,4.11,3.85h-8.21A4,4,0,0,1,328.82,143.84Z" fill="#fff" fill-rule="evenodd"/><rect x="337.62" y="137.83" width="1.56" height="16.32" fill="#fff"/><path d="M39.63,172.83a5,5,0,0,0-4.47,2.38v-2.29H33.67v15.84h1.56v-6.45a5,5,0,0,0,4.4,2.29,5.89,5.89,0,0,0,0-11.77Zm-.11,10.39a4.51,4.51,0,1,1,4.31-4.51A4.24,4.24,0,0,1,39.52,183.22Z" fill="#fff" fill-rule="evenodd"/><path d="M50.08,175.19v-2.27h-1.5v11.57h1.56V178.6c0-2.73,1.48-4.27,3.9-4.27l.37,0v-1.52C52.28,172.83,50.8,173.65,50.08,175.19Z" fill="#fff" fill-rule="evenodd"/><path d="M61.85,184.6a5.89,5.89,0,1,0-5.9-5.89,5.68,5.68,0,0,0,5.9,5.89Zm0-1.38a4.52,4.52,0,1,1,4.29-4.51A4.24,4.24,0,0,1,61.85,183.22Z" fill="#fff" fill-rule="evenodd"/><path d="M76.87,172.83a5,5,0,0,0-4.46,2.38v-2.29h-1.5v15.84h1.56v-6.45a5.06,5.06,0,0,0,4.4,2.29,5.89,5.89,0,0,0,0-11.77Zm-.11,10.39a4.51,4.51,0,1,1,4.32-4.51A4.24,4.24,0,0,1,76.76,183.22Z" fill="#fff" fill-rule="evenodd"/><path d="M86.62,170.39a1.12,1.12,0,0,0,1.14-1.14,1.1,1.1,0,0,0-1.14-1.08,1.11,1.11,0,1,0,0,2.22Zm-.79,14.1h1.56V172.92H85.83Z" fill="#fff" fill-rule="evenodd"/><path d="M101.84,178.71a5.51,5.51,0,0,0-5.61-5.88,5.57,5.57,0,0,0-5.65,5.88,6.12,6.12,0,0,0,10.54,4l-.88-1a4.58,4.58,0,0,1-3.54,1.52,4.29,4.29,0,0,1-4.56-4h9.68c0-.18,0-.35,0-.48Zm-5.61-4.54a4,4,0,0,1,4.12,3.85H92.14A4,4,0,0,1,96.23,174.17Z" fill="#fff" fill-rule="evenodd"/><path d="M110.58,182.67a2.62,2.62,0,0,1-1.72.59,1.85,1.85,0,0,1-2-2.11v-6.91h3.52v-1.32h-3.52v-2.53H105.3v2.53h-2.07v1.32h2.07v7a3.06,3.06,0,0,0,3.39,3.36,3.72,3.72,0,0,0,2.44-.81Z" fill="#fff" fill-rule="evenodd"/><path d="M118,172.83a7.32,7.32,0,0,0-4.7,1.56l.7,1.17a5.87,5.87,0,0,1,3.85-1.36c2.16,0,3.28,1.07,3.28,3.05V178h-3.68c-3.32,0-4.46,1.49-4.46,3.28,0,2,1.6,3.36,4.22,3.36a4.32,4.32,0,0,0,4-1.91v1.8h1.5v-7.17c0-3-1.69-4.49-4.69-4.49Zm-.55,10.54c-1.84,0-2.92-.84-2.92-2.18,0-1.19.72-2.07,3-2.07h3.63V181A3.72,3.72,0,0,1,117.46,183.37Z" fill="#fff" fill-rule="evenodd"/><path d="M128.44,175.19v-2.27H127v11.57h1.56V178.6c0-2.73,1.47-4.27,3.89-4.27l.38,0v-1.52C130.64,172.83,129.17,173.65,128.44,175.19Z" fill="#fff" fill-rule="evenodd"/><path d="M136.38,170.39a1.13,1.13,0,0,0,1.15-1.14,1.11,1.11,0,0,0-1.15-1.08,1.11,1.11,0,1,0,0,2.22Zm-.79,14.1h1.56V172.92h-1.56Z" fill="#fff" fill-rule="evenodd"/><path d="M146.24,184.6a5.89,5.89,0,1,0-5.9-5.89,5.68,5.68,0,0,0,5.9,5.89Zm0-1.38a4.52,4.52,0,1,1,4.29-4.51A4.24,4.24,0,0,1,146.24,183.22Z" fill="#fff" fill-rule="evenodd"/><path d="M155.15,182.2a1.16,1.16,0,0,0-1.17,1.19,1.11,1.11,0,0,0,.8,1.12L154,187.7h1.05l.93-3a3.61,3.61,0,0,0,.31-1.28A1.16,1.16,0,0,0,155.15,182.2Z" fill="#fff" fill-rule="evenodd"/><path d="M171.36,172.83a5,5,0,0,0-4.46,2.38v-2.29h-1.5v15.84H167v-6.45a5.06,5.06,0,0,0,4.4,2.29,5.89,5.89,0,0,0,0-11.77Zm-.11,10.39a4.51,4.51,0,1,1,4.32-4.51A4.24,4.24,0,0,1,171.25,183.22Z" fill="#fff" fill-rule="evenodd"/><path d="M189.18,172.92V179c0,2.64-1.51,4.2-3.93,4.2-2.2,0-3.48-1.25-3.48-3.71v-6.56h-1.56v6.71c0,3.32,1.93,5,4.88,5a4.59,4.59,0,0,0,4.16-2.22v2.11h1.5V172.92Z" fill="#fff" fill-rule="evenodd"/><path d="M205.22,178.71a5.51,5.51,0,0,0-5.61-5.88,5.57,5.57,0,0,0-5.65,5.88,6.12,6.12,0,0,0,10.54,4l-.88-1a4.58,4.58,0,0,1-3.55,1.52,4.29,4.29,0,0,1-4.55-4h9.68c0-.18,0-.35,0-.48Zm-5.61-4.54a4,4,0,0,1,4.12,3.85h-8.21A4,4,0,0,1,199.61,174.17Z" fill="#fff" fill-rule="evenodd"/><path d="M217.41,168.17v7a5,5,0,0,0-4.4-2.29,5.89,5.89,0,0,0,0,11.77,5,5,0,0,0,4.47-2.4v2.29H219V168.17Zm-4.27,15.05a4.52,4.52,0,1,1,4.29-4.51A4.24,4.24,0,0,1,213.14,183.22Z" fill="#fff" fill-rule="evenodd"/><path d="M233.43,178.71a5.52,5.52,0,0,0-5.61-5.88,5.58,5.58,0,0,0-5.66,5.88,6.12,6.12,0,0,0,10.54,4l-.88-1a4.56,4.56,0,0,1-3.54,1.52,4.29,4.29,0,0,1-4.56-4h9.68c0-.18,0-.35,0-.48Zm-5.61-4.54a4,4,0,0,1,4.11,3.85h-8.21A4,4,0,0,1,227.82,174.17Z" fill="#fff" fill-rule="evenodd"/><path d="M239.72,184.6c3,0,4.77-1.3,4.77-3.3,0-4.44-7.5-2.09-7.5-5.21,0-1.1.92-1.92,3-1.92a6,6,0,0,1,3.41,1l.69-1.25a7.87,7.87,0,0,0-4.1-1.08c-2.94,0-4.57,1.41-4.57,3.3,0,4.58,7.5,2.2,7.5,5.22,0,1.14-.9,1.89-3.1,1.89a7,7,0,0,1-4.12-1.3l-.7,1.23A7.69,7.69,0,0,0,239.72,184.6Z" fill="#fff" fill-rule="evenodd"/><path d="M259.1,172.83a5.06,5.06,0,0,0-4.47,2.38v-2.29h-1.49v15.84h1.56v-6.45a5,5,0,0,0,4.4,2.29,5.89,5.89,0,0,0,0-11.77ZM259,183.22a4.51,4.51,0,1,1,4.31-4.51A4.24,4.24,0,0,1,259,183.22Z" fill="#fff" fill-rule="evenodd"/><path d="M276.92,172.92V179c0,2.64-1.52,4.2-3.94,4.2-2.2,0-3.47-1.25-3.47-3.71v-6.56h-1.57v6.71c0,3.32,1.94,5,4.89,5a4.62,4.62,0,0,0,4.16-2.22v2.11h1.49V172.92Z" fill="#fff" fill-rule="evenodd"/><path d="M288.82,172.83a5,5,0,0,0-4.4,2.29v-7h-1.56v16.32h1.49V182.2a5,5,0,0,0,4.47,2.4,5.89,5.89,0,0,0,0-11.77Zm-.11,10.39a4.51,4.51,0,1,1,4.31-4.51A4.24,4.24,0,0,1,288.71,183.22Z" fill="#fff" fill-rule="evenodd"/><rect x="297.77" y="168.17" width="1.56" height="16.32" fill="#fff"/><path d="M304.48,170.39a1.13,1.13,0,0,0,1.15-1.14,1.11,1.11,0,0,0-1.15-1.08,1.11,1.11,0,1,0,0,2.22Zm-.79,14.1h1.56V172.92h-1.56Z" fill="#fff" fill-rule="evenodd"/><path d="M314.41,184.6a5.11,5.11,0,0,0,4.53-2.29l-1.17-.79a3.9,3.9,0,0,1-3.36,1.7,4.51,4.51,0,0,1,0-9,3.93,3.93,0,0,1,3.36,1.71l1.17-.79a5.06,5.06,0,0,0-4.53-2.29,5.89,5.89,0,1,0,0,11.77Z" fill="#fff" fill-rule="evenodd"/><path d="M326,172.83a7.32,7.32,0,0,0-4.7,1.56l.7,1.17a5.87,5.87,0,0,1,3.85-1.36c2.16,0,3.28,1.07,3.28,3.05V178h-3.68c-3.32,0-4.46,1.49-4.46,3.28,0,2,1.6,3.36,4.22,3.36a4.32,4.32,0,0,0,4-1.91v1.8h1.5v-7.17c0-3-1.69-4.49-4.69-4.49Zm-.55,10.54c-1.84,0-2.92-.84-2.92-2.18,0-1.19.72-2.07,3-2.07h3.63V181A3.72,3.72,0,0,1,325.49,183.37Z" fill="#fff" fill-rule="evenodd"/><path d="M336.47,175.19v-2.27H335v11.57h1.56V178.6c0-2.73,1.47-4.27,3.89-4.27l.38,0v-1.52C338.67,172.83,337.2,173.65,336.47,175.19Z" fill="#fff" fill-rule="evenodd"/><rect x="343.62" y="168.17" width="1.56" height="16.32" fill="#fff"/><path d="M353.59,172.83a7.35,7.35,0,0,0-4.71,1.56l.7,1.17a5.89,5.89,0,0,1,3.85-1.36c2.16,0,3.28,1.07,3.28,3.05V178H353c-3.32,0-4.47,1.49-4.47,3.28,0,2,1.61,3.36,4.23,3.36a4.35,4.35,0,0,0,4-1.91v1.8h1.49v-7.17c0-3-1.69-4.49-4.68-4.49ZM353,183.37c-1.85,0-2.93-.84-2.93-2.18,0-1.19.73-2.07,3-2.07h3.63V181A3.7,3.7,0,0,1,353,183.37Z" fill="#fff" fill-rule="evenodd"/><path d="M365.62,184.6c3,0,4.78-1.3,4.78-3.3,0-4.44-7.51-2.09-7.51-5.21,0-1.1.93-1.92,3-1.92a6,6,0,0,1,3.41,1l.68-1.25a7.86,7.86,0,0,0-4.09-1.08c-3,0-4.58,1.41-4.58,3.3,0,4.58,7.5,2.2,7.5,5.22,0,1.14-.9,1.89-3.1,1.89a6.94,6.94,0,0,1-4.11-1.3l-.71,1.23A7.72,7.72,0,0,0,365.62,184.6Z" fill="#fff" fill-rule="evenodd"/><path d="M389.14,178.71a5.64,5.64,0,1,0-11.26,0,6.11,6.11,0,0,0,10.53,4l-.88-1a4.56,4.56,0,0,1-3.54,1.52,4.28,4.28,0,0,1-4.55-4h9.68c0-.18,0-.35,0-.48Zm-5.61-4.54a4,4,0,0,1,4.11,3.85h-8.2A4,4,0,0,1,383.53,174.17Z" fill="#fff" fill-rule="evenodd"/><path d="M398.23,172.83a4.86,4.86,0,0,0-4.4,2.22v-2.13h-1.5v11.57h1.56v-6.07c0-2.64,1.56-4.18,4.05-4.18,2.2,0,3.48,1.25,3.48,3.7v6.55H403v-6.71C403,174.46,401,172.83,398.23,172.83Z" fill="#fff" fill-rule="evenodd"/><rect x="68.63" y="199.43" width="1.63" height="15.4" fill="#fff"/><polygon points="86.54 199.43 86.54 211.93 76.62 199.43 75.28 199.43 75.28 214.83 76.91 214.83 76.91 202.33 86.81 214.83 88.15 214.83 88.15 199.43 86.54 199.43" fill="#fff" fill-rule="evenodd"/><polygon points="107.82 199.43 101.19 210.85 94.51 199.43 93.17 199.43 93.17 214.83 94.73 214.83 94.73 202.57 100.78 212.87 101.55 212.87 107.6 202.51 107.6 214.83 109.16 214.83 109.16 199.43 107.82 199.43" fill="#fff" fill-rule="evenodd"/><path d="M120.91,215a7.83,7.83,0,1,0-8.1-7.83,7.74,7.74,0,0,0,8.1,7.83Zm0-1.45a6.38,6.38,0,1,1,6.44-6.38A6.26,6.26,0,0,1,120.91,213.51Z" fill="#fff" fill-rule="evenodd"/><polygon points="133.09 213.42 143.28 200.55 143.28 199.43 131.07 199.43 131.07 200.84 141.13 200.84 130.92 213.71 130.92 214.83 143.54 214.83 143.54 213.42 133.09 213.42" fill="#fff" fill-rule="evenodd"/><path d="M153.29,215a7.83,7.83,0,1,0-8.09-7.83,7.75,7.75,0,0,0,8.09,7.83Zm0-1.45a6.38,6.38,0,1,1,6.45-6.38A6.26,6.26,0,0,1,153.29,213.51Z" fill="#fff" fill-rule="evenodd"/><polygon points="176.28 199.43 176.28 211.93 166.36 199.43 165.02 199.43 165.02 214.83 166.65 214.83 166.65 202.33 176.54 214.83 177.89 214.83 177.89 199.43 176.28 199.43" fill="#fff" fill-rule="evenodd"/><path d="M193.13,214.94a5.11,5.11,0,0,0,4.54-2.29l-1.17-.79a3.9,3.9,0,0,1-3.37,1.69,4.51,4.51,0,0,1,0-9,3.92,3.92,0,0,1,3.37,1.72l1.17-.79a5.07,5.07,0,0,0-4.54-2.29,5.89,5.89,0,1,0,0,11.77Z" fill="#fff" fill-rule="evenodd"/><path d="M205.25,214.94a5.89,5.89,0,1,0-5.89-5.9,5.69,5.69,0,0,0,5.89,5.9Zm0-1.39a4.52,4.52,0,1,1,4.29-4.51A4.24,4.24,0,0,1,205.25,213.55Z" fill="#fff" fill-rule="evenodd"/><path d="M228.75,203.17a5.06,5.06,0,0,0-4.58,2.44,4.15,4.15,0,0,0-4.11-2.44,4.68,4.68,0,0,0-4.25,2.2v-2.11h-1.49v11.57h1.56v-6.07c0-2.64,1.52-4.18,3.87-4.18,2.11,0,3.35,1.25,3.35,3.69v6.56h1.56v-6.07c0-2.64,1.49-4.18,3.87-4.18,2.09,0,3.32,1.25,3.32,3.69v6.56h1.56v-6.71C233.41,204.8,231.57,203.17,228.75,203.17Z" fill="#fff" fill-rule="evenodd"/><path d="M242.43,214.94a5.89,5.89,0,1,0-5.89-5.9,5.69,5.69,0,0,0,5.89,5.9Zm0-1.39a4.52,4.52,0,1,1,4.29-4.51A4.24,4.24,0,0,1,242.43,213.55Z" fill="#fff" fill-rule="evenodd"/><path d="M260.36,214.94c3,0,4.78-1.3,4.78-3.3,0-4.44-7.5-2.09-7.5-5.21,0-1.1.92-1.92,3-1.92a6,6,0,0,1,3.41,1l.68-1.25a7.83,7.83,0,0,0-4.09-1.08c-2.95,0-4.58,1.41-4.58,3.3,0,4.58,7.51,2.2,7.51,5.21,0,1.15-.91,1.9-3.11,1.9a7,7,0,0,1-4.11-1.3l-.7,1.23A7.73,7.73,0,0,0,260.36,214.94Z" fill="#fff" fill-rule="evenodd"/><path d="M268.81,200.73a1.13,1.13,0,0,0,1.15-1.15,1.15,1.15,0,0,0-2.29,0,1.13,1.13,0,0,0,1.14,1.12Zm-.79,14.1h1.56V203.26H268Z" fill="#fff" fill-rule="evenodd"/><path d="M283.53,199.72a2.62,2.62,0,0,1,1.72.57l.52-1.17a3.68,3.68,0,0,0-2.31-.72,3.18,3.18,0,0,0-3.49,3.43v1.43H277.9v1.32H280v10.25h1.56V204.58h3.52v-1.32h-3.57v-1.37C281.48,200.46,282.19,199.72,283.53,199.72Z" fill="#fff" fill-rule="evenodd"/><path d="M296,203.26v6.07c0,2.64-1.52,4.2-3.94,4.2-2.2,0-3.48-1.25-3.48-3.72v-6.55h-1.56V210c0,3.32,1.94,5,4.88,5a4.59,4.59,0,0,0,4.16-2.22v2.11h1.5V203.26Z" fill="#fff" fill-rule="evenodd"/><path d="M312.06,209a5.51,5.51,0,0,0-5.61-5.87A5.57,5.57,0,0,0,300.8,209a6.12,6.12,0,0,0,10.54,4l-.88-1a4.57,4.57,0,0,1-3.54,1.51,4.29,4.29,0,0,1-4.56-4H312c0-.18,0-.35,0-.49Zm-5.61-4.53a4,4,0,0,1,4.12,3.85h-8.21A4,4,0,0,1,306.45,204.51Z" fill="#fff" fill-rule="evenodd"/><path d="M316.75,205.52v-2.26h-1.5v11.57h1.57v-5.9c0-2.72,1.47-4.26,3.89-4.26l.37,0v-1.52C319,203.17,317.48,204,316.75,205.52Z" fill="#fff" fill-rule="evenodd"/><path d="M327.93,203.17a7.33,7.33,0,0,0-4.71,1.56l.7,1.17a5.9,5.9,0,0,1,3.85-1.37c2.16,0,3.28,1.08,3.28,3.06v.71h-3.67c-3.33,0-4.47,1.49-4.47,3.27,0,2,1.61,3.37,4.22,3.37a4.37,4.37,0,0,0,4-1.91v1.8h1.49v-7.17c0-3-1.69-4.49-4.68-4.49Zm-.55,10.54c-1.85,0-2.93-.84-2.93-2.18,0-1.19.73-2.07,3-2.07h3.63v1.89A3.7,3.7,0,0,1,327.38,213.71Z" fill="#fff" fill-rule="evenodd"/><path d="M340,214.94c3,0,4.77-1.3,4.77-3.3,0-4.44-7.5-2.09-7.5-5.21,0-1.1.93-1.92,3-1.92a6,6,0,0,1,3.41,1l.68-1.25a7.86,7.86,0,0,0-4.09-1.08c-2.95,0-4.58,1.41-4.58,3.3,0,4.58,7.5,2.2,7.5,5.21,0,1.15-.9,1.9-3.1,1.9a7,7,0,0,1-4.11-1.3l-.71,1.23A7.78,7.78,0,0,0,340,214.94Z" fill="#fff" fill-rule="evenodd"/><path d="M363.48,209a5.52,5.52,0,0,0-5.61-5.87,5.57,5.57,0,0,0-5.66,5.87,6.12,6.12,0,0,0,10.54,4l-.88-1a4.55,4.55,0,0,1-3.54,1.51,4.27,4.27,0,0,1-4.55-4h9.68c0-.18,0-.35,0-.49Zm-5.61-4.53a4,4,0,0,1,4.11,3.85h-8.2A4,4,0,0,1,357.87,204.51Z" fill="#fff" fill-rule="evenodd"/><rect x="366.67" y="198.51" width="1.56" height="16.32" fill="#fff"/><path d="M76.28,233.51a5.05,5.05,0,0,0-4.47,2.37V233.6H70.32v15.84h1.56V243a5,5,0,0,0,4.4,2.29,5.89,5.89,0,0,0,0-11.77Zm-.11,10.38a4.51,4.51,0,1,1,4.31-4.51A4.24,4.24,0,0,1,76.17,243.89Z" fill="#fff" fill-rule="evenodd"/><path d="M86.73,235.86V233.6h-1.5v11.57H86.8v-5.9c0-2.73,1.47-4.27,3.89-4.27.11,0,.24,0,.37,0v-1.52C88.93,233.51,87.46,234.32,86.73,235.86Z" fill="#fff" fill-rule="evenodd"/><path d="M98.5,245.28a5.89,5.89,0,1,0-5.9-5.9,5.69,5.69,0,0,0,5.9,5.9Zm0-1.39a4.52,4.52,0,1,1,4.29-4.51A4.24,4.24,0,0,1,98.5,243.89Z" fill="#fff" fill-rule="evenodd"/><path d="M113.53,233.51a5,5,0,0,0-4.47,2.37V233.6h-1.5v15.84h1.57V243a5,5,0,0,0,4.4,2.29,5.89,5.89,0,0,0,0-11.77Zm-.11,10.38a4.51,4.51,0,1,1,4.31-4.51A4.24,4.24,0,0,1,113.42,243.89Z" fill="#fff" fill-rule="evenodd"/><path d="M123.27,231.07a1.13,1.13,0,0,0,1.15-1.15,1.15,1.15,0,0,0-2.29,0,1.13,1.13,0,0,0,1.14,1.13Zm-.79,14.1H124V233.6h-1.56Z" fill="#fff" fill-rule="evenodd"/><path d="M138.5,239.38a5.52,5.52,0,0,0-5.61-5.87,5.57,5.57,0,0,0-5.66,5.87,6.12,6.12,0,0,0,10.54,4l-.88-1a4.53,4.53,0,0,1-3.54,1.52,4.29,4.29,0,0,1-4.56-4h9.68c0-.18,0-.36,0-.49Zm-5.61-4.53A4,4,0,0,1,137,238.7h-8.21A4,4,0,0,1,132.89,234.85Z" fill="#fff" fill-rule="evenodd"/><path d="M147.23,243.34a2.58,2.58,0,0,1-1.72.6,1.86,1.86,0,0,1-2-2.12v-6.9H147V233.6h-3.52v-2.53H142v2.53h-2.07v1.32H142v7a3.07,3.07,0,0,0,3.39,3.37,3.73,3.73,0,0,0,2.44-.82Z" fill="#fff" fill-rule="evenodd"/><path d="M154.67,233.51a7.33,7.33,0,0,0-4.71,1.56l.7,1.17a5.9,5.9,0,0,1,3.85-1.37c2.16,0,3.28,1.08,3.28,3.06v.7h-3.67c-3.33,0-4.47,1.5-4.47,3.28,0,2,1.61,3.37,4.22,3.37a4.36,4.36,0,0,0,4-1.92v1.81h1.49V238c0-3-1.69-4.49-4.68-4.49Zm-.55,10.54c-1.85,0-2.93-.84-2.93-2.18,0-1.19.73-2.07,3-2.07h3.63v1.89A3.7,3.7,0,0,1,154.12,244.05Z" fill="#fff" fill-rule="evenodd"/><path d="M165.09,235.86V233.6H163.6v11.57h1.56v-5.9c0-2.73,1.47-4.27,3.89-4.27.11,0,.25,0,.38,0v-1.52C167.29,233.51,165.82,234.32,165.09,235.86Z" fill="#fff" fill-rule="evenodd"/><path d="M173,231.07a1.12,1.12,0,1,0-1.14-1.13,1.14,1.14,0,0,0,1.14,1.13Zm-.79,14.1h1.57V233.6h-1.57Z" fill="#fff" fill-rule="evenodd"/><path d="M182.89,245.28a5.89,5.89,0,1,0-5.9-5.9,5.69,5.69,0,0,0,5.9,5.9Zm0-1.39a4.52,4.52,0,1,1,4.29-4.51A4.24,4.24,0,0,1,182.89,243.89Z" fill="#fff" fill-rule="evenodd"/><path d="M191.8,242.88a1.15,1.15,0,0,0-1.16,1.19,1.1,1.1,0,0,0,.79,1.12l-.75,3.19h1.06l.92-3a3.57,3.57,0,0,0,.31-1.27A1.16,1.16,0,0,0,191.8,242.88Z" fill="#fff" fill-rule="evenodd"/><path d="M206.78,245.28a5.89,5.89,0,1,0-5.89-5.9,5.7,5.7,0,0,0,5.89,5.9Zm0-1.39a4.52,4.52,0,1,1,4.29-4.51A4.24,4.24,0,0,1,206.78,243.89Z" fill="#fff" fill-rule="evenodd"/><path d="M219.68,230.05a2.6,2.6,0,0,1,1.71.58l.53-1.17a3.69,3.69,0,0,0-2.31-.73,3.19,3.19,0,0,0-3.5,3.44v1.43H214v1.32h2.07v10.25h1.56V234.92h3.52V233.6h-3.56v-1.37C217.63,230.8,218.33,230.05,219.68,230.05Z" fill="#fff" fill-rule="evenodd"/><path d="M226.56,235.86V233.6h-1.5v11.57h1.57v-5.9c0-2.73,1.47-4.27,3.89-4.27.11,0,.24,0,.37,0v-1.52C228.76,233.51,227.29,234.32,226.56,235.86Z" fill="#fff" fill-rule="evenodd"/><path d="M243.7,239.38a5.51,5.51,0,0,0-5.61-5.87,5.57,5.57,0,0,0-5.66,5.87,6.12,6.12,0,0,0,10.54,4l-.88-1a4.53,4.53,0,0,1-3.54,1.52,4.27,4.27,0,0,1-4.55-4h9.68c0-.18,0-.36,0-.49Zm-5.61-4.53a4,4,0,0,1,4.11,3.85H234A4,4,0,0,1,238.09,234.85Z" fill="#fff" fill-rule="evenodd"/><path d="M251.69,245.28a5.11,5.11,0,0,0,4.53-2.29l-1.17-.79a3.91,3.91,0,0,1-3.36,1.69,4.51,4.51,0,0,1,0-9,3.92,3.92,0,0,1,3.36,1.72l1.17-.79a5.06,5.06,0,0,0-4.53-2.29,5.89,5.89,0,1,0,0,11.77Z" fill="#fff" fill-rule="evenodd"/><path d="M260.07,231.07a1.12,1.12,0,1,0-1.15-1.13,1.14,1.14,0,0,0,1.15,1.13Zm-.8,14.1h1.57V233.6h-1.57Z" fill="#fff" fill-rule="evenodd"/><path d="M275.29,239.38a5.63,5.63,0,1,0-11.26,0,6.11,6.11,0,0,0,10.53,4l-.88-1a4.53,4.53,0,0,1-3.54,1.52,4.27,4.27,0,0,1-4.55-4h9.68c0-.18,0-.36,0-.49Zm-5.61-4.53a4,4,0,0,1,4.11,3.85h-8.2A4,4,0,0,1,269.68,234.85Z" fill="#fff" fill-rule="evenodd"/><path d="M284.38,233.51a4.84,4.84,0,0,0-4.4,2.22V233.6h-1.5v11.57H280V239.1c0-2.64,1.56-4.18,4-4.18,2.2,0,3.48,1.25,3.48,3.69v6.56h1.56v-6.71C289.13,235.14,287.19,233.51,284.38,233.51Z" fill="#fff" fill-rule="evenodd"/><path d="M302.42,228.84v7a5.06,5.06,0,0,0-4.4-2.29,5.89,5.89,0,0,0,0,11.77,5,5,0,0,0,4.46-2.4v2.29H304V228.84Zm-4.27,15a4.52,4.52,0,1,1,4.29-4.51A4.23,4.23,0,0,1,298.15,243.89Z" fill="#fff" fill-rule="evenodd"/><path d="M313.06,245.28a5.89,5.89,0,1,0-5.89-5.9,5.7,5.7,0,0,0,5.89,5.9Zm0-1.39a4.52,4.52,0,1,1,4.29-4.51A4.24,4.24,0,0,1,313.06,243.89Z" fill="#fff" fill-rule="evenodd"/><path d="M336.76,233.6v6.07c0,2.64-1.52,4.2-3.94,4.2-2.2,0-3.48-1.25-3.48-3.72V233.6h-1.56v6.71c0,3.32,1.94,5,4.89,5a4.61,4.61,0,0,0,4.15-2.22v2.11h1.5V233.6Z" fill="#fff" fill-rule="evenodd"/><path d="M348.59,233.51a4.86,4.86,0,0,0-4.4,2.22V233.6H342.7v11.57h1.56V239.1c0-2.64,1.56-4.18,4.05-4.18,2.2,0,3.47,1.25,3.47,3.69v6.56h1.57v-6.71C353.35,235.14,351.41,233.51,348.59,233.51Z" fill="#fff" fill-rule="evenodd"/><path d="M361.64,233.51a7.35,7.35,0,0,0-4.71,1.56l.71,1.17a5.86,5.86,0,0,1,3.85-1.37c2.15,0,3.27,1.08,3.27,3.06v.7h-3.67c-3.32,0-4.47,1.5-4.47,3.28,0,2,1.61,3.37,4.23,3.37a4.34,4.34,0,0,0,4-1.92v1.81h1.5V238c0-3-1.7-4.49-4.69-4.49Zm-.55,10.54c-1.85,0-2.93-.84-2.93-2.18,0-1.19.73-2.07,3-2.07h3.63v1.89A3.69,3.69,0,0,1,361.09,244.05Z" fill="#fff" fill-rule="evenodd"/><path d="M63.22,275.62a5.11,5.11,0,0,0,4.53-2.29l-1.16-.79a3.93,3.93,0,0,1-3.37,1.69,4.51,4.51,0,0,1,0-9,3.93,3.93,0,0,1,3.37,1.72l1.16-.8a5.05,5.05,0,0,0-4.53-2.28,5.89,5.89,0,1,0,0,11.77Z" fill="#fff" fill-rule="evenodd"/><path d="M75.34,275.62a5.89,5.89,0,1,0-5.89-5.9,5.7,5.7,0,0,0,5.89,5.9Zm0-1.39a4.52,4.52,0,1,1,4.29-4.51A4.24,4.24,0,0,1,75.34,274.23Z" fill="#fff" fill-rule="evenodd"/><path d="M98.84,263.85a5,5,0,0,0-4.58,2.44,4.15,4.15,0,0,0-4.11-2.44,4.68,4.68,0,0,0-4.25,2.2v-2.12H84.41v11.58H86v-6.08c0-2.64,1.52-4.18,3.87-4.18,2.11,0,3.35,1.26,3.35,3.7v6.56h1.56v-6.08c0-2.64,1.49-4.18,3.87-4.18,2.09,0,3.32,1.26,3.32,3.7v6.56h1.56V268.8C103.5,265.47,101.66,263.85,98.84,263.85Z" fill="#fff" fill-rule="evenodd"/><path d="M108.54,261.4a1.11,1.11,0,1,0-1.14-1.12,1.12,1.12,0,0,0,1.14,1.12Zm-.79,14.11h1.56V263.93h-1.56Z" fill="#fff" fill-rule="evenodd"/><path d="M116.77,275.62c3,0,4.77-1.3,4.77-3.3,0-4.44-7.5-2.09-7.5-5.22,0-1.1.93-1.91,3-1.91a5.92,5.92,0,0,1,3.41,1l.68-1.26a7.85,7.85,0,0,0-4.09-1.07c-3,0-4.58,1.4-4.58,3.3,0,4.57,7.5,2.2,7.5,5.21,0,1.14-.9,1.89-3.1,1.89a6.94,6.94,0,0,1-4.11-1.3l-.71,1.24A7.78,7.78,0,0,0,116.77,275.62Z" fill="#fff" fill-rule="evenodd"/><path d="M125.22,261.4a1.11,1.11,0,1,0,0-2.22,1.11,1.11,0,1,0,0,2.22Zm-.79,14.11H126V263.93h-1.56Z" fill="#fff" fill-rule="evenodd"/><path d="M133.62,262.15h1.54l3.57-2.73h-2.09l-3,2.73Zm1.45,13.47a5.89,5.89,0,1,0-5.89-5.9,5.7,5.7,0,0,0,5.89,5.9Zm0-1.39a4.52,4.52,0,1,1,4.29-4.51A4.24,4.24,0,0,1,135.07,274.23Z" fill="#fff" fill-rule="evenodd"/><path d="M150,263.85a4.86,4.86,0,0,0-4.4,2.22v-2.14h-1.49v11.58h1.56v-6.08c0-2.64,1.56-4.18,4.05-4.18,2.2,0,3.47,1.26,3.47,3.7v6.56h1.57V268.8C154.79,265.47,152.85,263.85,150,263.85Z" fill="#fff" fill-rule="evenodd"/><path d="M179.23,263.85a5,5,0,0,0-4.58,2.44,4.15,4.15,0,0,0-4.11-2.44,4.68,4.68,0,0,0-4.25,2.2v-2.12H164.8v11.58h1.56v-6.08c0-2.64,1.52-4.18,3.87-4.18,2.11,0,3.34,1.26,3.34,3.7v6.56h1.57v-6.08c0-2.64,1.49-4.18,3.87-4.18,2.09,0,3.32,1.26,3.32,3.7v6.56h1.56V268.8C183.89,265.47,182,263.85,179.23,263.85Z" fill="#fff" fill-rule="evenodd"/><path d="M187.5,262.15H189l3.56-2.73h-2.09l-3,2.73Zm.64,13.36h1.56V263.93h-1.56Z" fill="#fff" fill-rule="evenodd"/><path d="M200,263.85a4.86,4.86,0,0,0-4.4,2.22v-2.14h-1.49v11.58h1.56v-6.08c0-2.64,1.56-4.18,4-4.18,2.2,0,3.47,1.26,3.47,3.7v6.56h1.56V268.8C204.7,265.47,202.77,263.85,200,263.85Z" fill="#fff" fill-rule="evenodd"/><path d="M209.74,261.4a1.11,1.11,0,1,0-1.14-1.12,1.12,1.12,0,0,0,1.14,1.12ZM209,275.51h1.56V263.93H209Z" fill="#fff" fill-rule="evenodd"/><path d="M229.3,263.85a5,5,0,0,0-4.58,2.44,4.15,4.15,0,0,0-4.11-2.44,4.68,4.68,0,0,0-4.25,2.2v-2.12h-1.49v11.58h1.56v-6.08c0-2.64,1.52-4.18,3.87-4.18,2.11,0,3.35,1.26,3.35,3.7v6.56h1.56v-6.08c0-2.64,1.49-4.18,3.87-4.18,2.09,0,3.32,1.26,3.32,3.7v6.56H234V268.8C234,265.47,232.12,263.85,229.3,263.85Z" fill="#fff" fill-rule="evenodd"/><path d="M242.26,263.85a7.35,7.35,0,0,0-4.71,1.56l.7,1.16a5.94,5.94,0,0,1,3.85-1.36c2.16,0,3.28,1.08,3.28,3.06v.7h-3.67c-3.32,0-4.47,1.5-4.47,3.28,0,2,1.61,3.37,4.23,3.37a4.35,4.35,0,0,0,4-1.92v1.81h1.49v-7.18c0-3-1.69-4.48-4.68-4.48Zm-.55,10.53c-1.85,0-2.93-.83-2.93-2.17,0-1.19.73-2.07,3-2.07h3.63V272A3.69,3.69,0,0,1,241.71,274.38Z" fill="#fff" fill-rule="evenodd"/><path d="M266,259.18v6.95a5.06,5.06,0,0,0-4.4-2.28,5.89,5.89,0,0,0,0,11.77,5,5,0,0,0,4.47-2.4v2.29h1.49V259.18Zm-4.27,15.05a4.52,4.52,0,1,1,4.29-4.51A4.24,4.24,0,0,1,261.68,274.23Z" fill="#fff" fill-rule="evenodd"/><path d="M282,269.72a5.51,5.51,0,0,0-5.61-5.87,5.57,5.57,0,0,0-5.66,5.87,5.74,5.74,0,0,0,6.08,5.9,5.67,5.67,0,0,0,4.46-1.9l-.88-1a4.56,4.56,0,0,1-3.54,1.52,4.28,4.28,0,0,1-4.55-4H282c0-.17,0-.35,0-.48Zm-5.61-4.53a4,4,0,0,1,4.11,3.85h-8.2A4,4,0,0,1,276.36,265.19Z" fill="#fff" fill-rule="evenodd"/><rect x="285.16" y="259.18" width="1.56" height="16.32" fill="#fff"/><path d="M301,266.71l4.36-5.48v-1.12h-9.9v1.4h7.87l-4.26,5.35V268h1.1c2.86,0,4.15,1.21,4.15,3.05s-1.4,3.11-4,3.11a6.72,6.72,0,0,1-4.77-1.79l-.77,1.26a8,8,0,0,0,5.54,2c3.72,0,5.59-2,5.59-4.56S304.34,266.88,301,266.71Z" fill="#fff" fill-rule="evenodd"/><path d="M311.25,268.36c2.05,0,3.48-1.65,3.48-4.18S313.3,260,311.25,260s-3.48,1.67-3.48,4.18,1.41,4.18,3.48,4.18Zm-1.19,7.15h1.3l10.52-15.4h-1.3l-10.52,15.4Zm1.19-8.14c-1.45,0-2.38-1.21-2.38-3.19s.93-3.19,2.38-3.19,2.38,1.18,2.38,3.19-.95,3.19-2.38,3.19Zm9.44,8.25c2.07,0,3.47-1.68,3.47-4.18s-1.4-4.18-3.47-4.18-3.48,1.67-3.48,4.18,1.43,4.18,3.48,4.18Zm0-1c-1.43,0-2.38-1.19-2.38-3.19s.95-3.19,2.38-3.19,2.37,1.21,2.37,3.19S322.14,274.63,320.69,274.63Z" fill="#fff" fill-rule="evenodd"/><path d="M339,263.85a5,5,0,0,0-4.46,2.37v-2.29H333v15.84h1.56v-6.44a5.07,5.07,0,0,0,4.4,2.29,5.89,5.89,0,0,0,0-11.77Zm-.11,10.38a4.51,4.51,0,1,1,4.31-4.51A4.24,4.24,0,0,1,338.88,274.23Z" fill="#fff" fill-rule="evenodd"/><path d="M351.93,263.85a7.35,7.35,0,0,0-4.71,1.56l.7,1.16a5.94,5.94,0,0,1,3.85-1.36c2.16,0,3.28,1.08,3.28,3.06v.7h-3.67c-3.32,0-4.47,1.5-4.47,3.28,0,2,1.61,3.37,4.23,3.37a4.35,4.35,0,0,0,4-1.92v1.81h1.49v-7.18c0-3-1.69-4.48-4.68-4.48Zm-.55,10.53c-1.85,0-2.93-.83-2.93-2.17,0-1.19.73-2.07,3-2.07h3.63V272A3.69,3.69,0,0,1,351.38,274.38Z" fill="#fff" fill-rule="evenodd"/><path d="M362.36,266.2v-2.27h-1.5v11.58h1.56v-5.9c0-2.73,1.48-4.27,3.9-4.27l.37,0v-1.51C364.55,263.85,363.08,264.66,362.36,266.2Z" fill="#fff" fill-rule="evenodd"/><path d="M373.53,263.85a7.37,7.37,0,0,0-4.71,1.56l.71,1.16a5.9,5.9,0,0,1,3.85-1.36c2.15,0,3.28,1.08,3.28,3.06v.7H373c-3.32,0-4.46,1.5-4.46,3.28,0,2,1.6,3.37,4.22,3.37a4.34,4.34,0,0,0,4-1.92v1.81h1.5v-7.18c0-3-1.7-4.48-4.69-4.48ZM373,274.38c-1.85,0-2.92-.83-2.92-2.17,0-1.19.72-2.07,3-2.07h3.63V272A3.71,3.71,0,0,1,373,274.38Z" fill="#fff" fill-rule="evenodd"/><path d="M52.79,306a5.89,5.89,0,1,0-5.89-5.89A5.69,5.69,0,0,0,52.79,306Zm0-1.38a4.52,4.52,0,1,1,4.29-4.51A4.24,4.24,0,0,1,52.79,304.57Z" fill="#fff" fill-rule="evenodd"/><path d="M67.4,304a2.61,2.61,0,0,1-1.71.59,1.86,1.86,0,0,1-2-2.11v-6.91H67.2v-1.32H63.68v-2.53H62.12v2.53H60.05v1.32h2.07v7A3.06,3.06,0,0,0,65.51,306a3.7,3.7,0,0,0,2.44-.81Z" fill="#fff" fill-rule="evenodd"/><path d="M72.29,296.54v-2.27h-1.5v11.57h1.56V300c0-2.73,1.48-4.27,3.9-4.27l.37,0v-1.52C74.49,294.18,73,295,72.29,296.54Z" fill="#fff" fill-rule="evenodd"/><path d="M83.46,294.18a7.38,7.38,0,0,0-4.71,1.57l.71,1.16a5.9,5.9,0,0,1,3.85-1.36c2.15,0,3.28,1.08,3.28,3.06v.7H82.91c-3.32,0-4.46,1.5-4.46,3.28,0,2,1.6,3.36,4.22,3.36a4.34,4.34,0,0,0,4-1.91v1.8h1.5v-7.17c0-3-1.7-4.49-4.69-4.49Zm-.55,10.54c-1.85,0-2.92-.83-2.92-2.18,0-1.18.72-2.06,3-2.06h3.63v1.89A3.71,3.71,0,0,1,82.91,304.72Z" fill="#fff" fill-rule="evenodd"/><path d="M95.5,306c3,0,4.77-1.29,4.77-3.3,0-4.44-7.5-2.08-7.5-5.21,0-1.1.92-1.91,3-1.91a5.88,5.88,0,0,1,3.41,1l.68-1.26a7.8,7.8,0,0,0-4.09-1.08c-3,0-4.57,1.41-4.57,3.3,0,4.58,7.5,2.21,7.5,5.22,0,1.14-.9,1.89-3.1,1.89a7,7,0,0,1-4.12-1.3l-.7,1.23A7.67,7.67,0,0,0,95.5,306Z" fill="#fff" fill-rule="evenodd"/><path d="M113,294.18a7.33,7.33,0,0,0-4.7,1.57l.7,1.16a5.92,5.92,0,0,1,3.85-1.36c2.16,0,3.28,1.08,3.28,3.06v.7h-3.68c-3.32,0-4.46,1.5-4.46,3.28,0,2,1.6,3.36,4.22,3.36a4.32,4.32,0,0,0,4-1.91v1.8h1.5v-7.17c0-3-1.69-4.49-4.69-4.49Zm-.55,10.54c-1.84,0-2.92-.83-2.92-2.18,0-1.18.72-2.06,3-2.06h3.63v1.89A3.71,3.71,0,0,1,112.41,304.72Z" fill="#fff" fill-rule="evenodd"/><path d="M131.16,294.27v2.22a5.25,5.25,0,0,0-4.58-2.31,5.61,5.61,0,1,0,0,11.22,5.22,5.22,0,0,0,4.51-2.24v1.47c0,2.86-1.34,4.21-4.27,4.21a6.88,6.88,0,0,1-4.55-1.59l-.79,1.19a8.09,8.09,0,0,0,5.39,1.78c3.83,0,5.78-1.8,5.78-5.78V294.27ZM126.74,304a4.24,4.24,0,1,1,4.4-4.25A4.14,4.14,0,0,1,126.74,304Z" fill="#fff" fill-rule="evenodd"/><path d="M147.13,300.06a5.51,5.51,0,0,0-5.61-5.88,5.57,5.57,0,0,0-5.65,5.88,6.11,6.11,0,0,0,10.53,4l-.88-1a4.56,4.56,0,0,1-3.54,1.52,4.28,4.28,0,0,1-4.55-4h9.68c0-.17,0-.35,0-.48Zm-5.61-4.53a4,4,0,0,1,4.11,3.85h-8.2A4,4,0,0,1,141.52,295.53Z" fill="#fff" fill-rule="evenodd"/><path d="M156.22,294.18a4.85,4.85,0,0,0-4.4,2.23v-2.14h-1.5v11.57h1.56v-6.07c0-2.64,1.56-4.18,4.05-4.18,2.2,0,3.48,1.26,3.48,3.7v6.55H161v-6.71C161,295.81,159,294.18,156.22,294.18Z" fill="#fff" fill-rule="evenodd"/><path d="M170.05,306a5.13,5.13,0,0,0,4.54-2.28l-1.17-.8a3.91,3.91,0,0,1-3.37,1.7,4.51,4.51,0,0,1,0-9,3.94,3.94,0,0,1,3.37,1.71l1.17-.79a5.07,5.07,0,0,0-4.54-2.29,5.89,5.89,0,1,0,0,11.77Z" fill="#fff" fill-rule="evenodd"/><path d="M178.44,291.74a1.11,1.11,0,1,0,0-2.22,1.11,1.11,0,1,0,0,2.22Zm-.8,14.1h1.57V294.27h-1.57Z" fill="#fff" fill-rule="evenodd"/><path d="M187.61,294.18a7.36,7.36,0,0,0-4.71,1.57l.71,1.16a5.9,5.9,0,0,1,3.85-1.36c2.15,0,3.27,1.08,3.27,3.06v.7h-3.67c-3.32,0-4.47,1.5-4.47,3.28,0,2,1.61,3.36,4.23,3.36a4.34,4.34,0,0,0,4-1.91v1.8h1.5v-7.17c0-3-1.7-4.49-4.69-4.49Zm-.55,10.54c-1.85,0-2.93-.83-2.93-2.18,0-1.18.73-2.06,3-2.06h3.63v1.89A3.69,3.69,0,0,1,187.06,304.72Z" fill="#fff" fill-rule="evenodd"/><path d="M199.64,306c3,0,4.78-1.29,4.78-3.3,0-4.44-7.5-2.08-7.5-5.21,0-1.1.92-1.91,3-1.91a5.88,5.88,0,0,1,3.41,1l.68-1.26a7.83,7.83,0,0,0-4.09-1.08c-3,0-4.58,1.41-4.58,3.3,0,4.58,7.51,2.21,7.51,5.22,0,1.14-.91,1.89-3.11,1.89a7,7,0,0,1-4.11-1.3l-.7,1.23A7.66,7.66,0,0,0,199.64,306Z" fill="#fff" fill-rule="evenodd"/><path d="M207.45,306a1.2,1.2,0,0,0,1.19-1.21,1.18,1.18,0,0,0-1.19-1.18,1.16,1.16,0,0,0-1.16,1.18A1.18,1.18,0,0,0,207.45,306Z" fill="#fff" fill-rule="evenodd"/><path d="M218.06,305.84h6.27c4.93,0,8.25-3.16,8.25-7.7s-3.32-7.7-8.25-7.7h-6.27v15.4Zm1.63-1.4V291.85h4.55c4.09,0,6.73,2.6,6.73,6.29s-2.64,6.3-6.73,6.3Z" fill="#fff" fill-rule="evenodd"/><path d="M246,300.06a5.52,5.52,0,0,0-5.61-5.88,5.58,5.58,0,0,0-5.66,5.88,6.12,6.12,0,0,0,10.54,4l-.88-1a4.56,4.56,0,0,1-3.54,1.52,4.28,4.28,0,0,1-4.55-4H246c0-.17,0-.35,0-.48Zm-5.61-4.53a4,4,0,0,1,4.11,3.85h-8.2A4,4,0,0,1,240.39,295.53Z" fill="#fff" fill-rule="evenodd"/><path d="M265.05,300.06a5.51,5.51,0,0,0-5.61-5.88,5.57,5.57,0,0,0-5.65,5.88,6.11,6.11,0,0,0,10.53,4l-.88-1a4.56,4.56,0,0,1-3.54,1.52,4.28,4.28,0,0,1-4.55-4H265c0-.17,0-.35,0-.48Zm-5.61-4.53a4,4,0,0,1,4.11,3.85h-8.2A4,4,0,0,1,259.44,295.53Z" fill="#fff" fill-rule="evenodd"/><path d="M271.34,306c3,0,4.78-1.29,4.78-3.3,0-4.44-7.51-2.08-7.51-5.21,0-1.1.93-1.91,3-1.91a5.88,5.88,0,0,1,3.41,1l.68-1.26a7.86,7.86,0,0,0-4.09-1.08c-2.95,0-4.58,1.41-4.58,3.3,0,4.58,7.5,2.21,7.5,5.22,0,1.14-.9,1.89-3.1,1.89a6.94,6.94,0,0,1-4.11-1.3l-.71,1.23A7.72,7.72,0,0,0,271.34,306Z" fill="#fff" fill-rule="evenodd"/><path d="M284.54,304a2.61,2.61,0,0,1-1.71.59,1.86,1.86,0,0,1-2-2.11v-6.91h3.52v-1.32h-3.52v-2.53h-1.56v2.53h-2.07v1.32h2.07v7a3.06,3.06,0,0,0,3.39,3.36,3.7,3.7,0,0,0,2.44-.81Z" fill="#fff" fill-rule="evenodd"/><path d="M292,294.18a7.36,7.36,0,0,0-4.71,1.57l.7,1.16a5.94,5.94,0,0,1,3.85-1.36c2.16,0,3.28,1.08,3.28,3.06v.7h-3.67c-3.32,0-4.47,1.5-4.47,3.28,0,2,1.61,3.36,4.23,3.36a4.35,4.35,0,0,0,4-1.91v1.8h1.49v-7.17c0-3-1.69-4.49-4.68-4.49Zm-.55,10.54c-1.85,0-2.93-.83-2.93-2.18,0-1.18.73-2.06,3-2.06h3.63v1.89A3.69,3.69,0,0,1,291.43,304.72Z" fill="#fff" fill-rule="evenodd"/><path d="M321.11,294.18a5,5,0,0,0-4.58,2.45,4.15,4.15,0,0,0-4.11-2.45,4.69,4.69,0,0,0-4.25,2.2v-2.11h-1.5v11.57h1.57v-6.07c0-2.64,1.51-4.18,3.87-4.18,2.11,0,3.34,1.26,3.34,3.7v6.55H317v-6.07c0-2.64,1.5-4.18,3.88-4.18,2.09,0,3.32,1.26,3.32,3.7v6.55h1.56v-6.71C325.77,295.81,323.92,294.18,321.11,294.18Z" fill="#fff" fill-rule="evenodd"/><path d="M334.06,294.18a7.33,7.33,0,0,0-4.7,1.57l.7,1.16a5.92,5.92,0,0,1,3.85-1.36c2.16,0,3.28,1.08,3.28,3.06v.7h-3.68c-3.32,0-4.46,1.5-4.46,3.28,0,2,1.6,3.36,4.22,3.36a4.32,4.32,0,0,0,4-1.91v1.8h1.5v-7.17c0-3-1.69-4.49-4.69-4.49Zm-.55,10.54c-1.84,0-2.92-.83-2.92-2.18,0-1.18.72-2.06,3-2.06h3.63v1.89A3.71,3.71,0,0,1,333.51,304.72Z" fill="#fff" fill-rule="evenodd"/><path d="M348.89,294.18a4.87,4.87,0,0,0-4.4,2.23v-2.14H343v11.57h1.56v-6.07c0-2.64,1.56-4.18,4.05-4.18,2.2,0,3.47,1.26,3.47,3.7v6.55h1.56v-6.71C353.64,295.81,351.71,294.18,348.89,294.18Z" fill="#fff" fill-rule="evenodd"/><path d="M368,300.06a5.51,5.51,0,0,0-5.61-5.88,5.58,5.58,0,0,0-5.65,5.88,6.12,6.12,0,0,0,10.54,4l-.88-1a4.58,4.58,0,0,1-3.55,1.52,4.29,4.29,0,0,1-4.55-4H368c0-.17,0-.35,0-.48Zm-5.61-4.53a4,4,0,0,1,4.12,3.85h-8.21A4,4,0,0,1,362.42,295.53Z" fill="#fff" fill-rule="evenodd"/><path d="M372.72,296.54v-2.27h-1.5v11.57h1.56V300c0-2.73,1.48-4.27,3.9-4.27l.37,0v-1.52C374.92,294.18,373.44,295,372.72,296.54Z" fill="#fff" fill-rule="evenodd"/><path d="M383.89,294.18a7.33,7.33,0,0,0-4.7,1.57l.7,1.16a5.92,5.92,0,0,1,3.85-1.36c2.16,0,3.28,1.08,3.28,3.06v.7h-3.68c-3.32,0-4.46,1.5-4.46,3.28,0,2,1.6,3.36,4.22,3.36a4.32,4.32,0,0,0,4-1.91v1.8h1.5v-7.17c0-3-1.69-4.49-4.69-4.49Zm-.55,10.54c-1.84,0-2.92-.83-2.92-2.18,0-1.18.72-2.06,3-2.06H387v1.89A3.71,3.71,0,0,1,383.34,304.72Z" fill="#fff" fill-rule="evenodd"/><polygon points="109.59 324.61 105.21 334.47 100.88 324.61 99.25 324.61 104.37 336.18 105.98 336.18 111.13 324.61 109.59 324.61" fill="#fff" fill-rule="evenodd"/><path d="M123.1,330.4a5.52,5.52,0,0,0-5.61-5.88,5.58,5.58,0,0,0-5.66,5.88,6.12,6.12,0,0,0,10.54,4l-.88-1a4.56,4.56,0,0,1-3.54,1.52,4.29,4.29,0,0,1-4.56-4h9.68c0-.18,0-.35,0-.48Zm-5.61-4.54a4,4,0,0,1,4.11,3.85h-8.21A4,4,0,0,1,117.49,325.86Z" fill="#fff" fill-rule="evenodd"/><path d="M132.18,324.52a4.89,4.89,0,0,0-4.4,2.22v-2.13h-1.49v11.57h1.56v-6.07c0-2.64,1.56-4.18,4.05-4.18,2.2,0,3.47,1.25,3.47,3.7v6.55h1.56v-6.71C136.93,326.15,135,324.52,132.18,324.52Z" fill="#fff" fill-rule="evenodd"/><path d="M150.22,319.86v6.95a5,5,0,0,0-4.4-2.29,5.89,5.89,0,0,0,0,11.77,5,5,0,0,0,4.47-2.4v2.29h1.49V319.86ZM146,334.91a4.52,4.52,0,1,1,4.29-4.51A4.24,4.24,0,0,1,146,334.91Z" fill="#fff" fill-rule="evenodd"/><path d="M166.24,330.4a5.52,5.52,0,0,0-5.61-5.88A5.58,5.58,0,0,0,155,330.4a6.12,6.12,0,0,0,10.54,4l-.88-1a4.56,4.56,0,0,1-3.54,1.52,4.28,4.28,0,0,1-4.55-4h9.68c0-.18,0-.35,0-.48Zm-5.61-4.54a4,4,0,0,1,4.11,3.85h-8.2A4,4,0,0,1,160.63,325.86Z" fill="#fff" fill-rule="evenodd"/><path d="M170.92,326.88v-2.27h-1.49v11.57H171v-5.89c0-2.73,1.47-4.27,3.89-4.27l.38,0v-1.52C173.12,324.52,171.65,325.34,170.92,326.88Z" fill="#fff" fill-rule="evenodd"/><path d="M185.82,320.1h-2.09l-3,2.73h1.54l3.57-2.73Zm-3.72,4.42a7.35,7.35,0,0,0-4.71,1.56l.71,1.17a5.85,5.85,0,0,1,3.85-1.36c2.15,0,3.27,1.07,3.27,3.05v.71h-3.67c-3.32,0-4.47,1.49-4.47,3.28,0,2,1.61,3.36,4.23,3.36a4.34,4.34,0,0,0,4-1.91v1.8h1.5V329c0-3-1.7-4.49-4.69-4.49Zm-.55,10.54c-1.85,0-2.93-.84-2.93-2.18,0-1.19.73-2.07,3-2.07h3.63v1.9A3.7,3.7,0,0,1,181.55,335.06Z" fill="#fff" fill-rule="evenodd"/><path d="M194.13,336.29c3,0,4.78-1.3,4.78-3.3,0-4.44-7.5-2.08-7.5-5.21,0-1.1.92-1.92,3-1.92a6,6,0,0,1,3.41,1l.68-1.25a7.83,7.83,0,0,0-4.09-1.08c-2.95,0-4.58,1.41-4.58,3.3,0,4.58,7.51,2.21,7.51,5.22,0,1.14-.91,1.89-3.11,1.89a7,7,0,0,1-4.11-1.3l-.7,1.23A7.66,7.66,0,0,0,194.13,336.29Z" fill="#fff" fill-rule="evenodd"/><path d="M222,324.52a5.06,5.06,0,0,0-4.58,2.44,4.16,4.16,0,0,0-4.11-2.44,4.69,4.69,0,0,0-4.25,2.2v-2.11h-1.5v11.57h1.57v-6.07c0-2.64,1.51-4.18,3.87-4.18,2.11,0,3.34,1.25,3.34,3.7v6.55h1.56v-6.07c0-2.64,1.5-4.18,3.88-4.18,2.09,0,3.32,1.25,3.32,3.7v6.55h1.56v-6.71C226.65,326.15,224.8,324.52,222,324.52Z" fill="#fff" fill-rule="evenodd"/><path d="M239.76,324.61v6.07c0,2.64-1.52,4.2-3.94,4.2-2.2,0-3.47-1.25-3.47-3.71v-6.56h-1.57v6.71c0,3.32,1.94,5,4.89,5a4.61,4.61,0,0,0,4.16-2.22v2.11h1.49V324.61Z" fill="#fff" fill-rule="evenodd"/><path d="M250.5,336.29A5.11,5.11,0,0,0,255,334l-1.17-.79a3.9,3.9,0,0,1-3.36,1.7,4.51,4.51,0,0,1,0-9,3.93,3.93,0,0,1,3.36,1.71l1.17-.79a5.06,5.06,0,0,0-4.53-2.29,5.89,5.89,0,1,0,0,11.77Z" fill="#fff" fill-rule="evenodd"/><path d="M263.81,324.52a4.9,4.9,0,0,0-4.34,2.11v-6.77h-1.56v16.32h1.56v-6.07c0-2.64,1.56-4.18,4-4.18,2.2,0,3.48,1.25,3.48,3.7v6.55h1.56v-6.71C268.56,326.15,266.62,324.52,263.81,324.52Z" fill="#fff" fill-rule="evenodd"/><path d="M277.58,336.29a5.89,5.89,0,1,0-5.9-5.89,5.68,5.68,0,0,0,5.9,5.89Zm0-1.38a4.52,4.52,0,1,1,4.29-4.51A4.24,4.24,0,0,1,277.58,334.91Z" fill="#fff" fill-rule="evenodd"/><path d="M306.84,324.52a5.06,5.06,0,0,0-4.58,2.44,4.16,4.16,0,0,0-4.11-2.44,4.7,4.7,0,0,0-4.25,2.2v-2.11h-1.49v11.57H294v-6.07c0-2.64,1.52-4.18,3.87-4.18,2.11,0,3.34,1.25,3.34,3.7v6.55h1.57v-6.07c0-2.64,1.49-4.18,3.87-4.18,2.09,0,3.32,1.25,3.32,3.7v6.55h1.56v-6.71C311.5,326.15,309.65,324.52,306.84,324.52Z" fill="#fff" fill-rule="evenodd"/><path d="M323.51,320.1h-2.09l-3,2.73H320l3.56-2.73Zm-3.71,4.42a7.33,7.33,0,0,0-4.71,1.56l.7,1.17a5.89,5.89,0,0,1,3.85-1.36c2.16,0,3.28,1.07,3.28,3.05v.71h-3.67c-3.33,0-4.47,1.49-4.47,3.28,0,2,1.61,3.36,4.22,3.36a4.35,4.35,0,0,0,4-1.91v1.8h1.49V329c0-3-1.69-4.49-4.68-4.49Zm-.55,10.54c-1.85,0-2.93-.84-2.93-2.18,0-1.19.73-2.07,3-2.07h3.63v1.9A3.71,3.71,0,0,1,319.25,335.06Z" fill="#fff" fill-rule="evenodd"/><path d="M331.83,336.29c3,0,4.77-1.3,4.77-3.3,0-4.44-7.5-2.08-7.5-5.21,0-1.1.93-1.92,3-1.92a6,6,0,0,1,3.41,1l.68-1.25a7.86,7.86,0,0,0-4.09-1.08c-2.95,0-4.58,1.41-4.58,3.3,0,4.58,7.5,2.21,7.5,5.22,0,1.14-.9,1.89-3.1,1.89a6.94,6.94,0,0,1-4.11-1.3l-.71,1.23A7.72,7.72,0,0,0,331.83,336.29Z" fill="#fff" fill-rule="evenodd"/><path d="M122.45,357.21V355H121v11.57h1.56v-5.9c0-2.72,1.48-4.26,3.9-4.26l.37,0v-1.52C124.65,354.86,123.17,355.67,122.45,357.21Z" fill="#fff" fill-rule="evenodd"/><path d="M137.34,350.44h-2.09l-3,2.73h1.54l3.56-2.73Zm-3.72,4.42a7.37,7.37,0,0,0-4.71,1.56l.71,1.17a5.86,5.86,0,0,1,3.85-1.37c2.15,0,3.28,1.08,3.28,3.06V360h-3.68c-3.32,0-4.46,1.49-4.46,3.27,0,2,1.6,3.37,4.22,3.37a4.36,4.36,0,0,0,4-1.91v1.8h1.5v-7.17c0-3-1.7-4.49-4.69-4.49Zm-.55,10.54c-1.85,0-2.92-.84-2.92-2.18s.72-2.07,3-2.07h3.63V363A3.72,3.72,0,0,1,133.07,365.4Z" fill="#fff" fill-rule="evenodd"/><path d="M148.52,354.86a5,5,0,0,0-4.47,2.38V355h-1.5v15.84h1.57v-6.45a5,5,0,0,0,4.4,2.29,5.89,5.89,0,0,0,0-11.77Zm-.11,10.38a4.51,4.51,0,1,1,4.31-4.51A4.24,4.24,0,0,1,148.41,365.24Z" fill="#fff" fill-rule="evenodd"/><path d="M158.26,352.42a1.13,1.13,0,0,0,1.15-1.15,1.15,1.15,0,0,0-2.29,0,1.13,1.13,0,0,0,1.14,1.12Zm-.79,14.1H159V355h-1.56Z" fill="#fff" fill-rule="evenodd"/><path d="M172.39,350.2v6.95a5.06,5.06,0,0,0-4.4-2.29,5.89,5.89,0,0,0,0,11.77,5,5,0,0,0,4.46-2.4v2.29H174V350.2Zm-4.27,15a4.52,4.52,0,1,1,4.29-4.51A4.23,4.23,0,0,1,168.12,365.24Z" fill="#fff" fill-rule="evenodd"/><path d="M183,366.63a5.89,5.89,0,1,0-5.89-5.9,5.69,5.69,0,0,0,5.89,5.9Zm0-1.39a4.52,4.52,0,1,1,4.29-4.51A4.24,4.24,0,0,1,183,365.24Z" fill="#fff" fill-rule="evenodd"/><path d="M203.41,364.69a2.58,2.58,0,0,1-1.72.6,1.85,1.85,0,0,1-2-2.11v-6.91h3.52V355h-3.52v-2.53h-1.56V355h-2.07v1.32h2.07v7a3.06,3.06,0,0,0,3.38,3.37,3.73,3.73,0,0,0,2.45-.81Z" fill="#fff" fill-rule="evenodd"/><path d="M215.66,355V361c0,2.64-1.52,4.2-3.94,4.2-2.2,0-3.47-1.25-3.47-3.72V355h-1.57v6.71c0,3.32,1.94,5,4.89,5a4.61,4.61,0,0,0,4.16-2.22v2.11h1.49V355Z" fill="#fff" fill-rule="evenodd"/><path d="M224.7,366.63c3,0,4.78-1.3,4.78-3.3,0-4.44-7.51-2.09-7.51-5.21,0-1.1.93-1.92,3-1.92a6,6,0,0,1,3.41,1l.68-1.25a7.86,7.86,0,0,0-4.09-1.08c-3,0-4.58,1.41-4.58,3.3,0,4.58,7.5,2.2,7.5,5.21,0,1.15-.9,1.9-3.1,1.9a7,7,0,0,1-4.11-1.3L220,365.2A7.78,7.78,0,0,0,224.7,366.63Z" fill="#fff" fill-rule="evenodd"/><path d="M244.08,354.86a5,5,0,0,0-4.46,2.38V355h-1.5v15.84h1.56v-6.45a5.06,5.06,0,0,0,4.4,2.29,5.89,5.89,0,0,0,0-11.77ZM244,365.24a4.51,4.51,0,1,1,4.32-4.51A4.24,4.24,0,0,1,244,365.24Z" fill="#fff" fill-rule="evenodd"/><path d="M254.53,357.21V355H253v11.57h1.56v-5.9c0-2.72,1.47-4.26,3.89-4.26l.38,0v-1.52C256.73,354.86,255.26,355.67,254.53,357.21Z" fill="#fff" fill-rule="evenodd"/><path d="M266.3,366.63a5.89,5.89,0,1,0-5.89-5.9,5.69,5.69,0,0,0,5.89,5.9Zm0-1.39a4.52,4.52,0,1,1,4.29-4.51A4.24,4.24,0,0,1,266.3,365.24Z" fill="#fff" fill-rule="evenodd"/><path d="M281.33,354.86a5.06,5.06,0,0,0-4.47,2.38V355h-1.49v15.84h1.56v-6.45a5,5,0,0,0,4.4,2.29,5.89,5.89,0,0,0,0-11.77Zm-.11,10.38a4.51,4.51,0,1,1,4.31-4.51A4.24,4.24,0,0,1,281.22,365.24Z" fill="#fff" fill-rule="evenodd"/><path d="M291.08,352.42a1.12,1.12,0,0,0,1.14-1.15,1.11,1.11,0,0,0-1.14-1.07,1.11,1.11,0,1,0,0,2.22Zm-.8,14.1h1.57V355h-1.57Z" fill="#fff" fill-rule="evenodd"/><path d="M300.25,354.86a7.35,7.35,0,0,0-4.71,1.56l.71,1.17a5.86,5.86,0,0,1,3.85-1.37c2.15,0,3.27,1.08,3.27,3.06V360H299.7c-3.32,0-4.47,1.49-4.47,3.27,0,2,1.61,3.37,4.23,3.37a4.36,4.36,0,0,0,4-1.91v1.8h1.5v-7.17c0-3-1.7-4.49-4.69-4.49Zm-.55,10.54c-1.85,0-2.93-.84-2.93-2.18s.73-2.07,3-2.07h3.63V363A3.69,3.69,0,0,1,299.7,365.4Z" fill="#fff" fill-rule="evenodd"/><path d="M312.28,366.63c3,0,4.78-1.3,4.78-3.3,0-4.44-7.5-2.09-7.5-5.21,0-1.1.92-1.92,3-1.92a6,6,0,0,1,3.41,1l.68-1.25a7.83,7.83,0,0,0-4.09-1.08c-2.95,0-4.58,1.41-4.58,3.3,0,4.58,7.51,2.2,7.51,5.21,0,1.15-.91,1.9-3.11,1.9a7,7,0,0,1-4.11-1.3l-.7,1.23A7.73,7.73,0,0,0,312.28,366.63Z" fill="#fff" fill-rule="evenodd"/><path d="M156.25,397a5.08,5.08,0,0,0,4.53-2.29l-1.16-.79a3.94,3.94,0,0,1-3.37,1.69,4.51,4.51,0,0,1,0-9,4,4,0,0,1,3.37,1.72l1.16-.79a5,5,0,0,0-4.53-2.29,5.89,5.89,0,1,0,0,11.77Z" fill="#fff" fill-rule="evenodd"/><path d="M167.89,385.2a7.35,7.35,0,0,0-4.71,1.56l.7,1.17a5.9,5.9,0,0,1,3.85-1.37c2.16,0,3.28,1.08,3.28,3.06v.7h-3.67c-3.32,0-4.47,1.5-4.47,3.28,0,2,1.61,3.37,4.23,3.37a4.35,4.35,0,0,0,4-1.92v1.81h1.49v-7.17c0-3-1.69-4.49-4.68-4.49Zm-.55,10.54c-1.85,0-2.93-.84-2.93-2.18s.73-2.07,3-2.07H171v1.89A3.69,3.69,0,0,1,167.34,395.74Z" fill="#fff" fill-rule="evenodd"/><path d="M182.78,385.2a5,5,0,0,0-4.46,2.37v-2.28h-1.5v15.84h1.56v-6.45a5,5,0,0,0,4.4,2.29,5.89,5.89,0,0,0,0-11.77Zm-.11,10.38a4.51,4.51,0,1,1,4.31-4.51A4.24,4.24,0,0,1,182.67,395.58Z" fill="#fff" fill-rule="evenodd"/><path d="M197.28,395a2.58,2.58,0,0,1-1.72.6,1.86,1.86,0,0,1-2-2.12v-6.9h3.52v-1.32h-3.52v-2.53H192v2.53h-2.07v1.32H192v7a3.07,3.07,0,0,0,3.39,3.37,3.73,3.73,0,0,0,2.44-.82Z" fill="#fff" fill-rule="evenodd"/><path d="M204.71,385.2a7.32,7.32,0,0,0-4.7,1.56l.7,1.17a5.88,5.88,0,0,1,3.85-1.37c2.16,0,3.28,1.08,3.28,3.06v.7h-3.67c-3.33,0-4.47,1.5-4.47,3.28,0,2,1.6,3.37,4.22,3.37a4.36,4.36,0,0,0,4-1.92v1.81h1.49v-7.17c0-3-1.69-4.49-4.69-4.49Zm-.54,10.54c-1.85,0-2.93-.84-2.93-2.18s.73-2.07,3-2.07h3.63v1.89A3.7,3.7,0,0,1,204.17,395.74Z" fill="#fff" fill-rule="evenodd"/><path d="M218.49,397a5.1,5.1,0,0,0,4.53-2.29l-1.17-.79a3.91,3.91,0,0,1-3.36,1.69,4.51,4.51,0,0,1,0-9,3.92,3.92,0,0,1,3.36,1.72l1.17-.79a5.05,5.05,0,0,0-4.53-2.29,5.89,5.89,0,1,0,0,11.77Z" fill="#fff" fill-rule="evenodd"/><path d="M226.87,382.76a1.12,1.12,0,0,0,1.14-1.15,1.11,1.11,0,0,0-1.14-1.08,1.12,1.12,0,1,0,0,2.23Zm-.79,14.1h1.56V385.29h-1.56Z" fill="#fff" fill-rule="evenodd"/><path d="M236.72,397a5.89,5.89,0,1,0-5.89-5.9,5.7,5.7,0,0,0,5.89,5.9Zm0-1.39a4.52,4.52,0,1,1,4.29-4.51A4.24,4.24,0,0,1,236.72,395.58Z" fill="#fff" fill-rule="evenodd"/><path d="M251.68,385.2a4.86,4.86,0,0,0-4.4,2.22v-2.13h-1.49v11.57h1.56v-6.07c0-2.64,1.56-4.18,4.05-4.18,2.2,0,3.47,1.25,3.47,3.69v6.56h1.57v-6.71C256.44,386.83,254.5,385.2,251.68,385.2Z" fill="#fff" fill-rule="evenodd"/><path d="M270.82,391.07a5.51,5.51,0,0,0-5.61-5.87,5.57,5.57,0,0,0-5.65,5.87,6.12,6.12,0,0,0,10.54,4l-.88-1a4.54,4.54,0,0,1-3.54,1.52,4.29,4.29,0,0,1-4.56-4h9.68c0-.18,0-.36,0-.49Zm-5.61-4.53a4,4,0,0,1,4.12,3.85h-8.21A4,4,0,0,1,265.21,386.54Z" fill="#fff" fill-rule="evenodd"/><path d="M277.12,397c3,0,4.77-1.3,4.77-3.3,0-4.44-7.5-2.09-7.5-5.22,0-1.1.92-1.91,3-1.91a6,6,0,0,1,3.41,1l.68-1.25a7.8,7.8,0,0,0-4.09-1.08c-2.95,0-4.57,1.41-4.57,3.3,0,4.57,7.5,2.2,7.5,5.21,0,1.15-.9,1.89-3.1,1.89a7.06,7.06,0,0,1-4.12-1.29l-.7,1.23A7.74,7.74,0,0,0,277.12,397Z" fill="#fff" fill-rule="evenodd"/><path d="M284.93,397a1.2,1.2,0,0,0,1.18-1.21,1.18,1.18,0,0,0-1.18-1.19,1.17,1.17,0,0,0-1.17,1.19A1.19,1.19,0,0,0,284.93,397Z" fill="#fff" fill-rule="evenodd"/></svg>